%TF.GenerationSoftware,KiCad,Pcbnew,9.0.1-rc2*%
%TF.CreationDate,2025-04-25T20:52:25-07:00*%
%TF.ProjectId,mintypcb,6d696e74-7970-4636-922e-6b696361645f,2*%
%TF.SameCoordinates,Original*%
%TF.FileFunction,Drillmap*%
%TF.FilePolarity,Positive*%
%FSLAX45Y45*%
G04 Gerber Fmt 4.5, Leading zero omitted, Abs format (unit mm)*
G04 Created by KiCad (PCBNEW 9.0.1-rc2) date 2025-04-25 20:52:25*
%MOMM*%
%LPD*%
G01*
G04 APERTURE LIST*
%ADD10C,0.150000*%
%ADD11C,0.127000*%
%ADD12C,0.200000*%
%ADD13C,0.100000*%
%ADD14C,0.115200*%
%ADD15C,0.220000*%
%ADD16C,0.240000*%
G04 APERTURE END LIST*
D10*
X4900000Y-10600000D02*
X10680000Y-10600000D01*
X6000000Y-5600000D02*
G75*
G02*
X5900000Y-5700000I-100000J0D01*
G01*
X12800000Y-5700000D02*
X13500000Y-5700000D01*
X8550000Y-5050000D02*
G75*
G02*
X8600000Y-5100000I0J-50000D01*
G01*
X6000000Y-5600000D02*
X6000000Y-5150000D01*
X5450000Y-10140000D02*
G75*
G02*
X5350000Y-10240000I-100000J0D01*
G01*
X10100000Y-5100000D02*
G75*
G02*
X10150000Y-5050000I50000J0D01*
G01*
X4900000Y-9660000D02*
X4900000Y-10600000D01*
X10775000Y-10100000D02*
G75*
G02*
X10675000Y-10000000I0J100000D01*
G01*
X12800000Y-5700000D02*
G75*
G02*
X12700000Y-5600000I0J100000D01*
G01*
X13800000Y-9800000D02*
X13800000Y-6000000D01*
X10675000Y-9960000D02*
X10675000Y-10000000D01*
X5000000Y-8150000D02*
X11900000Y-8150000D01*
X8700000Y-5200000D02*
G75*
G02*
X8600000Y-5100000I0J100000D01*
G01*
X5350000Y-10240000D02*
X5250000Y-10240000D01*
X5250000Y-10240000D02*
G75*
G02*
X5150000Y-10140000I0J100000D01*
G01*
X11200000Y-10000000D02*
G75*
G02*
X11300000Y-9900000I100000J0D01*
G01*
X10680000Y-10600000D02*
X10680000Y-10500000D01*
X5000000Y-8150000D02*
G75*
G02*
X4900000Y-8050000I0J100000D01*
G01*
X10775000Y-10100000D02*
X11100000Y-10100000D01*
X6000000Y-5150000D02*
G75*
G02*
X6100000Y-5050000I100000J0D01*
G01*
X11100000Y-10400000D02*
G75*
G02*
X11200000Y-10500000I0J-100000D01*
G01*
X4900000Y-6000000D02*
G75*
G02*
X5200000Y-5700000I300000J0D01*
G01*
X12700000Y-5600000D02*
X12700000Y-5150000D01*
X8700000Y-5200000D02*
X10000000Y-5200000D01*
X5150000Y-10140000D02*
X5150000Y-9660000D01*
X4900000Y-9660000D02*
X5150000Y-9660000D01*
X12000000Y-8435000D02*
X12000000Y-8250000D01*
X4900000Y-6000000D02*
X4900000Y-8050000D01*
X4900000Y-8310000D02*
X11800000Y-8310000D01*
X10100000Y-5100000D02*
G75*
G02*
X10000000Y-5200000I-100000J0D01*
G01*
X8550000Y-5050000D02*
X6100000Y-5050000D01*
X12000000Y-9800000D02*
G75*
G02*
X11900000Y-9900000I-100000J0D01*
G01*
X10150000Y-5050000D02*
X12600000Y-5050000D01*
X11800000Y-9045000D02*
X11800000Y-9500000D01*
X5450000Y-9960000D02*
X5450000Y-10140000D01*
X10680000Y-10500000D02*
G75*
G02*
X10780000Y-10400000I100000J0D01*
G01*
X11900000Y-8150000D02*
G75*
G02*
X12000000Y-8250000I0J-100000D01*
G01*
X11800000Y-8435000D02*
X11800000Y-8310000D01*
X12600000Y-10600000D02*
X11300000Y-10600000D01*
X13800000Y-9800000D02*
G75*
G02*
X12600000Y-10600000I-1200000J500000D01*
G01*
X11300000Y-10600000D02*
G75*
G02*
X11200000Y-10500000I0J100000D01*
G01*
X11900000Y-9900000D02*
X11300000Y-9900000D01*
X4900000Y-9500000D02*
X4900000Y-8310000D01*
X12600000Y-5050000D02*
G75*
G02*
X12700000Y-5150000I0J-100000D01*
G01*
X11200000Y-10000000D02*
G75*
G02*
X11100000Y-10100000I-100000J0D01*
G01*
X5900000Y-5700000D02*
X5200000Y-5700000D01*
X11800000Y-9045000D02*
G75*
G02*
X11900000Y-8945000I100000J0D01*
G01*
X10780000Y-10400000D02*
X11100000Y-10400000D01*
X13500000Y-5700000D02*
G75*
G02*
X13800000Y-6000000I0J-300000D01*
G01*
X11900000Y-8945000D02*
G75*
G02*
X12000000Y-9045000I0J-100000D01*
G01*
X11900000Y-8535000D02*
G75*
G02*
X11800000Y-8435000I0J100000D01*
G01*
X12000000Y-8435000D02*
G75*
G02*
X11900000Y-8535000I-100000J0D01*
G01*
X4900000Y-9500000D02*
X11800000Y-9500000D01*
X12000000Y-9045000D02*
X12000000Y-9800000D01*
D11*
X10375000Y-9660000D02*
X5750000Y-9660000D01*
X5450000Y-9960000D02*
G75*
G02*
X5750000Y-9660000I300000J0D01*
G01*
X10375000Y-9660000D02*
G75*
G02*
X10675000Y-9960000I0J-300000D01*
G01*
D12*
D13*
X11165000Y-10085000D02*
X11225000Y-10145000D01*
X11225000Y-10085000D02*
X11165000Y-10145000D01*
X11165000Y-10175000D02*
X11225000Y-10235000D01*
X11225000Y-10175000D02*
X11165000Y-10235000D01*
X11165000Y-10265000D02*
X11225000Y-10325000D01*
X11225000Y-10265000D02*
X11165000Y-10325000D01*
X11165000Y-10355000D02*
X11225000Y-10415000D01*
X11225000Y-10355000D02*
X11165000Y-10415000D01*
X11947500Y-8530000D02*
X12007500Y-8590000D01*
X12007500Y-8530000D02*
X11947500Y-8590000D01*
X11947500Y-8620000D02*
X12007500Y-8680000D01*
X12007500Y-8620000D02*
X11947500Y-8680000D01*
X11947500Y-8710000D02*
X12007500Y-8770000D01*
X12007500Y-8710000D02*
X11947500Y-8770000D01*
X11947500Y-8800000D02*
X12007500Y-8860000D01*
X12007500Y-8800000D02*
X11947500Y-8860000D01*
X11947500Y-8890000D02*
X12007500Y-8950000D01*
X12007500Y-8890000D02*
X11947500Y-8950000D01*
D14*
X5547600Y-5830000D02*
G75*
G02*
X5432400Y-5830000I-57600J0D01*
G01*
X5432400Y-5830000D02*
G75*
G02*
X5547600Y-5830000I57600J0D01*
G01*
X13497600Y-10120000D02*
G75*
G02*
X13382400Y-10120000I-57600J0D01*
G01*
X13382400Y-10120000D02*
G75*
G02*
X13497600Y-10120000I57600J0D01*
G01*
D15*
X5200000Y-5890000D02*
X5200000Y-6110000D01*
X5090000Y-6000000D02*
X5310000Y-6000000D01*
X8550000Y-5890000D02*
X8550000Y-6110000D01*
X8440000Y-6000000D02*
X8660000Y-6000000D01*
X13500000Y-5890000D02*
X13500000Y-6110000D01*
X13390000Y-6000000D02*
X13610000Y-6000000D01*
X13500000Y-8040000D02*
X13500000Y-8260000D01*
X13390000Y-8150000D02*
X13610000Y-8150000D01*
D16*
X5784854Y-7954854D02*
X5784854Y-7785146D01*
X5615146Y-7785146D01*
X5615146Y-7954854D01*
X5784854Y-7954854D01*
X5883854Y-9317854D02*
X5883854Y-9148146D01*
X5714146Y-9148146D01*
X5714146Y-9317854D01*
X5883854Y-9317854D01*
X5884854Y-10094854D02*
X5884854Y-9925146D01*
X5715146Y-9925146D01*
X5715146Y-10094854D01*
X5884854Y-10094854D01*
X10408854Y-9317854D02*
X10408854Y-9148146D01*
X10239146Y-9148146D01*
X10239146Y-9317854D01*
X10408854Y-9317854D01*
X10409854Y-10094854D02*
X10409854Y-9925146D01*
X10240146Y-9925146D01*
X10240146Y-10094854D01*
X10409854Y-10094854D01*
X11584854Y-7954854D02*
X11584854Y-7785146D01*
X11415146Y-7785146D01*
X11415146Y-7954854D01*
X11584854Y-7954854D01*
X11584854Y-10254854D02*
X11584854Y-10085146D01*
X11415146Y-10085146D01*
X11415146Y-10254854D01*
X11584854Y-10254854D01*
D12*
X5153277Y-10918984D02*
X5153277Y-10718984D01*
X5153277Y-10718984D02*
X5200896Y-10718984D01*
X5200896Y-10718984D02*
X5229467Y-10728508D01*
X5229467Y-10728508D02*
X5248515Y-10747555D01*
X5248515Y-10747555D02*
X5258039Y-10766603D01*
X5258039Y-10766603D02*
X5267562Y-10804698D01*
X5267562Y-10804698D02*
X5267562Y-10833270D01*
X5267562Y-10833270D02*
X5258039Y-10871365D01*
X5258039Y-10871365D02*
X5248515Y-10890412D01*
X5248515Y-10890412D02*
X5229467Y-10909460D01*
X5229467Y-10909460D02*
X5200896Y-10918984D01*
X5200896Y-10918984D02*
X5153277Y-10918984D01*
X5353277Y-10918984D02*
X5353277Y-10785650D01*
X5353277Y-10823746D02*
X5362801Y-10804698D01*
X5362801Y-10804698D02*
X5372324Y-10795174D01*
X5372324Y-10795174D02*
X5391372Y-10785650D01*
X5391372Y-10785650D02*
X5410420Y-10785650D01*
X5477086Y-10918984D02*
X5477086Y-10785650D01*
X5477086Y-10718984D02*
X5467562Y-10728508D01*
X5467562Y-10728508D02*
X5477086Y-10738031D01*
X5477086Y-10738031D02*
X5486610Y-10728508D01*
X5486610Y-10728508D02*
X5477086Y-10718984D01*
X5477086Y-10718984D02*
X5477086Y-10738031D01*
X5600896Y-10918984D02*
X5581848Y-10909460D01*
X5581848Y-10909460D02*
X5572324Y-10890412D01*
X5572324Y-10890412D02*
X5572324Y-10718984D01*
X5705658Y-10918984D02*
X5686610Y-10909460D01*
X5686610Y-10909460D02*
X5677086Y-10890412D01*
X5677086Y-10890412D02*
X5677086Y-10718984D01*
X5934229Y-10918984D02*
X5934229Y-10718984D01*
X5934229Y-10718984D02*
X6000896Y-10861841D01*
X6000896Y-10861841D02*
X6067562Y-10718984D01*
X6067562Y-10718984D02*
X6067562Y-10918984D01*
X6248515Y-10918984D02*
X6248515Y-10814222D01*
X6248515Y-10814222D02*
X6238991Y-10795174D01*
X6238991Y-10795174D02*
X6219943Y-10785650D01*
X6219943Y-10785650D02*
X6181848Y-10785650D01*
X6181848Y-10785650D02*
X6162800Y-10795174D01*
X6248515Y-10909460D02*
X6229467Y-10918984D01*
X6229467Y-10918984D02*
X6181848Y-10918984D01*
X6181848Y-10918984D02*
X6162800Y-10909460D01*
X6162800Y-10909460D02*
X6153277Y-10890412D01*
X6153277Y-10890412D02*
X6153277Y-10871365D01*
X6153277Y-10871365D02*
X6162800Y-10852317D01*
X6162800Y-10852317D02*
X6181848Y-10842793D01*
X6181848Y-10842793D02*
X6229467Y-10842793D01*
X6229467Y-10842793D02*
X6248515Y-10833270D01*
X6343753Y-10785650D02*
X6343753Y-10985650D01*
X6343753Y-10795174D02*
X6362800Y-10785650D01*
X6362800Y-10785650D02*
X6400896Y-10785650D01*
X6400896Y-10785650D02*
X6419943Y-10795174D01*
X6419943Y-10795174D02*
X6429467Y-10804698D01*
X6429467Y-10804698D02*
X6438991Y-10823746D01*
X6438991Y-10823746D02*
X6438991Y-10880889D01*
X6438991Y-10880889D02*
X6429467Y-10899936D01*
X6429467Y-10899936D02*
X6419943Y-10909460D01*
X6419943Y-10909460D02*
X6400896Y-10918984D01*
X6400896Y-10918984D02*
X6362800Y-10918984D01*
X6362800Y-10918984D02*
X6343753Y-10909460D01*
X6524705Y-10899936D02*
X6534229Y-10909460D01*
X6534229Y-10909460D02*
X6524705Y-10918984D01*
X6524705Y-10918984D02*
X6515181Y-10909460D01*
X6515181Y-10909460D02*
X6524705Y-10899936D01*
X6524705Y-10899936D02*
X6524705Y-10918984D01*
X6524705Y-10795174D02*
X6534229Y-10804698D01*
X6534229Y-10804698D02*
X6524705Y-10814222D01*
X6524705Y-10814222D02*
X6515181Y-10804698D01*
X6515181Y-10804698D02*
X6524705Y-10795174D01*
X6524705Y-10795174D02*
X6524705Y-10814222D01*
D13*
X4832500Y-11217500D02*
X4892500Y-11277500D01*
X4892500Y-11217500D02*
X4832500Y-11277500D01*
D12*
X5191372Y-11138984D02*
X5210420Y-11138984D01*
X5210420Y-11138984D02*
X5229467Y-11148508D01*
X5229467Y-11148508D02*
X5238991Y-11158031D01*
X5238991Y-11158031D02*
X5248515Y-11177079D01*
X5248515Y-11177079D02*
X5258039Y-11215174D01*
X5258039Y-11215174D02*
X5258039Y-11262793D01*
X5258039Y-11262793D02*
X5248515Y-11300888D01*
X5248515Y-11300888D02*
X5238991Y-11319936D01*
X5238991Y-11319936D02*
X5229467Y-11329460D01*
X5229467Y-11329460D02*
X5210420Y-11338984D01*
X5210420Y-11338984D02*
X5191372Y-11338984D01*
X5191372Y-11338984D02*
X5172324Y-11329460D01*
X5172324Y-11329460D02*
X5162801Y-11319936D01*
X5162801Y-11319936D02*
X5153277Y-11300888D01*
X5153277Y-11300888D02*
X5143753Y-11262793D01*
X5143753Y-11262793D02*
X5143753Y-11215174D01*
X5143753Y-11215174D02*
X5153277Y-11177079D01*
X5153277Y-11177079D02*
X5162801Y-11158031D01*
X5162801Y-11158031D02*
X5172324Y-11148508D01*
X5172324Y-11148508D02*
X5191372Y-11138984D01*
X5343753Y-11319936D02*
X5353277Y-11329460D01*
X5353277Y-11329460D02*
X5343753Y-11338984D01*
X5343753Y-11338984D02*
X5334229Y-11329460D01*
X5334229Y-11329460D02*
X5343753Y-11319936D01*
X5343753Y-11319936D02*
X5343753Y-11338984D01*
X5524705Y-11138984D02*
X5486610Y-11138984D01*
X5486610Y-11138984D02*
X5467562Y-11148508D01*
X5467562Y-11148508D02*
X5458039Y-11158031D01*
X5458039Y-11158031D02*
X5438991Y-11186603D01*
X5438991Y-11186603D02*
X5429467Y-11224698D01*
X5429467Y-11224698D02*
X5429467Y-11300888D01*
X5429467Y-11300888D02*
X5438991Y-11319936D01*
X5438991Y-11319936D02*
X5448515Y-11329460D01*
X5448515Y-11329460D02*
X5467562Y-11338984D01*
X5467562Y-11338984D02*
X5505658Y-11338984D01*
X5505658Y-11338984D02*
X5524705Y-11329460D01*
X5524705Y-11329460D02*
X5534229Y-11319936D01*
X5534229Y-11319936D02*
X5543753Y-11300888D01*
X5543753Y-11300888D02*
X5543753Y-11253269D01*
X5543753Y-11253269D02*
X5534229Y-11234222D01*
X5534229Y-11234222D02*
X5524705Y-11224698D01*
X5524705Y-11224698D02*
X5505658Y-11215174D01*
X5505658Y-11215174D02*
X5467562Y-11215174D01*
X5467562Y-11215174D02*
X5448515Y-11224698D01*
X5448515Y-11224698D02*
X5438991Y-11234222D01*
X5438991Y-11234222D02*
X5429467Y-11253269D01*
X5667562Y-11138984D02*
X5686610Y-11138984D01*
X5686610Y-11138984D02*
X5705658Y-11148508D01*
X5705658Y-11148508D02*
X5715181Y-11158031D01*
X5715181Y-11158031D02*
X5724705Y-11177079D01*
X5724705Y-11177079D02*
X5734229Y-11215174D01*
X5734229Y-11215174D02*
X5734229Y-11262793D01*
X5734229Y-11262793D02*
X5724705Y-11300888D01*
X5724705Y-11300888D02*
X5715181Y-11319936D01*
X5715181Y-11319936D02*
X5705658Y-11329460D01*
X5705658Y-11329460D02*
X5686610Y-11338984D01*
X5686610Y-11338984D02*
X5667562Y-11338984D01*
X5667562Y-11338984D02*
X5648515Y-11329460D01*
X5648515Y-11329460D02*
X5638991Y-11319936D01*
X5638991Y-11319936D02*
X5629467Y-11300888D01*
X5629467Y-11300888D02*
X5619943Y-11262793D01*
X5619943Y-11262793D02*
X5619943Y-11215174D01*
X5619943Y-11215174D02*
X5629467Y-11177079D01*
X5629467Y-11177079D02*
X5638991Y-11158031D01*
X5638991Y-11158031D02*
X5648515Y-11148508D01*
X5648515Y-11148508D02*
X5667562Y-11138984D01*
X5858039Y-11138984D02*
X5877086Y-11138984D01*
X5877086Y-11138984D02*
X5896134Y-11148508D01*
X5896134Y-11148508D02*
X5905658Y-11158031D01*
X5905658Y-11158031D02*
X5915181Y-11177079D01*
X5915181Y-11177079D02*
X5924705Y-11215174D01*
X5924705Y-11215174D02*
X5924705Y-11262793D01*
X5924705Y-11262793D02*
X5915181Y-11300888D01*
X5915181Y-11300888D02*
X5905658Y-11319936D01*
X5905658Y-11319936D02*
X5896134Y-11329460D01*
X5896134Y-11329460D02*
X5877086Y-11338984D01*
X5877086Y-11338984D02*
X5858039Y-11338984D01*
X5858039Y-11338984D02*
X5838991Y-11329460D01*
X5838991Y-11329460D02*
X5829467Y-11319936D01*
X5829467Y-11319936D02*
X5819943Y-11300888D01*
X5819943Y-11300888D02*
X5810420Y-11262793D01*
X5810420Y-11262793D02*
X5810420Y-11215174D01*
X5810420Y-11215174D02*
X5819943Y-11177079D01*
X5819943Y-11177079D02*
X5829467Y-11158031D01*
X5829467Y-11158031D02*
X5838991Y-11148508D01*
X5838991Y-11148508D02*
X5858039Y-11138984D01*
X6010420Y-11338984D02*
X6010420Y-11205650D01*
X6010420Y-11224698D02*
X6019943Y-11215174D01*
X6019943Y-11215174D02*
X6038991Y-11205650D01*
X6038991Y-11205650D02*
X6067562Y-11205650D01*
X6067562Y-11205650D02*
X6086610Y-11215174D01*
X6086610Y-11215174D02*
X6096134Y-11234222D01*
X6096134Y-11234222D02*
X6096134Y-11338984D01*
X6096134Y-11234222D02*
X6105658Y-11215174D01*
X6105658Y-11215174D02*
X6124705Y-11205650D01*
X6124705Y-11205650D02*
X6153277Y-11205650D01*
X6153277Y-11205650D02*
X6172324Y-11215174D01*
X6172324Y-11215174D02*
X6181848Y-11234222D01*
X6181848Y-11234222D02*
X6181848Y-11338984D01*
X6277086Y-11338984D02*
X6277086Y-11205650D01*
X6277086Y-11224698D02*
X6286610Y-11215174D01*
X6286610Y-11215174D02*
X6305658Y-11205650D01*
X6305658Y-11205650D02*
X6334229Y-11205650D01*
X6334229Y-11205650D02*
X6353277Y-11215174D01*
X6353277Y-11215174D02*
X6362801Y-11234222D01*
X6362801Y-11234222D02*
X6362801Y-11338984D01*
X6362801Y-11234222D02*
X6372324Y-11215174D01*
X6372324Y-11215174D02*
X6391372Y-11205650D01*
X6391372Y-11205650D02*
X6419943Y-11205650D01*
X6419943Y-11205650D02*
X6438991Y-11215174D01*
X6438991Y-11215174D02*
X6448515Y-11234222D01*
X6448515Y-11234222D02*
X6448515Y-11338984D01*
X6838991Y-11129460D02*
X6667563Y-11386603D01*
X7096134Y-11138984D02*
X7115182Y-11138984D01*
X7115182Y-11138984D02*
X7134229Y-11148508D01*
X7134229Y-11148508D02*
X7143753Y-11158031D01*
X7143753Y-11158031D02*
X7153277Y-11177079D01*
X7153277Y-11177079D02*
X7162801Y-11215174D01*
X7162801Y-11215174D02*
X7162801Y-11262793D01*
X7162801Y-11262793D02*
X7153277Y-11300888D01*
X7153277Y-11300888D02*
X7143753Y-11319936D01*
X7143753Y-11319936D02*
X7134229Y-11329460D01*
X7134229Y-11329460D02*
X7115182Y-11338984D01*
X7115182Y-11338984D02*
X7096134Y-11338984D01*
X7096134Y-11338984D02*
X7077086Y-11329460D01*
X7077086Y-11329460D02*
X7067563Y-11319936D01*
X7067563Y-11319936D02*
X7058039Y-11300888D01*
X7058039Y-11300888D02*
X7048515Y-11262793D01*
X7048515Y-11262793D02*
X7048515Y-11215174D01*
X7048515Y-11215174D02*
X7058039Y-11177079D01*
X7058039Y-11177079D02*
X7067563Y-11158031D01*
X7067563Y-11158031D02*
X7077086Y-11148508D01*
X7077086Y-11148508D02*
X7096134Y-11138984D01*
X7248515Y-11319936D02*
X7258039Y-11329460D01*
X7258039Y-11329460D02*
X7248515Y-11338984D01*
X7248515Y-11338984D02*
X7238991Y-11329460D01*
X7238991Y-11329460D02*
X7248515Y-11319936D01*
X7248515Y-11319936D02*
X7248515Y-11338984D01*
X7381848Y-11138984D02*
X7400896Y-11138984D01*
X7400896Y-11138984D02*
X7419944Y-11148508D01*
X7419944Y-11148508D02*
X7429467Y-11158031D01*
X7429467Y-11158031D02*
X7438991Y-11177079D01*
X7438991Y-11177079D02*
X7448515Y-11215174D01*
X7448515Y-11215174D02*
X7448515Y-11262793D01*
X7448515Y-11262793D02*
X7438991Y-11300888D01*
X7438991Y-11300888D02*
X7429467Y-11319936D01*
X7429467Y-11319936D02*
X7419944Y-11329460D01*
X7419944Y-11329460D02*
X7400896Y-11338984D01*
X7400896Y-11338984D02*
X7381848Y-11338984D01*
X7381848Y-11338984D02*
X7362801Y-11329460D01*
X7362801Y-11329460D02*
X7353277Y-11319936D01*
X7353277Y-11319936D02*
X7343753Y-11300888D01*
X7343753Y-11300888D02*
X7334229Y-11262793D01*
X7334229Y-11262793D02*
X7334229Y-11215174D01*
X7334229Y-11215174D02*
X7343753Y-11177079D01*
X7343753Y-11177079D02*
X7353277Y-11158031D01*
X7353277Y-11158031D02*
X7362801Y-11148508D01*
X7362801Y-11148508D02*
X7381848Y-11138984D01*
X7524705Y-11158031D02*
X7534229Y-11148508D01*
X7534229Y-11148508D02*
X7553277Y-11138984D01*
X7553277Y-11138984D02*
X7600896Y-11138984D01*
X7600896Y-11138984D02*
X7619944Y-11148508D01*
X7619944Y-11148508D02*
X7629467Y-11158031D01*
X7629467Y-11158031D02*
X7638991Y-11177079D01*
X7638991Y-11177079D02*
X7638991Y-11196127D01*
X7638991Y-11196127D02*
X7629467Y-11224698D01*
X7629467Y-11224698D02*
X7515182Y-11338984D01*
X7515182Y-11338984D02*
X7638991Y-11338984D01*
X7705658Y-11138984D02*
X7829467Y-11138984D01*
X7829467Y-11138984D02*
X7762801Y-11215174D01*
X7762801Y-11215174D02*
X7791372Y-11215174D01*
X7791372Y-11215174D02*
X7810420Y-11224698D01*
X7810420Y-11224698D02*
X7819944Y-11234222D01*
X7819944Y-11234222D02*
X7829467Y-11253269D01*
X7829467Y-11253269D02*
X7829467Y-11300888D01*
X7829467Y-11300888D02*
X7819944Y-11319936D01*
X7819944Y-11319936D02*
X7810420Y-11329460D01*
X7810420Y-11329460D02*
X7791372Y-11338984D01*
X7791372Y-11338984D02*
X7734229Y-11338984D01*
X7734229Y-11338984D02*
X7715182Y-11329460D01*
X7715182Y-11329460D02*
X7705658Y-11319936D01*
X8000896Y-11138984D02*
X7962801Y-11138984D01*
X7962801Y-11138984D02*
X7943753Y-11148508D01*
X7943753Y-11148508D02*
X7934229Y-11158031D01*
X7934229Y-11158031D02*
X7915182Y-11186603D01*
X7915182Y-11186603D02*
X7905658Y-11224698D01*
X7905658Y-11224698D02*
X7905658Y-11300888D01*
X7905658Y-11300888D02*
X7915182Y-11319936D01*
X7915182Y-11319936D02*
X7924705Y-11329460D01*
X7924705Y-11329460D02*
X7943753Y-11338984D01*
X7943753Y-11338984D02*
X7981848Y-11338984D01*
X7981848Y-11338984D02*
X8000896Y-11329460D01*
X8000896Y-11329460D02*
X8010420Y-11319936D01*
X8010420Y-11319936D02*
X8019944Y-11300888D01*
X8019944Y-11300888D02*
X8019944Y-11253269D01*
X8019944Y-11253269D02*
X8010420Y-11234222D01*
X8010420Y-11234222D02*
X8000896Y-11224698D01*
X8000896Y-11224698D02*
X7981848Y-11215174D01*
X7981848Y-11215174D02*
X7943753Y-11215174D01*
X7943753Y-11215174D02*
X7924705Y-11224698D01*
X7924705Y-11224698D02*
X7915182Y-11234222D01*
X7915182Y-11234222D02*
X7905658Y-11253269D01*
X8096134Y-11138984D02*
X8096134Y-11177079D01*
X8172325Y-11138984D02*
X8172325Y-11177079D01*
X8467563Y-11415174D02*
X8458039Y-11405650D01*
X8458039Y-11405650D02*
X8438991Y-11377079D01*
X8438991Y-11377079D02*
X8429468Y-11358031D01*
X8429468Y-11358031D02*
X8419944Y-11329460D01*
X8419944Y-11329460D02*
X8410420Y-11281841D01*
X8410420Y-11281841D02*
X8410420Y-11243746D01*
X8410420Y-11243746D02*
X8419944Y-11196127D01*
X8419944Y-11196127D02*
X8429468Y-11167555D01*
X8429468Y-11167555D02*
X8438991Y-11148508D01*
X8438991Y-11148508D02*
X8458039Y-11119936D01*
X8458039Y-11119936D02*
X8467563Y-11110412D01*
X8553277Y-11338984D02*
X8591372Y-11338984D01*
X8591372Y-11338984D02*
X8610420Y-11329460D01*
X8610420Y-11329460D02*
X8619944Y-11319936D01*
X8619944Y-11319936D02*
X8638991Y-11291365D01*
X8638991Y-11291365D02*
X8648515Y-11253269D01*
X8648515Y-11253269D02*
X8648515Y-11177079D01*
X8648515Y-11177079D02*
X8638991Y-11158031D01*
X8638991Y-11158031D02*
X8629468Y-11148508D01*
X8629468Y-11148508D02*
X8610420Y-11138984D01*
X8610420Y-11138984D02*
X8572325Y-11138984D01*
X8572325Y-11138984D02*
X8553277Y-11148508D01*
X8553277Y-11148508D02*
X8543753Y-11158031D01*
X8543753Y-11158031D02*
X8534229Y-11177079D01*
X8534229Y-11177079D02*
X8534229Y-11224698D01*
X8534229Y-11224698D02*
X8543753Y-11243746D01*
X8543753Y-11243746D02*
X8553277Y-11253269D01*
X8553277Y-11253269D02*
X8572325Y-11262793D01*
X8572325Y-11262793D02*
X8610420Y-11262793D01*
X8610420Y-11262793D02*
X8629468Y-11253269D01*
X8629468Y-11253269D02*
X8638991Y-11243746D01*
X8638991Y-11243746D02*
X8648515Y-11224698D01*
X8886610Y-11338984D02*
X8886610Y-11138984D01*
X8972325Y-11338984D02*
X8972325Y-11234222D01*
X8972325Y-11234222D02*
X8962801Y-11215174D01*
X8962801Y-11215174D02*
X8943753Y-11205650D01*
X8943753Y-11205650D02*
X8915182Y-11205650D01*
X8915182Y-11205650D02*
X8896134Y-11215174D01*
X8896134Y-11215174D02*
X8886610Y-11224698D01*
X9096134Y-11338984D02*
X9077087Y-11329460D01*
X9077087Y-11329460D02*
X9067563Y-11319936D01*
X9067563Y-11319936D02*
X9058039Y-11300888D01*
X9058039Y-11300888D02*
X9058039Y-11243746D01*
X9058039Y-11243746D02*
X9067563Y-11224698D01*
X9067563Y-11224698D02*
X9077087Y-11215174D01*
X9077087Y-11215174D02*
X9096134Y-11205650D01*
X9096134Y-11205650D02*
X9124706Y-11205650D01*
X9124706Y-11205650D02*
X9143753Y-11215174D01*
X9143753Y-11215174D02*
X9153277Y-11224698D01*
X9153277Y-11224698D02*
X9162801Y-11243746D01*
X9162801Y-11243746D02*
X9162801Y-11300888D01*
X9162801Y-11300888D02*
X9153277Y-11319936D01*
X9153277Y-11319936D02*
X9143753Y-11329460D01*
X9143753Y-11329460D02*
X9124706Y-11338984D01*
X9124706Y-11338984D02*
X9096134Y-11338984D01*
X9277087Y-11338984D02*
X9258039Y-11329460D01*
X9258039Y-11329460D02*
X9248515Y-11310412D01*
X9248515Y-11310412D02*
X9248515Y-11138984D01*
X9429468Y-11329460D02*
X9410420Y-11338984D01*
X9410420Y-11338984D02*
X9372325Y-11338984D01*
X9372325Y-11338984D02*
X9353277Y-11329460D01*
X9353277Y-11329460D02*
X9343753Y-11310412D01*
X9343753Y-11310412D02*
X9343753Y-11234222D01*
X9343753Y-11234222D02*
X9353277Y-11215174D01*
X9353277Y-11215174D02*
X9372325Y-11205650D01*
X9372325Y-11205650D02*
X9410420Y-11205650D01*
X9410420Y-11205650D02*
X9429468Y-11215174D01*
X9429468Y-11215174D02*
X9438991Y-11234222D01*
X9438991Y-11234222D02*
X9438991Y-11253269D01*
X9438991Y-11253269D02*
X9343753Y-11272317D01*
X9515182Y-11329460D02*
X9534230Y-11338984D01*
X9534230Y-11338984D02*
X9572325Y-11338984D01*
X9572325Y-11338984D02*
X9591372Y-11329460D01*
X9591372Y-11329460D02*
X9600896Y-11310412D01*
X9600896Y-11310412D02*
X9600896Y-11300888D01*
X9600896Y-11300888D02*
X9591372Y-11281841D01*
X9591372Y-11281841D02*
X9572325Y-11272317D01*
X9572325Y-11272317D02*
X9543753Y-11272317D01*
X9543753Y-11272317D02*
X9524706Y-11262793D01*
X9524706Y-11262793D02*
X9515182Y-11243746D01*
X9515182Y-11243746D02*
X9515182Y-11234222D01*
X9515182Y-11234222D02*
X9524706Y-11215174D01*
X9524706Y-11215174D02*
X9543753Y-11205650D01*
X9543753Y-11205650D02*
X9572325Y-11205650D01*
X9572325Y-11205650D02*
X9591372Y-11215174D01*
X9667563Y-11415174D02*
X9677087Y-11405650D01*
X9677087Y-11405650D02*
X9696134Y-11377079D01*
X9696134Y-11377079D02*
X9705658Y-11358031D01*
X9705658Y-11358031D02*
X9715182Y-11329460D01*
X9715182Y-11329460D02*
X9724706Y-11281841D01*
X9724706Y-11281841D02*
X9724706Y-11243746D01*
X9724706Y-11243746D02*
X9715182Y-11196127D01*
X9715182Y-11196127D02*
X9705658Y-11167555D01*
X9705658Y-11167555D02*
X9696134Y-11148508D01*
X9696134Y-11148508D02*
X9677087Y-11119936D01*
X9677087Y-11119936D02*
X9667563Y-11110412D01*
X10029468Y-11415174D02*
X10019944Y-11405650D01*
X10019944Y-11405650D02*
X10000896Y-11377079D01*
X10000896Y-11377079D02*
X9991372Y-11358031D01*
X9991372Y-11358031D02*
X9981849Y-11329460D01*
X9981849Y-11329460D02*
X9972325Y-11281841D01*
X9972325Y-11281841D02*
X9972325Y-11243746D01*
X9972325Y-11243746D02*
X9981849Y-11196127D01*
X9981849Y-11196127D02*
X9991372Y-11167555D01*
X9991372Y-11167555D02*
X10000896Y-11148508D01*
X10000896Y-11148508D02*
X10019944Y-11119936D01*
X10019944Y-11119936D02*
X10029468Y-11110412D01*
X10105658Y-11205650D02*
X10105658Y-11338984D01*
X10105658Y-11224698D02*
X10115182Y-11215174D01*
X10115182Y-11215174D02*
X10134230Y-11205650D01*
X10134230Y-11205650D02*
X10162801Y-11205650D01*
X10162801Y-11205650D02*
X10181849Y-11215174D01*
X10181849Y-11215174D02*
X10191372Y-11234222D01*
X10191372Y-11234222D02*
X10191372Y-11338984D01*
X10315182Y-11338984D02*
X10296134Y-11329460D01*
X10296134Y-11329460D02*
X10286611Y-11319936D01*
X10286611Y-11319936D02*
X10277087Y-11300888D01*
X10277087Y-11300888D02*
X10277087Y-11243746D01*
X10277087Y-11243746D02*
X10286611Y-11224698D01*
X10286611Y-11224698D02*
X10296134Y-11215174D01*
X10296134Y-11215174D02*
X10315182Y-11205650D01*
X10315182Y-11205650D02*
X10343753Y-11205650D01*
X10343753Y-11205650D02*
X10362801Y-11215174D01*
X10362801Y-11215174D02*
X10372325Y-11224698D01*
X10372325Y-11224698D02*
X10381849Y-11243746D01*
X10381849Y-11243746D02*
X10381849Y-11300888D01*
X10381849Y-11300888D02*
X10372325Y-11319936D01*
X10372325Y-11319936D02*
X10362801Y-11329460D01*
X10362801Y-11329460D02*
X10343753Y-11338984D01*
X10343753Y-11338984D02*
X10315182Y-11338984D01*
X10438992Y-11205650D02*
X10515182Y-11205650D01*
X10467563Y-11138984D02*
X10467563Y-11310412D01*
X10467563Y-11310412D02*
X10477087Y-11329460D01*
X10477087Y-11329460D02*
X10496134Y-11338984D01*
X10496134Y-11338984D02*
X10515182Y-11338984D01*
X10734230Y-11205650D02*
X10734230Y-11405650D01*
X10734230Y-11215174D02*
X10753277Y-11205650D01*
X10753277Y-11205650D02*
X10791373Y-11205650D01*
X10791373Y-11205650D02*
X10810420Y-11215174D01*
X10810420Y-11215174D02*
X10819944Y-11224698D01*
X10819944Y-11224698D02*
X10829468Y-11243746D01*
X10829468Y-11243746D02*
X10829468Y-11300888D01*
X10829468Y-11300888D02*
X10819944Y-11319936D01*
X10819944Y-11319936D02*
X10810420Y-11329460D01*
X10810420Y-11329460D02*
X10791373Y-11338984D01*
X10791373Y-11338984D02*
X10753277Y-11338984D01*
X10753277Y-11338984D02*
X10734230Y-11329460D01*
X10943753Y-11338984D02*
X10924706Y-11329460D01*
X10924706Y-11329460D02*
X10915182Y-11310412D01*
X10915182Y-11310412D02*
X10915182Y-11138984D01*
X11105658Y-11338984D02*
X11105658Y-11234222D01*
X11105658Y-11234222D02*
X11096134Y-11215174D01*
X11096134Y-11215174D02*
X11077087Y-11205650D01*
X11077087Y-11205650D02*
X11038992Y-11205650D01*
X11038992Y-11205650D02*
X11019944Y-11215174D01*
X11105658Y-11329460D02*
X11086611Y-11338984D01*
X11086611Y-11338984D02*
X11038992Y-11338984D01*
X11038992Y-11338984D02*
X11019944Y-11329460D01*
X11019944Y-11329460D02*
X11010420Y-11310412D01*
X11010420Y-11310412D02*
X11010420Y-11291365D01*
X11010420Y-11291365D02*
X11019944Y-11272317D01*
X11019944Y-11272317D02*
X11038992Y-11262793D01*
X11038992Y-11262793D02*
X11086611Y-11262793D01*
X11086611Y-11262793D02*
X11105658Y-11253269D01*
X11172325Y-11205650D02*
X11248515Y-11205650D01*
X11200896Y-11138984D02*
X11200896Y-11310412D01*
X11200896Y-11310412D02*
X11210420Y-11329460D01*
X11210420Y-11329460D02*
X11229468Y-11338984D01*
X11229468Y-11338984D02*
X11248515Y-11338984D01*
X11391372Y-11329460D02*
X11372325Y-11338984D01*
X11372325Y-11338984D02*
X11334230Y-11338984D01*
X11334230Y-11338984D02*
X11315182Y-11329460D01*
X11315182Y-11329460D02*
X11305658Y-11310412D01*
X11305658Y-11310412D02*
X11305658Y-11234222D01*
X11305658Y-11234222D02*
X11315182Y-11215174D01*
X11315182Y-11215174D02*
X11334230Y-11205650D01*
X11334230Y-11205650D02*
X11372325Y-11205650D01*
X11372325Y-11205650D02*
X11391372Y-11215174D01*
X11391372Y-11215174D02*
X11400896Y-11234222D01*
X11400896Y-11234222D02*
X11400896Y-11253269D01*
X11400896Y-11253269D02*
X11305658Y-11272317D01*
X11572325Y-11338984D02*
X11572325Y-11138984D01*
X11572325Y-11329460D02*
X11553277Y-11338984D01*
X11553277Y-11338984D02*
X11515182Y-11338984D01*
X11515182Y-11338984D02*
X11496134Y-11329460D01*
X11496134Y-11329460D02*
X11486611Y-11319936D01*
X11486611Y-11319936D02*
X11477087Y-11300888D01*
X11477087Y-11300888D02*
X11477087Y-11243746D01*
X11477087Y-11243746D02*
X11486611Y-11224698D01*
X11486611Y-11224698D02*
X11496134Y-11215174D01*
X11496134Y-11215174D02*
X11515182Y-11205650D01*
X11515182Y-11205650D02*
X11553277Y-11205650D01*
X11553277Y-11205650D02*
X11572325Y-11215174D01*
X11648515Y-11415174D02*
X11658039Y-11405650D01*
X11658039Y-11405650D02*
X11677087Y-11377079D01*
X11677087Y-11377079D02*
X11686611Y-11358031D01*
X11686611Y-11358031D02*
X11696134Y-11329460D01*
X11696134Y-11329460D02*
X11705658Y-11281841D01*
X11705658Y-11281841D02*
X11705658Y-11243746D01*
X11705658Y-11243746D02*
X11696134Y-11196127D01*
X11696134Y-11196127D02*
X11686611Y-11167555D01*
X11686611Y-11167555D02*
X11677087Y-11148508D01*
X11677087Y-11148508D02*
X11658039Y-11119936D01*
X11658039Y-11119936D02*
X11648515Y-11110412D01*
D14*
X4892500Y-11511500D02*
G75*
G02*
X4777300Y-11511500I-57600J0D01*
G01*
X4777300Y-11511500D02*
G75*
G02*
X4892500Y-11511500I57600J0D01*
G01*
D12*
X5258039Y-11602984D02*
X5143753Y-11602984D01*
X5200896Y-11602984D02*
X5200896Y-11402984D01*
X5200896Y-11402984D02*
X5181848Y-11431555D01*
X5181848Y-11431555D02*
X5162801Y-11450603D01*
X5162801Y-11450603D02*
X5143753Y-11460127D01*
X5343753Y-11583936D02*
X5353277Y-11593460D01*
X5353277Y-11593460D02*
X5343753Y-11602984D01*
X5343753Y-11602984D02*
X5334229Y-11593460D01*
X5334229Y-11593460D02*
X5343753Y-11583936D01*
X5343753Y-11583936D02*
X5343753Y-11602984D01*
X5543753Y-11602984D02*
X5429467Y-11602984D01*
X5486610Y-11602984D02*
X5486610Y-11402984D01*
X5486610Y-11402984D02*
X5467562Y-11431555D01*
X5467562Y-11431555D02*
X5448515Y-11450603D01*
X5448515Y-11450603D02*
X5429467Y-11460127D01*
X5724705Y-11402984D02*
X5629467Y-11402984D01*
X5629467Y-11402984D02*
X5619943Y-11498222D01*
X5619943Y-11498222D02*
X5629467Y-11488698D01*
X5629467Y-11488698D02*
X5648515Y-11479174D01*
X5648515Y-11479174D02*
X5696134Y-11479174D01*
X5696134Y-11479174D02*
X5715181Y-11488698D01*
X5715181Y-11488698D02*
X5724705Y-11498222D01*
X5724705Y-11498222D02*
X5734229Y-11517269D01*
X5734229Y-11517269D02*
X5734229Y-11564888D01*
X5734229Y-11564888D02*
X5724705Y-11583936D01*
X5724705Y-11583936D02*
X5715181Y-11593460D01*
X5715181Y-11593460D02*
X5696134Y-11602984D01*
X5696134Y-11602984D02*
X5648515Y-11602984D01*
X5648515Y-11602984D02*
X5629467Y-11593460D01*
X5629467Y-11593460D02*
X5619943Y-11583936D01*
X5810420Y-11422031D02*
X5819943Y-11412508D01*
X5819943Y-11412508D02*
X5838991Y-11402984D01*
X5838991Y-11402984D02*
X5886610Y-11402984D01*
X5886610Y-11402984D02*
X5905658Y-11412508D01*
X5905658Y-11412508D02*
X5915181Y-11422031D01*
X5915181Y-11422031D02*
X5924705Y-11441079D01*
X5924705Y-11441079D02*
X5924705Y-11460127D01*
X5924705Y-11460127D02*
X5915181Y-11488698D01*
X5915181Y-11488698D02*
X5800896Y-11602984D01*
X5800896Y-11602984D02*
X5924705Y-11602984D01*
X6010420Y-11602984D02*
X6010420Y-11469650D01*
X6010420Y-11488698D02*
X6019943Y-11479174D01*
X6019943Y-11479174D02*
X6038991Y-11469650D01*
X6038991Y-11469650D02*
X6067562Y-11469650D01*
X6067562Y-11469650D02*
X6086610Y-11479174D01*
X6086610Y-11479174D02*
X6096134Y-11498222D01*
X6096134Y-11498222D02*
X6096134Y-11602984D01*
X6096134Y-11498222D02*
X6105658Y-11479174D01*
X6105658Y-11479174D02*
X6124705Y-11469650D01*
X6124705Y-11469650D02*
X6153277Y-11469650D01*
X6153277Y-11469650D02*
X6172324Y-11479174D01*
X6172324Y-11479174D02*
X6181848Y-11498222D01*
X6181848Y-11498222D02*
X6181848Y-11602984D01*
X6277086Y-11602984D02*
X6277086Y-11469650D01*
X6277086Y-11488698D02*
X6286610Y-11479174D01*
X6286610Y-11479174D02*
X6305658Y-11469650D01*
X6305658Y-11469650D02*
X6334229Y-11469650D01*
X6334229Y-11469650D02*
X6353277Y-11479174D01*
X6353277Y-11479174D02*
X6362801Y-11498222D01*
X6362801Y-11498222D02*
X6362801Y-11602984D01*
X6362801Y-11498222D02*
X6372324Y-11479174D01*
X6372324Y-11479174D02*
X6391372Y-11469650D01*
X6391372Y-11469650D02*
X6419943Y-11469650D01*
X6419943Y-11469650D02*
X6438991Y-11479174D01*
X6438991Y-11479174D02*
X6448515Y-11498222D01*
X6448515Y-11498222D02*
X6448515Y-11602984D01*
X6838991Y-11393460D02*
X6667563Y-11650603D01*
X7096134Y-11402984D02*
X7115182Y-11402984D01*
X7115182Y-11402984D02*
X7134229Y-11412508D01*
X7134229Y-11412508D02*
X7143753Y-11422031D01*
X7143753Y-11422031D02*
X7153277Y-11441079D01*
X7153277Y-11441079D02*
X7162801Y-11479174D01*
X7162801Y-11479174D02*
X7162801Y-11526793D01*
X7162801Y-11526793D02*
X7153277Y-11564888D01*
X7153277Y-11564888D02*
X7143753Y-11583936D01*
X7143753Y-11583936D02*
X7134229Y-11593460D01*
X7134229Y-11593460D02*
X7115182Y-11602984D01*
X7115182Y-11602984D02*
X7096134Y-11602984D01*
X7096134Y-11602984D02*
X7077086Y-11593460D01*
X7077086Y-11593460D02*
X7067563Y-11583936D01*
X7067563Y-11583936D02*
X7058039Y-11564888D01*
X7058039Y-11564888D02*
X7048515Y-11526793D01*
X7048515Y-11526793D02*
X7048515Y-11479174D01*
X7048515Y-11479174D02*
X7058039Y-11441079D01*
X7058039Y-11441079D02*
X7067563Y-11422031D01*
X7067563Y-11422031D02*
X7077086Y-11412508D01*
X7077086Y-11412508D02*
X7096134Y-11402984D01*
X7248515Y-11583936D02*
X7258039Y-11593460D01*
X7258039Y-11593460D02*
X7248515Y-11602984D01*
X7248515Y-11602984D02*
X7238991Y-11593460D01*
X7238991Y-11593460D02*
X7248515Y-11583936D01*
X7248515Y-11583936D02*
X7248515Y-11602984D01*
X7381848Y-11402984D02*
X7400896Y-11402984D01*
X7400896Y-11402984D02*
X7419944Y-11412508D01*
X7419944Y-11412508D02*
X7429467Y-11422031D01*
X7429467Y-11422031D02*
X7438991Y-11441079D01*
X7438991Y-11441079D02*
X7448515Y-11479174D01*
X7448515Y-11479174D02*
X7448515Y-11526793D01*
X7448515Y-11526793D02*
X7438991Y-11564888D01*
X7438991Y-11564888D02*
X7429467Y-11583936D01*
X7429467Y-11583936D02*
X7419944Y-11593460D01*
X7419944Y-11593460D02*
X7400896Y-11602984D01*
X7400896Y-11602984D02*
X7381848Y-11602984D01*
X7381848Y-11602984D02*
X7362801Y-11593460D01*
X7362801Y-11593460D02*
X7353277Y-11583936D01*
X7353277Y-11583936D02*
X7343753Y-11564888D01*
X7343753Y-11564888D02*
X7334229Y-11526793D01*
X7334229Y-11526793D02*
X7334229Y-11479174D01*
X7334229Y-11479174D02*
X7343753Y-11441079D01*
X7343753Y-11441079D02*
X7353277Y-11422031D01*
X7353277Y-11422031D02*
X7362801Y-11412508D01*
X7362801Y-11412508D02*
X7381848Y-11402984D01*
X7619944Y-11469650D02*
X7619944Y-11602984D01*
X7572324Y-11393460D02*
X7524705Y-11536317D01*
X7524705Y-11536317D02*
X7648515Y-11536317D01*
X7819944Y-11402984D02*
X7724705Y-11402984D01*
X7724705Y-11402984D02*
X7715182Y-11498222D01*
X7715182Y-11498222D02*
X7724705Y-11488698D01*
X7724705Y-11488698D02*
X7743753Y-11479174D01*
X7743753Y-11479174D02*
X7791372Y-11479174D01*
X7791372Y-11479174D02*
X7810420Y-11488698D01*
X7810420Y-11488698D02*
X7819944Y-11498222D01*
X7819944Y-11498222D02*
X7829467Y-11517269D01*
X7829467Y-11517269D02*
X7829467Y-11564888D01*
X7829467Y-11564888D02*
X7819944Y-11583936D01*
X7819944Y-11583936D02*
X7810420Y-11593460D01*
X7810420Y-11593460D02*
X7791372Y-11602984D01*
X7791372Y-11602984D02*
X7743753Y-11602984D01*
X7743753Y-11602984D02*
X7724705Y-11593460D01*
X7724705Y-11593460D02*
X7715182Y-11583936D01*
X8000896Y-11469650D02*
X8000896Y-11602984D01*
X7953277Y-11393460D02*
X7905658Y-11536317D01*
X7905658Y-11536317D02*
X8029467Y-11536317D01*
X8096134Y-11402984D02*
X8096134Y-11441079D01*
X8172325Y-11402984D02*
X8172325Y-11441079D01*
X8467563Y-11679174D02*
X8458039Y-11669650D01*
X8458039Y-11669650D02*
X8438991Y-11641079D01*
X8438991Y-11641079D02*
X8429468Y-11622031D01*
X8429468Y-11622031D02*
X8419944Y-11593460D01*
X8419944Y-11593460D02*
X8410420Y-11545841D01*
X8410420Y-11545841D02*
X8410420Y-11507746D01*
X8410420Y-11507746D02*
X8419944Y-11460127D01*
X8419944Y-11460127D02*
X8429468Y-11431555D01*
X8429468Y-11431555D02*
X8438991Y-11412508D01*
X8438991Y-11412508D02*
X8458039Y-11383936D01*
X8458039Y-11383936D02*
X8467563Y-11374412D01*
X8534229Y-11422031D02*
X8543753Y-11412508D01*
X8543753Y-11412508D02*
X8562801Y-11402984D01*
X8562801Y-11402984D02*
X8610420Y-11402984D01*
X8610420Y-11402984D02*
X8629468Y-11412508D01*
X8629468Y-11412508D02*
X8638991Y-11422031D01*
X8638991Y-11422031D02*
X8648515Y-11441079D01*
X8648515Y-11441079D02*
X8648515Y-11460127D01*
X8648515Y-11460127D02*
X8638991Y-11488698D01*
X8638991Y-11488698D02*
X8524706Y-11602984D01*
X8524706Y-11602984D02*
X8648515Y-11602984D01*
X8886610Y-11602984D02*
X8886610Y-11402984D01*
X8972325Y-11602984D02*
X8972325Y-11498222D01*
X8972325Y-11498222D02*
X8962801Y-11479174D01*
X8962801Y-11479174D02*
X8943753Y-11469650D01*
X8943753Y-11469650D02*
X8915182Y-11469650D01*
X8915182Y-11469650D02*
X8896134Y-11479174D01*
X8896134Y-11479174D02*
X8886610Y-11488698D01*
X9096134Y-11602984D02*
X9077087Y-11593460D01*
X9077087Y-11593460D02*
X9067563Y-11583936D01*
X9067563Y-11583936D02*
X9058039Y-11564888D01*
X9058039Y-11564888D02*
X9058039Y-11507746D01*
X9058039Y-11507746D02*
X9067563Y-11488698D01*
X9067563Y-11488698D02*
X9077087Y-11479174D01*
X9077087Y-11479174D02*
X9096134Y-11469650D01*
X9096134Y-11469650D02*
X9124706Y-11469650D01*
X9124706Y-11469650D02*
X9143753Y-11479174D01*
X9143753Y-11479174D02*
X9153277Y-11488698D01*
X9153277Y-11488698D02*
X9162801Y-11507746D01*
X9162801Y-11507746D02*
X9162801Y-11564888D01*
X9162801Y-11564888D02*
X9153277Y-11583936D01*
X9153277Y-11583936D02*
X9143753Y-11593460D01*
X9143753Y-11593460D02*
X9124706Y-11602984D01*
X9124706Y-11602984D02*
X9096134Y-11602984D01*
X9277087Y-11602984D02*
X9258039Y-11593460D01*
X9258039Y-11593460D02*
X9248515Y-11574412D01*
X9248515Y-11574412D02*
X9248515Y-11402984D01*
X9429468Y-11593460D02*
X9410420Y-11602984D01*
X9410420Y-11602984D02*
X9372325Y-11602984D01*
X9372325Y-11602984D02*
X9353277Y-11593460D01*
X9353277Y-11593460D02*
X9343753Y-11574412D01*
X9343753Y-11574412D02*
X9343753Y-11498222D01*
X9343753Y-11498222D02*
X9353277Y-11479174D01*
X9353277Y-11479174D02*
X9372325Y-11469650D01*
X9372325Y-11469650D02*
X9410420Y-11469650D01*
X9410420Y-11469650D02*
X9429468Y-11479174D01*
X9429468Y-11479174D02*
X9438991Y-11498222D01*
X9438991Y-11498222D02*
X9438991Y-11517269D01*
X9438991Y-11517269D02*
X9343753Y-11536317D01*
X9515182Y-11593460D02*
X9534230Y-11602984D01*
X9534230Y-11602984D02*
X9572325Y-11602984D01*
X9572325Y-11602984D02*
X9591372Y-11593460D01*
X9591372Y-11593460D02*
X9600896Y-11574412D01*
X9600896Y-11574412D02*
X9600896Y-11564888D01*
X9600896Y-11564888D02*
X9591372Y-11545841D01*
X9591372Y-11545841D02*
X9572325Y-11536317D01*
X9572325Y-11536317D02*
X9543753Y-11536317D01*
X9543753Y-11536317D02*
X9524706Y-11526793D01*
X9524706Y-11526793D02*
X9515182Y-11507746D01*
X9515182Y-11507746D02*
X9515182Y-11498222D01*
X9515182Y-11498222D02*
X9524706Y-11479174D01*
X9524706Y-11479174D02*
X9543753Y-11469650D01*
X9543753Y-11469650D02*
X9572325Y-11469650D01*
X9572325Y-11469650D02*
X9591372Y-11479174D01*
X9667563Y-11679174D02*
X9677087Y-11669650D01*
X9677087Y-11669650D02*
X9696134Y-11641079D01*
X9696134Y-11641079D02*
X9705658Y-11622031D01*
X9705658Y-11622031D02*
X9715182Y-11593460D01*
X9715182Y-11593460D02*
X9724706Y-11545841D01*
X9724706Y-11545841D02*
X9724706Y-11507746D01*
X9724706Y-11507746D02*
X9715182Y-11460127D01*
X9715182Y-11460127D02*
X9705658Y-11431555D01*
X9705658Y-11431555D02*
X9696134Y-11412508D01*
X9696134Y-11412508D02*
X9677087Y-11383936D01*
X9677087Y-11383936D02*
X9667563Y-11374412D01*
X10029468Y-11679174D02*
X10019944Y-11669650D01*
X10019944Y-11669650D02*
X10000896Y-11641079D01*
X10000896Y-11641079D02*
X9991372Y-11622031D01*
X9991372Y-11622031D02*
X9981849Y-11593460D01*
X9981849Y-11593460D02*
X9972325Y-11545841D01*
X9972325Y-11545841D02*
X9972325Y-11507746D01*
X9972325Y-11507746D02*
X9981849Y-11460127D01*
X9981849Y-11460127D02*
X9991372Y-11431555D01*
X9991372Y-11431555D02*
X10000896Y-11412508D01*
X10000896Y-11412508D02*
X10019944Y-11383936D01*
X10019944Y-11383936D02*
X10029468Y-11374412D01*
X10105658Y-11469650D02*
X10105658Y-11602984D01*
X10105658Y-11488698D02*
X10115182Y-11479174D01*
X10115182Y-11479174D02*
X10134230Y-11469650D01*
X10134230Y-11469650D02*
X10162801Y-11469650D01*
X10162801Y-11469650D02*
X10181849Y-11479174D01*
X10181849Y-11479174D02*
X10191372Y-11498222D01*
X10191372Y-11498222D02*
X10191372Y-11602984D01*
X10315182Y-11602984D02*
X10296134Y-11593460D01*
X10296134Y-11593460D02*
X10286611Y-11583936D01*
X10286611Y-11583936D02*
X10277087Y-11564888D01*
X10277087Y-11564888D02*
X10277087Y-11507746D01*
X10277087Y-11507746D02*
X10286611Y-11488698D01*
X10286611Y-11488698D02*
X10296134Y-11479174D01*
X10296134Y-11479174D02*
X10315182Y-11469650D01*
X10315182Y-11469650D02*
X10343753Y-11469650D01*
X10343753Y-11469650D02*
X10362801Y-11479174D01*
X10362801Y-11479174D02*
X10372325Y-11488698D01*
X10372325Y-11488698D02*
X10381849Y-11507746D01*
X10381849Y-11507746D02*
X10381849Y-11564888D01*
X10381849Y-11564888D02*
X10372325Y-11583936D01*
X10372325Y-11583936D02*
X10362801Y-11593460D01*
X10362801Y-11593460D02*
X10343753Y-11602984D01*
X10343753Y-11602984D02*
X10315182Y-11602984D01*
X10438992Y-11469650D02*
X10515182Y-11469650D01*
X10467563Y-11402984D02*
X10467563Y-11574412D01*
X10467563Y-11574412D02*
X10477087Y-11593460D01*
X10477087Y-11593460D02*
X10496134Y-11602984D01*
X10496134Y-11602984D02*
X10515182Y-11602984D01*
X10734230Y-11469650D02*
X10734230Y-11669650D01*
X10734230Y-11479174D02*
X10753277Y-11469650D01*
X10753277Y-11469650D02*
X10791373Y-11469650D01*
X10791373Y-11469650D02*
X10810420Y-11479174D01*
X10810420Y-11479174D02*
X10819944Y-11488698D01*
X10819944Y-11488698D02*
X10829468Y-11507746D01*
X10829468Y-11507746D02*
X10829468Y-11564888D01*
X10829468Y-11564888D02*
X10819944Y-11583936D01*
X10819944Y-11583936D02*
X10810420Y-11593460D01*
X10810420Y-11593460D02*
X10791373Y-11602984D01*
X10791373Y-11602984D02*
X10753277Y-11602984D01*
X10753277Y-11602984D02*
X10734230Y-11593460D01*
X10943753Y-11602984D02*
X10924706Y-11593460D01*
X10924706Y-11593460D02*
X10915182Y-11574412D01*
X10915182Y-11574412D02*
X10915182Y-11402984D01*
X11105658Y-11602984D02*
X11105658Y-11498222D01*
X11105658Y-11498222D02*
X11096134Y-11479174D01*
X11096134Y-11479174D02*
X11077087Y-11469650D01*
X11077087Y-11469650D02*
X11038992Y-11469650D01*
X11038992Y-11469650D02*
X11019944Y-11479174D01*
X11105658Y-11593460D02*
X11086611Y-11602984D01*
X11086611Y-11602984D02*
X11038992Y-11602984D01*
X11038992Y-11602984D02*
X11019944Y-11593460D01*
X11019944Y-11593460D02*
X11010420Y-11574412D01*
X11010420Y-11574412D02*
X11010420Y-11555365D01*
X11010420Y-11555365D02*
X11019944Y-11536317D01*
X11019944Y-11536317D02*
X11038992Y-11526793D01*
X11038992Y-11526793D02*
X11086611Y-11526793D01*
X11086611Y-11526793D02*
X11105658Y-11517269D01*
X11172325Y-11469650D02*
X11248515Y-11469650D01*
X11200896Y-11402984D02*
X11200896Y-11574412D01*
X11200896Y-11574412D02*
X11210420Y-11593460D01*
X11210420Y-11593460D02*
X11229468Y-11602984D01*
X11229468Y-11602984D02*
X11248515Y-11602984D01*
X11391372Y-11593460D02*
X11372325Y-11602984D01*
X11372325Y-11602984D02*
X11334230Y-11602984D01*
X11334230Y-11602984D02*
X11315182Y-11593460D01*
X11315182Y-11593460D02*
X11305658Y-11574412D01*
X11305658Y-11574412D02*
X11305658Y-11498222D01*
X11305658Y-11498222D02*
X11315182Y-11479174D01*
X11315182Y-11479174D02*
X11334230Y-11469650D01*
X11334230Y-11469650D02*
X11372325Y-11469650D01*
X11372325Y-11469650D02*
X11391372Y-11479174D01*
X11391372Y-11479174D02*
X11400896Y-11498222D01*
X11400896Y-11498222D02*
X11400896Y-11517269D01*
X11400896Y-11517269D02*
X11305658Y-11536317D01*
X11572325Y-11602984D02*
X11572325Y-11402984D01*
X11572325Y-11593460D02*
X11553277Y-11602984D01*
X11553277Y-11602984D02*
X11515182Y-11602984D01*
X11515182Y-11602984D02*
X11496134Y-11593460D01*
X11496134Y-11593460D02*
X11486611Y-11583936D01*
X11486611Y-11583936D02*
X11477087Y-11564888D01*
X11477087Y-11564888D02*
X11477087Y-11507746D01*
X11477087Y-11507746D02*
X11486611Y-11488698D01*
X11486611Y-11488698D02*
X11496134Y-11479174D01*
X11496134Y-11479174D02*
X11515182Y-11469650D01*
X11515182Y-11469650D02*
X11553277Y-11469650D01*
X11553277Y-11469650D02*
X11572325Y-11479174D01*
X11648515Y-11679174D02*
X11658039Y-11669650D01*
X11658039Y-11669650D02*
X11677087Y-11641079D01*
X11677087Y-11641079D02*
X11686611Y-11622031D01*
X11686611Y-11622031D02*
X11696134Y-11593460D01*
X11696134Y-11593460D02*
X11705658Y-11545841D01*
X11705658Y-11545841D02*
X11705658Y-11507746D01*
X11705658Y-11507746D02*
X11696134Y-11460127D01*
X11696134Y-11460127D02*
X11686611Y-11431555D01*
X11686611Y-11431555D02*
X11677087Y-11412508D01*
X11677087Y-11412508D02*
X11658039Y-11383936D01*
X11658039Y-11383936D02*
X11648515Y-11374412D01*
X4792500Y-11675500D02*
X4792500Y-11875500D01*
X4692500Y-11775500D02*
X4892500Y-11775500D01*
X5143753Y-11686031D02*
X5153277Y-11676508D01*
X5153277Y-11676508D02*
X5172324Y-11666984D01*
X5172324Y-11666984D02*
X5219943Y-11666984D01*
X5219943Y-11666984D02*
X5238991Y-11676508D01*
X5238991Y-11676508D02*
X5248515Y-11686031D01*
X5248515Y-11686031D02*
X5258039Y-11705079D01*
X5258039Y-11705079D02*
X5258039Y-11724127D01*
X5258039Y-11724127D02*
X5248515Y-11752698D01*
X5248515Y-11752698D02*
X5134229Y-11866984D01*
X5134229Y-11866984D02*
X5258039Y-11866984D01*
X5343753Y-11847936D02*
X5353277Y-11857460D01*
X5353277Y-11857460D02*
X5343753Y-11866984D01*
X5343753Y-11866984D02*
X5334229Y-11857460D01*
X5334229Y-11857460D02*
X5343753Y-11847936D01*
X5343753Y-11847936D02*
X5343753Y-11866984D01*
X5429467Y-11686031D02*
X5438991Y-11676508D01*
X5438991Y-11676508D02*
X5458039Y-11666984D01*
X5458039Y-11666984D02*
X5505658Y-11666984D01*
X5505658Y-11666984D02*
X5524705Y-11676508D01*
X5524705Y-11676508D02*
X5534229Y-11686031D01*
X5534229Y-11686031D02*
X5543753Y-11705079D01*
X5543753Y-11705079D02*
X5543753Y-11724127D01*
X5543753Y-11724127D02*
X5534229Y-11752698D01*
X5534229Y-11752698D02*
X5419943Y-11866984D01*
X5419943Y-11866984D02*
X5543753Y-11866984D01*
X5667562Y-11666984D02*
X5686610Y-11666984D01*
X5686610Y-11666984D02*
X5705658Y-11676508D01*
X5705658Y-11676508D02*
X5715181Y-11686031D01*
X5715181Y-11686031D02*
X5724705Y-11705079D01*
X5724705Y-11705079D02*
X5734229Y-11743174D01*
X5734229Y-11743174D02*
X5734229Y-11790793D01*
X5734229Y-11790793D02*
X5724705Y-11828888D01*
X5724705Y-11828888D02*
X5715181Y-11847936D01*
X5715181Y-11847936D02*
X5705658Y-11857460D01*
X5705658Y-11857460D02*
X5686610Y-11866984D01*
X5686610Y-11866984D02*
X5667562Y-11866984D01*
X5667562Y-11866984D02*
X5648515Y-11857460D01*
X5648515Y-11857460D02*
X5638991Y-11847936D01*
X5638991Y-11847936D02*
X5629467Y-11828888D01*
X5629467Y-11828888D02*
X5619943Y-11790793D01*
X5619943Y-11790793D02*
X5619943Y-11743174D01*
X5619943Y-11743174D02*
X5629467Y-11705079D01*
X5629467Y-11705079D02*
X5638991Y-11686031D01*
X5638991Y-11686031D02*
X5648515Y-11676508D01*
X5648515Y-11676508D02*
X5667562Y-11666984D01*
X5858039Y-11666984D02*
X5877086Y-11666984D01*
X5877086Y-11666984D02*
X5896134Y-11676508D01*
X5896134Y-11676508D02*
X5905658Y-11686031D01*
X5905658Y-11686031D02*
X5915181Y-11705079D01*
X5915181Y-11705079D02*
X5924705Y-11743174D01*
X5924705Y-11743174D02*
X5924705Y-11790793D01*
X5924705Y-11790793D02*
X5915181Y-11828888D01*
X5915181Y-11828888D02*
X5905658Y-11847936D01*
X5905658Y-11847936D02*
X5896134Y-11857460D01*
X5896134Y-11857460D02*
X5877086Y-11866984D01*
X5877086Y-11866984D02*
X5858039Y-11866984D01*
X5858039Y-11866984D02*
X5838991Y-11857460D01*
X5838991Y-11857460D02*
X5829467Y-11847936D01*
X5829467Y-11847936D02*
X5819943Y-11828888D01*
X5819943Y-11828888D02*
X5810420Y-11790793D01*
X5810420Y-11790793D02*
X5810420Y-11743174D01*
X5810420Y-11743174D02*
X5819943Y-11705079D01*
X5819943Y-11705079D02*
X5829467Y-11686031D01*
X5829467Y-11686031D02*
X5838991Y-11676508D01*
X5838991Y-11676508D02*
X5858039Y-11666984D01*
X6010420Y-11866984D02*
X6010420Y-11733650D01*
X6010420Y-11752698D02*
X6019943Y-11743174D01*
X6019943Y-11743174D02*
X6038991Y-11733650D01*
X6038991Y-11733650D02*
X6067562Y-11733650D01*
X6067562Y-11733650D02*
X6086610Y-11743174D01*
X6086610Y-11743174D02*
X6096134Y-11762222D01*
X6096134Y-11762222D02*
X6096134Y-11866984D01*
X6096134Y-11762222D02*
X6105658Y-11743174D01*
X6105658Y-11743174D02*
X6124705Y-11733650D01*
X6124705Y-11733650D02*
X6153277Y-11733650D01*
X6153277Y-11733650D02*
X6172324Y-11743174D01*
X6172324Y-11743174D02*
X6181848Y-11762222D01*
X6181848Y-11762222D02*
X6181848Y-11866984D01*
X6277086Y-11866984D02*
X6277086Y-11733650D01*
X6277086Y-11752698D02*
X6286610Y-11743174D01*
X6286610Y-11743174D02*
X6305658Y-11733650D01*
X6305658Y-11733650D02*
X6334229Y-11733650D01*
X6334229Y-11733650D02*
X6353277Y-11743174D01*
X6353277Y-11743174D02*
X6362801Y-11762222D01*
X6362801Y-11762222D02*
X6362801Y-11866984D01*
X6362801Y-11762222D02*
X6372324Y-11743174D01*
X6372324Y-11743174D02*
X6391372Y-11733650D01*
X6391372Y-11733650D02*
X6419943Y-11733650D01*
X6419943Y-11733650D02*
X6438991Y-11743174D01*
X6438991Y-11743174D02*
X6448515Y-11762222D01*
X6448515Y-11762222D02*
X6448515Y-11866984D01*
X6838991Y-11657460D02*
X6667563Y-11914603D01*
X7096134Y-11666984D02*
X7115182Y-11666984D01*
X7115182Y-11666984D02*
X7134229Y-11676508D01*
X7134229Y-11676508D02*
X7143753Y-11686031D01*
X7143753Y-11686031D02*
X7153277Y-11705079D01*
X7153277Y-11705079D02*
X7162801Y-11743174D01*
X7162801Y-11743174D02*
X7162801Y-11790793D01*
X7162801Y-11790793D02*
X7153277Y-11828888D01*
X7153277Y-11828888D02*
X7143753Y-11847936D01*
X7143753Y-11847936D02*
X7134229Y-11857460D01*
X7134229Y-11857460D02*
X7115182Y-11866984D01*
X7115182Y-11866984D02*
X7096134Y-11866984D01*
X7096134Y-11866984D02*
X7077086Y-11857460D01*
X7077086Y-11857460D02*
X7067563Y-11847936D01*
X7067563Y-11847936D02*
X7058039Y-11828888D01*
X7058039Y-11828888D02*
X7048515Y-11790793D01*
X7048515Y-11790793D02*
X7048515Y-11743174D01*
X7048515Y-11743174D02*
X7058039Y-11705079D01*
X7058039Y-11705079D02*
X7067563Y-11686031D01*
X7067563Y-11686031D02*
X7077086Y-11676508D01*
X7077086Y-11676508D02*
X7096134Y-11666984D01*
X7248515Y-11847936D02*
X7258039Y-11857460D01*
X7258039Y-11857460D02*
X7248515Y-11866984D01*
X7248515Y-11866984D02*
X7238991Y-11857460D01*
X7238991Y-11857460D02*
X7248515Y-11847936D01*
X7248515Y-11847936D02*
X7248515Y-11866984D01*
X7381848Y-11666984D02*
X7400896Y-11666984D01*
X7400896Y-11666984D02*
X7419944Y-11676508D01*
X7419944Y-11676508D02*
X7429467Y-11686031D01*
X7429467Y-11686031D02*
X7438991Y-11705079D01*
X7438991Y-11705079D02*
X7448515Y-11743174D01*
X7448515Y-11743174D02*
X7448515Y-11790793D01*
X7448515Y-11790793D02*
X7438991Y-11828888D01*
X7438991Y-11828888D02*
X7429467Y-11847936D01*
X7429467Y-11847936D02*
X7419944Y-11857460D01*
X7419944Y-11857460D02*
X7400896Y-11866984D01*
X7400896Y-11866984D02*
X7381848Y-11866984D01*
X7381848Y-11866984D02*
X7362801Y-11857460D01*
X7362801Y-11857460D02*
X7353277Y-11847936D01*
X7353277Y-11847936D02*
X7343753Y-11828888D01*
X7343753Y-11828888D02*
X7334229Y-11790793D01*
X7334229Y-11790793D02*
X7334229Y-11743174D01*
X7334229Y-11743174D02*
X7343753Y-11705079D01*
X7343753Y-11705079D02*
X7353277Y-11686031D01*
X7353277Y-11686031D02*
X7362801Y-11676508D01*
X7362801Y-11676508D02*
X7381848Y-11666984D01*
X7562801Y-11752698D02*
X7543753Y-11743174D01*
X7543753Y-11743174D02*
X7534229Y-11733650D01*
X7534229Y-11733650D02*
X7524705Y-11714603D01*
X7524705Y-11714603D02*
X7524705Y-11705079D01*
X7524705Y-11705079D02*
X7534229Y-11686031D01*
X7534229Y-11686031D02*
X7543753Y-11676508D01*
X7543753Y-11676508D02*
X7562801Y-11666984D01*
X7562801Y-11666984D02*
X7600896Y-11666984D01*
X7600896Y-11666984D02*
X7619944Y-11676508D01*
X7619944Y-11676508D02*
X7629467Y-11686031D01*
X7629467Y-11686031D02*
X7638991Y-11705079D01*
X7638991Y-11705079D02*
X7638991Y-11714603D01*
X7638991Y-11714603D02*
X7629467Y-11733650D01*
X7629467Y-11733650D02*
X7619944Y-11743174D01*
X7619944Y-11743174D02*
X7600896Y-11752698D01*
X7600896Y-11752698D02*
X7562801Y-11752698D01*
X7562801Y-11752698D02*
X7543753Y-11762222D01*
X7543753Y-11762222D02*
X7534229Y-11771746D01*
X7534229Y-11771746D02*
X7524705Y-11790793D01*
X7524705Y-11790793D02*
X7524705Y-11828888D01*
X7524705Y-11828888D02*
X7534229Y-11847936D01*
X7534229Y-11847936D02*
X7543753Y-11857460D01*
X7543753Y-11857460D02*
X7562801Y-11866984D01*
X7562801Y-11866984D02*
X7600896Y-11866984D01*
X7600896Y-11866984D02*
X7619944Y-11857460D01*
X7619944Y-11857460D02*
X7629467Y-11847936D01*
X7629467Y-11847936D02*
X7638991Y-11828888D01*
X7638991Y-11828888D02*
X7638991Y-11790793D01*
X7638991Y-11790793D02*
X7629467Y-11771746D01*
X7629467Y-11771746D02*
X7619944Y-11762222D01*
X7619944Y-11762222D02*
X7600896Y-11752698D01*
X7810420Y-11666984D02*
X7772324Y-11666984D01*
X7772324Y-11666984D02*
X7753277Y-11676508D01*
X7753277Y-11676508D02*
X7743753Y-11686031D01*
X7743753Y-11686031D02*
X7724705Y-11714603D01*
X7724705Y-11714603D02*
X7715182Y-11752698D01*
X7715182Y-11752698D02*
X7715182Y-11828888D01*
X7715182Y-11828888D02*
X7724705Y-11847936D01*
X7724705Y-11847936D02*
X7734229Y-11857460D01*
X7734229Y-11857460D02*
X7753277Y-11866984D01*
X7753277Y-11866984D02*
X7791372Y-11866984D01*
X7791372Y-11866984D02*
X7810420Y-11857460D01*
X7810420Y-11857460D02*
X7819944Y-11847936D01*
X7819944Y-11847936D02*
X7829467Y-11828888D01*
X7829467Y-11828888D02*
X7829467Y-11781269D01*
X7829467Y-11781269D02*
X7819944Y-11762222D01*
X7819944Y-11762222D02*
X7810420Y-11752698D01*
X7810420Y-11752698D02*
X7791372Y-11743174D01*
X7791372Y-11743174D02*
X7753277Y-11743174D01*
X7753277Y-11743174D02*
X7734229Y-11752698D01*
X7734229Y-11752698D02*
X7724705Y-11762222D01*
X7724705Y-11762222D02*
X7715182Y-11781269D01*
X8000896Y-11666984D02*
X7962801Y-11666984D01*
X7962801Y-11666984D02*
X7943753Y-11676508D01*
X7943753Y-11676508D02*
X7934229Y-11686031D01*
X7934229Y-11686031D02*
X7915182Y-11714603D01*
X7915182Y-11714603D02*
X7905658Y-11752698D01*
X7905658Y-11752698D02*
X7905658Y-11828888D01*
X7905658Y-11828888D02*
X7915182Y-11847936D01*
X7915182Y-11847936D02*
X7924705Y-11857460D01*
X7924705Y-11857460D02*
X7943753Y-11866984D01*
X7943753Y-11866984D02*
X7981848Y-11866984D01*
X7981848Y-11866984D02*
X8000896Y-11857460D01*
X8000896Y-11857460D02*
X8010420Y-11847936D01*
X8010420Y-11847936D02*
X8019944Y-11828888D01*
X8019944Y-11828888D02*
X8019944Y-11781269D01*
X8019944Y-11781269D02*
X8010420Y-11762222D01*
X8010420Y-11762222D02*
X8000896Y-11752698D01*
X8000896Y-11752698D02*
X7981848Y-11743174D01*
X7981848Y-11743174D02*
X7943753Y-11743174D01*
X7943753Y-11743174D02*
X7924705Y-11752698D01*
X7924705Y-11752698D02*
X7915182Y-11762222D01*
X7915182Y-11762222D02*
X7905658Y-11781269D01*
X8096134Y-11666984D02*
X8096134Y-11705079D01*
X8172325Y-11666984D02*
X8172325Y-11705079D01*
X8467563Y-11943174D02*
X8458039Y-11933650D01*
X8458039Y-11933650D02*
X8438991Y-11905079D01*
X8438991Y-11905079D02*
X8429468Y-11886031D01*
X8429468Y-11886031D02*
X8419944Y-11857460D01*
X8419944Y-11857460D02*
X8410420Y-11809841D01*
X8410420Y-11809841D02*
X8410420Y-11771746D01*
X8410420Y-11771746D02*
X8419944Y-11724127D01*
X8419944Y-11724127D02*
X8429468Y-11695555D01*
X8429468Y-11695555D02*
X8438991Y-11676508D01*
X8438991Y-11676508D02*
X8458039Y-11647936D01*
X8458039Y-11647936D02*
X8467563Y-11638412D01*
X8629468Y-11733650D02*
X8629468Y-11866984D01*
X8581848Y-11657460D02*
X8534229Y-11800317D01*
X8534229Y-11800317D02*
X8658039Y-11800317D01*
X8886610Y-11866984D02*
X8886610Y-11666984D01*
X8972325Y-11866984D02*
X8972325Y-11762222D01*
X8972325Y-11762222D02*
X8962801Y-11743174D01*
X8962801Y-11743174D02*
X8943753Y-11733650D01*
X8943753Y-11733650D02*
X8915182Y-11733650D01*
X8915182Y-11733650D02*
X8896134Y-11743174D01*
X8896134Y-11743174D02*
X8886610Y-11752698D01*
X9096134Y-11866984D02*
X9077087Y-11857460D01*
X9077087Y-11857460D02*
X9067563Y-11847936D01*
X9067563Y-11847936D02*
X9058039Y-11828888D01*
X9058039Y-11828888D02*
X9058039Y-11771746D01*
X9058039Y-11771746D02*
X9067563Y-11752698D01*
X9067563Y-11752698D02*
X9077087Y-11743174D01*
X9077087Y-11743174D02*
X9096134Y-11733650D01*
X9096134Y-11733650D02*
X9124706Y-11733650D01*
X9124706Y-11733650D02*
X9143753Y-11743174D01*
X9143753Y-11743174D02*
X9153277Y-11752698D01*
X9153277Y-11752698D02*
X9162801Y-11771746D01*
X9162801Y-11771746D02*
X9162801Y-11828888D01*
X9162801Y-11828888D02*
X9153277Y-11847936D01*
X9153277Y-11847936D02*
X9143753Y-11857460D01*
X9143753Y-11857460D02*
X9124706Y-11866984D01*
X9124706Y-11866984D02*
X9096134Y-11866984D01*
X9277087Y-11866984D02*
X9258039Y-11857460D01*
X9258039Y-11857460D02*
X9248515Y-11838412D01*
X9248515Y-11838412D02*
X9248515Y-11666984D01*
X9429468Y-11857460D02*
X9410420Y-11866984D01*
X9410420Y-11866984D02*
X9372325Y-11866984D01*
X9372325Y-11866984D02*
X9353277Y-11857460D01*
X9353277Y-11857460D02*
X9343753Y-11838412D01*
X9343753Y-11838412D02*
X9343753Y-11762222D01*
X9343753Y-11762222D02*
X9353277Y-11743174D01*
X9353277Y-11743174D02*
X9372325Y-11733650D01*
X9372325Y-11733650D02*
X9410420Y-11733650D01*
X9410420Y-11733650D02*
X9429468Y-11743174D01*
X9429468Y-11743174D02*
X9438991Y-11762222D01*
X9438991Y-11762222D02*
X9438991Y-11781269D01*
X9438991Y-11781269D02*
X9343753Y-11800317D01*
X9515182Y-11857460D02*
X9534230Y-11866984D01*
X9534230Y-11866984D02*
X9572325Y-11866984D01*
X9572325Y-11866984D02*
X9591372Y-11857460D01*
X9591372Y-11857460D02*
X9600896Y-11838412D01*
X9600896Y-11838412D02*
X9600896Y-11828888D01*
X9600896Y-11828888D02*
X9591372Y-11809841D01*
X9591372Y-11809841D02*
X9572325Y-11800317D01*
X9572325Y-11800317D02*
X9543753Y-11800317D01*
X9543753Y-11800317D02*
X9524706Y-11790793D01*
X9524706Y-11790793D02*
X9515182Y-11771746D01*
X9515182Y-11771746D02*
X9515182Y-11762222D01*
X9515182Y-11762222D02*
X9524706Y-11743174D01*
X9524706Y-11743174D02*
X9543753Y-11733650D01*
X9543753Y-11733650D02*
X9572325Y-11733650D01*
X9572325Y-11733650D02*
X9591372Y-11743174D01*
X9667563Y-11943174D02*
X9677087Y-11933650D01*
X9677087Y-11933650D02*
X9696134Y-11905079D01*
X9696134Y-11905079D02*
X9705658Y-11886031D01*
X9705658Y-11886031D02*
X9715182Y-11857460D01*
X9715182Y-11857460D02*
X9724706Y-11809841D01*
X9724706Y-11809841D02*
X9724706Y-11771746D01*
X9724706Y-11771746D02*
X9715182Y-11724127D01*
X9715182Y-11724127D02*
X9705658Y-11695555D01*
X9705658Y-11695555D02*
X9696134Y-11676508D01*
X9696134Y-11676508D02*
X9677087Y-11647936D01*
X9677087Y-11647936D02*
X9667563Y-11638412D01*
X10029468Y-11943174D02*
X10019944Y-11933650D01*
X10019944Y-11933650D02*
X10000896Y-11905079D01*
X10000896Y-11905079D02*
X9991372Y-11886031D01*
X9991372Y-11886031D02*
X9981849Y-11857460D01*
X9981849Y-11857460D02*
X9972325Y-11809841D01*
X9972325Y-11809841D02*
X9972325Y-11771746D01*
X9972325Y-11771746D02*
X9981849Y-11724127D01*
X9981849Y-11724127D02*
X9991372Y-11695555D01*
X9991372Y-11695555D02*
X10000896Y-11676508D01*
X10000896Y-11676508D02*
X10019944Y-11647936D01*
X10019944Y-11647936D02*
X10029468Y-11638412D01*
X10105658Y-11733650D02*
X10105658Y-11866984D01*
X10105658Y-11752698D02*
X10115182Y-11743174D01*
X10115182Y-11743174D02*
X10134230Y-11733650D01*
X10134230Y-11733650D02*
X10162801Y-11733650D01*
X10162801Y-11733650D02*
X10181849Y-11743174D01*
X10181849Y-11743174D02*
X10191372Y-11762222D01*
X10191372Y-11762222D02*
X10191372Y-11866984D01*
X10315182Y-11866984D02*
X10296134Y-11857460D01*
X10296134Y-11857460D02*
X10286611Y-11847936D01*
X10286611Y-11847936D02*
X10277087Y-11828888D01*
X10277087Y-11828888D02*
X10277087Y-11771746D01*
X10277087Y-11771746D02*
X10286611Y-11752698D01*
X10286611Y-11752698D02*
X10296134Y-11743174D01*
X10296134Y-11743174D02*
X10315182Y-11733650D01*
X10315182Y-11733650D02*
X10343753Y-11733650D01*
X10343753Y-11733650D02*
X10362801Y-11743174D01*
X10362801Y-11743174D02*
X10372325Y-11752698D01*
X10372325Y-11752698D02*
X10381849Y-11771746D01*
X10381849Y-11771746D02*
X10381849Y-11828888D01*
X10381849Y-11828888D02*
X10372325Y-11847936D01*
X10372325Y-11847936D02*
X10362801Y-11857460D01*
X10362801Y-11857460D02*
X10343753Y-11866984D01*
X10343753Y-11866984D02*
X10315182Y-11866984D01*
X10438992Y-11733650D02*
X10515182Y-11733650D01*
X10467563Y-11666984D02*
X10467563Y-11838412D01*
X10467563Y-11838412D02*
X10477087Y-11857460D01*
X10477087Y-11857460D02*
X10496134Y-11866984D01*
X10496134Y-11866984D02*
X10515182Y-11866984D01*
X10734230Y-11733650D02*
X10734230Y-11933650D01*
X10734230Y-11743174D02*
X10753277Y-11733650D01*
X10753277Y-11733650D02*
X10791373Y-11733650D01*
X10791373Y-11733650D02*
X10810420Y-11743174D01*
X10810420Y-11743174D02*
X10819944Y-11752698D01*
X10819944Y-11752698D02*
X10829468Y-11771746D01*
X10829468Y-11771746D02*
X10829468Y-11828888D01*
X10829468Y-11828888D02*
X10819944Y-11847936D01*
X10819944Y-11847936D02*
X10810420Y-11857460D01*
X10810420Y-11857460D02*
X10791373Y-11866984D01*
X10791373Y-11866984D02*
X10753277Y-11866984D01*
X10753277Y-11866984D02*
X10734230Y-11857460D01*
X10943753Y-11866984D02*
X10924706Y-11857460D01*
X10924706Y-11857460D02*
X10915182Y-11838412D01*
X10915182Y-11838412D02*
X10915182Y-11666984D01*
X11105658Y-11866984D02*
X11105658Y-11762222D01*
X11105658Y-11762222D02*
X11096134Y-11743174D01*
X11096134Y-11743174D02*
X11077087Y-11733650D01*
X11077087Y-11733650D02*
X11038992Y-11733650D01*
X11038992Y-11733650D02*
X11019944Y-11743174D01*
X11105658Y-11857460D02*
X11086611Y-11866984D01*
X11086611Y-11866984D02*
X11038992Y-11866984D01*
X11038992Y-11866984D02*
X11019944Y-11857460D01*
X11019944Y-11857460D02*
X11010420Y-11838412D01*
X11010420Y-11838412D02*
X11010420Y-11819365D01*
X11010420Y-11819365D02*
X11019944Y-11800317D01*
X11019944Y-11800317D02*
X11038992Y-11790793D01*
X11038992Y-11790793D02*
X11086611Y-11790793D01*
X11086611Y-11790793D02*
X11105658Y-11781269D01*
X11172325Y-11733650D02*
X11248515Y-11733650D01*
X11200896Y-11666984D02*
X11200896Y-11838412D01*
X11200896Y-11838412D02*
X11210420Y-11857460D01*
X11210420Y-11857460D02*
X11229468Y-11866984D01*
X11229468Y-11866984D02*
X11248515Y-11866984D01*
X11391372Y-11857460D02*
X11372325Y-11866984D01*
X11372325Y-11866984D02*
X11334230Y-11866984D01*
X11334230Y-11866984D02*
X11315182Y-11857460D01*
X11315182Y-11857460D02*
X11305658Y-11838412D01*
X11305658Y-11838412D02*
X11305658Y-11762222D01*
X11305658Y-11762222D02*
X11315182Y-11743174D01*
X11315182Y-11743174D02*
X11334230Y-11733650D01*
X11334230Y-11733650D02*
X11372325Y-11733650D01*
X11372325Y-11733650D02*
X11391372Y-11743174D01*
X11391372Y-11743174D02*
X11400896Y-11762222D01*
X11400896Y-11762222D02*
X11400896Y-11781269D01*
X11400896Y-11781269D02*
X11305658Y-11800317D01*
X11572325Y-11866984D02*
X11572325Y-11666984D01*
X11572325Y-11857460D02*
X11553277Y-11866984D01*
X11553277Y-11866984D02*
X11515182Y-11866984D01*
X11515182Y-11866984D02*
X11496134Y-11857460D01*
X11496134Y-11857460D02*
X11486611Y-11847936D01*
X11486611Y-11847936D02*
X11477087Y-11828888D01*
X11477087Y-11828888D02*
X11477087Y-11771746D01*
X11477087Y-11771746D02*
X11486611Y-11752698D01*
X11486611Y-11752698D02*
X11496134Y-11743174D01*
X11496134Y-11743174D02*
X11515182Y-11733650D01*
X11515182Y-11733650D02*
X11553277Y-11733650D01*
X11553277Y-11733650D02*
X11572325Y-11743174D01*
X11648515Y-11943174D02*
X11658039Y-11933650D01*
X11658039Y-11933650D02*
X11677087Y-11905079D01*
X11677087Y-11905079D02*
X11686611Y-11886031D01*
X11686611Y-11886031D02*
X11696134Y-11857460D01*
X11696134Y-11857460D02*
X11705658Y-11809841D01*
X11705658Y-11809841D02*
X11705658Y-11771746D01*
X11705658Y-11771746D02*
X11696134Y-11724127D01*
X11696134Y-11724127D02*
X11686611Y-11695555D01*
X11686611Y-11695555D02*
X11677087Y-11676508D01*
X11677087Y-11676508D02*
X11658039Y-11647936D01*
X11658039Y-11647936D02*
X11648515Y-11638412D01*
X4863211Y-12166211D02*
X4863211Y-12024789D01*
X4721789Y-12024789D01*
X4721789Y-12166211D01*
X4863211Y-12166211D01*
X5143753Y-12006031D02*
X5153277Y-11996508D01*
X5153277Y-11996508D02*
X5172324Y-11986984D01*
X5172324Y-11986984D02*
X5219943Y-11986984D01*
X5219943Y-11986984D02*
X5238991Y-11996508D01*
X5238991Y-11996508D02*
X5248515Y-12006031D01*
X5248515Y-12006031D02*
X5258039Y-12025079D01*
X5258039Y-12025079D02*
X5258039Y-12044127D01*
X5258039Y-12044127D02*
X5248515Y-12072698D01*
X5248515Y-12072698D02*
X5134229Y-12186984D01*
X5134229Y-12186984D02*
X5258039Y-12186984D01*
X5343753Y-12167936D02*
X5353277Y-12177460D01*
X5353277Y-12177460D02*
X5343753Y-12186984D01*
X5343753Y-12186984D02*
X5334229Y-12177460D01*
X5334229Y-12177460D02*
X5343753Y-12167936D01*
X5343753Y-12167936D02*
X5343753Y-12186984D01*
X5524705Y-12053650D02*
X5524705Y-12186984D01*
X5477086Y-11977460D02*
X5429467Y-12120317D01*
X5429467Y-12120317D02*
X5553277Y-12120317D01*
X5667562Y-11986984D02*
X5686610Y-11986984D01*
X5686610Y-11986984D02*
X5705658Y-11996508D01*
X5705658Y-11996508D02*
X5715181Y-12006031D01*
X5715181Y-12006031D02*
X5724705Y-12025079D01*
X5724705Y-12025079D02*
X5734229Y-12063174D01*
X5734229Y-12063174D02*
X5734229Y-12110793D01*
X5734229Y-12110793D02*
X5724705Y-12148888D01*
X5724705Y-12148888D02*
X5715181Y-12167936D01*
X5715181Y-12167936D02*
X5705658Y-12177460D01*
X5705658Y-12177460D02*
X5686610Y-12186984D01*
X5686610Y-12186984D02*
X5667562Y-12186984D01*
X5667562Y-12186984D02*
X5648515Y-12177460D01*
X5648515Y-12177460D02*
X5638991Y-12167936D01*
X5638991Y-12167936D02*
X5629467Y-12148888D01*
X5629467Y-12148888D02*
X5619943Y-12110793D01*
X5619943Y-12110793D02*
X5619943Y-12063174D01*
X5619943Y-12063174D02*
X5629467Y-12025079D01*
X5629467Y-12025079D02*
X5638991Y-12006031D01*
X5638991Y-12006031D02*
X5648515Y-11996508D01*
X5648515Y-11996508D02*
X5667562Y-11986984D01*
X5858039Y-11986984D02*
X5877086Y-11986984D01*
X5877086Y-11986984D02*
X5896134Y-11996508D01*
X5896134Y-11996508D02*
X5905658Y-12006031D01*
X5905658Y-12006031D02*
X5915181Y-12025079D01*
X5915181Y-12025079D02*
X5924705Y-12063174D01*
X5924705Y-12063174D02*
X5924705Y-12110793D01*
X5924705Y-12110793D02*
X5915181Y-12148888D01*
X5915181Y-12148888D02*
X5905658Y-12167936D01*
X5905658Y-12167936D02*
X5896134Y-12177460D01*
X5896134Y-12177460D02*
X5877086Y-12186984D01*
X5877086Y-12186984D02*
X5858039Y-12186984D01*
X5858039Y-12186984D02*
X5838991Y-12177460D01*
X5838991Y-12177460D02*
X5829467Y-12167936D01*
X5829467Y-12167936D02*
X5819943Y-12148888D01*
X5819943Y-12148888D02*
X5810420Y-12110793D01*
X5810420Y-12110793D02*
X5810420Y-12063174D01*
X5810420Y-12063174D02*
X5819943Y-12025079D01*
X5819943Y-12025079D02*
X5829467Y-12006031D01*
X5829467Y-12006031D02*
X5838991Y-11996508D01*
X5838991Y-11996508D02*
X5858039Y-11986984D01*
X6010420Y-12186984D02*
X6010420Y-12053650D01*
X6010420Y-12072698D02*
X6019943Y-12063174D01*
X6019943Y-12063174D02*
X6038991Y-12053650D01*
X6038991Y-12053650D02*
X6067562Y-12053650D01*
X6067562Y-12053650D02*
X6086610Y-12063174D01*
X6086610Y-12063174D02*
X6096134Y-12082222D01*
X6096134Y-12082222D02*
X6096134Y-12186984D01*
X6096134Y-12082222D02*
X6105658Y-12063174D01*
X6105658Y-12063174D02*
X6124705Y-12053650D01*
X6124705Y-12053650D02*
X6153277Y-12053650D01*
X6153277Y-12053650D02*
X6172324Y-12063174D01*
X6172324Y-12063174D02*
X6181848Y-12082222D01*
X6181848Y-12082222D02*
X6181848Y-12186984D01*
X6277086Y-12186984D02*
X6277086Y-12053650D01*
X6277086Y-12072698D02*
X6286610Y-12063174D01*
X6286610Y-12063174D02*
X6305658Y-12053650D01*
X6305658Y-12053650D02*
X6334229Y-12053650D01*
X6334229Y-12053650D02*
X6353277Y-12063174D01*
X6353277Y-12063174D02*
X6362801Y-12082222D01*
X6362801Y-12082222D02*
X6362801Y-12186984D01*
X6362801Y-12082222D02*
X6372324Y-12063174D01*
X6372324Y-12063174D02*
X6391372Y-12053650D01*
X6391372Y-12053650D02*
X6419943Y-12053650D01*
X6419943Y-12053650D02*
X6438991Y-12063174D01*
X6438991Y-12063174D02*
X6448515Y-12082222D01*
X6448515Y-12082222D02*
X6448515Y-12186984D01*
X6838991Y-11977460D02*
X6667563Y-12234603D01*
X7096134Y-11986984D02*
X7115182Y-11986984D01*
X7115182Y-11986984D02*
X7134229Y-11996508D01*
X7134229Y-11996508D02*
X7143753Y-12006031D01*
X7143753Y-12006031D02*
X7153277Y-12025079D01*
X7153277Y-12025079D02*
X7162801Y-12063174D01*
X7162801Y-12063174D02*
X7162801Y-12110793D01*
X7162801Y-12110793D02*
X7153277Y-12148888D01*
X7153277Y-12148888D02*
X7143753Y-12167936D01*
X7143753Y-12167936D02*
X7134229Y-12177460D01*
X7134229Y-12177460D02*
X7115182Y-12186984D01*
X7115182Y-12186984D02*
X7096134Y-12186984D01*
X7096134Y-12186984D02*
X7077086Y-12177460D01*
X7077086Y-12177460D02*
X7067563Y-12167936D01*
X7067563Y-12167936D02*
X7058039Y-12148888D01*
X7058039Y-12148888D02*
X7048515Y-12110793D01*
X7048515Y-12110793D02*
X7048515Y-12063174D01*
X7048515Y-12063174D02*
X7058039Y-12025079D01*
X7058039Y-12025079D02*
X7067563Y-12006031D01*
X7067563Y-12006031D02*
X7077086Y-11996508D01*
X7077086Y-11996508D02*
X7096134Y-11986984D01*
X7248515Y-12167936D02*
X7258039Y-12177460D01*
X7258039Y-12177460D02*
X7248515Y-12186984D01*
X7248515Y-12186984D02*
X7238991Y-12177460D01*
X7238991Y-12177460D02*
X7248515Y-12167936D01*
X7248515Y-12167936D02*
X7248515Y-12186984D01*
X7381848Y-11986984D02*
X7400896Y-11986984D01*
X7400896Y-11986984D02*
X7419944Y-11996508D01*
X7419944Y-11996508D02*
X7429467Y-12006031D01*
X7429467Y-12006031D02*
X7438991Y-12025079D01*
X7438991Y-12025079D02*
X7448515Y-12063174D01*
X7448515Y-12063174D02*
X7448515Y-12110793D01*
X7448515Y-12110793D02*
X7438991Y-12148888D01*
X7438991Y-12148888D02*
X7429467Y-12167936D01*
X7429467Y-12167936D02*
X7419944Y-12177460D01*
X7419944Y-12177460D02*
X7400896Y-12186984D01*
X7400896Y-12186984D02*
X7381848Y-12186984D01*
X7381848Y-12186984D02*
X7362801Y-12177460D01*
X7362801Y-12177460D02*
X7353277Y-12167936D01*
X7353277Y-12167936D02*
X7343753Y-12148888D01*
X7343753Y-12148888D02*
X7334229Y-12110793D01*
X7334229Y-12110793D02*
X7334229Y-12063174D01*
X7334229Y-12063174D02*
X7343753Y-12025079D01*
X7343753Y-12025079D02*
X7353277Y-12006031D01*
X7353277Y-12006031D02*
X7362801Y-11996508D01*
X7362801Y-11996508D02*
X7381848Y-11986984D01*
X7543753Y-12186984D02*
X7581848Y-12186984D01*
X7581848Y-12186984D02*
X7600896Y-12177460D01*
X7600896Y-12177460D02*
X7610420Y-12167936D01*
X7610420Y-12167936D02*
X7629467Y-12139365D01*
X7629467Y-12139365D02*
X7638991Y-12101269D01*
X7638991Y-12101269D02*
X7638991Y-12025079D01*
X7638991Y-12025079D02*
X7629467Y-12006031D01*
X7629467Y-12006031D02*
X7619944Y-11996508D01*
X7619944Y-11996508D02*
X7600896Y-11986984D01*
X7600896Y-11986984D02*
X7562801Y-11986984D01*
X7562801Y-11986984D02*
X7543753Y-11996508D01*
X7543753Y-11996508D02*
X7534229Y-12006031D01*
X7534229Y-12006031D02*
X7524705Y-12025079D01*
X7524705Y-12025079D02*
X7524705Y-12072698D01*
X7524705Y-12072698D02*
X7534229Y-12091746D01*
X7534229Y-12091746D02*
X7543753Y-12101269D01*
X7543753Y-12101269D02*
X7562801Y-12110793D01*
X7562801Y-12110793D02*
X7600896Y-12110793D01*
X7600896Y-12110793D02*
X7619944Y-12101269D01*
X7619944Y-12101269D02*
X7629467Y-12091746D01*
X7629467Y-12091746D02*
X7638991Y-12072698D01*
X7810420Y-12053650D02*
X7810420Y-12186984D01*
X7762801Y-11977460D02*
X7715182Y-12120317D01*
X7715182Y-12120317D02*
X7838991Y-12120317D01*
X8010420Y-11986984D02*
X7915182Y-11986984D01*
X7915182Y-11986984D02*
X7905658Y-12082222D01*
X7905658Y-12082222D02*
X7915182Y-12072698D01*
X7915182Y-12072698D02*
X7934229Y-12063174D01*
X7934229Y-12063174D02*
X7981848Y-12063174D01*
X7981848Y-12063174D02*
X8000896Y-12072698D01*
X8000896Y-12072698D02*
X8010420Y-12082222D01*
X8010420Y-12082222D02*
X8019944Y-12101269D01*
X8019944Y-12101269D02*
X8019944Y-12148888D01*
X8019944Y-12148888D02*
X8010420Y-12167936D01*
X8010420Y-12167936D02*
X8000896Y-12177460D01*
X8000896Y-12177460D02*
X7981848Y-12186984D01*
X7981848Y-12186984D02*
X7934229Y-12186984D01*
X7934229Y-12186984D02*
X7915182Y-12177460D01*
X7915182Y-12177460D02*
X7905658Y-12167936D01*
X8096134Y-11986984D02*
X8096134Y-12025079D01*
X8172325Y-11986984D02*
X8172325Y-12025079D01*
X8467563Y-12263174D02*
X8458039Y-12253650D01*
X8458039Y-12253650D02*
X8438991Y-12225079D01*
X8438991Y-12225079D02*
X8429468Y-12206031D01*
X8429468Y-12206031D02*
X8419944Y-12177460D01*
X8419944Y-12177460D02*
X8410420Y-12129841D01*
X8410420Y-12129841D02*
X8410420Y-12091746D01*
X8410420Y-12091746D02*
X8419944Y-12044127D01*
X8419944Y-12044127D02*
X8429468Y-12015555D01*
X8429468Y-12015555D02*
X8438991Y-11996508D01*
X8438991Y-11996508D02*
X8458039Y-11967936D01*
X8458039Y-11967936D02*
X8467563Y-11958412D01*
X8524706Y-11986984D02*
X8658039Y-11986984D01*
X8658039Y-11986984D02*
X8572325Y-12186984D01*
X8886610Y-12186984D02*
X8886610Y-11986984D01*
X8972325Y-12186984D02*
X8972325Y-12082222D01*
X8972325Y-12082222D02*
X8962801Y-12063174D01*
X8962801Y-12063174D02*
X8943753Y-12053650D01*
X8943753Y-12053650D02*
X8915182Y-12053650D01*
X8915182Y-12053650D02*
X8896134Y-12063174D01*
X8896134Y-12063174D02*
X8886610Y-12072698D01*
X9096134Y-12186984D02*
X9077087Y-12177460D01*
X9077087Y-12177460D02*
X9067563Y-12167936D01*
X9067563Y-12167936D02*
X9058039Y-12148888D01*
X9058039Y-12148888D02*
X9058039Y-12091746D01*
X9058039Y-12091746D02*
X9067563Y-12072698D01*
X9067563Y-12072698D02*
X9077087Y-12063174D01*
X9077087Y-12063174D02*
X9096134Y-12053650D01*
X9096134Y-12053650D02*
X9124706Y-12053650D01*
X9124706Y-12053650D02*
X9143753Y-12063174D01*
X9143753Y-12063174D02*
X9153277Y-12072698D01*
X9153277Y-12072698D02*
X9162801Y-12091746D01*
X9162801Y-12091746D02*
X9162801Y-12148888D01*
X9162801Y-12148888D02*
X9153277Y-12167936D01*
X9153277Y-12167936D02*
X9143753Y-12177460D01*
X9143753Y-12177460D02*
X9124706Y-12186984D01*
X9124706Y-12186984D02*
X9096134Y-12186984D01*
X9277087Y-12186984D02*
X9258039Y-12177460D01*
X9258039Y-12177460D02*
X9248515Y-12158412D01*
X9248515Y-12158412D02*
X9248515Y-11986984D01*
X9429468Y-12177460D02*
X9410420Y-12186984D01*
X9410420Y-12186984D02*
X9372325Y-12186984D01*
X9372325Y-12186984D02*
X9353277Y-12177460D01*
X9353277Y-12177460D02*
X9343753Y-12158412D01*
X9343753Y-12158412D02*
X9343753Y-12082222D01*
X9343753Y-12082222D02*
X9353277Y-12063174D01*
X9353277Y-12063174D02*
X9372325Y-12053650D01*
X9372325Y-12053650D02*
X9410420Y-12053650D01*
X9410420Y-12053650D02*
X9429468Y-12063174D01*
X9429468Y-12063174D02*
X9438991Y-12082222D01*
X9438991Y-12082222D02*
X9438991Y-12101269D01*
X9438991Y-12101269D02*
X9343753Y-12120317D01*
X9515182Y-12177460D02*
X9534230Y-12186984D01*
X9534230Y-12186984D02*
X9572325Y-12186984D01*
X9572325Y-12186984D02*
X9591372Y-12177460D01*
X9591372Y-12177460D02*
X9600896Y-12158412D01*
X9600896Y-12158412D02*
X9600896Y-12148888D01*
X9600896Y-12148888D02*
X9591372Y-12129841D01*
X9591372Y-12129841D02*
X9572325Y-12120317D01*
X9572325Y-12120317D02*
X9543753Y-12120317D01*
X9543753Y-12120317D02*
X9524706Y-12110793D01*
X9524706Y-12110793D02*
X9515182Y-12091746D01*
X9515182Y-12091746D02*
X9515182Y-12082222D01*
X9515182Y-12082222D02*
X9524706Y-12063174D01*
X9524706Y-12063174D02*
X9543753Y-12053650D01*
X9543753Y-12053650D02*
X9572325Y-12053650D01*
X9572325Y-12053650D02*
X9591372Y-12063174D01*
X9667563Y-12263174D02*
X9677087Y-12253650D01*
X9677087Y-12253650D02*
X9696134Y-12225079D01*
X9696134Y-12225079D02*
X9705658Y-12206031D01*
X9705658Y-12206031D02*
X9715182Y-12177460D01*
X9715182Y-12177460D02*
X9724706Y-12129841D01*
X9724706Y-12129841D02*
X9724706Y-12091746D01*
X9724706Y-12091746D02*
X9715182Y-12044127D01*
X9715182Y-12044127D02*
X9705658Y-12015555D01*
X9705658Y-12015555D02*
X9696134Y-11996508D01*
X9696134Y-11996508D02*
X9677087Y-11967936D01*
X9677087Y-11967936D02*
X9667563Y-11958412D01*
X10029468Y-12263174D02*
X10019944Y-12253650D01*
X10019944Y-12253650D02*
X10000896Y-12225079D01*
X10000896Y-12225079D02*
X9991372Y-12206031D01*
X9991372Y-12206031D02*
X9981849Y-12177460D01*
X9981849Y-12177460D02*
X9972325Y-12129841D01*
X9972325Y-12129841D02*
X9972325Y-12091746D01*
X9972325Y-12091746D02*
X9981849Y-12044127D01*
X9981849Y-12044127D02*
X9991372Y-12015555D01*
X9991372Y-12015555D02*
X10000896Y-11996508D01*
X10000896Y-11996508D02*
X10019944Y-11967936D01*
X10019944Y-11967936D02*
X10029468Y-11958412D01*
X10105658Y-12053650D02*
X10105658Y-12186984D01*
X10105658Y-12072698D02*
X10115182Y-12063174D01*
X10115182Y-12063174D02*
X10134230Y-12053650D01*
X10134230Y-12053650D02*
X10162801Y-12053650D01*
X10162801Y-12053650D02*
X10181849Y-12063174D01*
X10181849Y-12063174D02*
X10191372Y-12082222D01*
X10191372Y-12082222D02*
X10191372Y-12186984D01*
X10315182Y-12186984D02*
X10296134Y-12177460D01*
X10296134Y-12177460D02*
X10286611Y-12167936D01*
X10286611Y-12167936D02*
X10277087Y-12148888D01*
X10277087Y-12148888D02*
X10277087Y-12091746D01*
X10277087Y-12091746D02*
X10286611Y-12072698D01*
X10286611Y-12072698D02*
X10296134Y-12063174D01*
X10296134Y-12063174D02*
X10315182Y-12053650D01*
X10315182Y-12053650D02*
X10343753Y-12053650D01*
X10343753Y-12053650D02*
X10362801Y-12063174D01*
X10362801Y-12063174D02*
X10372325Y-12072698D01*
X10372325Y-12072698D02*
X10381849Y-12091746D01*
X10381849Y-12091746D02*
X10381849Y-12148888D01*
X10381849Y-12148888D02*
X10372325Y-12167936D01*
X10372325Y-12167936D02*
X10362801Y-12177460D01*
X10362801Y-12177460D02*
X10343753Y-12186984D01*
X10343753Y-12186984D02*
X10315182Y-12186984D01*
X10438992Y-12053650D02*
X10515182Y-12053650D01*
X10467563Y-11986984D02*
X10467563Y-12158412D01*
X10467563Y-12158412D02*
X10477087Y-12177460D01*
X10477087Y-12177460D02*
X10496134Y-12186984D01*
X10496134Y-12186984D02*
X10515182Y-12186984D01*
X10734230Y-12053650D02*
X10734230Y-12253650D01*
X10734230Y-12063174D02*
X10753277Y-12053650D01*
X10753277Y-12053650D02*
X10791373Y-12053650D01*
X10791373Y-12053650D02*
X10810420Y-12063174D01*
X10810420Y-12063174D02*
X10819944Y-12072698D01*
X10819944Y-12072698D02*
X10829468Y-12091746D01*
X10829468Y-12091746D02*
X10829468Y-12148888D01*
X10829468Y-12148888D02*
X10819944Y-12167936D01*
X10819944Y-12167936D02*
X10810420Y-12177460D01*
X10810420Y-12177460D02*
X10791373Y-12186984D01*
X10791373Y-12186984D02*
X10753277Y-12186984D01*
X10753277Y-12186984D02*
X10734230Y-12177460D01*
X10943753Y-12186984D02*
X10924706Y-12177460D01*
X10924706Y-12177460D02*
X10915182Y-12158412D01*
X10915182Y-12158412D02*
X10915182Y-11986984D01*
X11105658Y-12186984D02*
X11105658Y-12082222D01*
X11105658Y-12082222D02*
X11096134Y-12063174D01*
X11096134Y-12063174D02*
X11077087Y-12053650D01*
X11077087Y-12053650D02*
X11038992Y-12053650D01*
X11038992Y-12053650D02*
X11019944Y-12063174D01*
X11105658Y-12177460D02*
X11086611Y-12186984D01*
X11086611Y-12186984D02*
X11038992Y-12186984D01*
X11038992Y-12186984D02*
X11019944Y-12177460D01*
X11019944Y-12177460D02*
X11010420Y-12158412D01*
X11010420Y-12158412D02*
X11010420Y-12139365D01*
X11010420Y-12139365D02*
X11019944Y-12120317D01*
X11019944Y-12120317D02*
X11038992Y-12110793D01*
X11038992Y-12110793D02*
X11086611Y-12110793D01*
X11086611Y-12110793D02*
X11105658Y-12101269D01*
X11172325Y-12053650D02*
X11248515Y-12053650D01*
X11200896Y-11986984D02*
X11200896Y-12158412D01*
X11200896Y-12158412D02*
X11210420Y-12177460D01*
X11210420Y-12177460D02*
X11229468Y-12186984D01*
X11229468Y-12186984D02*
X11248515Y-12186984D01*
X11391372Y-12177460D02*
X11372325Y-12186984D01*
X11372325Y-12186984D02*
X11334230Y-12186984D01*
X11334230Y-12186984D02*
X11315182Y-12177460D01*
X11315182Y-12177460D02*
X11305658Y-12158412D01*
X11305658Y-12158412D02*
X11305658Y-12082222D01*
X11305658Y-12082222D02*
X11315182Y-12063174D01*
X11315182Y-12063174D02*
X11334230Y-12053650D01*
X11334230Y-12053650D02*
X11372325Y-12053650D01*
X11372325Y-12053650D02*
X11391372Y-12063174D01*
X11391372Y-12063174D02*
X11400896Y-12082222D01*
X11400896Y-12082222D02*
X11400896Y-12101269D01*
X11400896Y-12101269D02*
X11305658Y-12120317D01*
X11572325Y-12186984D02*
X11572325Y-11986984D01*
X11572325Y-12177460D02*
X11553277Y-12186984D01*
X11553277Y-12186984D02*
X11515182Y-12186984D01*
X11515182Y-12186984D02*
X11496134Y-12177460D01*
X11496134Y-12177460D02*
X11486611Y-12167936D01*
X11486611Y-12167936D02*
X11477087Y-12148888D01*
X11477087Y-12148888D02*
X11477087Y-12091746D01*
X11477087Y-12091746D02*
X11486611Y-12072698D01*
X11486611Y-12072698D02*
X11496134Y-12063174D01*
X11496134Y-12063174D02*
X11515182Y-12053650D01*
X11515182Y-12053650D02*
X11553277Y-12053650D01*
X11553277Y-12053650D02*
X11572325Y-12063174D01*
X11648515Y-12263174D02*
X11658039Y-12253650D01*
X11658039Y-12253650D02*
X11677087Y-12225079D01*
X11677087Y-12225079D02*
X11686611Y-12206031D01*
X11686611Y-12206031D02*
X11696134Y-12177460D01*
X11696134Y-12177460D02*
X11705658Y-12129841D01*
X11705658Y-12129841D02*
X11705658Y-12091746D01*
X11705658Y-12091746D02*
X11696134Y-12044127D01*
X11696134Y-12044127D02*
X11686611Y-12015555D01*
X11686611Y-12015555D02*
X11677087Y-11996508D01*
X11677087Y-11996508D02*
X11658039Y-11967936D01*
X11658039Y-11967936D02*
X11648515Y-11958412D01*
M02*
