%TF.GenerationSoftware,KiCad,Pcbnew,8.0.4*%
%TF.CreationDate,2025-03-14T20:27:29-07:00*%
%TF.ProjectId,mintypcb,6d696e74-7970-4636-922e-6b696361645f,2*%
%TF.SameCoordinates,Original*%
%TF.FileFunction,Drillmap*%
%TF.FilePolarity,Positive*%
%FSLAX45Y45*%
G04 Gerber Fmt 4.5, Leading zero omitted, Abs format (unit mm)*
G04 Created by KiCad (PCBNEW 8.0.4) date 2025-03-14 20:27:29*
%MOMM*%
%LPD*%
G01*
G04 APERTURE LIST*
%ADD10C,0.150000*%
%ADD11C,0.200000*%
%ADD12C,0.100000*%
G04 APERTURE END LIST*
D10*
X6000000Y-5600000D02*
G75*
G02*
X5900000Y-5700000I-100000J0D01*
G01*
X12800000Y-5700000D02*
X13500000Y-5700000D01*
X8550000Y-5050000D02*
G75*
G02*
X8600000Y-5100000I0J-50000D01*
G01*
X6000000Y-5600000D02*
X6000000Y-5150000D01*
X10100000Y-5100000D02*
G75*
G02*
X10150000Y-5050000I50000J0D01*
G01*
X12800000Y-5700000D02*
G75*
G02*
X12700000Y-5600000I0J100000D01*
G01*
X13800000Y-9800000D02*
X13800000Y-6000000D01*
X5000000Y-8150000D02*
X11900000Y-8150000D01*
X8700000Y-5200000D02*
G75*
G02*
X8600000Y-5100000I0J100000D01*
G01*
X11200000Y-10000000D02*
G75*
G02*
X11300000Y-9900000I100000J0D01*
G01*
X5000000Y-8150000D02*
G75*
G02*
X4900000Y-8050000I0J100000D01*
G01*
X6000000Y-5150000D02*
G75*
G02*
X6100000Y-5050000I100000J0D01*
G01*
X4900000Y-6000000D02*
G75*
G02*
X5200000Y-5700000I300000J0D01*
G01*
X12700000Y-5600000D02*
X12700000Y-5150000D01*
X8700000Y-5200000D02*
X10000000Y-5200000D01*
X12000000Y-9800000D02*
X12000000Y-8250000D01*
X4900000Y-6000000D02*
X4900000Y-8050000D01*
X10100000Y-5100000D02*
G75*
G02*
X10000000Y-5200000I-100000J0D01*
G01*
X8550000Y-5050000D02*
X6100000Y-5050000D01*
X12000000Y-9800000D02*
G75*
G02*
X11900000Y-9900000I-100000J0D01*
G01*
X10150000Y-5050000D02*
X12600000Y-5050000D01*
X11900000Y-8150000D02*
G75*
G02*
X12000000Y-8250000I0J-100000D01*
G01*
X12600000Y-10600000D02*
X11300000Y-10600000D01*
X13800000Y-9800000D02*
G75*
G02*
X12600000Y-10600000I-1200000J500000D01*
G01*
X11300000Y-10600000D02*
G75*
G02*
X11200000Y-10500000I0J100000D01*
G01*
X11200000Y-10000000D02*
X11200000Y-10500000D01*
X11900000Y-9900000D02*
X11300000Y-9900000D01*
X12600000Y-5050000D02*
G75*
G02*
X12700000Y-5150000I0J-100000D01*
G01*
X5900000Y-5700000D02*
X5200000Y-5700000D01*
X13500000Y-5700000D02*
G75*
G02*
X13800000Y-6000000I0J-300000D01*
G01*
D11*
D12*
X4985000Y-6205000D02*
X5015000Y-6235000D01*
X5015000Y-6205000D02*
X4985000Y-6235000D01*
X4985000Y-6605000D02*
X5015000Y-6635000D01*
X5015000Y-6605000D02*
X4985000Y-6635000D01*
X4985000Y-7005000D02*
X5015000Y-7035000D01*
X5015000Y-7005000D02*
X4985000Y-7035000D01*
X4985000Y-7405000D02*
X5015000Y-7435000D01*
X5015000Y-7405000D02*
X4985000Y-7435000D01*
X4985000Y-7805000D02*
X5015000Y-7835000D01*
X5015000Y-7805000D02*
X4985000Y-7835000D01*
X5365000Y-8005000D02*
X5395000Y-8035000D01*
X5395000Y-8005000D02*
X5365000Y-8035000D01*
X5510000Y-6770000D02*
X5540000Y-6800000D01*
X5540000Y-6770000D02*
X5510000Y-6800000D01*
X5525000Y-5975000D02*
X5555000Y-6005000D01*
X5555000Y-5975000D02*
X5525000Y-6005000D01*
X5975000Y-7205000D02*
X6005000Y-7235000D01*
X6005000Y-7205000D02*
X5975000Y-7235000D01*
X5985000Y-5815000D02*
X6015000Y-5845000D01*
X6015000Y-5815000D02*
X5985000Y-5845000D01*
X6105000Y-5495000D02*
X6135000Y-5525000D01*
X6135000Y-5495000D02*
X6105000Y-5525000D01*
X6185000Y-6725000D02*
X6215000Y-6755000D01*
X6215000Y-6725000D02*
X6185000Y-6755000D01*
X6185000Y-6805000D02*
X6215000Y-6835000D01*
X6215000Y-6805000D02*
X6185000Y-6835000D01*
X6200000Y-6180000D02*
X6230000Y-6210000D01*
X6230000Y-6180000D02*
X6200000Y-6210000D01*
X6265000Y-6725000D02*
X6295000Y-6755000D01*
X6295000Y-6725000D02*
X6265000Y-6755000D01*
X6265000Y-6805000D02*
X6295000Y-6835000D01*
X6295000Y-6805000D02*
X6265000Y-6835000D01*
X6295000Y-5455000D02*
X6325000Y-5485000D01*
X6325000Y-5455000D02*
X6295000Y-5485000D01*
X6300000Y-8005000D02*
X6330000Y-8035000D01*
X6330000Y-8005000D02*
X6300000Y-8035000D01*
X6525000Y-5395000D02*
X6555000Y-5425000D01*
X6555000Y-5395000D02*
X6525000Y-5425000D01*
X6572500Y-7015000D02*
X6602500Y-7045000D01*
X6602500Y-7015000D02*
X6572500Y-7045000D01*
X6585000Y-7385000D02*
X6615000Y-7415000D01*
X6615000Y-7385000D02*
X6585000Y-7415000D01*
X6680000Y-7850000D02*
X6710000Y-7880000D01*
X6710000Y-7850000D02*
X6680000Y-7880000D01*
X6705000Y-7555000D02*
X6735000Y-7585000D01*
X6735000Y-7555000D02*
X6705000Y-7585000D01*
X6762500Y-6995000D02*
X6792500Y-7025000D01*
X6792500Y-6995000D02*
X6762500Y-7025000D01*
X6810000Y-6105000D02*
X6840000Y-6135000D01*
X6840000Y-6105000D02*
X6810000Y-6135000D01*
X6865000Y-7555000D02*
X6895000Y-7585000D01*
X6895000Y-7555000D02*
X6865000Y-7585000D01*
X6930000Y-6525000D02*
X6960000Y-6555000D01*
X6960000Y-6525000D02*
X6930000Y-6555000D01*
X7045000Y-7870000D02*
X7075000Y-7900000D01*
X7075000Y-7870000D02*
X7045000Y-7900000D01*
X7185000Y-7385000D02*
X7215000Y-7415000D01*
X7215000Y-7385000D02*
X7185000Y-7415000D01*
X7235000Y-5305000D02*
X7265000Y-5335000D01*
X7265000Y-5305000D02*
X7235000Y-5335000D01*
X7245000Y-5735000D02*
X7275000Y-5765000D01*
X7275000Y-5735000D02*
X7245000Y-5765000D01*
X7275000Y-6315000D02*
X7305000Y-6345000D01*
X7305000Y-6315000D02*
X7275000Y-6345000D01*
X7330000Y-6525000D02*
X7360000Y-6555000D01*
X7360000Y-6525000D02*
X7330000Y-6555000D01*
X7385000Y-7385000D02*
X7415000Y-7415000D01*
X7415000Y-7385000D02*
X7385000Y-7415000D01*
X7440000Y-7600000D02*
X7470000Y-7630000D01*
X7470000Y-7600000D02*
X7440000Y-7630000D01*
X7495000Y-5455000D02*
X7525000Y-5485000D01*
X7525000Y-5455000D02*
X7495000Y-5485000D01*
X7565000Y-7115000D02*
X7595000Y-7145000D01*
X7595000Y-7115000D02*
X7565000Y-7145000D01*
X7652500Y-6700000D02*
X7682500Y-6730000D01*
X7682500Y-6700000D02*
X7652500Y-6730000D01*
X7695000Y-7502500D02*
X7725000Y-7532500D01*
X7725000Y-7502500D02*
X7695000Y-7532500D01*
X7705000Y-6575000D02*
X7735000Y-6605000D01*
X7735000Y-6575000D02*
X7705000Y-6605000D01*
X7725000Y-5395000D02*
X7755000Y-5425000D01*
X7755000Y-5395000D02*
X7725000Y-5425000D01*
X7920000Y-7200000D02*
X7950000Y-7230000D01*
X7950000Y-7200000D02*
X7920000Y-7230000D01*
X7955000Y-6065000D02*
X7985000Y-6095000D01*
X7985000Y-6065000D02*
X7955000Y-6095000D01*
X8025000Y-7140000D02*
X8055000Y-7170000D01*
X8055000Y-7140000D02*
X8025000Y-7170000D01*
X8030571Y-6815000D02*
X8060571Y-6845000D01*
X8060571Y-6815000D02*
X8030571Y-6845000D01*
X8083125Y-6937500D02*
X8113125Y-6967500D01*
X8113125Y-6937500D02*
X8083125Y-6967500D01*
X8115000Y-7425000D02*
X8145000Y-7455000D01*
X8145000Y-7425000D02*
X8115000Y-7455000D01*
X8295000Y-6575000D02*
X8325000Y-6605000D01*
X8325000Y-6575000D02*
X8295000Y-6605000D01*
X8365000Y-6965000D02*
X8395000Y-6995000D01*
X8395000Y-6965000D02*
X8365000Y-6995000D01*
X8375000Y-5455000D02*
X8405000Y-5485000D01*
X8405000Y-5455000D02*
X8375000Y-5485000D01*
X8460000Y-7852500D02*
X8490000Y-7882500D01*
X8490000Y-7852500D02*
X8460000Y-7882500D01*
X8525000Y-6265000D02*
X8555000Y-6295000D01*
X8555000Y-6265000D02*
X8525000Y-6295000D01*
X8635000Y-7235000D02*
X8665000Y-7265000D01*
X8665000Y-7235000D02*
X8635000Y-7265000D01*
X8705000Y-5285000D02*
X8735000Y-5315000D01*
X8735000Y-5285000D02*
X8705000Y-5315000D01*
X8779853Y-6515000D02*
X8809853Y-6545000D01*
X8809853Y-6515000D02*
X8779853Y-6545000D01*
X8885000Y-6165000D02*
X8915000Y-6195000D01*
X8915000Y-6165000D02*
X8885000Y-6195000D01*
X9085000Y-5615000D02*
X9115000Y-5645000D01*
X9115000Y-5615000D02*
X9085000Y-5645000D01*
X9085000Y-5875000D02*
X9115000Y-5905000D01*
X9115000Y-5875000D02*
X9085000Y-5905000D01*
X9097500Y-7940000D02*
X9127500Y-7970000D01*
X9127500Y-7940000D02*
X9097500Y-7970000D01*
X9105000Y-5285000D02*
X9135000Y-5315000D01*
X9135000Y-5285000D02*
X9105000Y-5315000D01*
X9255000Y-5875000D02*
X9285000Y-5905000D01*
X9285000Y-5875000D02*
X9255000Y-5905000D01*
X9475000Y-6905000D02*
X9505000Y-6935000D01*
X9505000Y-6905000D02*
X9475000Y-6935000D01*
X9485000Y-7385000D02*
X9515000Y-7415000D01*
X9515000Y-7385000D02*
X9485000Y-7415000D01*
X9505000Y-5285000D02*
X9535000Y-5315000D01*
X9535000Y-5285000D02*
X9505000Y-5315000D01*
X9603000Y-7995000D02*
X9633000Y-8025000D01*
X9633000Y-7995000D02*
X9603000Y-8025000D01*
X9655000Y-5535000D02*
X9685000Y-5565000D01*
X9685000Y-5535000D02*
X9655000Y-5565000D01*
X9666250Y-6415000D02*
X9696250Y-6445000D01*
X9696250Y-6415000D02*
X9666250Y-6445000D01*
X9666250Y-6495000D02*
X9696250Y-6525000D01*
X9696250Y-6495000D02*
X9666250Y-6525000D01*
X9675000Y-6775000D02*
X9705000Y-6805000D01*
X9705000Y-6775000D02*
X9675000Y-6805000D01*
X9685000Y-7205000D02*
X9715000Y-7235000D01*
X9715000Y-7205000D02*
X9685000Y-7235000D01*
X9725000Y-7595000D02*
X9755000Y-7625000D01*
X9755000Y-7595000D02*
X9725000Y-7625000D01*
X9745000Y-6495000D02*
X9775000Y-6525000D01*
X9775000Y-6495000D02*
X9745000Y-6525000D01*
X9746250Y-6415000D02*
X9776250Y-6445000D01*
X9776250Y-6415000D02*
X9746250Y-6445000D01*
X9805000Y-5875000D02*
X9835000Y-5905000D01*
X9835000Y-5875000D02*
X9805000Y-5905000D01*
X9815000Y-5440000D02*
X9845000Y-5470000D01*
X9845000Y-5440000D02*
X9815000Y-5470000D01*
X9845000Y-6860000D02*
X9875000Y-6890000D01*
X9875000Y-6860000D02*
X9845000Y-6890000D01*
X9885000Y-7385000D02*
X9915000Y-7415000D01*
X9915000Y-7385000D02*
X9885000Y-7415000D01*
X9905000Y-5285000D02*
X9935000Y-5315000D01*
X9935000Y-5285000D02*
X9905000Y-5315000D01*
X9935000Y-6405000D02*
X9965000Y-6435000D01*
X9965000Y-6405000D02*
X9935000Y-6435000D01*
X9955000Y-7585000D02*
X9985000Y-7615000D01*
X9985000Y-7585000D02*
X9955000Y-7615000D01*
X9995000Y-5625000D02*
X10025000Y-5655000D01*
X10025000Y-5625000D02*
X9995000Y-5655000D01*
X10025000Y-6405000D02*
X10055000Y-6435000D01*
X10055000Y-6405000D02*
X10025000Y-6435000D01*
X10030000Y-5360000D02*
X10060000Y-5390000D01*
X10060000Y-5360000D02*
X10030000Y-5390000D01*
X10155000Y-5785000D02*
X10185000Y-5815000D01*
X10185000Y-5785000D02*
X10155000Y-5815000D01*
X10235000Y-6155000D02*
X10265000Y-6185000D01*
X10265000Y-6155000D02*
X10235000Y-6185000D01*
X10235000Y-7340000D02*
X10265000Y-7370000D01*
X10265000Y-7340000D02*
X10235000Y-7370000D01*
X10255000Y-5720000D02*
X10285000Y-5750000D01*
X10285000Y-5720000D02*
X10255000Y-5750000D01*
X10275000Y-6615000D02*
X10305000Y-6645000D01*
X10305000Y-6615000D02*
X10275000Y-6645000D01*
X10362500Y-7667500D02*
X10392500Y-7697500D01*
X10392500Y-7667500D02*
X10362500Y-7697500D01*
X10362500Y-7880000D02*
X10392500Y-7910000D01*
X10392500Y-7880000D02*
X10362500Y-7910000D01*
X10421397Y-7055000D02*
X10451397Y-7085000D01*
X10451397Y-7055000D02*
X10421397Y-7085000D01*
X10470000Y-6115000D02*
X10500000Y-6145000D01*
X10500000Y-6115000D02*
X10470000Y-6145000D01*
X10510000Y-5415000D02*
X10540000Y-5445000D01*
X10540000Y-5415000D02*
X10510000Y-5445000D01*
X10520625Y-6780000D02*
X10550625Y-6810000D01*
X10550625Y-6780000D02*
X10520625Y-6810000D01*
X10545000Y-7555000D02*
X10575000Y-7585000D01*
X10575000Y-7555000D02*
X10545000Y-7585000D01*
X10566250Y-6525000D02*
X10596250Y-6555000D01*
X10596250Y-6525000D02*
X10566250Y-6555000D01*
X10610000Y-5785000D02*
X10640000Y-5815000D01*
X10640000Y-5785000D02*
X10610000Y-5815000D01*
X10617677Y-7685176D02*
X10647677Y-7715176D01*
X10647677Y-7685176D02*
X10617677Y-7715176D01*
X10700000Y-6525000D02*
X10730000Y-6555000D01*
X10730000Y-6525000D02*
X10700000Y-6555000D01*
X10701250Y-6155000D02*
X10731250Y-6185000D01*
X10731250Y-6155000D02*
X10701250Y-6185000D01*
X10815000Y-7175000D02*
X10845000Y-7205000D01*
X10845000Y-7175000D02*
X10815000Y-7205000D01*
X10825000Y-6115000D02*
X10855000Y-6145000D01*
X10855000Y-6115000D02*
X10825000Y-6145000D01*
X10875000Y-7935000D02*
X10905000Y-7965000D01*
X10905000Y-7935000D02*
X10875000Y-7965000D01*
X10886250Y-6705000D02*
X10916250Y-6735000D01*
X10916250Y-6705000D02*
X10886250Y-6735000D01*
X10886250Y-7055000D02*
X10916250Y-7085000D01*
X10916250Y-7055000D02*
X10886250Y-7085000D01*
X10998000Y-7598000D02*
X11028000Y-7628000D01*
X11028000Y-7598000D02*
X10998000Y-7628000D01*
X11005000Y-6755000D02*
X11035000Y-6785000D01*
X11035000Y-6755000D02*
X11005000Y-6785000D01*
X11085000Y-7385000D02*
X11115000Y-7415000D01*
X11115000Y-7385000D02*
X11085000Y-7415000D01*
X11086250Y-6855000D02*
X11116250Y-6885000D01*
X11116250Y-6855000D02*
X11086250Y-6885000D01*
X11140000Y-6495000D02*
X11170000Y-6525000D01*
X11170000Y-6495000D02*
X11140000Y-6525000D01*
X11172500Y-7535000D02*
X11202500Y-7565000D01*
X11202500Y-7535000D02*
X11172500Y-7565000D01*
X11180000Y-7280000D02*
X11210000Y-7310000D01*
X11210000Y-7280000D02*
X11180000Y-7310000D01*
X11260000Y-7065000D02*
X11290000Y-7095000D01*
X11290000Y-7065000D02*
X11260000Y-7095000D01*
X11260000Y-7155000D02*
X11290000Y-7185000D01*
X11290000Y-7155000D02*
X11260000Y-7185000D01*
X11350000Y-7055000D02*
X11380000Y-7085000D01*
X11380000Y-7055000D02*
X11350000Y-7085000D01*
X11390000Y-6750000D02*
X11420000Y-6780000D01*
X11420000Y-6750000D02*
X11390000Y-6780000D01*
X11395000Y-6115000D02*
X11425000Y-6145000D01*
X11425000Y-6115000D02*
X11395000Y-6145000D01*
X11425000Y-7250000D02*
X11455000Y-7280000D01*
X11455000Y-7250000D02*
X11425000Y-7280000D01*
X11435000Y-5465000D02*
X11465000Y-5495000D01*
X11465000Y-5465000D02*
X11435000Y-5495000D01*
X11470000Y-5810000D02*
X11500000Y-5840000D01*
X11500000Y-5810000D02*
X11470000Y-5840000D01*
X11585000Y-6370000D02*
X11615000Y-6400000D01*
X11615000Y-6370000D02*
X11585000Y-6400000D01*
X11605000Y-7080000D02*
X11635000Y-7110000D01*
X11635000Y-7080000D02*
X11605000Y-7110000D01*
X11675000Y-6575000D02*
X11705000Y-6605000D01*
X11705000Y-6575000D02*
X11675000Y-6605000D01*
X11830000Y-7300000D02*
X11860000Y-7330000D01*
X11860000Y-7300000D02*
X11830000Y-7330000D01*
X11905000Y-7475000D02*
X11935000Y-7505000D01*
X11935000Y-7475000D02*
X11905000Y-7505000D01*
X11930000Y-7300000D02*
X11960000Y-7330000D01*
X11960000Y-7300000D02*
X11930000Y-7330000D01*
X11962573Y-5367427D02*
X11992573Y-5397427D01*
X11992573Y-5367427D02*
X11962573Y-5397427D01*
X11970000Y-6750000D02*
X12000000Y-6780000D01*
X12000000Y-6750000D02*
X11970000Y-6780000D01*
X11970000Y-6850000D02*
X12000000Y-6880000D01*
X12000000Y-6850000D02*
X11970000Y-6880000D01*
X11975000Y-7155000D02*
X12005000Y-7185000D01*
X12005000Y-7155000D02*
X11975000Y-7185000D01*
X11990000Y-5450000D02*
X12020000Y-5480000D01*
X12020000Y-5450000D02*
X11990000Y-5480000D01*
X12015000Y-6250000D02*
X12045000Y-6280000D01*
X12045000Y-6250000D02*
X12015000Y-6280000D01*
X12030000Y-7855000D02*
X12060000Y-7885000D01*
X12060000Y-7855000D02*
X12030000Y-7885000D01*
X12070000Y-6750000D02*
X12100000Y-6780000D01*
X12100000Y-6750000D02*
X12070000Y-6780000D01*
X12070000Y-6850000D02*
X12100000Y-6880000D01*
X12100000Y-6850000D02*
X12070000Y-6880000D01*
X12085000Y-9225000D02*
X12115000Y-9255000D01*
X12115000Y-9225000D02*
X12085000Y-9255000D01*
X12135000Y-7515000D02*
X12165000Y-7545000D01*
X12165000Y-7515000D02*
X12135000Y-7545000D01*
X12135000Y-7725000D02*
X12165000Y-7755000D01*
X12165000Y-7725000D02*
X12135000Y-7755000D01*
X12145000Y-10465000D02*
X12175000Y-10495000D01*
X12175000Y-10465000D02*
X12145000Y-10495000D01*
X12165000Y-8800000D02*
X12195000Y-8830000D01*
X12195000Y-8800000D02*
X12165000Y-8830000D01*
X12170000Y-6750000D02*
X12200000Y-6780000D01*
X12200000Y-6750000D02*
X12170000Y-6780000D01*
X12170000Y-6850000D02*
X12200000Y-6880000D01*
X12200000Y-6850000D02*
X12170000Y-6880000D01*
X12235000Y-6445000D02*
X12265000Y-6475000D01*
X12265000Y-6445000D02*
X12235000Y-6475000D01*
X12235000Y-9765000D02*
X12265000Y-9795000D01*
X12265000Y-9765000D02*
X12235000Y-9795000D01*
X12250000Y-9240000D02*
X12280000Y-9270000D01*
X12280000Y-9240000D02*
X12250000Y-9270000D01*
X12320000Y-5785000D02*
X12350000Y-5815000D01*
X12350000Y-5785000D02*
X12320000Y-5815000D01*
X12325000Y-6045000D02*
X12355000Y-6075000D01*
X12355000Y-6045000D02*
X12325000Y-6075000D01*
X12335000Y-6445000D02*
X12365000Y-6475000D01*
X12365000Y-6445000D02*
X12335000Y-6475000D01*
X12335000Y-9295000D02*
X12365000Y-9325000D01*
X12365000Y-9295000D02*
X12335000Y-9325000D01*
X12405000Y-10260000D02*
X12435000Y-10290000D01*
X12435000Y-10260000D02*
X12405000Y-10290000D01*
X12415000Y-8065000D02*
X12445000Y-8095000D01*
X12445000Y-8065000D02*
X12415000Y-8095000D01*
X12425000Y-6815000D02*
X12455000Y-6845000D01*
X12455000Y-6815000D02*
X12425000Y-6845000D01*
X12492000Y-6630000D02*
X12522000Y-6660000D01*
X12522000Y-6630000D02*
X12492000Y-6660000D01*
X12525000Y-10070000D02*
X12555000Y-10100000D01*
X12555000Y-10070000D02*
X12525000Y-10100000D01*
X12535000Y-8275000D02*
X12565000Y-8305000D01*
X12565000Y-8275000D02*
X12535000Y-8305000D01*
X12555000Y-6035000D02*
X12585000Y-6065000D01*
X12585000Y-6035000D02*
X12555000Y-6065000D01*
X12555000Y-6135000D02*
X12585000Y-6165000D01*
X12585000Y-6135000D02*
X12555000Y-6165000D01*
X12555000Y-6235000D02*
X12585000Y-6265000D01*
X12585000Y-6235000D02*
X12555000Y-6265000D01*
X12555000Y-6335000D02*
X12585000Y-6365000D01*
X12585000Y-6335000D02*
X12555000Y-6365000D01*
X12555000Y-6435000D02*
X12585000Y-6465000D01*
X12585000Y-6435000D02*
X12555000Y-6465000D01*
X12620000Y-9240000D02*
X12650000Y-9270000D01*
X12650000Y-9240000D02*
X12620000Y-9270000D01*
X12665000Y-8275000D02*
X12695000Y-8305000D01*
X12695000Y-8275000D02*
X12665000Y-8305000D01*
X12737000Y-6815000D02*
X12767000Y-6845000D01*
X12767000Y-6815000D02*
X12737000Y-6845000D01*
X12760000Y-7585000D02*
X12790000Y-7615000D01*
X12790000Y-7585000D02*
X12760000Y-7615000D01*
X12776000Y-8993000D02*
X12806000Y-9023000D01*
X12806000Y-8993000D02*
X12776000Y-9023000D01*
X12792500Y-9235000D02*
X12822500Y-9265000D01*
X12822500Y-9235000D02*
X12792500Y-9265000D01*
X12805000Y-6185000D02*
X12835000Y-6215000D01*
X12835000Y-6185000D02*
X12805000Y-6215000D01*
X12870000Y-6085000D02*
X12900000Y-6115000D01*
X12900000Y-6085000D02*
X12870000Y-6115000D01*
X12885000Y-10025000D02*
X12915000Y-10055000D01*
X12915000Y-10025000D02*
X12885000Y-10055000D01*
X12890000Y-9135000D02*
X12920000Y-9165000D01*
X12920000Y-9135000D02*
X12890000Y-9165000D01*
X12890000Y-9235000D02*
X12920000Y-9265000D01*
X12920000Y-9235000D02*
X12890000Y-9265000D01*
X12925000Y-9745000D02*
X12955000Y-9775000D01*
X12955000Y-9745000D02*
X12925000Y-9775000D01*
X12990000Y-9135000D02*
X13020000Y-9165000D01*
X13020000Y-9135000D02*
X12990000Y-9165000D01*
X12990000Y-9235000D02*
X13020000Y-9265000D01*
X13020000Y-9235000D02*
X12990000Y-9265000D01*
X13030000Y-6955000D02*
X13060000Y-6985000D01*
X13060000Y-6955000D02*
X13030000Y-6985000D01*
X13052500Y-6680000D02*
X13082500Y-6710000D01*
X13082500Y-6680000D02*
X13052500Y-6710000D01*
X13052500Y-7227500D02*
X13082500Y-7257500D01*
X13082500Y-7227500D02*
X13052500Y-7257500D01*
X13090000Y-9135000D02*
X13120000Y-9165000D01*
X13120000Y-9135000D02*
X13090000Y-9165000D01*
X13190000Y-9135000D02*
X13220000Y-9165000D01*
X13220000Y-9135000D02*
X13190000Y-9165000D01*
X13225000Y-10285000D02*
X13255000Y-10315000D01*
X13255000Y-10285000D02*
X13225000Y-10315000D01*
X13235000Y-7510000D02*
X13265000Y-7540000D01*
X13265000Y-7510000D02*
X13235000Y-7540000D01*
X13235000Y-7835000D02*
X13265000Y-7865000D01*
X13265000Y-7835000D02*
X13235000Y-7865000D01*
X13290000Y-9135000D02*
X13320000Y-9165000D01*
X13320000Y-9135000D02*
X13290000Y-9165000D01*
X13310000Y-6625000D02*
X13340000Y-6655000D01*
X13340000Y-6625000D02*
X13310000Y-6655000D01*
X13310000Y-6735000D02*
X13340000Y-6765000D01*
X13340000Y-6735000D02*
X13310000Y-6765000D01*
X13310000Y-7175000D02*
X13340000Y-7205000D01*
X13340000Y-7175000D02*
X13310000Y-7205000D01*
X13310000Y-7285000D02*
X13340000Y-7315000D01*
X13340000Y-7285000D02*
X13310000Y-7315000D01*
X13390000Y-9135000D02*
X13420000Y-9165000D01*
X13420000Y-9135000D02*
X13390000Y-9165000D01*
X13422823Y-7222324D02*
X13452823Y-7252324D01*
X13452823Y-7222324D02*
X13422823Y-7252324D01*
X13425000Y-9865000D02*
X13455000Y-9895000D01*
X13455000Y-9865000D02*
X13425000Y-9895000D01*
X13490000Y-9135000D02*
X13520000Y-9165000D01*
X13520000Y-9135000D02*
X13490000Y-9165000D01*
X13515000Y-7510000D02*
X13545000Y-7540000D01*
X13545000Y-7510000D02*
X13515000Y-7540000D01*
X13525000Y-8422500D02*
X13555000Y-8452500D01*
X13555000Y-8422500D02*
X13525000Y-8452500D01*
X13538603Y-7216250D02*
X13568603Y-7246250D01*
X13568603Y-7216250D02*
X13538603Y-7246250D01*
X13590000Y-8935000D02*
X13620000Y-8965000D01*
X13620000Y-8935000D02*
X13590000Y-8965000D01*
X13590000Y-9035000D02*
X13620000Y-9065000D01*
X13620000Y-9035000D02*
X13590000Y-9065000D01*
X13590000Y-9135000D02*
X13620000Y-9165000D01*
X13620000Y-9135000D02*
X13590000Y-9165000D01*
X13590000Y-9235000D02*
X13620000Y-9265000D01*
X13620000Y-9235000D02*
X13590000Y-9265000D01*
X13590000Y-9335000D02*
X13620000Y-9365000D01*
X13620000Y-9335000D02*
X13590000Y-9365000D01*
X13635000Y-7835000D02*
X13665000Y-7865000D01*
X13665000Y-7835000D02*
X13635000Y-7865000D01*
X13690000Y-8735000D02*
X13720000Y-8765000D01*
X13720000Y-8735000D02*
X13690000Y-8765000D01*
X13690000Y-8835000D02*
X13720000Y-8865000D01*
X13720000Y-8835000D02*
X13690000Y-8865000D01*
X13690000Y-8935000D02*
X13720000Y-8965000D01*
X13720000Y-8935000D02*
X13690000Y-8965000D01*
X13690000Y-9035000D02*
X13720000Y-9065000D01*
X13720000Y-9035000D02*
X13690000Y-9065000D01*
X13690000Y-9135000D02*
X13720000Y-9165000D01*
X13720000Y-9135000D02*
X13690000Y-9165000D01*
X13690000Y-9235000D02*
X13720000Y-9265000D01*
X13720000Y-9235000D02*
X13690000Y-9265000D01*
X13690000Y-9335000D02*
X13720000Y-9365000D01*
X13720000Y-9335000D02*
X13690000Y-9365000D01*
X13690000Y-9435000D02*
X13720000Y-9465000D01*
X13720000Y-9435000D02*
X13690000Y-9465000D01*
X13690000Y-9535000D02*
X13720000Y-9565000D01*
X13720000Y-9535000D02*
X13690000Y-9565000D01*
X13695000Y-6625000D02*
X13725000Y-6655000D01*
X13725000Y-6625000D02*
X13695000Y-6655000D01*
X6680000Y-5195000D02*
G75*
G02*
X6620000Y-5195000I-30000J0D01*
G01*
X6620000Y-5195000D02*
G75*
G02*
X6680000Y-5195000I30000J0D01*
G01*
X6710000Y-5165000D02*
X6590000Y-5165000D01*
X6590000Y-5225000D02*
G75*
G02*
X6590000Y-5165000I0J30000D01*
G01*
X6590000Y-5225000D02*
X6710000Y-5225000D01*
X6710000Y-5225000D02*
G75*
G03*
X6710000Y-5165000I0J30000D01*
G01*
X7880000Y-5195000D02*
G75*
G02*
X7820000Y-5195000I-30000J0D01*
G01*
X7820000Y-5195000D02*
G75*
G02*
X7880000Y-5195000I30000J0D01*
G01*
X7910000Y-5165000D02*
X7790000Y-5165000D01*
X7790000Y-5225000D02*
G75*
G02*
X7790000Y-5165000I0J30000D01*
G01*
X7790000Y-5225000D02*
X7910000Y-5225000D01*
X7910000Y-5225000D02*
G75*
G03*
X7910000Y-5165000I0J30000D01*
G01*
X10880000Y-5195000D02*
G75*
G02*
X10820000Y-5195000I-30000J0D01*
G01*
X10820000Y-5195000D02*
G75*
G02*
X10880000Y-5195000I30000J0D01*
G01*
X10910000Y-5165000D02*
X10790000Y-5165000D01*
X10790000Y-5225000D02*
G75*
G02*
X10790000Y-5165000I0J30000D01*
G01*
X10790000Y-5225000D02*
X10910000Y-5225000D01*
X10910000Y-5225000D02*
G75*
G03*
X10910000Y-5165000I0J30000D01*
G01*
X12080000Y-5195000D02*
G75*
G02*
X12020000Y-5195000I-30000J0D01*
G01*
X12020000Y-5195000D02*
G75*
G02*
X12080000Y-5195000I30000J0D01*
G01*
X12110000Y-5165000D02*
X11990000Y-5165000D01*
X11990000Y-5225000D02*
G75*
G02*
X11990000Y-5165000I0J30000D01*
G01*
X11990000Y-5225000D02*
X12110000Y-5225000D01*
X12110000Y-5225000D02*
G75*
G03*
X12110000Y-5165000I0J30000D01*
G01*
X13242500Y-6536000D02*
G75*
G02*
X13182500Y-6536000I-30000J0D01*
G01*
X13182500Y-6536000D02*
G75*
G02*
X13242500Y-6536000I30000J0D01*
G01*
X13242500Y-6506000D02*
X13182500Y-6506000D01*
X13182500Y-6566000D02*
G75*
G02*
X13182500Y-6506000I0J30000D01*
G01*
X13182500Y-6566000D02*
X13242500Y-6566000D01*
X13242500Y-6566000D02*
G75*
G03*
X13242500Y-6506000I0J30000D01*
G01*
X13242500Y-7400000D02*
G75*
G02*
X13182500Y-7400000I-30000J0D01*
G01*
X13182500Y-7400000D02*
G75*
G02*
X13242500Y-7400000I30000J0D01*
G01*
X13242500Y-7370000D02*
X13182500Y-7370000D01*
X13182500Y-7430000D02*
G75*
G02*
X13182500Y-7370000I0J30000D01*
G01*
X13182500Y-7430000D02*
X13242500Y-7430000D01*
X13242500Y-7430000D02*
G75*
G03*
X13242500Y-7370000I0J30000D01*
G01*
X13622500Y-6536000D02*
G75*
G02*
X13562500Y-6536000I-30000J0D01*
G01*
X13562500Y-6536000D02*
G75*
G02*
X13622500Y-6536000I30000J0D01*
G01*
X13622500Y-6506000D02*
X13562500Y-6506000D01*
X13562500Y-6566000D02*
G75*
G02*
X13562500Y-6506000I0J30000D01*
G01*
X13562500Y-6566000D02*
X13622500Y-6566000D01*
X13622500Y-6566000D02*
G75*
G03*
X13622500Y-6506000I0J30000D01*
G01*
X13622500Y-7400000D02*
G75*
G02*
X13562500Y-7400000I-30000J0D01*
G01*
X13562500Y-7400000D02*
G75*
G02*
X13622500Y-7400000I30000J0D01*
G01*
X13622500Y-7370000D02*
X13562500Y-7370000D01*
X13562500Y-7430000D02*
G75*
G02*
X13562500Y-7370000I0J30000D01*
G01*
X13562500Y-7430000D02*
X13622500Y-7430000D01*
X13622500Y-7430000D02*
G75*
G03*
X13622500Y-7370000I0J30000D01*
G01*
D11*
X5153277Y-10918984D02*
X5153277Y-10718984D01*
X5153277Y-10718984D02*
X5200896Y-10718984D01*
X5200896Y-10718984D02*
X5229467Y-10728508D01*
X5229467Y-10728508D02*
X5248515Y-10747555D01*
X5248515Y-10747555D02*
X5258039Y-10766603D01*
X5258039Y-10766603D02*
X5267562Y-10804698D01*
X5267562Y-10804698D02*
X5267562Y-10833270D01*
X5267562Y-10833270D02*
X5258039Y-10871365D01*
X5258039Y-10871365D02*
X5248515Y-10890412D01*
X5248515Y-10890412D02*
X5229467Y-10909460D01*
X5229467Y-10909460D02*
X5200896Y-10918984D01*
X5200896Y-10918984D02*
X5153277Y-10918984D01*
X5353277Y-10918984D02*
X5353277Y-10785650D01*
X5353277Y-10823746D02*
X5362801Y-10804698D01*
X5362801Y-10804698D02*
X5372324Y-10795174D01*
X5372324Y-10795174D02*
X5391372Y-10785650D01*
X5391372Y-10785650D02*
X5410420Y-10785650D01*
X5477086Y-10918984D02*
X5477086Y-10785650D01*
X5477086Y-10718984D02*
X5467562Y-10728508D01*
X5467562Y-10728508D02*
X5477086Y-10738031D01*
X5477086Y-10738031D02*
X5486610Y-10728508D01*
X5486610Y-10728508D02*
X5477086Y-10718984D01*
X5477086Y-10718984D02*
X5477086Y-10738031D01*
X5600896Y-10918984D02*
X5581848Y-10909460D01*
X5581848Y-10909460D02*
X5572324Y-10890412D01*
X5572324Y-10890412D02*
X5572324Y-10718984D01*
X5705658Y-10918984D02*
X5686610Y-10909460D01*
X5686610Y-10909460D02*
X5677086Y-10890412D01*
X5677086Y-10890412D02*
X5677086Y-10718984D01*
X5934229Y-10918984D02*
X5934229Y-10718984D01*
X5934229Y-10718984D02*
X6000896Y-10861841D01*
X6000896Y-10861841D02*
X6067562Y-10718984D01*
X6067562Y-10718984D02*
X6067562Y-10918984D01*
X6248515Y-10918984D02*
X6248515Y-10814222D01*
X6248515Y-10814222D02*
X6238991Y-10795174D01*
X6238991Y-10795174D02*
X6219943Y-10785650D01*
X6219943Y-10785650D02*
X6181848Y-10785650D01*
X6181848Y-10785650D02*
X6162800Y-10795174D01*
X6248515Y-10909460D02*
X6229467Y-10918984D01*
X6229467Y-10918984D02*
X6181848Y-10918984D01*
X6181848Y-10918984D02*
X6162800Y-10909460D01*
X6162800Y-10909460D02*
X6153277Y-10890412D01*
X6153277Y-10890412D02*
X6153277Y-10871365D01*
X6153277Y-10871365D02*
X6162800Y-10852317D01*
X6162800Y-10852317D02*
X6181848Y-10842793D01*
X6181848Y-10842793D02*
X6229467Y-10842793D01*
X6229467Y-10842793D02*
X6248515Y-10833270D01*
X6343753Y-10785650D02*
X6343753Y-10985650D01*
X6343753Y-10795174D02*
X6362800Y-10785650D01*
X6362800Y-10785650D02*
X6400896Y-10785650D01*
X6400896Y-10785650D02*
X6419943Y-10795174D01*
X6419943Y-10795174D02*
X6429467Y-10804698D01*
X6429467Y-10804698D02*
X6438991Y-10823746D01*
X6438991Y-10823746D02*
X6438991Y-10880889D01*
X6438991Y-10880889D02*
X6429467Y-10899936D01*
X6429467Y-10899936D02*
X6419943Y-10909460D01*
X6419943Y-10909460D02*
X6400896Y-10918984D01*
X6400896Y-10918984D02*
X6362800Y-10918984D01*
X6362800Y-10918984D02*
X6343753Y-10909460D01*
X6524705Y-10899936D02*
X6534229Y-10909460D01*
X6534229Y-10909460D02*
X6524705Y-10918984D01*
X6524705Y-10918984D02*
X6515181Y-10909460D01*
X6515181Y-10909460D02*
X6524705Y-10899936D01*
X6524705Y-10899936D02*
X6524705Y-10918984D01*
X6524705Y-10795174D02*
X6534229Y-10804698D01*
X6534229Y-10804698D02*
X6524705Y-10814222D01*
X6524705Y-10814222D02*
X6515181Y-10804698D01*
X6515181Y-10804698D02*
X6524705Y-10795174D01*
X6524705Y-10795174D02*
X6524705Y-10814222D01*
D12*
X4862500Y-11232500D02*
X4892500Y-11262500D01*
X4892500Y-11232500D02*
X4862500Y-11262500D01*
D11*
X5191372Y-11138984D02*
X5210420Y-11138984D01*
X5210420Y-11138984D02*
X5229467Y-11148508D01*
X5229467Y-11148508D02*
X5238991Y-11158031D01*
X5238991Y-11158031D02*
X5248515Y-11177079D01*
X5248515Y-11177079D02*
X5258039Y-11215174D01*
X5258039Y-11215174D02*
X5258039Y-11262793D01*
X5258039Y-11262793D02*
X5248515Y-11300888D01*
X5248515Y-11300888D02*
X5238991Y-11319936D01*
X5238991Y-11319936D02*
X5229467Y-11329460D01*
X5229467Y-11329460D02*
X5210420Y-11338984D01*
X5210420Y-11338984D02*
X5191372Y-11338984D01*
X5191372Y-11338984D02*
X5172324Y-11329460D01*
X5172324Y-11329460D02*
X5162801Y-11319936D01*
X5162801Y-11319936D02*
X5153277Y-11300888D01*
X5153277Y-11300888D02*
X5143753Y-11262793D01*
X5143753Y-11262793D02*
X5143753Y-11215174D01*
X5143753Y-11215174D02*
X5153277Y-11177079D01*
X5153277Y-11177079D02*
X5162801Y-11158031D01*
X5162801Y-11158031D02*
X5172324Y-11148508D01*
X5172324Y-11148508D02*
X5191372Y-11138984D01*
X5343753Y-11319936D02*
X5353277Y-11329460D01*
X5353277Y-11329460D02*
X5343753Y-11338984D01*
X5343753Y-11338984D02*
X5334229Y-11329460D01*
X5334229Y-11329460D02*
X5343753Y-11319936D01*
X5343753Y-11319936D02*
X5343753Y-11338984D01*
X5419943Y-11138984D02*
X5543753Y-11138984D01*
X5543753Y-11138984D02*
X5477086Y-11215174D01*
X5477086Y-11215174D02*
X5505658Y-11215174D01*
X5505658Y-11215174D02*
X5524705Y-11224698D01*
X5524705Y-11224698D02*
X5534229Y-11234222D01*
X5534229Y-11234222D02*
X5543753Y-11253269D01*
X5543753Y-11253269D02*
X5543753Y-11300888D01*
X5543753Y-11300888D02*
X5534229Y-11319936D01*
X5534229Y-11319936D02*
X5524705Y-11329460D01*
X5524705Y-11329460D02*
X5505658Y-11338984D01*
X5505658Y-11338984D02*
X5448515Y-11338984D01*
X5448515Y-11338984D02*
X5429467Y-11329460D01*
X5429467Y-11329460D02*
X5419943Y-11319936D01*
X5667562Y-11138984D02*
X5686610Y-11138984D01*
X5686610Y-11138984D02*
X5705658Y-11148508D01*
X5705658Y-11148508D02*
X5715181Y-11158031D01*
X5715181Y-11158031D02*
X5724705Y-11177079D01*
X5724705Y-11177079D02*
X5734229Y-11215174D01*
X5734229Y-11215174D02*
X5734229Y-11262793D01*
X5734229Y-11262793D02*
X5724705Y-11300888D01*
X5724705Y-11300888D02*
X5715181Y-11319936D01*
X5715181Y-11319936D02*
X5705658Y-11329460D01*
X5705658Y-11329460D02*
X5686610Y-11338984D01*
X5686610Y-11338984D02*
X5667562Y-11338984D01*
X5667562Y-11338984D02*
X5648515Y-11329460D01*
X5648515Y-11329460D02*
X5638991Y-11319936D01*
X5638991Y-11319936D02*
X5629467Y-11300888D01*
X5629467Y-11300888D02*
X5619943Y-11262793D01*
X5619943Y-11262793D02*
X5619943Y-11215174D01*
X5619943Y-11215174D02*
X5629467Y-11177079D01*
X5629467Y-11177079D02*
X5638991Y-11158031D01*
X5638991Y-11158031D02*
X5648515Y-11148508D01*
X5648515Y-11148508D02*
X5667562Y-11138984D01*
X5858039Y-11138984D02*
X5877086Y-11138984D01*
X5877086Y-11138984D02*
X5896134Y-11148508D01*
X5896134Y-11148508D02*
X5905658Y-11158031D01*
X5905658Y-11158031D02*
X5915181Y-11177079D01*
X5915181Y-11177079D02*
X5924705Y-11215174D01*
X5924705Y-11215174D02*
X5924705Y-11262793D01*
X5924705Y-11262793D02*
X5915181Y-11300888D01*
X5915181Y-11300888D02*
X5905658Y-11319936D01*
X5905658Y-11319936D02*
X5896134Y-11329460D01*
X5896134Y-11329460D02*
X5877086Y-11338984D01*
X5877086Y-11338984D02*
X5858039Y-11338984D01*
X5858039Y-11338984D02*
X5838991Y-11329460D01*
X5838991Y-11329460D02*
X5829467Y-11319936D01*
X5829467Y-11319936D02*
X5819943Y-11300888D01*
X5819943Y-11300888D02*
X5810420Y-11262793D01*
X5810420Y-11262793D02*
X5810420Y-11215174D01*
X5810420Y-11215174D02*
X5819943Y-11177079D01*
X5819943Y-11177079D02*
X5829467Y-11158031D01*
X5829467Y-11158031D02*
X5838991Y-11148508D01*
X5838991Y-11148508D02*
X5858039Y-11138984D01*
X6010420Y-11338984D02*
X6010420Y-11205650D01*
X6010420Y-11224698D02*
X6019943Y-11215174D01*
X6019943Y-11215174D02*
X6038991Y-11205650D01*
X6038991Y-11205650D02*
X6067562Y-11205650D01*
X6067562Y-11205650D02*
X6086610Y-11215174D01*
X6086610Y-11215174D02*
X6096134Y-11234222D01*
X6096134Y-11234222D02*
X6096134Y-11338984D01*
X6096134Y-11234222D02*
X6105658Y-11215174D01*
X6105658Y-11215174D02*
X6124705Y-11205650D01*
X6124705Y-11205650D02*
X6153277Y-11205650D01*
X6153277Y-11205650D02*
X6172324Y-11215174D01*
X6172324Y-11215174D02*
X6181848Y-11234222D01*
X6181848Y-11234222D02*
X6181848Y-11338984D01*
X6277086Y-11338984D02*
X6277086Y-11205650D01*
X6277086Y-11224698D02*
X6286610Y-11215174D01*
X6286610Y-11215174D02*
X6305658Y-11205650D01*
X6305658Y-11205650D02*
X6334229Y-11205650D01*
X6334229Y-11205650D02*
X6353277Y-11215174D01*
X6353277Y-11215174D02*
X6362801Y-11234222D01*
X6362801Y-11234222D02*
X6362801Y-11338984D01*
X6362801Y-11234222D02*
X6372324Y-11215174D01*
X6372324Y-11215174D02*
X6391372Y-11205650D01*
X6391372Y-11205650D02*
X6419943Y-11205650D01*
X6419943Y-11205650D02*
X6438991Y-11215174D01*
X6438991Y-11215174D02*
X6448515Y-11234222D01*
X6448515Y-11234222D02*
X6448515Y-11338984D01*
X6838991Y-11129460D02*
X6667563Y-11386603D01*
X7096134Y-11138984D02*
X7115182Y-11138984D01*
X7115182Y-11138984D02*
X7134229Y-11148508D01*
X7134229Y-11148508D02*
X7143753Y-11158031D01*
X7143753Y-11158031D02*
X7153277Y-11177079D01*
X7153277Y-11177079D02*
X7162801Y-11215174D01*
X7162801Y-11215174D02*
X7162801Y-11262793D01*
X7162801Y-11262793D02*
X7153277Y-11300888D01*
X7153277Y-11300888D02*
X7143753Y-11319936D01*
X7143753Y-11319936D02*
X7134229Y-11329460D01*
X7134229Y-11329460D02*
X7115182Y-11338984D01*
X7115182Y-11338984D02*
X7096134Y-11338984D01*
X7096134Y-11338984D02*
X7077086Y-11329460D01*
X7077086Y-11329460D02*
X7067563Y-11319936D01*
X7067563Y-11319936D02*
X7058039Y-11300888D01*
X7058039Y-11300888D02*
X7048515Y-11262793D01*
X7048515Y-11262793D02*
X7048515Y-11215174D01*
X7048515Y-11215174D02*
X7058039Y-11177079D01*
X7058039Y-11177079D02*
X7067563Y-11158031D01*
X7067563Y-11158031D02*
X7077086Y-11148508D01*
X7077086Y-11148508D02*
X7096134Y-11138984D01*
X7248515Y-11319936D02*
X7258039Y-11329460D01*
X7258039Y-11329460D02*
X7248515Y-11338984D01*
X7248515Y-11338984D02*
X7238991Y-11329460D01*
X7238991Y-11329460D02*
X7248515Y-11319936D01*
X7248515Y-11319936D02*
X7248515Y-11338984D01*
X7381848Y-11138984D02*
X7400896Y-11138984D01*
X7400896Y-11138984D02*
X7419944Y-11148508D01*
X7419944Y-11148508D02*
X7429467Y-11158031D01*
X7429467Y-11158031D02*
X7438991Y-11177079D01*
X7438991Y-11177079D02*
X7448515Y-11215174D01*
X7448515Y-11215174D02*
X7448515Y-11262793D01*
X7448515Y-11262793D02*
X7438991Y-11300888D01*
X7438991Y-11300888D02*
X7429467Y-11319936D01*
X7429467Y-11319936D02*
X7419944Y-11329460D01*
X7419944Y-11329460D02*
X7400896Y-11338984D01*
X7400896Y-11338984D02*
X7381848Y-11338984D01*
X7381848Y-11338984D02*
X7362801Y-11329460D01*
X7362801Y-11329460D02*
X7353277Y-11319936D01*
X7353277Y-11319936D02*
X7343753Y-11300888D01*
X7343753Y-11300888D02*
X7334229Y-11262793D01*
X7334229Y-11262793D02*
X7334229Y-11215174D01*
X7334229Y-11215174D02*
X7343753Y-11177079D01*
X7343753Y-11177079D02*
X7353277Y-11158031D01*
X7353277Y-11158031D02*
X7362801Y-11148508D01*
X7362801Y-11148508D02*
X7381848Y-11138984D01*
X7638991Y-11338984D02*
X7524705Y-11338984D01*
X7581848Y-11338984D02*
X7581848Y-11138984D01*
X7581848Y-11138984D02*
X7562801Y-11167555D01*
X7562801Y-11167555D02*
X7543753Y-11186603D01*
X7543753Y-11186603D02*
X7524705Y-11196127D01*
X7829467Y-11338984D02*
X7715182Y-11338984D01*
X7772324Y-11338984D02*
X7772324Y-11138984D01*
X7772324Y-11138984D02*
X7753277Y-11167555D01*
X7753277Y-11167555D02*
X7734229Y-11186603D01*
X7734229Y-11186603D02*
X7715182Y-11196127D01*
X7943753Y-11224698D02*
X7924705Y-11215174D01*
X7924705Y-11215174D02*
X7915182Y-11205650D01*
X7915182Y-11205650D02*
X7905658Y-11186603D01*
X7905658Y-11186603D02*
X7905658Y-11177079D01*
X7905658Y-11177079D02*
X7915182Y-11158031D01*
X7915182Y-11158031D02*
X7924705Y-11148508D01*
X7924705Y-11148508D02*
X7943753Y-11138984D01*
X7943753Y-11138984D02*
X7981848Y-11138984D01*
X7981848Y-11138984D02*
X8000896Y-11148508D01*
X8000896Y-11148508D02*
X8010420Y-11158031D01*
X8010420Y-11158031D02*
X8019944Y-11177079D01*
X8019944Y-11177079D02*
X8019944Y-11186603D01*
X8019944Y-11186603D02*
X8010420Y-11205650D01*
X8010420Y-11205650D02*
X8000896Y-11215174D01*
X8000896Y-11215174D02*
X7981848Y-11224698D01*
X7981848Y-11224698D02*
X7943753Y-11224698D01*
X7943753Y-11224698D02*
X7924705Y-11234222D01*
X7924705Y-11234222D02*
X7915182Y-11243746D01*
X7915182Y-11243746D02*
X7905658Y-11262793D01*
X7905658Y-11262793D02*
X7905658Y-11300888D01*
X7905658Y-11300888D02*
X7915182Y-11319936D01*
X7915182Y-11319936D02*
X7924705Y-11329460D01*
X7924705Y-11329460D02*
X7943753Y-11338984D01*
X7943753Y-11338984D02*
X7981848Y-11338984D01*
X7981848Y-11338984D02*
X8000896Y-11329460D01*
X8000896Y-11329460D02*
X8010420Y-11319936D01*
X8010420Y-11319936D02*
X8019944Y-11300888D01*
X8019944Y-11300888D02*
X8019944Y-11262793D01*
X8019944Y-11262793D02*
X8010420Y-11243746D01*
X8010420Y-11243746D02*
X8000896Y-11234222D01*
X8000896Y-11234222D02*
X7981848Y-11224698D01*
X8096134Y-11138984D02*
X8096134Y-11177079D01*
X8172325Y-11138984D02*
X8172325Y-11177079D01*
X8467563Y-11415174D02*
X8458039Y-11405650D01*
X8458039Y-11405650D02*
X8438991Y-11377079D01*
X8438991Y-11377079D02*
X8429468Y-11358031D01*
X8429468Y-11358031D02*
X8419944Y-11329460D01*
X8419944Y-11329460D02*
X8410420Y-11281841D01*
X8410420Y-11281841D02*
X8410420Y-11243746D01*
X8410420Y-11243746D02*
X8419944Y-11196127D01*
X8419944Y-11196127D02*
X8429468Y-11167555D01*
X8429468Y-11167555D02*
X8438991Y-11148508D01*
X8438991Y-11148508D02*
X8458039Y-11119936D01*
X8458039Y-11119936D02*
X8467563Y-11110412D01*
X8534229Y-11158031D02*
X8543753Y-11148508D01*
X8543753Y-11148508D02*
X8562801Y-11138984D01*
X8562801Y-11138984D02*
X8610420Y-11138984D01*
X8610420Y-11138984D02*
X8629468Y-11148508D01*
X8629468Y-11148508D02*
X8638991Y-11158031D01*
X8638991Y-11158031D02*
X8648515Y-11177079D01*
X8648515Y-11177079D02*
X8648515Y-11196127D01*
X8648515Y-11196127D02*
X8638991Y-11224698D01*
X8638991Y-11224698D02*
X8524706Y-11338984D01*
X8524706Y-11338984D02*
X8648515Y-11338984D01*
X8838991Y-11338984D02*
X8724706Y-11338984D01*
X8781848Y-11338984D02*
X8781848Y-11138984D01*
X8781848Y-11138984D02*
X8762801Y-11167555D01*
X8762801Y-11167555D02*
X8743753Y-11186603D01*
X8743753Y-11186603D02*
X8724706Y-11196127D01*
X8962801Y-11138984D02*
X8981849Y-11138984D01*
X8981849Y-11138984D02*
X9000896Y-11148508D01*
X9000896Y-11148508D02*
X9010420Y-11158031D01*
X9010420Y-11158031D02*
X9019944Y-11177079D01*
X9019944Y-11177079D02*
X9029468Y-11215174D01*
X9029468Y-11215174D02*
X9029468Y-11262793D01*
X9029468Y-11262793D02*
X9019944Y-11300888D01*
X9019944Y-11300888D02*
X9010420Y-11319936D01*
X9010420Y-11319936D02*
X9000896Y-11329460D01*
X9000896Y-11329460D02*
X8981849Y-11338984D01*
X8981849Y-11338984D02*
X8962801Y-11338984D01*
X8962801Y-11338984D02*
X8943753Y-11329460D01*
X8943753Y-11329460D02*
X8934229Y-11319936D01*
X8934229Y-11319936D02*
X8924706Y-11300888D01*
X8924706Y-11300888D02*
X8915182Y-11262793D01*
X8915182Y-11262793D02*
X8915182Y-11215174D01*
X8915182Y-11215174D02*
X8924706Y-11177079D01*
X8924706Y-11177079D02*
X8934229Y-11158031D01*
X8934229Y-11158031D02*
X8943753Y-11148508D01*
X8943753Y-11148508D02*
X8962801Y-11138984D01*
X9267563Y-11338984D02*
X9267563Y-11138984D01*
X9353277Y-11338984D02*
X9353277Y-11234222D01*
X9353277Y-11234222D02*
X9343753Y-11215174D01*
X9343753Y-11215174D02*
X9324706Y-11205650D01*
X9324706Y-11205650D02*
X9296134Y-11205650D01*
X9296134Y-11205650D02*
X9277087Y-11215174D01*
X9277087Y-11215174D02*
X9267563Y-11224698D01*
X9477087Y-11338984D02*
X9458039Y-11329460D01*
X9458039Y-11329460D02*
X9448515Y-11319936D01*
X9448515Y-11319936D02*
X9438991Y-11300888D01*
X9438991Y-11300888D02*
X9438991Y-11243746D01*
X9438991Y-11243746D02*
X9448515Y-11224698D01*
X9448515Y-11224698D02*
X9458039Y-11215174D01*
X9458039Y-11215174D02*
X9477087Y-11205650D01*
X9477087Y-11205650D02*
X9505658Y-11205650D01*
X9505658Y-11205650D02*
X9524706Y-11215174D01*
X9524706Y-11215174D02*
X9534230Y-11224698D01*
X9534230Y-11224698D02*
X9543753Y-11243746D01*
X9543753Y-11243746D02*
X9543753Y-11300888D01*
X9543753Y-11300888D02*
X9534230Y-11319936D01*
X9534230Y-11319936D02*
X9524706Y-11329460D01*
X9524706Y-11329460D02*
X9505658Y-11338984D01*
X9505658Y-11338984D02*
X9477087Y-11338984D01*
X9658039Y-11338984D02*
X9638991Y-11329460D01*
X9638991Y-11329460D02*
X9629468Y-11310412D01*
X9629468Y-11310412D02*
X9629468Y-11138984D01*
X9810420Y-11329460D02*
X9791372Y-11338984D01*
X9791372Y-11338984D02*
X9753277Y-11338984D01*
X9753277Y-11338984D02*
X9734230Y-11329460D01*
X9734230Y-11329460D02*
X9724706Y-11310412D01*
X9724706Y-11310412D02*
X9724706Y-11234222D01*
X9724706Y-11234222D02*
X9734230Y-11215174D01*
X9734230Y-11215174D02*
X9753277Y-11205650D01*
X9753277Y-11205650D02*
X9791372Y-11205650D01*
X9791372Y-11205650D02*
X9810420Y-11215174D01*
X9810420Y-11215174D02*
X9819944Y-11234222D01*
X9819944Y-11234222D02*
X9819944Y-11253269D01*
X9819944Y-11253269D02*
X9724706Y-11272317D01*
X9896134Y-11329460D02*
X9915182Y-11338984D01*
X9915182Y-11338984D02*
X9953277Y-11338984D01*
X9953277Y-11338984D02*
X9972325Y-11329460D01*
X9972325Y-11329460D02*
X9981849Y-11310412D01*
X9981849Y-11310412D02*
X9981849Y-11300888D01*
X9981849Y-11300888D02*
X9972325Y-11281841D01*
X9972325Y-11281841D02*
X9953277Y-11272317D01*
X9953277Y-11272317D02*
X9924706Y-11272317D01*
X9924706Y-11272317D02*
X9905658Y-11262793D01*
X9905658Y-11262793D02*
X9896134Y-11243746D01*
X9896134Y-11243746D02*
X9896134Y-11234222D01*
X9896134Y-11234222D02*
X9905658Y-11215174D01*
X9905658Y-11215174D02*
X9924706Y-11205650D01*
X9924706Y-11205650D02*
X9953277Y-11205650D01*
X9953277Y-11205650D02*
X9972325Y-11215174D01*
X10048515Y-11415174D02*
X10058039Y-11405650D01*
X10058039Y-11405650D02*
X10077087Y-11377079D01*
X10077087Y-11377079D02*
X10086611Y-11358031D01*
X10086611Y-11358031D02*
X10096134Y-11329460D01*
X10096134Y-11329460D02*
X10105658Y-11281841D01*
X10105658Y-11281841D02*
X10105658Y-11243746D01*
X10105658Y-11243746D02*
X10096134Y-11196127D01*
X10096134Y-11196127D02*
X10086611Y-11167555D01*
X10086611Y-11167555D02*
X10077087Y-11148508D01*
X10077087Y-11148508D02*
X10058039Y-11119936D01*
X10058039Y-11119936D02*
X10048515Y-11110412D01*
D12*
X4892500Y-11511500D02*
G75*
G02*
X4832500Y-11511500I-30000J0D01*
G01*
X4832500Y-11511500D02*
G75*
G02*
X4892500Y-11511500I30000J0D01*
G01*
D11*
X5191372Y-11402984D02*
X5210420Y-11402984D01*
X5210420Y-11402984D02*
X5229467Y-11412508D01*
X5229467Y-11412508D02*
X5238991Y-11422031D01*
X5238991Y-11422031D02*
X5248515Y-11441079D01*
X5248515Y-11441079D02*
X5258039Y-11479174D01*
X5258039Y-11479174D02*
X5258039Y-11526793D01*
X5258039Y-11526793D02*
X5248515Y-11564888D01*
X5248515Y-11564888D02*
X5238991Y-11583936D01*
X5238991Y-11583936D02*
X5229467Y-11593460D01*
X5229467Y-11593460D02*
X5210420Y-11602984D01*
X5210420Y-11602984D02*
X5191372Y-11602984D01*
X5191372Y-11602984D02*
X5172324Y-11593460D01*
X5172324Y-11593460D02*
X5162801Y-11583936D01*
X5162801Y-11583936D02*
X5153277Y-11564888D01*
X5153277Y-11564888D02*
X5143753Y-11526793D01*
X5143753Y-11526793D02*
X5143753Y-11479174D01*
X5143753Y-11479174D02*
X5153277Y-11441079D01*
X5153277Y-11441079D02*
X5162801Y-11422031D01*
X5162801Y-11422031D02*
X5172324Y-11412508D01*
X5172324Y-11412508D02*
X5191372Y-11402984D01*
X5343753Y-11583936D02*
X5353277Y-11593460D01*
X5353277Y-11593460D02*
X5343753Y-11602984D01*
X5343753Y-11602984D02*
X5334229Y-11593460D01*
X5334229Y-11593460D02*
X5343753Y-11583936D01*
X5343753Y-11583936D02*
X5343753Y-11602984D01*
X5524705Y-11402984D02*
X5486610Y-11402984D01*
X5486610Y-11402984D02*
X5467562Y-11412508D01*
X5467562Y-11412508D02*
X5458039Y-11422031D01*
X5458039Y-11422031D02*
X5438991Y-11450603D01*
X5438991Y-11450603D02*
X5429467Y-11488698D01*
X5429467Y-11488698D02*
X5429467Y-11564888D01*
X5429467Y-11564888D02*
X5438991Y-11583936D01*
X5438991Y-11583936D02*
X5448515Y-11593460D01*
X5448515Y-11593460D02*
X5467562Y-11602984D01*
X5467562Y-11602984D02*
X5505658Y-11602984D01*
X5505658Y-11602984D02*
X5524705Y-11593460D01*
X5524705Y-11593460D02*
X5534229Y-11583936D01*
X5534229Y-11583936D02*
X5543753Y-11564888D01*
X5543753Y-11564888D02*
X5543753Y-11517269D01*
X5543753Y-11517269D02*
X5534229Y-11498222D01*
X5534229Y-11498222D02*
X5524705Y-11488698D01*
X5524705Y-11488698D02*
X5505658Y-11479174D01*
X5505658Y-11479174D02*
X5467562Y-11479174D01*
X5467562Y-11479174D02*
X5448515Y-11488698D01*
X5448515Y-11488698D02*
X5438991Y-11498222D01*
X5438991Y-11498222D02*
X5429467Y-11517269D01*
X5667562Y-11402984D02*
X5686610Y-11402984D01*
X5686610Y-11402984D02*
X5705658Y-11412508D01*
X5705658Y-11412508D02*
X5715181Y-11422031D01*
X5715181Y-11422031D02*
X5724705Y-11441079D01*
X5724705Y-11441079D02*
X5734229Y-11479174D01*
X5734229Y-11479174D02*
X5734229Y-11526793D01*
X5734229Y-11526793D02*
X5724705Y-11564888D01*
X5724705Y-11564888D02*
X5715181Y-11583936D01*
X5715181Y-11583936D02*
X5705658Y-11593460D01*
X5705658Y-11593460D02*
X5686610Y-11602984D01*
X5686610Y-11602984D02*
X5667562Y-11602984D01*
X5667562Y-11602984D02*
X5648515Y-11593460D01*
X5648515Y-11593460D02*
X5638991Y-11583936D01*
X5638991Y-11583936D02*
X5629467Y-11564888D01*
X5629467Y-11564888D02*
X5619943Y-11526793D01*
X5619943Y-11526793D02*
X5619943Y-11479174D01*
X5619943Y-11479174D02*
X5629467Y-11441079D01*
X5629467Y-11441079D02*
X5638991Y-11422031D01*
X5638991Y-11422031D02*
X5648515Y-11412508D01*
X5648515Y-11412508D02*
X5667562Y-11402984D01*
X5858039Y-11402984D02*
X5877086Y-11402984D01*
X5877086Y-11402984D02*
X5896134Y-11412508D01*
X5896134Y-11412508D02*
X5905658Y-11422031D01*
X5905658Y-11422031D02*
X5915181Y-11441079D01*
X5915181Y-11441079D02*
X5924705Y-11479174D01*
X5924705Y-11479174D02*
X5924705Y-11526793D01*
X5924705Y-11526793D02*
X5915181Y-11564888D01*
X5915181Y-11564888D02*
X5905658Y-11583936D01*
X5905658Y-11583936D02*
X5896134Y-11593460D01*
X5896134Y-11593460D02*
X5877086Y-11602984D01*
X5877086Y-11602984D02*
X5858039Y-11602984D01*
X5858039Y-11602984D02*
X5838991Y-11593460D01*
X5838991Y-11593460D02*
X5829467Y-11583936D01*
X5829467Y-11583936D02*
X5819943Y-11564888D01*
X5819943Y-11564888D02*
X5810420Y-11526793D01*
X5810420Y-11526793D02*
X5810420Y-11479174D01*
X5810420Y-11479174D02*
X5819943Y-11441079D01*
X5819943Y-11441079D02*
X5829467Y-11422031D01*
X5829467Y-11422031D02*
X5838991Y-11412508D01*
X5838991Y-11412508D02*
X5858039Y-11402984D01*
X6010420Y-11602984D02*
X6010420Y-11469650D01*
X6010420Y-11488698D02*
X6019943Y-11479174D01*
X6019943Y-11479174D02*
X6038991Y-11469650D01*
X6038991Y-11469650D02*
X6067562Y-11469650D01*
X6067562Y-11469650D02*
X6086610Y-11479174D01*
X6086610Y-11479174D02*
X6096134Y-11498222D01*
X6096134Y-11498222D02*
X6096134Y-11602984D01*
X6096134Y-11498222D02*
X6105658Y-11479174D01*
X6105658Y-11479174D02*
X6124705Y-11469650D01*
X6124705Y-11469650D02*
X6153277Y-11469650D01*
X6153277Y-11469650D02*
X6172324Y-11479174D01*
X6172324Y-11479174D02*
X6181848Y-11498222D01*
X6181848Y-11498222D02*
X6181848Y-11602984D01*
X6277086Y-11602984D02*
X6277086Y-11469650D01*
X6277086Y-11488698D02*
X6286610Y-11479174D01*
X6286610Y-11479174D02*
X6305658Y-11469650D01*
X6305658Y-11469650D02*
X6334229Y-11469650D01*
X6334229Y-11469650D02*
X6353277Y-11479174D01*
X6353277Y-11479174D02*
X6362801Y-11498222D01*
X6362801Y-11498222D02*
X6362801Y-11602984D01*
X6362801Y-11498222D02*
X6372324Y-11479174D01*
X6372324Y-11479174D02*
X6391372Y-11469650D01*
X6391372Y-11469650D02*
X6419943Y-11469650D01*
X6419943Y-11469650D02*
X6438991Y-11479174D01*
X6438991Y-11479174D02*
X6448515Y-11498222D01*
X6448515Y-11498222D02*
X6448515Y-11602984D01*
X6838991Y-11393460D02*
X6667563Y-11650603D01*
X7096134Y-11402984D02*
X7115182Y-11402984D01*
X7115182Y-11402984D02*
X7134229Y-11412508D01*
X7134229Y-11412508D02*
X7143753Y-11422031D01*
X7143753Y-11422031D02*
X7153277Y-11441079D01*
X7153277Y-11441079D02*
X7162801Y-11479174D01*
X7162801Y-11479174D02*
X7162801Y-11526793D01*
X7162801Y-11526793D02*
X7153277Y-11564888D01*
X7153277Y-11564888D02*
X7143753Y-11583936D01*
X7143753Y-11583936D02*
X7134229Y-11593460D01*
X7134229Y-11593460D02*
X7115182Y-11602984D01*
X7115182Y-11602984D02*
X7096134Y-11602984D01*
X7096134Y-11602984D02*
X7077086Y-11593460D01*
X7077086Y-11593460D02*
X7067563Y-11583936D01*
X7067563Y-11583936D02*
X7058039Y-11564888D01*
X7058039Y-11564888D02*
X7048515Y-11526793D01*
X7048515Y-11526793D02*
X7048515Y-11479174D01*
X7048515Y-11479174D02*
X7058039Y-11441079D01*
X7058039Y-11441079D02*
X7067563Y-11422031D01*
X7067563Y-11422031D02*
X7077086Y-11412508D01*
X7077086Y-11412508D02*
X7096134Y-11402984D01*
X7248515Y-11583936D02*
X7258039Y-11593460D01*
X7258039Y-11593460D02*
X7248515Y-11602984D01*
X7248515Y-11602984D02*
X7238991Y-11593460D01*
X7238991Y-11593460D02*
X7248515Y-11583936D01*
X7248515Y-11583936D02*
X7248515Y-11602984D01*
X7381848Y-11402984D02*
X7400896Y-11402984D01*
X7400896Y-11402984D02*
X7419944Y-11412508D01*
X7419944Y-11412508D02*
X7429467Y-11422031D01*
X7429467Y-11422031D02*
X7438991Y-11441079D01*
X7438991Y-11441079D02*
X7448515Y-11479174D01*
X7448515Y-11479174D02*
X7448515Y-11526793D01*
X7448515Y-11526793D02*
X7438991Y-11564888D01*
X7438991Y-11564888D02*
X7429467Y-11583936D01*
X7429467Y-11583936D02*
X7419944Y-11593460D01*
X7419944Y-11593460D02*
X7400896Y-11602984D01*
X7400896Y-11602984D02*
X7381848Y-11602984D01*
X7381848Y-11602984D02*
X7362801Y-11593460D01*
X7362801Y-11593460D02*
X7353277Y-11583936D01*
X7353277Y-11583936D02*
X7343753Y-11564888D01*
X7343753Y-11564888D02*
X7334229Y-11526793D01*
X7334229Y-11526793D02*
X7334229Y-11479174D01*
X7334229Y-11479174D02*
X7343753Y-11441079D01*
X7343753Y-11441079D02*
X7353277Y-11422031D01*
X7353277Y-11422031D02*
X7362801Y-11412508D01*
X7362801Y-11412508D02*
X7381848Y-11402984D01*
X7524705Y-11422031D02*
X7534229Y-11412508D01*
X7534229Y-11412508D02*
X7553277Y-11402984D01*
X7553277Y-11402984D02*
X7600896Y-11402984D01*
X7600896Y-11402984D02*
X7619944Y-11412508D01*
X7619944Y-11412508D02*
X7629467Y-11422031D01*
X7629467Y-11422031D02*
X7638991Y-11441079D01*
X7638991Y-11441079D02*
X7638991Y-11460127D01*
X7638991Y-11460127D02*
X7629467Y-11488698D01*
X7629467Y-11488698D02*
X7515182Y-11602984D01*
X7515182Y-11602984D02*
X7638991Y-11602984D01*
X7705658Y-11402984D02*
X7829467Y-11402984D01*
X7829467Y-11402984D02*
X7762801Y-11479174D01*
X7762801Y-11479174D02*
X7791372Y-11479174D01*
X7791372Y-11479174D02*
X7810420Y-11488698D01*
X7810420Y-11488698D02*
X7819944Y-11498222D01*
X7819944Y-11498222D02*
X7829467Y-11517269D01*
X7829467Y-11517269D02*
X7829467Y-11564888D01*
X7829467Y-11564888D02*
X7819944Y-11583936D01*
X7819944Y-11583936D02*
X7810420Y-11593460D01*
X7810420Y-11593460D02*
X7791372Y-11602984D01*
X7791372Y-11602984D02*
X7734229Y-11602984D01*
X7734229Y-11602984D02*
X7715182Y-11593460D01*
X7715182Y-11593460D02*
X7705658Y-11583936D01*
X8000896Y-11402984D02*
X7962801Y-11402984D01*
X7962801Y-11402984D02*
X7943753Y-11412508D01*
X7943753Y-11412508D02*
X7934229Y-11422031D01*
X7934229Y-11422031D02*
X7915182Y-11450603D01*
X7915182Y-11450603D02*
X7905658Y-11488698D01*
X7905658Y-11488698D02*
X7905658Y-11564888D01*
X7905658Y-11564888D02*
X7915182Y-11583936D01*
X7915182Y-11583936D02*
X7924705Y-11593460D01*
X7924705Y-11593460D02*
X7943753Y-11602984D01*
X7943753Y-11602984D02*
X7981848Y-11602984D01*
X7981848Y-11602984D02*
X8000896Y-11593460D01*
X8000896Y-11593460D02*
X8010420Y-11583936D01*
X8010420Y-11583936D02*
X8019944Y-11564888D01*
X8019944Y-11564888D02*
X8019944Y-11517269D01*
X8019944Y-11517269D02*
X8010420Y-11498222D01*
X8010420Y-11498222D02*
X8000896Y-11488698D01*
X8000896Y-11488698D02*
X7981848Y-11479174D01*
X7981848Y-11479174D02*
X7943753Y-11479174D01*
X7943753Y-11479174D02*
X7924705Y-11488698D01*
X7924705Y-11488698D02*
X7915182Y-11498222D01*
X7915182Y-11498222D02*
X7905658Y-11517269D01*
X8096134Y-11402984D02*
X8096134Y-11441079D01*
X8172325Y-11402984D02*
X8172325Y-11441079D01*
X8467563Y-11679174D02*
X8458039Y-11669650D01*
X8458039Y-11669650D02*
X8438991Y-11641079D01*
X8438991Y-11641079D02*
X8429468Y-11622031D01*
X8429468Y-11622031D02*
X8419944Y-11593460D01*
X8419944Y-11593460D02*
X8410420Y-11545841D01*
X8410420Y-11545841D02*
X8410420Y-11507746D01*
X8410420Y-11507746D02*
X8419944Y-11460127D01*
X8419944Y-11460127D02*
X8429468Y-11431555D01*
X8429468Y-11431555D02*
X8438991Y-11412508D01*
X8438991Y-11412508D02*
X8458039Y-11383936D01*
X8458039Y-11383936D02*
X8467563Y-11374412D01*
X8581848Y-11402984D02*
X8600896Y-11402984D01*
X8600896Y-11402984D02*
X8619944Y-11412508D01*
X8619944Y-11412508D02*
X8629468Y-11422031D01*
X8629468Y-11422031D02*
X8638991Y-11441079D01*
X8638991Y-11441079D02*
X8648515Y-11479174D01*
X8648515Y-11479174D02*
X8648515Y-11526793D01*
X8648515Y-11526793D02*
X8638991Y-11564888D01*
X8638991Y-11564888D02*
X8629468Y-11583936D01*
X8629468Y-11583936D02*
X8619944Y-11593460D01*
X8619944Y-11593460D02*
X8600896Y-11602984D01*
X8600896Y-11602984D02*
X8581848Y-11602984D01*
X8581848Y-11602984D02*
X8562801Y-11593460D01*
X8562801Y-11593460D02*
X8553277Y-11583936D01*
X8553277Y-11583936D02*
X8543753Y-11564888D01*
X8543753Y-11564888D02*
X8534229Y-11526793D01*
X8534229Y-11526793D02*
X8534229Y-11479174D01*
X8534229Y-11479174D02*
X8543753Y-11441079D01*
X8543753Y-11441079D02*
X8553277Y-11422031D01*
X8553277Y-11422031D02*
X8562801Y-11412508D01*
X8562801Y-11412508D02*
X8581848Y-11402984D01*
X8886610Y-11602984D02*
X8886610Y-11402984D01*
X8972325Y-11602984D02*
X8972325Y-11498222D01*
X8972325Y-11498222D02*
X8962801Y-11479174D01*
X8962801Y-11479174D02*
X8943753Y-11469650D01*
X8943753Y-11469650D02*
X8915182Y-11469650D01*
X8915182Y-11469650D02*
X8896134Y-11479174D01*
X8896134Y-11479174D02*
X8886610Y-11488698D01*
X9096134Y-11602984D02*
X9077087Y-11593460D01*
X9077087Y-11593460D02*
X9067563Y-11583936D01*
X9067563Y-11583936D02*
X9058039Y-11564888D01*
X9058039Y-11564888D02*
X9058039Y-11507746D01*
X9058039Y-11507746D02*
X9067563Y-11488698D01*
X9067563Y-11488698D02*
X9077087Y-11479174D01*
X9077087Y-11479174D02*
X9096134Y-11469650D01*
X9096134Y-11469650D02*
X9124706Y-11469650D01*
X9124706Y-11469650D02*
X9143753Y-11479174D01*
X9143753Y-11479174D02*
X9153277Y-11488698D01*
X9153277Y-11488698D02*
X9162801Y-11507746D01*
X9162801Y-11507746D02*
X9162801Y-11564888D01*
X9162801Y-11564888D02*
X9153277Y-11583936D01*
X9153277Y-11583936D02*
X9143753Y-11593460D01*
X9143753Y-11593460D02*
X9124706Y-11602984D01*
X9124706Y-11602984D02*
X9096134Y-11602984D01*
X9277087Y-11602984D02*
X9258039Y-11593460D01*
X9258039Y-11593460D02*
X9248515Y-11574412D01*
X9248515Y-11574412D02*
X9248515Y-11402984D01*
X9429468Y-11593460D02*
X9410420Y-11602984D01*
X9410420Y-11602984D02*
X9372325Y-11602984D01*
X9372325Y-11602984D02*
X9353277Y-11593460D01*
X9353277Y-11593460D02*
X9343753Y-11574412D01*
X9343753Y-11574412D02*
X9343753Y-11498222D01*
X9343753Y-11498222D02*
X9353277Y-11479174D01*
X9353277Y-11479174D02*
X9372325Y-11469650D01*
X9372325Y-11469650D02*
X9410420Y-11469650D01*
X9410420Y-11469650D02*
X9429468Y-11479174D01*
X9429468Y-11479174D02*
X9438991Y-11498222D01*
X9438991Y-11498222D02*
X9438991Y-11517269D01*
X9438991Y-11517269D02*
X9343753Y-11536317D01*
X9515182Y-11593460D02*
X9534230Y-11602984D01*
X9534230Y-11602984D02*
X9572325Y-11602984D01*
X9572325Y-11602984D02*
X9591372Y-11593460D01*
X9591372Y-11593460D02*
X9600896Y-11574412D01*
X9600896Y-11574412D02*
X9600896Y-11564888D01*
X9600896Y-11564888D02*
X9591372Y-11545841D01*
X9591372Y-11545841D02*
X9572325Y-11536317D01*
X9572325Y-11536317D02*
X9543753Y-11536317D01*
X9543753Y-11536317D02*
X9524706Y-11526793D01*
X9524706Y-11526793D02*
X9515182Y-11507746D01*
X9515182Y-11507746D02*
X9515182Y-11498222D01*
X9515182Y-11498222D02*
X9524706Y-11479174D01*
X9524706Y-11479174D02*
X9543753Y-11469650D01*
X9543753Y-11469650D02*
X9572325Y-11469650D01*
X9572325Y-11469650D02*
X9591372Y-11479174D01*
X9838992Y-11526793D02*
X9991373Y-11526793D01*
X9915182Y-11602984D02*
X9915182Y-11450603D01*
X10267563Y-11488698D02*
X10248515Y-11479174D01*
X10248515Y-11479174D02*
X10238992Y-11469650D01*
X10238992Y-11469650D02*
X10229468Y-11450603D01*
X10229468Y-11450603D02*
X10229468Y-11441079D01*
X10229468Y-11441079D02*
X10238992Y-11422031D01*
X10238992Y-11422031D02*
X10248515Y-11412508D01*
X10248515Y-11412508D02*
X10267563Y-11402984D01*
X10267563Y-11402984D02*
X10305658Y-11402984D01*
X10305658Y-11402984D02*
X10324706Y-11412508D01*
X10324706Y-11412508D02*
X10334230Y-11422031D01*
X10334230Y-11422031D02*
X10343753Y-11441079D01*
X10343753Y-11441079D02*
X10343753Y-11450603D01*
X10343753Y-11450603D02*
X10334230Y-11469650D01*
X10334230Y-11469650D02*
X10324706Y-11479174D01*
X10324706Y-11479174D02*
X10305658Y-11488698D01*
X10305658Y-11488698D02*
X10267563Y-11488698D01*
X10267563Y-11488698D02*
X10248515Y-11498222D01*
X10248515Y-11498222D02*
X10238992Y-11507746D01*
X10238992Y-11507746D02*
X10229468Y-11526793D01*
X10229468Y-11526793D02*
X10229468Y-11564888D01*
X10229468Y-11564888D02*
X10238992Y-11583936D01*
X10238992Y-11583936D02*
X10248515Y-11593460D01*
X10248515Y-11593460D02*
X10267563Y-11602984D01*
X10267563Y-11602984D02*
X10305658Y-11602984D01*
X10305658Y-11602984D02*
X10324706Y-11593460D01*
X10324706Y-11593460D02*
X10334230Y-11583936D01*
X10334230Y-11583936D02*
X10343753Y-11564888D01*
X10343753Y-11564888D02*
X10343753Y-11526793D01*
X10343753Y-11526793D02*
X10334230Y-11507746D01*
X10334230Y-11507746D02*
X10324706Y-11498222D01*
X10324706Y-11498222D02*
X10305658Y-11488698D01*
X10572325Y-11593460D02*
X10591373Y-11602984D01*
X10591373Y-11602984D02*
X10629468Y-11602984D01*
X10629468Y-11602984D02*
X10648515Y-11593460D01*
X10648515Y-11593460D02*
X10658039Y-11574412D01*
X10658039Y-11574412D02*
X10658039Y-11564888D01*
X10658039Y-11564888D02*
X10648515Y-11545841D01*
X10648515Y-11545841D02*
X10629468Y-11536317D01*
X10629468Y-11536317D02*
X10600896Y-11536317D01*
X10600896Y-11536317D02*
X10581849Y-11526793D01*
X10581849Y-11526793D02*
X10572325Y-11507746D01*
X10572325Y-11507746D02*
X10572325Y-11498222D01*
X10572325Y-11498222D02*
X10581849Y-11479174D01*
X10581849Y-11479174D02*
X10600896Y-11469650D01*
X10600896Y-11469650D02*
X10629468Y-11469650D01*
X10629468Y-11469650D02*
X10648515Y-11479174D01*
X10772325Y-11602984D02*
X10753277Y-11593460D01*
X10753277Y-11593460D02*
X10743754Y-11574412D01*
X10743754Y-11574412D02*
X10743754Y-11402984D01*
X10877087Y-11602984D02*
X10858039Y-11593460D01*
X10858039Y-11593460D02*
X10848515Y-11583936D01*
X10848515Y-11583936D02*
X10838992Y-11564888D01*
X10838992Y-11564888D02*
X10838992Y-11507746D01*
X10838992Y-11507746D02*
X10848515Y-11488698D01*
X10848515Y-11488698D02*
X10858039Y-11479174D01*
X10858039Y-11479174D02*
X10877087Y-11469650D01*
X10877087Y-11469650D02*
X10905658Y-11469650D01*
X10905658Y-11469650D02*
X10924706Y-11479174D01*
X10924706Y-11479174D02*
X10934230Y-11488698D01*
X10934230Y-11488698D02*
X10943754Y-11507746D01*
X10943754Y-11507746D02*
X10943754Y-11564888D01*
X10943754Y-11564888D02*
X10934230Y-11583936D01*
X10934230Y-11583936D02*
X10924706Y-11593460D01*
X10924706Y-11593460D02*
X10905658Y-11602984D01*
X10905658Y-11602984D02*
X10877087Y-11602984D01*
X11000896Y-11469650D02*
X11077087Y-11469650D01*
X11029468Y-11402984D02*
X11029468Y-11574412D01*
X11029468Y-11574412D02*
X11038992Y-11593460D01*
X11038992Y-11593460D02*
X11058039Y-11602984D01*
X11058039Y-11602984D02*
X11077087Y-11602984D01*
X11134230Y-11593460D02*
X11153277Y-11602984D01*
X11153277Y-11602984D02*
X11191372Y-11602984D01*
X11191372Y-11602984D02*
X11210420Y-11593460D01*
X11210420Y-11593460D02*
X11219944Y-11574412D01*
X11219944Y-11574412D02*
X11219944Y-11564888D01*
X11219944Y-11564888D02*
X11210420Y-11545841D01*
X11210420Y-11545841D02*
X11191372Y-11536317D01*
X11191372Y-11536317D02*
X11162801Y-11536317D01*
X11162801Y-11536317D02*
X11143754Y-11526793D01*
X11143754Y-11526793D02*
X11134230Y-11507746D01*
X11134230Y-11507746D02*
X11134230Y-11498222D01*
X11134230Y-11498222D02*
X11143754Y-11479174D01*
X11143754Y-11479174D02*
X11162801Y-11469650D01*
X11162801Y-11469650D02*
X11191372Y-11469650D01*
X11191372Y-11469650D02*
X11210420Y-11479174D01*
X11286611Y-11679174D02*
X11296134Y-11669650D01*
X11296134Y-11669650D02*
X11315182Y-11641079D01*
X11315182Y-11641079D02*
X11324706Y-11622031D01*
X11324706Y-11622031D02*
X11334230Y-11593460D01*
X11334230Y-11593460D02*
X11343753Y-11545841D01*
X11343753Y-11545841D02*
X11343753Y-11507746D01*
X11343753Y-11507746D02*
X11334230Y-11460127D01*
X11334230Y-11460127D02*
X11324706Y-11431555D01*
X11324706Y-11431555D02*
X11315182Y-11412508D01*
X11315182Y-11412508D02*
X11296134Y-11383936D01*
X11296134Y-11383936D02*
X11286611Y-11374412D01*
M02*
