G04 #@! TF.GenerationSoftware,KiCad,Pcbnew,9.0.1-rc2*
G04 #@! TF.CreationDate,2025-04-25T20:52:25-07:00*
G04 #@! TF.ProjectId,mintypcb,6d696e74-7970-4636-922e-6b696361645f,2*
G04 #@! TF.SameCoordinates,Original*
G04 #@! TF.FileFunction,Legend,Bot*
G04 #@! TF.FilePolarity,Positive*
%FSLAX46Y46*%
G04 Gerber Fmt 4.6, Leading zero omitted, Abs format (unit mm)*
G04 Created by KiCad (PCBNEW 9.0.1-rc2) date 2025-04-25 20:52:25*
%MOMM*%
%LPD*%
G01*
G04 APERTURE LIST*
G04 Aperture macros list*
%AMRoundRect*
0 Rectangle with rounded corners*
0 $1 Rounding radius*
0 $2 $3 $4 $5 $6 $7 $8 $9 X,Y pos of 4 corners*
0 Add a 4 corners polygon primitive as box body*
4,1,4,$2,$3,$4,$5,$6,$7,$8,$9,$2,$3,0*
0 Add four circle primitives for the rounded corners*
1,1,$1+$1,$2,$3*
1,1,$1+$1,$4,$5*
1,1,$1+$1,$6,$7*
1,1,$1+$1,$8,$9*
0 Add four rect primitives between the rounded corners*
20,1,$1+$1,$2,$3,$4,$5,0*
20,1,$1+$1,$4,$5,$6,$7,0*
20,1,$1+$1,$6,$7,$8,$9,0*
20,1,$1+$1,$8,$9,$2,$3,0*%
G04 Aperture macros list end*
%ADD10C,0.199194*%
%ADD11C,0.000000*%
%ADD12C,0.150000*%
%ADD13C,0.200000*%
%ADD14C,0.400000*%
%ADD15C,0.127000*%
%ADD16C,0.120000*%
%ADD17RoundRect,0.200000X0.550000X0.450000X-0.550000X0.450000X-0.550000X-0.450000X0.550000X-0.450000X0*%
%ADD18O,2.300000X1.100000*%
%ADD19RoundRect,0.260000X-0.515000X-0.390000X0.515000X-0.390000X0.515000X0.390000X-0.515000X0.390000X0*%
%ADD20RoundRect,0.200000X0.300000X0.750000X-0.300000X0.750000X-0.300000X-0.750000X0.300000X-0.750000X0*%
%ADD21C,4.000000*%
%ADD22C,0.100000*%
%ADD23RoundRect,0.282493X-0.569507X-0.569507X0.569507X-0.569507X0.569507X0.569507X-0.569507X0.569507X0*%
%ADD24C,1.700000*%
%ADD25RoundRect,0.200000X0.200000X0.275000X-0.200000X0.275000X-0.200000X-0.275000X0.200000X-0.275000X0*%
%ADD26RoundRect,0.325000X-0.325000X0.325000X-0.325000X-0.325000X0.325000X-0.325000X0.325000X0.325000X0*%
%ADD27RoundRect,0.325000X0.325000X0.325000X-0.325000X0.325000X-0.325000X-0.325000X0.325000X-0.325000X0*%
%ADD28RoundRect,0.112500X-0.187500X-0.112500X0.187500X-0.112500X0.187500X0.112500X-0.187500X0.112500X0*%
%ADD29RoundRect,0.225000X0.225000X0.250000X-0.225000X0.250000X-0.225000X-0.250000X0.225000X-0.250000X0*%
%ADD30RoundRect,0.100000X0.712500X0.100000X-0.712500X0.100000X-0.712500X-0.100000X0.712500X-0.100000X0*%
%ADD31RoundRect,0.200000X-0.200000X-0.275000X0.200000X-0.275000X0.200000X0.275000X-0.200000X0.275000X0*%
%ADD32RoundRect,0.200000X0.275000X-0.200000X0.275000X0.200000X-0.275000X0.200000X-0.275000X-0.200000X0*%
%ADD33RoundRect,0.250000X0.475000X-0.250000X0.475000X0.250000X-0.475000X0.250000X-0.475000X-0.250000X0*%
%ADD34RoundRect,0.200000X-0.275000X0.200000X-0.275000X-0.200000X0.275000X-0.200000X0.275000X0.200000X0*%
%ADD35RoundRect,0.250000X-0.475000X0.250000X-0.475000X-0.250000X0.475000X-0.250000X0.475000X0.250000X0*%
%ADD36RoundRect,0.225000X-0.250000X0.225000X-0.250000X-0.225000X0.250000X-0.225000X0.250000X0.225000X0*%
%ADD37RoundRect,0.250000X-1.500000X0.250000X-1.500000X-0.250000X1.500000X-0.250000X1.500000X0.250000X0*%
%ADD38RoundRect,0.250001X-1.449999X0.499999X-1.449999X-0.499999X1.449999X-0.499999X1.449999X0.499999X0*%
%ADD39RoundRect,0.250000X0.325000X0.650000X-0.325000X0.650000X-0.325000X-0.650000X0.325000X-0.650000X0*%
%ADD40RoundRect,0.235000X1.040000X-0.352500X1.040000X0.352500X-1.040000X0.352500X-1.040000X-0.352500X0*%
%ADD41C,2.000000*%
%ADD42RoundRect,0.250000X-0.325000X-0.650000X0.325000X-0.650000X0.325000X0.650000X-0.325000X0.650000X0*%
%ADD43RoundRect,0.112500X-0.112500X-0.237500X0.112500X-0.237500X0.112500X0.237500X-0.112500X0.237500X0*%
%ADD44RoundRect,0.100000X0.100000X-0.712500X0.100000X0.712500X-0.100000X0.712500X-0.100000X-0.712500X0*%
%ADD45RoundRect,0.112500X-0.112500X0.187500X-0.112500X-0.187500X0.112500X-0.187500X0.112500X0.187500X0*%
%ADD46RoundRect,0.218750X0.218750X0.256250X-0.218750X0.256250X-0.218750X-0.256250X0.218750X-0.256250X0*%
%ADD47RoundRect,0.062500X-0.062500X0.350000X-0.062500X-0.350000X0.062500X-0.350000X0.062500X0.350000X0*%
%ADD48R,2.350000X1.580000*%
%ADD49RoundRect,0.150000X-0.150000X0.587500X-0.150000X-0.587500X0.150000X-0.587500X0.150000X0.587500X0*%
%ADD50RoundRect,0.100000X-0.100000X-0.650000X0.100000X-0.650000X0.100000X0.650000X-0.100000X0.650000X0*%
%ADD51RoundRect,0.200000X-0.800000X-0.650000X0.800000X-0.650000X0.800000X0.650000X-0.800000X0.650000X0*%
%ADD52C,1.300000*%
%ADD53RoundRect,0.150000X0.587500X0.150000X-0.587500X0.150000X-0.587500X-0.150000X0.587500X-0.150000X0*%
%ADD54RoundRect,0.062500X0.062500X-0.350000X0.062500X0.350000X-0.062500X0.350000X-0.062500X-0.350000X0*%
%ADD55RoundRect,0.062500X0.350000X-0.062500X0.350000X0.062500X-0.350000X0.062500X-0.350000X-0.062500X0*%
%ADD56R,1.230000X1.230000*%
%ADD57RoundRect,0.225000X0.250000X-0.225000X0.250000X0.225000X-0.250000X0.225000X-0.250000X-0.225000X0*%
%ADD58RoundRect,0.250000X-0.300000X-0.300000X0.300000X-0.300000X0.300000X0.300000X-0.300000X0.300000X0*%
%ADD59RoundRect,0.175000X-0.425000X0.175000X-0.425000X-0.175000X0.425000X-0.175000X0.425000X0.175000X0*%
%ADD60RoundRect,0.190000X0.410000X-0.190000X0.410000X0.190000X-0.410000X0.190000X-0.410000X-0.190000X0*%
%ADD61RoundRect,0.200000X0.400000X-0.200000X0.400000X0.200000X-0.400000X0.200000X-0.400000X-0.200000X0*%
%ADD62RoundRect,0.175000X0.425000X-0.175000X0.425000X0.175000X-0.425000X0.175000X-0.425000X-0.175000X0*%
%ADD63RoundRect,0.190000X-0.410000X0.190000X-0.410000X-0.190000X0.410000X-0.190000X0.410000X0.190000X0*%
%ADD64RoundRect,0.200000X-0.400000X0.200000X-0.400000X-0.200000X0.400000X-0.200000X0.400000X0.200000X0*%
%ADD65O,1.700000X1.000000*%
G04 APERTURE END LIST*
D10*
X92638217Y-55434019D02*
X92635763Y-55434564D01*
X93745875Y-55664187D02*
X93759369Y-55648936D01*
X93474710Y-55619018D02*
X93477125Y-55614697D01*
X93396443Y-55701786D02*
X93400027Y-55699712D01*
X92647504Y-55332152D02*
X92648901Y-55336520D01*
X93673965Y-55712269D02*
X93679580Y-55712470D01*
X93373763Y-55710073D02*
X93375690Y-55710007D01*
X92620976Y-55311057D02*
X92626662Y-55317923D01*
X93275244Y-55672605D02*
X93279216Y-55676940D01*
X93819143Y-55528556D02*
X93820527Y-55520324D01*
X93202745Y-55467725D02*
X93201579Y-55477071D01*
X92615408Y-55305869D02*
X92616212Y-55306519D01*
X93700706Y-55709102D02*
X93704198Y-55706518D01*
X93200374Y-55521809D02*
X93201159Y-55530036D01*
X93216282Y-55408712D02*
X93214997Y-55412727D01*
X92619770Y-55432916D02*
X92615797Y-55431673D01*
X92593835Y-55412716D02*
X92592883Y-55410964D01*
X93449762Y-55654946D02*
X93453285Y-55650512D01*
X94307069Y-55374991D02*
X94307159Y-55376341D01*
X92636591Y-55316403D02*
X92638380Y-55318058D01*
X93392932Y-55703676D02*
X93396443Y-55701786D01*
X92592235Y-55374358D02*
X92593556Y-55366199D01*
X92650344Y-55341683D02*
X92651831Y-55347636D01*
X92656581Y-55400166D02*
X92655887Y-55404906D01*
X93279216Y-55676940D02*
X93282361Y-55679395D01*
X93791996Y-55607305D02*
X93795583Y-55600756D01*
X92662760Y-55454664D02*
X92659772Y-55457711D01*
X93217751Y-55403952D02*
X93216282Y-55408712D01*
X93813970Y-55472752D02*
X93813541Y-55474342D01*
X93809982Y-55397458D02*
X93811206Y-55401490D01*
X93788268Y-55613307D02*
X93791996Y-55607305D01*
X92653362Y-55354375D02*
X92654936Y-55361896D01*
X92638380Y-55318058D02*
X92640143Y-55319852D01*
X92644848Y-55429945D02*
X92643658Y-55431073D01*
X92590924Y-55405814D02*
X92590566Y-55403771D01*
X92648901Y-55336520D02*
X92650344Y-55341683D01*
X93199949Y-55513281D02*
X93200374Y-55521809D01*
X93587907Y-55632022D02*
X93595202Y-55647973D01*
X92610352Y-55309789D02*
X92611316Y-55308654D01*
X93383079Y-55708079D02*
X93386225Y-55706839D01*
X93635373Y-55704847D02*
X93640020Y-55706427D01*
X93814696Y-55468893D02*
X93814355Y-55470941D01*
X93201159Y-55530036D02*
X93202322Y-55537915D01*
X93811206Y-55401490D02*
X93812278Y-55405570D01*
X92632935Y-55313514D02*
X92634775Y-55314888D01*
X93645143Y-55707864D02*
X93650631Y-55709139D01*
X92621354Y-55308243D02*
X92623348Y-55308765D01*
X92623348Y-55308765D02*
X92625316Y-55309430D01*
X92665524Y-55451654D02*
X92662760Y-55454664D01*
X92650008Y-55422863D02*
X92649082Y-55424463D01*
X93821446Y-55472481D02*
X93820027Y-55462840D01*
X92634775Y-55314888D02*
X92636591Y-55316403D01*
X93815757Y-55454564D02*
X93815628Y-55458026D01*
X94305403Y-55386370D02*
X94304968Y-55387061D01*
X93821611Y-55512302D02*
X93822381Y-55504561D01*
X93602198Y-55662346D02*
X93608807Y-55674910D01*
X94304020Y-55359497D02*
X94304562Y-55361535D01*
X92657284Y-55390032D02*
X92657047Y-55395201D01*
X92590566Y-55403771D02*
X92590331Y-55401418D01*
X92602253Y-55426016D02*
X92597181Y-55423469D01*
X92651831Y-55347636D02*
X92653362Y-55354375D01*
X93807063Y-55389455D02*
X93808602Y-55393453D01*
X93805362Y-55385442D02*
X93807063Y-55389455D01*
X93270744Y-55666981D02*
X93275244Y-55672605D01*
X92624572Y-55347713D02*
X92605759Y-55411002D01*
X93542811Y-55516224D02*
X93557505Y-55557101D01*
X93205886Y-55449002D02*
X93204185Y-55458353D01*
X92679223Y-55428156D02*
X92678354Y-55431094D01*
X93704198Y-55706518D02*
X93708569Y-55702759D01*
X93483454Y-55600609D02*
X93485716Y-55592798D01*
X92615797Y-55431673D02*
X92611556Y-55430112D01*
X92643213Y-55340815D02*
X92652576Y-55355195D01*
X93435130Y-55671712D02*
X93438839Y-55667707D01*
X92619335Y-55307865D02*
X92621354Y-55308243D01*
X92590331Y-55401418D02*
X92590211Y-55395879D01*
X93386225Y-55706839D02*
X93389518Y-55705366D01*
X93781619Y-55622261D02*
X93785427Y-55617290D01*
X93212402Y-55421534D02*
X93210009Y-55430547D01*
X92596151Y-55416263D02*
X92594926Y-55414483D01*
D11*
G36*
X55616642Y-73335611D02*
G01*
X55621205Y-73344113D01*
X55625159Y-73352815D01*
X55628506Y-73361689D01*
X55631243Y-73370702D01*
X55633373Y-73379825D01*
X55634894Y-73389029D01*
X55635806Y-73398282D01*
X55636110Y-73407555D01*
X55635806Y-73416818D01*
X55634894Y-73426039D01*
X55633373Y-73435190D01*
X55631243Y-73444240D01*
X55628506Y-73453159D01*
X55625159Y-73461917D01*
X55621205Y-73470483D01*
X55616642Y-73478828D01*
X55614146Y-73482971D01*
X55611527Y-73487008D01*
X55608789Y-73490936D01*
X55605936Y-73494755D01*
X55602969Y-73498462D01*
X55599893Y-73502056D01*
X55596710Y-73505535D01*
X55593425Y-73508898D01*
X55590040Y-73512143D01*
X55586559Y-73515268D01*
X55582984Y-73518272D01*
X55579320Y-73521153D01*
X55575569Y-73523910D01*
X55571735Y-73526540D01*
X55567821Y-73529043D01*
X55563830Y-73531416D01*
X55559766Y-73533658D01*
X55555632Y-73535767D01*
X55551431Y-73537742D01*
X55547166Y-73539580D01*
X55542841Y-73541281D01*
X55538459Y-73542843D01*
X55534023Y-73544264D01*
X55529537Y-73545542D01*
X55525003Y-73546676D01*
X55520426Y-73547664D01*
X55515807Y-73548504D01*
X55511152Y-73549196D01*
X55506462Y-73549736D01*
X55501742Y-73550124D01*
X55496994Y-73550359D01*
X55492222Y-73550437D01*
X50411585Y-73550437D01*
X50402065Y-73550115D01*
X50392655Y-73549159D01*
X50383382Y-73547587D01*
X50374271Y-73545416D01*
X50365348Y-73542663D01*
X50356641Y-73539344D01*
X50348175Y-73535478D01*
X50339977Y-73531080D01*
X50332072Y-73526169D01*
X50324487Y-73520760D01*
X50317249Y-73514872D01*
X50310382Y-73508521D01*
X50303915Y-73501723D01*
X50297872Y-73494498D01*
X50292280Y-73486860D01*
X50287166Y-73478828D01*
X50282603Y-73470326D01*
X50278648Y-73461623D01*
X50275302Y-73452750D01*
X50272564Y-73443737D01*
X50270435Y-73434614D01*
X50268914Y-73425410D01*
X50268001Y-73416157D01*
X50267697Y-73406884D01*
X50268001Y-73397621D01*
X50268914Y-73388399D01*
X50270435Y-73379248D01*
X50272564Y-73370198D01*
X50275302Y-73361279D01*
X50278648Y-73352522D01*
X50282603Y-73343955D01*
X50287166Y-73335611D01*
X50375276Y-73182986D01*
X50799570Y-73182986D01*
X55104246Y-73182986D01*
X52951903Y-69454688D01*
X50799570Y-73182986D01*
X50375276Y-73182986D01*
X52827484Y-68935257D01*
X52829979Y-68931114D01*
X52832598Y-68927077D01*
X52835336Y-68923149D01*
X52838190Y-68919330D01*
X52841156Y-68915623D01*
X52844233Y-68912029D01*
X52847415Y-68908550D01*
X52850700Y-68905187D01*
X52854085Y-68901942D01*
X52857567Y-68898817D01*
X52861141Y-68895813D01*
X52864805Y-68892932D01*
X52868556Y-68890175D01*
X52872390Y-68887545D01*
X52876304Y-68885042D01*
X52880295Y-68882669D01*
X52884359Y-68880427D01*
X52888493Y-68878318D01*
X52892694Y-68876344D01*
X52896959Y-68874505D01*
X52901284Y-68872804D01*
X52905666Y-68871242D01*
X52910102Y-68869821D01*
X52914589Y-68868543D01*
X52919122Y-68867409D01*
X52923700Y-68866421D01*
X52928318Y-68865581D01*
X52932973Y-68864890D01*
X52937663Y-68864349D01*
X52942383Y-68863961D01*
X52947131Y-68863727D01*
X52951903Y-68863648D01*
X52961424Y-68863971D01*
X52970834Y-68864926D01*
X52980107Y-68866498D01*
X52989218Y-68868669D01*
X52998141Y-68871423D01*
X53006848Y-68874741D01*
X53015314Y-68878607D01*
X53023512Y-68883005D01*
X53031417Y-68887916D01*
X53039002Y-68893325D01*
X53046240Y-68899213D01*
X53053107Y-68905564D01*
X53059574Y-68912362D01*
X53065617Y-68919587D01*
X53071209Y-68927225D01*
X53076324Y-68935257D01*
X55528532Y-73182986D01*
X55616642Y-73335611D01*
G37*
D10*
X92640143Y-55319852D02*
X92641881Y-55321785D01*
X92652576Y-55355195D02*
X92657201Y-55362758D01*
X93410960Y-55692560D02*
X93414582Y-55689920D01*
X93342871Y-55704048D02*
X93350263Y-55706059D01*
X93719421Y-55692334D02*
X93732208Y-55679065D01*
X93421646Y-55684358D02*
X93425037Y-55681470D01*
X93202322Y-55537915D02*
X93203875Y-55545399D01*
X93249378Y-55635147D02*
X93260543Y-55652575D01*
X93217737Y-55578948D02*
X93227210Y-55596911D01*
X93516304Y-55441931D02*
X93517974Y-55436939D01*
D12*
X129300000Y-98600000D02*
X129300000Y-99600000D01*
D10*
X92619135Y-55309111D02*
X92619785Y-55309760D01*
X93286645Y-55682053D02*
X93291909Y-55684861D01*
X92598837Y-55341500D02*
X92600888Y-55333843D01*
X92656591Y-55373521D02*
X92657058Y-55379170D01*
X93626582Y-55700383D02*
X93627961Y-55701326D01*
X92654967Y-55409399D02*
X92653825Y-55413623D01*
X92594926Y-55414483D02*
X92593835Y-55412716D01*
X93291909Y-55684861D02*
X93297994Y-55687762D01*
X92647071Y-55427393D02*
X92645986Y-55428718D01*
X93808602Y-55393453D02*
X93809982Y-55397458D01*
X94304562Y-55361535D02*
X94305052Y-55363491D01*
X92640433Y-55433195D02*
X92638217Y-55434019D01*
X94305879Y-55367158D02*
X94306217Y-55368874D01*
X93214997Y-55412727D02*
X93212402Y-55421534D01*
X92592883Y-55410964D02*
X92592077Y-55409228D01*
X93810899Y-55562212D02*
X93813337Y-55553827D01*
X92653825Y-55413623D02*
X92652461Y-55417556D01*
X93418153Y-55687181D02*
X93421646Y-55684358D01*
X92580238Y-55413768D02*
X92624884Y-55357745D01*
X93438839Y-55667707D02*
X93442524Y-55663564D01*
X94306677Y-55383071D02*
X94306429Y-55383979D01*
X93210356Y-55563651D02*
X93217737Y-55578948D01*
X93204185Y-55458353D02*
X93202745Y-55467725D01*
D11*
G36*
X52771587Y-71141630D02*
G01*
X52801637Y-71143035D01*
X52830905Y-71145381D01*
X52859383Y-71148672D01*
X52887064Y-71152911D01*
X52913941Y-71158101D01*
X52940007Y-71164246D01*
X52965257Y-71171349D01*
X52989682Y-71179413D01*
X53013275Y-71188443D01*
X53036031Y-71198442D01*
X53057942Y-71209412D01*
X53079001Y-71221358D01*
X53099202Y-71234282D01*
X53118537Y-71248189D01*
X53137000Y-71263082D01*
X53154914Y-71278799D01*
X53171729Y-71295183D01*
X53187445Y-71312240D01*
X53202062Y-71329976D01*
X53215581Y-71348400D01*
X53228000Y-71367518D01*
X53239320Y-71387336D01*
X53249541Y-71407861D01*
X53258663Y-71429102D01*
X53266686Y-71451063D01*
X53273610Y-71473752D01*
X53279435Y-71497177D01*
X53284161Y-71521343D01*
X53287787Y-71546258D01*
X53290315Y-71571928D01*
X53291744Y-71598361D01*
X52933018Y-71598361D01*
X52932386Y-71586656D01*
X52931370Y-71575277D01*
X52929968Y-71564221D01*
X52928182Y-71553484D01*
X52926012Y-71543063D01*
X52923457Y-71532955D01*
X52920517Y-71523156D01*
X52917192Y-71513662D01*
X52913483Y-71504471D01*
X52909389Y-71495578D01*
X52904910Y-71486981D01*
X52900047Y-71478676D01*
X52894799Y-71470660D01*
X52889167Y-71462928D01*
X52883149Y-71455478D01*
X52876747Y-71448306D01*
X52869603Y-71441905D01*
X52862236Y-71435892D01*
X52854641Y-71430270D01*
X52846817Y-71425043D01*
X52838759Y-71420215D01*
X52830464Y-71415788D01*
X52821929Y-71411767D01*
X52813150Y-71408155D01*
X52804123Y-71404954D01*
X52794846Y-71402169D01*
X52785315Y-71399804D01*
X52775526Y-71397860D01*
X52765476Y-71396343D01*
X52755162Y-71395255D01*
X52744580Y-71394599D01*
X52733726Y-71394380D01*
X52722846Y-71394599D01*
X52712189Y-71395255D01*
X52701760Y-71396343D01*
X52691560Y-71397860D01*
X52681593Y-71399804D01*
X52671864Y-71402169D01*
X52662375Y-71404954D01*
X52653130Y-71408155D01*
X52644132Y-71411767D01*
X52635385Y-71415788D01*
X52626892Y-71420215D01*
X52618657Y-71425043D01*
X52610683Y-71430270D01*
X52602973Y-71435892D01*
X52595531Y-71441905D01*
X52588360Y-71448306D01*
X52581546Y-71455424D01*
X52575172Y-71462717D01*
X52569237Y-71470196D01*
X52563742Y-71477870D01*
X52558686Y-71485751D01*
X52554070Y-71493848D01*
X52549894Y-71502171D01*
X52546157Y-71510731D01*
X52542860Y-71519539D01*
X52540002Y-71528605D01*
X52537584Y-71537938D01*
X52535606Y-71547549D01*
X52534067Y-71557449D01*
X52532968Y-71567648D01*
X52532309Y-71578156D01*
X52532089Y-71588983D01*
X52532446Y-71603709D01*
X52533513Y-71617993D01*
X52535288Y-71631830D01*
X52537768Y-71645217D01*
X52540947Y-71658151D01*
X52544824Y-71670628D01*
X52547023Y-71676694D01*
X52549395Y-71682644D01*
X52551940Y-71688479D01*
X52554656Y-71694197D01*
X52557545Y-71699799D01*
X52560604Y-71705283D01*
X52563835Y-71710650D01*
X52567236Y-71715899D01*
X52570807Y-71721029D01*
X52574547Y-71726040D01*
X52578457Y-71730932D01*
X52582535Y-71735704D01*
X52586782Y-71740356D01*
X52591196Y-71744888D01*
X52595778Y-71749298D01*
X52600527Y-71753587D01*
X52610525Y-71761798D01*
X52621185Y-71769518D01*
X52632725Y-71777184D01*
X52645363Y-71784355D01*
X52659101Y-71791032D01*
X52673938Y-71797214D01*
X52689874Y-71802901D01*
X52706910Y-71808094D01*
X52725044Y-71812793D01*
X52744277Y-71816996D01*
X52764609Y-71820706D01*
X52786040Y-71823920D01*
X52808570Y-71826640D01*
X52832200Y-71828866D01*
X52856928Y-71830597D01*
X52882755Y-71831833D01*
X52937707Y-71832822D01*
X52937707Y-72107142D01*
X52914261Y-72107142D01*
X52887966Y-72107363D01*
X52862712Y-72108026D01*
X52838495Y-72109136D01*
X52815311Y-72110696D01*
X52793158Y-72112709D01*
X52772032Y-72115179D01*
X52751930Y-72118109D01*
X52732847Y-72121503D01*
X52714781Y-72125364D01*
X52697728Y-72129695D01*
X52681685Y-72134501D01*
X52666648Y-72139784D01*
X52652614Y-72145547D01*
X52639580Y-72151795D01*
X52627541Y-72158531D01*
X52616495Y-72165758D01*
X52606687Y-72173066D01*
X52597487Y-72180924D01*
X52588898Y-72189332D01*
X52580923Y-72198289D01*
X52573567Y-72207796D01*
X52566833Y-72217852D01*
X52560723Y-72228458D01*
X52555242Y-72239613D01*
X52550394Y-72251318D01*
X52546180Y-72263572D01*
X52542605Y-72276376D01*
X52539673Y-72289729D01*
X52537386Y-72303632D01*
X52535748Y-72318084D01*
X52534763Y-72333086D01*
X52534434Y-72348637D01*
X52534654Y-72360809D01*
X52535318Y-72372706D01*
X52536428Y-72384329D01*
X52537988Y-72395676D01*
X52540001Y-72406749D01*
X52542471Y-72417547D01*
X52545401Y-72428070D01*
X52548795Y-72438319D01*
X52552656Y-72448292D01*
X52556987Y-72457991D01*
X52561792Y-72467416D01*
X52567075Y-72476565D01*
X52572839Y-72485440D01*
X52579087Y-72494040D01*
X52585823Y-72502365D01*
X52593049Y-72510416D01*
X52600660Y-72517669D01*
X52608541Y-72524479D01*
X52616691Y-72530842D01*
X52625104Y-72536756D01*
X52633779Y-72542216D01*
X52642712Y-72547220D01*
X52651899Y-72551763D01*
X52661336Y-72555843D01*
X52671021Y-72559455D01*
X52680949Y-72562597D01*
X52691118Y-72565265D01*
X52701524Y-72567456D01*
X52712164Y-72569166D01*
X52723033Y-72570391D01*
X52734130Y-72571129D01*
X52745449Y-72571376D01*
X52757594Y-72571156D01*
X52769408Y-72570497D01*
X52780893Y-72569397D01*
X52792048Y-72567859D01*
X52802874Y-72565881D01*
X52813370Y-72563463D01*
X52823536Y-72560605D01*
X52833372Y-72557308D01*
X52842879Y-72553571D01*
X52852056Y-72549395D01*
X52860903Y-72544779D01*
X52869421Y-72539723D01*
X52877608Y-72534228D01*
X52885466Y-72528293D01*
X52892995Y-72521919D01*
X52900194Y-72515105D01*
X52906595Y-72507879D01*
X52912613Y-72500268D01*
X52918245Y-72492272D01*
X52923493Y-72483892D01*
X52928356Y-72475127D01*
X52932835Y-72465978D01*
X52936929Y-72456444D01*
X52940638Y-72446525D01*
X52943963Y-72436221D01*
X52946903Y-72425533D01*
X52949458Y-72414461D01*
X52951629Y-72403003D01*
X52953415Y-72391161D01*
X52954816Y-72378934D01*
X52955832Y-72366323D01*
X52956464Y-72353327D01*
X53312845Y-72353327D01*
X53312845Y-72362705D01*
X53312296Y-72391280D01*
X53310647Y-72418976D01*
X53307900Y-72445792D01*
X53304053Y-72471730D01*
X53299107Y-72496788D01*
X53293063Y-72520966D01*
X53285919Y-72544266D01*
X53277676Y-72566686D01*
X53268334Y-72588227D01*
X53257894Y-72608889D01*
X53246354Y-72628672D01*
X53233715Y-72647575D01*
X53219977Y-72665600D01*
X53205140Y-72682745D01*
X53189204Y-72699010D01*
X53172169Y-72714397D01*
X53154118Y-72728877D01*
X53135136Y-72742422D01*
X53115227Y-72755034D01*
X53094394Y-72766711D01*
X53072640Y-72777454D01*
X53049970Y-72787263D01*
X53026385Y-72796138D01*
X53001891Y-72804078D01*
X52976490Y-72811085D01*
X52950186Y-72817157D01*
X52922982Y-72822295D01*
X52894882Y-72826499D01*
X52865888Y-72829768D01*
X52836005Y-72832104D01*
X52805236Y-72833505D01*
X52773585Y-72833972D01*
X52741823Y-72833450D01*
X52710724Y-72831879D01*
X52680292Y-72829258D01*
X52650529Y-72825583D01*
X52621439Y-72820850D01*
X52593027Y-72815055D01*
X52565294Y-72808196D01*
X52538244Y-72800268D01*
X52511881Y-72791269D01*
X52486209Y-72781196D01*
X52461231Y-72770043D01*
X52436949Y-72757809D01*
X52413369Y-72744489D01*
X52390492Y-72730081D01*
X52368323Y-72714581D01*
X52346865Y-72697985D01*
X52326010Y-72680565D01*
X52306526Y-72662596D01*
X52288408Y-72644077D01*
X52271654Y-72625009D01*
X52256260Y-72605391D01*
X52242223Y-72585224D01*
X52229539Y-72564507D01*
X52218204Y-72543240D01*
X52208216Y-72521424D01*
X52199571Y-72499059D01*
X52192265Y-72476144D01*
X52186296Y-72452680D01*
X52181658Y-72428666D01*
X52178350Y-72404102D01*
X52176368Y-72378989D01*
X52175708Y-72353327D01*
X52176038Y-72335467D01*
X52177027Y-72317938D01*
X52178676Y-72300738D01*
X52180984Y-72283868D01*
X52183951Y-72267327D01*
X52187578Y-72251116D01*
X52191864Y-72235235D01*
X52196810Y-72219684D01*
X52202415Y-72204462D01*
X52208679Y-72189570D01*
X52215603Y-72175008D01*
X52223187Y-72160775D01*
X52231429Y-72146872D01*
X52240332Y-72133299D01*
X52249893Y-72120056D01*
X52260114Y-72107142D01*
X52270967Y-72094613D01*
X52282420Y-72082519D01*
X52294471Y-72070858D01*
X52307116Y-72059627D01*
X52320352Y-72048822D01*
X52334176Y-72038439D01*
X52348583Y-72028475D01*
X52363570Y-72018926D01*
X52379135Y-72009790D01*
X52395273Y-72001062D01*
X52411981Y-71992740D01*
X52429256Y-71984819D01*
X52447094Y-71977297D01*
X52465492Y-71970170D01*
X52484447Y-71963435D01*
X52503954Y-71957087D01*
X52484474Y-71950768D01*
X52465602Y-71944118D01*
X52447342Y-71937139D01*
X52429696Y-71929831D01*
X52412668Y-71922193D01*
X52396262Y-71914224D01*
X52380481Y-71905927D01*
X52365329Y-71897299D01*
X52350808Y-71888342D01*
X52336923Y-71879055D01*
X52323677Y-71869439D01*
X52311073Y-71859492D01*
X52299115Y-71849216D01*
X52287805Y-71838611D01*
X52277149Y-71827675D01*
X52267148Y-71816410D01*
X52257779Y-71804402D01*
X52249014Y-71792112D01*
X52240854Y-71779534D01*
X52233298Y-71766661D01*
X52226346Y-71753485D01*
X52220000Y-71740000D01*
X52214257Y-71726199D01*
X52209119Y-71712075D01*
X52204586Y-71697622D01*
X52200657Y-71682831D01*
X52197332Y-71667698D01*
X52194612Y-71652214D01*
X52192496Y-71636373D01*
X52190985Y-71620168D01*
X52190078Y-71603592D01*
X52189776Y-71586638D01*
X52190354Y-71563146D01*
X52192089Y-71540149D01*
X52194984Y-71517646D01*
X52199045Y-71495638D01*
X52204272Y-71474124D01*
X52210671Y-71453105D01*
X52218245Y-71432581D01*
X52226997Y-71412551D01*
X52236930Y-71393015D01*
X52248048Y-71373974D01*
X52260354Y-71355428D01*
X52273852Y-71337376D01*
X52288545Y-71319819D01*
X52304437Y-71302757D01*
X52321531Y-71286189D01*
X52339831Y-71270115D01*
X52359119Y-71254371D01*
X52379177Y-71239667D01*
X52400003Y-71226001D01*
X52421599Y-71213368D01*
X52443965Y-71201766D01*
X52467100Y-71191191D01*
X52491004Y-71181639D01*
X52515677Y-71173107D01*
X52541120Y-71165592D01*
X52567332Y-71159090D01*
X52594313Y-71153598D01*
X52622064Y-71149112D01*
X52650584Y-71145628D01*
X52679873Y-71143145D01*
X52709932Y-71141657D01*
X52740760Y-71141162D01*
X52771587Y-71141630D01*
G37*
D10*
X92643593Y-55323856D02*
X92644215Y-55324734D01*
X93238012Y-55616118D02*
X93249378Y-55635147D01*
X93485716Y-55592798D02*
X93490521Y-55572280D01*
X92678354Y-55431094D02*
X92677239Y-55434019D01*
X92677239Y-55434019D02*
X92675880Y-55436938D01*
X93820527Y-55520324D02*
X93821611Y-55512302D01*
X92665869Y-55378118D02*
X92669724Y-55385708D01*
X93820027Y-55462840D02*
X93818253Y-55452893D01*
X93815746Y-55432268D02*
X93815866Y-55437286D01*
X93327377Y-55699201D02*
X93335189Y-55701743D01*
X92620399Y-55310408D02*
X92620692Y-55310733D01*
X94306217Y-55368874D02*
X94306505Y-55370514D01*
X92634692Y-55448319D02*
X92629379Y-55444927D01*
X93815866Y-55437286D02*
X93815898Y-55442151D01*
X92626928Y-55434472D02*
X92623479Y-55433848D01*
X93795583Y-55600756D02*
X93799015Y-55593728D01*
X92668061Y-55448675D02*
X92665524Y-55451654D01*
X92680319Y-55419210D02*
X92680296Y-55420720D01*
X93818253Y-55452893D02*
X93816202Y-55442802D01*
X92676008Y-55400196D02*
X92678250Y-55406887D01*
X92613125Y-55307601D02*
X92615220Y-55307544D01*
X93814993Y-55466593D02*
X93814696Y-55468893D01*
X92590211Y-55395879D02*
X92590518Y-55389393D01*
X93796846Y-55368812D02*
X93799239Y-55373098D01*
X92645986Y-55428718D02*
X92644848Y-55429945D01*
X94306931Y-55373570D02*
X94307069Y-55374991D01*
X93472104Y-55623424D02*
X93474710Y-55619018D01*
X94305792Y-55385627D02*
X94305403Y-55386370D01*
X92669724Y-55385708D02*
X92673135Y-55393102D01*
X93817474Y-55536929D02*
X93819143Y-55528556D01*
X92655887Y-55404906D02*
X92654967Y-55409399D01*
X92651092Y-55457873D02*
X92645594Y-55454807D01*
X92641881Y-55321785D02*
X92643593Y-55323856D01*
X92624219Y-55441458D02*
X92619255Y-55437926D01*
X93428301Y-55678531D02*
X93431413Y-55675559D01*
X93357207Y-55707723D02*
X93363544Y-55708983D01*
X93785427Y-55617290D02*
X93788268Y-55613307D01*
X93500644Y-55519980D02*
X93510267Y-55468522D01*
X92657201Y-55362758D02*
X92661663Y-55370433D01*
X93713688Y-55697979D02*
X93719421Y-55692334D01*
X92675880Y-55436938D02*
X92674280Y-55439857D01*
X94292000Y-55320743D02*
X94296708Y-55335611D01*
X93822436Y-55481652D02*
X93821446Y-55472481D01*
X93523393Y-55455870D02*
X93529398Y-55475550D01*
X92611556Y-55430112D02*
X92607043Y-55428229D01*
X93203875Y-55545399D02*
X93205833Y-55552444D01*
X93210009Y-55430547D02*
X93207832Y-55439718D01*
X93304742Y-55690702D02*
X93311995Y-55693626D01*
X94306429Y-55383979D02*
X94306134Y-55384830D01*
X93809131Y-55413291D02*
X93796846Y-55368812D01*
X93814355Y-55470941D02*
X93813970Y-55472752D01*
X93620507Y-55693680D02*
X93625421Y-55699420D01*
X92614535Y-55434346D02*
X92610102Y-55430733D01*
X93400027Y-55699712D02*
X93403657Y-55697472D01*
X93431413Y-55675559D02*
X93435130Y-55671712D01*
X92629176Y-55311188D02*
X92631068Y-55312280D01*
X92617290Y-55307632D02*
X92619335Y-55307865D01*
X92646153Y-55328582D02*
X92647504Y-55332152D01*
X92606002Y-55427103D02*
X92602280Y-55423472D01*
X92600888Y-55333843D02*
X92603010Y-55326799D01*
X92640112Y-55451617D02*
X92634692Y-55448319D01*
X94251955Y-55326618D02*
X94284012Y-55380225D01*
X93529398Y-55475550D02*
X93542811Y-55516224D01*
X93811682Y-55478375D02*
X93811370Y-55478782D01*
X93813984Y-55413963D02*
X93814625Y-55418317D01*
X93297994Y-55687762D02*
X93304742Y-55690702D01*
X93311995Y-55693626D02*
X93319592Y-55696477D01*
X93640020Y-55706427D02*
X93645143Y-55707864D01*
X93201579Y-55477071D02*
X93200701Y-55486346D01*
X94306743Y-55372079D02*
X94306931Y-55373570D01*
X93759369Y-55648936D02*
X93771635Y-55634549D01*
X92680296Y-55420720D02*
X92680208Y-55422221D01*
X93801453Y-55377285D02*
X93803493Y-55381392D01*
X92597181Y-55423469D02*
X92591825Y-55420583D01*
X92643658Y-55431073D02*
X92642416Y-55432098D01*
X94307134Y-55379990D02*
X94307030Y-55381078D01*
X92679766Y-55413074D02*
X92680002Y-55414624D01*
D11*
G36*
X53837648Y-72798803D02*
G01*
X53542227Y-72798803D01*
X53542227Y-72484625D01*
X53837648Y-72484625D01*
X53837648Y-72798803D01*
G37*
D10*
X93595202Y-55647973D02*
X93602198Y-55662346D01*
X93608807Y-55674910D02*
X93614939Y-55685432D01*
X93199872Y-55504497D02*
X93199949Y-55513281D01*
X93822921Y-55490192D02*
X93822436Y-55481652D01*
X92661663Y-55370433D02*
X92665869Y-55378118D01*
X92631068Y-55312280D02*
X92632935Y-55313514D01*
X93684882Y-55712403D02*
X93689759Y-55712051D01*
X94305491Y-55365364D02*
X94305879Y-55367158D01*
X92680173Y-55416163D02*
X92680278Y-55417692D01*
X93815459Y-55461174D02*
X93815247Y-55464025D01*
X92591422Y-55407511D02*
X92590924Y-55405814D01*
D11*
G36*
X114994906Y-64945688D02*
G01*
X114996339Y-64945795D01*
X114997766Y-64945971D01*
X114999183Y-64946214D01*
X115000588Y-64946522D01*
X115001981Y-64946894D01*
X115003358Y-64947328D01*
X115004717Y-64947822D01*
X115006057Y-64948375D01*
X115007375Y-64948984D01*
X115009937Y-64950366D01*
X115012385Y-64951952D01*
X115014704Y-64953731D01*
X115016875Y-64955686D01*
X115018882Y-64957805D01*
X115020707Y-64960072D01*
X115021547Y-64961258D01*
X115022334Y-64962475D01*
X115023068Y-64963723D01*
X115023746Y-64964999D01*
X115024365Y-64966302D01*
X115024925Y-64967629D01*
X115025422Y-64968980D01*
X115025854Y-64970353D01*
X115026220Y-64971745D01*
X115026517Y-64973155D01*
X115145880Y-65614604D01*
X115146548Y-65617452D01*
X115147465Y-65620309D01*
X115148615Y-65623157D01*
X115149983Y-65625978D01*
X115151552Y-65628752D01*
X115153308Y-65631462D01*
X115155232Y-65634088D01*
X115157311Y-65636612D01*
X115159528Y-65639016D01*
X115161866Y-65641280D01*
X115164311Y-65643386D01*
X115166846Y-65645316D01*
X115169456Y-65647050D01*
X115172123Y-65648571D01*
X115174833Y-65649859D01*
X115177570Y-65650896D01*
X115607529Y-65826886D01*
X115610207Y-65828062D01*
X115613045Y-65829044D01*
X115616019Y-65829834D01*
X115619105Y-65830434D01*
X115622276Y-65830846D01*
X115625508Y-65831070D01*
X115628776Y-65831109D01*
X115632056Y-65830965D01*
X115635321Y-65830640D01*
X115638549Y-65830134D01*
X115641712Y-65829450D01*
X115644787Y-65828589D01*
X115647749Y-65827554D01*
X115650573Y-65826345D01*
X115653233Y-65824965D01*
X115655705Y-65823416D01*
X116191560Y-65455666D01*
X116192771Y-65454879D01*
X116194017Y-65454154D01*
X116195297Y-65453490D01*
X116196606Y-65452887D01*
X116197944Y-65452344D01*
X116199305Y-65451861D01*
X116202092Y-65451075D01*
X116204945Y-65450527D01*
X116207843Y-65450215D01*
X116210762Y-65450136D01*
X116213682Y-65450290D01*
X116216580Y-65450673D01*
X116219434Y-65451285D01*
X116222223Y-65452122D01*
X116224925Y-65453183D01*
X116227517Y-65454466D01*
X116228765Y-65455190D01*
X116229977Y-65455969D01*
X116231151Y-65456802D01*
X116232285Y-65457690D01*
X116233374Y-65458632D01*
X116234417Y-65459627D01*
X116685767Y-65910939D01*
X116686759Y-65911985D01*
X116687697Y-65913078D01*
X116688583Y-65914214D01*
X116689414Y-65915391D01*
X116690191Y-65916606D01*
X116690914Y-65917857D01*
X116691582Y-65919140D01*
X116692195Y-65920453D01*
X116692753Y-65921793D01*
X116693255Y-65923157D01*
X116694092Y-65925948D01*
X116694705Y-65928804D01*
X116695090Y-65931702D01*
X116695245Y-65934622D01*
X116695169Y-65937540D01*
X116694859Y-65940435D01*
X116694616Y-65941867D01*
X116694313Y-65943285D01*
X116693951Y-65944686D01*
X116693529Y-65946068D01*
X116693048Y-65947427D01*
X116692505Y-65948762D01*
X116691903Y-65950069D01*
X116691239Y-65951345D01*
X116690514Y-65952588D01*
X116689728Y-65953795D01*
X116328354Y-66480446D01*
X116326813Y-66482935D01*
X116325445Y-66485605D01*
X116324252Y-66488432D01*
X116323235Y-66491392D01*
X116322397Y-66494459D01*
X116321737Y-66497610D01*
X116321259Y-66500821D01*
X116320964Y-66504067D01*
X116320853Y-66507324D01*
X116320928Y-66510568D01*
X116321191Y-66513774D01*
X116321643Y-66516919D01*
X116322285Y-66519978D01*
X116323120Y-66522926D01*
X116324149Y-66525740D01*
X116325373Y-66528395D01*
X116515511Y-66971898D01*
X116516018Y-66973262D01*
X116516590Y-66974621D01*
X116517917Y-66977320D01*
X116519476Y-66979977D01*
X116521246Y-66982577D01*
X116523210Y-66985104D01*
X116525348Y-66987542D01*
X116527642Y-66989875D01*
X116530073Y-66992086D01*
X116532622Y-66994160D01*
X116535272Y-66996080D01*
X116538002Y-66997830D01*
X116540795Y-66999395D01*
X116543632Y-67000758D01*
X116546494Y-67001903D01*
X116549362Y-67002814D01*
X116550792Y-67003176D01*
X116552218Y-67003475D01*
X117172352Y-67118802D01*
X117173766Y-67119105D01*
X117175160Y-67119477D01*
X117176535Y-67119915D01*
X117177888Y-67120417D01*
X117179218Y-67120981D01*
X117180522Y-67121604D01*
X117181799Y-67122286D01*
X117183048Y-67123022D01*
X117184265Y-67123813D01*
X117185451Y-67124654D01*
X117186603Y-67125546D01*
X117187719Y-67126484D01*
X117188797Y-67127467D01*
X117189836Y-67128493D01*
X117190835Y-67129561D01*
X117191790Y-67130667D01*
X117192702Y-67131809D01*
X117193567Y-67132987D01*
X117194384Y-67134196D01*
X117195151Y-67135437D01*
X117195867Y-67136705D01*
X117196530Y-67138000D01*
X117197138Y-67139318D01*
X117197690Y-67140659D01*
X117198183Y-67142020D01*
X117198616Y-67143398D01*
X117198987Y-67144792D01*
X117199295Y-67146200D01*
X117199537Y-67147619D01*
X117199712Y-67149048D01*
X117199819Y-67150484D01*
X117199854Y-67151925D01*
X117199817Y-67790206D01*
X117199781Y-67791647D01*
X117199674Y-67793084D01*
X117199498Y-67794514D01*
X117199255Y-67795935D01*
X117198947Y-67797345D01*
X117198575Y-67798742D01*
X117198141Y-67800123D01*
X117197647Y-67801487D01*
X117196485Y-67804154D01*
X117195104Y-67806724D01*
X117193517Y-67809180D01*
X117191739Y-67811506D01*
X117189783Y-67813684D01*
X117187664Y-67815696D01*
X117185397Y-67817526D01*
X117184211Y-67818367D01*
X117182994Y-67819156D01*
X117181746Y-67819890D01*
X117180470Y-67820568D01*
X117179167Y-67821187D01*
X117177840Y-67821746D01*
X117176489Y-67822241D01*
X117175116Y-67822672D01*
X117173724Y-67823035D01*
X117172315Y-67823328D01*
X116567384Y-67935902D01*
X116565963Y-67936194D01*
X116564538Y-67936552D01*
X116561686Y-67937457D01*
X116558846Y-67938602D01*
X116556037Y-67939969D01*
X116553277Y-67941543D01*
X116550585Y-67943305D01*
X116547980Y-67945241D01*
X116545479Y-67947333D01*
X116543102Y-67949564D01*
X116540866Y-67951919D01*
X116538791Y-67954380D01*
X116536895Y-67956932D01*
X116535196Y-67959556D01*
X116533713Y-67962238D01*
X116532464Y-67964959D01*
X116531934Y-67966330D01*
X116531469Y-67967705D01*
X116342614Y-68439464D01*
X116341445Y-68442148D01*
X116340470Y-68444990D01*
X116339687Y-68447965D01*
X116339094Y-68451050D01*
X116338690Y-68454220D01*
X116338473Y-68457449D01*
X116338440Y-68460715D01*
X116338591Y-68463991D01*
X116338924Y-68467253D01*
X116339437Y-68470477D01*
X116340128Y-68473638D01*
X116340996Y-68476712D01*
X116342038Y-68479674D01*
X116343254Y-68482498D01*
X116344641Y-68485162D01*
X116346198Y-68487640D01*
X116689803Y-68988373D01*
X116690586Y-68989580D01*
X116691308Y-68990824D01*
X116691969Y-68992101D01*
X116692570Y-68993408D01*
X116693110Y-68994743D01*
X116693591Y-68996104D01*
X116694373Y-68998889D01*
X116694918Y-69001742D01*
X116695228Y-69004640D01*
X116695305Y-69007562D01*
X116695151Y-69010485D01*
X116694768Y-69013387D01*
X116694158Y-69016246D01*
X116693323Y-69019040D01*
X116692265Y-69021747D01*
X116690986Y-69024346D01*
X116690264Y-69025597D01*
X116689488Y-69026813D01*
X116688657Y-69027991D01*
X116687772Y-69029127D01*
X116686834Y-69030220D01*
X116685842Y-69031266D01*
X116234454Y-69482579D01*
X116233412Y-69483568D01*
X116232322Y-69484503D01*
X116231189Y-69485384D01*
X116230015Y-69486212D01*
X116228802Y-69486986D01*
X116227554Y-69487706D01*
X116226273Y-69488370D01*
X116224962Y-69488981D01*
X116223624Y-69489536D01*
X116222261Y-69490036D01*
X116219472Y-69490868D01*
X116216617Y-69491477D01*
X116213719Y-69491860D01*
X116210800Y-69492014D01*
X116207880Y-69491938D01*
X116204983Y-69491631D01*
X116203550Y-69491389D01*
X116202130Y-69491089D01*
X116200727Y-69490729D01*
X116199343Y-69490311D01*
X116197981Y-69489833D01*
X116196644Y-69489295D01*
X116195335Y-69488697D01*
X116194055Y-69488039D01*
X116192809Y-69487320D01*
X116191598Y-69486540D01*
X115699731Y-69148933D01*
X115697258Y-69147400D01*
X115694608Y-69146055D01*
X115691807Y-69144898D01*
X115688877Y-69143931D01*
X115685844Y-69143154D01*
X115682731Y-69142567D01*
X115679563Y-69142172D01*
X115676365Y-69141968D01*
X115673159Y-69141956D01*
X115669971Y-69142138D01*
X115666826Y-69142512D01*
X115663746Y-69143081D01*
X115660757Y-69143845D01*
X115657882Y-69144804D01*
X115655146Y-69145959D01*
X115652574Y-69147311D01*
X115435651Y-69263128D01*
X115434357Y-69263748D01*
X115433052Y-69264293D01*
X115431738Y-69264764D01*
X115430418Y-69265162D01*
X115429093Y-69265487D01*
X115427766Y-69265741D01*
X115426439Y-69265924D01*
X115425115Y-69266037D01*
X115423795Y-69266081D01*
X115422483Y-69266057D01*
X115421180Y-69265966D01*
X115419888Y-69265808D01*
X115418610Y-69265585D01*
X115417349Y-69265296D01*
X115416106Y-69264944D01*
X115414883Y-69264529D01*
X115413684Y-69264051D01*
X115412510Y-69263513D01*
X115411363Y-69262913D01*
X115410246Y-69262254D01*
X115409161Y-69261536D01*
X115408111Y-69260760D01*
X115407097Y-69259927D01*
X115406123Y-69259038D01*
X115405189Y-69258094D01*
X115404299Y-69257094D01*
X115403455Y-69256041D01*
X115402659Y-69254935D01*
X115401913Y-69253778D01*
X115401220Y-69252568D01*
X115400582Y-69251309D01*
X115400000Y-69250000D01*
X114952725Y-68169273D01*
X114952204Y-68167928D01*
X114951752Y-68166564D01*
X114951368Y-68165181D01*
X114951050Y-68163783D01*
X114950799Y-68162372D01*
X114950612Y-68160951D01*
X114950431Y-68158090D01*
X114950501Y-68155218D01*
X114950814Y-68152357D01*
X114951365Y-68149528D01*
X114952145Y-68146751D01*
X114953149Y-68144046D01*
X114954369Y-68141434D01*
X114955798Y-68138936D01*
X114957431Y-68136572D01*
X114959259Y-68134362D01*
X114960245Y-68133322D01*
X114961277Y-68132328D01*
X114962355Y-68131384D01*
X114963477Y-68130490D01*
X114964644Y-68129651D01*
X114965853Y-68128869D01*
X115020141Y-68095633D01*
X115024059Y-68093144D01*
X115028237Y-68090304D01*
X115032598Y-68087173D01*
X115037066Y-68083815D01*
X115041563Y-68080290D01*
X115046014Y-68076661D01*
X115050343Y-68072990D01*
X115054471Y-68069338D01*
X115090402Y-68044739D01*
X115124695Y-68018032D01*
X115157255Y-67989307D01*
X115187989Y-67958660D01*
X115216803Y-67926182D01*
X115243604Y-67891967D01*
X115268297Y-67856108D01*
X115290789Y-67818698D01*
X115310987Y-67779830D01*
X115320195Y-67759878D01*
X115328795Y-67739596D01*
X115336775Y-67718997D01*
X115344121Y-67698091D01*
X115350824Y-67676891D01*
X115356871Y-67655407D01*
X115362251Y-67633652D01*
X115366951Y-67611637D01*
X115370960Y-67589374D01*
X115374267Y-67566875D01*
X115376859Y-67544150D01*
X115378725Y-67521213D01*
X115379853Y-67498073D01*
X115380232Y-67474744D01*
X115379314Y-67438418D01*
X115376587Y-67402570D01*
X115372098Y-67367243D01*
X115365890Y-67332481D01*
X115358007Y-67298329D01*
X115348494Y-67264832D01*
X115337396Y-67232034D01*
X115324756Y-67199978D01*
X115310619Y-67168710D01*
X115295030Y-67138274D01*
X115278032Y-67108713D01*
X115259670Y-67080073D01*
X115239989Y-67052398D01*
X115219033Y-67025732D01*
X115196845Y-67000119D01*
X115173472Y-66975605D01*
X115148956Y-66952232D01*
X115123343Y-66930046D01*
X115096676Y-66909091D01*
X115069001Y-66889411D01*
X115040361Y-66871050D01*
X115010801Y-66854053D01*
X114980364Y-66838465D01*
X114949097Y-66824329D01*
X114917042Y-66811691D01*
X114884245Y-66800593D01*
X114850749Y-66791081D01*
X114816599Y-66783199D01*
X114781840Y-66776992D01*
X114746515Y-66772503D01*
X114710669Y-66769777D01*
X114674347Y-66768858D01*
X114638025Y-66769777D01*
X114602180Y-66772503D01*
X114566856Y-66776992D01*
X114532097Y-66783199D01*
X114497948Y-66791081D01*
X114464453Y-66800593D01*
X114431657Y-66811691D01*
X114399604Y-66824329D01*
X114368337Y-66838465D01*
X114337903Y-66854053D01*
X114308344Y-66871050D01*
X114279706Y-66889411D01*
X114252032Y-66909091D01*
X114225367Y-66930046D01*
X114199755Y-66952232D01*
X114175242Y-66975605D01*
X114151870Y-67000119D01*
X114129684Y-67025732D01*
X114108730Y-67052398D01*
X114089050Y-67080073D01*
X114070690Y-67108713D01*
X114053694Y-67138274D01*
X114038106Y-67168710D01*
X114023971Y-67199978D01*
X114011332Y-67232034D01*
X114000235Y-67264832D01*
X113990723Y-67298329D01*
X113982841Y-67332481D01*
X113976633Y-67367243D01*
X113972145Y-67402570D01*
X113969419Y-67438418D01*
X113968500Y-67474744D01*
X113970007Y-67521213D01*
X113974464Y-67566875D01*
X113981778Y-67611637D01*
X113991856Y-67655407D01*
X114004604Y-67698091D01*
X114019927Y-67739596D01*
X114037734Y-67779830D01*
X114057929Y-67818698D01*
X114080420Y-67856108D01*
X114105112Y-67891967D01*
X114131913Y-67926182D01*
X114160728Y-67958660D01*
X114191464Y-67989307D01*
X114224027Y-68018032D01*
X114258324Y-68044739D01*
X114294261Y-68069338D01*
X114298367Y-68072990D01*
X114302680Y-68076661D01*
X114307122Y-68080290D01*
X114311615Y-68083815D01*
X114316079Y-68087173D01*
X114320437Y-68090304D01*
X114324609Y-68093144D01*
X114328516Y-68095633D01*
X114382804Y-68128869D01*
X114384006Y-68129651D01*
X114385167Y-68130490D01*
X114386284Y-68131384D01*
X114387357Y-68132328D01*
X114388385Y-68133322D01*
X114389367Y-68134362D01*
X114390302Y-68135447D01*
X114391189Y-68136572D01*
X114392028Y-68137736D01*
X114392818Y-68138936D01*
X114393557Y-68140169D01*
X114394245Y-68141434D01*
X114394882Y-68142727D01*
X114395465Y-68144046D01*
X114395995Y-68145388D01*
X114396470Y-68146751D01*
X114396889Y-68148132D01*
X114397252Y-68149528D01*
X114397558Y-68150938D01*
X114397806Y-68152357D01*
X114397995Y-68153785D01*
X114398124Y-68155218D01*
X114398192Y-68156654D01*
X114398199Y-68158090D01*
X114398143Y-68159523D01*
X114398024Y-68160951D01*
X114397841Y-68162372D01*
X114397593Y-68163783D01*
X114397279Y-68165181D01*
X114396898Y-68166564D01*
X114396449Y-68167928D01*
X114395932Y-68169273D01*
X113948694Y-69250038D01*
X113948113Y-69251347D01*
X113947475Y-69252606D01*
X113946783Y-69253814D01*
X113946037Y-69254972D01*
X113945242Y-69256077D01*
X113944399Y-69257129D01*
X113943510Y-69258127D01*
X113942577Y-69259071D01*
X113941604Y-69259959D01*
X113940591Y-69260791D01*
X113939542Y-69261565D01*
X113938458Y-69262282D01*
X113937343Y-69262940D01*
X113936197Y-69263538D01*
X113935024Y-69264076D01*
X113933826Y-69264553D01*
X113932604Y-69264967D01*
X113931361Y-69265319D01*
X113930100Y-69265606D01*
X113928823Y-69265829D01*
X113927531Y-69265987D01*
X113926228Y-69266079D01*
X113924915Y-69266103D01*
X113923595Y-69266059D01*
X113922270Y-69265947D01*
X113920942Y-69265765D01*
X113919614Y-69265513D01*
X113918287Y-69265189D01*
X113916965Y-69264794D01*
X113915648Y-69264325D01*
X113914340Y-69263783D01*
X113913043Y-69263167D01*
X113696121Y-69147348D01*
X113693542Y-69145996D01*
X113690802Y-69144840D01*
X113687924Y-69143879D01*
X113684933Y-69143114D01*
X113681852Y-69142542D01*
X113678707Y-69142165D01*
X113675520Y-69141982D01*
X113672316Y-69141991D01*
X113669119Y-69142194D01*
X113665954Y-69142588D01*
X113662843Y-69143175D01*
X113659812Y-69143953D01*
X113656885Y-69144922D01*
X113654085Y-69146082D01*
X113651436Y-69147431D01*
X113648964Y-69148971D01*
X113157059Y-69486578D01*
X113155852Y-69487357D01*
X113154608Y-69488076D01*
X113153331Y-69488734D01*
X113152024Y-69489332D01*
X113150689Y-69489870D01*
X113149328Y-69490348D01*
X113146543Y-69491126D01*
X113143692Y-69491668D01*
X113140795Y-69491976D01*
X113137876Y-69492052D01*
X113134956Y-69491897D01*
X113132058Y-69491515D01*
X113129204Y-69490906D01*
X113126416Y-69490073D01*
X113123716Y-69489018D01*
X113121126Y-69487743D01*
X113119879Y-69487024D01*
X113118669Y-69486250D01*
X113117497Y-69485422D01*
X113116366Y-69484540D01*
X113115280Y-69483605D01*
X113114240Y-69482617D01*
X112662853Y-69031305D01*
X112661857Y-69030258D01*
X112660916Y-69029166D01*
X112660028Y-69028029D01*
X112659195Y-69026851D01*
X112658416Y-69025635D01*
X112657692Y-69024384D01*
X112657022Y-69023100D01*
X112656408Y-69021785D01*
X112655850Y-69020444D01*
X112655347Y-69019078D01*
X112654510Y-69016284D01*
X112653899Y-69013424D01*
X112653515Y-69010522D01*
X112653362Y-69007600D01*
X112653440Y-69004678D01*
X112653752Y-69001780D01*
X112653997Y-69000346D01*
X112654301Y-68998927D01*
X112654664Y-68997524D01*
X112655087Y-68996141D01*
X112655569Y-68994781D01*
X112656112Y-68993446D01*
X112656716Y-68992138D01*
X112657380Y-68990861D01*
X112658105Y-68989618D01*
X112658891Y-68988410D01*
X113002534Y-68487677D01*
X113004078Y-68485200D01*
X113005455Y-68482536D01*
X113006662Y-68479711D01*
X113007699Y-68476749D01*
X113008562Y-68473676D01*
X113009250Y-68470515D01*
X113009761Y-68467291D01*
X113010094Y-68464028D01*
X113010245Y-68460752D01*
X113010214Y-68457487D01*
X113009998Y-68454257D01*
X113009596Y-68451088D01*
X113009005Y-68448003D01*
X113008223Y-68445027D01*
X113007249Y-68442185D01*
X113006081Y-68439502D01*
X112817226Y-67967743D01*
X112816758Y-67966368D01*
X112816225Y-67964997D01*
X112814974Y-67962276D01*
X112813492Y-67959594D01*
X112811795Y-67956970D01*
X112809904Y-67954418D01*
X112807834Y-67951957D01*
X112805605Y-67949602D01*
X112803235Y-67947371D01*
X112800741Y-67945279D01*
X112798142Y-67943343D01*
X112795456Y-67941580D01*
X112792700Y-67940007D01*
X112789894Y-67938640D01*
X112787054Y-67937495D01*
X112785628Y-67937011D01*
X112784200Y-67936590D01*
X112782773Y-67936232D01*
X112781349Y-67935940D01*
X112176418Y-67823366D01*
X112175011Y-67823073D01*
X112173622Y-67822710D01*
X112172252Y-67822279D01*
X112170903Y-67821784D01*
X112169577Y-67821225D01*
X112168276Y-67820606D01*
X112167001Y-67819928D01*
X112165754Y-67819194D01*
X112164537Y-67818405D01*
X112163352Y-67817564D01*
X112162201Y-67816673D01*
X112161084Y-67815734D01*
X112160005Y-67814750D01*
X112158965Y-67813722D01*
X112157965Y-67812653D01*
X112157008Y-67811544D01*
X112156094Y-67810399D01*
X112155227Y-67809218D01*
X112154408Y-67808005D01*
X112153638Y-67806762D01*
X112152920Y-67805490D01*
X112152255Y-67804191D01*
X112151644Y-67802869D01*
X112151090Y-67801525D01*
X112150595Y-67800161D01*
X112150160Y-67798780D01*
X112149787Y-67797383D01*
X112149478Y-67795973D01*
X112149234Y-67794551D01*
X112149058Y-67793121D01*
X112148951Y-67791685D01*
X112148915Y-67790243D01*
X112148840Y-67151963D01*
X112148873Y-67150518D01*
X112148976Y-67149079D01*
X112149149Y-67147647D01*
X112149389Y-67146225D01*
X112149695Y-67144815D01*
X112150064Y-67143418D01*
X112150496Y-67142038D01*
X112150988Y-67140675D01*
X112151538Y-67139332D01*
X112152145Y-67138012D01*
X112153523Y-67135446D01*
X112155106Y-67132993D01*
X112156881Y-67130671D01*
X112158833Y-67128497D01*
X112160948Y-67126486D01*
X112163211Y-67124656D01*
X112165610Y-67123023D01*
X112166855Y-67122286D01*
X112168129Y-67121605D01*
X112169429Y-67120981D01*
X112170754Y-67120417D01*
X112172102Y-67119915D01*
X112173471Y-67119477D01*
X112174860Y-67119105D01*
X112176267Y-67118802D01*
X112796439Y-67003475D01*
X112799282Y-67002814D01*
X112802140Y-67001903D01*
X112804994Y-67000758D01*
X112807825Y-66999395D01*
X112810614Y-66997830D01*
X112813342Y-66996080D01*
X112815991Y-66994160D01*
X112818542Y-66992086D01*
X112820975Y-66989875D01*
X112823273Y-66987542D01*
X112825415Y-66985104D01*
X112827384Y-66982577D01*
X112829161Y-66979977D01*
X112830726Y-66977320D01*
X112832060Y-66974621D01*
X112833146Y-66971898D01*
X113023246Y-66528395D01*
X113024477Y-66525740D01*
X113025512Y-66522926D01*
X113026351Y-66519978D01*
X113026997Y-66516919D01*
X113027451Y-66513774D01*
X113027715Y-66510568D01*
X113027790Y-66507324D01*
X113027678Y-66504067D01*
X113027381Y-66500821D01*
X113026899Y-66497610D01*
X113026234Y-66494459D01*
X113025389Y-66491392D01*
X113024364Y-66488432D01*
X113023161Y-66485605D01*
X113021782Y-66482935D01*
X113020228Y-66480446D01*
X112658891Y-65953795D01*
X112658112Y-65952588D01*
X112657392Y-65951345D01*
X112656733Y-65950069D01*
X112656134Y-65948762D01*
X112655595Y-65947427D01*
X112655115Y-65946068D01*
X112654332Y-65943285D01*
X112653786Y-65940435D01*
X112653473Y-65937540D01*
X112653393Y-65934622D01*
X112653544Y-65931702D01*
X112653923Y-65928804D01*
X112654530Y-65925948D01*
X112655362Y-65923157D01*
X112656419Y-65920453D01*
X112657698Y-65917857D01*
X112658420Y-65916606D01*
X112659198Y-65915391D01*
X112660030Y-65914214D01*
X112660917Y-65913078D01*
X112661858Y-65911985D01*
X112662853Y-65910939D01*
X113114165Y-65459627D01*
X113115211Y-65458632D01*
X113116303Y-65457690D01*
X113117439Y-65456802D01*
X113118615Y-65455969D01*
X113119829Y-65455190D01*
X113121079Y-65454466D01*
X113122360Y-65453797D01*
X113123672Y-65453183D01*
X113125011Y-65452625D01*
X113126374Y-65452122D01*
X113129162Y-65451285D01*
X113132014Y-65450673D01*
X113134909Y-65450290D01*
X113137825Y-65450136D01*
X113140740Y-65450215D01*
X113143632Y-65450527D01*
X113145062Y-65450771D01*
X113146479Y-65451075D01*
X113147879Y-65451438D01*
X113149259Y-65451861D01*
X113150618Y-65452344D01*
X113151952Y-65452887D01*
X113153258Y-65453490D01*
X113154534Y-65454154D01*
X113155777Y-65454879D01*
X113156984Y-65455666D01*
X113692876Y-65823416D01*
X113695355Y-65824965D01*
X113698021Y-65826345D01*
X113700849Y-65827554D01*
X113703815Y-65828589D01*
X113706893Y-65829450D01*
X113710059Y-65830134D01*
X113713288Y-65830640D01*
X113716554Y-65830965D01*
X113719833Y-65831109D01*
X113723100Y-65831070D01*
X113726330Y-65830846D01*
X113729498Y-65830434D01*
X113732579Y-65829834D01*
X113735548Y-65829044D01*
X113738381Y-65828062D01*
X113741052Y-65826886D01*
X114170974Y-65650896D01*
X114172341Y-65650410D01*
X114173704Y-65649859D01*
X114175061Y-65649245D01*
X114176410Y-65648571D01*
X114179074Y-65647050D01*
X114181681Y-65645316D01*
X114184216Y-65643386D01*
X114186661Y-65641280D01*
X114189000Y-65639016D01*
X114191218Y-65636612D01*
X114193299Y-65634088D01*
X114195226Y-65631462D01*
X114196984Y-65628752D01*
X114198555Y-65625978D01*
X114199925Y-65623157D01*
X114201077Y-65620309D01*
X114201995Y-65617452D01*
X114202362Y-65616026D01*
X114202663Y-65614604D01*
X114322065Y-64973155D01*
X114322362Y-64971745D01*
X114322727Y-64970353D01*
X114323160Y-64968980D01*
X114323657Y-64967629D01*
X114324216Y-64966302D01*
X114324836Y-64964999D01*
X114325514Y-64963723D01*
X114326248Y-64962475D01*
X114327036Y-64961258D01*
X114327875Y-64960072D01*
X114328765Y-64958921D01*
X114329702Y-64957805D01*
X114330684Y-64956726D01*
X114331710Y-64955686D01*
X114332777Y-64954687D01*
X114333883Y-64953731D01*
X114335025Y-64952818D01*
X114336203Y-64951952D01*
X114337413Y-64951134D01*
X114338654Y-64950366D01*
X114339923Y-64949648D01*
X114341219Y-64948984D01*
X114342538Y-64948375D01*
X114343880Y-64947822D01*
X114345241Y-64947328D01*
X114346621Y-64946894D01*
X114348016Y-64946522D01*
X114349424Y-64946214D01*
X114350844Y-64945971D01*
X114352273Y-64945795D01*
X114353709Y-64945688D01*
X114355150Y-64945653D01*
X114993469Y-64945653D01*
X114994906Y-64945688D01*
G37*
D10*
X92619785Y-55309760D02*
X92620399Y-55310408D01*
X92650880Y-55421176D02*
X92650008Y-55422863D01*
X93495556Y-55547214D02*
X93500644Y-55519980D01*
X93650631Y-55709139D02*
X93656370Y-55710235D01*
X93805354Y-55578513D02*
X93808233Y-55570464D01*
X92611316Y-55308654D02*
X92612242Y-55307917D01*
X93708569Y-55702759D02*
X93713688Y-55697979D01*
X92648103Y-55425974D02*
X92647071Y-55427393D01*
D12*
X128800000Y-99100000D02*
X129800000Y-99100000D01*
D10*
X93207690Y-55557448D02*
X93210356Y-55563651D01*
X93319592Y-55696477D02*
X93327377Y-55699201D01*
X93694097Y-55711395D02*
X93697784Y-55710418D01*
X94301398Y-55390218D02*
X94300646Y-55390594D01*
X92657058Y-55379170D02*
X92657288Y-55384681D01*
X92593556Y-55366199D02*
X92595127Y-55357873D01*
X92657047Y-55395201D02*
X92656581Y-55400166D01*
X92625316Y-55309430D02*
X92627259Y-55310238D01*
X93814625Y-55418317D02*
X93815130Y-55422805D01*
X93812548Y-55476915D02*
X93812270Y-55477443D01*
X93510267Y-55468522D02*
X93514448Y-55449057D01*
X93662247Y-55711133D02*
X93668149Y-55711817D01*
X92680278Y-55417692D02*
X92680319Y-55419210D01*
X94284012Y-55380225D02*
X94282905Y-55364318D01*
X93477125Y-55614697D02*
X93479332Y-55610481D01*
X93446170Y-55659304D02*
X93449762Y-55654946D01*
X92657288Y-55384681D02*
X92657284Y-55390032D01*
X92673135Y-55393102D02*
X92676008Y-55400196D01*
X92618451Y-55308463D02*
X92619135Y-55309111D01*
X93771635Y-55634549D02*
X93781619Y-55622261D01*
X93813337Y-55553827D02*
X93815534Y-55545376D01*
X93808233Y-55570464D02*
X93810899Y-55562212D01*
X92597505Y-55418053D02*
X92596151Y-55416263D01*
X93481316Y-55606391D02*
X93483454Y-55600609D01*
X92603010Y-55326799D02*
X92605158Y-55320563D01*
X93815898Y-55442151D02*
X93815891Y-55446642D01*
X94307191Y-55378839D02*
X94307134Y-55379990D01*
X92645594Y-55454807D02*
X92640112Y-55451617D01*
X93816202Y-55442802D02*
X93813947Y-55432729D01*
D11*
G36*
X53837648Y-71931296D02*
G01*
X53542227Y-71931296D01*
X53542227Y-71614774D01*
X53837648Y-71614774D01*
X53837648Y-71931296D01*
G37*
D10*
X93811982Y-55477929D02*
X93811682Y-55478375D01*
X92678250Y-55406887D02*
X92679766Y-55413074D01*
X93463283Y-55636949D02*
X93466374Y-55632410D01*
X92619255Y-55437926D02*
X92614535Y-55434346D01*
X92620692Y-55310733D02*
X92620976Y-55311057D01*
X92609356Y-55311296D02*
X92610352Y-55309789D01*
X93813541Y-55474342D02*
X93813067Y-55475724D01*
X93668149Y-55711817D02*
X93673965Y-55712269D01*
X93557505Y-55557101D02*
X93572773Y-55596320D01*
X94304487Y-55387703D02*
X94303960Y-55388296D01*
X93803493Y-55381392D02*
X93805362Y-55385442D01*
X92635763Y-55434564D02*
X92633066Y-55434825D01*
X93815534Y-55545376D02*
X93817474Y-55536929D01*
X92652461Y-55417556D02*
X92651698Y-55419407D01*
X92627259Y-55310238D02*
X92629176Y-55311188D01*
X93221256Y-55392326D02*
X93217751Y-55403952D01*
X93460061Y-55641493D02*
X93463283Y-55636949D01*
X93205833Y-55552444D02*
X93207690Y-55557448D01*
X93425037Y-55681470D02*
X93428301Y-55678531D01*
X93456723Y-55646021D02*
X93460061Y-55641493D01*
X93363544Y-55708983D02*
X93369115Y-55709785D01*
X92680056Y-55423714D02*
X92679841Y-55425201D01*
X93813067Y-55475724D02*
X93812548Y-55476915D01*
X93732208Y-55679065D02*
X93745875Y-55664187D01*
X92672442Y-55442782D02*
X92670368Y-55445719D01*
X92605158Y-55320563D02*
X92607288Y-55315330D01*
X93377327Y-55709792D02*
X93380105Y-55709069D01*
X93625421Y-55699420D02*
X93626582Y-55700383D01*
X93815130Y-55422805D02*
X93815502Y-55427449D01*
X92623479Y-55433848D02*
X92619770Y-55432916D01*
X92629379Y-55444927D02*
X92624219Y-55441458D01*
X92595127Y-55357873D02*
X92596902Y-55349575D01*
X94304968Y-55387061D02*
X94304487Y-55387703D01*
X94296708Y-55335611D02*
X94301338Y-55350482D01*
X92598981Y-55419853D02*
X92597505Y-55418053D01*
X92607043Y-55428229D02*
X92602253Y-55426016D01*
X93442524Y-55663564D02*
X93446170Y-55659304D01*
X94268278Y-55335956D02*
X94292000Y-55320743D01*
X93453285Y-55650512D02*
X93456723Y-55646021D01*
X94305052Y-55363491D02*
X94305491Y-55365364D01*
X93679580Y-55712470D02*
X93684882Y-55712403D01*
X92654936Y-55361896D02*
X92655884Y-55367756D01*
X92674280Y-55439857D02*
X92672442Y-55442782D01*
X94307159Y-55376341D02*
X94307199Y-55377623D01*
X93335189Y-55701743D02*
X93342871Y-55704048D01*
X92679841Y-55425201D02*
X92679563Y-55426681D01*
X94307199Y-55377623D02*
X94307191Y-55378839D01*
X93265812Y-55660245D02*
X93270744Y-55666981D01*
X92617735Y-55307815D02*
X92618451Y-55308463D01*
X92651698Y-55419407D02*
X92650880Y-55421176D01*
X93200701Y-55486346D02*
X93200128Y-55495503D01*
X92649082Y-55424463D02*
X92648103Y-55425974D01*
X92591825Y-55420583D02*
X92586179Y-55417351D01*
X93656370Y-55710235D02*
X93662247Y-55711133D01*
X92633066Y-55434825D02*
X92630122Y-55434796D01*
X93517974Y-55436939D02*
X93523393Y-55455870D01*
X92634325Y-55328117D02*
X92643213Y-55340815D01*
X93260543Y-55652575D02*
X93265812Y-55660245D01*
X93697784Y-55710418D02*
X93699348Y-55709803D01*
X93815502Y-55427449D02*
X93815746Y-55432268D01*
X93282361Y-55679395D02*
X93286645Y-55682053D01*
X94301338Y-55350482D02*
X94302783Y-55355166D01*
X93403657Y-55697472D02*
X93407310Y-55695083D01*
D12*
X129300000Y-103650000D02*
X129300000Y-102650000D01*
D10*
X92602280Y-55423472D02*
X92598981Y-55419853D01*
X94307030Y-55381078D02*
X94306877Y-55382104D01*
X93207832Y-55439718D02*
X93205886Y-55449002D01*
X93375690Y-55710007D02*
X93377327Y-55709792D01*
X92642416Y-55432098D02*
X92640433Y-55433195D01*
X93802276Y-55586291D02*
X93805354Y-55578513D01*
X94302770Y-55389344D02*
X94302107Y-55389802D01*
X93407310Y-55695083D02*
X93410960Y-55692560D01*
X92644849Y-55325816D02*
X92645495Y-55327098D01*
X93350263Y-55706059D02*
X93357207Y-55707723D01*
X92596902Y-55349575D02*
X92598837Y-55341500D01*
X92680002Y-55414624D02*
X92680173Y-55416163D01*
X92615220Y-55307544D02*
X92617290Y-55307632D01*
X92645495Y-55327098D02*
X92646153Y-55328582D01*
X93414582Y-55689920D02*
X93418153Y-55687181D01*
X92592077Y-55409228D02*
X92591422Y-55407511D01*
X93812278Y-55405570D02*
X93813203Y-55409721D01*
X93469320Y-55627894D02*
X93472104Y-55623424D01*
X92610102Y-55430733D02*
X92606002Y-55427103D01*
X93466374Y-55632410D02*
X93469320Y-55627894D01*
X93514448Y-55449057D02*
X93516304Y-55441931D01*
X94306877Y-55382104D02*
X94306677Y-55383071D01*
X92616988Y-55307167D02*
X92617735Y-55307815D01*
X93627961Y-55701326D02*
X93631316Y-55703140D01*
X93389518Y-55705366D02*
X93392932Y-55703676D01*
X94302107Y-55389802D02*
X94301398Y-55390218D01*
X93227210Y-55596911D02*
X93238012Y-55616118D01*
X93614939Y-55685432D02*
X93620507Y-55693680D01*
X94303960Y-55388296D02*
X94303388Y-55388842D01*
X92616212Y-55306519D02*
X92616988Y-55307167D01*
X92586179Y-55417351D02*
X92580238Y-55413768D01*
X92612242Y-55307917D02*
X92613125Y-55307601D01*
X93689759Y-55712051D02*
X93694097Y-55711395D01*
X93815628Y-55458026D02*
X93815459Y-55461174D01*
X92591207Y-55382154D02*
X92592235Y-55374358D01*
X92590518Y-55389393D02*
X92591207Y-55382154D01*
X93799015Y-55593728D02*
X93802276Y-55586291D01*
X94303388Y-55388842D02*
X94302770Y-55389344D01*
X93822823Y-55497168D02*
X93822921Y-55490192D01*
X92626662Y-55317923D02*
X92634325Y-55328117D01*
X94302783Y-55355166D02*
X94304020Y-55359497D01*
X93799239Y-55373098D02*
X93801453Y-55377285D01*
X92680208Y-55422221D02*
X92680056Y-55423714D01*
X92679563Y-55426681D02*
X92679223Y-55428156D01*
X93699348Y-55709803D02*
X93700706Y-55709102D01*
X92655884Y-55367756D02*
X92656591Y-55373521D01*
X92670368Y-55445719D02*
X92668061Y-55448675D01*
X92624884Y-55357745D02*
X92624572Y-55347713D01*
X93813203Y-55409721D02*
X93813984Y-55413963D01*
X92630122Y-55434796D02*
X92626928Y-55434472D01*
X92659772Y-55457711D02*
X92656562Y-55460800D01*
X93200128Y-55495503D02*
X93199872Y-55504497D01*
X94306505Y-55370514D02*
X94306743Y-55372079D01*
X93490521Y-55572280D02*
X93495556Y-55547214D01*
X93812270Y-55477443D02*
X93811982Y-55477929D01*
X93369115Y-55709785D02*
X93373763Y-55710073D01*
X93815844Y-55450775D02*
X93815757Y-55454564D01*
X93631316Y-55703140D02*
X93635373Y-55704847D01*
X93380105Y-55709069D02*
X93383079Y-55708079D01*
X92607288Y-55315330D02*
X92609356Y-55311296D01*
X93815247Y-55464025D02*
X93814993Y-55466593D01*
X93572773Y-55596320D02*
X93587907Y-55632022D01*
X92656562Y-55460800D02*
X92651092Y-55457873D01*
X94300646Y-55390594D02*
X94251955Y-55326618D01*
X93479332Y-55610481D02*
X93481316Y-55606391D01*
X93815891Y-55446642D02*
X93815844Y-55450775D01*
X94306134Y-55384830D02*
X94305792Y-55385627D01*
X93813947Y-55432729D02*
X93809131Y-55413291D01*
X93822381Y-55504561D02*
X93822823Y-55497168D01*
X92644215Y-55324734D02*
X92644849Y-55325816D01*
D12*
X132880180Y-102787030D02*
X132880180Y-102291792D01*
X132880180Y-102291792D02*
X132499228Y-102558458D01*
X132499228Y-102558458D02*
X132499228Y-102444173D01*
X132499228Y-102444173D02*
X132451609Y-102367982D01*
X132451609Y-102367982D02*
X132403990Y-102329887D01*
X132403990Y-102329887D02*
X132308752Y-102291792D01*
X132308752Y-102291792D02*
X132070657Y-102291792D01*
X132070657Y-102291792D02*
X131975419Y-102329887D01*
X131975419Y-102329887D02*
X131927800Y-102367982D01*
X131927800Y-102367982D02*
X131880180Y-102444173D01*
X131880180Y-102444173D02*
X131880180Y-102672744D01*
X131880180Y-102672744D02*
X131927800Y-102748935D01*
X131927800Y-102748935D02*
X131975419Y-102787030D01*
X131975419Y-101948934D02*
X131927800Y-101910839D01*
X131927800Y-101910839D02*
X131880180Y-101948934D01*
X131880180Y-101948934D02*
X131927800Y-101987030D01*
X131927800Y-101987030D02*
X131975419Y-101948934D01*
X131975419Y-101948934D02*
X131880180Y-101948934D01*
X132880180Y-101644173D02*
X132880180Y-101110839D01*
X132880180Y-101110839D02*
X131880180Y-101453697D01*
X132880180Y-100920363D02*
X131880180Y-100653696D01*
X131880180Y-100653696D02*
X132880180Y-100387030D01*
X131880180Y-99129887D02*
X131880180Y-99510839D01*
X131880180Y-99510839D02*
X132880180Y-99510839D01*
X131880180Y-98863220D02*
X132546847Y-98863220D01*
X132880180Y-98863220D02*
X132832561Y-98901316D01*
X132832561Y-98901316D02*
X132784942Y-98863220D01*
X132784942Y-98863220D02*
X132832561Y-98825125D01*
X132832561Y-98825125D02*
X132880180Y-98863220D01*
X132880180Y-98863220D02*
X132784942Y-98863220D01*
X131880180Y-98482268D02*
X132880180Y-98482268D01*
X132880180Y-98482268D02*
X132880180Y-98177506D01*
X132880180Y-98177506D02*
X132832561Y-98101316D01*
X132832561Y-98101316D02*
X132784942Y-98063221D01*
X132784942Y-98063221D02*
X132689704Y-98025125D01*
X132689704Y-98025125D02*
X132546847Y-98025125D01*
X132546847Y-98025125D02*
X132451609Y-98063221D01*
X132451609Y-98063221D02*
X132403990Y-98101316D01*
X132403990Y-98101316D02*
X132356371Y-98177506D01*
X132356371Y-98177506D02*
X132356371Y-98482268D01*
X131880180Y-97567983D02*
X131927800Y-97644173D01*
X131927800Y-97644173D02*
X131975419Y-97682268D01*
X131975419Y-97682268D02*
X132070657Y-97720364D01*
X132070657Y-97720364D02*
X132356371Y-97720364D01*
X132356371Y-97720364D02*
X132451609Y-97682268D01*
X132451609Y-97682268D02*
X132499228Y-97644173D01*
X132499228Y-97644173D02*
X132546847Y-97567983D01*
X132546847Y-97567983D02*
X132546847Y-97453697D01*
X132546847Y-97453697D02*
X132499228Y-97377506D01*
X132499228Y-97377506D02*
X132451609Y-97339411D01*
X132451609Y-97339411D02*
X132356371Y-97301316D01*
X132356371Y-97301316D02*
X132070657Y-97301316D01*
X132070657Y-97301316D02*
X131975419Y-97339411D01*
X131975419Y-97339411D02*
X131927800Y-97377506D01*
X131927800Y-97377506D02*
X131880180Y-97453697D01*
X131880180Y-97453697D02*
X131880180Y-97567983D01*
D13*
G36*
X74475581Y-63746069D02*
G01*
X74542825Y-63755422D01*
X74590302Y-63767975D01*
X74633992Y-63785622D01*
X74708902Y-63833994D01*
X74765280Y-63888152D01*
X74604568Y-64046898D01*
X74569844Y-64011828D01*
X74533876Y-63986189D01*
X74504217Y-63972680D01*
X74471035Y-63963858D01*
X74408551Y-63958763D01*
X74357619Y-63961533D01*
X74315274Y-63969985D01*
X74286441Y-63981428D01*
X74263006Y-63997026D01*
X74246190Y-64014926D01*
X74233492Y-64036452D01*
X74219603Y-64092709D01*
X74218432Y-64119475D01*
X74218432Y-64170424D01*
X74455568Y-64170424D01*
X74512744Y-64173101D01*
X74564670Y-64180896D01*
X74610429Y-64193130D01*
X74651281Y-64209592D01*
X74686849Y-64229666D01*
X74717743Y-64253221D01*
X74765879Y-64309749D01*
X74796349Y-64378254D01*
X74808268Y-64458114D01*
X74808364Y-64466373D01*
X74805650Y-64513188D01*
X74797594Y-64557959D01*
X74784628Y-64599325D01*
X74766770Y-64637621D01*
X74724076Y-64695644D01*
X74695070Y-64720759D01*
X74662155Y-64741915D01*
X74584240Y-64772050D01*
X74486411Y-64785404D01*
X74463432Y-64785830D01*
X74405912Y-64783040D01*
X74356385Y-64774451D01*
X74318848Y-64762214D01*
X74284640Y-64745260D01*
X74220687Y-64695611D01*
X74212534Y-64687608D01*
X74212534Y-64777196D01*
X73963602Y-64776000D01*
X73963602Y-64399182D01*
X74218432Y-64399182D01*
X74221452Y-64452232D01*
X74231645Y-64492878D01*
X74257585Y-64529803D01*
X74282730Y-64549398D01*
X74308959Y-64562947D01*
X74368276Y-64576082D01*
X74408551Y-64577589D01*
X74450255Y-64574909D01*
X74485203Y-64567094D01*
X74511244Y-64555806D01*
X74531908Y-64540799D01*
X74546580Y-64523435D01*
X74556632Y-64503192D01*
X74563364Y-64461671D01*
X74560619Y-64432307D01*
X74552342Y-64406977D01*
X74540185Y-64387790D01*
X74523501Y-64371978D01*
X74476465Y-64350765D01*
X74412483Y-64343787D01*
X74218432Y-64343787D01*
X74218432Y-64399182D01*
X73963602Y-64399182D01*
X73963602Y-64103745D01*
X73966334Y-64049448D01*
X73974520Y-63999539D01*
X73987067Y-63956923D01*
X74004334Y-63918149D01*
X74025285Y-63884627D01*
X74050540Y-63854644D01*
X74113394Y-63805638D01*
X74195682Y-63769864D01*
X74302052Y-63748304D01*
X74398720Y-63743170D01*
X74475581Y-63746069D01*
G37*
G36*
X73256384Y-64776000D02*
G01*
X73256384Y-64560406D01*
X73354350Y-64560406D01*
X73384130Y-64557680D01*
X73407460Y-64549536D01*
X73422519Y-64538400D01*
X73433471Y-64523425D01*
X73444150Y-64480786D01*
X73444537Y-64468339D01*
X73444537Y-63380884D01*
X73699282Y-63380884D01*
X73699282Y-64484068D01*
X73696511Y-64528213D01*
X73688058Y-64571540D01*
X73674685Y-64610816D01*
X73655889Y-64647737D01*
X73633567Y-64679053D01*
X73606332Y-64707068D01*
X73576361Y-64729687D01*
X73541875Y-64748385D01*
X73504412Y-64762180D01*
X73462583Y-64771450D01*
X73401367Y-64776000D01*
X73256384Y-64776000D01*
G37*
G36*
X72620376Y-64776000D02*
G01*
X72620376Y-64560406D01*
X72718342Y-64560406D01*
X72748122Y-64557680D01*
X72771451Y-64549536D01*
X72786511Y-64538400D01*
X72797463Y-64523425D01*
X72808142Y-64480786D01*
X72808528Y-64468339D01*
X72808528Y-63380884D01*
X73063274Y-63380884D01*
X73063274Y-64484068D01*
X73060503Y-64528213D01*
X73052049Y-64571540D01*
X73038676Y-64610816D01*
X73019881Y-64647737D01*
X72997559Y-64679053D01*
X72970324Y-64707068D01*
X72940352Y-64729687D01*
X72905866Y-64748385D01*
X72868404Y-64762180D01*
X72826575Y-64771450D01*
X72765358Y-64776000D01*
X72620376Y-64776000D01*
G37*
G36*
X72096671Y-63744694D02*
G01*
X72148027Y-63752798D01*
X72195285Y-63765773D01*
X72239674Y-63783683D01*
X72280229Y-63805954D01*
X72317687Y-63832814D01*
X72351609Y-63863910D01*
X72382154Y-63899370D01*
X72432657Y-63983522D01*
X72467945Y-64086113D01*
X72485899Y-64208200D01*
X72487618Y-64263431D01*
X72484937Y-64337829D01*
X72477114Y-64405322D01*
X72464906Y-64464539D01*
X72448459Y-64517778D01*
X72428456Y-64564538D01*
X72404935Y-64606031D01*
X72348291Y-64674409D01*
X72278638Y-64725962D01*
X72194684Y-64762131D01*
X72094343Y-64782678D01*
X72015228Y-64786942D01*
X71947954Y-64784214D01*
X71887959Y-64776063D01*
X71838108Y-64763781D01*
X71792589Y-64746964D01*
X71711181Y-64700019D01*
X71627211Y-64626230D01*
X71782025Y-64475263D01*
X71830292Y-64517148D01*
X71881245Y-64547375D01*
X71916386Y-64559923D01*
X71956388Y-64567908D01*
X72013261Y-64571348D01*
X72054149Y-64568665D01*
X72091093Y-64560824D01*
X72123186Y-64548546D01*
X72151423Y-64531971D01*
X72195866Y-64487391D01*
X72224810Y-64427710D01*
X72236602Y-64352659D01*
X72236719Y-64343787D01*
X71597804Y-64343787D01*
X71597804Y-64235991D01*
X71600524Y-64171946D01*
X71600863Y-64169398D01*
X71848617Y-64169398D01*
X72236719Y-64169398D01*
X72230831Y-64111525D01*
X72213211Y-64059550D01*
X72197166Y-64030791D01*
X72176285Y-64005417D01*
X72152632Y-63985629D01*
X72124832Y-63970062D01*
X72094733Y-63959801D01*
X72060927Y-63954416D01*
X72042668Y-63953719D01*
X72007645Y-63956370D01*
X71976200Y-63963986D01*
X71923581Y-63992444D01*
X71884162Y-64037090D01*
X71872211Y-64059550D01*
X71858673Y-64094543D01*
X71851681Y-64129096D01*
X71848617Y-64169398D01*
X71600863Y-64169398D01*
X71608619Y-64111140D01*
X71621499Y-64055599D01*
X71639248Y-64003655D01*
X71660897Y-63957224D01*
X71686916Y-63914640D01*
X71716135Y-63877378D01*
X71749291Y-63844159D01*
X71785336Y-63815879D01*
X71824992Y-63791857D01*
X71867663Y-63772505D01*
X71913733Y-63757711D01*
X72016076Y-63742581D01*
X72042668Y-63741973D01*
X72096671Y-63744694D01*
G37*
G36*
X70564804Y-63752915D02*
G01*
X70833312Y-63752915D01*
X71037108Y-64383880D01*
X71248855Y-63752915D01*
X71517363Y-63752915D01*
X71168499Y-64701286D01*
X71211583Y-64826692D01*
X71227913Y-64865340D01*
X71247180Y-64891900D01*
X71263900Y-64904601D01*
X71283866Y-64912825D01*
X71338956Y-64918759D01*
X71397769Y-64918759D01*
X71397769Y-65148030D01*
X71297838Y-65148030D01*
X71244461Y-65145097D01*
X71193869Y-65135507D01*
X71155590Y-65122155D01*
X71119799Y-65103109D01*
X71078312Y-65069640D01*
X71035590Y-65012127D01*
X71001888Y-64938336D01*
X70564804Y-63752915D01*
G37*
G36*
X69218159Y-64647857D02*
G01*
X69390667Y-64477229D01*
X69426539Y-64511536D01*
X69462078Y-64535821D01*
X69490884Y-64548250D01*
X69521851Y-64555417D01*
X69555311Y-64557671D01*
X69591079Y-64554917D01*
X69623586Y-64546586D01*
X69650931Y-64533813D01*
X69675800Y-64516087D01*
X69700294Y-64490993D01*
X69733449Y-64431659D01*
X69752421Y-64349823D01*
X69757141Y-64263517D01*
X69754359Y-64195735D01*
X69745821Y-64138760D01*
X69734151Y-64098662D01*
X69718154Y-64064271D01*
X69700294Y-64038008D01*
X69676686Y-64013674D01*
X69650506Y-63994940D01*
X69593421Y-63974477D01*
X69555311Y-63971329D01*
X69518207Y-63974140D01*
X69484783Y-63982877D01*
X69429735Y-64014866D01*
X69390667Y-64051771D01*
X69218159Y-63879176D01*
X69257021Y-63842643D01*
X69298049Y-63811968D01*
X69339002Y-63788299D01*
X69382438Y-63769618D01*
X69477321Y-63746863D01*
X69555311Y-63741973D01*
X69612529Y-63744862D01*
X69670828Y-63754145D01*
X69721371Y-63768154D01*
X69770737Y-63788318D01*
X69812636Y-63811746D01*
X69852249Y-63840876D01*
X69885858Y-63872788D01*
X69916543Y-63910117D01*
X69942413Y-63950658D01*
X69964826Y-63996590D01*
X69982945Y-64046782D01*
X69997012Y-64102597D01*
X70006621Y-64164048D01*
X70011455Y-64231575D01*
X70011972Y-64263517D01*
X70009302Y-64334807D01*
X70001553Y-64399770D01*
X69989298Y-64457970D01*
X69972849Y-64510488D01*
X69952575Y-64557587D01*
X69928860Y-64599486D01*
X69871374Y-64669875D01*
X69801040Y-64723701D01*
X69717889Y-64761626D01*
X69622536Y-64782876D01*
X69555311Y-64786942D01*
X69497161Y-64784195D01*
X69442958Y-64775909D01*
X69395455Y-64763059D01*
X69350840Y-64745232D01*
X69270491Y-64695473D01*
X69218159Y-64647857D01*
G37*
G36*
X68770654Y-63746069D02*
G01*
X68837898Y-63755422D01*
X68885375Y-63767975D01*
X68929065Y-63785622D01*
X69003976Y-63833994D01*
X69060353Y-63888152D01*
X68899641Y-64046898D01*
X68864917Y-64011828D01*
X68828949Y-63986189D01*
X68799291Y-63972680D01*
X68766109Y-63963858D01*
X68703624Y-63958763D01*
X68652692Y-63961533D01*
X68610348Y-63969985D01*
X68581514Y-63981428D01*
X68558079Y-63997026D01*
X68541263Y-64014926D01*
X68528566Y-64036452D01*
X68514676Y-64092709D01*
X68513506Y-64119475D01*
X68513506Y-64170424D01*
X68750641Y-64170424D01*
X68807817Y-64173101D01*
X68859743Y-64180896D01*
X68905503Y-64193130D01*
X68946355Y-64209592D01*
X68981922Y-64229666D01*
X69012816Y-64253221D01*
X69060952Y-64309749D01*
X69091423Y-64378254D01*
X69103341Y-64458114D01*
X69103438Y-64466373D01*
X69100724Y-64513188D01*
X69092667Y-64557959D01*
X69079702Y-64599325D01*
X69061843Y-64637621D01*
X69019149Y-64695644D01*
X68990143Y-64720759D01*
X68957228Y-64741915D01*
X68879314Y-64772050D01*
X68781484Y-64785404D01*
X68758506Y-64785830D01*
X68700986Y-64783040D01*
X68651458Y-64774451D01*
X68613922Y-64762214D01*
X68579713Y-64745260D01*
X68515760Y-64695611D01*
X68507607Y-64687608D01*
X68507607Y-64777196D01*
X68258675Y-64776000D01*
X68258675Y-64399182D01*
X68513506Y-64399182D01*
X68516525Y-64452232D01*
X68526718Y-64492878D01*
X68552658Y-64529803D01*
X68577804Y-64549398D01*
X68604033Y-64562947D01*
X68663350Y-64576082D01*
X68703624Y-64577589D01*
X68745328Y-64574909D01*
X68780276Y-64567094D01*
X68806318Y-64555806D01*
X68826982Y-64540799D01*
X68841654Y-64523435D01*
X68851705Y-64503192D01*
X68858438Y-64461671D01*
X68855692Y-64432307D01*
X68847416Y-64406977D01*
X68835259Y-64387790D01*
X68818574Y-64371978D01*
X68771538Y-64350765D01*
X68707557Y-64343787D01*
X68513506Y-64343787D01*
X68513506Y-64399182D01*
X68258675Y-64399182D01*
X68258675Y-64103745D01*
X68261408Y-64049448D01*
X68269594Y-63999539D01*
X68282140Y-63956923D01*
X68299408Y-63918149D01*
X68320358Y-63884627D01*
X68345613Y-63854644D01*
X68408467Y-63805638D01*
X68490755Y-63769864D01*
X68597126Y-63748304D01*
X68693794Y-63743170D01*
X68770654Y-63746069D01*
G37*
G36*
X67525983Y-64776000D02*
G01*
X67525983Y-64560406D01*
X67618050Y-64560406D01*
X67645497Y-64557706D01*
X67667632Y-64549746D01*
X67683015Y-64538390D01*
X67694419Y-64523172D01*
X67705849Y-64480396D01*
X67706271Y-64468168D01*
X67706271Y-63977228D01*
X67525983Y-63977228D01*
X67525983Y-63783262D01*
X67706271Y-63783262D01*
X67706271Y-63484834D01*
X67961102Y-63484834D01*
X67961102Y-63783262D01*
X68068898Y-63783262D01*
X68068898Y-63977228D01*
X67961102Y-63977228D01*
X67961102Y-64483897D01*
X67958333Y-64528068D01*
X67949897Y-64571412D01*
X67936531Y-64610781D01*
X67917757Y-64647781D01*
X67895454Y-64679180D01*
X67868259Y-64707254D01*
X67838361Y-64729896D01*
X67803985Y-64748592D01*
X67766702Y-64762348D01*
X67725105Y-64771558D01*
X67665153Y-64776000D01*
X67525983Y-64776000D01*
G37*
G36*
X66501165Y-63744694D02*
G01*
X66552521Y-63752798D01*
X66599779Y-63765773D01*
X66644168Y-63783683D01*
X66684723Y-63805954D01*
X66722181Y-63832814D01*
X66756103Y-63863910D01*
X66786648Y-63899370D01*
X66837151Y-63983522D01*
X66872439Y-64086113D01*
X66890393Y-64208200D01*
X66892112Y-64263431D01*
X66889431Y-64337829D01*
X66881608Y-64405322D01*
X66869400Y-64464539D01*
X66852953Y-64517778D01*
X66832950Y-64564538D01*
X66809429Y-64606031D01*
X66752785Y-64674409D01*
X66683132Y-64725962D01*
X66599178Y-64762131D01*
X66498837Y-64782678D01*
X66419722Y-64786942D01*
X66352448Y-64784214D01*
X66292453Y-64776063D01*
X66242602Y-64763781D01*
X66197083Y-64746964D01*
X66115675Y-64700019D01*
X66031705Y-64626230D01*
X66186519Y-64475263D01*
X66234786Y-64517148D01*
X66285739Y-64547375D01*
X66320880Y-64559923D01*
X66360882Y-64567908D01*
X66417756Y-64571348D01*
X66458643Y-64568665D01*
X66495587Y-64560824D01*
X66527680Y-64548546D01*
X66555917Y-64531971D01*
X66600360Y-64487391D01*
X66629304Y-64427710D01*
X66641096Y-64352659D01*
X66641213Y-64343787D01*
X66002298Y-64343787D01*
X66002298Y-64235991D01*
X66005018Y-64171946D01*
X66005357Y-64169398D01*
X66253111Y-64169398D01*
X66641213Y-64169398D01*
X66635326Y-64111525D01*
X66617705Y-64059550D01*
X66601660Y-64030791D01*
X66580779Y-64005417D01*
X66557127Y-63985629D01*
X66529326Y-63970062D01*
X66499227Y-63959801D01*
X66465421Y-63954416D01*
X66447162Y-63953719D01*
X66412139Y-63956370D01*
X66380694Y-63963986D01*
X66328075Y-63992444D01*
X66288656Y-64037090D01*
X66276705Y-64059550D01*
X66263167Y-64094543D01*
X66256176Y-64129096D01*
X66253111Y-64169398D01*
X66005357Y-64169398D01*
X66013113Y-64111140D01*
X66025993Y-64055599D01*
X66043742Y-64003655D01*
X66065391Y-63957224D01*
X66091410Y-63914640D01*
X66120629Y-63877378D01*
X66153785Y-63844159D01*
X66189831Y-63815879D01*
X66229486Y-63791857D01*
X66272157Y-63772505D01*
X66318227Y-63757711D01*
X66420570Y-63742581D01*
X66447162Y-63741973D01*
X66501165Y-63744694D01*
G37*
G36*
X64918776Y-64776000D02*
G01*
X64918776Y-64123407D01*
X64921853Y-64056417D01*
X64932452Y-63993301D01*
X64946173Y-63949470D01*
X64965836Y-63907626D01*
X64989115Y-63871853D01*
X65018368Y-63837612D01*
X65022640Y-63833271D01*
X65052271Y-63807525D01*
X65085767Y-63785747D01*
X65122913Y-63768209D01*
X65163611Y-63755116D01*
X65208076Y-63746667D01*
X65255844Y-63743236D01*
X65263708Y-63743170D01*
X65309020Y-63745906D01*
X65353637Y-63754118D01*
X65396203Y-63767547D01*
X65436786Y-63786287D01*
X65473308Y-63809300D01*
X65506824Y-63837222D01*
X65518539Y-63849000D01*
X65518539Y-63753770D01*
X65767471Y-63753770D01*
X65767471Y-64776000D01*
X65512640Y-64776000D01*
X65512640Y-64157772D01*
X65510007Y-64118375D01*
X65502512Y-64084321D01*
X65490871Y-64055538D01*
X65475642Y-64031471D01*
X65435183Y-63995408D01*
X65382331Y-63974975D01*
X65342098Y-63970902D01*
X65308363Y-63973759D01*
X65275275Y-63982818D01*
X65248276Y-63996279D01*
X65223946Y-64015442D01*
X65205466Y-64037527D01*
X65190569Y-64064777D01*
X65180404Y-64095627D01*
X65174673Y-64131681D01*
X65173607Y-64157430D01*
X65173607Y-64776000D01*
X64918776Y-64776000D01*
G37*
G36*
X64387291Y-63743895D02*
G01*
X64433365Y-63751793D01*
X64476373Y-63764605D01*
X64515873Y-63782077D01*
X64550456Y-63803317D01*
X64580721Y-63828483D01*
X64583760Y-63831476D01*
X64610716Y-63862306D01*
X64632584Y-63895360D01*
X64663941Y-63971235D01*
X64681706Y-64069724D01*
X64687625Y-64235905D01*
X64681720Y-64402464D01*
X64670775Y-64474307D01*
X64651331Y-64538991D01*
X64632744Y-64577833D01*
X64608767Y-64613824D01*
X64583760Y-64642130D01*
X64522449Y-64688151D01*
X64444196Y-64719338D01*
X64399341Y-64728260D01*
X64351749Y-64732095D01*
X64340727Y-64732231D01*
X64288252Y-64729375D01*
X64239968Y-64720324D01*
X64202017Y-64707287D01*
X64166416Y-64688857D01*
X64104075Y-64637301D01*
X64097693Y-64630333D01*
X64097693Y-64734283D01*
X64100535Y-64775706D01*
X64109486Y-64815999D01*
X64122732Y-64848925D01*
X64141500Y-64878825D01*
X64162743Y-64901676D01*
X64188799Y-64920774D01*
X64217394Y-64934500D01*
X64250558Y-64943916D01*
X64303455Y-64948850D01*
X64350898Y-64946056D01*
X64392914Y-64937438D01*
X64426407Y-64924775D01*
X64457621Y-64907102D01*
X64503405Y-64869435D01*
X64662150Y-65031172D01*
X64620005Y-65067973D01*
X64577005Y-65097918D01*
X64535143Y-65120341D01*
X64491402Y-65137622D01*
X64393598Y-65158892D01*
X64291744Y-65164443D01*
X64234437Y-65161748D01*
X64180359Y-65153819D01*
X64130075Y-65141022D01*
X64083289Y-65123546D01*
X64040423Y-65101776D01*
X64001323Y-65075844D01*
X63966241Y-65046067D01*
X63935215Y-65012605D01*
X63885875Y-64935371D01*
X63854557Y-64845458D01*
X63842896Y-64744192D01*
X63842862Y-64738215D01*
X63842862Y-64235905D01*
X64097693Y-64235905D01*
X64101792Y-64326286D01*
X64108450Y-64368199D01*
X64119545Y-64406423D01*
X64134096Y-64436618D01*
X64153767Y-64462133D01*
X64174389Y-64479095D01*
X64199417Y-64491857D01*
X64227618Y-64499668D01*
X64260515Y-64502896D01*
X64266269Y-64502960D01*
X64301211Y-64500299D01*
X64330947Y-64492607D01*
X64354929Y-64480933D01*
X64374877Y-64465438D01*
X64405120Y-64422465D01*
X64424469Y-64358765D01*
X64432615Y-64263884D01*
X64432879Y-64235905D01*
X64428477Y-64140837D01*
X64421099Y-64097300D01*
X64408602Y-64058156D01*
X64393602Y-64030160D01*
X64373595Y-64006736D01*
X64352415Y-63991123D01*
X64326799Y-63979671D01*
X64266269Y-63970902D01*
X64231026Y-63973564D01*
X64201003Y-63981259D01*
X64176766Y-63992941D01*
X64156580Y-64008450D01*
X64125955Y-64051394D01*
X64106303Y-64114879D01*
X64097959Y-64209051D01*
X64097693Y-64235905D01*
X63842862Y-64235905D01*
X63842862Y-63754881D01*
X64089828Y-63754881D01*
X64089828Y-63850966D01*
X64124902Y-63815290D01*
X64160966Y-63787338D01*
X64194316Y-63768673D01*
X64229892Y-63755148D01*
X64311190Y-63741899D01*
X64338760Y-63741204D01*
X64387291Y-63743895D01*
G37*
G36*
X63302340Y-64776000D02*
G01*
X63302340Y-63782065D01*
X63557171Y-63782065D01*
X63557171Y-64776000D01*
X63302340Y-64776000D01*
G37*
G36*
X63300374Y-63577756D02*
G01*
X63300374Y-63369942D01*
X63561103Y-63369942D01*
X63561103Y-63577756D01*
X63300374Y-63577756D01*
G37*
G36*
X62169579Y-64776000D02*
G01*
X62169579Y-64123407D01*
X62172656Y-64056417D01*
X62183254Y-63993301D01*
X62196975Y-63949470D01*
X62216638Y-63907626D01*
X62239917Y-63871853D01*
X62269171Y-63837612D01*
X62273443Y-63833271D01*
X62303073Y-63807525D01*
X62336570Y-63785747D01*
X62373715Y-63768209D01*
X62414413Y-63755116D01*
X62458878Y-63746667D01*
X62506646Y-63743236D01*
X62514511Y-63743170D01*
X62559823Y-63745906D01*
X62604440Y-63754118D01*
X62647005Y-63767547D01*
X62687588Y-63786287D01*
X62724110Y-63809300D01*
X62757627Y-63837222D01*
X62769341Y-63849000D01*
X62769341Y-63753770D01*
X63018274Y-63753770D01*
X63018274Y-64776000D01*
X62763443Y-64776000D01*
X62763443Y-64157772D01*
X62760809Y-64118375D01*
X62753314Y-64084321D01*
X62741674Y-64055538D01*
X62726444Y-64031471D01*
X62685986Y-63995408D01*
X62633134Y-63974975D01*
X62592900Y-63970902D01*
X62559166Y-63973759D01*
X62526078Y-63982818D01*
X62499078Y-63996279D01*
X62474749Y-64015442D01*
X62456268Y-64037527D01*
X62441371Y-64064777D01*
X62431207Y-64095627D01*
X62425476Y-64131681D01*
X62424409Y-64157430D01*
X62424409Y-64776000D01*
X62169579Y-64776000D01*
G37*
G36*
X61555345Y-63744694D02*
G01*
X61606701Y-63752798D01*
X61653959Y-63765773D01*
X61698348Y-63783683D01*
X61738903Y-63805954D01*
X61776361Y-63832814D01*
X61810283Y-63863910D01*
X61840828Y-63899370D01*
X61891331Y-63983522D01*
X61926619Y-64086113D01*
X61944573Y-64208200D01*
X61946292Y-64263431D01*
X61943611Y-64337829D01*
X61935788Y-64405322D01*
X61923580Y-64464539D01*
X61907133Y-64517778D01*
X61887130Y-64564538D01*
X61863609Y-64606031D01*
X61806965Y-64674409D01*
X61737312Y-64725962D01*
X61653358Y-64762131D01*
X61553017Y-64782678D01*
X61473902Y-64786942D01*
X61406628Y-64784214D01*
X61346633Y-64776063D01*
X61296782Y-64763781D01*
X61251263Y-64746964D01*
X61169855Y-64700019D01*
X61085885Y-64626230D01*
X61240699Y-64475263D01*
X61288966Y-64517148D01*
X61339919Y-64547375D01*
X61375060Y-64559923D01*
X61415062Y-64567908D01*
X61471936Y-64571348D01*
X61512823Y-64568665D01*
X61549767Y-64560824D01*
X61581860Y-64548546D01*
X61610097Y-64531971D01*
X61654540Y-64487391D01*
X61683484Y-64427710D01*
X61695276Y-64352659D01*
X61695393Y-64343787D01*
X61056478Y-64343787D01*
X61056478Y-64235991D01*
X61059198Y-64171946D01*
X61059537Y-64169398D01*
X61307291Y-64169398D01*
X61695393Y-64169398D01*
X61689506Y-64111525D01*
X61671885Y-64059550D01*
X61655840Y-64030791D01*
X61634959Y-64005417D01*
X61611307Y-63985629D01*
X61583506Y-63970062D01*
X61553407Y-63959801D01*
X61519601Y-63954416D01*
X61501342Y-63953719D01*
X61466319Y-63956370D01*
X61434874Y-63963986D01*
X61382255Y-63992444D01*
X61342836Y-64037090D01*
X61330885Y-64059550D01*
X61317347Y-64094543D01*
X61310356Y-64129096D01*
X61307291Y-64169398D01*
X61059537Y-64169398D01*
X61067293Y-64111140D01*
X61080173Y-64055599D01*
X61097922Y-64003655D01*
X61119571Y-63957224D01*
X61145590Y-63914640D01*
X61174809Y-63877378D01*
X61207965Y-63844159D01*
X61244011Y-63815879D01*
X61283666Y-63791857D01*
X61326337Y-63772505D01*
X61372407Y-63757711D01*
X61474750Y-63742581D01*
X61501342Y-63741973D01*
X61555345Y-63744694D01*
G37*
G36*
X60481653Y-63744694D02*
G01*
X60533009Y-63752798D01*
X60580268Y-63765773D01*
X60624656Y-63783683D01*
X60665212Y-63805954D01*
X60702669Y-63832814D01*
X60736591Y-63863910D01*
X60767136Y-63899370D01*
X60817639Y-63983522D01*
X60852928Y-64086113D01*
X60870882Y-64208200D01*
X60872600Y-64263431D01*
X60869920Y-64337829D01*
X60862097Y-64405322D01*
X60849889Y-64464539D01*
X60833442Y-64517778D01*
X60813438Y-64564538D01*
X60789918Y-64606031D01*
X60733273Y-64674409D01*
X60663620Y-64725962D01*
X60579667Y-64762131D01*
X60479325Y-64782678D01*
X60400210Y-64786942D01*
X60332936Y-64784214D01*
X60272942Y-64776063D01*
X60223090Y-64763781D01*
X60177571Y-64746964D01*
X60096164Y-64700019D01*
X60012194Y-64626230D01*
X60167007Y-64475263D01*
X60215275Y-64517148D01*
X60266228Y-64547375D01*
X60301369Y-64559923D01*
X60341371Y-64567908D01*
X60398244Y-64571348D01*
X60439131Y-64568665D01*
X60476076Y-64560824D01*
X60508169Y-64548546D01*
X60536405Y-64531971D01*
X60580849Y-64487391D01*
X60609792Y-64427710D01*
X60621585Y-64352659D01*
X60621702Y-64343787D01*
X59982787Y-64343787D01*
X59982787Y-64235991D01*
X59985507Y-64171946D01*
X59985846Y-64169398D01*
X60233600Y-64169398D01*
X60621702Y-64169398D01*
X60615814Y-64111525D01*
X60598193Y-64059550D01*
X60582148Y-64030791D01*
X60561268Y-64005417D01*
X60537615Y-63985629D01*
X60509814Y-63970062D01*
X60479716Y-63959801D01*
X60445909Y-63954416D01*
X60427651Y-63953719D01*
X60392627Y-63956370D01*
X60361182Y-63963986D01*
X60308564Y-63992444D01*
X60269145Y-64037090D01*
X60257194Y-64059550D01*
X60243655Y-64094543D01*
X60236664Y-64129096D01*
X60233600Y-64169398D01*
X59985846Y-64169398D01*
X59993602Y-64111140D01*
X60006482Y-64055599D01*
X60024231Y-64003655D01*
X60045880Y-63957224D01*
X60071898Y-63914640D01*
X60101117Y-63877378D01*
X60134273Y-63844159D01*
X60170319Y-63815879D01*
X60209975Y-63791857D01*
X60252646Y-63772505D01*
X60298715Y-63757711D01*
X60401058Y-63742581D01*
X60427651Y-63741973D01*
X60481653Y-63744694D01*
G37*
G36*
X59001163Y-63839169D02*
G01*
X59037161Y-63807129D01*
X59074003Y-63782266D01*
X59109056Y-63765370D01*
X59146175Y-63753535D01*
X59232044Y-63743261D01*
X59242230Y-63743170D01*
X59327104Y-63753287D01*
X59408408Y-63783206D01*
X59445125Y-63804924D01*
X59476444Y-63829509D01*
X59499027Y-63852933D01*
X59499027Y-63753770D01*
X59747960Y-63753770D01*
X59747960Y-64776000D01*
X59493129Y-64776000D01*
X59493129Y-64159738D01*
X59490496Y-64121898D01*
X59483005Y-64088485D01*
X59471109Y-64059100D01*
X59455504Y-64034084D01*
X59413830Y-63995624D01*
X59361069Y-63974284D01*
X59328485Y-63970902D01*
X59293290Y-63973603D01*
X59263683Y-63981566D01*
X59216283Y-64010437D01*
X59193247Y-64031767D01*
X59001163Y-63839169D01*
G37*
G36*
X58601349Y-64776000D02*
G01*
X58601349Y-63782065D01*
X58856180Y-63782065D01*
X58856180Y-64776000D01*
X58601349Y-64776000D01*
G37*
G36*
X58599383Y-63577756D02*
G01*
X58599383Y-63369942D01*
X58860112Y-63369942D01*
X58860112Y-63577756D01*
X58599383Y-63577756D01*
G37*
G36*
X57468588Y-64776000D02*
G01*
X57468588Y-64123407D01*
X57471665Y-64056417D01*
X57482263Y-63993301D01*
X57495984Y-63949470D01*
X57515647Y-63907626D01*
X57538926Y-63871853D01*
X57568180Y-63837612D01*
X57572452Y-63833271D01*
X57602082Y-63807525D01*
X57635579Y-63785747D01*
X57672724Y-63768209D01*
X57713423Y-63755116D01*
X57757887Y-63746667D01*
X57805655Y-63743236D01*
X57813520Y-63743170D01*
X57858832Y-63745906D01*
X57903449Y-63754118D01*
X57946014Y-63767547D01*
X57986597Y-63786287D01*
X58023119Y-63809300D01*
X58056636Y-63837222D01*
X58068350Y-63849000D01*
X58068350Y-63753770D01*
X58317283Y-63753770D01*
X58317283Y-64776000D01*
X58062452Y-64776000D01*
X58062452Y-64157772D01*
X58059818Y-64118375D01*
X58052323Y-64084321D01*
X58040683Y-64055538D01*
X58025453Y-64031471D01*
X57984995Y-63995408D01*
X57932143Y-63974975D01*
X57891909Y-63970902D01*
X57858175Y-63973759D01*
X57825087Y-63982818D01*
X57798087Y-63996279D01*
X57773758Y-64015442D01*
X57755278Y-64037527D01*
X57740380Y-64064777D01*
X57730216Y-64095627D01*
X57724485Y-64131681D01*
X57723418Y-64157430D01*
X57723418Y-64776000D01*
X57468588Y-64776000D01*
G37*
G36*
X56937102Y-63743895D02*
G01*
X56983177Y-63751793D01*
X57026185Y-63764605D01*
X57065684Y-63782077D01*
X57100268Y-63803317D01*
X57130532Y-63828483D01*
X57133572Y-63831476D01*
X57160527Y-63862306D01*
X57182396Y-63895360D01*
X57213752Y-63971235D01*
X57231517Y-64069724D01*
X57237436Y-64235905D01*
X57231532Y-64402464D01*
X57220586Y-64474307D01*
X57201142Y-64538991D01*
X57182556Y-64577833D01*
X57158579Y-64613824D01*
X57133572Y-64642130D01*
X57072260Y-64688151D01*
X56994008Y-64719338D01*
X56949153Y-64728260D01*
X56901561Y-64732095D01*
X56890538Y-64732231D01*
X56838063Y-64729375D01*
X56789780Y-64720324D01*
X56751829Y-64707287D01*
X56716227Y-64688857D01*
X56653887Y-64637301D01*
X56647504Y-64630333D01*
X56647504Y-64734283D01*
X56650346Y-64775706D01*
X56659297Y-64815999D01*
X56672543Y-64848925D01*
X56691312Y-64878825D01*
X56712554Y-64901676D01*
X56738611Y-64920774D01*
X56767206Y-64934500D01*
X56800370Y-64943916D01*
X56853267Y-64948850D01*
X56900709Y-64946056D01*
X56942726Y-64937438D01*
X56976218Y-64924775D01*
X57007433Y-64907102D01*
X57053216Y-64869435D01*
X57211962Y-65031172D01*
X57169817Y-65067973D01*
X57126816Y-65097918D01*
X57084954Y-65120341D01*
X57041214Y-65137622D01*
X56943409Y-65158892D01*
X56841555Y-65164443D01*
X56784248Y-65161748D01*
X56730171Y-65153819D01*
X56679887Y-65141022D01*
X56633100Y-65123546D01*
X56590234Y-65101776D01*
X56551135Y-65075844D01*
X56516052Y-65046067D01*
X56485026Y-65012605D01*
X56435687Y-64935371D01*
X56404369Y-64845458D01*
X56392707Y-64744192D01*
X56392674Y-64738215D01*
X56392674Y-64235905D01*
X56647504Y-64235905D01*
X56651604Y-64326286D01*
X56658262Y-64368199D01*
X56669357Y-64406423D01*
X56683908Y-64436618D01*
X56703579Y-64462133D01*
X56724200Y-64479095D01*
X56749228Y-64491857D01*
X56777430Y-64499668D01*
X56810327Y-64502896D01*
X56816081Y-64502960D01*
X56851023Y-64500299D01*
X56880758Y-64492607D01*
X56904741Y-64480933D01*
X56924689Y-64465438D01*
X56954932Y-64422465D01*
X56974280Y-64358765D01*
X56982426Y-64263884D01*
X56982691Y-64235905D01*
X56978289Y-64140837D01*
X56970910Y-64097300D01*
X56958414Y-64058156D01*
X56943413Y-64030160D01*
X56923406Y-64006736D01*
X56902226Y-63991123D01*
X56876611Y-63979671D01*
X56816081Y-63970902D01*
X56780838Y-63973564D01*
X56750814Y-63981259D01*
X56726578Y-63992941D01*
X56706392Y-64008450D01*
X56675767Y-64051394D01*
X56656114Y-64114879D01*
X56647771Y-64209051D01*
X56647504Y-64235905D01*
X56392674Y-64235905D01*
X56392674Y-63754881D01*
X56639640Y-63754881D01*
X56639640Y-63850966D01*
X56674714Y-63815290D01*
X56710777Y-63787338D01*
X56744127Y-63768673D01*
X56779704Y-63755148D01*
X56861002Y-63741899D01*
X56888572Y-63741204D01*
X56937102Y-63743895D01*
G37*
G36*
X69166763Y-66098014D02*
G01*
X69216158Y-66106982D01*
X69254251Y-66119781D01*
X69289754Y-66137788D01*
X69353577Y-66189050D01*
X69366646Y-66202966D01*
X69366646Y-66105770D01*
X69613612Y-66105770D01*
X69613612Y-67500030D01*
X69358781Y-67500030D01*
X69358781Y-67037043D01*
X69329046Y-67067187D01*
X69297252Y-67091480D01*
X69228897Y-67123371D01*
X69146241Y-67137854D01*
X69111815Y-67138942D01*
X69063080Y-67136241D01*
X69016591Y-67128279D01*
X68973387Y-67115411D01*
X68933642Y-67097789D01*
X68899302Y-67076576D01*
X68869284Y-67051345D01*
X68864849Y-67046874D01*
X68819275Y-66985605D01*
X68787018Y-66907119D01*
X68767063Y-66804056D01*
X68759264Y-66660852D01*
X68759023Y-66616333D01*
X68759061Y-66615260D01*
X69013849Y-66615260D01*
X69013849Y-66615517D01*
X69017729Y-66716294D01*
X69033942Y-66801528D01*
X69047753Y-66834562D01*
X69066503Y-66862334D01*
X69086114Y-66880809D01*
X69109937Y-66895006D01*
X69167975Y-66909007D01*
X69186358Y-66909671D01*
X69222097Y-66906991D01*
X69252606Y-66899174D01*
X69276913Y-66887417D01*
X69297277Y-66871681D01*
X69328215Y-66827958D01*
X69348600Y-66762110D01*
X69358165Y-66661067D01*
X69358781Y-66615517D01*
X69354903Y-66514743D01*
X69338696Y-66429906D01*
X69324910Y-66397158D01*
X69306202Y-66369664D01*
X69286591Y-66351354D01*
X69262764Y-66337302D01*
X69204485Y-66323453D01*
X69186358Y-66322816D01*
X69150357Y-66325497D01*
X69119663Y-66333322D01*
X69095303Y-66345063D01*
X69074918Y-66360780D01*
X69044073Y-66404378D01*
X69023837Y-66470062D01*
X69014423Y-66571174D01*
X69013849Y-66615260D01*
X68759061Y-66615260D01*
X68765001Y-66448264D01*
X68776131Y-66370702D01*
X68795933Y-66299354D01*
X68814526Y-66257128D01*
X68838436Y-66218468D01*
X68864849Y-66187237D01*
X68923396Y-66141977D01*
X69000308Y-66110008D01*
X69092380Y-66095593D01*
X69111815Y-66095170D01*
X69166763Y-66098014D01*
G37*
G36*
X68759023Y-66616333D02*
G01*
X68759019Y-66616457D01*
X68759019Y-66615517D01*
X68759023Y-66616333D01*
G37*
G36*
X68261838Y-67128000D02*
G01*
X68261838Y-66134065D01*
X68516669Y-66134065D01*
X68516669Y-67128000D01*
X68261838Y-67128000D01*
G37*
G36*
X68259872Y-65929756D02*
G01*
X68259872Y-65721942D01*
X68520601Y-65721942D01*
X68520601Y-65929756D01*
X68259872Y-65929756D01*
G37*
G36*
X67065048Y-67128000D02*
G01*
X67065048Y-66912406D01*
X67157115Y-66912406D01*
X67184562Y-66909706D01*
X67206697Y-66901746D01*
X67222079Y-66890390D01*
X67233484Y-66875172D01*
X67244914Y-66832396D01*
X67245336Y-66820168D01*
X67245336Y-66329228D01*
X67065048Y-66329228D01*
X67065048Y-66135262D01*
X67245336Y-66135262D01*
X67245336Y-65836834D01*
X67500167Y-65836834D01*
X67500167Y-66135262D01*
X67607963Y-66135262D01*
X67607963Y-66329228D01*
X67500167Y-66329228D01*
X67500167Y-66835897D01*
X67497398Y-66880068D01*
X67488961Y-66923412D01*
X67475596Y-66962781D01*
X67456822Y-66999781D01*
X67434519Y-67031180D01*
X67407324Y-67059254D01*
X67377426Y-67081896D01*
X67343049Y-67100592D01*
X67305767Y-67114348D01*
X67264170Y-67123558D01*
X67204217Y-67128000D01*
X67065048Y-67128000D01*
G37*
G36*
X66579493Y-67128000D02*
G01*
X66579493Y-66134065D01*
X66834324Y-66134065D01*
X66834324Y-67128000D01*
X66579493Y-67128000D01*
G37*
G36*
X66577527Y-65929756D02*
G01*
X66577527Y-65721942D01*
X66838256Y-65721942D01*
X66838256Y-65929756D01*
X66577527Y-65929756D01*
G37*
G36*
X65446731Y-67128000D02*
G01*
X65446731Y-66475407D01*
X65449809Y-66408417D01*
X65460407Y-66345301D01*
X65474128Y-66301470D01*
X65493791Y-66259626D01*
X65517070Y-66223853D01*
X65546323Y-66189612D01*
X65550596Y-66185271D01*
X65580226Y-66159525D01*
X65613723Y-66137747D01*
X65650868Y-66120209D01*
X65691566Y-66107116D01*
X65736031Y-66098667D01*
X65783799Y-66095236D01*
X65791663Y-66095170D01*
X65836975Y-66097906D01*
X65881593Y-66106118D01*
X65924158Y-66119547D01*
X65964741Y-66138287D01*
X66001263Y-66161300D01*
X66034779Y-66189222D01*
X66046494Y-66201000D01*
X66046494Y-66105770D01*
X66295426Y-66105770D01*
X66295426Y-67128000D01*
X66040596Y-67128000D01*
X66040596Y-66509772D01*
X66037962Y-66470375D01*
X66030467Y-66436321D01*
X66018827Y-66407538D01*
X66003597Y-66383471D01*
X65963139Y-66347408D01*
X65910287Y-66326975D01*
X65870053Y-66322902D01*
X65836319Y-66325759D01*
X65803231Y-66334818D01*
X65776231Y-66348279D01*
X65751902Y-66367442D01*
X65733421Y-66389527D01*
X65718524Y-66416777D01*
X65708360Y-66447627D01*
X65702629Y-66483681D01*
X65701562Y-66509430D01*
X65701562Y-67128000D01*
X65446731Y-67128000D01*
G37*
G36*
X63275840Y-67128000D02*
G01*
X63275840Y-66475407D01*
X63278704Y-66417829D01*
X63287809Y-66363100D01*
X63301148Y-66318455D01*
X63320111Y-66275815D01*
X63343229Y-66237908D01*
X63372024Y-66201673D01*
X63387569Y-66185271D01*
X63446684Y-66141224D01*
X63525668Y-66109637D01*
X63620584Y-66095513D01*
X63638467Y-66095170D01*
X63694420Y-66097948D01*
X63746069Y-66106450D01*
X63789719Y-66119324D01*
X63830814Y-66137306D01*
X63905963Y-66188271D01*
X63944162Y-66224509D01*
X63971869Y-66191326D01*
X64002492Y-66163209D01*
X64070907Y-66122343D01*
X64151059Y-66099844D01*
X64214636Y-66095170D01*
X64302203Y-66105936D01*
X64344825Y-66119360D01*
X64385503Y-66137963D01*
X64422944Y-66161149D01*
X64457270Y-66189073D01*
X64469467Y-66201000D01*
X64469467Y-66105770D01*
X64718399Y-66105770D01*
X64718399Y-67128000D01*
X64463568Y-67128000D01*
X64463568Y-66509772D01*
X64460935Y-66470375D01*
X64453440Y-66436321D01*
X64441800Y-66407538D01*
X64426570Y-66383471D01*
X64386112Y-66347408D01*
X64333260Y-66326975D01*
X64293026Y-66322902D01*
X64259291Y-66325759D01*
X64226203Y-66334818D01*
X64199204Y-66348279D01*
X64174874Y-66367442D01*
X64156394Y-66389527D01*
X64141497Y-66416777D01*
X64131333Y-66447627D01*
X64125602Y-66483681D01*
X64124535Y-66509430D01*
X64124535Y-67128000D01*
X63869704Y-67128000D01*
X63869704Y-66503617D01*
X63867073Y-66466274D01*
X63859596Y-66433834D01*
X63847872Y-66406014D01*
X63832541Y-66382649D01*
X63791393Y-66347037D01*
X63737599Y-66326718D01*
X63699162Y-66322902D01*
X63665427Y-66325759D01*
X63632339Y-66334818D01*
X63605340Y-66348279D01*
X63581010Y-66367442D01*
X63562530Y-66389527D01*
X63547633Y-66416777D01*
X63537468Y-66447627D01*
X63531737Y-66483681D01*
X63530671Y-66509430D01*
X63530671Y-67128000D01*
X63275840Y-67128000D01*
G37*
G36*
X62741568Y-66098069D02*
G01*
X62808812Y-66107422D01*
X62856290Y-66119975D01*
X62899979Y-66137622D01*
X62974890Y-66185994D01*
X63031267Y-66240152D01*
X62870556Y-66398898D01*
X62835831Y-66363828D01*
X62799863Y-66338189D01*
X62770205Y-66324680D01*
X62737023Y-66315858D01*
X62674538Y-66310763D01*
X62623607Y-66313533D01*
X62581262Y-66321985D01*
X62552429Y-66333428D01*
X62528993Y-66349026D01*
X62512177Y-66366926D01*
X62499480Y-66388452D01*
X62485590Y-66444709D01*
X62484420Y-66471475D01*
X62484420Y-66522424D01*
X62721555Y-66522424D01*
X62778731Y-66525101D01*
X62830657Y-66532896D01*
X62876417Y-66545130D01*
X62917269Y-66561592D01*
X62952836Y-66581666D01*
X62983730Y-66605221D01*
X63031867Y-66661749D01*
X63062337Y-66730254D01*
X63074255Y-66810114D01*
X63074352Y-66818373D01*
X63071638Y-66865188D01*
X63063581Y-66909959D01*
X63050616Y-66951325D01*
X63032757Y-66989621D01*
X62990064Y-67047644D01*
X62961057Y-67072759D01*
X62928142Y-67093915D01*
X62850228Y-67124050D01*
X62752398Y-67137404D01*
X62729420Y-67137830D01*
X62671900Y-67135040D01*
X62622372Y-67126451D01*
X62584836Y-67114214D01*
X62550627Y-67097260D01*
X62486674Y-67047611D01*
X62478521Y-67039608D01*
X62478521Y-67129196D01*
X62229589Y-67128000D01*
X62229589Y-66751182D01*
X62484420Y-66751182D01*
X62487439Y-66804232D01*
X62497632Y-66844878D01*
X62523572Y-66881803D01*
X62548718Y-66901398D01*
X62574947Y-66914947D01*
X62634264Y-66928082D01*
X62674538Y-66929589D01*
X62716242Y-66926909D01*
X62751190Y-66919094D01*
X62777232Y-66907806D01*
X62797896Y-66892799D01*
X62812568Y-66875435D01*
X62822619Y-66855192D01*
X62829352Y-66813671D01*
X62826606Y-66784307D01*
X62818330Y-66758977D01*
X62806173Y-66739790D01*
X62789488Y-66723978D01*
X62742452Y-66702765D01*
X62678471Y-66695787D01*
X62484420Y-66695787D01*
X62484420Y-66751182D01*
X62229589Y-66751182D01*
X62229589Y-66455745D01*
X62232322Y-66401448D01*
X62240508Y-66351539D01*
X62253054Y-66308923D01*
X62270322Y-66270149D01*
X62291272Y-66236627D01*
X62316527Y-66206644D01*
X62379381Y-66157638D01*
X62461669Y-66121864D01*
X62568040Y-66100304D01*
X62664708Y-66095170D01*
X62741568Y-66098069D01*
G37*
G36*
X61700693Y-67128000D02*
G01*
X61700693Y-66134065D01*
X61955524Y-66134065D01*
X61955524Y-67128000D01*
X61700693Y-67128000D01*
G37*
G36*
X61698727Y-65929756D02*
G01*
X61698727Y-65721942D01*
X61959456Y-65721942D01*
X61959456Y-65929756D01*
X61698727Y-65929756D01*
G37*
G36*
X60567932Y-67128000D02*
G01*
X60567932Y-66475407D01*
X60571009Y-66408417D01*
X60581607Y-66345301D01*
X60595328Y-66301470D01*
X60614991Y-66259626D01*
X60638270Y-66223853D01*
X60667524Y-66189612D01*
X60671796Y-66185271D01*
X60701426Y-66159525D01*
X60734923Y-66137747D01*
X60772068Y-66120209D01*
X60812767Y-66107116D01*
X60857231Y-66098667D01*
X60904999Y-66095236D01*
X60912864Y-66095170D01*
X60958176Y-66097906D01*
X61002793Y-66106118D01*
X61045358Y-66119547D01*
X61085941Y-66138287D01*
X61122463Y-66161300D01*
X61155980Y-66189222D01*
X61167694Y-66201000D01*
X61167694Y-66105770D01*
X61416627Y-66105770D01*
X61416627Y-67128000D01*
X61161796Y-67128000D01*
X61161796Y-66509772D01*
X61159162Y-66470375D01*
X61151667Y-66436321D01*
X61140027Y-66407538D01*
X61124797Y-66383471D01*
X61084339Y-66347408D01*
X61031487Y-66326975D01*
X60991253Y-66322902D01*
X60957519Y-66325759D01*
X60924431Y-66334818D01*
X60897431Y-66348279D01*
X60873102Y-66367442D01*
X60854622Y-66389527D01*
X60839724Y-66416777D01*
X60829560Y-66447627D01*
X60823829Y-66483681D01*
X60822762Y-66509430D01*
X60822762Y-67128000D01*
X60567932Y-67128000D01*
G37*
G36*
X59819938Y-67128000D02*
G01*
X59547583Y-67128000D01*
X59547583Y-66602780D01*
X59278989Y-66602780D01*
X59221591Y-66600094D01*
X59167593Y-66592235D01*
X59117046Y-66579487D01*
X59070096Y-66562154D01*
X59026572Y-66540382D01*
X58986888Y-66514572D01*
X58918707Y-66451213D01*
X58866784Y-66373744D01*
X58832815Y-66284152D01*
X58818695Y-66185056D01*
X58818396Y-66167918D01*
X59090836Y-66167918D01*
X59093530Y-66203305D01*
X59101445Y-66235807D01*
X59113986Y-66264504D01*
X59131043Y-66289885D01*
X59152134Y-66311464D01*
X59177191Y-66329258D01*
X59238821Y-66352531D01*
X59292752Y-66357865D01*
X59547583Y-66357865D01*
X59547583Y-65976004D01*
X59292752Y-65976004D01*
X59254381Y-65978685D01*
X59219415Y-65986514D01*
X59188673Y-65998876D01*
X59161682Y-66015570D01*
X59138947Y-66036003D01*
X59120326Y-66060065D01*
X59096316Y-66117997D01*
X59090836Y-66167918D01*
X58818396Y-66167918D01*
X58821111Y-66116606D01*
X58829178Y-66066921D01*
X58842380Y-66019519D01*
X58860632Y-65974458D01*
X58883483Y-65932636D01*
X58911026Y-65893803D01*
X58942565Y-65858882D01*
X58978421Y-65827524D01*
X59017783Y-65800487D01*
X59061112Y-65777534D01*
X59107679Y-65759193D01*
X59157915Y-65745447D01*
X59211328Y-65736646D01*
X59268167Y-65732977D01*
X59278989Y-65732884D01*
X59819938Y-65732884D01*
X59819938Y-67128000D01*
G37*
G36*
X57610407Y-66698437D02*
G01*
X57886695Y-66698437D01*
X57900199Y-66742323D01*
X57918819Y-66782252D01*
X57939731Y-66813611D01*
X57965009Y-66840720D01*
X57991968Y-66861248D01*
X58022823Y-66877393D01*
X58056100Y-66888354D01*
X58093177Y-66894571D01*
X58121950Y-66895908D01*
X58161315Y-66893232D01*
X58197655Y-66885440D01*
X58230590Y-66872932D01*
X58259940Y-66856044D01*
X58296339Y-66823587D01*
X58319517Y-66791905D01*
X58337387Y-66752986D01*
X58355923Y-66663252D01*
X58364626Y-66491409D01*
X58364983Y-66430527D01*
X58362066Y-66277704D01*
X58352585Y-66172786D01*
X58342338Y-66123863D01*
X58328526Y-66086071D01*
X58296339Y-66037382D01*
X58273020Y-66014770D01*
X58245738Y-65995960D01*
X58214657Y-65981253D01*
X58180153Y-65971075D01*
X58121950Y-65965062D01*
X58081767Y-65967735D01*
X58045646Y-65975510D01*
X58013935Y-65987775D01*
X57985875Y-66004265D01*
X57939112Y-66049886D01*
X57903945Y-66113783D01*
X57888661Y-66162532D01*
X57610407Y-66162532D01*
X57623906Y-66100978D01*
X57641957Y-66043994D01*
X57663923Y-65992482D01*
X57689890Y-65945409D01*
X57719342Y-65903201D01*
X57752333Y-65865369D01*
X57828232Y-65802860D01*
X57917250Y-65757581D01*
X58019431Y-65730151D01*
X58121950Y-65721942D01*
X58183014Y-65724651D01*
X58239921Y-65732668D01*
X58291542Y-65745400D01*
X58339774Y-65762849D01*
X58427501Y-65811551D01*
X58496288Y-65868976D01*
X58531097Y-65907599D01*
X58559654Y-65947512D01*
X58599909Y-66031238D01*
X58624162Y-66131205D01*
X58635650Y-66268430D01*
X58637424Y-66430527D01*
X58634942Y-66610893D01*
X58629463Y-66688376D01*
X58619045Y-66758833D01*
X58602103Y-66823343D01*
X58577053Y-66882986D01*
X58542310Y-66938843D01*
X58496288Y-66991993D01*
X58453674Y-67029809D01*
X58408024Y-67062363D01*
X58362959Y-67087517D01*
X58314703Y-67107867D01*
X58264726Y-67122824D01*
X58211222Y-67132991D01*
X58121950Y-67138942D01*
X58062295Y-67136209D01*
X58005002Y-67128023D01*
X57952043Y-67114921D01*
X57901796Y-67096742D01*
X57855875Y-67074271D01*
X57812960Y-67047051D01*
X57774139Y-67015878D01*
X57738611Y-66980197D01*
X57706945Y-66940529D01*
X57678899Y-66896488D01*
X57654681Y-66848100D01*
X57634485Y-66795368D01*
X57610407Y-66698437D01*
G37*
G36*
X57375751Y-67128000D02*
G01*
X56791717Y-67128000D01*
X56733098Y-67125275D01*
X56677554Y-67117148D01*
X56627294Y-67104280D01*
X56580496Y-67086527D01*
X56539123Y-67064955D01*
X56501478Y-67038994D01*
X56468939Y-67009834D01*
X56440354Y-66976687D01*
X56416454Y-66940459D01*
X56396785Y-66900508D01*
X56381640Y-66857117D01*
X56371122Y-66810131D01*
X56364463Y-66726562D01*
X56365201Y-66712884D01*
X56636904Y-66712884D01*
X56639651Y-66747098D01*
X56647936Y-66779131D01*
X56660751Y-66806467D01*
X56678522Y-66830672D01*
X56699751Y-66850008D01*
X56725437Y-66865576D01*
X56754710Y-66876631D01*
X56788277Y-66883216D01*
X56819158Y-66884966D01*
X57103396Y-66884966D01*
X57103396Y-66542598D01*
X56819158Y-66542598D01*
X56780993Y-66545257D01*
X56747415Y-66552927D01*
X56718964Y-66564835D01*
X56694815Y-66580666D01*
X56659046Y-66622736D01*
X56639756Y-66678097D01*
X56636904Y-66712884D01*
X56365201Y-66712884D01*
X56367097Y-66677724D01*
X56374588Y-66633614D01*
X56402730Y-66556656D01*
X56446703Y-66493251D01*
X56505180Y-66442402D01*
X56556548Y-66413259D01*
X56525534Y-66395451D01*
X56493035Y-66370056D01*
X56462535Y-66338807D01*
X56434566Y-66300941D01*
X56413738Y-66262666D01*
X56397541Y-66219597D01*
X56388078Y-66177553D01*
X56384532Y-66136801D01*
X56656480Y-66136801D01*
X56659193Y-66169639D01*
X56667237Y-66199497D01*
X56679731Y-66224856D01*
X56696816Y-66246914D01*
X56717861Y-66265022D01*
X56743074Y-66279420D01*
X56806631Y-66296114D01*
X56836768Y-66297684D01*
X57103396Y-66297684D01*
X57103396Y-65976004D01*
X56836768Y-65976004D01*
X56797783Y-65978683D01*
X56763238Y-65986500D01*
X56734442Y-65998492D01*
X56709967Y-66014596D01*
X56690395Y-66033958D01*
X56675154Y-66056672D01*
X56658046Y-66111616D01*
X56656480Y-66136801D01*
X56384532Y-66136801D01*
X56384107Y-66131912D01*
X56384040Y-66125004D01*
X56386755Y-66072136D01*
X56394825Y-66022415D01*
X56407632Y-65977422D01*
X56425245Y-65935703D01*
X56446981Y-65898269D01*
X56473098Y-65864256D01*
X56537414Y-65807534D01*
X56618429Y-65765724D01*
X56717153Y-65740127D01*
X56815226Y-65732884D01*
X57375751Y-65732884D01*
X57375751Y-67128000D01*
G37*
G36*
X71890932Y-68543169D02*
G01*
X71926930Y-68511129D01*
X71963772Y-68486266D01*
X71998825Y-68469370D01*
X72035944Y-68457535D01*
X72121813Y-68447261D01*
X72132000Y-68447170D01*
X72216873Y-68457287D01*
X72298177Y-68487206D01*
X72334895Y-68508924D01*
X72366214Y-68533509D01*
X72388797Y-68556933D01*
X72388797Y-68457770D01*
X72637729Y-68457770D01*
X72637729Y-69480000D01*
X72382898Y-69480000D01*
X72382898Y-68863738D01*
X72380265Y-68825898D01*
X72372775Y-68792485D01*
X72360878Y-68763100D01*
X72345273Y-68738084D01*
X72303599Y-68699624D01*
X72250838Y-68678284D01*
X72218254Y-68674902D01*
X72183060Y-68677603D01*
X72153453Y-68685566D01*
X72106053Y-68714437D01*
X72083017Y-68735767D01*
X71890932Y-68543169D01*
G37*
G36*
X71464765Y-68448694D02*
G01*
X71516121Y-68456798D01*
X71563380Y-68469773D01*
X71607768Y-68487683D01*
X71648324Y-68509954D01*
X71685782Y-68536814D01*
X71719703Y-68567910D01*
X71750248Y-68603370D01*
X71800751Y-68687522D01*
X71836040Y-68790113D01*
X71853994Y-68912200D01*
X71855712Y-68967431D01*
X71853032Y-69041829D01*
X71845209Y-69109322D01*
X71833001Y-69168539D01*
X71816554Y-69221778D01*
X71796550Y-69268538D01*
X71773030Y-69310031D01*
X71716385Y-69378409D01*
X71646732Y-69429962D01*
X71562779Y-69466131D01*
X71462437Y-69486678D01*
X71383322Y-69490942D01*
X71316048Y-69488214D01*
X71256054Y-69480063D01*
X71206202Y-69467781D01*
X71160683Y-69450964D01*
X71079276Y-69404019D01*
X70995306Y-69330230D01*
X71150119Y-69179263D01*
X71198387Y-69221148D01*
X71249340Y-69251375D01*
X71284481Y-69263923D01*
X71324483Y-69271908D01*
X71381356Y-69275348D01*
X71422243Y-69272665D01*
X71459188Y-69264824D01*
X71491281Y-69252546D01*
X71519517Y-69235971D01*
X71563961Y-69191391D01*
X71592904Y-69131710D01*
X71604697Y-69056659D01*
X71604814Y-69047787D01*
X70965899Y-69047787D01*
X70965899Y-68939991D01*
X70968619Y-68875946D01*
X70968958Y-68873398D01*
X71216712Y-68873398D01*
X71604814Y-68873398D01*
X71598926Y-68815525D01*
X71581306Y-68763550D01*
X71565260Y-68734791D01*
X71544380Y-68709417D01*
X71520727Y-68689629D01*
X71492927Y-68674062D01*
X71462828Y-68663801D01*
X71429021Y-68658416D01*
X71410763Y-68657719D01*
X71375739Y-68660370D01*
X71344295Y-68667986D01*
X71291676Y-68696444D01*
X71252257Y-68741090D01*
X71240306Y-68763550D01*
X71226767Y-68798543D01*
X71219776Y-68833096D01*
X71216712Y-68873398D01*
X70968958Y-68873398D01*
X70976714Y-68815140D01*
X70989594Y-68759599D01*
X71007343Y-68707655D01*
X71028992Y-68661224D01*
X71055011Y-68618640D01*
X71084229Y-68581378D01*
X71117385Y-68548159D01*
X71153431Y-68519879D01*
X71193087Y-68495857D01*
X71235758Y-68476505D01*
X71281827Y-68461711D01*
X71384170Y-68446581D01*
X71410763Y-68445973D01*
X71464765Y-68448694D01*
G37*
G36*
X69934864Y-68456915D02*
G01*
X70203373Y-68456915D01*
X70409135Y-69089248D01*
X70616949Y-68456915D01*
X70885458Y-68456915D01*
X70509153Y-69480000D01*
X70309203Y-69480000D01*
X69934864Y-68456915D01*
G37*
G36*
X69600789Y-69480000D02*
G01*
X69600789Y-69190034D01*
X69892806Y-69190034D01*
X69892806Y-69480000D01*
X69600789Y-69480000D01*
G37*
G36*
X68533593Y-68076663D02*
G01*
X68584770Y-68084762D01*
X68633341Y-68097965D01*
X68679441Y-68116245D01*
X68721539Y-68138857D01*
X68760416Y-68166123D01*
X68794534Y-68196834D01*
X68824846Y-68231746D01*
X68850195Y-68269468D01*
X68871259Y-68310991D01*
X68887350Y-68355127D01*
X68898690Y-68402759D01*
X68906138Y-68489057D01*
X68906138Y-69075826D01*
X68903455Y-69128404D01*
X68895617Y-69177680D01*
X68882899Y-69223717D01*
X68865633Y-69266315D01*
X68817974Y-69341890D01*
X68753848Y-69403905D01*
X68674418Y-69450951D01*
X68581579Y-69480799D01*
X68480850Y-69490942D01*
X68428143Y-69488221D01*
X68377060Y-69480121D01*
X68328674Y-69466932D01*
X68282789Y-69448674D01*
X68240926Y-69426096D01*
X68202290Y-69398870D01*
X68168378Y-69368183D01*
X68138264Y-69333295D01*
X68113061Y-69295542D01*
X68092131Y-69253979D01*
X68076131Y-69209722D01*
X68064874Y-69161949D01*
X68057528Y-69075826D01*
X68057528Y-68492990D01*
X68312274Y-68492990D01*
X68312274Y-69073860D01*
X68314959Y-69113074D01*
X68322813Y-69148211D01*
X68334944Y-69177912D01*
X68351298Y-69203445D01*
X68370952Y-69224049D01*
X68394088Y-69240356D01*
X68449696Y-69259328D01*
X68480850Y-69261671D01*
X68514287Y-69258970D01*
X68544829Y-69251006D01*
X68571323Y-69238489D01*
X68594532Y-69221430D01*
X68629583Y-69175192D01*
X68648710Y-69112545D01*
X68651393Y-69073860D01*
X68651393Y-68492990D01*
X68648711Y-68454244D01*
X68640884Y-68419340D01*
X68628692Y-68389409D01*
X68612266Y-68363550D01*
X68592444Y-68342465D01*
X68569149Y-68325685D01*
X68513478Y-68305930D01*
X68480850Y-68303299D01*
X68447901Y-68305995D01*
X68417884Y-68313932D01*
X68391800Y-68326430D01*
X68368975Y-68343436D01*
X68334243Y-68389802D01*
X68315062Y-68452990D01*
X68312274Y-68492990D01*
X68057528Y-68492990D01*
X68057528Y-68489057D01*
X68060212Y-68436251D01*
X68068052Y-68386775D01*
X68080766Y-68340603D01*
X68098026Y-68297896D01*
X68145623Y-68222259D01*
X68209600Y-68160335D01*
X68288792Y-68113481D01*
X68381362Y-68083865D01*
X68480850Y-68073942D01*
X68533593Y-68076663D01*
G37*
G36*
X66985547Y-69480000D02*
G01*
X66985547Y-69250729D01*
X67524530Y-69250729D01*
X67134547Y-68798513D01*
X67048609Y-68689403D01*
X67018843Y-68637390D01*
X66998322Y-68582444D01*
X66989569Y-68539906D01*
X66985727Y-68492932D01*
X66985547Y-68479483D01*
X66988243Y-68426935D01*
X66996174Y-68377487D01*
X67008961Y-68331684D01*
X67026425Y-68289183D01*
X67048281Y-68250196D01*
X67074335Y-68214750D01*
X67138601Y-68154643D01*
X67218376Y-68109909D01*
X67312838Y-68082294D01*
X67408868Y-68073942D01*
X67463266Y-68076654D01*
X67515401Y-68084695D01*
X67564274Y-68097718D01*
X67610230Y-68115658D01*
X67652053Y-68137852D01*
X67690410Y-68164499D01*
X67724171Y-68194664D01*
X67754010Y-68228827D01*
X67779105Y-68265996D01*
X67799864Y-68306766D01*
X67815801Y-68350364D01*
X67826970Y-68397246D01*
X67834242Y-68481449D01*
X67579411Y-68481449D01*
X67576771Y-68442652D01*
X67569236Y-68409369D01*
X67557657Y-68381798D01*
X67542471Y-68358917D01*
X67502094Y-68325266D01*
X67448210Y-68306645D01*
X67408868Y-68303299D01*
X67373924Y-68305979D01*
X67342757Y-68313803D01*
X67316296Y-68325970D01*
X67293597Y-68342353D01*
X67259999Y-68386438D01*
X67242379Y-68445896D01*
X67240377Y-68477517D01*
X67243181Y-68515001D01*
X67251867Y-68549048D01*
X67284840Y-68609931D01*
X67312869Y-68645837D01*
X67834242Y-69250729D01*
X67834242Y-69480000D01*
X66985547Y-69480000D01*
G37*
G36*
X65467333Y-69480000D02*
G01*
X65467333Y-69250729D01*
X66006316Y-69250729D01*
X65616333Y-68798513D01*
X65530396Y-68689403D01*
X65500630Y-68637390D01*
X65480109Y-68582444D01*
X65471355Y-68539906D01*
X65467513Y-68492932D01*
X65467333Y-68479483D01*
X65470029Y-68426935D01*
X65477960Y-68377487D01*
X65490747Y-68331684D01*
X65508211Y-68289183D01*
X65530067Y-68250196D01*
X65556121Y-68214750D01*
X65620387Y-68154643D01*
X65700163Y-68109909D01*
X65794624Y-68082294D01*
X65890655Y-68073942D01*
X65945053Y-68076654D01*
X65997187Y-68084695D01*
X66046060Y-68097718D01*
X66092016Y-68115658D01*
X66133839Y-68137852D01*
X66172196Y-68164499D01*
X66205958Y-68194664D01*
X66235797Y-68228827D01*
X66260892Y-68265996D01*
X66281651Y-68306766D01*
X66297588Y-68350364D01*
X66308757Y-68397246D01*
X66316028Y-68481449D01*
X66061197Y-68481449D01*
X66058558Y-68442652D01*
X66051022Y-68409369D01*
X66039443Y-68381798D01*
X66024257Y-68358917D01*
X65983881Y-68325266D01*
X65929997Y-68306645D01*
X65890655Y-68303299D01*
X65855710Y-68305979D01*
X65824544Y-68313803D01*
X65798082Y-68325970D01*
X65775384Y-68342353D01*
X65741785Y-68386438D01*
X65724166Y-68445896D01*
X65722164Y-68477517D01*
X65724968Y-68515001D01*
X65733654Y-68549048D01*
X65766627Y-68609931D01*
X65794655Y-68645837D01*
X66316028Y-69250729D01*
X66316028Y-69480000D01*
X65467333Y-69480000D01*
G37*
G36*
X64887145Y-68076663D02*
G01*
X64938322Y-68084762D01*
X64986893Y-68097965D01*
X65032993Y-68116245D01*
X65075091Y-68138857D01*
X65113968Y-68166123D01*
X65148086Y-68196834D01*
X65178398Y-68231746D01*
X65203747Y-68269468D01*
X65224811Y-68310991D01*
X65240902Y-68355127D01*
X65252242Y-68402759D01*
X65259690Y-68489057D01*
X65259690Y-69075826D01*
X65257007Y-69128404D01*
X65249169Y-69177680D01*
X65236451Y-69223717D01*
X65219185Y-69266315D01*
X65171526Y-69341890D01*
X65107400Y-69403905D01*
X65027970Y-69450951D01*
X64935131Y-69480799D01*
X64834402Y-69490942D01*
X64781695Y-69488221D01*
X64730612Y-69480121D01*
X64682226Y-69466932D01*
X64636341Y-69448674D01*
X64594478Y-69426096D01*
X64555842Y-69398870D01*
X64521930Y-69368183D01*
X64491816Y-69333295D01*
X64466613Y-69295542D01*
X64445683Y-69253979D01*
X64429683Y-69209722D01*
X64418426Y-69161949D01*
X64411080Y-69075826D01*
X64411080Y-68492990D01*
X64665826Y-68492990D01*
X64665826Y-69073860D01*
X64668511Y-69113074D01*
X64676365Y-69148211D01*
X64688496Y-69177912D01*
X64704850Y-69203445D01*
X64724504Y-69224049D01*
X64747640Y-69240356D01*
X64803248Y-69259328D01*
X64834402Y-69261671D01*
X64867839Y-69258970D01*
X64898381Y-69251006D01*
X64924875Y-69238489D01*
X64948084Y-69221430D01*
X64983135Y-69175192D01*
X65002262Y-69112545D01*
X65004945Y-69073860D01*
X65004945Y-68492990D01*
X65002263Y-68454244D01*
X64994436Y-68419340D01*
X64982244Y-68389409D01*
X64965818Y-68363550D01*
X64945996Y-68342465D01*
X64922701Y-68325685D01*
X64867030Y-68305930D01*
X64834402Y-68303299D01*
X64801453Y-68305995D01*
X64771436Y-68313932D01*
X64745352Y-68326430D01*
X64722527Y-68343436D01*
X64687795Y-68389802D01*
X64668614Y-68452990D01*
X64665826Y-68492990D01*
X64411080Y-68492990D01*
X64411080Y-68489057D01*
X64413764Y-68436251D01*
X64421604Y-68386775D01*
X64434318Y-68340603D01*
X64451578Y-68297896D01*
X64499175Y-68222259D01*
X64563152Y-68160335D01*
X64642344Y-68113481D01*
X64734914Y-68083865D01*
X64834402Y-68073942D01*
X64887145Y-68076663D01*
G37*
G36*
X63339099Y-69480000D02*
G01*
X63339099Y-69250729D01*
X63878082Y-69250729D01*
X63488099Y-68798513D01*
X63402161Y-68689403D01*
X63372395Y-68637390D01*
X63351874Y-68582444D01*
X63343121Y-68539906D01*
X63339279Y-68492932D01*
X63339099Y-68479483D01*
X63341795Y-68426935D01*
X63349726Y-68377487D01*
X63362513Y-68331684D01*
X63379977Y-68289183D01*
X63401833Y-68250196D01*
X63427887Y-68214750D01*
X63492153Y-68154643D01*
X63571928Y-68109909D01*
X63666390Y-68082294D01*
X63762420Y-68073942D01*
X63816818Y-68076654D01*
X63868953Y-68084695D01*
X63917826Y-68097718D01*
X63963782Y-68115658D01*
X64005605Y-68137852D01*
X64043962Y-68164499D01*
X64077723Y-68194664D01*
X64107562Y-68228827D01*
X64132657Y-68265996D01*
X64153416Y-68306766D01*
X64169353Y-68350364D01*
X64180522Y-68397246D01*
X64187794Y-68481449D01*
X63932963Y-68481449D01*
X63930323Y-68442652D01*
X63922788Y-68409369D01*
X63911209Y-68381798D01*
X63896023Y-68358917D01*
X63855646Y-68325266D01*
X63801762Y-68306645D01*
X63762420Y-68303299D01*
X63727476Y-68305979D01*
X63696309Y-68313803D01*
X63669848Y-68325970D01*
X63647149Y-68342353D01*
X63613551Y-68386438D01*
X63595931Y-68445896D01*
X63593929Y-68477517D01*
X63596733Y-68515001D01*
X63605419Y-68549048D01*
X63638392Y-68609931D01*
X63666421Y-68645837D01*
X64187794Y-69250729D01*
X64187794Y-69480000D01*
X63339099Y-69480000D01*
G37*
G36*
X62271049Y-69008806D02*
G01*
X62274878Y-68914215D01*
X62290735Y-68821451D01*
X62306541Y-68772921D01*
X62328750Y-68725720D01*
X62353986Y-68686077D01*
X62385474Y-68647826D01*
X62396541Y-68636348D01*
X62425975Y-68610796D01*
X62460081Y-68588637D01*
X62498414Y-68570438D01*
X62541151Y-68556409D01*
X62587928Y-68547005D01*
X62638873Y-68542546D01*
X62657185Y-68542229D01*
X62742180Y-68551999D01*
X62818891Y-68579871D01*
X62866879Y-68612840D01*
X62866879Y-68314241D01*
X62302422Y-68314241D01*
X62302422Y-68084884D01*
X63098202Y-68084884D01*
X63098202Y-68871603D01*
X62864913Y-68871603D01*
X62852004Y-68841204D01*
X62832067Y-68812376D01*
X62810513Y-68792142D01*
X62783345Y-68775574D01*
X62754269Y-68764937D01*
X62720053Y-68758899D01*
X62696422Y-68757822D01*
X62661451Y-68760538D01*
X62630941Y-68768605D01*
X62606559Y-68780713D01*
X62585690Y-68797195D01*
X62553804Y-68843163D01*
X62533162Y-68912321D01*
X62525880Y-69008806D01*
X62529349Y-69085454D01*
X62542694Y-69151704D01*
X62556033Y-69183101D01*
X62574559Y-69209984D01*
X62580761Y-69216620D01*
X62602587Y-69234581D01*
X62627060Y-69247803D01*
X62685448Y-69261105D01*
X62702235Y-69261671D01*
X62738151Y-69258963D01*
X62769471Y-69250949D01*
X62794608Y-69238897D01*
X62816086Y-69222542D01*
X62848716Y-69177325D01*
X62869559Y-69110373D01*
X62872778Y-69089162D01*
X63127609Y-69089162D01*
X63117068Y-69174286D01*
X63093834Y-69257378D01*
X63074224Y-69299313D01*
X63048148Y-69339830D01*
X63013914Y-69379298D01*
X62982774Y-69406400D01*
X62945397Y-69431232D01*
X62903236Y-69452333D01*
X62855423Y-69469631D01*
X62804657Y-69481836D01*
X62748955Y-69489125D01*
X62702235Y-69490942D01*
X62646444Y-69488300D01*
X62595372Y-69480751D01*
X62504659Y-69452176D01*
X62429398Y-69407768D01*
X62394575Y-69377332D01*
X62361008Y-69339932D01*
X62333872Y-69301433D01*
X62297046Y-69221499D01*
X62276976Y-69126761D01*
X62271049Y-69008806D01*
G37*
G36*
X61455864Y-69038811D02*
G01*
X61455864Y-68801591D01*
X62059559Y-68801591D01*
X62059559Y-69038811D01*
X61455864Y-69038811D01*
G37*
G36*
X60860460Y-68076663D02*
G01*
X60911637Y-68084762D01*
X60960207Y-68097965D01*
X61006308Y-68116245D01*
X61048406Y-68138857D01*
X61087282Y-68166123D01*
X61121400Y-68196834D01*
X61151713Y-68231746D01*
X61177062Y-68269468D01*
X61198125Y-68310991D01*
X61214216Y-68355127D01*
X61225556Y-68402759D01*
X61233005Y-68489057D01*
X61233005Y-69075826D01*
X61230322Y-69128404D01*
X61222484Y-69177680D01*
X61209766Y-69223717D01*
X61192500Y-69266315D01*
X61144841Y-69341890D01*
X61080715Y-69403905D01*
X61001284Y-69450951D01*
X60908445Y-69480799D01*
X60807717Y-69490942D01*
X60755010Y-69488221D01*
X60703926Y-69480121D01*
X60655541Y-69466932D01*
X60609656Y-69448674D01*
X60567793Y-69426096D01*
X60529157Y-69398870D01*
X60495245Y-69368183D01*
X60465130Y-69333295D01*
X60439927Y-69295542D01*
X60418997Y-69253979D01*
X60402998Y-69209722D01*
X60391740Y-69161949D01*
X60384395Y-69075826D01*
X60384395Y-68492990D01*
X60639140Y-68492990D01*
X60639140Y-69073860D01*
X60641826Y-69113074D01*
X60649680Y-69148211D01*
X60661811Y-69177912D01*
X60678164Y-69203445D01*
X60697819Y-69224049D01*
X60720954Y-69240356D01*
X60776563Y-69259328D01*
X60807717Y-69261671D01*
X60841154Y-69258970D01*
X60871696Y-69251006D01*
X60898190Y-69238489D01*
X60921398Y-69221430D01*
X60956450Y-69175192D01*
X60975577Y-69112545D01*
X60978259Y-69073860D01*
X60978259Y-68492990D01*
X60975578Y-68454244D01*
X60967751Y-68419340D01*
X60955559Y-68389409D01*
X60939133Y-68363550D01*
X60919311Y-68342465D01*
X60896016Y-68325685D01*
X60840345Y-68305930D01*
X60807717Y-68303299D01*
X60774768Y-68305995D01*
X60744751Y-68313932D01*
X60718667Y-68326430D01*
X60695842Y-68343436D01*
X60661110Y-68389802D01*
X60641929Y-68452990D01*
X60639140Y-68492990D01*
X60384395Y-68492990D01*
X60384395Y-68489057D01*
X60387078Y-68436251D01*
X60394919Y-68386775D01*
X60407633Y-68340603D01*
X60424893Y-68297896D01*
X60472489Y-68222259D01*
X60536466Y-68160335D01*
X60615659Y-68113481D01*
X60708229Y-68083865D01*
X60807717Y-68073942D01*
X60860460Y-68076663D01*
G37*
G36*
X59306515Y-69075399D02*
G01*
X59309177Y-69023937D01*
X59316870Y-68977207D01*
X59329148Y-68935011D01*
X59345574Y-68897115D01*
X59390576Y-68831725D01*
X59451700Y-68778876D01*
X59486888Y-68757822D01*
X59448560Y-68734161D01*
X59414000Y-68705384D01*
X59387606Y-68675772D01*
X59365225Y-68641585D01*
X59348513Y-68605479D01*
X59336149Y-68564893D01*
X59326176Y-68472730D01*
X59328872Y-68423601D01*
X59336798Y-68376813D01*
X59349766Y-68332429D01*
X59367514Y-68290823D01*
X59416784Y-68216316D01*
X59483161Y-68155157D01*
X59565062Y-68109529D01*
X59611315Y-68093253D01*
X59660562Y-68081777D01*
X59751464Y-68073942D01*
X59805693Y-68076654D01*
X59857746Y-68084693D01*
X59906703Y-68097737D01*
X59952800Y-68115709D01*
X59994849Y-68137969D01*
X60033459Y-68164698D01*
X60067483Y-68194955D01*
X60097587Y-68229219D01*
X60122912Y-68266455D01*
X60143894Y-68307288D01*
X60160010Y-68350868D01*
X60171349Y-68397713D01*
X60178718Y-68470849D01*
X59923973Y-68470849D01*
X59919330Y-68435806D01*
X59909778Y-68404451D01*
X59895955Y-68377386D01*
X59878102Y-68354245D01*
X59831791Y-68320466D01*
X59772527Y-68304333D01*
X59751464Y-68303299D01*
X59718227Y-68306027D01*
X59686957Y-68314185D01*
X59659553Y-68327029D01*
X59635238Y-68344765D01*
X59615627Y-68366041D01*
X59599889Y-68391642D01*
X59588854Y-68420488D01*
X59582427Y-68453323D01*
X59580922Y-68480594D01*
X59583697Y-68517707D01*
X59592184Y-68551861D01*
X59604807Y-68579295D01*
X59622361Y-68603245D01*
X59642994Y-68621732D01*
X59668072Y-68636418D01*
X59696958Y-68646691D01*
X59730328Y-68652572D01*
X59757363Y-68653872D01*
X59794549Y-68653872D01*
X59794549Y-68875364D01*
X59757363Y-68875364D01*
X59718248Y-68878051D01*
X59683186Y-68885917D01*
X59653397Y-68898099D01*
X59627578Y-68914543D01*
X59588809Y-68958296D01*
X59566391Y-69016615D01*
X59561346Y-69067534D01*
X59564022Y-69106140D01*
X59571816Y-69140689D01*
X59583962Y-69170304D01*
X59600285Y-69195919D01*
X59643824Y-69234622D01*
X59701485Y-69256892D01*
X59749498Y-69261671D01*
X59786670Y-69258911D01*
X59821688Y-69250537D01*
X59851405Y-69237684D01*
X59877909Y-69219803D01*
X59898938Y-69198752D01*
X59916155Y-69173237D01*
X59928577Y-69144575D01*
X59936586Y-69111670D01*
X59939617Y-69079331D01*
X60194448Y-69079331D01*
X60191023Y-69134590D01*
X60182519Y-69185485D01*
X60169403Y-69231712D01*
X60151945Y-69273828D01*
X60104818Y-69346644D01*
X60041876Y-69405343D01*
X59962971Y-69450036D01*
X59868070Y-69479373D01*
X59758740Y-69490876D01*
X59749498Y-69490942D01*
X59691798Y-69488204D01*
X59636051Y-69479981D01*
X59584659Y-69466845D01*
X59536087Y-69448584D01*
X59492921Y-69426430D01*
X59453180Y-69399611D01*
X59418960Y-69369778D01*
X59388584Y-69335709D01*
X59363366Y-69298990D01*
X59342354Y-69258348D01*
X59326195Y-69214840D01*
X59314662Y-69167571D01*
X59306515Y-69075399D01*
G37*
G36*
X58493296Y-69038811D02*
G01*
X58493296Y-68801591D01*
X59096991Y-68801591D01*
X59096991Y-69038811D01*
X58493296Y-69038811D01*
G37*
G36*
X57637420Y-69480000D02*
G01*
X57637420Y-68084884D01*
X57892166Y-68084884D01*
X58176403Y-68331851D01*
X58176403Y-68606172D01*
X57892166Y-68359291D01*
X57892166Y-69480000D01*
X57637420Y-69480000D01*
G37*
G36*
X56345913Y-69008806D02*
G01*
X56349741Y-68914215D01*
X56365599Y-68821451D01*
X56381405Y-68772921D01*
X56403613Y-68725720D01*
X56428850Y-68686077D01*
X56460338Y-68647826D01*
X56471405Y-68636348D01*
X56500839Y-68610796D01*
X56534945Y-68588637D01*
X56573278Y-68570438D01*
X56616015Y-68556409D01*
X56662791Y-68547005D01*
X56713737Y-68542546D01*
X56732049Y-68542229D01*
X56817044Y-68551999D01*
X56893755Y-68579871D01*
X56941743Y-68612840D01*
X56941743Y-68314241D01*
X56377286Y-68314241D01*
X56377286Y-68084884D01*
X57173066Y-68084884D01*
X57173066Y-68871603D01*
X56939777Y-68871603D01*
X56926868Y-68841204D01*
X56906931Y-68812376D01*
X56885377Y-68792142D01*
X56858209Y-68775574D01*
X56829133Y-68764937D01*
X56794917Y-68758899D01*
X56771286Y-68757822D01*
X56736315Y-68760538D01*
X56705805Y-68768605D01*
X56681423Y-68780713D01*
X56660554Y-68797195D01*
X56628668Y-68843163D01*
X56608026Y-68912321D01*
X56600744Y-69008806D01*
X56604213Y-69085454D01*
X56617558Y-69151704D01*
X56630896Y-69183101D01*
X56649423Y-69209984D01*
X56655625Y-69216620D01*
X56677451Y-69234581D01*
X56701924Y-69247803D01*
X56760312Y-69261105D01*
X56777099Y-69261671D01*
X56813014Y-69258963D01*
X56844335Y-69250949D01*
X56869472Y-69238897D01*
X56890950Y-69222542D01*
X56923580Y-69177325D01*
X56944423Y-69110373D01*
X56947642Y-69089162D01*
X57202473Y-69089162D01*
X57191932Y-69174286D01*
X57168698Y-69257378D01*
X57149088Y-69299313D01*
X57123012Y-69339830D01*
X57088778Y-69379298D01*
X57057638Y-69406400D01*
X57020261Y-69431232D01*
X56978100Y-69452333D01*
X56930287Y-69469631D01*
X56879521Y-69481836D01*
X56823819Y-69489125D01*
X56777099Y-69490942D01*
X56721308Y-69488300D01*
X56670236Y-69480751D01*
X56579523Y-69452176D01*
X56504262Y-69407768D01*
X56469439Y-69377332D01*
X56435872Y-69339932D01*
X56408736Y-69301433D01*
X56371910Y-69221499D01*
X56351840Y-69126761D01*
X56345913Y-69008806D01*
G37*
G36*
X69801252Y-71402437D02*
G01*
X70077540Y-71402437D01*
X70091044Y-71446323D01*
X70109664Y-71486252D01*
X70130576Y-71517611D01*
X70155854Y-71544720D01*
X70182813Y-71565248D01*
X70213667Y-71581393D01*
X70246945Y-71592354D01*
X70284022Y-71598571D01*
X70312794Y-71599908D01*
X70352160Y-71597232D01*
X70388500Y-71589440D01*
X70421435Y-71576932D01*
X70450785Y-71560044D01*
X70487184Y-71527587D01*
X70510361Y-71495905D01*
X70528231Y-71456986D01*
X70546768Y-71367252D01*
X70555471Y-71195409D01*
X70555828Y-71134527D01*
X70552911Y-70981704D01*
X70543430Y-70876786D01*
X70533183Y-70827863D01*
X70519371Y-70790071D01*
X70487184Y-70741382D01*
X70463865Y-70718770D01*
X70436583Y-70699960D01*
X70405501Y-70685253D01*
X70370998Y-70675075D01*
X70312794Y-70669062D01*
X70272611Y-70671735D01*
X70236490Y-70679510D01*
X70204779Y-70691775D01*
X70176720Y-70708265D01*
X70129957Y-70753886D01*
X70094790Y-70817783D01*
X70079506Y-70866532D01*
X69801252Y-70866532D01*
X69814751Y-70804978D01*
X69832802Y-70747994D01*
X69854768Y-70696482D01*
X69880735Y-70649409D01*
X69910186Y-70607201D01*
X69943178Y-70569369D01*
X70019077Y-70506860D01*
X70108095Y-70461581D01*
X70210276Y-70434151D01*
X70312794Y-70425942D01*
X70373858Y-70428651D01*
X70430765Y-70436668D01*
X70482386Y-70449400D01*
X70530619Y-70466849D01*
X70618346Y-70515551D01*
X70687133Y-70572976D01*
X70721942Y-70611599D01*
X70750499Y-70651512D01*
X70790754Y-70735238D01*
X70815007Y-70835205D01*
X70826494Y-70972430D01*
X70828269Y-71134527D01*
X70825787Y-71314893D01*
X70820308Y-71392376D01*
X70809890Y-71462833D01*
X70792948Y-71527343D01*
X70767898Y-71586986D01*
X70733154Y-71642843D01*
X70687133Y-71695993D01*
X70644519Y-71733809D01*
X70598869Y-71766363D01*
X70553804Y-71791517D01*
X70505548Y-71811867D01*
X70455571Y-71826824D01*
X70402067Y-71836991D01*
X70312794Y-71842942D01*
X70253140Y-71840209D01*
X70195847Y-71832023D01*
X70142888Y-71818921D01*
X70092640Y-71800742D01*
X70046720Y-71778271D01*
X70003805Y-71751051D01*
X69964984Y-71719878D01*
X69929456Y-71684197D01*
X69897790Y-71644529D01*
X69869744Y-71600488D01*
X69845526Y-71552100D01*
X69825330Y-71499368D01*
X69801252Y-71402437D01*
G37*
G36*
X68647376Y-71832000D02*
G01*
X68647376Y-71588966D01*
X69294241Y-71588966D01*
X69294241Y-71248992D01*
X68743461Y-71248992D01*
X68743461Y-71005872D01*
X69294241Y-71005872D01*
X69294241Y-70680004D01*
X68647376Y-70680004D01*
X68647376Y-70436884D01*
X69566596Y-70436884D01*
X69566596Y-71832000D01*
X68647376Y-71832000D01*
G37*
G36*
X68382116Y-71832000D02*
G01*
X68109760Y-71832000D01*
X68109760Y-71277031D01*
X67913743Y-71277031D01*
X67641303Y-71832000D01*
X67325692Y-71832000D01*
X67637370Y-71231980D01*
X67592927Y-71212918D01*
X67550507Y-71188438D01*
X67513061Y-71160309D01*
X67478916Y-71127307D01*
X67450646Y-71092063D01*
X67426482Y-71052539D01*
X67407996Y-71011349D01*
X67394179Y-70966331D01*
X67385762Y-70919442D01*
X67382558Y-70868994D01*
X67382540Y-70864822D01*
X67654980Y-70864822D01*
X67657669Y-70898657D01*
X67665549Y-70929955D01*
X67678188Y-70958107D01*
X67695368Y-70983110D01*
X67716741Y-71004567D01*
X67742085Y-71022242D01*
X67771308Y-71035872D01*
X67804004Y-71045012D01*
X67852963Y-71049641D01*
X68109760Y-71049641D01*
X68109760Y-70680004D01*
X67852963Y-70680004D01*
X67815357Y-70682681D01*
X67780980Y-70690477D01*
X67750462Y-70702867D01*
X67723659Y-70719574D01*
X67701057Y-70740034D01*
X67682642Y-70764064D01*
X67668716Y-70791258D01*
X67659494Y-70821349D01*
X67654980Y-70864822D01*
X67382540Y-70864822D01*
X67385254Y-70813925D01*
X67393313Y-70764690D01*
X67406501Y-70717744D01*
X67424724Y-70673167D01*
X67447544Y-70631816D01*
X67475035Y-70593477D01*
X67506526Y-70559034D01*
X67542309Y-70528176D01*
X67581603Y-70501631D01*
X67624834Y-70479196D01*
X67671301Y-70461378D01*
X67721399Y-70448185D01*
X67774659Y-70439959D01*
X67831296Y-70436898D01*
X67835354Y-70436884D01*
X68382116Y-70436884D01*
X68382116Y-71832000D01*
G37*
G36*
X66032390Y-71832000D02*
G01*
X66032390Y-70436884D01*
X66304830Y-70436884D01*
X66304830Y-71291221D01*
X66857491Y-70436884D01*
X67100525Y-70436884D01*
X67100525Y-71832000D01*
X66828169Y-71832000D01*
X66828169Y-70975782D01*
X66275423Y-71832000D01*
X66032390Y-71832000D01*
G37*
G36*
X65151552Y-71390811D02*
G01*
X65151552Y-71153591D01*
X65755247Y-71153591D01*
X65755247Y-71390811D01*
X65151552Y-71390811D01*
G37*
G36*
X64466587Y-70428651D02*
G01*
X64523697Y-70436668D01*
X64575598Y-70449413D01*
X64624074Y-70466883D01*
X64711542Y-70515401D01*
X64779778Y-70572976D01*
X64814587Y-70611599D01*
X64843144Y-70651512D01*
X64883399Y-70735238D01*
X64907651Y-70835205D01*
X64919139Y-70972430D01*
X64920914Y-71134527D01*
X64918432Y-71314893D01*
X64912952Y-71392376D01*
X64902534Y-71462833D01*
X64885593Y-71527343D01*
X64860542Y-71586986D01*
X64825799Y-71642843D01*
X64779778Y-71695993D01*
X64738944Y-71732849D01*
X64694900Y-71764730D01*
X64650444Y-71789943D01*
X64602727Y-71810454D01*
X64552872Y-71825773D01*
X64499522Y-71836327D01*
X64405439Y-71842942D01*
X64344332Y-71840233D01*
X64287413Y-71832213D01*
X64235899Y-71819495D01*
X64187842Y-71802066D01*
X64101017Y-71753591D01*
X64032981Y-71695993D01*
X63997939Y-71657113D01*
X63969142Y-71616922D01*
X63928456Y-71532663D01*
X63903791Y-71432163D01*
X63891915Y-71294647D01*
X63889965Y-71134527D01*
X64162405Y-71134527D01*
X64165326Y-71287093D01*
X64174830Y-71390909D01*
X64185037Y-71438699D01*
X64198784Y-71475568D01*
X64230964Y-71523655D01*
X64255627Y-71547698D01*
X64284638Y-71568049D01*
X64316529Y-71583535D01*
X64351890Y-71594231D01*
X64405439Y-71599908D01*
X64476684Y-71589667D01*
X64539290Y-71560190D01*
X64581795Y-71523655D01*
X64605180Y-71491671D01*
X64622843Y-71452551D01*
X64640370Y-71363255D01*
X64648242Y-71186772D01*
X64648473Y-71134527D01*
X64645465Y-70974395D01*
X64635354Y-70867610D01*
X64625014Y-70821853D01*
X64611060Y-70786314D01*
X64581795Y-70743348D01*
X64556163Y-70719422D01*
X64526490Y-70699480D01*
X64494118Y-70684495D01*
X64458411Y-70674302D01*
X64405439Y-70669062D01*
X64367367Y-70671722D01*
X64332106Y-70679404D01*
X64269958Y-70708772D01*
X64230964Y-70743348D01*
X64207385Y-70775563D01*
X64189329Y-70815193D01*
X64171092Y-70905415D01*
X64162689Y-71079714D01*
X64162405Y-71134527D01*
X63889965Y-71134527D01*
X63892480Y-70960142D01*
X63897685Y-70884831D01*
X63907352Y-70816152D01*
X63922856Y-70753140D01*
X63945571Y-70694830D01*
X63976869Y-70640257D01*
X64018125Y-70588454D01*
X64032981Y-70572976D01*
X64074354Y-70535597D01*
X64118877Y-70503338D01*
X64163272Y-70478175D01*
X64210927Y-70457753D01*
X64260523Y-70442624D01*
X64313677Y-70432257D01*
X64405439Y-70425942D01*
X64466587Y-70428651D01*
G37*
G36*
X62595551Y-71832000D02*
G01*
X62595551Y-70436884D01*
X62867991Y-70436884D01*
X62867991Y-71005872D01*
X63340381Y-71005872D01*
X63340381Y-70436884D01*
X63612737Y-70436884D01*
X63612737Y-71832000D01*
X63340381Y-71832000D01*
X63340381Y-71247026D01*
X62867991Y-71247026D01*
X62867991Y-71832000D01*
X62595551Y-71832000D01*
G37*
G36*
X61365507Y-71832000D02*
G01*
X61365507Y-71588966D01*
X61998609Y-71588966D01*
X61998609Y-70436884D01*
X62270964Y-70436884D01*
X62270964Y-71832000D01*
X61365507Y-71832000D01*
G37*
G36*
X60587337Y-71390811D02*
G01*
X60587337Y-71153591D01*
X61191032Y-71153591D01*
X61191032Y-71390811D01*
X60587337Y-71390811D01*
G37*
G36*
X58745563Y-70436884D02*
G01*
X59029801Y-70436884D01*
X59247360Y-71316696D01*
X59502105Y-70436884D01*
X59705987Y-70436884D01*
X59960732Y-71316696D01*
X60176325Y-70436884D01*
X60460563Y-70436884D01*
X60088190Y-71832000D01*
X59860800Y-71832000D01*
X59604089Y-70985613D01*
X59347292Y-71832000D01*
X59119902Y-71832000D01*
X58745563Y-70436884D01*
G37*
G36*
X57321383Y-70808915D02*
G01*
X57589891Y-70808915D01*
X57795654Y-71441248D01*
X58003468Y-70808915D01*
X58271976Y-70808915D01*
X57895671Y-71832000D01*
X57695722Y-71832000D01*
X57321383Y-70808915D01*
G37*
G36*
X56349846Y-71832000D02*
G01*
X56349846Y-71602729D01*
X56888829Y-71602729D01*
X56498846Y-71150513D01*
X56412909Y-71041403D01*
X56383143Y-70989390D01*
X56362621Y-70934444D01*
X56353868Y-70891906D01*
X56350026Y-70844932D01*
X56349846Y-70831483D01*
X56352542Y-70778935D01*
X56360473Y-70729487D01*
X56373260Y-70683684D01*
X56390724Y-70641183D01*
X56412580Y-70602196D01*
X56438634Y-70566750D01*
X56502900Y-70506643D01*
X56582676Y-70461909D01*
X56677137Y-70434294D01*
X56773168Y-70425942D01*
X56827566Y-70428654D01*
X56879700Y-70436695D01*
X56928573Y-70449718D01*
X56974529Y-70467658D01*
X57016352Y-70489852D01*
X57054709Y-70516499D01*
X57088471Y-70546664D01*
X57118309Y-70580827D01*
X57143404Y-70617996D01*
X57164164Y-70658766D01*
X57180101Y-70702364D01*
X57191270Y-70749246D01*
X57198541Y-70833449D01*
X56943710Y-70833449D01*
X56941071Y-70794652D01*
X56933535Y-70761369D01*
X56921956Y-70733798D01*
X56906770Y-70710917D01*
X56866394Y-70677266D01*
X56812510Y-70658645D01*
X56773168Y-70655299D01*
X56738223Y-70657979D01*
X56707057Y-70665803D01*
X56680595Y-70677970D01*
X56657897Y-70694353D01*
X56624298Y-70738438D01*
X56606678Y-70797896D01*
X56604677Y-70829517D01*
X56607481Y-70867001D01*
X56616167Y-70901048D01*
X56649139Y-70961931D01*
X56677168Y-70997837D01*
X57198541Y-71602729D01*
X57198541Y-71832000D01*
X56349846Y-71832000D01*
G37*
D14*
G36*
X54755396Y-67868745D02*
G01*
X51149273Y-67868745D01*
X51149273Y-63910002D01*
X51538162Y-63910002D01*
X51995934Y-66111668D01*
X52078918Y-66426657D01*
X52180974Y-66683239D01*
X52299406Y-66890223D01*
X52447429Y-67075973D01*
X52609196Y-67222628D01*
X52785816Y-67334317D01*
X52979842Y-67411456D01*
X53219739Y-67461646D01*
X53515217Y-67479856D01*
X53772011Y-67457906D01*
X53969510Y-67398217D01*
X54120667Y-67306409D01*
X54234573Y-67182795D01*
X54311621Y-67032667D01*
X54357349Y-66843458D01*
X54366507Y-66604635D01*
X54329889Y-66303582D01*
X53600274Y-66303582D01*
X53628405Y-66526029D01*
X53623136Y-66678510D01*
X53595359Y-66779947D01*
X53537957Y-66859875D01*
X53450951Y-66909245D01*
X53323089Y-66927623D01*
X53191590Y-66912050D01*
X53081913Y-66867534D01*
X52989056Y-66794052D01*
X52919108Y-66694756D01*
X52846711Y-66522511D01*
X52774703Y-66247162D01*
X52288934Y-63910002D01*
X51538162Y-63910002D01*
X51149273Y-63910002D01*
X51149273Y-63521113D01*
X54755396Y-63521113D01*
X54755396Y-67868745D01*
G37*
D12*
X60710839Y-73565057D02*
X60663220Y-73517438D01*
X60663220Y-73517438D02*
X60567982Y-73469819D01*
X60567982Y-73469819D02*
X60329887Y-73469819D01*
X60329887Y-73469819D02*
X60234649Y-73517438D01*
X60234649Y-73517438D02*
X60187030Y-73565057D01*
X60187030Y-73565057D02*
X60139411Y-73660295D01*
X60139411Y-73660295D02*
X60139411Y-73755533D01*
X60139411Y-73755533D02*
X60187030Y-73898390D01*
X60187030Y-73898390D02*
X60758458Y-74469819D01*
X60758458Y-74469819D02*
X60139411Y-74469819D01*
X113134649Y-73803152D02*
X113134649Y-74469819D01*
X113372744Y-73422200D02*
X113610839Y-74136485D01*
X113610839Y-74136485D02*
X112991792Y-74136485D01*
X112420363Y-73469819D02*
X112325125Y-73469819D01*
X112325125Y-73469819D02*
X112229887Y-73517438D01*
X112229887Y-73517438D02*
X112182268Y-73565057D01*
X112182268Y-73565057D02*
X112134649Y-73660295D01*
X112134649Y-73660295D02*
X112087030Y-73850771D01*
X112087030Y-73850771D02*
X112087030Y-74088866D01*
X112087030Y-74088866D02*
X112134649Y-74279342D01*
X112134649Y-74279342D02*
X112182268Y-74374580D01*
X112182268Y-74374580D02*
X112229887Y-74422200D01*
X112229887Y-74422200D02*
X112325125Y-74469819D01*
X112325125Y-74469819D02*
X112420363Y-74469819D01*
X112420363Y-74469819D02*
X112515601Y-74422200D01*
X112515601Y-74422200D02*
X112563220Y-74374580D01*
X112563220Y-74374580D02*
X112610839Y-74279342D01*
X112610839Y-74279342D02*
X112658458Y-74088866D01*
X112658458Y-74088866D02*
X112658458Y-73850771D01*
X112658458Y-73850771D02*
X112610839Y-73660295D01*
X112610839Y-73660295D02*
X112563220Y-73565057D01*
X112563220Y-73565057D02*
X112515601Y-73517438D01*
X112515601Y-73517438D02*
X112420363Y-73469819D01*
D13*
G36*
X65698562Y-61596000D02*
G01*
X65698562Y-61036635D01*
X65701016Y-60987282D01*
X65708821Y-60940371D01*
X65720254Y-60902104D01*
X65736508Y-60865555D01*
X65756324Y-60833064D01*
X65781005Y-60802006D01*
X65794329Y-60787946D01*
X65844999Y-60750192D01*
X65912700Y-60723117D01*
X65994056Y-60711011D01*
X66009385Y-60710717D01*
X66057345Y-60713098D01*
X66101615Y-60720385D01*
X66139029Y-60731421D01*
X66174254Y-60746834D01*
X66238667Y-60790518D01*
X66271409Y-60821579D01*
X66295158Y-60793136D01*
X66321406Y-60769037D01*
X66380048Y-60734008D01*
X66448750Y-60714723D01*
X66503244Y-60710717D01*
X66578301Y-60719945D01*
X66614834Y-60731451D01*
X66649702Y-60747397D01*
X66681794Y-60767271D01*
X66711216Y-60791206D01*
X66721670Y-60801429D01*
X66721670Y-60719803D01*
X66935041Y-60719803D01*
X66935041Y-61596000D01*
X66716615Y-61596000D01*
X66716615Y-61066090D01*
X66714357Y-61032321D01*
X66707933Y-61003132D01*
X66697956Y-60978461D01*
X66684902Y-60957832D01*
X66650223Y-60926921D01*
X66604921Y-60909407D01*
X66570435Y-60905916D01*
X66541520Y-60908365D01*
X66513159Y-60916130D01*
X66490016Y-60927667D01*
X66469163Y-60944093D01*
X66453322Y-60963023D01*
X66440553Y-60986380D01*
X66431841Y-61012823D01*
X66426929Y-61043726D01*
X66426014Y-61065797D01*
X66426014Y-61596000D01*
X66207588Y-61596000D01*
X66207588Y-61060815D01*
X66205333Y-61028806D01*
X66198924Y-61001000D01*
X66188875Y-60977154D01*
X66175734Y-60957127D01*
X66140464Y-60926603D01*
X66094355Y-60909187D01*
X66061409Y-60905916D01*
X66032493Y-60908365D01*
X66004132Y-60916130D01*
X65980990Y-60927667D01*
X65960136Y-60944093D01*
X65944296Y-60963023D01*
X65931527Y-60986380D01*
X65922814Y-61012823D01*
X65917902Y-61043726D01*
X65916988Y-61065797D01*
X65916988Y-61596000D01*
X65698562Y-61596000D01*
G37*
G36*
X65240614Y-60713202D02*
G01*
X65298252Y-60721219D01*
X65338947Y-60731979D01*
X65376395Y-60747104D01*
X65440604Y-60788566D01*
X65488928Y-60834988D01*
X65351175Y-60971055D01*
X65321411Y-60940995D01*
X65290582Y-60919019D01*
X65265160Y-60907440D01*
X65236718Y-60899878D01*
X65183160Y-60895511D01*
X65139504Y-60897886D01*
X65103209Y-60905130D01*
X65078495Y-60914938D01*
X65058407Y-60928308D01*
X65043993Y-60943650D01*
X65033110Y-60962102D01*
X65021205Y-61010322D01*
X65020202Y-61033264D01*
X65020202Y-61076935D01*
X65223460Y-61076935D01*
X65272468Y-61079229D01*
X65316976Y-61085910D01*
X65356199Y-61096397D01*
X65391215Y-61110507D01*
X65421701Y-61127714D01*
X65448182Y-61147904D01*
X65489442Y-61196356D01*
X65515559Y-61255074D01*
X65525775Y-61323526D01*
X65525857Y-61330605D01*
X65523531Y-61370732D01*
X65516626Y-61409108D01*
X65505512Y-61444564D01*
X65490205Y-61477390D01*
X65453610Y-61527123D01*
X65428748Y-61548651D01*
X65400535Y-61566784D01*
X65333751Y-61592614D01*
X65249897Y-61604061D01*
X65230202Y-61604426D01*
X65180899Y-61602034D01*
X65138446Y-61594672D01*
X65106272Y-61584183D01*
X65076951Y-61569652D01*
X65022134Y-61527095D01*
X65015146Y-61520235D01*
X65015146Y-61597025D01*
X64801775Y-61596000D01*
X64801775Y-61273013D01*
X65020202Y-61273013D01*
X65022790Y-61318485D01*
X65031527Y-61353324D01*
X65053760Y-61384974D01*
X65075314Y-61401769D01*
X65097796Y-61413383D01*
X65148639Y-61424641D01*
X65183160Y-61425933D01*
X65218906Y-61423636D01*
X65248862Y-61416938D01*
X65271183Y-61407263D01*
X65288895Y-61394399D01*
X65301471Y-61379516D01*
X65310087Y-61362165D01*
X65315857Y-61326575D01*
X65313504Y-61301406D01*
X65306410Y-61279694D01*
X65295990Y-61263249D01*
X65281689Y-61249696D01*
X65241372Y-61231512D01*
X65186531Y-61225532D01*
X65020202Y-61225532D01*
X65020202Y-61273013D01*
X64801775Y-61273013D01*
X64801775Y-61019782D01*
X64804117Y-60973241D01*
X64811134Y-60930462D01*
X64821888Y-60893934D01*
X64836689Y-60860699D01*
X64854646Y-60831966D01*
X64876293Y-60806266D01*
X64930168Y-60764261D01*
X65000701Y-60733597D01*
X65091876Y-60715118D01*
X65174734Y-60710717D01*
X65240614Y-60713202D01*
G37*
G36*
X64088024Y-60798058D02*
G01*
X64114608Y-60771875D01*
X64142804Y-60750847D01*
X64202581Y-60723587D01*
X64274206Y-60711505D01*
X64301395Y-60710717D01*
X64343751Y-60713032D01*
X64383764Y-60719856D01*
X64420453Y-60730800D01*
X64454080Y-60745767D01*
X64483300Y-60763893D01*
X64508937Y-60785461D01*
X64513080Y-60789632D01*
X64552368Y-60842424D01*
X64580021Y-60909668D01*
X64597027Y-60997739D01*
X64603600Y-61120315D01*
X64603792Y-61157535D01*
X64598664Y-61302952D01*
X64589124Y-61369725D01*
X64572151Y-61431016D01*
X64556243Y-61467183D01*
X64535792Y-61500272D01*
X64513080Y-61527123D01*
X64462784Y-61565980D01*
X64396762Y-61593329D01*
X64317264Y-61605723D01*
X64299710Y-61606111D01*
X64253420Y-61603674D01*
X64211620Y-61595993D01*
X64179126Y-61584977D01*
X64148757Y-61569468D01*
X64093972Y-61525244D01*
X64083042Y-61513568D01*
X64083042Y-61595340D01*
X63869671Y-61596000D01*
X63869671Y-61156788D01*
X64088026Y-61156788D01*
X64091182Y-61239369D01*
X64103909Y-61310102D01*
X64115486Y-61339901D01*
X64131353Y-61365085D01*
X64147895Y-61381829D01*
X64168042Y-61394860D01*
X64190480Y-61403442D01*
X64216654Y-61408275D01*
X64237574Y-61409300D01*
X64268200Y-61407003D01*
X64294347Y-61400303D01*
X64315186Y-61390224D01*
X64332647Y-61376732D01*
X64359185Y-61339242D01*
X64376682Y-61282781D01*
X64384904Y-61196163D01*
X64385439Y-61156949D01*
X64382122Y-61070860D01*
X64368285Y-60998313D01*
X64356479Y-60970192D01*
X64340448Y-60946574D01*
X64323646Y-60930846D01*
X64303229Y-60918768D01*
X64253310Y-60906842D01*
X64237574Y-60906282D01*
X64206697Y-60908580D01*
X64180304Y-60915287D01*
X64159258Y-60925375D01*
X64141596Y-60938884D01*
X64114737Y-60976371D01*
X64096978Y-61032687D01*
X64088570Y-61118748D01*
X64088026Y-61156788D01*
X63869671Y-61156788D01*
X63869671Y-60399893D01*
X64088024Y-60399893D01*
X64088024Y-60798058D01*
G37*
G36*
X63334026Y-60712023D02*
G01*
X63378045Y-60718970D01*
X63418553Y-60730091D01*
X63456600Y-60745443D01*
X63491362Y-60764532D01*
X63523468Y-60787555D01*
X63552544Y-60814208D01*
X63578726Y-60844603D01*
X63622014Y-60916733D01*
X63652261Y-61004668D01*
X63667650Y-61109314D01*
X63669123Y-61156655D01*
X63666826Y-61220425D01*
X63660120Y-61278276D01*
X63649656Y-61329033D01*
X63635559Y-61374667D01*
X63618413Y-61414747D01*
X63598253Y-61450313D01*
X63549700Y-61508922D01*
X63489998Y-61553110D01*
X63418037Y-61584112D01*
X63332030Y-61601724D01*
X63264218Y-61605378D01*
X63206554Y-61603040D01*
X63155130Y-61596054D01*
X63112400Y-61585526D01*
X63073384Y-61571112D01*
X63003606Y-61530874D01*
X62931632Y-61467625D01*
X63064329Y-61338226D01*
X63105702Y-61374126D01*
X63149376Y-61400036D01*
X63179496Y-61410791D01*
X63213784Y-61417636D01*
X63262532Y-61420584D01*
X63297579Y-61418284D01*
X63329245Y-61411564D01*
X63356754Y-61401039D01*
X63380956Y-61386832D01*
X63419051Y-61348621D01*
X63443859Y-61297466D01*
X63453967Y-61233136D01*
X63454068Y-61225532D01*
X62906426Y-61225532D01*
X62906426Y-61133135D01*
X62908757Y-61078240D01*
X62909048Y-61076055D01*
X63121409Y-61076055D01*
X63454068Y-61076055D01*
X63449021Y-61026450D01*
X63433917Y-60981900D01*
X63420164Y-60957250D01*
X63402267Y-60935500D01*
X63381993Y-60918539D01*
X63358164Y-60905196D01*
X63332365Y-60896400D01*
X63303388Y-60891785D01*
X63287738Y-60891188D01*
X63257718Y-60893460D01*
X63230765Y-60899988D01*
X63185664Y-60924380D01*
X63151876Y-60962648D01*
X63141632Y-60981900D01*
X63130028Y-61011894D01*
X63124035Y-61041511D01*
X63121409Y-61076055D01*
X62909048Y-61076055D01*
X62915696Y-61026120D01*
X62926736Y-60978513D01*
X62941950Y-60933990D01*
X62960506Y-60894192D01*
X62982807Y-60857691D01*
X63007852Y-60825752D01*
X63036272Y-60797279D01*
X63067168Y-60773039D01*
X63101158Y-60752449D01*
X63137734Y-60735861D01*
X63177222Y-60723180D01*
X63264945Y-60710212D01*
X63287738Y-60709691D01*
X63334026Y-60712023D01*
G37*
G36*
X62097494Y-61596000D02*
G01*
X62097494Y-60744056D01*
X62315920Y-60744056D01*
X62315920Y-61596000D01*
X62097494Y-61596000D01*
G37*
G36*
X62095809Y-60568934D02*
G01*
X62095809Y-60390808D01*
X62319291Y-60390808D01*
X62319291Y-60568934D01*
X62095809Y-60568934D01*
G37*
G36*
X61126555Y-61596000D02*
G01*
X61126555Y-61036635D01*
X61129193Y-60979214D01*
X61138277Y-60925115D01*
X61150038Y-60887545D01*
X61166892Y-60851679D01*
X61186846Y-60821017D01*
X61211920Y-60791667D01*
X61215582Y-60787946D01*
X61240979Y-60765879D01*
X61269691Y-60747211D01*
X61301530Y-60732179D01*
X61336414Y-60720957D01*
X61374526Y-60713715D01*
X61415470Y-60710774D01*
X61422211Y-60710717D01*
X61461050Y-60713062D01*
X61499293Y-60720101D01*
X61535778Y-60731612D01*
X61570563Y-60747675D01*
X61601868Y-60767400D01*
X61630596Y-60791333D01*
X61640638Y-60801429D01*
X61640638Y-60719803D01*
X61854008Y-60719803D01*
X61854008Y-61596000D01*
X61635582Y-61596000D01*
X61635582Y-61066090D01*
X61633324Y-61032321D01*
X61626900Y-61003132D01*
X61616923Y-60978461D01*
X61603869Y-60957832D01*
X61569190Y-60926921D01*
X61523888Y-60909407D01*
X61489402Y-60905916D01*
X61460487Y-60908365D01*
X61432126Y-60916130D01*
X61408984Y-60927667D01*
X61388130Y-60944093D01*
X61372289Y-60963023D01*
X61359520Y-60986380D01*
X61350808Y-61012823D01*
X61345896Y-61043726D01*
X61344982Y-61065797D01*
X61344982Y-61596000D01*
X61126555Y-61596000D01*
G37*
G36*
X59645491Y-61227803D02*
G01*
X59882309Y-61227803D01*
X59893884Y-61265420D01*
X59909844Y-61299645D01*
X59927768Y-61326523D01*
X59949435Y-61349760D01*
X59972543Y-61367356D01*
X59998990Y-61381194D01*
X60027513Y-61390589D01*
X60059294Y-61395918D01*
X60083956Y-61397064D01*
X60117698Y-61394770D01*
X60148847Y-61388091D01*
X60177076Y-61377370D01*
X60202233Y-61362895D01*
X60233433Y-61335075D01*
X60253299Y-61307918D01*
X60268616Y-61274559D01*
X60284505Y-61197644D01*
X60291964Y-61050351D01*
X60292271Y-60998166D01*
X60289770Y-60867175D01*
X60281644Y-60777245D01*
X60272860Y-60735311D01*
X60261022Y-60702918D01*
X60233433Y-60661184D01*
X60213445Y-60641803D01*
X60190060Y-60625680D01*
X60163419Y-60613074D01*
X60133845Y-60604350D01*
X60083956Y-60599196D01*
X60049513Y-60601487D01*
X60018553Y-60608151D01*
X59991372Y-60618664D01*
X59967321Y-60632798D01*
X59927238Y-60671902D01*
X59897095Y-60726671D01*
X59883994Y-60768456D01*
X59645491Y-60768456D01*
X59657061Y-60715695D01*
X59672534Y-60666852D01*
X59691362Y-60622699D01*
X59713619Y-60582350D01*
X59738863Y-60546172D01*
X59767142Y-60513745D01*
X59832198Y-60460166D01*
X59908500Y-60421355D01*
X59996083Y-60397843D01*
X60083956Y-60390808D01*
X60136297Y-60393129D01*
X60185074Y-60400001D01*
X60229321Y-60410914D01*
X60270663Y-60425870D01*
X60345857Y-60467615D01*
X60404818Y-60516837D01*
X60434654Y-60549942D01*
X60459132Y-60584153D01*
X60493636Y-60655918D01*
X60514424Y-60741604D01*
X60524270Y-60859225D01*
X60525791Y-60998166D01*
X60523664Y-61152765D01*
X60518967Y-61219179D01*
X60510038Y-61279571D01*
X60495516Y-61334865D01*
X60474045Y-61385988D01*
X60444265Y-61433865D01*
X60404818Y-61479422D01*
X60368291Y-61511836D01*
X60329162Y-61539740D01*
X60290536Y-61561300D01*
X60249173Y-61578743D01*
X60206336Y-61591563D01*
X60160475Y-61600278D01*
X60083956Y-61605378D01*
X60032823Y-61603036D01*
X59983715Y-61596020D01*
X59938322Y-61584790D01*
X59895253Y-61569207D01*
X59855892Y-61549946D01*
X59819108Y-61526615D01*
X59785832Y-61499895D01*
X59755380Y-61469312D01*
X59728238Y-61435310D01*
X59704199Y-61397561D01*
X59683440Y-61356085D01*
X59666129Y-61310886D01*
X59645491Y-61227803D01*
G37*
G36*
X58733757Y-61596000D02*
G01*
X58733757Y-61035829D01*
X58736395Y-60978335D01*
X58745479Y-60924192D01*
X58757236Y-60886616D01*
X58774082Y-60850751D01*
X58794028Y-60820091D01*
X58819091Y-60790746D01*
X58822784Y-60786994D01*
X58848205Y-60764903D01*
X58876945Y-60746211D01*
X58908801Y-60731164D01*
X58943704Y-60719929D01*
X58981806Y-60712686D01*
X59022737Y-60709747D01*
X59029413Y-60709691D01*
X59069114Y-60712036D01*
X59107039Y-60719070D01*
X59141761Y-60730307D01*
X59174443Y-60745912D01*
X59204262Y-60765405D01*
X59231772Y-60789080D01*
X59242784Y-60800476D01*
X59242784Y-60400187D01*
X59461210Y-60400187D01*
X59461210Y-61596000D01*
X59242784Y-61596000D01*
X59242784Y-61066090D01*
X59240526Y-61032421D01*
X59234102Y-61003312D01*
X59224121Y-60978695D01*
X59211061Y-60958108D01*
X59176350Y-60927241D01*
X59130992Y-60909752D01*
X59096604Y-60906282D01*
X59067689Y-60908731D01*
X59039328Y-60916495D01*
X59016181Y-60928032D01*
X58995325Y-60944456D01*
X58979483Y-60963383D01*
X58966714Y-60986736D01*
X58958004Y-61013171D01*
X58953095Y-61044063D01*
X58952183Y-61066090D01*
X58952183Y-61596000D01*
X58733757Y-61596000D01*
G37*
G36*
X58280271Y-61596000D02*
G01*
X58280271Y-60744056D01*
X58498698Y-60744056D01*
X58498698Y-61596000D01*
X58280271Y-61596000D01*
G37*
G36*
X58278586Y-60568934D02*
G01*
X58278586Y-60390808D01*
X58502068Y-60390808D01*
X58502068Y-60568934D01*
X58278586Y-60568934D01*
G37*
G36*
X57309333Y-61596000D02*
G01*
X57309333Y-61036635D01*
X57311970Y-60979214D01*
X57321055Y-60925115D01*
X57332816Y-60887545D01*
X57349669Y-60851679D01*
X57369623Y-60821017D01*
X57394697Y-60791667D01*
X57398359Y-60787946D01*
X57423757Y-60765879D01*
X57452468Y-60747211D01*
X57484307Y-60732179D01*
X57519191Y-60720957D01*
X57557304Y-60713715D01*
X57598248Y-60710774D01*
X57604989Y-60710717D01*
X57643828Y-60713062D01*
X57682071Y-60720101D01*
X57718555Y-60731612D01*
X57753341Y-60747675D01*
X57784646Y-60767400D01*
X57813374Y-60791333D01*
X57823415Y-60801429D01*
X57823415Y-60719803D01*
X58036786Y-60719803D01*
X58036786Y-61596000D01*
X57818359Y-61596000D01*
X57818359Y-61066090D01*
X57816102Y-61032321D01*
X57809678Y-61003132D01*
X57799700Y-60978461D01*
X57786646Y-60957832D01*
X57751968Y-60926921D01*
X57706666Y-60909407D01*
X57672180Y-60905916D01*
X57643265Y-60908365D01*
X57614903Y-60916130D01*
X57591761Y-60927667D01*
X57570907Y-60944093D01*
X57555067Y-60963023D01*
X57542298Y-60986380D01*
X57533586Y-61012823D01*
X57528673Y-61043726D01*
X57527759Y-61065797D01*
X57527759Y-61596000D01*
X57309333Y-61596000D01*
G37*
G36*
X56851165Y-60713202D02*
G01*
X56908804Y-60721219D01*
X56949498Y-60731979D01*
X56986947Y-60747104D01*
X57051156Y-60788566D01*
X57099479Y-60834988D01*
X56961726Y-60971055D01*
X56931963Y-60940995D01*
X56901133Y-60919019D01*
X56875711Y-60907440D01*
X56847270Y-60899878D01*
X56793712Y-60895511D01*
X56750056Y-60897886D01*
X56713760Y-60905130D01*
X56689046Y-60914938D01*
X56668959Y-60928308D01*
X56654545Y-60943650D01*
X56643661Y-60962102D01*
X56631756Y-61010322D01*
X56630753Y-61033264D01*
X56630753Y-61076935D01*
X56834012Y-61076935D01*
X56883020Y-61079229D01*
X56927528Y-61085910D01*
X56966750Y-61096397D01*
X57001766Y-61110507D01*
X57032253Y-61127714D01*
X57058733Y-61147904D01*
X57099993Y-61196356D01*
X57126110Y-61255074D01*
X57136326Y-61323526D01*
X57136409Y-61330605D01*
X57134082Y-61370732D01*
X57127177Y-61409108D01*
X57116064Y-61444564D01*
X57100756Y-61477390D01*
X57064162Y-61527123D01*
X57039299Y-61548651D01*
X57011086Y-61566784D01*
X56944302Y-61592614D01*
X56860448Y-61604061D01*
X56840753Y-61604426D01*
X56791450Y-61602034D01*
X56748998Y-61594672D01*
X56716824Y-61584183D01*
X56687502Y-61569652D01*
X56632685Y-61527095D01*
X56625697Y-61520235D01*
X56625697Y-61597025D01*
X56412326Y-61596000D01*
X56412326Y-61273013D01*
X56630753Y-61273013D01*
X56633341Y-61318485D01*
X56642078Y-61353324D01*
X56664312Y-61384974D01*
X56685865Y-61401769D01*
X56708347Y-61413383D01*
X56759190Y-61424641D01*
X56793712Y-61425933D01*
X56829458Y-61423636D01*
X56859413Y-61416938D01*
X56881734Y-61407263D01*
X56899447Y-61394399D01*
X56912022Y-61379516D01*
X56920638Y-61362165D01*
X56926409Y-61326575D01*
X56924055Y-61301406D01*
X56916961Y-61279694D01*
X56906541Y-61263249D01*
X56892240Y-61249696D01*
X56851923Y-61231512D01*
X56797082Y-61225532D01*
X56630753Y-61225532D01*
X56630753Y-61273013D01*
X56412326Y-61273013D01*
X56412326Y-61019782D01*
X56414669Y-60973241D01*
X56421685Y-60930462D01*
X56432439Y-60893934D01*
X56447240Y-60860699D01*
X56465198Y-60831966D01*
X56486845Y-60806266D01*
X56540720Y-60764261D01*
X56611252Y-60733597D01*
X56702427Y-60715118D01*
X56785285Y-60710717D01*
X56851165Y-60713202D01*
G37*
D12*
X130996847Y-103660839D02*
X130711133Y-103051316D01*
X130711133Y-103051316D02*
X130425419Y-103660839D01*
X130330180Y-102251316D02*
X130330180Y-102708459D01*
X130330180Y-102479887D02*
X131330180Y-102479887D01*
X131330180Y-102479887D02*
X131187323Y-102556078D01*
X131187323Y-102556078D02*
X131092085Y-102632268D01*
X131092085Y-102632268D02*
X131044466Y-102708459D01*
X131330180Y-101756077D02*
X131330180Y-101679887D01*
X131330180Y-101679887D02*
X131282561Y-101603696D01*
X131282561Y-101603696D02*
X131234942Y-101565601D01*
X131234942Y-101565601D02*
X131139704Y-101527506D01*
X131139704Y-101527506D02*
X130949228Y-101489411D01*
X130949228Y-101489411D02*
X130711133Y-101489411D01*
X130711133Y-101489411D02*
X130520657Y-101527506D01*
X130520657Y-101527506D02*
X130425419Y-101565601D01*
X130425419Y-101565601D02*
X130377800Y-101603696D01*
X130377800Y-101603696D02*
X130330180Y-101679887D01*
X130330180Y-101679887D02*
X130330180Y-101756077D01*
X130330180Y-101756077D02*
X130377800Y-101832268D01*
X130377800Y-101832268D02*
X130425419Y-101870363D01*
X130425419Y-101870363D02*
X130520657Y-101908458D01*
X130520657Y-101908458D02*
X130711133Y-101946554D01*
X130711133Y-101946554D02*
X130949228Y-101946554D01*
X130949228Y-101946554D02*
X131139704Y-101908458D01*
X131139704Y-101908458D02*
X131234942Y-101870363D01*
X131234942Y-101870363D02*
X131282561Y-101832268D01*
X131282561Y-101832268D02*
X131330180Y-101756077D01*
X131330180Y-100994172D02*
X131330180Y-100917982D01*
X131330180Y-100917982D02*
X131282561Y-100841791D01*
X131282561Y-100841791D02*
X131234942Y-100803696D01*
X131234942Y-100803696D02*
X131139704Y-100765601D01*
X131139704Y-100765601D02*
X130949228Y-100727506D01*
X130949228Y-100727506D02*
X130711133Y-100727506D01*
X130711133Y-100727506D02*
X130520657Y-100765601D01*
X130520657Y-100765601D02*
X130425419Y-100803696D01*
X130425419Y-100803696D02*
X130377800Y-100841791D01*
X130377800Y-100841791D02*
X130330180Y-100917982D01*
X130330180Y-100917982D02*
X130330180Y-100994172D01*
X130330180Y-100994172D02*
X130377800Y-101070363D01*
X130377800Y-101070363D02*
X130425419Y-101108458D01*
X130425419Y-101108458D02*
X130520657Y-101146553D01*
X130520657Y-101146553D02*
X130711133Y-101184649D01*
X130711133Y-101184649D02*
X130949228Y-101184649D01*
X130949228Y-101184649D02*
X131139704Y-101146553D01*
X131139704Y-101146553D02*
X131234942Y-101108458D01*
X131234942Y-101108458D02*
X131282561Y-101070363D01*
X131282561Y-101070363D02*
X131330180Y-100994172D01*
X131330180Y-100232267D02*
X131330180Y-100156077D01*
X131330180Y-100156077D02*
X131282561Y-100079886D01*
X131282561Y-100079886D02*
X131234942Y-100041791D01*
X131234942Y-100041791D02*
X131139704Y-100003696D01*
X131139704Y-100003696D02*
X130949228Y-99965601D01*
X130949228Y-99965601D02*
X130711133Y-99965601D01*
X130711133Y-99965601D02*
X130520657Y-100003696D01*
X130520657Y-100003696D02*
X130425419Y-100041791D01*
X130425419Y-100041791D02*
X130377800Y-100079886D01*
X130377800Y-100079886D02*
X130330180Y-100156077D01*
X130330180Y-100156077D02*
X130330180Y-100232267D01*
X130330180Y-100232267D02*
X130377800Y-100308458D01*
X130377800Y-100308458D02*
X130425419Y-100346553D01*
X130425419Y-100346553D02*
X130520657Y-100384648D01*
X130520657Y-100384648D02*
X130711133Y-100422744D01*
X130711133Y-100422744D02*
X130949228Y-100422744D01*
X130949228Y-100422744D02*
X131139704Y-100384648D01*
X131139704Y-100384648D02*
X131234942Y-100346553D01*
X131234942Y-100346553D02*
X131282561Y-100308458D01*
X131282561Y-100308458D02*
X131330180Y-100232267D01*
X130330180Y-99622743D02*
X130996847Y-99622743D01*
X130901609Y-99622743D02*
X130949228Y-99584648D01*
X130949228Y-99584648D02*
X130996847Y-99508458D01*
X130996847Y-99508458D02*
X130996847Y-99394172D01*
X130996847Y-99394172D02*
X130949228Y-99317981D01*
X130949228Y-99317981D02*
X130853990Y-99279886D01*
X130853990Y-99279886D02*
X130330180Y-99279886D01*
X130853990Y-99279886D02*
X130949228Y-99241791D01*
X130949228Y-99241791D02*
X130996847Y-99165600D01*
X130996847Y-99165600D02*
X130996847Y-99051315D01*
X130996847Y-99051315D02*
X130949228Y-98975124D01*
X130949228Y-98975124D02*
X130853990Y-98937029D01*
X130853990Y-98937029D02*
X130330180Y-98937029D01*
X130615895Y-98594172D02*
X130615895Y-98213219D01*
X130330180Y-98670362D02*
X131330180Y-98403695D01*
X131330180Y-98403695D02*
X130330180Y-98137029D01*
X130330180Y-97870362D02*
X131330180Y-97870362D01*
X130853990Y-97870362D02*
X130853990Y-97413219D01*
X130330180Y-97413219D02*
X131330180Y-97413219D01*
D15*
X112050000Y-55150000D02*
X112050000Y-54220000D01*
X111400000Y-51350000D02*
X109920000Y-51350000D01*
X107080000Y-51350000D02*
X105600000Y-51350000D01*
X105300000Y-52750000D02*
X111700000Y-52750000D01*
X105270000Y-58350000D02*
X111730000Y-58350000D01*
X104950000Y-55150000D02*
X104950000Y-54220000D01*
D13*
X104500000Y-54950000D02*
G75*
G02*
X104300000Y-54950000I-100000J0D01*
G01*
X104300000Y-54950000D02*
G75*
G02*
X104500000Y-54950000I100000J0D01*
G01*
D15*
X70050000Y-55150000D02*
X70050000Y-54220000D01*
X69400000Y-51350000D02*
X67920000Y-51350000D01*
X65080000Y-51350000D02*
X63600000Y-51350000D01*
X63300000Y-52750000D02*
X69700000Y-52750000D01*
X63270000Y-58350000D02*
X69730000Y-58350000D01*
X62950000Y-55150000D02*
X62950000Y-54220000D01*
D13*
X62500000Y-54950000D02*
G75*
G02*
X62300000Y-54950000I-100000J0D01*
G01*
X62300000Y-54950000D02*
G75*
G02*
X62500000Y-54950000I100000J0D01*
G01*
D15*
X82050000Y-55150000D02*
X82050000Y-54220000D01*
X81400000Y-51350000D02*
X79920000Y-51350000D01*
X77080000Y-51350000D02*
X75600000Y-51350000D01*
X75300000Y-52750000D02*
X81700000Y-52750000D01*
X75270000Y-58350000D02*
X81730000Y-58350000D01*
X74950000Y-55150000D02*
X74950000Y-54220000D01*
D13*
X74500000Y-54950000D02*
G75*
G02*
X74300000Y-54950000I-100000J0D01*
G01*
X74300000Y-54950000D02*
G75*
G02*
X74500000Y-54950000I100000J0D01*
G01*
D15*
X124050000Y-55150000D02*
X124050000Y-54220000D01*
X123400000Y-51350000D02*
X121920000Y-51350000D01*
X119080000Y-51350000D02*
X117600000Y-51350000D01*
X117300000Y-52750000D02*
X123700000Y-52750000D01*
X117270000Y-58350000D02*
X123730000Y-58350000D01*
X116950000Y-55150000D02*
X116950000Y-54220000D01*
D13*
X116500000Y-54950000D02*
G75*
G02*
X116300000Y-54950000I-100000J0D01*
G01*
X116300000Y-54950000D02*
G75*
G02*
X116500000Y-54950000I100000J0D01*
G01*
D15*
X53500000Y-78200000D02*
X53500000Y-102200000D01*
X56500000Y-105200000D02*
X115500000Y-105200000D01*
X90400000Y-105200000D02*
X98750000Y-105200000D01*
X103000000Y-105200000D02*
X111350000Y-105200000D01*
X115500000Y-75200000D02*
X56500000Y-75200000D01*
X118500000Y-102200000D02*
X118500000Y-78200000D01*
X53500000Y-78200000D02*
G75*
G02*
X56500000Y-75200000I3000001J-1D01*
G01*
X56500000Y-105200000D02*
G75*
G02*
X53500000Y-102200000I1J3000001D01*
G01*
X115500000Y-75200000D02*
G75*
G02*
X118500000Y-78200000I0J-3000000D01*
G01*
X118500000Y-102200000D02*
G75*
G02*
X115500000Y-105200000I-3000000J0D01*
G01*
D16*
X78362742Y-70127501D02*
X78837258Y-70127501D01*
X78362742Y-71172501D02*
X78837258Y-71172501D01*
X81190000Y-64300000D02*
X81190000Y-66000000D01*
X83850000Y-64300000D02*
X81190000Y-64300000D01*
X83850000Y-66000000D02*
X81190000Y-66000000D01*
X117284419Y-62290000D02*
X117565581Y-62290000D01*
X117284419Y-63310000D02*
X117565581Y-63310000D01*
X78831250Y-66515001D02*
X80331250Y-66515001D01*
X78831250Y-69735001D02*
X80331250Y-69735001D01*
X81831250Y-66515001D02*
X80331250Y-66515001D01*
X81831250Y-69735001D02*
X80331250Y-69735001D01*
X82543750Y-66690001D02*
X82303751Y-66360001D01*
X82783750Y-66360001D01*
X82543750Y-66690001D01*
G36*
X82543750Y-66690001D02*
G01*
X82303751Y-66360001D01*
X82783750Y-66360001D01*
X82543750Y-66690001D01*
G37*
X100887258Y-69827501D02*
X100412742Y-69827501D01*
X100887258Y-70872501D02*
X100412742Y-70872501D01*
X103490000Y-63162742D02*
X103490000Y-63637258D01*
X104535000Y-63162742D02*
X104535000Y-63637258D01*
X134877500Y-96075242D02*
X134877500Y-96549758D01*
X135922500Y-96075242D02*
X135922500Y-96549758D01*
X128787500Y-88912742D02*
X128787500Y-89387258D01*
X129832500Y-88912742D02*
X129832500Y-89387258D01*
X130455000Y-93851247D02*
X130455000Y-94373753D01*
X131925000Y-93851247D02*
X131925000Y-94373753D01*
X117627500Y-65287258D02*
X117627500Y-64812742D01*
X118672500Y-65287258D02*
X118672500Y-64812742D01*
X130455000Y-89373752D02*
X130455000Y-88851246D01*
X131925000Y-89373752D02*
X131925000Y-88851246D01*
X106652500Y-63540581D02*
X106652500Y-63259419D01*
X107672500Y-63540581D02*
X107672500Y-63259419D01*
X100412742Y-71327500D02*
X100887258Y-71327500D01*
X100412742Y-72372500D02*
X100887258Y-72372500D01*
X130737258Y-62977500D02*
X130262742Y-62977500D01*
X130737258Y-64022500D02*
X130262742Y-64022500D01*
X120859419Y-73640000D02*
X121140581Y-73640000D01*
X120859419Y-74660000D02*
X121140581Y-74660000D01*
X73558750Y-67762743D02*
X73558750Y-68237259D01*
X74603750Y-67762743D02*
X74603750Y-68237259D01*
X119000000Y-99340000D02*
X121889999Y-99340000D01*
X120290000Y-97040000D02*
X124540000Y-97040000D01*
X120290000Y-98060000D02*
X120290000Y-97040000D01*
X120290000Y-104140000D02*
X120290000Y-105160000D01*
X120290000Y-105160000D02*
X124540000Y-105160000D01*
X121889999Y-99340000D02*
X121890000Y-98060000D01*
X121889999Y-102860000D02*
X121890000Y-104140000D01*
X121890000Y-98060000D02*
X120290000Y-98060000D01*
X121890000Y-104140000D02*
X120290000Y-104140000D01*
X128110000Y-103439999D02*
X128110000Y-98760001D01*
X119127501Y-62412743D02*
X119127501Y-62887259D01*
X120172501Y-62412743D02*
X120172501Y-62887259D01*
X98915000Y-66088747D02*
X98915000Y-66611253D01*
X100385000Y-66088747D02*
X100385000Y-66611253D01*
X100887259Y-68327500D02*
X100412743Y-68327500D01*
X100887259Y-69372500D02*
X100412743Y-69372500D01*
X133377500Y-86775242D02*
X133377500Y-87249758D01*
X134422500Y-86775242D02*
X134422500Y-87249758D01*
X124190000Y-79200000D02*
X124190000Y-80900000D01*
X126850000Y-79200000D02*
X124190000Y-79200000D01*
X126850000Y-80900000D02*
X124190000Y-80900000D01*
X90527500Y-72937258D02*
X90527500Y-72462742D01*
X91572500Y-72937258D02*
X91572500Y-72462742D01*
X120988748Y-75290000D02*
X122411252Y-75290000D01*
X120988748Y-77110000D02*
X122411252Y-77110000D01*
X134877500Y-86775242D02*
X134877500Y-87249758D01*
X135922500Y-86775242D02*
X135922500Y-87249758D01*
X85862742Y-66477500D02*
X86337258Y-66477500D01*
X85862742Y-67522500D02*
X86337258Y-67522500D01*
X125827500Y-86337258D02*
X125827500Y-85862742D01*
X126872500Y-86337258D02*
X126872500Y-85862742D01*
X121112742Y-72127500D02*
X121587258Y-72127500D01*
X121112742Y-73172500D02*
X121587258Y-73172500D01*
X123000001Y-72949999D02*
X122999479Y-70025518D01*
X123425001Y-73374999D02*
X125575000Y-73375000D01*
X125574480Y-69600522D02*
X123424479Y-69600522D01*
X125999480Y-70025522D02*
X126000001Y-72950001D01*
X122999479Y-70025518D02*
G75*
G02*
X123424479Y-69600529I425021J-32D01*
G01*
X123425001Y-73374999D02*
G75*
G02*
X123000001Y-72949999I-2J424998D01*
G01*
X125574480Y-69600522D02*
G75*
G02*
X125999478Y-70025522I0J-424998D01*
G01*
X126000001Y-72950001D02*
G75*
G02*
X125575000Y-73375000I-425000J1D01*
G01*
X123761253Y-59690000D02*
X122338749Y-59690000D01*
X123761253Y-61510000D02*
X122338749Y-61510000D01*
X125887258Y-76927500D02*
X125412742Y-76927500D01*
X125887258Y-77972500D02*
X125412742Y-77972500D01*
X133377500Y-96075242D02*
X133377500Y-96549758D01*
X134422500Y-96075242D02*
X134422500Y-96549758D01*
X84777500Y-64462742D02*
X84777500Y-64937258D01*
X85822500Y-64462742D02*
X85822500Y-64937258D01*
X124990000Y-83480000D02*
X124990001Y-82070000D01*
X125650001Y-83480000D02*
X124990000Y-83480000D01*
X127310000Y-83480000D02*
X126649999Y-83480000D01*
X127310000Y-83480000D02*
X127309999Y-82070000D01*
X125010000Y-81700000D02*
X124680001Y-81940000D01*
X124680000Y-81460000D01*
X125010000Y-81700000D01*
G36*
X125010000Y-81700000D02*
G01*
X124680001Y-81940000D01*
X124680000Y-81460000D01*
X125010000Y-81700000D01*
G37*
X119240000Y-66650000D02*
X119240000Y-68150000D01*
X119240000Y-69650000D02*
X119240000Y-68150000D01*
X122460000Y-66650000D02*
X122460000Y-68150000D01*
X122460000Y-69650000D02*
X122460000Y-68150000D01*
X122615000Y-70602500D02*
X122285000Y-70362500D01*
X122615000Y-70122501D01*
X122615000Y-70602500D01*
G36*
X122615000Y-70602500D02*
G01*
X122285000Y-70362500D01*
X122615000Y-70122501D01*
X122615000Y-70602500D01*
G37*
X86377500Y-64937258D02*
X86377500Y-64462742D01*
X87422500Y-64937258D02*
X87422500Y-64462742D01*
X130737258Y-61477500D02*
X130262742Y-61477500D01*
X130737258Y-62522500D02*
X130262742Y-62522500D01*
X127050000Y-93350000D02*
X127050000Y-90690000D01*
X128750000Y-90690000D02*
X127050000Y-90690000D01*
X128750000Y-93350000D02*
X128750000Y-90690000D01*
X122424721Y-95090000D02*
X122750279Y-95090000D01*
X122424721Y-96110000D02*
X122750279Y-96110000D01*
X117187743Y-60777500D02*
X117662259Y-60777500D01*
X117187743Y-61822500D02*
X117662259Y-61822500D01*
X102002500Y-63540581D02*
X102002500Y-63259419D01*
X103022500Y-63540581D02*
X103022500Y-63259419D01*
X132790000Y-93062500D02*
X132790000Y-90062500D01*
X136010000Y-93062500D02*
X136010000Y-90062500D01*
X133100000Y-89542500D02*
X132620000Y-89542500D01*
X133100000Y-89062500D01*
X133100000Y-89542500D01*
G36*
X133100000Y-89542500D02*
G01*
X132620000Y-89542500D01*
X133100000Y-89062500D01*
X133100000Y-89542500D01*
G37*
X123640000Y-89200000D02*
X123639999Y-89850000D01*
X123640000Y-90500000D02*
X123639999Y-89850000D01*
X126760000Y-89200000D02*
X126760001Y-89850000D01*
X126760000Y-90500000D02*
X126760001Y-89850000D01*
X123690000Y-88687500D02*
X123360001Y-88927500D01*
X123360000Y-88447500D01*
X123690000Y-88687500D01*
G36*
X123690000Y-88687500D02*
G01*
X123360001Y-88927500D01*
X123360000Y-88447500D01*
X123690000Y-88687500D01*
G37*
X86900000Y-53100000D02*
X100100000Y-53089448D01*
X86900000Y-54690000D02*
X86900000Y-53100000D01*
X86900000Y-56800000D02*
X86900000Y-57900000D01*
X86900000Y-57900000D02*
X89540000Y-57900000D01*
X88750000Y-58400000D02*
X89250001Y-58700000D01*
X88750000Y-59000000D02*
X88750000Y-58400000D01*
X89250001Y-58700000D02*
X88750000Y-59000000D01*
X100100000Y-53100000D02*
X100100000Y-54690000D01*
X100100000Y-56800000D02*
X100100000Y-57900000D01*
X100100000Y-57900000D02*
X97460000Y-57900000D01*
X82287258Y-70127500D02*
X81812742Y-70127500D01*
X82287258Y-71172500D02*
X81812742Y-71172500D01*
X75058750Y-67762743D02*
X75058750Y-68237259D01*
X76103750Y-67762743D02*
X76103750Y-68237259D01*
X123050000Y-84640000D02*
X123700000Y-84639999D01*
X123050000Y-87760000D02*
X123700000Y-87760001D01*
X124350000Y-84640000D02*
X123700000Y-84639999D01*
X124350000Y-87760000D02*
X123700000Y-87760001D01*
X124862500Y-84690000D02*
X124622500Y-84360001D01*
X125102500Y-84360000D01*
X124862500Y-84690000D01*
G36*
X124862500Y-84690000D02*
G01*
X124622500Y-84360001D01*
X125102500Y-84360000D01*
X124862500Y-84690000D01*
G37*
X127377500Y-85862742D02*
X127377500Y-86337258D01*
X128422500Y-85862742D02*
X128422500Y-86337258D01*
X103740000Y-66339999D02*
X103740000Y-66814999D01*
X103740000Y-69559999D02*
X103740000Y-69084999D01*
X104215000Y-66339999D02*
X103740000Y-66339999D01*
X104215000Y-69559999D02*
X103740000Y-69559999D01*
X106485000Y-66339999D02*
X106960000Y-66339999D01*
X106720000Y-69559999D02*
X106485000Y-69559999D01*
X106960000Y-66339999D02*
X106960000Y-66814999D01*
X106960000Y-69259999D02*
X106960000Y-69084999D01*
X107290000Y-69799999D02*
X106960000Y-69559999D01*
X107290000Y-69319999D01*
X107290000Y-69799999D01*
G36*
X107290000Y-69799999D02*
G01*
X106960000Y-69559999D01*
X107290000Y-69319999D01*
X107290000Y-69799999D01*
G37*
X123402500Y-83237258D02*
X123402500Y-82762742D01*
X124447500Y-83237258D02*
X124447500Y-82762742D01*
X88627500Y-71637258D02*
X88627500Y-71162742D01*
X89672500Y-71637258D02*
X89672500Y-71162742D01*
X84490000Y-69440581D02*
X84490000Y-69159419D01*
X85510000Y-69440581D02*
X85510000Y-69159419D01*
X100940000Y-66409418D02*
X100940000Y-66690580D01*
X101960000Y-66409418D02*
X101960000Y-66690580D01*
X122027500Y-90062742D02*
X122027500Y-90537258D01*
X123072500Y-90062742D02*
X123072500Y-90537258D01*
X123761252Y-62040001D02*
X122338748Y-62040001D01*
X123761252Y-63860001D02*
X122338748Y-63860001D01*
X105140000Y-63162742D02*
X105140000Y-63637258D01*
X106185000Y-63162742D02*
X106185000Y-63637258D01*
X127290000Y-76450000D02*
X127290000Y-78450000D01*
X131150000Y-76450000D02*
X127290000Y-76450000D01*
X131150000Y-78450000D02*
X127290000Y-78450000D01*
X79262742Y-65077500D02*
X79737258Y-65077500D01*
X79262742Y-66122500D02*
X79737258Y-66122500D01*
X134875000Y-65010000D02*
X133175000Y-65010000D01*
X134875000Y-74350000D02*
X133175000Y-74350000D01*
%LPC*%
D17*
X112800000Y-53250000D03*
X112800000Y-57850000D03*
D18*
X108500000Y-51950000D03*
D17*
X104200000Y-53250000D03*
X104200000Y-57850000D03*
D19*
X112475000Y-51600000D03*
D20*
X106250000Y-55500000D03*
D19*
X104525000Y-51600000D03*
X112475000Y-56100000D03*
D20*
X110750000Y-55500000D03*
D19*
X104525000Y-56100000D03*
D17*
X70800000Y-53250000D03*
X70800000Y-57850000D03*
D18*
X66500000Y-51950000D03*
D17*
X62200000Y-53250000D03*
X62200000Y-57850000D03*
D19*
X70475000Y-51600000D03*
D20*
X64250000Y-55500000D03*
D19*
X62525000Y-51600000D03*
X70475000Y-56100000D03*
D20*
X68750000Y-55500000D03*
D19*
X62525000Y-56100000D03*
D17*
X82800000Y-53250000D03*
X82800000Y-57850000D03*
D18*
X78500000Y-51950000D03*
D17*
X74200000Y-53250000D03*
X74200000Y-57850000D03*
D19*
X82475000Y-51600000D03*
D20*
X76250000Y-55500000D03*
D19*
X74525000Y-51600000D03*
X82475000Y-56100000D03*
D20*
X80750000Y-55500000D03*
D19*
X74525000Y-56100000D03*
D17*
X124800000Y-53250000D03*
X124800000Y-57850000D03*
D18*
X120500000Y-51950000D03*
D17*
X116200000Y-53250000D03*
X116200000Y-57850000D03*
D19*
X124475000Y-51600000D03*
D20*
X118250000Y-55500000D03*
D19*
X116525000Y-51600000D03*
X124475000Y-56100000D03*
D20*
X122750000Y-55500000D03*
D19*
X116525000Y-56100000D03*
D21*
X57990000Y-92330000D03*
X103240000Y-92330000D03*
X52000000Y-60000000D03*
D22*
X111950000Y-101150000D03*
X111950000Y-102050000D03*
X111950000Y-102950000D03*
X111950000Y-103850000D03*
D21*
X85500000Y-60000000D03*
D22*
X119775000Y-85600000D03*
X119775000Y-86500000D03*
X119775000Y-87400000D03*
X119775000Y-88300000D03*
X119775000Y-89200000D03*
D21*
X135000000Y-81500000D03*
X57000000Y-78700000D03*
X115000000Y-78700000D03*
X115000000Y-101700000D03*
D23*
X61870000Y-79970000D03*
X61870000Y-77430000D03*
X64410000Y-79970000D03*
X64410000Y-77430000D03*
X66950000Y-79970000D03*
X66950000Y-77430000D03*
X69490000Y-79970000D03*
X69490000Y-77430000D03*
X72030000Y-79970000D03*
X72030000Y-77430000D03*
X74570000Y-79970000D03*
X74570000Y-77430000D03*
X77110000Y-79970000D03*
X77110000Y-77430000D03*
X79650000Y-79970000D03*
X79650000Y-77430000D03*
X82190000Y-79970000D03*
X82190000Y-77430000D03*
X84730000Y-79970000D03*
X84730000Y-77430000D03*
X87270000Y-79970000D03*
X87270000Y-77430000D03*
X89810000Y-79970000D03*
X89810000Y-77430000D03*
X92350000Y-79970000D03*
X92350000Y-77430000D03*
X94890000Y-79970000D03*
X94890000Y-77430000D03*
X97430000Y-79970000D03*
X97430000Y-77430000D03*
X99970000Y-79970000D03*
X99970000Y-77430000D03*
X102510000Y-79970000D03*
X102510000Y-77430000D03*
X105050000Y-79970000D03*
X105050000Y-77430000D03*
X107590000Y-79970000D03*
X107590000Y-77430000D03*
X110130000Y-79970000D03*
X110130000Y-77430000D03*
D21*
X135000000Y-60000000D03*
X58000000Y-100100000D03*
X103250000Y-100100000D03*
D24*
X62870000Y-101370000D03*
X62870000Y-98830000D03*
X65410000Y-101370000D03*
X65410000Y-98830000D03*
X67950000Y-101370000D03*
X67950000Y-98830000D03*
X70490000Y-101370001D03*
X70490000Y-98829999D03*
X73030000Y-101370000D03*
X73030000Y-98830000D03*
X75570000Y-101370000D03*
X75570000Y-98830000D03*
X78110000Y-101370000D03*
X78110000Y-98830000D03*
X80650000Y-101370001D03*
X80650000Y-98829999D03*
X83190000Y-101370000D03*
X83190000Y-98830000D03*
X85730000Y-101370000D03*
X85730000Y-98830000D03*
X88270000Y-101370000D03*
X88270000Y-98830000D03*
X90810000Y-101370000D03*
X90810000Y-98830000D03*
X93350000Y-101370001D03*
X93350000Y-98829999D03*
X95890000Y-101370000D03*
X95890000Y-98830000D03*
X98430000Y-101370000D03*
X98430000Y-98830000D03*
D25*
X79425000Y-70650001D03*
X77775000Y-70650001D03*
D26*
X109012500Y-67200000D03*
D27*
X68000000Y-74000000D03*
D28*
X81750000Y-65150000D03*
X83850000Y-65150000D03*
D29*
X118200000Y-62800000D03*
X116650000Y-62800000D03*
D30*
X82443750Y-67150001D03*
X82443750Y-67800001D03*
X82443750Y-68450001D03*
X82443750Y-69100001D03*
X78218750Y-69100001D03*
X78218750Y-68450001D03*
X78218750Y-67800001D03*
X78218750Y-67150001D03*
D31*
X99825000Y-70350001D03*
X101475000Y-70350001D03*
D32*
X104012500Y-64225000D03*
X104012500Y-62575000D03*
X135400000Y-97137500D03*
X135400000Y-95487500D03*
X129310000Y-89975000D03*
X129310000Y-88325000D03*
D33*
X131190000Y-95062499D03*
X131190000Y-93162501D03*
D34*
X118150000Y-64225000D03*
X118150000Y-65875000D03*
D35*
X131190000Y-88162500D03*
X131190000Y-90062498D03*
D27*
X89000000Y-64000000D03*
D36*
X107162500Y-62625000D03*
X107162500Y-64175000D03*
D27*
X111000000Y-74000000D03*
D25*
X101475000Y-71850000D03*
X99825000Y-71850000D03*
D31*
X129675000Y-63500000D03*
X131325000Y-63500000D03*
D27*
X78000000Y-74000000D03*
D26*
X109012500Y-70700000D03*
D27*
X70000000Y-74000000D03*
X59000000Y-74000000D03*
D29*
X121775000Y-74150000D03*
X120225000Y-74150000D03*
D27*
X62000000Y-74000000D03*
D32*
X74081250Y-68825001D03*
X74081250Y-67175001D03*
D37*
X120750000Y-100100000D03*
X120750000Y-102100000D03*
D38*
X126500000Y-97750000D03*
X126500000Y-104450000D03*
D27*
X64000000Y-74000000D03*
D32*
X119650001Y-63475001D03*
X119650001Y-61825001D03*
D33*
X99650000Y-67299999D03*
X99650000Y-65400001D03*
D26*
X111012500Y-68700000D03*
D31*
X99825001Y-68850000D03*
X101475001Y-68850000D03*
D27*
X76000000Y-74000000D03*
D32*
X133900000Y-87837500D03*
X133900000Y-86187500D03*
D28*
X124750000Y-80050000D03*
X126850000Y-80050000D03*
D27*
X80000000Y-74000000D03*
D34*
X91050000Y-71875000D03*
X91050000Y-73525000D03*
D39*
X123175001Y-76200000D03*
X120224999Y-76200000D03*
D27*
X109000000Y-74000000D03*
X93000000Y-74000000D03*
X91000000Y-66000000D03*
X72000000Y-74000000D03*
D32*
X135400000Y-87837500D03*
X135400000Y-86187500D03*
D25*
X86925000Y-67000000D03*
X85275000Y-67000000D03*
D34*
X126350000Y-85275000D03*
X126350000Y-86925000D03*
D25*
X122175000Y-72650000D03*
X120525000Y-72650000D03*
D40*
X124500000Y-72537500D03*
X124500000Y-70462500D03*
D27*
X95000000Y-72000000D03*
D41*
X57200000Y-58300000D03*
D42*
X121575000Y-60600000D03*
X124525002Y-60600000D03*
D31*
X124825000Y-77450000D03*
X126475000Y-77450000D03*
D27*
X99000000Y-74000000D03*
X91000000Y-64000000D03*
D32*
X133900000Y-97137500D03*
X133900000Y-95487500D03*
X85300000Y-65525000D03*
X85300000Y-63875000D03*
D43*
X125500000Y-81750000D03*
X126800000Y-81750000D03*
X126150000Y-83750000D03*
D27*
X93000000Y-70000000D03*
D44*
X121825000Y-70262500D03*
X121175000Y-70262500D03*
X120525000Y-70262500D03*
X119875000Y-70262500D03*
X119875000Y-66037500D03*
X120525000Y-66037500D03*
X121175000Y-66037500D03*
X121825000Y-66037500D03*
D34*
X86900000Y-63875000D03*
X86900000Y-65525000D03*
D31*
X129675000Y-62000000D03*
X131325000Y-62000000D03*
D45*
X127900000Y-91250000D03*
X127900000Y-93350000D03*
D27*
X105000000Y-74000000D03*
D46*
X123375000Y-95600000D03*
X121800000Y-95600000D03*
D27*
X66000000Y-74000000D03*
D25*
X118250001Y-61300000D03*
X116600001Y-61300000D03*
D36*
X102512500Y-62625000D03*
X102512500Y-64175000D03*
D27*
X97000000Y-74000000D03*
D47*
X133400000Y-90125000D03*
X133900001Y-90125000D03*
X134400000Y-90125000D03*
X134899999Y-90125000D03*
X135400000Y-90125000D03*
X135400000Y-93000000D03*
X134899999Y-93000000D03*
X134400000Y-93000000D03*
X133900001Y-93000000D03*
X133400000Y-93000000D03*
D48*
X134400000Y-91562500D03*
D49*
X124250000Y-88912500D03*
X126150000Y-88912500D03*
X125200000Y-90787501D03*
D27*
X93000000Y-68000000D03*
X93000000Y-72000000D03*
D50*
X90000000Y-58350000D03*
X91000000Y-58350000D03*
X92000000Y-58350000D03*
X93000000Y-58350000D03*
X94000000Y-58350000D03*
X95000000Y-58350000D03*
X96000000Y-58350000D03*
X97000000Y-58350000D03*
D51*
X87800000Y-55750000D03*
X99200000Y-55750000D03*
D52*
X54900000Y-58300000D03*
D31*
X81225000Y-70650000D03*
X82875000Y-70650000D03*
D27*
X107000000Y-74000000D03*
X93000000Y-66000000D03*
D32*
X75581250Y-68825001D03*
X75581250Y-67175001D03*
D53*
X124637500Y-85250000D03*
X124637500Y-87150000D03*
X122762499Y-86200000D03*
D52*
X134400000Y-101200000D03*
D32*
X127900000Y-86925000D03*
X127900000Y-85275000D03*
D54*
X106100000Y-69387499D03*
X105600000Y-69387499D03*
X105100000Y-69387499D03*
X104600000Y-69387499D03*
D55*
X103912500Y-68699999D03*
X103912500Y-68199999D03*
X103912500Y-67699999D03*
X103912500Y-67199999D03*
D54*
X104600000Y-66512499D03*
X105100000Y-66512499D03*
X105600000Y-66512499D03*
X106100000Y-66512499D03*
D55*
X106787500Y-67199999D03*
X106787500Y-67699999D03*
X106787500Y-68199999D03*
X106787500Y-68699999D03*
D56*
X105350000Y-67949999D03*
D34*
X123925000Y-82175000D03*
X123925000Y-83825000D03*
X89150000Y-70575000D03*
X89150000Y-72225000D03*
D27*
X89000000Y-74000000D03*
D36*
X85000000Y-68525000D03*
X85000000Y-70075000D03*
D27*
X74000000Y-74000000D03*
D57*
X101450000Y-67324999D03*
X101450000Y-65774999D03*
D32*
X122550000Y-91125000D03*
X122550000Y-89475000D03*
D27*
X95000000Y-74000000D03*
D42*
X121574999Y-62950001D03*
X124525001Y-62950001D03*
D32*
X105662500Y-64225000D03*
X105662500Y-62575000D03*
D41*
X136000000Y-99200000D03*
X131800000Y-58500000D03*
D58*
X128100000Y-77450000D03*
X130900000Y-77450000D03*
D25*
X80325000Y-65600000D03*
X78675000Y-65600000D03*
D59*
X131625001Y-69180000D03*
D60*
X131625000Y-71200000D03*
D61*
X131625000Y-72430000D03*
D62*
X131625001Y-70180000D03*
D63*
X131625000Y-68160000D03*
D64*
X131625000Y-66930000D03*
D65*
X135925000Y-65360000D03*
X132125000Y-65360000D03*
X135925000Y-74000000D03*
X132125000Y-74000000D03*
%LPD*%
M02*
