G04 #@! TF.GenerationSoftware,KiCad,Pcbnew,8.0.4*
G04 #@! TF.CreationDate,2025-03-14T20:27:20-07:00*
G04 #@! TF.ProjectId,mintypcb,6d696e74-7970-4636-922e-6b696361645f,2*
G04 #@! TF.SameCoordinates,Original*
G04 #@! TF.FileFunction,Soldermask,Top*
G04 #@! TF.FilePolarity,Negative*
%FSLAX46Y46*%
G04 Gerber Fmt 4.6, Leading zero omitted, Abs format (unit mm)*
G04 Created by KiCad (PCBNEW 8.0.4) date 2025-03-14 20:27:20*
%MOMM*%
%LPD*%
G01*
G04 APERTURE LIST*
G04 Aperture macros list*
%AMRoundRect*
0 Rectangle with rounded corners*
0 $1 Rounding radius*
0 $2 $3 $4 $5 $6 $7 $8 $9 X,Y pos of 4 corners*
0 Add a 4 corners polygon primitive as box body*
4,1,4,$2,$3,$4,$5,$6,$7,$8,$9,$2,$3,0*
0 Add four circle primitives for the rounded corners*
1,1,$1+$1,$2,$3*
1,1,$1+$1,$4,$5*
1,1,$1+$1,$6,$7*
1,1,$1+$1,$8,$9*
0 Add four rect primitives between the rounded corners*
20,1,$1+$1,$2,$3,$4,$5,0*
20,1,$1+$1,$4,$5,$6,$7,0*
20,1,$1+$1,$6,$7,$8,$9,0*
20,1,$1+$1,$8,$9,$2,$3,0*%
%AMOutline5P*
0 Free polygon, 5 corners , with rotation*
0 The origin of the aperture is its center*
0 number of corners: always 5*
0 $1 to $10 corner X, Y*
0 $11 Rotation angle, in degrees counterclockwise*
0 create outline with 5 corners*
4,1,5,$1,$2,$3,$4,$5,$6,$7,$8,$9,$10,$1,$2,$11*%
%AMOutline6P*
0 Free polygon, 6 corners , with rotation*
0 The origin of the aperture is its center*
0 number of corners: always 6*
0 $1 to $12 corner X, Y*
0 $13 Rotation angle, in degrees counterclockwise*
0 create outline with 6 corners*
4,1,6,$1,$2,$3,$4,$5,$6,$7,$8,$9,$10,$11,$12,$1,$2,$13*%
%AMOutline7P*
0 Free polygon, 7 corners , with rotation*
0 The origin of the aperture is its center*
0 number of corners: always 7*
0 $1 to $14 corner X, Y*
0 $15 Rotation angle, in degrees counterclockwise*
0 create outline with 7 corners*
4,1,7,$1,$2,$3,$4,$5,$6,$7,$8,$9,$10,$11,$12,$13,$14,$1,$2,$15*%
%AMOutline8P*
0 Free polygon, 8 corners , with rotation*
0 The origin of the aperture is its center*
0 number of corners: always 8*
0 $1 to $16 corner X, Y*
0 $17 Rotation angle, in degrees counterclockwise*
0 create outline with 8 corners*
4,1,8,$1,$2,$3,$4,$5,$6,$7,$8,$9,$10,$11,$12,$13,$14,$15,$16,$1,$2,$17*%
G04 Aperture macros list end*
%ADD10C,0.100000*%
%ADD11O,1.700000X1.100000*%
%ADD12RoundRect,0.218750X0.218750X0.256250X-0.218750X0.256250X-0.218750X-0.256250X0.218750X-0.256250X0*%
%ADD13RoundRect,0.200000X-0.300000X-0.200000X0.300000X-0.200000X0.300000X0.200000X-0.300000X0.200000X0*%
%ADD14RoundRect,0.250000X-0.550000X0.250000X-0.550000X-0.250000X0.550000X-0.250000X0.550000X0.250000X0*%
%ADD15RoundRect,0.250000X0.550000X-0.250000X0.550000X0.250000X-0.550000X0.250000X-0.550000X-0.250000X0*%
%ADD16C,4.000000*%
%ADD17C,2.000000*%
%ADD18RoundRect,0.250000X0.250000X0.550000X-0.250000X0.550000X-0.250000X-0.550000X0.250000X-0.550000X0*%
%ADD19RoundRect,0.250000X0.565685X0.212132X0.212132X0.565685X-0.565685X-0.212132X-0.212132X-0.565685X0*%
%ADD20RoundRect,0.200000X-0.200000X0.300000X-0.200000X-0.300000X0.200000X-0.300000X0.200000X0.300000X0*%
%ADD21Outline5P,-1.255000X0.000000X-0.410000X0.845000X1.255000X0.845000X1.255000X-0.845000X-1.255000X-0.845000X0.000000*%
%ADD22Outline5P,-1.255000X0.845000X1.255000X0.845000X1.255000X-0.845000X-0.410000X-0.845000X-1.255000X0.000000X0.000000*%
%ADD23RoundRect,0.250000X-0.250000X-0.550000X0.250000X-0.550000X0.250000X0.550000X-0.250000X0.550000X0*%
%ADD24RoundRect,0.200000X0.200000X-0.300000X0.200000X0.300000X-0.200000X0.300000X-0.200000X-0.300000X0*%
%ADD25O,2.300000X1.100000*%
%ADD26C,1.300000*%
G04 APERTURE END LIST*
D10*
X108800000Y-110900000D02*
X115200000Y-110900000D01*
X115200000Y-117900000D01*
X108800000Y-117900000D01*
X108800000Y-110900000D01*
G36*
X108800000Y-110900000D02*
G01*
X115200000Y-110900000D01*
X115200000Y-117900000D01*
X108800000Y-117900000D01*
X108800000Y-110900000D01*
G37*
D11*
X132125000Y-65360000D03*
X135925000Y-65360000D03*
X132125000Y-74000000D03*
X135925000Y-74000000D03*
D12*
X135912499Y-69500000D03*
X134337497Y-69500000D03*
D13*
X86500000Y-75150000D03*
X92500000Y-75150000D03*
X86500000Y-78850000D03*
X92500000Y-78850000D03*
D14*
X128850000Y-63700000D03*
X128850000Y-69700000D03*
X124350000Y-63700000D03*
X124350000Y-69700000D03*
X64250000Y-64300000D03*
X64250000Y-70300000D03*
X59750000Y-64300000D03*
X59750000Y-70300000D03*
D15*
X73750000Y-70300000D03*
X73750000Y-64300000D03*
X78250000Y-70300000D03*
X78250000Y-64300000D03*
D16*
X52000000Y-60000000D03*
D17*
X136500000Y-63200000D03*
D18*
X122000000Y-61350000D03*
X116000000Y-61350000D03*
X122000000Y-56850000D03*
X116000000Y-56850000D03*
D14*
X113650000Y-63700000D03*
X113650000Y-69700000D03*
X109150000Y-63700000D03*
X109150000Y-69700000D03*
D19*
X119530330Y-78012311D03*
X115287689Y-73769670D03*
X122712311Y-74830330D03*
X118469670Y-70587689D03*
D20*
X126350000Y-94000000D03*
X126350000Y-100000000D03*
X122650000Y-94000000D03*
X122650000Y-100000000D03*
D16*
X85500000Y-60000000D03*
D17*
X57200000Y-58300000D03*
D14*
X71250000Y-57300000D03*
X71250000Y-63300000D03*
X66750000Y-57300000D03*
X66750000Y-63300000D03*
D21*
X102755000Y-64675000D03*
D22*
X102755000Y-54825000D03*
D12*
X135912499Y-71300000D03*
X134337497Y-71300000D03*
D16*
X135000000Y-81500000D03*
X57000000Y-78700000D03*
X57000000Y-101700000D03*
X115000000Y-78700000D03*
X115000000Y-101700000D03*
D17*
X136000000Y-99200000D03*
D23*
X66000000Y-72050000D03*
X72000000Y-72050000D03*
X66000000Y-76550000D03*
X72000000Y-76550000D03*
D12*
X135900000Y-67700000D03*
X134324998Y-67700000D03*
D16*
X135000000Y-60000000D03*
D24*
X122650000Y-91000000D03*
X122650000Y-85000000D03*
X126350000Y-91000000D03*
X126350000Y-85000000D03*
D13*
X94500000Y-75150000D03*
X100500000Y-75150000D03*
X94500000Y-78850000D03*
X100500000Y-78850000D03*
D25*
X108500000Y-51950000D03*
X66500000Y-51950000D03*
X78500000Y-51950000D03*
D26*
X54900000Y-58300000D03*
D25*
X120500000Y-51950000D03*
D26*
X134400000Y-101200000D03*
M02*
