G04 #@! TF.GenerationSoftware,KiCad,Pcbnew,9.0.1-rc2*
G04 #@! TF.CreationDate,2025-04-23T19:50:41-07:00*
G04 #@! TF.ProjectId,displaypcb,64697370-6c61-4797-9063-622e6b696361,2*
G04 #@! TF.SameCoordinates,Original*
G04 #@! TF.FileFunction,Paste,Top*
G04 #@! TF.FilePolarity,Positive*
%FSLAX46Y46*%
G04 Gerber Fmt 4.6, Leading zero omitted, Abs format (unit mm)*
G04 Created by KiCad (PCBNEW 9.0.1-rc2) date 2025-04-23 19:50:41*
%MOMM*%
%LPD*%
G01*
G04 APERTURE LIST*
G04 Aperture macros list*
%AMRoundRect*
0 Rectangle with rounded corners*
0 $1 Rounding radius*
0 $2 $3 $4 $5 $6 $7 $8 $9 X,Y pos of 4 corners*
0 Add a 4 corners polygon primitive as box body*
4,1,4,$2,$3,$4,$5,$6,$7,$8,$9,$2,$3,0*
0 Add four circle primitives for the rounded corners*
1,1,$1+$1,$2,$3*
1,1,$1+$1,$4,$5*
1,1,$1+$1,$6,$7*
1,1,$1+$1,$8,$9*
0 Add four rect primitives between the rounded corners*
20,1,$1+$1,$2,$3,$4,$5,0*
20,1,$1+$1,$4,$5,$6,$7,0*
20,1,$1+$1,$6,$7,$8,$9,0*
20,1,$1+$1,$8,$9,$2,$3,0*%
G04 Aperture macros list end*
%ADD10RoundRect,0.075000X0.525000X-0.075000X0.525000X0.075000X-0.525000X0.075000X-0.525000X-0.075000X0*%
%ADD11RoundRect,0.200000X1.450000X-0.900000X1.450000X0.900000X-1.450000X0.900000X-1.450000X-0.900000X0*%
%ADD12RoundRect,0.135000X-0.135000X-0.185000X0.135000X-0.185000X0.135000X0.185000X-0.135000X0.185000X0*%
%ADD13RoundRect,0.135000X0.185000X-0.135000X0.185000X0.135000X-0.185000X0.135000X-0.185000X-0.135000X0*%
%ADD14RoundRect,0.200000X0.200000X0.275000X-0.200000X0.275000X-0.200000X-0.275000X0.200000X-0.275000X0*%
%ADD15RoundRect,0.250000X0.475000X-0.250000X0.475000X0.250000X-0.475000X0.250000X-0.475000X-0.250000X0*%
%ADD16RoundRect,0.100000X-0.100000X-0.650000X0.100000X-0.650000X0.100000X0.650000X-0.100000X0.650000X0*%
%ADD17RoundRect,0.200000X-0.800000X-0.650000X0.800000X-0.650000X0.800000X0.650000X-0.800000X0.650000X0*%
%ADD18RoundRect,0.150000X0.150000X-0.587500X0.150000X0.587500X-0.150000X0.587500X-0.150000X-0.587500X0*%
%ADD19RoundRect,0.200000X0.275000X-0.200000X0.275000X0.200000X-0.275000X0.200000X-0.275000X-0.200000X0*%
%ADD20RoundRect,0.112500X-0.112500X-0.237500X0.112500X-0.237500X0.112500X0.237500X-0.112500X0.237500X0*%
G04 APERTURE END LIST*
D10*
X107600000Y-112250000D03*
X107600000Y-111750000D03*
X107600000Y-111250000D03*
X107600000Y-110750000D03*
X107600000Y-110250000D03*
X107600000Y-109750000D03*
X107600000Y-109250000D03*
X107600000Y-108750000D03*
X107600000Y-108250000D03*
X107600000Y-107750000D03*
X107600000Y-107250000D03*
X107600000Y-106750000D03*
X107600000Y-106250000D03*
X107600000Y-105750000D03*
X107600000Y-105250000D03*
X107600000Y-104750000D03*
X107600000Y-104250000D03*
X107600000Y-103750000D03*
X107600000Y-103250000D03*
X107600000Y-102750000D03*
X107600000Y-102250000D03*
X107600000Y-101750000D03*
X107600000Y-101250000D03*
X107600000Y-100750000D03*
X107600000Y-100250000D03*
X107600000Y-99750000D03*
X107600000Y-99250000D03*
X107600000Y-98750000D03*
X107600000Y-98250000D03*
X107600000Y-97750000D03*
X107600000Y-97250000D03*
X107600000Y-96750000D03*
X107600000Y-96250000D03*
X107600000Y-95750000D03*
X107600000Y-95250000D03*
X107600000Y-94750000D03*
X107600000Y-94250000D03*
X107600000Y-93750000D03*
X107600000Y-93250000D03*
X107600000Y-92750000D03*
X107600000Y-92250000D03*
X107600000Y-91750000D03*
X107600000Y-91250000D03*
X107600000Y-90750000D03*
X107600000Y-90250000D03*
X107600000Y-89750000D03*
X107600000Y-89250000D03*
X107600000Y-88750000D03*
X107600000Y-88250000D03*
X107600000Y-87750000D03*
D11*
X109750000Y-113850000D03*
X109750000Y-86150000D03*
D12*
X102340000Y-105900000D03*
X103360000Y-105900000D03*
D13*
X100250000Y-107510000D03*
X100250000Y-106490000D03*
D12*
X104390000Y-115200000D03*
X105410000Y-115200000D03*
D14*
X103175000Y-113750000D03*
X101525000Y-113750000D03*
D15*
X102200000Y-93599998D03*
X102200000Y-91700000D03*
D12*
X102340000Y-104900000D03*
X103360000Y-104900000D03*
D14*
X103175000Y-112250000D03*
X101525000Y-112250000D03*
D12*
X102340000Y-106900000D03*
X103360000Y-106900000D03*
D16*
X94500000Y-115950000D03*
X95500000Y-115950000D03*
X96500000Y-115950000D03*
X97500000Y-115950000D03*
X98500000Y-115950000D03*
X99500000Y-115950000D03*
X100500000Y-115950000D03*
X101500000Y-115950000D03*
D17*
X92300000Y-118550000D03*
X103700000Y-118550000D03*
D18*
X98150000Y-111937500D03*
X100050000Y-111937500D03*
X99100000Y-110062499D03*
D14*
X103175000Y-110750000D03*
X101525000Y-110750000D03*
D19*
X99000000Y-108125000D03*
X99000000Y-106475000D03*
D12*
X102340000Y-107900000D03*
X103360000Y-107900000D03*
D13*
X97750000Y-107510000D03*
X97750000Y-106490000D03*
D14*
X103175000Y-109250000D03*
X101525000Y-109250000D03*
D20*
X107050000Y-118500000D03*
X108350000Y-118500000D03*
X107700000Y-116500000D03*
M02*
