M48
; DRILL file {KiCad 9.0.1-rc2} date 2025-04-23T19:50:41-0700
; FORMAT={-:-/ absolute / metric / decimal}
; #@! TF.CreationDate,2025-04-23T19:50:41-07:00
; #@! TF.GenerationSoftware,Kicad,Pcbnew,9.0.1-rc2
; #@! TF.FileFunction,Plated,1,2,PTH
FMAT,2
METRIC
; #@! TA.AperFunction,Plated,PTH,ViaDrill
T1C0.300
%
G90
G05
T1
X88.6Y-102.4
X90.15Y-118.95
X90.35Y-114.35
X93.8Y-91.4
X96.15Y-96.35
X96.4Y-119.75
X97.5Y-113.65
X98.1Y-110.1
X99.0Y-85.2
X99.5Y-114.72
X99.5Y-117.32
X100.5Y-114.72
X100.5Y-117.32
X101.6Y-108.0
X103.55Y-115.2
X104.2Y-91.6
X104.7Y-117.3
X105.6Y-91.6
X106.3Y-87.6
X106.3Y-88.4
X107.05Y-119.65
X108.35Y-119.65
X108.9Y-87.9
X108.9Y-88.7
X109.7Y-92.2
X109.7Y-96.3
X110.4Y-83.0
X112.4Y-103.2
X112.4Y-110.6
M30
