G04 #@! TF.GenerationSoftware,KiCad,Pcbnew,9.0.1-rc2*
G04 #@! TF.CreationDate,2025-04-23T19:50:41-07:00*
G04 #@! TF.ProjectId,displaypcb,64697370-6c61-4797-9063-622e6b696361,2*
G04 #@! TF.SameCoordinates,Original*
G04 #@! TF.FileFunction,Copper,L2,Bot*
G04 #@! TF.FilePolarity,Positive*
%FSLAX46Y46*%
G04 Gerber Fmt 4.6, Leading zero omitted, Abs format (unit mm)*
G04 Created by KiCad (PCBNEW 9.0.1-rc2) date 2025-04-23 19:50:41*
%MOMM*%
%LPD*%
G01*
G04 APERTURE LIST*
G04 #@! TA.AperFunction,ViaPad*
%ADD10C,0.600000*%
G04 #@! TD*
G04 #@! TA.AperFunction,Conductor*
%ADD11C,0.200000*%
G04 #@! TD*
G04 APERTURE END LIST*
D10*
X110400000Y-83000000D03*
X104700000Y-117300000D03*
X112400000Y-103200000D03*
X109700000Y-96300000D03*
X90150000Y-118950000D03*
X99000000Y-85200000D03*
X96400000Y-119750000D03*
X103550000Y-115200000D03*
X88600000Y-102400000D03*
X105600000Y-91600000D03*
X109700000Y-92200000D03*
X96150000Y-96350000D03*
X98100000Y-110100000D03*
X99500000Y-114720310D03*
X90350000Y-114350000D03*
X100500000Y-114720310D03*
X99500000Y-117320310D03*
X108350000Y-119650000D03*
X101600000Y-108000000D03*
X106300000Y-87600000D03*
X108900000Y-88700000D03*
X93800000Y-91400000D03*
X104200000Y-91600000D03*
X100500000Y-117320310D03*
X112400000Y-110600000D03*
X106300000Y-88400000D03*
X108900000Y-87900000D03*
X97500000Y-113650000D03*
X107050000Y-119650000D03*
D11*
X107050000Y-119650000D02*
X100405085Y-119650000D01*
X97500000Y-116744914D02*
X97500000Y-113650000D01*
X97659379Y-117129689D02*
X100020310Y-119490620D01*
X100020310Y-119490620D02*
G75*
G03*
X100405085Y-119649996I384790J384820D01*
G01*
X97659379Y-117129689D02*
G75*
G02*
X97500004Y-116744914I384821J384789D01*
G01*
G04 #@! TA.AperFunction,Conductor*
G36*
X113504308Y-77500877D02*
G01*
X113520845Y-77502323D01*
X113664937Y-77514930D01*
X113681914Y-77517923D01*
X113833491Y-77558537D01*
X113849695Y-77564435D01*
X113991902Y-77630748D01*
X114006842Y-77639374D01*
X114135367Y-77729368D01*
X114148587Y-77740460D01*
X114259539Y-77851412D01*
X114270631Y-77864632D01*
X114360625Y-77993157D01*
X114369253Y-78008101D01*
X114435560Y-78150295D01*
X114441463Y-78166512D01*
X114482074Y-78318075D01*
X114485070Y-78335069D01*
X114499123Y-78495690D01*
X114499500Y-78504319D01*
X114499500Y-121495680D01*
X114499123Y-121504308D01*
X114499123Y-121504309D01*
X114485070Y-121664930D01*
X114482074Y-121681924D01*
X114441463Y-121833487D01*
X114435560Y-121849704D01*
X114369253Y-121991898D01*
X114360625Y-122006842D01*
X114270631Y-122135367D01*
X114259539Y-122148587D01*
X114148587Y-122259539D01*
X114135367Y-122270631D01*
X114006842Y-122360625D01*
X113991898Y-122369253D01*
X113849704Y-122435560D01*
X113833487Y-122441463D01*
X113681924Y-122482074D01*
X113664930Y-122485070D01*
X113504309Y-122499123D01*
X113495680Y-122499500D01*
X77504320Y-122499500D01*
X77495691Y-122499123D01*
X77335069Y-122485070D01*
X77318075Y-122482074D01*
X77166512Y-122441463D01*
X77150298Y-122435561D01*
X77008101Y-122369253D01*
X76993157Y-122360625D01*
X76864632Y-122270631D01*
X76851412Y-122259539D01*
X76740460Y-122148587D01*
X76729368Y-122135367D01*
X76639374Y-122006842D01*
X76630748Y-121991902D01*
X76564435Y-121849695D01*
X76558536Y-121833487D01*
X76517923Y-121681914D01*
X76514930Y-121664937D01*
X76500877Y-121504308D01*
X76500500Y-121495680D01*
X76500500Y-113584108D01*
X96999500Y-113584108D01*
X96999500Y-113715892D01*
X97008295Y-113748719D01*
X97008826Y-113759197D01*
X97008812Y-113759248D01*
X97008836Y-113759400D01*
X97009361Y-113770219D01*
X97009362Y-113770226D01*
X97028971Y-113848695D01*
X97031920Y-113859278D01*
X97032287Y-113860472D01*
X97035754Y-113870760D01*
X97035959Y-113871320D01*
X97061637Y-113941352D01*
X97066712Y-113953897D01*
X97066717Y-113953909D01*
X97067333Y-113955298D01*
X97073206Y-113967454D01*
X97130148Y-114076051D01*
X97130204Y-114076156D01*
X97131285Y-114078190D01*
X97131445Y-114078487D01*
X97132998Y-114081317D01*
X97155494Y-114121549D01*
X97157983Y-114125999D01*
X97162883Y-114136058D01*
X97173967Y-114162512D01*
X97179189Y-114178801D01*
X97182574Y-114193678D01*
X97187069Y-114213437D01*
X97189337Y-114229146D01*
X97194214Y-114306241D01*
X97194215Y-114306248D01*
X97195326Y-114310715D01*
X97196572Y-114315723D01*
X97199500Y-114339619D01*
X97199500Y-116697323D01*
X97199499Y-116697327D01*
X97199500Y-116738384D01*
X97199500Y-116790161D01*
X97199504Y-116790234D01*
X97199504Y-116811391D01*
X97208272Y-116866744D01*
X97220304Y-116942705D01*
X97261387Y-117069145D01*
X97321742Y-117187602D01*
X97399883Y-117295160D01*
X97418915Y-117314193D01*
X97418919Y-117314200D01*
X97446885Y-117342166D01*
X97446888Y-117342169D01*
X97446889Y-117342170D01*
X97486158Y-117381444D01*
X97486191Y-117381472D01*
X99769503Y-119664784D01*
X99769516Y-119664798D01*
X99774712Y-119669996D01*
X99774717Y-119670006D01*
X99854836Y-119750119D01*
X99962394Y-119828261D01*
X99962405Y-119828267D01*
X100080846Y-119888613D01*
X100080852Y-119888616D01*
X100207293Y-119929699D01*
X100338603Y-119950499D01*
X100357538Y-119950499D01*
X100365520Y-119950499D01*
X100365523Y-119950500D01*
X100405075Y-119950500D01*
X100405077Y-119950500D01*
X100452671Y-119950502D01*
X100452674Y-119950500D01*
X100460635Y-119950501D01*
X100460660Y-119950500D01*
X106363203Y-119950500D01*
X106372200Y-119950910D01*
X106379896Y-119951612D01*
X106396519Y-119955799D01*
X106461924Y-119959098D01*
X106463907Y-119959279D01*
X106464441Y-119959508D01*
X106472095Y-119960372D01*
X106496316Y-119964644D01*
X106515762Y-119970171D01*
X106578456Y-119995158D01*
X106590848Y-120001126D01*
X106617099Y-120016104D01*
X106619770Y-120017602D01*
X106620084Y-120017775D01*
X106622703Y-120019184D01*
X106623736Y-120019740D01*
X106731869Y-120076496D01*
X106744040Y-120082381D01*
X106745413Y-120082990D01*
X106745421Y-120082993D01*
X106745434Y-120082999D01*
X106757880Y-120088041D01*
X106828688Y-120114065D01*
X106839190Y-120117607D01*
X106839202Y-120117610D01*
X106839203Y-120117611D01*
X106840373Y-120117971D01*
X106840383Y-120117973D01*
X106840387Y-120117975D01*
X106850908Y-120120905D01*
X106929726Y-120140621D01*
X106934034Y-120141650D01*
X106934553Y-120141768D01*
X106940273Y-120141854D01*
X106964387Y-120145215D01*
X106984108Y-120150500D01*
X106984109Y-120150500D01*
X107115890Y-120150500D01*
X107115892Y-120150500D01*
X107243186Y-120116392D01*
X107243188Y-120116390D01*
X107243190Y-120116390D01*
X107357309Y-120050503D01*
X107357309Y-120050502D01*
X107357314Y-120050500D01*
X107450500Y-119957314D01*
X107454433Y-119950502D01*
X107516390Y-119843190D01*
X107516390Y-119843188D01*
X107516392Y-119843186D01*
X107550500Y-119715892D01*
X107550500Y-119584108D01*
X107516392Y-119456814D01*
X107516390Y-119456811D01*
X107516390Y-119456809D01*
X107450503Y-119342690D01*
X107450501Y-119342688D01*
X107450500Y-119342686D01*
X107357314Y-119249500D01*
X107357311Y-119249498D01*
X107357309Y-119249496D01*
X107243189Y-119183609D01*
X107243191Y-119183609D01*
X107193799Y-119170375D01*
X107115892Y-119149500D01*
X106984108Y-119149500D01*
X106961407Y-119155582D01*
X106940595Y-119158837D01*
X106929777Y-119159362D01*
X106851321Y-119178968D01*
X106840791Y-119181899D01*
X106840788Y-119181900D01*
X106839617Y-119182259D01*
X106829219Y-119185760D01*
X106758648Y-119211634D01*
X106746014Y-119216748D01*
X106744621Y-119217366D01*
X106732570Y-119223193D01*
X106623778Y-119280237D01*
X106621190Y-119281618D01*
X106620945Y-119281751D01*
X106618582Y-119283054D01*
X106573992Y-119307985D01*
X106563939Y-119312883D01*
X106537486Y-119323967D01*
X106521191Y-119329191D01*
X106486571Y-119337068D01*
X106470858Y-119339337D01*
X106393757Y-119344215D01*
X106393747Y-119344216D01*
X106384279Y-119346572D01*
X106360381Y-119349500D01*
X100411584Y-119349500D01*
X100398660Y-119348653D01*
X100354945Y-119342897D01*
X100329983Y-119336208D01*
X100295291Y-119321838D01*
X100272917Y-119308921D01*
X100237954Y-119282095D01*
X100228222Y-119273561D01*
X97876462Y-116921801D01*
X97867922Y-116912061D01*
X97841083Y-116877081D01*
X97828163Y-116854702D01*
X97813796Y-116820016D01*
X97807107Y-116795054D01*
X97801347Y-116751307D01*
X97800500Y-116738384D01*
X97800500Y-114336795D01*
X97800910Y-114327798D01*
X97801612Y-114320105D01*
X97805800Y-114303479D01*
X97809099Y-114238059D01*
X97809280Y-114236082D01*
X97809509Y-114235546D01*
X97810372Y-114227903D01*
X97814644Y-114203681D01*
X97820169Y-114184242D01*
X97845161Y-114121535D01*
X97851129Y-114109146D01*
X97866091Y-114082924D01*
X97867777Y-114079910D01*
X97867975Y-114079549D01*
X97869756Y-114076230D01*
X97926493Y-113968132D01*
X97932355Y-113956015D01*
X97932977Y-113954614D01*
X97938041Y-113942119D01*
X97964065Y-113871312D01*
X97967607Y-113860809D01*
X97967975Y-113859612D01*
X97970905Y-113849091D01*
X97990621Y-113770273D01*
X97991650Y-113765965D01*
X97991768Y-113765446D01*
X97991854Y-113759722D01*
X97995215Y-113735612D01*
X98000500Y-113715892D01*
X98000500Y-113584108D01*
X97966392Y-113456814D01*
X97966390Y-113456811D01*
X97966390Y-113456809D01*
X97900503Y-113342690D01*
X97900501Y-113342688D01*
X97900500Y-113342686D01*
X97807314Y-113249500D01*
X97807311Y-113249498D01*
X97807309Y-113249496D01*
X97693189Y-113183609D01*
X97693191Y-113183609D01*
X97643799Y-113170375D01*
X97565892Y-113149500D01*
X97434108Y-113149500D01*
X97356200Y-113170375D01*
X97306809Y-113183609D01*
X97192690Y-113249496D01*
X97099496Y-113342690D01*
X97033609Y-113456809D01*
X97033608Y-113456814D01*
X96999500Y-113584108D01*
X76500500Y-113584108D01*
X76500500Y-78504319D01*
X76500877Y-78495691D01*
X76506265Y-78434108D01*
X76514930Y-78335058D01*
X76517922Y-78318086D01*
X76558538Y-78166504D01*
X76564434Y-78150308D01*
X76630751Y-78008092D01*
X76639371Y-77993161D01*
X76729373Y-77864625D01*
X76740454Y-77851418D01*
X76851418Y-77740454D01*
X76864625Y-77729373D01*
X76993161Y-77639371D01*
X77008092Y-77630751D01*
X77150308Y-77564434D01*
X77166504Y-77558538D01*
X77318086Y-77517922D01*
X77335060Y-77514930D01*
X77480668Y-77502191D01*
X77495692Y-77500877D01*
X77504320Y-77500500D01*
X77565892Y-77500500D01*
X113434108Y-77500500D01*
X113495680Y-77500500D01*
X113504308Y-77500877D01*
G37*
G04 #@! TD.AperFunction*
G04 #@! TA.AperFunction,Conductor*
G36*
X106988453Y-119360051D02*
G01*
X106993783Y-119367246D01*
X106993900Y-119367763D01*
X107050530Y-119647680D01*
X107050530Y-119652320D01*
X106993901Y-119932234D01*
X106988901Y-119939663D01*
X106980113Y-119941382D01*
X106979594Y-119941264D01*
X106900776Y-119921548D01*
X106899579Y-119921180D01*
X106828771Y-119895156D01*
X106827369Y-119894534D01*
X106767831Y-119863284D01*
X106719250Y-119837785D01*
X106718936Y-119837612D01*
X106674252Y-119812118D01*
X106562804Y-119767701D01*
X106562798Y-119767700D01*
X106562796Y-119767699D01*
X106489162Y-119754712D01*
X106489167Y-119754712D01*
X106406874Y-119750560D01*
X106398784Y-119746721D01*
X106395764Y-119738875D01*
X106395764Y-119560983D01*
X106399191Y-119552710D01*
X106406723Y-119549306D01*
X106508271Y-119542883D01*
X106508275Y-119542882D01*
X106508276Y-119542882D01*
X106524150Y-119539270D01*
X106592538Y-119523711D01*
X106659255Y-119495756D01*
X106719006Y-119462346D01*
X106719214Y-119462233D01*
X106827991Y-119405196D01*
X106829379Y-119404580D01*
X106899980Y-119378694D01*
X106901142Y-119378337D01*
X106979595Y-119358732D01*
X106988453Y-119360051D01*
G37*
G04 #@! TD.AperFunction*
G04 #@! TA.AperFunction,Conductor*
G36*
X97782235Y-113706099D02*
G01*
X97789663Y-113711098D01*
X97791382Y-113719886D01*
X97791264Y-113720405D01*
X97771548Y-113799223D01*
X97771180Y-113800420D01*
X97745156Y-113871227D01*
X97744534Y-113872628D01*
X97687797Y-113980726D01*
X97687599Y-113981087D01*
X97662119Y-114025745D01*
X97662118Y-114025748D01*
X97617701Y-114137196D01*
X97617701Y-114137198D01*
X97617699Y-114137203D01*
X97604712Y-114210835D01*
X97600561Y-114293126D01*
X97596722Y-114301215D01*
X97588876Y-114304236D01*
X97410983Y-114304236D01*
X97402710Y-114300809D01*
X97399306Y-114293276D01*
X97392882Y-114191729D01*
X97392881Y-114191725D01*
X97392881Y-114191722D01*
X97373713Y-114107469D01*
X97373712Y-114107467D01*
X97373711Y-114107461D01*
X97345756Y-114040744D01*
X97312362Y-113981023D01*
X97312214Y-113980749D01*
X97312202Y-113980726D01*
X97255199Y-113872013D01*
X97254577Y-113870610D01*
X97228696Y-113800023D01*
X97228335Y-113798850D01*
X97208732Y-113720403D01*
X97210051Y-113711546D01*
X97217246Y-113706216D01*
X97217743Y-113706103D01*
X97497682Y-113649469D01*
X97502318Y-113649469D01*
X97782235Y-113706099D01*
G37*
G04 #@! TD.AperFunction*
M02*
