G04 #@! TF.GenerationSoftware,KiCad,Pcbnew,9.0.1-rc2*
G04 #@! TF.CreationDate,2025-04-23T19:50:41-07:00*
G04 #@! TF.ProjectId,displaypcb,64697370-6c61-4797-9063-622e6b696361,2*
G04 #@! TF.SameCoordinates,Original*
G04 #@! TF.FileFunction,Legend,Top*
G04 #@! TF.FilePolarity,Positive*
%FSLAX46Y46*%
G04 Gerber Fmt 4.6, Leading zero omitted, Abs format (unit mm)*
G04 Created by KiCad (PCBNEW 9.0.1-rc2) date 2025-04-23 19:50:41*
%MOMM*%
%LPD*%
G01*
G04 APERTURE LIST*
G04 Aperture macros list*
%AMRoundRect*
0 Rectangle with rounded corners*
0 $1 Rounding radius*
0 $2 $3 $4 $5 $6 $7 $8 $9 X,Y pos of 4 corners*
0 Add a 4 corners polygon primitive as box body*
4,1,4,$2,$3,$4,$5,$6,$7,$8,$9,$2,$3,0*
0 Add four circle primitives for the rounded corners*
1,1,$1+$1,$2,$3*
1,1,$1+$1,$4,$5*
1,1,$1+$1,$6,$7*
1,1,$1+$1,$8,$9*
0 Add four rect primitives between the rounded corners*
20,1,$1+$1,$2,$3,$4,$5,0*
20,1,$1+$1,$4,$5,$6,$7,0*
20,1,$1+$1,$6,$7,$8,$9,0*
20,1,$1+$1,$8,$9,$2,$3,0*%
G04 Aperture macros list end*
%ADD10C,0.000000*%
%ADD11C,0.400000*%
%ADD12C,0.300000*%
%ADD13C,0.150000*%
%ADD14C,0.120000*%
%ADD15C,0.127000*%
%ADD16C,0.010000*%
%ADD17C,0.100000*%
%ADD18RoundRect,0.075000X0.525000X-0.075000X0.525000X0.075000X-0.525000X0.075000X-0.525000X-0.075000X0*%
%ADD19RoundRect,0.200000X1.450000X-0.900000X1.450000X0.900000X-1.450000X0.900000X-1.450000X-0.900000X0*%
%ADD20RoundRect,0.135000X-0.135000X-0.185000X0.135000X-0.185000X0.135000X0.185000X-0.135000X0.185000X0*%
%ADD21RoundRect,0.325000X-0.325000X-0.325000X0.325000X-0.325000X0.325000X0.325000X-0.325000X0.325000X0*%
%ADD22RoundRect,0.135000X0.185000X-0.135000X0.185000X0.135000X-0.185000X0.135000X-0.185000X-0.135000X0*%
%ADD23RoundRect,0.200000X0.200000X0.275000X-0.200000X0.275000X-0.200000X-0.275000X0.200000X-0.275000X0*%
%ADD24RoundRect,0.250000X0.475000X-0.250000X0.475000X0.250000X-0.475000X0.250000X-0.475000X-0.250000X0*%
%ADD25RoundRect,0.100000X-0.100000X-0.650000X0.100000X-0.650000X0.100000X0.650000X-0.100000X0.650000X0*%
%ADD26RoundRect,0.200000X-0.800000X-0.650000X0.800000X-0.650000X0.800000X0.650000X-0.800000X0.650000X0*%
%ADD27RoundRect,0.150000X0.150000X-0.587500X0.150000X0.587500X-0.150000X0.587500X-0.150000X-0.587500X0*%
%ADD28RoundRect,0.200000X0.275000X-0.200000X0.275000X0.200000X-0.275000X0.200000X-0.275000X-0.200000X0*%
%ADD29RoundRect,0.112500X-0.112500X-0.237500X0.112500X-0.237500X0.112500X0.237500X-0.112500X0.237500X0*%
G04 APERTURE END LIST*
D10*
G36*
X88485502Y-95135185D02*
G01*
X88525581Y-95137169D01*
X88564633Y-95140480D01*
X88602660Y-95145124D01*
X88639661Y-95151106D01*
X88675636Y-95158429D01*
X88710585Y-95167098D01*
X88744509Y-95177119D01*
X88777407Y-95188494D01*
X88809279Y-95201230D01*
X88840125Y-95215331D01*
X88869946Y-95230800D01*
X88898741Y-95247644D01*
X88926510Y-95265866D01*
X88953253Y-95285470D01*
X88978970Y-95306463D01*
X89003370Y-95327894D01*
X89026162Y-95349985D01*
X89047351Y-95372735D01*
X89066942Y-95396144D01*
X89084940Y-95420213D01*
X89101348Y-95444942D01*
X89116172Y-95470329D01*
X89129416Y-95496377D01*
X89141085Y-95523083D01*
X89151183Y-95550449D01*
X89159715Y-95578475D01*
X89166686Y-95607159D01*
X89172099Y-95636504D01*
X89175960Y-95666507D01*
X89178273Y-95697170D01*
X89179044Y-95728493D01*
X89178641Y-95751098D01*
X89177432Y-95773200D01*
X89175417Y-95794806D01*
X89172596Y-95815928D01*
X89168969Y-95836573D01*
X89164536Y-95856751D01*
X89159298Y-95876471D01*
X89153253Y-95895742D01*
X89146402Y-95914574D01*
X89138746Y-95932975D01*
X89130283Y-95950955D01*
X89121014Y-95968523D01*
X89110940Y-95985688D01*
X89100060Y-96002459D01*
X89088373Y-96018845D01*
X89075881Y-96034856D01*
X89062547Y-96049876D01*
X89048338Y-96064457D01*
X89033259Y-96078598D01*
X89017314Y-96092299D01*
X89000509Y-96105561D01*
X88982847Y-96118383D01*
X88964334Y-96130765D01*
X88944973Y-96142708D01*
X88924770Y-96154211D01*
X88903729Y-96165275D01*
X88881854Y-96175899D01*
X88859151Y-96186083D01*
X88835623Y-96195828D01*
X88811275Y-96205133D01*
X88786113Y-96213999D01*
X88760140Y-96222425D01*
X88786150Y-96230888D01*
X88811422Y-96239869D01*
X88835953Y-96249372D01*
X88859737Y-96259402D01*
X88882770Y-96269962D01*
X88905048Y-96281059D01*
X88926565Y-96292695D01*
X88947318Y-96304877D01*
X88967301Y-96317608D01*
X88986511Y-96330894D01*
X89004942Y-96344738D01*
X89022590Y-96359145D01*
X89039450Y-96374120D01*
X89055518Y-96389668D01*
X89070789Y-96405792D01*
X89085259Y-96422499D01*
X89098887Y-96439717D01*
X89111636Y-96457375D01*
X89123506Y-96475472D01*
X89134496Y-96494009D01*
X89144607Y-96512986D01*
X89153839Y-96532402D01*
X89162192Y-96552258D01*
X89169665Y-96572554D01*
X89176260Y-96593289D01*
X89181975Y-96614464D01*
X89186810Y-96636078D01*
X89190767Y-96658132D01*
X89193844Y-96680626D01*
X89196042Y-96703559D01*
X89197361Y-96726932D01*
X89197801Y-96750744D01*
X89196921Y-96784961D01*
X89194278Y-96818445D01*
X89189867Y-96851197D01*
X89183684Y-96883215D01*
X89175725Y-96914501D01*
X89165984Y-96945054D01*
X89154457Y-96974875D01*
X89141139Y-97003963D01*
X89126027Y-97032318D01*
X89109115Y-97059940D01*
X89090398Y-97086830D01*
X89069873Y-97112987D01*
X89047534Y-97138412D01*
X89023378Y-97163103D01*
X88997398Y-97187062D01*
X88969592Y-97210288D01*
X88940981Y-97232417D01*
X88911422Y-97253084D01*
X88880920Y-97272295D01*
X88849479Y-97290054D01*
X88817104Y-97306367D01*
X88783799Y-97321236D01*
X88749570Y-97334668D01*
X88714420Y-97346667D01*
X88678354Y-97357237D01*
X88641376Y-97366382D01*
X88603492Y-97374108D01*
X88564706Y-97380420D01*
X88525023Y-97385320D01*
X88484446Y-97388815D01*
X88442981Y-97390908D01*
X88400632Y-97391605D01*
X88358430Y-97390982D01*
X88317405Y-97389114D01*
X88277561Y-97386000D01*
X88238903Y-97381641D01*
X88201436Y-97376036D01*
X88165164Y-97369185D01*
X88130091Y-97361089D01*
X88096223Y-97351747D01*
X88063564Y-97341159D01*
X88032119Y-97329326D01*
X88001892Y-97316248D01*
X87972887Y-97301924D01*
X87945110Y-97286354D01*
X87918564Y-97269539D01*
X87893255Y-97251478D01*
X87869187Y-97232171D01*
X87846473Y-97211656D01*
X87825225Y-97189968D01*
X87805443Y-97167108D01*
X87787125Y-97143076D01*
X87770273Y-97117872D01*
X87754887Y-97091495D01*
X87740966Y-97063946D01*
X87728510Y-97035224D01*
X87717520Y-97005330D01*
X87707995Y-96974264D01*
X87699935Y-96942026D01*
X87693341Y-96908615D01*
X87688212Y-96874032D01*
X87684548Y-96838277D01*
X87682350Y-96801349D01*
X87681618Y-96763249D01*
X87681618Y-96750744D01*
X88156792Y-96750744D01*
X88157635Y-96768073D01*
X88158990Y-96784888D01*
X88160859Y-96801190D01*
X88163240Y-96816980D01*
X88166134Y-96832256D01*
X88169541Y-96847020D01*
X88173461Y-96861271D01*
X88177894Y-96875009D01*
X88182840Y-96888234D01*
X88188298Y-96900946D01*
X88194270Y-96913146D01*
X88200754Y-96924832D01*
X88207751Y-96936006D01*
X88215261Y-96946666D01*
X88223284Y-96956814D01*
X88231820Y-96966449D01*
X88241418Y-96975534D01*
X88251456Y-96984033D01*
X88261934Y-96991946D01*
X88272851Y-96999273D01*
X88284208Y-97006014D01*
X88296004Y-97012169D01*
X88308240Y-97017737D01*
X88320915Y-97022720D01*
X88334031Y-97027116D01*
X88347585Y-97030926D01*
X88361580Y-97034150D01*
X88376014Y-97036787D01*
X88390887Y-97038839D01*
X88406201Y-97040304D01*
X88421954Y-97041184D01*
X88438146Y-97041477D01*
X88453239Y-97041148D01*
X88468034Y-97040164D01*
X88482527Y-97038530D01*
X88496713Y-97036250D01*
X88510587Y-97033329D01*
X88524146Y-97029772D01*
X88537384Y-97025583D01*
X88550297Y-97020766D01*
X88562880Y-97015326D01*
X88575129Y-97009269D01*
X88587039Y-97002597D01*
X88598606Y-96995317D01*
X88609824Y-96987432D01*
X88620690Y-96978947D01*
X88631199Y-96969867D01*
X88641346Y-96960197D01*
X88650982Y-96949463D01*
X88659962Y-96938362D01*
X88668293Y-96926896D01*
X88675978Y-96915063D01*
X88683022Y-96902863D01*
X88689429Y-96890298D01*
X88695204Y-96877366D01*
X88700352Y-96864067D01*
X88704877Y-96850403D01*
X88708784Y-96836372D01*
X88712077Y-96821974D01*
X88714762Y-96807210D01*
X88716841Y-96792080D01*
X88718321Y-96776584D01*
X88719206Y-96760721D01*
X88719500Y-96744492D01*
X88719061Y-96723757D01*
X88717747Y-96703755D01*
X88715564Y-96684485D01*
X88712515Y-96665948D01*
X88708605Y-96648143D01*
X88703838Y-96631072D01*
X88698220Y-96614733D01*
X88691755Y-96599126D01*
X88684447Y-96584253D01*
X88676301Y-96570112D01*
X88667322Y-96556703D01*
X88657514Y-96544028D01*
X88646882Y-96532085D01*
X88635429Y-96520875D01*
X88623162Y-96510397D01*
X88610084Y-96500653D01*
X88595357Y-96491017D01*
X88579305Y-96482036D01*
X88561926Y-96473706D01*
X88543214Y-96466021D01*
X88523165Y-96458977D01*
X88501774Y-96452570D01*
X88479037Y-96446794D01*
X88454949Y-96441646D01*
X88429506Y-96437121D01*
X88402702Y-96433214D01*
X88374534Y-96429921D01*
X88344997Y-96427237D01*
X88314085Y-96425157D01*
X88281796Y-96423677D01*
X88248123Y-96422792D01*
X88213063Y-96422499D01*
X88181802Y-96422499D01*
X88181802Y-96056739D01*
X88255071Y-96055420D01*
X88289508Y-96053772D01*
X88322479Y-96051464D01*
X88353984Y-96048496D01*
X88384025Y-96044869D01*
X88412600Y-96040583D01*
X88439709Y-96035637D01*
X88465353Y-96030032D01*
X88489532Y-96023768D01*
X88512246Y-96016844D01*
X88533494Y-96009261D01*
X88553276Y-96001018D01*
X88571594Y-95992116D01*
X88588446Y-95982554D01*
X88603832Y-95972333D01*
X88618046Y-95962039D01*
X88631375Y-95951091D01*
X88637707Y-95945373D01*
X88643817Y-95939492D01*
X88649703Y-95933451D01*
X88655365Y-95927248D01*
X88660803Y-95920885D01*
X88666016Y-95914363D01*
X88671003Y-95907681D01*
X88675764Y-95900841D01*
X88680299Y-95893843D01*
X88684606Y-95886687D01*
X88688686Y-95879374D01*
X88692537Y-95871906D01*
X88696159Y-95864281D01*
X88699552Y-95856502D01*
X88702714Y-95848567D01*
X88705646Y-95840479D01*
X88710815Y-95823843D01*
X88715055Y-95806598D01*
X88718360Y-95788749D01*
X88720727Y-95770300D01*
X88722151Y-95751255D01*
X88722626Y-95731620D01*
X88722333Y-95717183D01*
X88721454Y-95703173D01*
X88719988Y-95689575D01*
X88717937Y-95676375D01*
X88715299Y-95663559D01*
X88712075Y-95651115D01*
X88708265Y-95639028D01*
X88703869Y-95627284D01*
X88698887Y-95615870D01*
X88693318Y-95604772D01*
X88687164Y-95593977D01*
X88680423Y-95583469D01*
X88673096Y-95573237D01*
X88665183Y-95563266D01*
X88656684Y-95553541D01*
X88647598Y-95544051D01*
X88638037Y-95535516D01*
X88628115Y-95527498D01*
X88617835Y-95520002D01*
X88607202Y-95513033D01*
X88596222Y-95506595D01*
X88584898Y-95500693D01*
X88573235Y-95495332D01*
X88561238Y-95490515D01*
X88548912Y-95486248D01*
X88536260Y-95482535D01*
X88523287Y-95479381D01*
X88509999Y-95476789D01*
X88496399Y-95474766D01*
X88482492Y-95473315D01*
X88468283Y-95472441D01*
X88453777Y-95472149D01*
X88439305Y-95472441D01*
X88425196Y-95473315D01*
X88411443Y-95474766D01*
X88398044Y-95476789D01*
X88384992Y-95479381D01*
X88372283Y-95482535D01*
X88359914Y-95486248D01*
X88347879Y-95490515D01*
X88336173Y-95495332D01*
X88324793Y-95500693D01*
X88313733Y-95506595D01*
X88302989Y-95513033D01*
X88292556Y-95520002D01*
X88282431Y-95527498D01*
X88272607Y-95535516D01*
X88263082Y-95544051D01*
X88254546Y-95553613D01*
X88246523Y-95563546D01*
X88239013Y-95573855D01*
X88232016Y-95584544D01*
X88225531Y-95595617D01*
X88219560Y-95607080D01*
X88214101Y-95618937D01*
X88209156Y-95631192D01*
X88204723Y-95643850D01*
X88200803Y-95656915D01*
X88197396Y-95670393D01*
X88194502Y-95684288D01*
X88192120Y-95698603D01*
X88190252Y-95713345D01*
X88188897Y-95728517D01*
X88188054Y-95744124D01*
X87709753Y-95744124D01*
X87711658Y-95708880D01*
X87715028Y-95674653D01*
X87719864Y-95641433D01*
X87726165Y-95609211D01*
X87733932Y-95577979D01*
X87743164Y-95547726D01*
X87753861Y-95518444D01*
X87766024Y-95490124D01*
X87779652Y-95462757D01*
X87794745Y-95436333D01*
X87811304Y-95410843D01*
X87829328Y-95386278D01*
X87848818Y-95362628D01*
X87869773Y-95339886D01*
X87892193Y-95318041D01*
X87916079Y-95297085D01*
X87940696Y-95277228D01*
X87966476Y-95258685D01*
X87993410Y-95241453D01*
X88021489Y-95225525D01*
X88050703Y-95210898D01*
X88081044Y-95197567D01*
X88112503Y-95185527D01*
X88145069Y-95174774D01*
X88178735Y-95165303D01*
X88213491Y-95157110D01*
X88249327Y-95150190D01*
X88286235Y-95144538D01*
X88324205Y-95140150D01*
X88363228Y-95137022D01*
X88403296Y-95135148D01*
X88444398Y-95134525D01*
X88485502Y-95135185D01*
G37*
G36*
X87375776Y-97344713D02*
G01*
X86981881Y-97344713D01*
X86981881Y-96925809D01*
X87375776Y-96925809D01*
X87375776Y-97344713D01*
G37*
G36*
X87375776Y-96188037D02*
G01*
X86981881Y-96188037D01*
X86981881Y-95766007D01*
X87375776Y-95766007D01*
X87375776Y-96188037D01*
G37*
G36*
X88169237Y-92097945D02*
G01*
X88175567Y-92098257D01*
X88181861Y-92098774D01*
X88188114Y-92099495D01*
X88194321Y-92100417D01*
X88200479Y-92101538D01*
X88206582Y-92102855D01*
X88212627Y-92104367D01*
X88218609Y-92106071D01*
X88224523Y-92107965D01*
X88230366Y-92110048D01*
X88236133Y-92112316D01*
X88241819Y-92114767D01*
X88247421Y-92117400D01*
X88252933Y-92120212D01*
X88258352Y-92123201D01*
X88263673Y-92126365D01*
X88268892Y-92129702D01*
X88274004Y-92133209D01*
X88279005Y-92136884D01*
X88283890Y-92140726D01*
X88288656Y-92144731D01*
X88293298Y-92148898D01*
X88297811Y-92153225D01*
X88302192Y-92157709D01*
X88306435Y-92162348D01*
X88310536Y-92167140D01*
X88314492Y-92172083D01*
X88318297Y-92177174D01*
X88321948Y-92182412D01*
X88325439Y-92187794D01*
X88328767Y-92193318D01*
X91715857Y-98060457D01*
X91721941Y-98071583D01*
X91727214Y-98083005D01*
X91731675Y-98094681D01*
X91735326Y-98106573D01*
X91738165Y-98118640D01*
X91740193Y-98130842D01*
X91741410Y-98143137D01*
X91741815Y-98155487D01*
X91741410Y-98167851D01*
X91740193Y-98180189D01*
X91738165Y-98192460D01*
X91735326Y-98204625D01*
X91731675Y-98216643D01*
X91727214Y-98228474D01*
X91721941Y-98240077D01*
X91715857Y-98251413D01*
X91709038Y-98262122D01*
X91701582Y-98272306D01*
X91693525Y-98281940D01*
X91684902Y-98291003D01*
X91675747Y-98299471D01*
X91666095Y-98307323D01*
X91655982Y-98314534D01*
X91645443Y-98321083D01*
X91634511Y-98326946D01*
X91623224Y-98332101D01*
X91611614Y-98336526D01*
X91599718Y-98340197D01*
X91587570Y-98343092D01*
X91575205Y-98345188D01*
X91562658Y-98346462D01*
X91549964Y-98346892D01*
X84775783Y-98346892D01*
X84769420Y-98346787D01*
X84763089Y-98346475D01*
X84756795Y-98345957D01*
X84750542Y-98345237D01*
X84744335Y-98344315D01*
X84738178Y-98343194D01*
X84732074Y-98341877D01*
X84726029Y-98340365D01*
X84720048Y-98338661D01*
X84714133Y-98336766D01*
X84708290Y-98334684D01*
X84702524Y-98332416D01*
X84696837Y-98329964D01*
X84691236Y-98327331D01*
X84685723Y-98324519D01*
X84680304Y-98321530D01*
X84674983Y-98318366D01*
X84669765Y-98315029D01*
X84664653Y-98311522D01*
X84659652Y-98307847D01*
X84654766Y-98304005D01*
X84650000Y-98300000D01*
X84645358Y-98295833D01*
X84640845Y-98291506D01*
X84636465Y-98287022D01*
X84632221Y-98282383D01*
X84628120Y-98277591D01*
X84624164Y-98272648D01*
X84620359Y-98267557D01*
X84616709Y-98262319D01*
X84613217Y-98256937D01*
X84609889Y-98251413D01*
X84603805Y-98240287D01*
X84598532Y-98228865D01*
X84594071Y-98217188D01*
X84590421Y-98205296D01*
X84587581Y-98193230D01*
X84585553Y-98181028D01*
X84584337Y-98168732D01*
X84583931Y-98156383D01*
X84584337Y-98144019D01*
X84585553Y-98131681D01*
X84587581Y-98119410D01*
X84590421Y-98107245D01*
X84594071Y-98095227D01*
X84598532Y-98083396D01*
X84603805Y-98071793D01*
X84609889Y-98060457D01*
X84727369Y-97856957D01*
X85293084Y-97856957D01*
X91032651Y-97856957D01*
X88162874Y-92885893D01*
X85293084Y-97856957D01*
X84727369Y-97856957D01*
X87996980Y-92193318D01*
X88003800Y-92182609D01*
X88011255Y-92172425D01*
X88019312Y-92162791D01*
X88027936Y-92153728D01*
X88037091Y-92145260D01*
X88046743Y-92137409D01*
X88056856Y-92130198D01*
X88067395Y-92123649D01*
X88078327Y-92117786D01*
X88089615Y-92112630D01*
X88101224Y-92108206D01*
X88113121Y-92104535D01*
X88125269Y-92101640D01*
X88137634Y-92099544D01*
X88150180Y-92098270D01*
X88162874Y-92097840D01*
X88169237Y-92097945D01*
G37*
D11*
G36*
X82879978Y-98118791D02*
G01*
X78243535Y-98118791D01*
X78243535Y-96493507D01*
X78743535Y-96493507D01*
X78755309Y-96800566D01*
X78814102Y-97043835D01*
X78913164Y-97236857D01*
X79059615Y-97395789D01*
X79253959Y-97513827D01*
X79507886Y-97590570D01*
X79838051Y-97618791D01*
X80217950Y-97595379D01*
X80526389Y-97530850D01*
X80775852Y-97431671D01*
X81002934Y-97288070D01*
X81210921Y-97099514D01*
X81401235Y-96860692D01*
X81553506Y-96594569D01*
X81684720Y-96264679D01*
X81791413Y-95859693D01*
X82379978Y-93028980D01*
X81414699Y-93028980D01*
X80790140Y-96033900D01*
X80697558Y-96387920D01*
X80604477Y-96609377D01*
X80514542Y-96737044D01*
X80395155Y-96831521D01*
X80254143Y-96888756D01*
X80085072Y-96908778D01*
X79920677Y-96885149D01*
X79808814Y-96821673D01*
X79735011Y-96718909D01*
X79699297Y-96588490D01*
X79692523Y-96392443D01*
X79728691Y-96106440D01*
X78790615Y-96106440D01*
X78743535Y-96493507D01*
X78243535Y-96493507D01*
X78243535Y-92528980D01*
X82879978Y-92528980D01*
X82879978Y-98118791D01*
G37*
D12*
G36*
X78259242Y-79075490D02*
G01*
X78380809Y-79100130D01*
X78474852Y-79141014D01*
X78546685Y-79197022D01*
X78575548Y-79231288D01*
X78599491Y-79269599D01*
X78619226Y-79313912D01*
X78633564Y-79362616D01*
X78642920Y-79419655D01*
X78646043Y-79481709D01*
X78646043Y-80250000D01*
X78361549Y-80251367D01*
X78361549Y-80148981D01*
X78352231Y-80158127D01*
X78279142Y-80214869D01*
X78240046Y-80234244D01*
X78197148Y-80248230D01*
X78140545Y-80258046D01*
X78074808Y-80261235D01*
X78048547Y-80260748D01*
X77936741Y-80245486D01*
X77847696Y-80211046D01*
X77810079Y-80186868D01*
X77776929Y-80158164D01*
X77728136Y-80091853D01*
X77707726Y-80048086D01*
X77692909Y-80000811D01*
X77683701Y-79949643D01*
X77680600Y-79896140D01*
X77680663Y-79890767D01*
X77960600Y-79890767D01*
X77968294Y-79938220D01*
X77979782Y-79961355D01*
X77996549Y-79981198D01*
X78020165Y-79998350D01*
X78049927Y-80011251D01*
X78089868Y-80020182D01*
X78137529Y-80023244D01*
X78183557Y-80021522D01*
X78251348Y-80006511D01*
X78281324Y-79991026D01*
X78310062Y-79968632D01*
X78339707Y-79926432D01*
X78351357Y-79879980D01*
X78354808Y-79819351D01*
X78354808Y-79756043D01*
X78133035Y-79756043D01*
X78059913Y-79764017D01*
X78006158Y-79788261D01*
X77987090Y-79806332D01*
X77973196Y-79828259D01*
X77963737Y-79857208D01*
X77960600Y-79890767D01*
X77680663Y-79890767D01*
X77680710Y-79886702D01*
X77694331Y-79795433D01*
X77729154Y-79717142D01*
X77784167Y-79652538D01*
X77819475Y-79625619D01*
X77860123Y-79602677D01*
X77906811Y-79583863D01*
X77959108Y-79569881D01*
X78018452Y-79560972D01*
X78083796Y-79557913D01*
X78354808Y-79557913D01*
X78354808Y-79499685D01*
X78353470Y-79469096D01*
X78337596Y-79404802D01*
X78323085Y-79380201D01*
X78303867Y-79359744D01*
X78277083Y-79341917D01*
X78244131Y-79328840D01*
X78195737Y-79319181D01*
X78137529Y-79316015D01*
X78066119Y-79321837D01*
X78028196Y-79331920D01*
X77994301Y-79347358D01*
X77953194Y-79376661D01*
X77913510Y-79416741D01*
X77729839Y-79235317D01*
X77794271Y-79173422D01*
X77879882Y-79118139D01*
X77929814Y-79097972D01*
X77984073Y-79083626D01*
X78060924Y-79072936D01*
X78148764Y-79069623D01*
X78259242Y-79075490D01*
G37*
G36*
X79454291Y-80250000D02*
G01*
X79454291Y-80003607D01*
X79342330Y-80003607D01*
X79308296Y-80000491D01*
X79281633Y-79991184D01*
X79264422Y-79978457D01*
X79251906Y-79961343D01*
X79239702Y-79912613D01*
X79239260Y-79898387D01*
X79239260Y-78655582D01*
X78948122Y-78655582D01*
X78948122Y-79916364D01*
X78951289Y-79966815D01*
X78960950Y-80016332D01*
X78976234Y-80061218D01*
X78997714Y-80103414D01*
X79023225Y-80139203D01*
X79054351Y-80171221D01*
X79088604Y-80197071D01*
X79128017Y-80218441D01*
X79170831Y-80234206D01*
X79218635Y-80244800D01*
X79288597Y-80250000D01*
X79454291Y-80250000D01*
G37*
G36*
X80181158Y-80250000D02*
G01*
X80181158Y-80003607D01*
X80069197Y-80003607D01*
X80035163Y-80000491D01*
X80008500Y-79991184D01*
X79991289Y-79978457D01*
X79978773Y-79961343D01*
X79966569Y-79912613D01*
X79966127Y-79898387D01*
X79966127Y-78655582D01*
X79674989Y-78655582D01*
X79674989Y-79916364D01*
X79678156Y-79966815D01*
X79687817Y-80016332D01*
X79703100Y-80061218D01*
X79724581Y-80103414D01*
X79750091Y-80139203D01*
X79781217Y-80171221D01*
X79815471Y-80197071D01*
X79854883Y-80218441D01*
X79897697Y-80234206D01*
X79945502Y-80244800D01*
X80015464Y-80250000D01*
X80181158Y-80250000D01*
G37*
G36*
X80871787Y-79068950D02*
G01*
X80988750Y-79086241D01*
X81041401Y-79103148D01*
X81090168Y-79125266D01*
X81135489Y-79152719D01*
X81176684Y-79185039D01*
X81214576Y-79223003D01*
X81247969Y-79265588D01*
X81277705Y-79314256D01*
X81302447Y-79367320D01*
X81322732Y-79426685D01*
X81337451Y-79490160D01*
X81346703Y-79559653D01*
X81349811Y-79632847D01*
X81349811Y-79756043D01*
X80619623Y-79756043D01*
X80619756Y-79766182D01*
X80633233Y-79851955D01*
X80666312Y-79920161D01*
X80717105Y-79971110D01*
X80749375Y-79990052D01*
X80786052Y-80004085D01*
X80828275Y-80013046D01*
X80875003Y-80016113D01*
X80940001Y-80012181D01*
X80985718Y-80003054D01*
X81025879Y-79988715D01*
X81084111Y-79954169D01*
X81139274Y-79906301D01*
X81316203Y-80078834D01*
X81220238Y-80163165D01*
X81127200Y-80216816D01*
X81075179Y-80236035D01*
X81018206Y-80250072D01*
X80949641Y-80259387D01*
X80872756Y-80262505D01*
X80782339Y-80257632D01*
X80667663Y-80234150D01*
X80571716Y-80192814D01*
X80492113Y-80133896D01*
X80427376Y-80055750D01*
X80400495Y-80008329D01*
X80377634Y-79954890D01*
X80358838Y-79894044D01*
X80344885Y-79826368D01*
X80335945Y-79749234D01*
X80332882Y-79664207D01*
X80334846Y-79601086D01*
X80341367Y-79556741D01*
X80619623Y-79556741D01*
X81063168Y-79556741D01*
X81059666Y-79510681D01*
X81051676Y-79471192D01*
X81036203Y-79431200D01*
X81022545Y-79405531D01*
X80977495Y-79354507D01*
X80917359Y-79321984D01*
X80881422Y-79313281D01*
X80841395Y-79310251D01*
X80820529Y-79311046D01*
X80781893Y-79317201D01*
X80747494Y-79328928D01*
X80715722Y-79346719D01*
X80688690Y-79369334D01*
X80664827Y-79398333D01*
X80646489Y-79431200D01*
X80626352Y-79490600D01*
X80619623Y-79556741D01*
X80341367Y-79556741D01*
X80355364Y-79461557D01*
X80395694Y-79344311D01*
X80453412Y-79248138D01*
X80488321Y-79207611D01*
X80527088Y-79172073D01*
X80569897Y-79141376D01*
X80616246Y-79115924D01*
X80666976Y-79095455D01*
X80720985Y-79080627D01*
X80779678Y-79071365D01*
X80841395Y-79068255D01*
X80871787Y-79068950D01*
G37*
G36*
X82530383Y-79080760D02*
G01*
X82223517Y-79080760D01*
X81990607Y-79801863D01*
X81748611Y-79080760D01*
X81441744Y-79080760D01*
X81840446Y-80164612D01*
X81791207Y-80307934D01*
X81772545Y-80352103D01*
X81750525Y-80382457D01*
X81731416Y-80396972D01*
X81708598Y-80406372D01*
X81645638Y-80413154D01*
X81578422Y-80413154D01*
X81578422Y-80675177D01*
X81692630Y-80675177D01*
X81753633Y-80671825D01*
X81811451Y-80660865D01*
X81855199Y-80645606D01*
X81896102Y-80623839D01*
X81943517Y-80585589D01*
X81992342Y-80519859D01*
X82030858Y-80435526D01*
X82530383Y-79080760D01*
G37*
G36*
X84069406Y-80103551D02*
G01*
X83872254Y-79908548D01*
X83831257Y-79947755D01*
X83790641Y-79975510D01*
X83757720Y-79989715D01*
X83722329Y-79997906D01*
X83684089Y-80000481D01*
X83643212Y-79997334D01*
X83606060Y-79987812D01*
X83574810Y-79973215D01*
X83546387Y-79952957D01*
X83518394Y-79924277D01*
X83480503Y-79856468D01*
X83458820Y-79762940D01*
X83453426Y-79664305D01*
X83456606Y-79586840D01*
X83466364Y-79521725D01*
X83479700Y-79475899D01*
X83497983Y-79436595D01*
X83518394Y-79406580D01*
X83545374Y-79378771D01*
X83575295Y-79357360D01*
X83640535Y-79333973D01*
X83684089Y-79330376D01*
X83726494Y-79333589D01*
X83764692Y-79343574D01*
X83827605Y-79380133D01*
X83872254Y-79422309D01*
X84069406Y-79225059D01*
X84024992Y-79183306D01*
X83978103Y-79148249D01*
X83931300Y-79121199D01*
X83881659Y-79099849D01*
X83773221Y-79073843D01*
X83684089Y-79068255D01*
X83618697Y-79071557D01*
X83552070Y-79082166D01*
X83494306Y-79098176D01*
X83437888Y-79121220D01*
X83390003Y-79147995D01*
X83344731Y-79181287D01*
X83306321Y-79217758D01*
X83271252Y-79260419D01*
X83241687Y-79306752D01*
X83216072Y-79359246D01*
X83195365Y-79416609D01*
X83179288Y-79480397D01*
X83168306Y-79550626D01*
X83162782Y-79627800D01*
X83162191Y-79664305D01*
X83165242Y-79745779D01*
X83174098Y-79820023D01*
X83188104Y-79886537D01*
X83206903Y-79946558D01*
X83230073Y-80000385D01*
X83257176Y-80048269D01*
X83322874Y-80128714D01*
X83403256Y-80190230D01*
X83498286Y-80233573D01*
X83607261Y-80257859D01*
X83684089Y-80262505D01*
X83750546Y-80259365D01*
X83812492Y-80249896D01*
X83866781Y-80235211D01*
X83917770Y-80214837D01*
X84009597Y-80157969D01*
X84069406Y-80103551D01*
G37*
G36*
X84779158Y-79075490D02*
G01*
X84900725Y-79100130D01*
X84994768Y-79141014D01*
X85066601Y-79197022D01*
X85095464Y-79231288D01*
X85119407Y-79269599D01*
X85139142Y-79313912D01*
X85153481Y-79362616D01*
X85162836Y-79419655D01*
X85165959Y-79481709D01*
X85165959Y-80250000D01*
X84881465Y-80251367D01*
X84881465Y-80148981D01*
X84872148Y-80158127D01*
X84799058Y-80214869D01*
X84759963Y-80234244D01*
X84717064Y-80248230D01*
X84660461Y-80258046D01*
X84594724Y-80261235D01*
X84568463Y-80260748D01*
X84456658Y-80245486D01*
X84367612Y-80211046D01*
X84329995Y-80186868D01*
X84296845Y-80158164D01*
X84248052Y-80091853D01*
X84227643Y-80048086D01*
X84212825Y-80000811D01*
X84203618Y-79949643D01*
X84200516Y-79896140D01*
X84200579Y-79890767D01*
X84480516Y-79890767D01*
X84488210Y-79938220D01*
X84499698Y-79961355D01*
X84516466Y-79981198D01*
X84540082Y-79998350D01*
X84569843Y-80011251D01*
X84609784Y-80020182D01*
X84657445Y-80023244D01*
X84703474Y-80021522D01*
X84771265Y-80006511D01*
X84801241Y-79991026D01*
X84829979Y-79968632D01*
X84859624Y-79926432D01*
X84871273Y-79879980D01*
X84874724Y-79819351D01*
X84874724Y-79756043D01*
X84652951Y-79756043D01*
X84579830Y-79764017D01*
X84526074Y-79788261D01*
X84507006Y-79806332D01*
X84493112Y-79828259D01*
X84483654Y-79857208D01*
X84480516Y-79890767D01*
X84200579Y-79890767D01*
X84200626Y-79886702D01*
X84214247Y-79795433D01*
X84249070Y-79717142D01*
X84304084Y-79652538D01*
X84339391Y-79625619D01*
X84380039Y-79602677D01*
X84426727Y-79583863D01*
X84479024Y-79569881D01*
X84538368Y-79560972D01*
X84603712Y-79557913D01*
X84874724Y-79557913D01*
X84874724Y-79499685D01*
X84873386Y-79469096D01*
X84857512Y-79404802D01*
X84843001Y-79380201D01*
X84823783Y-79359744D01*
X84797000Y-79341917D01*
X84764047Y-79328840D01*
X84715653Y-79319181D01*
X84657445Y-79316015D01*
X84586035Y-79321837D01*
X84548112Y-79331920D01*
X84514217Y-79347358D01*
X84473111Y-79376661D01*
X84433426Y-79416741D01*
X84249755Y-79235317D01*
X84314187Y-79173422D01*
X84399799Y-79118139D01*
X84449730Y-79097972D01*
X84503990Y-79083626D01*
X84580840Y-79072936D01*
X84668681Y-79069623D01*
X84779158Y-79075490D01*
G37*
G36*
X86003321Y-80250000D02*
G01*
X86003321Y-80003607D01*
X85898101Y-80003607D01*
X85866734Y-80000521D01*
X85841436Y-79991424D01*
X85823857Y-79978445D01*
X85810823Y-79961054D01*
X85797760Y-79912167D01*
X85797278Y-79898192D01*
X85797278Y-79337117D01*
X86003321Y-79337117D01*
X86003321Y-79115443D01*
X85797278Y-79115443D01*
X85797278Y-78774382D01*
X85506043Y-78774382D01*
X85506043Y-79115443D01*
X85382847Y-79115443D01*
X85382847Y-79337117D01*
X85506043Y-79337117D01*
X85506043Y-79916168D01*
X85509207Y-79966649D01*
X85518849Y-80016186D01*
X85534124Y-80061178D01*
X85555580Y-80103464D01*
X85581068Y-80139348D01*
X85612149Y-80171433D01*
X85646317Y-80197310D01*
X85685605Y-80218677D01*
X85728214Y-80234397D01*
X85775753Y-80244923D01*
X85844270Y-80250000D01*
X86003321Y-80250000D01*
G37*
G36*
X87266651Y-79068950D02*
G01*
X87383614Y-79086241D01*
X87436265Y-79103148D01*
X87485032Y-79125266D01*
X87530353Y-79152719D01*
X87571548Y-79185039D01*
X87609440Y-79223003D01*
X87642833Y-79265588D01*
X87672569Y-79314256D01*
X87697311Y-79367320D01*
X87717595Y-79426685D01*
X87732315Y-79490160D01*
X87741567Y-79559653D01*
X87744675Y-79632847D01*
X87744675Y-79756043D01*
X87014487Y-79756043D01*
X87014620Y-79766182D01*
X87028097Y-79851955D01*
X87061176Y-79920161D01*
X87111968Y-79971110D01*
X87144239Y-79990052D01*
X87180916Y-80004085D01*
X87223139Y-80013046D01*
X87269867Y-80016113D01*
X87334865Y-80012181D01*
X87380581Y-80003054D01*
X87420742Y-79988715D01*
X87478975Y-79954169D01*
X87534138Y-79906301D01*
X87711067Y-80078834D01*
X87615102Y-80163165D01*
X87522064Y-80216816D01*
X87470043Y-80236035D01*
X87413070Y-80250072D01*
X87344504Y-80259387D01*
X87267620Y-80262505D01*
X87177203Y-80257632D01*
X87062527Y-80234150D01*
X86966580Y-80192814D01*
X86886976Y-80133896D01*
X86822240Y-80055750D01*
X86795359Y-80008329D01*
X86772498Y-79954890D01*
X86753702Y-79894044D01*
X86739749Y-79826368D01*
X86730809Y-79749234D01*
X86727745Y-79664207D01*
X86729710Y-79601086D01*
X86736231Y-79556741D01*
X87014487Y-79556741D01*
X87458032Y-79556741D01*
X87454530Y-79510681D01*
X87446540Y-79471192D01*
X87431067Y-79431200D01*
X87417409Y-79405531D01*
X87372359Y-79354507D01*
X87312223Y-79321984D01*
X87276286Y-79313281D01*
X87236259Y-79310251D01*
X87215393Y-79311046D01*
X87176756Y-79317201D01*
X87142358Y-79328928D01*
X87110586Y-79346719D01*
X87083554Y-79369334D01*
X87059691Y-79398333D01*
X87041353Y-79431200D01*
X87021215Y-79490600D01*
X87014487Y-79556741D01*
X86736231Y-79556741D01*
X86750228Y-79461557D01*
X86790558Y-79344311D01*
X86848276Y-79248138D01*
X86883184Y-79207611D01*
X86921952Y-79172073D01*
X86964761Y-79141376D01*
X87011110Y-79115924D01*
X87061840Y-79095455D01*
X87115849Y-79080627D01*
X87174542Y-79071365D01*
X87236259Y-79068255D01*
X87266651Y-79068950D01*
G37*
G36*
X88982986Y-80250000D02*
G01*
X88982986Y-79504180D01*
X88979469Y-79427619D01*
X88967357Y-79355487D01*
X88951676Y-79305394D01*
X88929204Y-79257573D01*
X88902599Y-79216689D01*
X88869167Y-79177556D01*
X88864284Y-79172595D01*
X88830421Y-79143172D01*
X88792139Y-79118282D01*
X88749687Y-79098238D01*
X88703175Y-79083276D01*
X88652358Y-79073620D01*
X88597766Y-79069699D01*
X88588778Y-79069623D01*
X88536993Y-79072750D01*
X88486002Y-79082134D01*
X88437356Y-79097483D01*
X88390975Y-79118900D01*
X88349236Y-79145200D01*
X88310931Y-79177111D01*
X88297543Y-79190572D01*
X88297543Y-79081737D01*
X88013049Y-79081737D01*
X88013049Y-80250000D01*
X88304284Y-80250000D01*
X88304284Y-79543454D01*
X88307294Y-79498428D01*
X88315860Y-79459510D01*
X88329163Y-79426615D01*
X88346568Y-79399110D01*
X88392806Y-79357895D01*
X88453209Y-79334543D01*
X88499190Y-79329888D01*
X88537744Y-79333153D01*
X88575559Y-79343507D01*
X88606415Y-79358890D01*
X88634220Y-79380791D01*
X88655341Y-79406031D01*
X88672366Y-79437174D01*
X88683982Y-79472431D01*
X88690532Y-79513635D01*
X88691751Y-79543063D01*
X88691751Y-80250000D01*
X88982986Y-80250000D01*
G37*
G36*
X89677370Y-79068170D02*
G01*
X89770282Y-79083312D01*
X89810941Y-79098769D01*
X89849055Y-79120101D01*
X89890271Y-79152045D01*
X89930355Y-79192819D01*
X89930355Y-79083007D01*
X90212602Y-79083007D01*
X90212602Y-80206817D01*
X90212564Y-80213648D01*
X90199237Y-80329380D01*
X90163445Y-80432138D01*
X90107057Y-80520406D01*
X90071598Y-80558648D01*
X90031504Y-80592679D01*
X89986819Y-80622315D01*
X89937829Y-80647195D01*
X89884359Y-80667169D01*
X89826891Y-80681794D01*
X89765088Y-80690854D01*
X89699595Y-80693935D01*
X89583190Y-80687591D01*
X89471414Y-80663282D01*
X89421425Y-80643533D01*
X89373582Y-80617907D01*
X89324439Y-80583683D01*
X89276273Y-80541625D01*
X89457697Y-80356782D01*
X89510020Y-80399831D01*
X89545694Y-80420029D01*
X89583971Y-80434500D01*
X89631990Y-80444350D01*
X89686210Y-80447543D01*
X89746664Y-80441904D01*
X89784565Y-80431143D01*
X89817245Y-80415456D01*
X89847024Y-80393630D01*
X89871302Y-80367514D01*
X89892751Y-80333343D01*
X89907890Y-80295713D01*
X89918119Y-80249664D01*
X89921367Y-80202323D01*
X89921367Y-80083524D01*
X89914073Y-80091487D01*
X89842827Y-80150408D01*
X89802139Y-80171471D01*
X89758767Y-80186370D01*
X89703586Y-80196714D01*
X89643614Y-80199979D01*
X89631017Y-80199823D01*
X89576626Y-80195440D01*
X89525363Y-80185244D01*
X89435932Y-80149602D01*
X89365861Y-80097006D01*
X89337282Y-80064656D01*
X89309880Y-80023523D01*
X89288638Y-79979133D01*
X89266417Y-79905208D01*
X89253907Y-79823102D01*
X89247159Y-79632749D01*
X89538297Y-79632749D01*
X89538599Y-79664725D01*
X89547909Y-79773160D01*
X89570022Y-79845960D01*
X89604585Y-79895072D01*
X89627383Y-79912781D01*
X89654791Y-79926123D01*
X89688775Y-79934913D01*
X89728709Y-79937955D01*
X89735285Y-79937881D01*
X89772881Y-79934192D01*
X89805111Y-79925265D01*
X89833715Y-79910680D01*
X89857282Y-79891295D01*
X89879764Y-79862135D01*
X89896393Y-79827626D01*
X89909073Y-79783942D01*
X89916682Y-79736042D01*
X89921367Y-79632749D01*
X89921062Y-79602058D01*
X89911527Y-79494433D01*
X89889068Y-79421879D01*
X89854067Y-79372800D01*
X89830998Y-79355075D01*
X89803299Y-79341725D01*
X89768986Y-79332931D01*
X89728709Y-79329888D01*
X89659531Y-79339910D01*
X89630257Y-79352998D01*
X89606050Y-79370841D01*
X89583185Y-79397611D01*
X89566042Y-79429607D01*
X89551760Y-79474343D01*
X89543328Y-79524099D01*
X89538297Y-79632749D01*
X89247159Y-79632749D01*
X89253924Y-79442828D01*
X89274227Y-79330269D01*
X89310063Y-79243554D01*
X89335055Y-79205779D01*
X89365861Y-79170544D01*
X89369335Y-79167123D01*
X89403923Y-79138362D01*
X89443447Y-79114088D01*
X89488589Y-79094120D01*
X89537741Y-79079478D01*
X89590398Y-79070452D01*
X89645861Y-79067376D01*
X89677370Y-79068170D01*
G37*
G36*
X90830341Y-80250000D02*
G01*
X90830341Y-79114075D01*
X90539106Y-79114075D01*
X90539106Y-80250000D01*
X90830341Y-80250000D01*
G37*
G36*
X90832588Y-78880579D02*
G01*
X90832588Y-78643077D01*
X90534612Y-78643077D01*
X90534612Y-78880579D01*
X90832588Y-78880579D01*
G37*
G36*
X92124926Y-80250000D02*
G01*
X92124926Y-79504180D01*
X92121409Y-79427619D01*
X92109297Y-79355487D01*
X92093616Y-79305394D01*
X92071144Y-79257573D01*
X92044539Y-79216689D01*
X92011107Y-79177556D01*
X92006224Y-79172595D01*
X91972361Y-79143172D01*
X91934079Y-79118282D01*
X91891627Y-79098238D01*
X91845115Y-79083276D01*
X91794298Y-79073620D01*
X91739706Y-79069699D01*
X91730718Y-79069623D01*
X91678933Y-79072750D01*
X91627942Y-79082134D01*
X91579296Y-79097483D01*
X91532915Y-79118900D01*
X91491176Y-79145200D01*
X91452871Y-79177111D01*
X91439483Y-79190572D01*
X91439483Y-79081737D01*
X91154989Y-79081737D01*
X91154989Y-80250000D01*
X91446224Y-80250000D01*
X91446224Y-79543454D01*
X91449234Y-79498428D01*
X91457800Y-79459510D01*
X91471103Y-79426615D01*
X91488508Y-79399110D01*
X91534746Y-79357895D01*
X91595149Y-79334543D01*
X91641130Y-79329888D01*
X91679684Y-79333153D01*
X91717499Y-79343507D01*
X91748355Y-79358890D01*
X91776160Y-79380791D01*
X91797281Y-79406031D01*
X91814306Y-79437174D01*
X91825922Y-79472431D01*
X91832472Y-79513635D01*
X91833691Y-79543063D01*
X91833691Y-80250000D01*
X92124926Y-80250000D01*
G37*
G36*
X92919016Y-79068950D02*
G01*
X93035980Y-79086241D01*
X93088631Y-79103148D01*
X93137398Y-79125266D01*
X93182718Y-79152719D01*
X93223914Y-79185039D01*
X93261806Y-79223003D01*
X93295199Y-79265588D01*
X93324935Y-79314256D01*
X93349676Y-79367320D01*
X93369961Y-79426685D01*
X93384681Y-79490160D01*
X93393933Y-79559653D01*
X93397041Y-79632847D01*
X93397041Y-79756043D01*
X92666852Y-79756043D01*
X92666986Y-79766182D01*
X92680463Y-79851955D01*
X92713541Y-79920161D01*
X92764334Y-79971110D01*
X92796604Y-79990052D01*
X92833282Y-80004085D01*
X92875504Y-80013046D01*
X92922233Y-80016113D01*
X92987231Y-80012181D01*
X93032947Y-80003054D01*
X93073108Y-79988715D01*
X93131340Y-79954169D01*
X93186503Y-79906301D01*
X93363433Y-80078834D01*
X93267467Y-80163165D01*
X93174430Y-80216816D01*
X93122408Y-80236035D01*
X93065435Y-80250072D01*
X92996870Y-80259387D01*
X92919986Y-80262505D01*
X92829568Y-80257632D01*
X92714892Y-80234150D01*
X92618946Y-80192814D01*
X92539342Y-80133896D01*
X92474605Y-80055750D01*
X92447725Y-80008329D01*
X92424864Y-79954890D01*
X92406067Y-79894044D01*
X92392115Y-79826368D01*
X92383175Y-79749234D01*
X92380111Y-79664207D01*
X92382075Y-79601086D01*
X92388596Y-79556741D01*
X92666852Y-79556741D01*
X93110397Y-79556741D01*
X93106895Y-79510681D01*
X93098905Y-79471192D01*
X93083433Y-79431200D01*
X93069775Y-79405531D01*
X93024724Y-79354507D01*
X92964589Y-79321984D01*
X92928652Y-79313281D01*
X92888625Y-79310251D01*
X92867758Y-79311046D01*
X92829122Y-79317201D01*
X92794724Y-79328928D01*
X92762951Y-79346719D01*
X92735920Y-79369334D01*
X92712056Y-79398333D01*
X92693719Y-79431200D01*
X92673581Y-79490600D01*
X92666852Y-79556741D01*
X92388596Y-79556741D01*
X92402594Y-79461557D01*
X92442924Y-79344311D01*
X92500641Y-79248138D01*
X92535550Y-79207611D01*
X92574318Y-79172073D01*
X92617127Y-79141376D01*
X92663476Y-79115924D01*
X92714206Y-79095455D01*
X92768215Y-79080627D01*
X92826908Y-79071365D01*
X92888625Y-79068255D01*
X92919016Y-79068950D01*
G37*
G36*
X94146092Y-79068950D02*
G01*
X94263056Y-79086241D01*
X94315707Y-79103148D01*
X94364474Y-79125266D01*
X94409794Y-79152719D01*
X94450990Y-79185039D01*
X94488882Y-79223003D01*
X94522275Y-79265588D01*
X94552011Y-79314256D01*
X94576752Y-79367320D01*
X94597037Y-79426685D01*
X94611757Y-79490160D01*
X94621009Y-79559653D01*
X94624117Y-79632847D01*
X94624117Y-79756043D01*
X93893928Y-79756043D01*
X93894062Y-79766182D01*
X93907539Y-79851955D01*
X93940617Y-79920161D01*
X93991410Y-79971110D01*
X94023680Y-79990052D01*
X94060358Y-80004085D01*
X94102580Y-80013046D01*
X94149309Y-80016113D01*
X94214307Y-80012181D01*
X94260023Y-80003054D01*
X94300184Y-79988715D01*
X94358416Y-79954169D01*
X94413579Y-79906301D01*
X94590509Y-80078834D01*
X94494543Y-80163165D01*
X94401506Y-80216816D01*
X94349485Y-80236035D01*
X94292511Y-80250072D01*
X94223946Y-80259387D01*
X94147062Y-80262505D01*
X94056644Y-80257632D01*
X93941969Y-80234150D01*
X93846022Y-80192814D01*
X93766418Y-80133896D01*
X93701681Y-80055750D01*
X93674801Y-80008329D01*
X93651940Y-79954890D01*
X93633143Y-79894044D01*
X93619191Y-79826368D01*
X93610251Y-79749234D01*
X93607187Y-79664207D01*
X93609151Y-79601086D01*
X93615672Y-79556741D01*
X93893928Y-79556741D01*
X94337473Y-79556741D01*
X94333971Y-79510681D01*
X94325982Y-79471192D01*
X94310509Y-79431200D01*
X94296851Y-79405531D01*
X94251800Y-79354507D01*
X94191665Y-79321984D01*
X94155728Y-79313281D01*
X94115701Y-79310251D01*
X94094834Y-79311046D01*
X94056198Y-79317201D01*
X94021800Y-79328928D01*
X93990027Y-79346719D01*
X93962996Y-79369334D01*
X93939132Y-79398333D01*
X93920795Y-79431200D01*
X93900657Y-79490600D01*
X93893928Y-79556741D01*
X93615672Y-79556741D01*
X93629670Y-79461557D01*
X93670000Y-79344311D01*
X93727717Y-79248138D01*
X93762626Y-79207611D01*
X93801394Y-79172073D01*
X93844203Y-79141376D01*
X93890552Y-79115924D01*
X93941282Y-79095455D01*
X93995291Y-79080627D01*
X94053984Y-79071365D01*
X94115701Y-79068255D01*
X94146092Y-79068950D01*
G37*
G36*
X95745973Y-79179337D02*
G01*
X95704832Y-79142719D01*
X95662727Y-79114304D01*
X95622667Y-79094995D01*
X95580245Y-79081469D01*
X95482109Y-79069726D01*
X95470467Y-79069623D01*
X95373469Y-79081185D01*
X95280550Y-79115378D01*
X95238587Y-79140199D01*
X95202794Y-79168296D01*
X95176985Y-79195066D01*
X95176985Y-79081737D01*
X94892491Y-79081737D01*
X94892491Y-80250000D01*
X95183726Y-80250000D01*
X95183726Y-79545701D01*
X95186735Y-79502455D01*
X95195296Y-79464269D01*
X95208892Y-79430686D01*
X95226726Y-79402097D01*
X95274353Y-79358142D01*
X95334652Y-79333753D01*
X95371891Y-79329888D01*
X95412113Y-79332974D01*
X95445949Y-79342075D01*
X95500121Y-79375071D01*
X95526448Y-79399448D01*
X95745973Y-79179337D01*
G37*
G36*
X96202903Y-80250000D02*
G01*
X96202903Y-79114075D01*
X95911667Y-79114075D01*
X95911667Y-80250000D01*
X96202903Y-80250000D01*
G37*
G36*
X96205150Y-78880579D02*
G01*
X96205150Y-78643077D01*
X95907173Y-78643077D01*
X95907173Y-78880579D01*
X96205150Y-78880579D01*
G37*
G36*
X97497487Y-80250000D02*
G01*
X97497487Y-79504180D01*
X97493970Y-79427619D01*
X97481858Y-79355487D01*
X97466177Y-79305394D01*
X97443705Y-79257573D01*
X97417100Y-79216689D01*
X97383668Y-79177556D01*
X97378785Y-79172595D01*
X97344922Y-79143172D01*
X97306640Y-79118282D01*
X97264188Y-79098238D01*
X97217676Y-79083276D01*
X97166859Y-79073620D01*
X97112267Y-79069699D01*
X97103279Y-79069623D01*
X97051494Y-79072750D01*
X97000503Y-79082134D01*
X96951857Y-79097483D01*
X96905477Y-79118900D01*
X96863737Y-79145200D01*
X96825432Y-79177111D01*
X96812044Y-79190572D01*
X96812044Y-79081737D01*
X96527550Y-79081737D01*
X96527550Y-80250000D01*
X96818785Y-80250000D01*
X96818785Y-79543454D01*
X96821795Y-79498428D01*
X96830361Y-79459510D01*
X96843664Y-79426615D01*
X96861069Y-79399110D01*
X96907307Y-79357895D01*
X96967710Y-79334543D01*
X97013691Y-79329888D01*
X97052245Y-79333153D01*
X97090060Y-79343507D01*
X97120916Y-79358890D01*
X97148721Y-79380791D01*
X97169842Y-79406031D01*
X97186867Y-79437174D01*
X97198483Y-79472431D01*
X97205033Y-79513635D01*
X97206252Y-79543063D01*
X97206252Y-80250000D01*
X97497487Y-80250000D01*
G37*
G36*
X98191871Y-79068170D02*
G01*
X98284783Y-79083312D01*
X98325442Y-79098769D01*
X98363556Y-79120101D01*
X98404772Y-79152045D01*
X98444856Y-79192819D01*
X98444856Y-79083007D01*
X98727103Y-79083007D01*
X98727103Y-80206817D01*
X98727065Y-80213648D01*
X98713738Y-80329380D01*
X98677946Y-80432138D01*
X98621558Y-80520406D01*
X98586099Y-80558648D01*
X98546005Y-80592679D01*
X98501320Y-80622315D01*
X98452330Y-80647195D01*
X98398860Y-80667169D01*
X98341392Y-80681794D01*
X98279589Y-80690854D01*
X98214096Y-80693935D01*
X98097691Y-80687591D01*
X97985915Y-80663282D01*
X97935926Y-80643533D01*
X97888083Y-80617907D01*
X97838940Y-80583683D01*
X97790774Y-80541625D01*
X97972198Y-80356782D01*
X98024521Y-80399831D01*
X98060195Y-80420029D01*
X98098472Y-80434500D01*
X98146491Y-80444350D01*
X98200711Y-80447543D01*
X98261165Y-80441904D01*
X98299066Y-80431143D01*
X98331746Y-80415456D01*
X98361525Y-80393630D01*
X98385803Y-80367514D01*
X98407252Y-80333343D01*
X98422391Y-80295713D01*
X98432620Y-80249664D01*
X98435868Y-80202323D01*
X98435868Y-80083524D01*
X98428574Y-80091487D01*
X98357328Y-80150408D01*
X98316640Y-80171471D01*
X98273268Y-80186370D01*
X98218087Y-80196714D01*
X98158115Y-80199979D01*
X98145518Y-80199823D01*
X98091127Y-80195440D01*
X98039864Y-80185244D01*
X97950433Y-80149602D01*
X97880362Y-80097006D01*
X97851783Y-80064656D01*
X97824381Y-80023523D01*
X97803139Y-79979133D01*
X97780918Y-79905208D01*
X97768408Y-79823102D01*
X97761660Y-79632749D01*
X98052798Y-79632749D01*
X98053100Y-79664725D01*
X98062410Y-79773160D01*
X98084523Y-79845960D01*
X98119086Y-79895072D01*
X98141884Y-79912781D01*
X98169292Y-79926123D01*
X98203276Y-79934913D01*
X98243210Y-79937955D01*
X98249786Y-79937881D01*
X98287382Y-79934192D01*
X98319612Y-79925265D01*
X98348216Y-79910680D01*
X98371783Y-79891295D01*
X98394265Y-79862135D01*
X98410894Y-79827626D01*
X98423574Y-79783942D01*
X98431183Y-79736042D01*
X98435868Y-79632749D01*
X98435564Y-79602058D01*
X98426028Y-79494433D01*
X98403569Y-79421879D01*
X98368568Y-79372800D01*
X98345499Y-79355075D01*
X98317800Y-79341725D01*
X98283487Y-79332931D01*
X98243210Y-79329888D01*
X98174032Y-79339910D01*
X98144758Y-79352998D01*
X98120552Y-79370841D01*
X98097686Y-79397611D01*
X98080543Y-79429607D01*
X98066261Y-79474343D01*
X98057829Y-79524099D01*
X98052798Y-79632749D01*
X97761660Y-79632749D01*
X97768425Y-79442828D01*
X97788728Y-79330269D01*
X97824564Y-79243554D01*
X97849556Y-79205779D01*
X97880362Y-79170544D01*
X97883836Y-79167123D01*
X97918424Y-79138362D01*
X97957948Y-79114088D01*
X98003090Y-79094120D01*
X98052242Y-79079478D01*
X98104899Y-79070452D01*
X98160362Y-79067376D01*
X98191871Y-79068170D01*
G37*
G36*
X78702023Y-82938000D02*
G01*
X78702023Y-82675976D01*
X78086043Y-82675976D01*
X78531737Y-82159158D01*
X78629951Y-82034460D01*
X78663970Y-81975017D01*
X78687423Y-81912222D01*
X78697427Y-81863606D01*
X78701818Y-81809922D01*
X78702023Y-81794552D01*
X78698942Y-81734497D01*
X78689878Y-81677985D01*
X78675264Y-81625639D01*
X78655305Y-81577067D01*
X78630327Y-81532510D01*
X78600551Y-81492000D01*
X78527104Y-81423307D01*
X78435932Y-81372182D01*
X78327976Y-81340622D01*
X78218227Y-81331077D01*
X78156058Y-81334176D01*
X78096476Y-81343366D01*
X78040621Y-81358250D01*
X77988100Y-81378752D01*
X77940302Y-81404116D01*
X77896465Y-81434570D01*
X77857881Y-81469045D01*
X77823779Y-81508088D01*
X77795099Y-81550567D01*
X77771375Y-81597161D01*
X77753161Y-81646988D01*
X77740396Y-81700566D01*
X77732086Y-81796799D01*
X78023321Y-81796799D01*
X78026338Y-81752459D01*
X78034950Y-81714422D01*
X78048183Y-81682912D01*
X78065539Y-81656763D01*
X78111683Y-81618304D01*
X78173265Y-81597023D01*
X78218227Y-81593198D01*
X78258164Y-81596262D01*
X78293782Y-81605204D01*
X78324024Y-81619109D01*
X78349965Y-81637832D01*
X78388364Y-81688214D01*
X78408500Y-81756167D01*
X78410788Y-81792305D01*
X78407583Y-81835145D01*
X78397657Y-81874055D01*
X78359973Y-81943636D01*
X78327941Y-81984671D01*
X77732086Y-82675976D01*
X77732086Y-82938000D01*
X78702023Y-82938000D01*
G37*
G36*
X79302177Y-82938000D02*
G01*
X79302177Y-82606611D01*
X78968443Y-82606611D01*
X78968443Y-82938000D01*
X79302177Y-82938000D01*
G37*
G36*
X80171310Y-81340925D02*
G01*
X80280508Y-81373511D01*
X80373987Y-81425914D01*
X80449220Y-81495075D01*
X80504753Y-81578666D01*
X80524715Y-81625276D01*
X80539381Y-81675366D01*
X80548361Y-81728433D01*
X80551430Y-81784685D01*
X80547614Y-81841106D01*
X80536842Y-81892674D01*
X80520228Y-81939287D01*
X80494495Y-81988327D01*
X80463971Y-82030847D01*
X80418507Y-82078285D01*
X80372254Y-82114901D01*
X80407430Y-82140133D01*
X80477872Y-82206471D01*
X80529753Y-82283036D01*
X80562281Y-82371121D01*
X80570799Y-82419890D01*
X80573803Y-82473352D01*
X80563468Y-82582476D01*
X80549679Y-82635954D01*
X80530549Y-82685418D01*
X80505855Y-82731708D01*
X80476280Y-82773714D01*
X80440952Y-82812568D01*
X80401157Y-82846733D01*
X80355452Y-82877221D01*
X80305754Y-82902511D01*
X80250480Y-82923171D01*
X80191849Y-82938104D01*
X80128753Y-82947391D01*
X80063140Y-82950505D01*
X80052206Y-82950420D01*
X79927554Y-82936686D01*
X79818241Y-82901510D01*
X79726447Y-82847767D01*
X79653083Y-82777597D01*
X79598722Y-82691990D01*
X79578973Y-82643402D01*
X79564454Y-82590842D01*
X79555452Y-82534054D01*
X79552379Y-82473352D01*
X79552705Y-82468858D01*
X79843614Y-82468858D01*
X79849231Y-82519500D01*
X79860674Y-82555389D01*
X79877721Y-82588129D01*
X79926686Y-82642182D01*
X79990371Y-82676600D01*
X80063140Y-82688481D01*
X80113747Y-82682864D01*
X80149616Y-82671419D01*
X80182340Y-82654369D01*
X80236374Y-82605389D01*
X80270785Y-82541676D01*
X80282665Y-82468858D01*
X80276735Y-82416757D01*
X80265040Y-82380659D01*
X80247732Y-82347661D01*
X80198495Y-82293312D01*
X80135095Y-82258849D01*
X80063140Y-82246988D01*
X80012606Y-82252716D01*
X79976845Y-82264339D01*
X79944204Y-82281615D01*
X79914985Y-82304187D01*
X79890025Y-82331349D01*
X79855494Y-82395827D01*
X79843614Y-82468858D01*
X79552705Y-82468858D01*
X79557409Y-82404056D01*
X79568919Y-82351060D01*
X79585995Y-82303604D01*
X79611936Y-82254261D01*
X79642534Y-82211673D01*
X79696788Y-82156433D01*
X79751779Y-82114901D01*
X79740213Y-82106607D01*
X79669718Y-82042240D01*
X79616958Y-81966583D01*
X79584095Y-81881058D01*
X79573662Y-81793575D01*
X79863740Y-81793575D01*
X79866295Y-81827679D01*
X79874875Y-81863027D01*
X79889031Y-81895125D01*
X79908382Y-81923636D01*
X79932384Y-81947942D01*
X79991954Y-81981932D01*
X80026243Y-81990801D01*
X80063140Y-81993854D01*
X80095687Y-81991481D01*
X80130583Y-81983127D01*
X80162268Y-81969193D01*
X80190447Y-81950011D01*
X80214482Y-81926112D01*
X80233886Y-81898023D01*
X80248271Y-81866161D01*
X80257141Y-81831273D01*
X80260195Y-81793575D01*
X80257624Y-81759472D01*
X80249032Y-81724096D01*
X80234846Y-81691820D01*
X80191795Y-81638941D01*
X80133143Y-81605071D01*
X80099473Y-81596246D01*
X80063140Y-81593198D01*
X80029838Y-81595739D01*
X79994724Y-81604414D01*
X79962742Y-81618748D01*
X79934155Y-81638406D01*
X79909741Y-81662759D01*
X79875637Y-81722807D01*
X79863740Y-81793575D01*
X79573662Y-81793575D01*
X79572602Y-81784685D01*
X79580035Y-81698474D01*
X79592525Y-81646377D01*
X79610616Y-81597777D01*
X79634647Y-81551625D01*
X79663799Y-81509441D01*
X79698847Y-81470203D01*
X79738488Y-81435502D01*
X79783610Y-81404694D01*
X79832649Y-81379023D01*
X79886091Y-81358345D01*
X79942591Y-81343342D01*
X80001836Y-81334173D01*
X80063140Y-81331077D01*
X80171310Y-81340925D01*
G37*
G36*
X81124717Y-82938000D02*
G01*
X81124717Y-81802075D01*
X80833482Y-81802075D01*
X80833482Y-82938000D01*
X81124717Y-82938000D01*
G37*
G36*
X81126964Y-81568579D02*
G01*
X81126964Y-81331077D01*
X80828988Y-81331077D01*
X80828988Y-81568579D01*
X81126964Y-81568579D01*
G37*
G36*
X82419302Y-82938000D02*
G01*
X82419302Y-82192180D01*
X82415785Y-82115619D01*
X82403672Y-82043487D01*
X82387991Y-81993394D01*
X82365519Y-81945573D01*
X82338915Y-81904689D01*
X82305482Y-81865556D01*
X82300600Y-81860595D01*
X82266736Y-81831172D01*
X82228455Y-81806282D01*
X82186003Y-81786238D01*
X82139490Y-81771276D01*
X82088674Y-81761620D01*
X82034082Y-81757699D01*
X82025094Y-81757623D01*
X81973309Y-81760750D01*
X81922318Y-81770134D01*
X81873671Y-81785483D01*
X81827291Y-81806900D01*
X81785551Y-81833200D01*
X81747247Y-81865111D01*
X81733859Y-81878572D01*
X81733859Y-81769737D01*
X81449364Y-81769737D01*
X81449364Y-82938000D01*
X81740600Y-82938000D01*
X81740600Y-82231454D01*
X81743610Y-82186428D01*
X81752175Y-82147510D01*
X81765478Y-82114615D01*
X81782884Y-82087110D01*
X81829122Y-82045895D01*
X81889524Y-82022543D01*
X81935505Y-82017888D01*
X81974059Y-82021153D01*
X82011874Y-82031507D01*
X82042731Y-82046890D01*
X82070536Y-82068791D01*
X82091656Y-82094031D01*
X82108681Y-82125174D01*
X82120298Y-82160431D01*
X82126848Y-82201635D01*
X82128066Y-82231063D01*
X82128066Y-82938000D01*
X82419302Y-82938000D01*
G37*
G36*
X84299972Y-81621433D02*
G01*
X84299972Y-81343582D01*
X83155352Y-81343582D01*
X83155352Y-81621433D01*
X83572030Y-81621433D01*
X83572030Y-82938000D01*
X83883391Y-82938000D01*
X83883391Y-81621433D01*
X84299972Y-81621433D01*
G37*
G36*
X85603349Y-81621433D02*
G01*
X85603349Y-81343582D01*
X84552812Y-81343582D01*
X84552812Y-82938000D01*
X84864075Y-82938000D01*
X84864075Y-82290463D01*
X85493538Y-82290463D01*
X85493538Y-82012612D01*
X84864075Y-82012612D01*
X84864075Y-81621433D01*
X85603349Y-81621433D01*
G37*
G36*
X86899497Y-81621433D02*
G01*
X86899497Y-81343582D01*
X85754877Y-81343582D01*
X85754877Y-81621433D01*
X86171556Y-81621433D01*
X86171556Y-82938000D01*
X86482916Y-82938000D01*
X86482916Y-81621433D01*
X86899497Y-81621433D01*
G37*
G36*
X87940069Y-82938000D02*
G01*
X87940069Y-81802075D01*
X87648834Y-81802075D01*
X87648834Y-82938000D01*
X87940069Y-82938000D01*
G37*
G36*
X87942316Y-81568579D02*
G01*
X87942316Y-81331077D01*
X87644340Y-81331077D01*
X87644340Y-81568579D01*
X87942316Y-81568579D01*
G37*
G36*
X89234654Y-82938000D02*
G01*
X89234654Y-82192180D01*
X89231137Y-82115619D01*
X89219025Y-82043487D01*
X89203343Y-81993394D01*
X89180872Y-81945573D01*
X89154267Y-81904689D01*
X89120835Y-81865556D01*
X89115952Y-81860595D01*
X89082089Y-81831172D01*
X89043807Y-81806282D01*
X89001355Y-81786238D01*
X88954843Y-81771276D01*
X88904026Y-81761620D01*
X88849434Y-81757699D01*
X88840446Y-81757623D01*
X88788661Y-81760750D01*
X88737670Y-81770134D01*
X88689024Y-81785483D01*
X88642643Y-81806900D01*
X88600904Y-81833200D01*
X88562599Y-81865111D01*
X88549211Y-81878572D01*
X88549211Y-81769737D01*
X88264717Y-81769737D01*
X88264717Y-82938000D01*
X88555952Y-82938000D01*
X88555952Y-82231454D01*
X88558962Y-82186428D01*
X88567528Y-82147510D01*
X88580831Y-82114615D01*
X88598236Y-82087110D01*
X88644474Y-82045895D01*
X88704877Y-82022543D01*
X88750858Y-82017888D01*
X88789412Y-82021153D01*
X88827227Y-82031507D01*
X88858083Y-82046890D01*
X88885888Y-82068791D01*
X88907009Y-82094031D01*
X88924034Y-82125174D01*
X88935650Y-82160431D01*
X88942200Y-82201635D01*
X88943419Y-82231063D01*
X88943419Y-82938000D01*
X89234654Y-82938000D01*
G37*
G36*
X90072212Y-82938000D02*
G01*
X90072212Y-82691607D01*
X89966992Y-82691607D01*
X89935625Y-82688521D01*
X89910327Y-82679424D01*
X89892747Y-82666445D01*
X89879714Y-82649054D01*
X89866651Y-82600167D01*
X89866168Y-82586192D01*
X89866168Y-82025117D01*
X90072212Y-82025117D01*
X90072212Y-81803443D01*
X89866168Y-81803443D01*
X89866168Y-81462382D01*
X89574933Y-81462382D01*
X89574933Y-81803443D01*
X89451737Y-81803443D01*
X89451737Y-82025117D01*
X89574933Y-82025117D01*
X89574933Y-82604168D01*
X89578097Y-82654649D01*
X89587739Y-82704186D01*
X89603014Y-82749178D01*
X89624470Y-82791464D01*
X89649959Y-82827348D01*
X89681039Y-82859433D01*
X89715208Y-82885310D01*
X89754496Y-82906677D01*
X89797105Y-82922397D01*
X89844644Y-82932923D01*
X89913161Y-82938000D01*
X90072212Y-82938000D01*
G37*
G36*
X90805632Y-81756950D02*
G01*
X90922595Y-81774241D01*
X90975246Y-81791148D01*
X91024013Y-81813266D01*
X91069334Y-81840719D01*
X91110529Y-81873039D01*
X91148421Y-81911003D01*
X91181814Y-81953588D01*
X91211550Y-82002256D01*
X91236292Y-82055320D01*
X91256577Y-82114685D01*
X91271297Y-82178160D01*
X91280548Y-82247653D01*
X91283656Y-82320847D01*
X91283656Y-82444043D01*
X90553468Y-82444043D01*
X90553601Y-82454182D01*
X90567079Y-82539955D01*
X90600157Y-82608161D01*
X90650950Y-82659110D01*
X90683220Y-82678052D01*
X90719898Y-82692085D01*
X90762120Y-82701046D01*
X90808848Y-82704113D01*
X90873846Y-82700181D01*
X90919563Y-82691054D01*
X90959724Y-82676715D01*
X91017956Y-82642169D01*
X91073119Y-82594301D01*
X91250048Y-82766834D01*
X91154083Y-82851165D01*
X91061045Y-82904816D01*
X91009024Y-82924035D01*
X90952051Y-82938072D01*
X90883486Y-82947387D01*
X90806601Y-82950505D01*
X90716184Y-82945632D01*
X90601508Y-82922150D01*
X90505561Y-82880814D01*
X90425958Y-82821896D01*
X90361221Y-82743750D01*
X90334340Y-82696329D01*
X90311479Y-82642890D01*
X90292683Y-82582044D01*
X90278731Y-82514368D01*
X90269790Y-82437234D01*
X90266727Y-82352207D01*
X90268691Y-82289086D01*
X90275212Y-82244741D01*
X90553468Y-82244741D01*
X90997013Y-82244741D01*
X90993511Y-82198681D01*
X90985521Y-82159192D01*
X90970048Y-82119200D01*
X90956390Y-82093531D01*
X90911340Y-82042507D01*
X90851204Y-82009984D01*
X90815267Y-82001281D01*
X90775240Y-81998251D01*
X90754374Y-81999046D01*
X90715738Y-82005201D01*
X90681339Y-82016928D01*
X90649567Y-82034719D01*
X90622535Y-82057334D01*
X90598672Y-82086333D01*
X90580334Y-82119200D01*
X90560197Y-82178600D01*
X90553468Y-82244741D01*
X90275212Y-82244741D01*
X90289210Y-82149557D01*
X90329539Y-82032311D01*
X90387257Y-81936138D01*
X90422166Y-81895611D01*
X90460933Y-81860073D01*
X90503742Y-81829376D01*
X90550091Y-81803924D01*
X90600821Y-81783455D01*
X90654831Y-81768627D01*
X90713523Y-81759365D01*
X90775240Y-81756255D01*
X90805632Y-81756950D01*
G37*
G36*
X92405512Y-81867337D02*
G01*
X92364372Y-81830719D01*
X92322267Y-81802304D01*
X92282206Y-81782995D01*
X92239784Y-81769469D01*
X92141648Y-81757726D01*
X92130006Y-81757623D01*
X92033008Y-81769185D01*
X91940090Y-81803378D01*
X91898127Y-81828199D01*
X91862334Y-81856296D01*
X91836524Y-81883066D01*
X91836524Y-81769737D01*
X91552030Y-81769737D01*
X91552030Y-82938000D01*
X91843265Y-82938000D01*
X91843265Y-82233701D01*
X91846275Y-82190455D01*
X91854835Y-82152269D01*
X91868431Y-82118686D01*
X91886266Y-82090097D01*
X91933893Y-82046142D01*
X91994191Y-82021753D01*
X92031430Y-82017888D01*
X92071653Y-82020974D01*
X92105489Y-82030075D01*
X92159660Y-82063071D01*
X92185987Y-82087448D01*
X92405512Y-81867337D01*
G37*
G36*
X93352979Y-82791551D02*
G01*
X93155826Y-82596548D01*
X93114830Y-82635755D01*
X93074214Y-82663510D01*
X93041293Y-82677715D01*
X93005902Y-82685906D01*
X92967662Y-82688481D01*
X92926785Y-82685334D01*
X92889633Y-82675812D01*
X92858382Y-82661215D01*
X92829960Y-82640957D01*
X92801967Y-82612277D01*
X92764076Y-82544468D01*
X92742393Y-82450940D01*
X92736999Y-82352305D01*
X92740179Y-82274840D01*
X92749937Y-82209725D01*
X92763273Y-82163899D01*
X92781556Y-82124595D01*
X92801967Y-82094580D01*
X92828947Y-82066771D01*
X92858868Y-82045360D01*
X92924108Y-82021973D01*
X92967662Y-82018376D01*
X93010067Y-82021589D01*
X93048265Y-82031574D01*
X93111178Y-82068133D01*
X93155826Y-82110309D01*
X93352979Y-81913059D01*
X93308565Y-81871306D01*
X93261676Y-81836249D01*
X93214873Y-81809199D01*
X93165232Y-81787849D01*
X93056794Y-81761843D01*
X92967662Y-81756255D01*
X92902270Y-81759557D01*
X92835642Y-81770166D01*
X92777879Y-81786176D01*
X92721461Y-81809220D01*
X92673576Y-81835995D01*
X92628304Y-81869287D01*
X92589894Y-81905758D01*
X92554825Y-81948419D01*
X92525260Y-81994752D01*
X92499645Y-82047246D01*
X92478938Y-82104609D01*
X92462861Y-82168397D01*
X92451879Y-82238626D01*
X92446355Y-82315800D01*
X92445764Y-82352305D01*
X92448815Y-82433779D01*
X92457671Y-82508023D01*
X92471677Y-82574537D01*
X92490476Y-82634558D01*
X92513646Y-82688385D01*
X92540749Y-82736269D01*
X92606447Y-82816714D01*
X92686829Y-82878230D01*
X92781859Y-82921573D01*
X92890834Y-82945859D01*
X92967662Y-82950505D01*
X93034119Y-82947365D01*
X93096065Y-82937896D01*
X93150354Y-82923211D01*
X93201343Y-82902837D01*
X93293170Y-82845969D01*
X93352979Y-82791551D01*
G37*
G36*
X94050088Y-81759144D02*
G01*
X94110841Y-81768285D01*
X94165977Y-81782960D01*
X94219282Y-81804107D01*
X94266528Y-81829899D01*
X94312460Y-81863100D01*
X94351444Y-81899674D01*
X94379049Y-81931705D01*
X94408849Y-81974755D01*
X94432777Y-82020546D01*
X94453365Y-82076200D01*
X94467971Y-82137097D01*
X94480108Y-82236755D01*
X94483628Y-82352305D01*
X94476126Y-82516429D01*
X94453403Y-82633391D01*
X94413920Y-82725700D01*
X94385790Y-82767699D01*
X94351444Y-82807183D01*
X94297732Y-82854513D01*
X94209916Y-82906122D01*
X94107307Y-82938898D01*
X94050478Y-82947491D01*
X93988597Y-82950505D01*
X93938838Y-82948571D01*
X93877691Y-82940389D01*
X93822256Y-82926547D01*
X93767575Y-82905752D01*
X93719167Y-82880171D01*
X93669734Y-82845365D01*
X93627997Y-82807183D01*
X93600356Y-82775051D01*
X93570616Y-82731877D01*
X93546724Y-82685861D01*
X93526097Y-82629708D01*
X93511470Y-82568285D01*
X93499333Y-82468082D01*
X93495812Y-82352305D01*
X93786950Y-82352305D01*
X93787433Y-82400356D01*
X93796967Y-82513184D01*
X93819038Y-82586801D01*
X93854166Y-82636897D01*
X93860156Y-82642613D01*
X93886040Y-82662015D01*
X93915484Y-82676238D01*
X93950100Y-82685387D01*
X93988597Y-82688481D01*
X94001747Y-82688165D01*
X94070431Y-82673594D01*
X94099785Y-82657908D01*
X94125275Y-82636897D01*
X94156435Y-82594760D01*
X94175465Y-82544812D01*
X94186335Y-82486780D01*
X94192393Y-82352305D01*
X94191926Y-82305529D01*
X94182439Y-82193455D01*
X94160375Y-82119998D01*
X94125275Y-82069960D01*
X94118825Y-82063827D01*
X94093082Y-82044682D01*
X94063643Y-82030620D01*
X94028358Y-82021470D01*
X93988597Y-82018376D01*
X93976648Y-82018656D01*
X93908779Y-82033263D01*
X93879627Y-82048949D01*
X93854166Y-82069960D01*
X93822305Y-82113400D01*
X93803624Y-82163075D01*
X93792933Y-82220472D01*
X93786950Y-82352305D01*
X93495812Y-82352305D01*
X93502371Y-82201266D01*
X93524532Y-82081437D01*
X93563987Y-81986086D01*
X93592748Y-81941723D01*
X93627997Y-81899674D01*
X93681795Y-81852057D01*
X93768722Y-81800539D01*
X93870273Y-81767861D01*
X93926826Y-81759269D01*
X93988597Y-81756255D01*
X94050088Y-81759144D01*
G37*
G36*
X95731123Y-82938000D02*
G01*
X95731123Y-82192180D01*
X95727606Y-82115619D01*
X95715494Y-82043487D01*
X95699812Y-81993394D01*
X95677341Y-81945573D01*
X95650736Y-81904689D01*
X95617304Y-81865556D01*
X95612421Y-81860595D01*
X95578558Y-81831172D01*
X95540276Y-81806282D01*
X95497824Y-81786238D01*
X95451312Y-81771276D01*
X95400495Y-81761620D01*
X95345903Y-81757699D01*
X95336915Y-81757623D01*
X95285130Y-81760750D01*
X95234139Y-81770134D01*
X95185493Y-81785483D01*
X95139112Y-81806900D01*
X95097373Y-81833200D01*
X95059068Y-81865111D01*
X95045680Y-81878572D01*
X95045680Y-81769737D01*
X94761186Y-81769737D01*
X94761186Y-82938000D01*
X95052421Y-82938000D01*
X95052421Y-82231454D01*
X95055431Y-82186428D01*
X95063997Y-82147510D01*
X95077300Y-82114615D01*
X95094705Y-82087110D01*
X95140943Y-82045895D01*
X95201346Y-82022543D01*
X95247327Y-82017888D01*
X95285881Y-82021153D01*
X95323695Y-82031507D01*
X95354552Y-82046890D01*
X95382357Y-82068791D01*
X95403478Y-82094031D01*
X95420503Y-82125174D01*
X95432119Y-82160431D01*
X95438669Y-82201635D01*
X95439888Y-82231063D01*
X95439888Y-82938000D01*
X95731123Y-82938000D01*
G37*
G36*
X97014473Y-82938000D02*
G01*
X97014473Y-82192180D01*
X97010956Y-82115619D01*
X96998843Y-82043487D01*
X96983162Y-81993394D01*
X96960690Y-81945573D01*
X96934086Y-81904689D01*
X96900653Y-81865556D01*
X96895771Y-81860595D01*
X96861907Y-81831172D01*
X96823626Y-81806282D01*
X96781174Y-81786238D01*
X96734661Y-81771276D01*
X96683845Y-81761620D01*
X96629253Y-81757699D01*
X96620265Y-81757623D01*
X96568480Y-81760750D01*
X96517489Y-81770134D01*
X96468842Y-81785483D01*
X96422462Y-81806900D01*
X96380722Y-81833200D01*
X96342418Y-81865111D01*
X96329030Y-81878572D01*
X96329030Y-81769737D01*
X96044535Y-81769737D01*
X96044535Y-82938000D01*
X96335771Y-82938000D01*
X96335771Y-82231454D01*
X96338781Y-82186428D01*
X96347346Y-82147510D01*
X96360649Y-82114615D01*
X96378055Y-82087110D01*
X96424293Y-82045895D01*
X96484695Y-82022543D01*
X96530676Y-82017888D01*
X96569230Y-82021153D01*
X96607045Y-82031507D01*
X96637901Y-82046890D01*
X96665707Y-82068791D01*
X96686827Y-82094031D01*
X96703852Y-82125174D01*
X96715469Y-82160431D01*
X96722019Y-82201635D01*
X96723237Y-82231063D01*
X96723237Y-82938000D01*
X97014473Y-82938000D01*
G37*
G36*
X97808563Y-81756950D02*
G01*
X97925526Y-81774241D01*
X97978177Y-81791148D01*
X98026944Y-81813266D01*
X98072265Y-81840719D01*
X98113460Y-81873039D01*
X98151352Y-81911003D01*
X98184745Y-81953588D01*
X98214481Y-82002256D01*
X98239223Y-82055320D01*
X98259508Y-82114685D01*
X98274227Y-82178160D01*
X98283479Y-82247653D01*
X98286587Y-82320847D01*
X98286587Y-82444043D01*
X97556399Y-82444043D01*
X97556532Y-82454182D01*
X97570009Y-82539955D01*
X97603088Y-82608161D01*
X97653881Y-82659110D01*
X97686151Y-82678052D01*
X97722828Y-82692085D01*
X97765051Y-82701046D01*
X97811779Y-82704113D01*
X97876777Y-82700181D01*
X97922494Y-82691054D01*
X97962655Y-82676715D01*
X98020887Y-82642169D01*
X98076050Y-82594301D01*
X98252979Y-82766834D01*
X98157014Y-82851165D01*
X98063976Y-82904816D01*
X98011955Y-82924035D01*
X97954982Y-82938072D01*
X97886417Y-82947387D01*
X97809532Y-82950505D01*
X97719115Y-82945632D01*
X97604439Y-82922150D01*
X97508492Y-82880814D01*
X97428889Y-82821896D01*
X97364152Y-82743750D01*
X97337271Y-82696329D01*
X97314410Y-82642890D01*
X97295614Y-82582044D01*
X97281661Y-82514368D01*
X97272721Y-82437234D01*
X97269658Y-82352207D01*
X97271622Y-82289086D01*
X97278143Y-82244741D01*
X97556399Y-82244741D01*
X97999944Y-82244741D01*
X97996442Y-82198681D01*
X97988452Y-82159192D01*
X97972979Y-82119200D01*
X97959321Y-82093531D01*
X97914271Y-82042507D01*
X97854135Y-82009984D01*
X97818198Y-82001281D01*
X97778171Y-81998251D01*
X97757305Y-81999046D01*
X97718669Y-82005201D01*
X97684270Y-82016928D01*
X97652498Y-82034719D01*
X97625466Y-82057334D01*
X97601603Y-82086333D01*
X97583265Y-82119200D01*
X97563128Y-82178600D01*
X97556399Y-82244741D01*
X97278143Y-82244741D01*
X97292140Y-82149557D01*
X97332470Y-82032311D01*
X97390188Y-81936138D01*
X97425097Y-81895611D01*
X97463864Y-81860073D01*
X97506673Y-81829376D01*
X97553022Y-81803924D01*
X97603752Y-81783455D01*
X97657761Y-81768627D01*
X97716454Y-81759365D01*
X97778171Y-81756255D01*
X97808563Y-81756950D01*
G37*
G36*
X99403949Y-82791551D02*
G01*
X99206796Y-82596548D01*
X99165800Y-82635755D01*
X99125184Y-82663510D01*
X99092263Y-82677715D01*
X99056872Y-82685906D01*
X99018632Y-82688481D01*
X98977755Y-82685334D01*
X98940603Y-82675812D01*
X98909352Y-82661215D01*
X98880930Y-82640957D01*
X98852937Y-82612277D01*
X98815046Y-82544468D01*
X98793363Y-82450940D01*
X98787969Y-82352305D01*
X98791149Y-82274840D01*
X98800907Y-82209725D01*
X98814243Y-82163899D01*
X98832526Y-82124595D01*
X98852937Y-82094580D01*
X98879917Y-82066771D01*
X98909838Y-82045360D01*
X98975078Y-82021973D01*
X99018632Y-82018376D01*
X99061037Y-82021589D01*
X99099235Y-82031574D01*
X99162148Y-82068133D01*
X99206796Y-82110309D01*
X99403949Y-81913059D01*
X99359535Y-81871306D01*
X99312646Y-81836249D01*
X99265843Y-81809199D01*
X99216202Y-81787849D01*
X99107764Y-81761843D01*
X99018632Y-81756255D01*
X98953240Y-81759557D01*
X98886612Y-81770166D01*
X98828849Y-81786176D01*
X98772431Y-81809220D01*
X98724546Y-81835995D01*
X98679274Y-81869287D01*
X98640864Y-81905758D01*
X98605795Y-81948419D01*
X98576230Y-81994752D01*
X98550615Y-82047246D01*
X98529908Y-82104609D01*
X98513831Y-82168397D01*
X98502849Y-82238626D01*
X98497325Y-82315800D01*
X98496734Y-82352305D01*
X98499785Y-82433779D01*
X98508641Y-82508023D01*
X98522647Y-82574537D01*
X98541446Y-82634558D01*
X98564616Y-82688385D01*
X98591719Y-82736269D01*
X98657417Y-82816714D01*
X98737799Y-82878230D01*
X98832829Y-82921573D01*
X98941804Y-82945859D01*
X99018632Y-82950505D01*
X99085089Y-82947365D01*
X99147035Y-82937896D01*
X99201324Y-82923211D01*
X99252313Y-82902837D01*
X99344140Y-82845969D01*
X99403949Y-82791551D01*
G37*
G36*
X100152993Y-82938000D02*
G01*
X100152993Y-82691607D01*
X100047773Y-82691607D01*
X100016406Y-82688521D01*
X99991108Y-82679424D01*
X99973529Y-82666445D01*
X99960495Y-82649054D01*
X99947433Y-82600167D01*
X99946950Y-82586192D01*
X99946950Y-82025117D01*
X100152993Y-82025117D01*
X100152993Y-81803443D01*
X99946950Y-81803443D01*
X99946950Y-81462382D01*
X99655715Y-81462382D01*
X99655715Y-81803443D01*
X99532519Y-81803443D01*
X99532519Y-82025117D01*
X99655715Y-82025117D01*
X99655715Y-82604168D01*
X99658879Y-82654649D01*
X99668521Y-82704186D01*
X99683796Y-82749178D01*
X99705252Y-82791464D01*
X99730740Y-82827348D01*
X99761821Y-82859433D01*
X99795989Y-82885310D01*
X99835277Y-82906677D01*
X99877886Y-82922397D01*
X99925425Y-82932923D01*
X99993942Y-82938000D01*
X100152993Y-82938000D01*
G37*
G36*
X101588711Y-81343688D02*
G01*
X101653669Y-81347881D01*
X101714713Y-81357939D01*
X101772126Y-81373649D01*
X101825345Y-81394611D01*
X101874864Y-81420842D01*
X101919849Y-81451742D01*
X101960828Y-81487580D01*
X101996872Y-81527489D01*
X102028350Y-81571870D01*
X102054465Y-81619666D01*
X102075325Y-81671165D01*
X102090412Y-81725338D01*
X102099632Y-81782121D01*
X102102735Y-81840763D01*
X102102393Y-81860350D01*
X102086256Y-81973603D01*
X102047434Y-82075993D01*
X101988094Y-82164529D01*
X101910173Y-82236940D01*
X101864820Y-82266436D01*
X101815078Y-82291319D01*
X101761421Y-82311128D01*
X101703652Y-82325697D01*
X101641940Y-82334679D01*
X101576343Y-82337748D01*
X101269378Y-82337748D01*
X101269378Y-82938000D01*
X100958115Y-82938000D01*
X100958115Y-82057846D01*
X101269378Y-82057846D01*
X101560614Y-82057846D01*
X101622249Y-82051750D01*
X101692684Y-82025152D01*
X101721320Y-82004816D01*
X101745424Y-81980154D01*
X101764917Y-81951147D01*
X101779250Y-81918351D01*
X101788296Y-81881206D01*
X101791374Y-81840763D01*
X101785112Y-81783711D01*
X101757671Y-81717503D01*
X101736391Y-81690003D01*
X101710408Y-81666652D01*
X101679561Y-81647573D01*
X101644428Y-81633444D01*
X101604466Y-81624497D01*
X101560614Y-81621433D01*
X101269378Y-81621433D01*
X101269378Y-82057846D01*
X100958115Y-82057846D01*
X100958115Y-81343582D01*
X101576343Y-81343582D01*
X101588711Y-81343688D01*
G37*
G36*
X103483293Y-82447071D02*
G01*
X103167536Y-82447071D01*
X103152103Y-82497226D01*
X103130823Y-82542860D01*
X103106924Y-82578698D01*
X103078034Y-82609680D01*
X103047224Y-82633141D01*
X103011961Y-82651592D01*
X102973930Y-82664119D01*
X102931557Y-82671224D01*
X102898674Y-82672752D01*
X102853684Y-82669693D01*
X102812153Y-82660789D01*
X102774513Y-82646493D01*
X102740970Y-82627193D01*
X102699371Y-82590100D01*
X102672883Y-82553891D01*
X102652460Y-82509413D01*
X102631275Y-82406859D01*
X102621329Y-82210468D01*
X102620921Y-82140889D01*
X102624255Y-81966233D01*
X102635090Y-81846327D01*
X102646801Y-81790415D01*
X102662586Y-81747224D01*
X102699371Y-81691579D01*
X102726022Y-81665737D01*
X102757201Y-81644241D01*
X102792723Y-81627433D01*
X102832155Y-81615800D01*
X102898674Y-81608928D01*
X102944597Y-81611983D01*
X102985878Y-81620868D01*
X103022119Y-81634886D01*
X103054187Y-81653731D01*
X103107631Y-81705869D01*
X103147822Y-81778894D01*
X103165289Y-81834608D01*
X103483293Y-81834608D01*
X103467866Y-81764260D01*
X103447237Y-81699136D01*
X103422132Y-81640265D01*
X103392456Y-81586467D01*
X103358797Y-81538229D01*
X103321093Y-81494994D01*
X103234351Y-81423554D01*
X103132615Y-81371807D01*
X103015838Y-81340458D01*
X102898674Y-81331077D01*
X102828886Y-81334172D01*
X102763849Y-81343335D01*
X102704854Y-81357886D01*
X102649731Y-81377827D01*
X102549472Y-81433487D01*
X102470858Y-81499116D01*
X102431076Y-81543256D01*
X102398439Y-81588871D01*
X102352434Y-81684557D01*
X102324717Y-81798805D01*
X102311588Y-81955634D01*
X102309560Y-82140889D01*
X102312396Y-82347020D01*
X102318658Y-82435573D01*
X102330565Y-82516094D01*
X102349927Y-82589820D01*
X102378555Y-82657984D01*
X102418262Y-82721821D01*
X102470858Y-82782563D01*
X102519560Y-82825782D01*
X102571732Y-82862986D01*
X102623234Y-82891733D01*
X102678384Y-82914990D01*
X102735500Y-82932085D01*
X102796648Y-82943704D01*
X102898674Y-82950505D01*
X102966850Y-82947382D01*
X103032328Y-82938027D01*
X103092852Y-82923053D01*
X103150278Y-82902277D01*
X103202759Y-82876595D01*
X103251804Y-82845487D01*
X103296172Y-82809860D01*
X103336775Y-82769083D01*
X103372965Y-82723747D01*
X103405017Y-82673415D01*
X103432694Y-82618114D01*
X103455776Y-82557849D01*
X103483293Y-82447071D01*
G37*
G36*
X104504156Y-81351860D02*
G01*
X104616983Y-81381113D01*
X104709572Y-81428896D01*
X104783075Y-81493721D01*
X104812923Y-81532593D01*
X104837765Y-81575375D01*
X104857893Y-81623054D01*
X104872531Y-81674474D01*
X104881753Y-81731298D01*
X104884856Y-81791719D01*
X104884779Y-81799614D01*
X104880241Y-81851775D01*
X104869426Y-81899826D01*
X104850915Y-81949047D01*
X104827112Y-81992790D01*
X104795148Y-82036065D01*
X104760290Y-82071779D01*
X104723149Y-82100802D01*
X104687704Y-82121154D01*
X104746411Y-82154459D01*
X104813241Y-82212573D01*
X104863496Y-82285035D01*
X104895658Y-82372987D01*
X104904220Y-82423399D01*
X104907229Y-82479214D01*
X104899619Y-82574721D01*
X104887598Y-82628420D01*
X104870290Y-82678009D01*
X104847812Y-82723667D01*
X104820497Y-82765071D01*
X104787829Y-82802954D01*
X104750640Y-82836278D01*
X104707618Y-82865949D01*
X104660335Y-82890602D01*
X104606851Y-82910892D01*
X104549412Y-82925597D01*
X104485932Y-82934886D01*
X104418939Y-82938000D01*
X103751472Y-82938000D01*
X103751472Y-82660247D01*
X104062735Y-82660247D01*
X104387578Y-82660247D01*
X104422871Y-82658247D01*
X104461233Y-82650721D01*
X104494688Y-82638087D01*
X104524043Y-82620295D01*
X104548305Y-82598197D01*
X104568614Y-82570534D01*
X104583260Y-82539293D01*
X104592729Y-82502683D01*
X104595868Y-82463582D01*
X104592609Y-82423825D01*
X104570564Y-82360556D01*
X104529684Y-82312475D01*
X104502085Y-82294383D01*
X104469571Y-82280774D01*
X104431195Y-82272008D01*
X104387578Y-82268969D01*
X104062735Y-82268969D01*
X104062735Y-82660247D01*
X103751472Y-82660247D01*
X103751472Y-81989067D01*
X104062735Y-81989067D01*
X104367452Y-81989067D01*
X104401895Y-81987274D01*
X104474531Y-81968195D01*
X104503346Y-81951740D01*
X104527398Y-81931044D01*
X104546924Y-81905835D01*
X104561202Y-81876853D01*
X104570396Y-81842731D01*
X104573496Y-81805201D01*
X104571706Y-81776419D01*
X104552154Y-81713626D01*
X104534736Y-81687667D01*
X104512368Y-81665538D01*
X104484397Y-81647134D01*
X104451487Y-81633428D01*
X104412006Y-81624495D01*
X104367452Y-81621433D01*
X104062735Y-81621433D01*
X104062735Y-81989067D01*
X103751472Y-81989067D01*
X103751472Y-81343582D01*
X104392072Y-81343582D01*
X104504156Y-81351860D01*
G37*
G36*
X78616929Y-84555337D02*
G01*
X78575788Y-84518719D01*
X78533683Y-84490304D01*
X78493623Y-84470995D01*
X78451201Y-84457469D01*
X78353065Y-84445726D01*
X78341423Y-84445623D01*
X78244425Y-84457185D01*
X78151506Y-84491378D01*
X78109543Y-84516199D01*
X78073750Y-84544296D01*
X78047941Y-84571066D01*
X78047941Y-84457737D01*
X77763447Y-84457737D01*
X77763447Y-85626000D01*
X78054682Y-85626000D01*
X78054682Y-84921701D01*
X78057691Y-84878455D01*
X78066252Y-84840269D01*
X78079848Y-84806686D01*
X78097682Y-84778097D01*
X78145309Y-84734142D01*
X78205608Y-84709753D01*
X78242847Y-84705888D01*
X78283069Y-84708974D01*
X78316905Y-84718075D01*
X78371077Y-84751071D01*
X78397404Y-84775448D01*
X78616929Y-84555337D01*
G37*
G36*
X79196085Y-84444950D02*
G01*
X79313049Y-84462241D01*
X79365700Y-84479148D01*
X79414467Y-84501266D01*
X79459787Y-84528719D01*
X79500983Y-84561039D01*
X79538875Y-84599003D01*
X79572268Y-84641588D01*
X79602004Y-84690256D01*
X79626745Y-84743320D01*
X79647030Y-84802685D01*
X79661750Y-84866160D01*
X79671002Y-84935653D01*
X79674110Y-85008847D01*
X79674110Y-85132043D01*
X78943921Y-85132043D01*
X78944055Y-85142182D01*
X78957532Y-85227955D01*
X78990610Y-85296161D01*
X79041403Y-85347110D01*
X79073673Y-85366052D01*
X79110351Y-85380085D01*
X79152573Y-85389046D01*
X79199302Y-85392113D01*
X79264300Y-85388181D01*
X79310016Y-85379054D01*
X79350177Y-85364715D01*
X79408409Y-85330169D01*
X79463572Y-85282301D01*
X79640502Y-85454834D01*
X79544536Y-85539165D01*
X79451499Y-85592816D01*
X79399478Y-85612035D01*
X79342505Y-85626072D01*
X79273939Y-85635387D01*
X79197055Y-85638505D01*
X79106637Y-85633632D01*
X78991962Y-85610150D01*
X78896015Y-85568814D01*
X78816411Y-85509896D01*
X78751674Y-85431750D01*
X78724794Y-85384329D01*
X78701933Y-85330890D01*
X78683136Y-85270044D01*
X78669184Y-85202368D01*
X78660244Y-85125234D01*
X78657180Y-85040207D01*
X78659144Y-84977086D01*
X78665665Y-84932741D01*
X78943921Y-84932741D01*
X79387466Y-84932741D01*
X79383964Y-84886681D01*
X79375975Y-84847192D01*
X79360502Y-84807200D01*
X79346844Y-84781531D01*
X79301793Y-84730507D01*
X79241658Y-84697984D01*
X79205721Y-84689281D01*
X79165694Y-84686251D01*
X79144827Y-84687046D01*
X79106191Y-84693201D01*
X79071793Y-84704928D01*
X79040020Y-84722719D01*
X79012989Y-84745334D01*
X78989125Y-84774333D01*
X78970788Y-84807200D01*
X78950650Y-84866600D01*
X78943921Y-84932741D01*
X78665665Y-84932741D01*
X78679663Y-84837557D01*
X78719993Y-84720311D01*
X78777711Y-84624138D01*
X78812619Y-84583611D01*
X78851387Y-84548073D01*
X78894196Y-84517376D01*
X78940545Y-84491924D01*
X78991275Y-84471455D01*
X79045284Y-84456627D01*
X79103977Y-84447365D01*
X79165694Y-84444255D01*
X79196085Y-84444950D01*
G37*
G36*
X80852435Y-84456760D02*
G01*
X80545568Y-84456760D01*
X80310411Y-85179426D01*
X80072909Y-84456760D01*
X79766043Y-84456760D01*
X80196106Y-85626000D01*
X80424619Y-85626000D01*
X80852435Y-84456760D01*
G37*
G36*
X81234235Y-85626000D02*
G01*
X81234235Y-85294611D01*
X80900502Y-85294611D01*
X80900502Y-85626000D01*
X81234235Y-85626000D01*
G37*
G36*
X82627866Y-84030418D02*
G01*
X82733661Y-84064264D01*
X82824166Y-84117811D01*
X82897283Y-84188581D01*
X82951679Y-84275024D01*
X82971405Y-84323832D01*
X82985934Y-84376600D01*
X82994895Y-84433144D01*
X82997962Y-84493494D01*
X82997962Y-85164087D01*
X82989567Y-85262513D01*
X82976701Y-85317111D01*
X82958416Y-85367690D01*
X82934496Y-85415191D01*
X82905693Y-85458337D01*
X82871276Y-85498209D01*
X82832520Y-85533280D01*
X82788365Y-85564395D01*
X82740521Y-85590199D01*
X82688081Y-85611065D01*
X82632783Y-85626138D01*
X82574402Y-85635396D01*
X82514166Y-85638505D01*
X82399047Y-85626913D01*
X82292946Y-85592802D01*
X82202168Y-85539034D01*
X82128881Y-85468160D01*
X82074414Y-85381788D01*
X82054681Y-85333105D01*
X82040146Y-85280491D01*
X82031188Y-85224176D01*
X82028122Y-85164087D01*
X82028122Y-84497988D01*
X82319260Y-84497988D01*
X82319260Y-85161840D01*
X82322326Y-85206051D01*
X82344185Y-85277648D01*
X82384244Y-85330492D01*
X82410768Y-85349988D01*
X82441047Y-85364292D01*
X82475952Y-85373394D01*
X82514166Y-85376481D01*
X82549771Y-85373804D01*
X82613323Y-85352121D01*
X82639763Y-85333485D01*
X82662226Y-85309938D01*
X82680915Y-85280757D01*
X82694779Y-85246812D01*
X82703756Y-85206656D01*
X82706824Y-85161840D01*
X82706824Y-84497988D01*
X82703638Y-84452274D01*
X82681716Y-84380060D01*
X82642022Y-84327069D01*
X82615937Y-84307634D01*
X82586127Y-84293351D01*
X82551821Y-84284281D01*
X82514166Y-84281198D01*
X82476877Y-84284206D01*
X82413252Y-84306783D01*
X82386629Y-84325960D01*
X82363976Y-84350057D01*
X82345203Y-84379610D01*
X82331270Y-84413817D01*
X82322324Y-84453708D01*
X82319260Y-84497988D01*
X82028122Y-84497988D01*
X82028122Y-84493494D01*
X82036635Y-84394867D01*
X82049595Y-84340431D01*
X82067984Y-84289989D01*
X82092057Y-84242535D01*
X82121027Y-84199424D01*
X82155670Y-84159525D01*
X82194662Y-84124427D01*
X82239093Y-84093265D01*
X82287205Y-84067423D01*
X82339891Y-84046531D01*
X82395400Y-84031443D01*
X82453888Y-84022186D01*
X82514166Y-84019077D01*
X82627866Y-84030418D01*
G37*
G36*
X84223084Y-85626000D02*
G01*
X84223084Y-85363976D01*
X83607103Y-85363976D01*
X84052798Y-84847158D01*
X84151012Y-84722460D01*
X84185031Y-84663017D01*
X84208483Y-84600222D01*
X84218487Y-84551606D01*
X84222878Y-84497922D01*
X84223084Y-84482552D01*
X84220003Y-84422497D01*
X84210939Y-84365985D01*
X84196325Y-84313639D01*
X84176366Y-84265067D01*
X84151388Y-84220510D01*
X84121612Y-84180000D01*
X84048165Y-84111307D01*
X83956993Y-84060182D01*
X83849037Y-84028622D01*
X83739288Y-84019077D01*
X83677118Y-84022176D01*
X83617537Y-84031366D01*
X83561682Y-84046250D01*
X83509161Y-84066752D01*
X83461362Y-84092116D01*
X83417526Y-84122570D01*
X83378941Y-84157045D01*
X83344840Y-84196088D01*
X83316160Y-84238567D01*
X83292435Y-84285161D01*
X83274222Y-84334988D01*
X83261457Y-84388566D01*
X83253147Y-84484799D01*
X83544382Y-84484799D01*
X83547399Y-84440459D01*
X83556010Y-84402422D01*
X83569244Y-84370912D01*
X83586599Y-84344763D01*
X83632744Y-84306304D01*
X83694325Y-84285023D01*
X83739288Y-84281198D01*
X83779225Y-84284262D01*
X83814843Y-84293204D01*
X83845085Y-84307109D01*
X83871026Y-84325832D01*
X83909424Y-84376214D01*
X83929561Y-84444167D01*
X83931849Y-84480305D01*
X83928644Y-84523145D01*
X83918717Y-84562055D01*
X83881034Y-84631636D01*
X83849002Y-84672671D01*
X83253147Y-85363976D01*
X83253147Y-85626000D01*
X84223084Y-85626000D01*
G37*
G36*
X84996437Y-84451490D02*
G01*
X85118003Y-84476130D01*
X85212047Y-84517014D01*
X85283880Y-84573022D01*
X85312743Y-84607288D01*
X85336686Y-84645599D01*
X85356420Y-84689912D01*
X85370759Y-84738616D01*
X85380114Y-84795655D01*
X85383237Y-84857709D01*
X85383237Y-85626000D01*
X85098743Y-85627367D01*
X85098743Y-85524981D01*
X85089426Y-85534127D01*
X85016337Y-85590869D01*
X84977241Y-85610244D01*
X84934342Y-85624230D01*
X84877740Y-85634046D01*
X84812002Y-85637235D01*
X84785742Y-85636748D01*
X84673936Y-85621486D01*
X84584891Y-85587046D01*
X84547274Y-85562868D01*
X84514124Y-85534164D01*
X84465331Y-85467853D01*
X84444921Y-85424086D01*
X84430103Y-85376811D01*
X84420896Y-85325643D01*
X84417794Y-85272140D01*
X84417857Y-85266767D01*
X84697794Y-85266767D01*
X84705488Y-85314220D01*
X84716976Y-85337355D01*
X84733744Y-85357198D01*
X84757360Y-85374350D01*
X84787122Y-85387251D01*
X84827063Y-85396182D01*
X84874724Y-85399244D01*
X84920752Y-85397522D01*
X84988543Y-85382511D01*
X85018519Y-85367026D01*
X85047257Y-85344632D01*
X85076902Y-85302432D01*
X85088552Y-85255980D01*
X85092002Y-85195351D01*
X85092002Y-85132043D01*
X84870230Y-85132043D01*
X84797108Y-85140017D01*
X84743353Y-85164261D01*
X84724285Y-85182332D01*
X84710391Y-85204259D01*
X84700932Y-85233208D01*
X84697794Y-85266767D01*
X84417857Y-85266767D01*
X84417905Y-85262702D01*
X84431526Y-85171433D01*
X84466349Y-85093142D01*
X84521362Y-85028538D01*
X84556669Y-85001619D01*
X84597318Y-84978677D01*
X84644006Y-84959863D01*
X84696303Y-84945881D01*
X84755647Y-84936972D01*
X84820990Y-84933913D01*
X85092002Y-84933913D01*
X85092002Y-84875685D01*
X85090665Y-84845096D01*
X85074791Y-84780802D01*
X85060280Y-84756201D01*
X85041061Y-84735744D01*
X85014278Y-84717917D01*
X84981326Y-84704840D01*
X84932932Y-84695181D01*
X84874724Y-84692015D01*
X84803313Y-84697837D01*
X84765391Y-84707920D01*
X84731495Y-84723358D01*
X84690389Y-84752661D01*
X84650704Y-84792741D01*
X84467034Y-84611317D01*
X84531465Y-84549422D01*
X84617077Y-84494139D01*
X84667008Y-84473972D01*
X84721268Y-84459626D01*
X84798119Y-84448936D01*
X84885959Y-84445623D01*
X84996437Y-84451490D01*
G37*
G36*
X87153998Y-85626000D02*
G01*
X87153998Y-85363976D01*
X86538018Y-85363976D01*
X86983712Y-84847158D01*
X87081926Y-84722460D01*
X87115945Y-84663017D01*
X87139398Y-84600222D01*
X87149402Y-84551606D01*
X87153792Y-84497922D01*
X87153998Y-84482552D01*
X87150917Y-84422497D01*
X87141853Y-84365985D01*
X87127239Y-84313639D01*
X87107280Y-84265067D01*
X87082302Y-84220510D01*
X87052526Y-84180000D01*
X86979079Y-84111307D01*
X86887907Y-84060182D01*
X86779951Y-84028622D01*
X86670202Y-84019077D01*
X86608033Y-84022176D01*
X86548451Y-84031366D01*
X86492596Y-84046250D01*
X86440075Y-84066752D01*
X86392277Y-84092116D01*
X86348440Y-84122570D01*
X86309855Y-84157045D01*
X86275754Y-84196088D01*
X86247074Y-84238567D01*
X86223349Y-84285161D01*
X86205136Y-84334988D01*
X86192371Y-84388566D01*
X86184061Y-84484799D01*
X86475296Y-84484799D01*
X86478313Y-84440459D01*
X86486925Y-84402422D01*
X86500158Y-84370912D01*
X86517513Y-84344763D01*
X86563658Y-84306304D01*
X86625240Y-84285023D01*
X86670202Y-84281198D01*
X86710139Y-84284262D01*
X86745757Y-84293204D01*
X86775999Y-84307109D01*
X86801940Y-84325832D01*
X86840338Y-84376214D01*
X86860475Y-84444167D01*
X86862763Y-84480305D01*
X86859558Y-84523145D01*
X86849632Y-84562055D01*
X86811948Y-84631636D01*
X86779916Y-84672671D01*
X86184061Y-85363976D01*
X86184061Y-85626000D01*
X87153998Y-85626000D01*
G37*
G36*
X87991049Y-84030418D02*
G01*
X88096843Y-84064264D01*
X88187348Y-84117811D01*
X88260465Y-84188581D01*
X88314861Y-84275024D01*
X88334587Y-84323832D01*
X88349117Y-84376600D01*
X88358077Y-84433144D01*
X88361144Y-84493494D01*
X88361144Y-85164087D01*
X88352749Y-85262513D01*
X88339883Y-85317111D01*
X88321599Y-85367690D01*
X88297678Y-85415191D01*
X88268875Y-85458337D01*
X88234458Y-85498209D01*
X88195702Y-85533280D01*
X88151547Y-85564395D01*
X88103703Y-85590199D01*
X88051263Y-85611065D01*
X87995966Y-85626138D01*
X87937584Y-85635396D01*
X87877348Y-85638505D01*
X87762229Y-85626913D01*
X87656128Y-85592802D01*
X87565350Y-85539034D01*
X87492063Y-85468160D01*
X87437596Y-85381788D01*
X87417864Y-85333105D01*
X87403328Y-85280491D01*
X87394371Y-85224176D01*
X87391304Y-85164087D01*
X87391304Y-84497988D01*
X87682442Y-84497988D01*
X87682442Y-85161840D01*
X87685508Y-85206051D01*
X87707367Y-85277648D01*
X87747426Y-85330492D01*
X87773950Y-85349988D01*
X87804229Y-85364292D01*
X87839134Y-85373394D01*
X87877348Y-85376481D01*
X87912953Y-85373804D01*
X87976505Y-85352121D01*
X88002945Y-85333485D01*
X88025408Y-85309938D01*
X88044098Y-85280757D01*
X88057961Y-85246812D01*
X88066938Y-85206656D01*
X88070006Y-85161840D01*
X88070006Y-84497988D01*
X88066820Y-84452274D01*
X88044898Y-84380060D01*
X88005205Y-84327069D01*
X87979119Y-84307634D01*
X87949309Y-84293351D01*
X87915003Y-84284281D01*
X87877348Y-84281198D01*
X87840059Y-84284206D01*
X87776434Y-84306783D01*
X87749811Y-84325960D01*
X87727158Y-84350057D01*
X87708385Y-84379610D01*
X87694452Y-84413817D01*
X87685506Y-84453708D01*
X87682442Y-84497988D01*
X87391304Y-84497988D01*
X87391304Y-84493494D01*
X87399817Y-84394867D01*
X87412777Y-84340431D01*
X87431167Y-84289989D01*
X87455239Y-84242535D01*
X87484209Y-84199424D01*
X87518852Y-84159525D01*
X87557844Y-84124427D01*
X87602275Y-84093265D01*
X87650387Y-84067423D01*
X87703073Y-84046531D01*
X87758582Y-84031443D01*
X87817070Y-84022186D01*
X87877348Y-84019077D01*
X87991049Y-84030418D01*
G37*
G36*
X89586266Y-85626000D02*
G01*
X89586266Y-85363976D01*
X88970286Y-85363976D01*
X89415980Y-84847158D01*
X89514194Y-84722460D01*
X89548213Y-84663017D01*
X89571666Y-84600222D01*
X89581670Y-84551606D01*
X89586060Y-84497922D01*
X89586266Y-84482552D01*
X89583185Y-84422497D01*
X89574121Y-84365985D01*
X89559507Y-84313639D01*
X89539548Y-84265067D01*
X89514570Y-84220510D01*
X89484794Y-84180000D01*
X89411347Y-84111307D01*
X89320175Y-84060182D01*
X89212219Y-84028622D01*
X89102470Y-84019077D01*
X89040301Y-84022176D01*
X88980719Y-84031366D01*
X88924864Y-84046250D01*
X88872343Y-84066752D01*
X88824545Y-84092116D01*
X88780708Y-84122570D01*
X88742123Y-84157045D01*
X88708022Y-84196088D01*
X88679342Y-84238567D01*
X88655617Y-84285161D01*
X88637404Y-84334988D01*
X88624639Y-84388566D01*
X88616329Y-84484799D01*
X88907564Y-84484799D01*
X88910581Y-84440459D01*
X88919193Y-84402422D01*
X88932426Y-84370912D01*
X88949781Y-84344763D01*
X88995926Y-84306304D01*
X89057508Y-84285023D01*
X89102470Y-84281198D01*
X89142407Y-84284262D01*
X89178025Y-84293204D01*
X89208267Y-84307109D01*
X89234208Y-84325832D01*
X89272606Y-84376214D01*
X89292743Y-84444167D01*
X89295031Y-84480305D01*
X89291826Y-84523145D01*
X89281899Y-84562055D01*
X89244216Y-84631636D01*
X89212184Y-84672671D01*
X88616329Y-85363976D01*
X88616329Y-85626000D01*
X89586266Y-85626000D01*
G37*
G36*
X90806894Y-85087493D02*
G01*
X90802519Y-84979389D01*
X90784396Y-84873373D01*
X90766332Y-84817910D01*
X90740951Y-84763966D01*
X90712109Y-84718659D01*
X90676122Y-84674944D01*
X90663475Y-84661826D01*
X90629836Y-84632624D01*
X90590857Y-84607300D01*
X90547048Y-84586500D01*
X90498206Y-84570467D01*
X90444747Y-84559720D01*
X90386524Y-84554624D01*
X90365596Y-84554262D01*
X90268458Y-84565427D01*
X90180789Y-84597281D01*
X90125945Y-84634960D01*
X90125945Y-84293704D01*
X90771039Y-84293704D01*
X90771039Y-84031582D01*
X89861577Y-84031582D01*
X89861577Y-84930689D01*
X90128192Y-84930689D01*
X90142945Y-84895947D01*
X90165730Y-84863001D01*
X90190364Y-84839876D01*
X90221412Y-84820941D01*
X90254642Y-84808785D01*
X90293747Y-84801884D01*
X90320753Y-84800654D01*
X90360720Y-84803758D01*
X90395589Y-84812977D01*
X90423455Y-84826815D01*
X90447304Y-84845652D01*
X90483746Y-84898187D01*
X90507336Y-84977224D01*
X90515659Y-85087493D01*
X90511694Y-85175091D01*
X90496443Y-85250805D01*
X90481199Y-85286687D01*
X90460025Y-85317410D01*
X90452937Y-85324995D01*
X90427994Y-85345521D01*
X90400024Y-85360633D01*
X90333296Y-85375834D01*
X90314110Y-85376481D01*
X90273064Y-85373386D01*
X90237269Y-85364228D01*
X90208541Y-85350454D01*
X90183994Y-85331763D01*
X90146703Y-85280086D01*
X90122883Y-85203569D01*
X90119204Y-85179328D01*
X89827969Y-85179328D01*
X89840015Y-85276613D01*
X89866569Y-85371575D01*
X89888980Y-85419501D01*
X89918781Y-85465806D01*
X89957906Y-85510912D01*
X89993494Y-85541886D01*
X90036211Y-85570265D01*
X90084395Y-85594381D01*
X90139038Y-85614150D01*
X90197056Y-85628098D01*
X90260716Y-85636429D01*
X90314110Y-85638505D01*
X90377871Y-85635486D01*
X90436239Y-85626858D01*
X90539912Y-85594202D01*
X90625924Y-85543449D01*
X90665722Y-85508665D01*
X90704084Y-85465922D01*
X90735096Y-85421923D01*
X90777183Y-85330571D01*
X90800120Y-85222299D01*
X90806894Y-85087493D01*
G37*
G36*
X91738534Y-85121785D02*
G01*
X91738534Y-84850675D01*
X91048597Y-84850675D01*
X91048597Y-85121785D01*
X91738534Y-85121785D01*
G37*
G36*
X92592975Y-84030418D02*
G01*
X92698769Y-84064264D01*
X92789274Y-84117811D01*
X92862391Y-84188581D01*
X92916787Y-84275024D01*
X92936513Y-84323832D01*
X92951043Y-84376600D01*
X92960003Y-84433144D01*
X92963070Y-84493494D01*
X92963070Y-85164087D01*
X92954676Y-85262513D01*
X92941810Y-85317111D01*
X92923525Y-85367690D01*
X92899604Y-85415191D01*
X92870801Y-85458337D01*
X92836384Y-85498209D01*
X92797628Y-85533280D01*
X92753473Y-85564395D01*
X92705629Y-85590199D01*
X92653189Y-85611065D01*
X92597892Y-85626138D01*
X92539510Y-85635396D01*
X92479274Y-85638505D01*
X92364155Y-85626913D01*
X92258054Y-85592802D01*
X92167276Y-85539034D01*
X92093989Y-85468160D01*
X92039522Y-85381788D01*
X92019790Y-85333105D01*
X92005254Y-85280491D01*
X91996297Y-85224176D01*
X91993230Y-85164087D01*
X91993230Y-84497988D01*
X92284368Y-84497988D01*
X92284368Y-85161840D01*
X92287434Y-85206051D01*
X92309293Y-85277648D01*
X92349352Y-85330492D01*
X92375876Y-85349988D01*
X92406155Y-85364292D01*
X92441060Y-85373394D01*
X92479274Y-85376481D01*
X92514879Y-85373804D01*
X92578431Y-85352121D01*
X92604871Y-85333485D01*
X92627334Y-85309938D01*
X92646024Y-85280757D01*
X92659887Y-85246812D01*
X92668864Y-85206656D01*
X92671933Y-85161840D01*
X92671933Y-84497988D01*
X92668746Y-84452274D01*
X92646824Y-84380060D01*
X92607131Y-84327069D01*
X92581045Y-84307634D01*
X92551235Y-84293351D01*
X92516929Y-84284281D01*
X92479274Y-84281198D01*
X92441985Y-84284206D01*
X92378360Y-84306783D01*
X92351738Y-84325960D01*
X92329084Y-84350057D01*
X92310311Y-84379610D01*
X92296378Y-84413817D01*
X92287432Y-84453708D01*
X92284368Y-84497988D01*
X91993230Y-84497988D01*
X91993230Y-84493494D01*
X92001743Y-84394867D01*
X92014703Y-84340431D01*
X92033093Y-84289989D01*
X92057165Y-84242535D01*
X92086135Y-84199424D01*
X92120778Y-84159525D01*
X92159770Y-84124427D01*
X92204201Y-84093265D01*
X92252313Y-84067423D01*
X92304999Y-84046531D01*
X92360508Y-84031443D01*
X92418996Y-84022186D01*
X92479274Y-84019077D01*
X92592975Y-84030418D01*
G37*
G36*
X94233035Y-85400905D02*
G01*
X94233035Y-85125399D01*
X94087369Y-85125399D01*
X94087369Y-84827325D01*
X93807369Y-84827325D01*
X93807369Y-85125399D01*
X93473635Y-85125399D01*
X94020153Y-84031582D01*
X93702149Y-84031582D01*
X93155533Y-85125399D01*
X93155533Y-85400905D01*
X93807369Y-85400905D01*
X93807369Y-85626000D01*
X94087369Y-85626000D01*
X94087369Y-85400905D01*
X94233035Y-85400905D01*
G37*
G36*
X95124326Y-85121785D02*
G01*
X95124326Y-84850675D01*
X94434389Y-84850675D01*
X94434389Y-85121785D01*
X95124326Y-85121785D01*
G37*
G36*
X96357850Y-85626000D02*
G01*
X96357850Y-85363976D01*
X95741870Y-85363976D01*
X96187564Y-84847158D01*
X96285778Y-84722460D01*
X96319797Y-84663017D01*
X96343250Y-84600222D01*
X96353254Y-84551606D01*
X96357644Y-84497922D01*
X96357850Y-84482552D01*
X96354769Y-84422497D01*
X96345705Y-84365985D01*
X96331091Y-84313639D01*
X96311132Y-84265067D01*
X96286154Y-84220510D01*
X96256378Y-84180000D01*
X96182931Y-84111307D01*
X96091759Y-84060182D01*
X95983803Y-84028622D01*
X95874054Y-84019077D01*
X95811885Y-84022176D01*
X95752303Y-84031366D01*
X95696448Y-84046250D01*
X95643927Y-84066752D01*
X95596129Y-84092116D01*
X95552292Y-84122570D01*
X95513708Y-84157045D01*
X95479606Y-84196088D01*
X95450926Y-84238567D01*
X95427201Y-84285161D01*
X95408988Y-84334988D01*
X95396223Y-84388566D01*
X95387913Y-84484799D01*
X95679148Y-84484799D01*
X95682165Y-84440459D01*
X95690777Y-84402422D01*
X95704010Y-84370912D01*
X95721365Y-84344763D01*
X95767510Y-84306304D01*
X95829092Y-84285023D01*
X95874054Y-84281198D01*
X95913991Y-84284262D01*
X95949609Y-84293204D01*
X95979851Y-84307109D01*
X96005792Y-84325832D01*
X96044190Y-84376214D01*
X96064327Y-84444167D01*
X96066615Y-84480305D01*
X96063410Y-84523145D01*
X96053484Y-84562055D01*
X96015800Y-84631636D01*
X95983768Y-84672671D01*
X95387913Y-85363976D01*
X95387913Y-85626000D01*
X96357850Y-85626000D01*
G37*
G36*
X97194901Y-84030418D02*
G01*
X97300695Y-84064264D01*
X97391200Y-84117811D01*
X97464317Y-84188581D01*
X97518713Y-84275024D01*
X97538439Y-84323832D01*
X97552969Y-84376600D01*
X97561929Y-84433144D01*
X97564996Y-84493494D01*
X97564996Y-85164087D01*
X97556602Y-85262513D01*
X97543736Y-85317111D01*
X97525451Y-85367690D01*
X97501531Y-85415191D01*
X97472727Y-85458337D01*
X97438311Y-85498209D01*
X97399554Y-85533280D01*
X97355399Y-85564395D01*
X97307555Y-85590199D01*
X97255115Y-85611065D01*
X97199818Y-85626138D01*
X97141436Y-85635396D01*
X97081200Y-85638505D01*
X96966081Y-85626913D01*
X96859980Y-85592802D01*
X96769202Y-85539034D01*
X96695915Y-85468160D01*
X96641448Y-85381788D01*
X96621716Y-85333105D01*
X96607180Y-85280491D01*
X96598223Y-85224176D01*
X96595157Y-85164087D01*
X96595157Y-84497988D01*
X96886294Y-84497988D01*
X96886294Y-85161840D01*
X96889360Y-85206051D01*
X96911219Y-85277648D01*
X96951278Y-85330492D01*
X96977802Y-85349988D01*
X97008081Y-85364292D01*
X97042986Y-85373394D01*
X97081200Y-85376481D01*
X97116805Y-85373804D01*
X97180357Y-85352121D01*
X97206797Y-85333485D01*
X97229260Y-85309938D01*
X97247950Y-85280757D01*
X97261813Y-85246812D01*
X97270790Y-85206656D01*
X97273859Y-85161840D01*
X97273859Y-84497988D01*
X97270672Y-84452274D01*
X97248750Y-84380060D01*
X97209057Y-84327069D01*
X97182971Y-84307634D01*
X97153161Y-84293351D01*
X97118855Y-84284281D01*
X97081200Y-84281198D01*
X97043911Y-84284206D01*
X96980286Y-84306783D01*
X96953664Y-84325960D01*
X96931010Y-84350057D01*
X96912238Y-84379610D01*
X96898304Y-84413817D01*
X96889358Y-84453708D01*
X96886294Y-84497988D01*
X96595157Y-84497988D01*
X96595157Y-84493494D01*
X96603669Y-84394867D01*
X96616629Y-84340431D01*
X96635019Y-84289989D01*
X96659091Y-84242535D01*
X96688061Y-84199424D01*
X96722705Y-84159525D01*
X96761696Y-84124427D01*
X96806127Y-84093265D01*
X96854239Y-84067423D01*
X96906925Y-84046531D01*
X96962434Y-84031443D01*
X97020922Y-84022186D01*
X97081200Y-84019077D01*
X97194901Y-84030418D01*
G37*
G36*
X78905819Y-87823071D02*
G01*
X78590062Y-87823071D01*
X78574629Y-87873226D01*
X78553349Y-87918860D01*
X78529450Y-87954698D01*
X78500560Y-87985680D01*
X78469750Y-88009141D01*
X78434488Y-88027592D01*
X78396456Y-88040119D01*
X78354083Y-88047224D01*
X78321200Y-88048752D01*
X78276210Y-88045693D01*
X78234679Y-88036789D01*
X78197039Y-88022493D01*
X78163497Y-88003193D01*
X78121898Y-87966100D01*
X78095409Y-87929891D01*
X78074986Y-87885413D01*
X78053801Y-87782859D01*
X78043855Y-87586468D01*
X78043447Y-87516889D01*
X78046781Y-87342233D01*
X78057616Y-87222327D01*
X78069327Y-87166415D01*
X78085112Y-87123224D01*
X78121898Y-87067579D01*
X78148548Y-87041737D01*
X78179727Y-87020241D01*
X78215249Y-87003433D01*
X78254682Y-86991800D01*
X78321200Y-86984928D01*
X78367123Y-86987983D01*
X78408404Y-86996868D01*
X78444645Y-87010886D01*
X78476713Y-87029731D01*
X78530157Y-87081869D01*
X78570348Y-87154894D01*
X78587815Y-87210608D01*
X78905819Y-87210608D01*
X78890393Y-87140260D01*
X78869763Y-87075136D01*
X78844658Y-87016265D01*
X78814982Y-86962467D01*
X78781323Y-86914229D01*
X78743619Y-86870994D01*
X78656877Y-86799554D01*
X78555142Y-86747807D01*
X78438364Y-86716458D01*
X78321200Y-86707077D01*
X78251412Y-86710172D01*
X78186376Y-86719335D01*
X78127380Y-86733886D01*
X78072257Y-86753827D01*
X77971998Y-86809487D01*
X77893384Y-86875116D01*
X77853602Y-86919256D01*
X77820966Y-86964871D01*
X77774960Y-87060557D01*
X77747243Y-87174805D01*
X77734114Y-87331634D01*
X77732086Y-87516889D01*
X77734922Y-87723020D01*
X77741184Y-87811573D01*
X77753091Y-87892094D01*
X77772453Y-87965820D01*
X77801082Y-88033984D01*
X77840788Y-88097821D01*
X77893384Y-88158563D01*
X77942086Y-88201782D01*
X77994258Y-88238986D01*
X78045760Y-88267733D01*
X78100910Y-88290990D01*
X78158026Y-88308085D01*
X78219174Y-88319704D01*
X78321200Y-88326505D01*
X78389376Y-88323382D01*
X78454854Y-88314027D01*
X78515378Y-88299053D01*
X78572804Y-88278277D01*
X78625285Y-88252595D01*
X78674331Y-88221487D01*
X78718698Y-88185860D01*
X78759301Y-88145083D01*
X78795491Y-88099747D01*
X78827543Y-88049415D01*
X78855220Y-87994114D01*
X78878302Y-87933849D01*
X78905819Y-87823071D01*
G37*
G36*
X80224535Y-88314000D02*
G01*
X80224535Y-88036247D01*
X79485261Y-88036247D01*
X79485261Y-87647705D01*
X80114724Y-87647705D01*
X80114724Y-87369854D01*
X79485261Y-87369854D01*
X79485261Y-86997433D01*
X80224535Y-86997433D01*
X80224535Y-86719582D01*
X79173998Y-86719582D01*
X79173998Y-88314000D01*
X80224535Y-88314000D01*
G37*
G36*
X81157198Y-86719597D02*
G01*
X81221926Y-86723096D01*
X81282794Y-86732497D01*
X81340049Y-86747575D01*
X81393154Y-86767938D01*
X81442561Y-86793578D01*
X81487468Y-86823916D01*
X81528363Y-86859182D01*
X81564353Y-86898546D01*
X81595771Y-86942361D01*
X81621851Y-86989619D01*
X81642678Y-87040565D01*
X81657750Y-87094217D01*
X81666960Y-87150486D01*
X81670062Y-87208654D01*
X81670042Y-87213422D01*
X81666379Y-87271076D01*
X81656760Y-87324664D01*
X81640969Y-87376114D01*
X81619842Y-87423187D01*
X81592226Y-87468358D01*
X81559918Y-87508637D01*
X81520895Y-87546353D01*
X81478099Y-87578500D01*
X81429620Y-87606478D01*
X81378827Y-87628263D01*
X81735031Y-88314000D01*
X81374333Y-88314000D01*
X81062972Y-87679750D01*
X80838953Y-87679750D01*
X80838953Y-88314000D01*
X80527690Y-88314000D01*
X80527690Y-87419875D01*
X80838953Y-87419875D01*
X81132435Y-87419875D01*
X81188389Y-87414585D01*
X81225755Y-87404139D01*
X81259153Y-87388563D01*
X81288118Y-87368363D01*
X81312544Y-87343840D01*
X81332178Y-87315265D01*
X81346623Y-87283092D01*
X81355629Y-87247322D01*
X81358702Y-87208654D01*
X81353543Y-87158970D01*
X81343004Y-87124581D01*
X81327088Y-87093501D01*
X81306043Y-87066039D01*
X81280212Y-87042656D01*
X81249580Y-87023562D01*
X81214701Y-87009402D01*
X81175413Y-87000492D01*
X81132435Y-86997433D01*
X80838953Y-86997433D01*
X80838953Y-87419875D01*
X80527690Y-87419875D01*
X80527690Y-86719582D01*
X81152561Y-86719582D01*
X81157198Y-86719597D01*
G37*
G36*
X83213091Y-88314000D02*
G01*
X83213091Y-86719582D01*
X82901730Y-86719582D01*
X82901730Y-87695967D01*
X82270118Y-86719582D01*
X81992365Y-86719582D01*
X81992365Y-88314000D01*
X82303628Y-88314000D01*
X82303628Y-87335465D01*
X82935338Y-88314000D01*
X83213091Y-88314000D01*
G37*
G36*
X84219762Y-87809785D02*
G01*
X84219762Y-87538675D01*
X83529825Y-87538675D01*
X83529825Y-87809785D01*
X84219762Y-87809785D01*
G37*
G36*
X85177333Y-86714293D02*
G01*
X85238081Y-86726141D01*
X85294763Y-86743432D01*
X85349225Y-86766771D01*
X85399963Y-86795530D01*
X85450846Y-86832396D01*
X85498129Y-86875116D01*
X85515108Y-86892805D01*
X85562257Y-86952008D01*
X85598027Y-87014378D01*
X85623986Y-87081017D01*
X85641705Y-87153031D01*
X85652754Y-87231521D01*
X85658702Y-87317591D01*
X85661577Y-87516889D01*
X85659347Y-87699882D01*
X85645775Y-87857044D01*
X85617587Y-87971901D01*
X85571089Y-88068197D01*
X85538177Y-88114129D01*
X85498129Y-88158563D01*
X85420373Y-88224389D01*
X85321145Y-88279790D01*
X85266222Y-88299708D01*
X85207350Y-88314243D01*
X85142300Y-88323409D01*
X85072463Y-88326505D01*
X84964940Y-88318946D01*
X84903968Y-88306883D01*
X84846991Y-88289376D01*
X84792458Y-88265935D01*
X84741651Y-88237121D01*
X84691315Y-88200684D01*
X84644647Y-88158563D01*
X84592051Y-88097821D01*
X84552345Y-88033984D01*
X84523716Y-87965820D01*
X84504354Y-87892094D01*
X84492448Y-87811573D01*
X84486185Y-87723020D01*
X84483349Y-87516889D01*
X84794710Y-87516889D01*
X84794974Y-87576596D01*
X84803970Y-87778291D01*
X84824001Y-87880344D01*
X84844188Y-87925053D01*
X84870914Y-87961606D01*
X84919490Y-88003361D01*
X84991040Y-88037048D01*
X85072463Y-88048752D01*
X85133662Y-88042264D01*
X85174075Y-88030040D01*
X85210521Y-88012342D01*
X85243677Y-87989084D01*
X85271863Y-87961606D01*
X85308640Y-87906649D01*
X85324351Y-87864513D01*
X85336016Y-87809896D01*
X85346878Y-87691250D01*
X85350216Y-87516889D01*
X85349891Y-87454244D01*
X85340288Y-87255046D01*
X85319445Y-87151935D01*
X85298810Y-87106644D01*
X85271863Y-87069826D01*
X85227298Y-87030311D01*
X85156272Y-86996747D01*
X85115973Y-86987968D01*
X85072463Y-86984928D01*
X85011924Y-86990917D01*
X84971116Y-87002565D01*
X84934119Y-87019691D01*
X84900207Y-87042482D01*
X84870914Y-87069826D01*
X84837467Y-87118930D01*
X84821520Y-87159546D01*
X84809702Y-87211841D01*
X84798147Y-87333880D01*
X84794710Y-87516889D01*
X84483349Y-87516889D01*
X84485377Y-87331634D01*
X84498506Y-87174805D01*
X84526223Y-87060557D01*
X84572229Y-86964871D01*
X84604866Y-86919256D01*
X84644647Y-86875116D01*
X84722631Y-86809316D01*
X84822594Y-86753867D01*
X84877995Y-86733901D01*
X84937311Y-86719335D01*
X85002579Y-86710172D01*
X85072463Y-86707077D01*
X85177333Y-86714293D01*
G37*
G36*
X87140907Y-88314000D02*
G01*
X87140907Y-86719582D01*
X86829546Y-86719582D01*
X86829546Y-87369854D01*
X86289672Y-87369854D01*
X86289672Y-86719582D01*
X85978408Y-86719582D01*
X85978408Y-88314000D01*
X86289672Y-88314000D01*
X86289672Y-87645458D01*
X86829546Y-87645458D01*
X86829546Y-88314000D01*
X87140907Y-88314000D01*
G37*
G36*
X88546671Y-88314000D02*
G01*
X88546671Y-88036247D01*
X87823126Y-88036247D01*
X87823126Y-86719582D01*
X87511863Y-86719582D01*
X87511863Y-88314000D01*
X88546671Y-88314000D01*
G37*
G36*
X89436008Y-87809785D02*
G01*
X89436008Y-87538675D01*
X88746071Y-87538675D01*
X88746071Y-87809785D01*
X89436008Y-87809785D01*
G37*
G36*
X91540893Y-86719582D02*
G01*
X91216050Y-86719582D01*
X90967411Y-87725081D01*
X90676273Y-86719582D01*
X90443265Y-86719582D01*
X90152128Y-87725081D01*
X89905736Y-86719582D01*
X89580893Y-86719582D01*
X90006461Y-88314000D01*
X90266336Y-88314000D01*
X90559720Y-87346700D01*
X90853203Y-88314000D01*
X91113077Y-88314000D01*
X91540893Y-86719582D01*
G37*
G36*
X93168527Y-87144760D02*
G01*
X92861660Y-87144760D01*
X92626503Y-87867426D01*
X92389002Y-87144760D01*
X92082135Y-87144760D01*
X92512198Y-88314000D01*
X92740711Y-88314000D01*
X93168527Y-87144760D01*
G37*
G36*
X94278855Y-88314000D02*
G01*
X94278855Y-88051976D01*
X93662875Y-88051976D01*
X94108569Y-87535158D01*
X94206783Y-87410460D01*
X94240802Y-87351017D01*
X94264254Y-87288222D01*
X94274259Y-87239606D01*
X94278649Y-87185922D01*
X94278855Y-87170552D01*
X94275774Y-87110497D01*
X94266710Y-87053985D01*
X94252096Y-87001639D01*
X94232137Y-86953067D01*
X94207159Y-86908510D01*
X94177383Y-86868000D01*
X94103936Y-86799307D01*
X94012764Y-86748182D01*
X93904808Y-86716622D01*
X93795059Y-86707077D01*
X93732890Y-86710176D01*
X93673308Y-86719366D01*
X93617453Y-86734250D01*
X93564932Y-86754752D01*
X93517134Y-86780116D01*
X93473297Y-86810570D01*
X93434712Y-86845045D01*
X93400611Y-86884088D01*
X93371931Y-86926567D01*
X93348206Y-86973161D01*
X93329993Y-87022988D01*
X93317228Y-87076566D01*
X93308918Y-87172799D01*
X93600153Y-87172799D01*
X93603170Y-87128459D01*
X93611782Y-87090422D01*
X93625015Y-87058912D01*
X93642370Y-87032763D01*
X93688515Y-86994304D01*
X93750097Y-86973023D01*
X93795059Y-86969198D01*
X93834996Y-86972262D01*
X93870614Y-86981204D01*
X93900856Y-86995109D01*
X93926797Y-87013832D01*
X93965195Y-87064214D01*
X93985332Y-87132167D01*
X93987620Y-87168305D01*
X93984415Y-87211145D01*
X93974488Y-87250055D01*
X93936805Y-87319636D01*
X93904773Y-87360671D01*
X93308918Y-88051976D01*
X93308918Y-88314000D01*
X94278855Y-88314000D01*
G37*
D13*
X106369819Y-86429887D02*
X106369819Y-86810839D01*
X106369819Y-86810839D02*
X106846009Y-86848935D01*
X106846009Y-86848935D02*
X106798390Y-86810839D01*
X106798390Y-86810839D02*
X106750771Y-86734649D01*
X106750771Y-86734649D02*
X106750771Y-86544173D01*
X106750771Y-86544173D02*
X106798390Y-86467982D01*
X106798390Y-86467982D02*
X106846009Y-86429887D01*
X106846009Y-86429887D02*
X106941247Y-86391792D01*
X106941247Y-86391792D02*
X107179342Y-86391792D01*
X107179342Y-86391792D02*
X107274580Y-86429887D01*
X107274580Y-86429887D02*
X107322200Y-86467982D01*
X107322200Y-86467982D02*
X107369819Y-86544173D01*
X107369819Y-86544173D02*
X107369819Y-86734649D01*
X107369819Y-86734649D02*
X107322200Y-86810839D01*
X107322200Y-86810839D02*
X107274580Y-86848935D01*
X106369819Y-85896553D02*
X106369819Y-85820363D01*
X106369819Y-85820363D02*
X106417438Y-85744172D01*
X106417438Y-85744172D02*
X106465057Y-85706077D01*
X106465057Y-85706077D02*
X106560295Y-85667982D01*
X106560295Y-85667982D02*
X106750771Y-85629887D01*
X106750771Y-85629887D02*
X106988866Y-85629887D01*
X106988866Y-85629887D02*
X107179342Y-85667982D01*
X107179342Y-85667982D02*
X107274580Y-85706077D01*
X107274580Y-85706077D02*
X107322200Y-85744172D01*
X107322200Y-85744172D02*
X107369819Y-85820363D01*
X107369819Y-85820363D02*
X107369819Y-85896553D01*
X107369819Y-85896553D02*
X107322200Y-85972744D01*
X107322200Y-85972744D02*
X107274580Y-86010839D01*
X107274580Y-86010839D02*
X107179342Y-86048934D01*
X107179342Y-86048934D02*
X106988866Y-86087030D01*
X106988866Y-86087030D02*
X106750771Y-86087030D01*
X106750771Y-86087030D02*
X106560295Y-86048934D01*
X106560295Y-86048934D02*
X106465057Y-86010839D01*
X106465057Y-86010839D02*
X106417438Y-85972744D01*
X106417438Y-85972744D02*
X106369819Y-85896553D01*
X77750211Y-118475125D02*
X77750211Y-118017982D01*
X78750211Y-118246554D02*
X77750211Y-118246554D01*
X78750211Y-117751315D02*
X77750211Y-117751315D01*
X77750211Y-117751315D02*
X77750211Y-117446553D01*
X77750211Y-117446553D02*
X77797830Y-117370363D01*
X77797830Y-117370363D02*
X77845449Y-117332268D01*
X77845449Y-117332268D02*
X77940687Y-117294172D01*
X77940687Y-117294172D02*
X78083544Y-117294172D01*
X78083544Y-117294172D02*
X78178782Y-117332268D01*
X78178782Y-117332268D02*
X78226401Y-117370363D01*
X78226401Y-117370363D02*
X78274020Y-117446553D01*
X78274020Y-117446553D02*
X78274020Y-117751315D01*
X78654972Y-116951315D02*
X78702592Y-116913220D01*
X78702592Y-116913220D02*
X78750211Y-116951315D01*
X78750211Y-116951315D02*
X78702592Y-116989411D01*
X78702592Y-116989411D02*
X78654972Y-116951315D01*
X78654972Y-116951315D02*
X78750211Y-116951315D01*
X78131163Y-116951315D02*
X78178782Y-116913220D01*
X78178782Y-116913220D02*
X78226401Y-116951315D01*
X78226401Y-116951315D02*
X78178782Y-116989411D01*
X78178782Y-116989411D02*
X78131163Y-116951315D01*
X78131163Y-116951315D02*
X78226401Y-116951315D01*
X79407774Y-117941792D02*
X79360155Y-118017982D01*
X79360155Y-118017982D02*
X79360155Y-118132268D01*
X79360155Y-118132268D02*
X79407774Y-118246554D01*
X79407774Y-118246554D02*
X79503012Y-118322744D01*
X79503012Y-118322744D02*
X79598250Y-118360839D01*
X79598250Y-118360839D02*
X79788726Y-118398935D01*
X79788726Y-118398935D02*
X79931583Y-118398935D01*
X79931583Y-118398935D02*
X80122059Y-118360839D01*
X80122059Y-118360839D02*
X80217297Y-118322744D01*
X80217297Y-118322744D02*
X80312536Y-118246554D01*
X80312536Y-118246554D02*
X80360155Y-118132268D01*
X80360155Y-118132268D02*
X80360155Y-118056077D01*
X80360155Y-118056077D02*
X80312536Y-117941792D01*
X80312536Y-117941792D02*
X80264916Y-117903696D01*
X80264916Y-117903696D02*
X79931583Y-117903696D01*
X79931583Y-117903696D02*
X79931583Y-118056077D01*
X80360155Y-117560839D02*
X79360155Y-117560839D01*
X79360155Y-117560839D02*
X80360155Y-117103696D01*
X80360155Y-117103696D02*
X79360155Y-117103696D01*
X80360155Y-116722744D02*
X79360155Y-116722744D01*
X79360155Y-116722744D02*
X79360155Y-116532268D01*
X79360155Y-116532268D02*
X79407774Y-116417982D01*
X79407774Y-116417982D02*
X79503012Y-116341792D01*
X79503012Y-116341792D02*
X79598250Y-116303697D01*
X79598250Y-116303697D02*
X79788726Y-116265601D01*
X79788726Y-116265601D02*
X79931583Y-116265601D01*
X79931583Y-116265601D02*
X80122059Y-116303697D01*
X80122059Y-116303697D02*
X80217297Y-116341792D01*
X80217297Y-116341792D02*
X80312536Y-116417982D01*
X80312536Y-116417982D02*
X80360155Y-116532268D01*
X80360155Y-116532268D02*
X80360155Y-116722744D01*
X80970099Y-118437030D02*
X80970099Y-117941792D01*
X80970099Y-117941792D02*
X81351051Y-118208458D01*
X81351051Y-118208458D02*
X81351051Y-118094173D01*
X81351051Y-118094173D02*
X81398670Y-118017982D01*
X81398670Y-118017982D02*
X81446289Y-117979887D01*
X81446289Y-117979887D02*
X81541527Y-117941792D01*
X81541527Y-117941792D02*
X81779622Y-117941792D01*
X81779622Y-117941792D02*
X81874860Y-117979887D01*
X81874860Y-117979887D02*
X81922480Y-118017982D01*
X81922480Y-118017982D02*
X81970099Y-118094173D01*
X81970099Y-118094173D02*
X81970099Y-118322744D01*
X81970099Y-118322744D02*
X81922480Y-118398935D01*
X81922480Y-118398935D02*
X81874860Y-118437030D01*
X80970099Y-117713220D02*
X81970099Y-117446553D01*
X81970099Y-117446553D02*
X80970099Y-117179887D01*
X80970099Y-116989411D02*
X80970099Y-116494173D01*
X80970099Y-116494173D02*
X81351051Y-116760839D01*
X81351051Y-116760839D02*
X81351051Y-116646554D01*
X81351051Y-116646554D02*
X81398670Y-116570363D01*
X81398670Y-116570363D02*
X81446289Y-116532268D01*
X81446289Y-116532268D02*
X81541527Y-116494173D01*
X81541527Y-116494173D02*
X81779622Y-116494173D01*
X81779622Y-116494173D02*
X81874860Y-116532268D01*
X81874860Y-116532268D02*
X81922480Y-116570363D01*
X81922480Y-116570363D02*
X81970099Y-116646554D01*
X81970099Y-116646554D02*
X81970099Y-116875125D01*
X81970099Y-116875125D02*
X81922480Y-116951316D01*
X81922480Y-116951316D02*
X81874860Y-116989411D01*
X83484804Y-117903696D02*
X83532424Y-117941792D01*
X83532424Y-117941792D02*
X83580043Y-118056077D01*
X83580043Y-118056077D02*
X83580043Y-118132268D01*
X83580043Y-118132268D02*
X83532424Y-118246554D01*
X83532424Y-118246554D02*
X83437185Y-118322744D01*
X83437185Y-118322744D02*
X83341947Y-118360839D01*
X83341947Y-118360839D02*
X83151471Y-118398935D01*
X83151471Y-118398935D02*
X83008614Y-118398935D01*
X83008614Y-118398935D02*
X82818138Y-118360839D01*
X82818138Y-118360839D02*
X82722900Y-118322744D01*
X82722900Y-118322744D02*
X82627662Y-118246554D01*
X82627662Y-118246554D02*
X82580043Y-118132268D01*
X82580043Y-118132268D02*
X82580043Y-118056077D01*
X82580043Y-118056077D02*
X82627662Y-117941792D01*
X82627662Y-117941792D02*
X82675281Y-117903696D01*
X83532424Y-117598935D02*
X83580043Y-117484649D01*
X83580043Y-117484649D02*
X83580043Y-117294173D01*
X83580043Y-117294173D02*
X83532424Y-117217982D01*
X83532424Y-117217982D02*
X83484804Y-117179887D01*
X83484804Y-117179887D02*
X83389566Y-117141792D01*
X83389566Y-117141792D02*
X83294328Y-117141792D01*
X83294328Y-117141792D02*
X83199090Y-117179887D01*
X83199090Y-117179887D02*
X83151471Y-117217982D01*
X83151471Y-117217982D02*
X83103852Y-117294173D01*
X83103852Y-117294173D02*
X83056233Y-117446554D01*
X83056233Y-117446554D02*
X83008614Y-117522744D01*
X83008614Y-117522744D02*
X82960995Y-117560839D01*
X82960995Y-117560839D02*
X82865757Y-117598935D01*
X82865757Y-117598935D02*
X82770519Y-117598935D01*
X82770519Y-117598935D02*
X82675281Y-117560839D01*
X82675281Y-117560839D02*
X82627662Y-117522744D01*
X82627662Y-117522744D02*
X82580043Y-117446554D01*
X82580043Y-117446554D02*
X82580043Y-117256077D01*
X82580043Y-117256077D02*
X82627662Y-117141792D01*
X85142368Y-118398935D02*
X85189987Y-118284649D01*
X85189987Y-118284649D02*
X85189987Y-118094173D01*
X85189987Y-118094173D02*
X85142368Y-118017982D01*
X85142368Y-118017982D02*
X85094748Y-117979887D01*
X85094748Y-117979887D02*
X84999510Y-117941792D01*
X84999510Y-117941792D02*
X84904272Y-117941792D01*
X84904272Y-117941792D02*
X84809034Y-117979887D01*
X84809034Y-117979887D02*
X84761415Y-118017982D01*
X84761415Y-118017982D02*
X84713796Y-118094173D01*
X84713796Y-118094173D02*
X84666177Y-118246554D01*
X84666177Y-118246554D02*
X84618558Y-118322744D01*
X84618558Y-118322744D02*
X84570939Y-118360839D01*
X84570939Y-118360839D02*
X84475701Y-118398935D01*
X84475701Y-118398935D02*
X84380463Y-118398935D01*
X84380463Y-118398935D02*
X84285225Y-118360839D01*
X84285225Y-118360839D02*
X84237606Y-118322744D01*
X84237606Y-118322744D02*
X84189987Y-118246554D01*
X84189987Y-118246554D02*
X84189987Y-118056077D01*
X84189987Y-118056077D02*
X84237606Y-117941792D01*
X85094748Y-117141791D02*
X85142368Y-117179887D01*
X85142368Y-117179887D02*
X85189987Y-117294172D01*
X85189987Y-117294172D02*
X85189987Y-117370363D01*
X85189987Y-117370363D02*
X85142368Y-117484649D01*
X85142368Y-117484649D02*
X85047129Y-117560839D01*
X85047129Y-117560839D02*
X84951891Y-117598934D01*
X84951891Y-117598934D02*
X84761415Y-117637030D01*
X84761415Y-117637030D02*
X84618558Y-117637030D01*
X84618558Y-117637030D02*
X84428082Y-117598934D01*
X84428082Y-117598934D02*
X84332844Y-117560839D01*
X84332844Y-117560839D02*
X84237606Y-117484649D01*
X84237606Y-117484649D02*
X84189987Y-117370363D01*
X84189987Y-117370363D02*
X84189987Y-117294172D01*
X84189987Y-117294172D02*
X84237606Y-117179887D01*
X84237606Y-117179887D02*
X84285225Y-117141791D01*
X85189987Y-116798934D02*
X84189987Y-116798934D01*
X85189987Y-116341791D02*
X84618558Y-116684649D01*
X84189987Y-116341791D02*
X84761415Y-116798934D01*
X86799931Y-118360839D02*
X85799931Y-118360839D01*
X85799931Y-118360839D02*
X85799931Y-118170363D01*
X85799931Y-118170363D02*
X85847550Y-118056077D01*
X85847550Y-118056077D02*
X85942788Y-117979887D01*
X85942788Y-117979887D02*
X86038026Y-117941792D01*
X86038026Y-117941792D02*
X86228502Y-117903696D01*
X86228502Y-117903696D02*
X86371359Y-117903696D01*
X86371359Y-117903696D02*
X86561835Y-117941792D01*
X86561835Y-117941792D02*
X86657073Y-117979887D01*
X86657073Y-117979887D02*
X86752312Y-118056077D01*
X86752312Y-118056077D02*
X86799931Y-118170363D01*
X86799931Y-118170363D02*
X86799931Y-118360839D01*
X85752312Y-116989411D02*
X87038026Y-117675125D01*
X86704692Y-116265601D02*
X86752312Y-116303697D01*
X86752312Y-116303697D02*
X86799931Y-116417982D01*
X86799931Y-116417982D02*
X86799931Y-116494173D01*
X86799931Y-116494173D02*
X86752312Y-116608459D01*
X86752312Y-116608459D02*
X86657073Y-116684649D01*
X86657073Y-116684649D02*
X86561835Y-116722744D01*
X86561835Y-116722744D02*
X86371359Y-116760840D01*
X86371359Y-116760840D02*
X86228502Y-116760840D01*
X86228502Y-116760840D02*
X86038026Y-116722744D01*
X86038026Y-116722744D02*
X85942788Y-116684649D01*
X85942788Y-116684649D02*
X85847550Y-116608459D01*
X85847550Y-116608459D02*
X85799931Y-116494173D01*
X85799931Y-116494173D02*
X85799931Y-116417982D01*
X85799931Y-116417982D02*
X85847550Y-116303697D01*
X85847550Y-116303697D02*
X85895169Y-116265601D01*
X88409875Y-118360839D02*
X87409875Y-118360839D01*
X87409875Y-118360839D02*
X88124160Y-118094173D01*
X88124160Y-118094173D02*
X87409875Y-117827506D01*
X87409875Y-117827506D02*
X88409875Y-117827506D01*
X87409875Y-117294172D02*
X87409875Y-117141791D01*
X87409875Y-117141791D02*
X87457494Y-117065601D01*
X87457494Y-117065601D02*
X87552732Y-116989410D01*
X87552732Y-116989410D02*
X87743208Y-116951315D01*
X87743208Y-116951315D02*
X88076541Y-116951315D01*
X88076541Y-116951315D02*
X88267017Y-116989410D01*
X88267017Y-116989410D02*
X88362256Y-117065601D01*
X88362256Y-117065601D02*
X88409875Y-117141791D01*
X88409875Y-117141791D02*
X88409875Y-117294172D01*
X88409875Y-117294172D02*
X88362256Y-117370363D01*
X88362256Y-117370363D02*
X88267017Y-117446553D01*
X88267017Y-117446553D02*
X88076541Y-117484649D01*
X88076541Y-117484649D02*
X87743208Y-117484649D01*
X87743208Y-117484649D02*
X87552732Y-117446553D01*
X87552732Y-117446553D02*
X87457494Y-117370363D01*
X87457494Y-117370363D02*
X87409875Y-117294172D01*
X88362256Y-116646554D02*
X88409875Y-116532268D01*
X88409875Y-116532268D02*
X88409875Y-116341792D01*
X88409875Y-116341792D02*
X88362256Y-116265601D01*
X88362256Y-116265601D02*
X88314636Y-116227506D01*
X88314636Y-116227506D02*
X88219398Y-116189411D01*
X88219398Y-116189411D02*
X88124160Y-116189411D01*
X88124160Y-116189411D02*
X88028922Y-116227506D01*
X88028922Y-116227506D02*
X87981303Y-116265601D01*
X87981303Y-116265601D02*
X87933684Y-116341792D01*
X87933684Y-116341792D02*
X87886065Y-116494173D01*
X87886065Y-116494173D02*
X87838446Y-116570363D01*
X87838446Y-116570363D02*
X87790827Y-116608458D01*
X87790827Y-116608458D02*
X87695589Y-116646554D01*
X87695589Y-116646554D02*
X87600351Y-116646554D01*
X87600351Y-116646554D02*
X87505113Y-116608458D01*
X87505113Y-116608458D02*
X87457494Y-116570363D01*
X87457494Y-116570363D02*
X87409875Y-116494173D01*
X87409875Y-116494173D02*
X87409875Y-116303696D01*
X87409875Y-116303696D02*
X87457494Y-116189411D01*
X88409875Y-115846553D02*
X87409875Y-115846553D01*
X90019819Y-117903696D02*
X89543628Y-118170363D01*
X90019819Y-118360839D02*
X89019819Y-118360839D01*
X89019819Y-118360839D02*
X89019819Y-118056077D01*
X89019819Y-118056077D02*
X89067438Y-117979887D01*
X89067438Y-117979887D02*
X89115057Y-117941792D01*
X89115057Y-117941792D02*
X89210295Y-117903696D01*
X89210295Y-117903696D02*
X89353152Y-117903696D01*
X89353152Y-117903696D02*
X89448390Y-117941792D01*
X89448390Y-117941792D02*
X89496009Y-117979887D01*
X89496009Y-117979887D02*
X89543628Y-118056077D01*
X89543628Y-118056077D02*
X89543628Y-118360839D01*
X89972200Y-117598935D02*
X90019819Y-117484649D01*
X90019819Y-117484649D02*
X90019819Y-117294173D01*
X90019819Y-117294173D02*
X89972200Y-117217982D01*
X89972200Y-117217982D02*
X89924580Y-117179887D01*
X89924580Y-117179887D02*
X89829342Y-117141792D01*
X89829342Y-117141792D02*
X89734104Y-117141792D01*
X89734104Y-117141792D02*
X89638866Y-117179887D01*
X89638866Y-117179887D02*
X89591247Y-117217982D01*
X89591247Y-117217982D02*
X89543628Y-117294173D01*
X89543628Y-117294173D02*
X89496009Y-117446554D01*
X89496009Y-117446554D02*
X89448390Y-117522744D01*
X89448390Y-117522744D02*
X89400771Y-117560839D01*
X89400771Y-117560839D02*
X89305533Y-117598935D01*
X89305533Y-117598935D02*
X89210295Y-117598935D01*
X89210295Y-117598935D02*
X89115057Y-117560839D01*
X89115057Y-117560839D02*
X89067438Y-117522744D01*
X89067438Y-117522744D02*
X89019819Y-117446554D01*
X89019819Y-117446554D02*
X89019819Y-117256077D01*
X89019819Y-117256077D02*
X89067438Y-117141792D01*
X88972200Y-116227506D02*
X90257914Y-116913220D01*
X89496009Y-115694173D02*
X89543628Y-115579887D01*
X89543628Y-115579887D02*
X89591247Y-115541792D01*
X89591247Y-115541792D02*
X89686485Y-115503696D01*
X89686485Y-115503696D02*
X89829342Y-115503696D01*
X89829342Y-115503696D02*
X89924580Y-115541792D01*
X89924580Y-115541792D02*
X89972200Y-115579887D01*
X89972200Y-115579887D02*
X90019819Y-115656077D01*
X90019819Y-115656077D02*
X90019819Y-115960839D01*
X90019819Y-115960839D02*
X89019819Y-115960839D01*
X89019819Y-115960839D02*
X89019819Y-115694173D01*
X89019819Y-115694173D02*
X89067438Y-115617982D01*
X89067438Y-115617982D02*
X89115057Y-115579887D01*
X89115057Y-115579887D02*
X89210295Y-115541792D01*
X89210295Y-115541792D02*
X89305533Y-115541792D01*
X89305533Y-115541792D02*
X89400771Y-115579887D01*
X89400771Y-115579887D02*
X89448390Y-115617982D01*
X89448390Y-115617982D02*
X89496009Y-115694173D01*
X89496009Y-115694173D02*
X89496009Y-115960839D01*
X90019819Y-114779887D02*
X90019819Y-115160839D01*
X90019819Y-115160839D02*
X89019819Y-115160839D01*
X110369819Y-110877506D02*
X111084104Y-110877506D01*
X111084104Y-110877506D02*
X111226961Y-110925125D01*
X111226961Y-110925125D02*
X111322200Y-111020363D01*
X111322200Y-111020363D02*
X111369819Y-111163220D01*
X111369819Y-111163220D02*
X111369819Y-111258458D01*
X111369819Y-109925125D02*
X111369819Y-110401315D01*
X111369819Y-110401315D02*
X110369819Y-110401315D01*
X111274580Y-109020363D02*
X111322200Y-109067982D01*
X111322200Y-109067982D02*
X111369819Y-109210839D01*
X111369819Y-109210839D02*
X111369819Y-109306077D01*
X111369819Y-109306077D02*
X111322200Y-109448934D01*
X111322200Y-109448934D02*
X111226961Y-109544172D01*
X111226961Y-109544172D02*
X111131723Y-109591791D01*
X111131723Y-109591791D02*
X110941247Y-109639410D01*
X110941247Y-109639410D02*
X110798390Y-109639410D01*
X110798390Y-109639410D02*
X110607914Y-109591791D01*
X110607914Y-109591791D02*
X110512676Y-109544172D01*
X110512676Y-109544172D02*
X110417438Y-109448934D01*
X110417438Y-109448934D02*
X110369819Y-109306077D01*
X110369819Y-109306077D02*
X110369819Y-109210839D01*
X110369819Y-109210839D02*
X110417438Y-109067982D01*
X110417438Y-109067982D02*
X110465057Y-109020363D01*
X110369819Y-108306077D02*
X111084104Y-108306077D01*
X111084104Y-108306077D02*
X111226961Y-108353696D01*
X111226961Y-108353696D02*
X111322200Y-108448934D01*
X111322200Y-108448934D02*
X111369819Y-108591791D01*
X111369819Y-108591791D02*
X111369819Y-108687029D01*
X111369819Y-107353696D02*
X111369819Y-107829886D01*
X111369819Y-107829886D02*
X110369819Y-107829886D01*
X111274580Y-106448934D02*
X111322200Y-106496553D01*
X111322200Y-106496553D02*
X111369819Y-106639410D01*
X111369819Y-106639410D02*
X111369819Y-106734648D01*
X111369819Y-106734648D02*
X111322200Y-106877505D01*
X111322200Y-106877505D02*
X111226961Y-106972743D01*
X111226961Y-106972743D02*
X111131723Y-107020362D01*
X111131723Y-107020362D02*
X110941247Y-107067981D01*
X110941247Y-107067981D02*
X110798390Y-107067981D01*
X110798390Y-107067981D02*
X110607914Y-107020362D01*
X110607914Y-107020362D02*
X110512676Y-106972743D01*
X110512676Y-106972743D02*
X110417438Y-106877505D01*
X110417438Y-106877505D02*
X110369819Y-106734648D01*
X110369819Y-106734648D02*
X110369819Y-106639410D01*
X110369819Y-106639410D02*
X110417438Y-106496553D01*
X110417438Y-106496553D02*
X110465057Y-106448934D01*
X110369819Y-105734648D02*
X111084104Y-105734648D01*
X111084104Y-105734648D02*
X111226961Y-105782267D01*
X111226961Y-105782267D02*
X111322200Y-105877505D01*
X111322200Y-105877505D02*
X111369819Y-106020362D01*
X111369819Y-106020362D02*
X111369819Y-106115600D01*
X111369819Y-104782267D02*
X111369819Y-105258457D01*
X111369819Y-105258457D02*
X110369819Y-105258457D01*
X111274580Y-103877505D02*
X111322200Y-103925124D01*
X111322200Y-103925124D02*
X111369819Y-104067981D01*
X111369819Y-104067981D02*
X111369819Y-104163219D01*
X111369819Y-104163219D02*
X111322200Y-104306076D01*
X111322200Y-104306076D02*
X111226961Y-104401314D01*
X111226961Y-104401314D02*
X111131723Y-104448933D01*
X111131723Y-104448933D02*
X110941247Y-104496552D01*
X110941247Y-104496552D02*
X110798390Y-104496552D01*
X110798390Y-104496552D02*
X110607914Y-104448933D01*
X110607914Y-104448933D02*
X110512676Y-104401314D01*
X110512676Y-104401314D02*
X110417438Y-104306076D01*
X110417438Y-104306076D02*
X110369819Y-104163219D01*
X110369819Y-104163219D02*
X110369819Y-104067981D01*
X110369819Y-104067981D02*
X110417438Y-103925124D01*
X110417438Y-103925124D02*
X110465057Y-103877505D01*
X110369819Y-103163219D02*
X111084104Y-103163219D01*
X111084104Y-103163219D02*
X111226961Y-103210838D01*
X111226961Y-103210838D02*
X111322200Y-103306076D01*
X111322200Y-103306076D02*
X111369819Y-103448933D01*
X111369819Y-103448933D02*
X111369819Y-103544171D01*
X111369819Y-102210838D02*
X111369819Y-102687028D01*
X111369819Y-102687028D02*
X110369819Y-102687028D01*
X111274580Y-101306076D02*
X111322200Y-101353695D01*
X111322200Y-101353695D02*
X111369819Y-101496552D01*
X111369819Y-101496552D02*
X111369819Y-101591790D01*
X111369819Y-101591790D02*
X111322200Y-101734647D01*
X111322200Y-101734647D02*
X111226961Y-101829885D01*
X111226961Y-101829885D02*
X111131723Y-101877504D01*
X111131723Y-101877504D02*
X110941247Y-101925123D01*
X110941247Y-101925123D02*
X110798390Y-101925123D01*
X110798390Y-101925123D02*
X110607914Y-101877504D01*
X110607914Y-101877504D02*
X110512676Y-101829885D01*
X110512676Y-101829885D02*
X110417438Y-101734647D01*
X110417438Y-101734647D02*
X110369819Y-101591790D01*
X110369819Y-101591790D02*
X110369819Y-101496552D01*
X110369819Y-101496552D02*
X110417438Y-101353695D01*
X110417438Y-101353695D02*
X110465057Y-101306076D01*
D14*
X106600000Y-113500000D02*
X107200000Y-113500000D01*
X106900000Y-112999999D02*
X106600000Y-113500000D01*
X107200000Y-113500000D02*
X106900000Y-112999999D01*
D15*
X107850000Y-87280000D02*
X107850000Y-85350000D01*
X107850000Y-114650000D02*
X107850000Y-112720000D01*
X111800000Y-84500000D02*
X111800000Y-84900000D01*
X111800000Y-115500000D02*
X111800000Y-115100000D01*
X113200000Y-84500000D02*
X111800000Y-84500000D01*
X113200000Y-84500000D02*
X113200000Y-115500000D01*
X113200000Y-115500000D02*
X111800000Y-115500000D01*
X114500000Y-84500000D02*
X113160000Y-84500000D01*
X114500000Y-84500000D02*
X114500000Y-85897000D01*
X114500000Y-86405000D02*
X114500000Y-87802000D01*
X114500000Y-88310000D02*
X114500000Y-89707000D01*
X114500000Y-90215000D02*
X114500000Y-91612000D01*
X114500000Y-92120000D02*
X114500000Y-93517000D01*
X114500000Y-94025000D02*
X114500000Y-95422000D01*
X114500000Y-95930000D02*
X114500000Y-97327000D01*
X114500000Y-97835000D02*
X114500000Y-99232000D01*
X114500000Y-99740000D02*
X114500000Y-101137000D01*
X114500000Y-101645000D02*
X114500000Y-103042000D01*
X114500000Y-103550000D02*
X114500000Y-104947000D01*
X114500000Y-105455000D02*
X114500000Y-106852000D01*
X114500000Y-107360000D02*
X114500000Y-108757000D01*
X114500000Y-109265000D02*
X114500000Y-110662000D01*
X114500000Y-111170000D02*
X114500000Y-112567000D01*
X114500000Y-113075000D02*
X114500000Y-114472000D01*
X114500000Y-114980000D02*
X114500000Y-115500000D01*
X114500000Y-115500000D02*
X113200000Y-115500000D01*
D14*
X102696359Y-105520000D02*
X103003641Y-105520000D01*
X102696359Y-106280000D02*
X103003641Y-106280000D01*
X99870000Y-107153641D02*
X99870000Y-106846359D01*
X100630000Y-107153641D02*
X100630000Y-106846359D01*
X104746359Y-114820000D02*
X105053641Y-114820000D01*
X104746359Y-115580000D02*
X105053641Y-115580000D01*
X102587258Y-113227500D02*
X102112742Y-113227500D01*
X102587258Y-114272500D02*
X102112742Y-114272500D01*
X101465000Y-92911252D02*
X101465000Y-92388746D01*
X102935000Y-92911252D02*
X102935000Y-92388746D01*
X102696359Y-104520000D02*
X103003641Y-104520000D01*
X102696359Y-105280000D02*
X103003641Y-105280000D01*
X102587258Y-111727500D02*
X102112742Y-111727500D01*
X102587258Y-112772500D02*
X102112742Y-112772500D01*
X102696359Y-106520000D02*
X103003641Y-106520000D01*
X102696359Y-107280000D02*
X103003641Y-107280000D01*
X91400000Y-116400000D02*
X94040000Y-116400000D01*
X91400000Y-117500000D02*
X91400000Y-116400000D01*
X91400000Y-119610000D02*
X91400000Y-121200000D01*
X91400000Y-121200000D02*
X104600000Y-121210552D01*
X93250000Y-115300000D02*
X93250000Y-115900000D01*
X93250000Y-115900000D02*
X93750001Y-115600000D01*
X93750001Y-115600000D02*
X93250000Y-115300000D01*
X104600000Y-116400000D02*
X101960000Y-116400000D01*
X104600000Y-117500000D02*
X104600000Y-116400000D01*
X104600000Y-121200000D02*
X104600000Y-119610000D01*
X97539999Y-111000000D02*
X97540000Y-110350000D01*
X97539999Y-111000000D02*
X97540000Y-111650000D01*
X100660001Y-111000000D02*
X100660000Y-110350000D01*
X100660001Y-111000000D02*
X100660000Y-111650000D01*
X97590000Y-112162500D02*
X97260000Y-112402500D01*
X97260001Y-111922500D01*
X97590000Y-112162500D01*
G36*
X97590000Y-112162500D02*
G01*
X97260000Y-112402500D01*
X97260001Y-111922500D01*
X97590000Y-112162500D01*
G37*
X102587258Y-110227500D02*
X102112742Y-110227500D01*
X102587258Y-111272500D02*
X102112742Y-111272500D01*
X98477500Y-107537258D02*
X98477500Y-107062742D01*
X99522500Y-107537258D02*
X99522500Y-107062742D01*
X102696359Y-107520000D02*
X103003641Y-107520000D01*
X102696359Y-108280000D02*
X103003641Y-108280000D01*
X97370000Y-107153641D02*
X97370000Y-106846359D01*
X98130000Y-107153641D02*
X98130000Y-106846359D01*
X102587258Y-108727500D02*
X102112742Y-108727500D01*
X102587258Y-109772500D02*
X102112742Y-109772500D01*
X106540000Y-116770000D02*
X107200001Y-116770000D01*
X106540001Y-118180000D02*
X106540000Y-116770000D01*
X108199999Y-116770000D02*
X108860000Y-116770000D01*
X108859999Y-118180000D02*
X108860000Y-116770000D01*
X106560000Y-118550000D02*
X106230000Y-118790000D01*
X106230001Y-118310000D01*
X106560000Y-118550000D01*
G36*
X106560000Y-118550000D02*
G01*
X106230000Y-118790000D01*
X106230001Y-118310000D01*
X106560000Y-118550000D01*
G37*
D16*
X82097822Y-113117822D02*
X78577029Y-113117822D01*
X78577029Y-112250198D01*
X82097822Y-112250198D01*
X82097822Y-113117822D01*
G36*
X82097822Y-113117822D02*
G01*
X78577029Y-113117822D01*
X78577029Y-112250198D01*
X82097822Y-112250198D01*
X82097822Y-113117822D01*
G37*
X82474430Y-107164848D02*
X82473811Y-107251931D01*
X82022086Y-107710891D01*
X81570361Y-108169852D01*
X81570032Y-108380470D01*
X81569703Y-108591089D01*
X81294610Y-108591089D01*
X81287522Y-108644530D01*
X81284838Y-108668888D01*
X81280313Y-108714759D01*
X81274191Y-108779405D01*
X81266712Y-108860091D01*
X81258119Y-108954081D01*
X81248654Y-109058637D01*
X81238558Y-109171025D01*
X81228074Y-109288507D01*
X81217444Y-109408348D01*
X81206909Y-109527811D01*
X81196713Y-109644159D01*
X81187095Y-109754657D01*
X81178300Y-109856569D01*
X81170568Y-109947158D01*
X81164142Y-110023687D01*
X81159262Y-110083421D01*
X81156175Y-110123624D01*
X81155117Y-110141559D01*
X81155118Y-110141644D01*
X81162827Y-110156035D01*
X81185981Y-110185748D01*
X81224895Y-110231131D01*
X81279884Y-110292529D01*
X81351264Y-110370288D01*
X81439349Y-110464754D01*
X81544454Y-110576272D01*
X81666895Y-110705188D01*
X81701310Y-110741287D01*
X82247137Y-111313416D01*
X82158881Y-111401436D01*
X82087485Y-111323758D01*
X82061366Y-111295686D01*
X82020566Y-111252274D01*
X81967777Y-111196366D01*
X81905691Y-111130808D01*
X81837000Y-111058441D01*
X81764396Y-110982111D01*
X81720960Y-110936524D01*
X81639416Y-110851119D01*
X81573504Y-110782710D01*
X81521544Y-110730053D01*
X81481855Y-110691905D01*
X81452757Y-110667020D01*
X81432568Y-110654156D01*
X81419610Y-110652069D01*
X81412200Y-110659513D01*
X81408658Y-110675246D01*
X81407303Y-110698023D01*
X81407121Y-110704239D01*
X81397703Y-110747061D01*
X81374497Y-110798819D01*
X81342136Y-110851328D01*
X81305252Y-110896403D01*
X81290493Y-110910327D01*
X81214768Y-110959047D01*
X81126308Y-110986306D01*
X81048100Y-110992773D01*
X80959468Y-110980576D01*
X80877612Y-110944813D01*
X80805164Y-110886722D01*
X80791797Y-110872262D01*
X80742918Y-110816733D01*
X79897326Y-110816733D01*
X79897326Y-110992773D01*
X79670990Y-110992773D01*
X79670989Y-110910531D01*
X79668150Y-110854386D01*
X79658607Y-110815416D01*
X79647009Y-110794219D01*
X79638723Y-110779052D01*
X79631628Y-110757062D01*
X79625252Y-110724987D01*
X79619128Y-110679569D01*
X79612784Y-110617548D01*
X79605750Y-110535662D01*
X79600934Y-110474746D01*
X79578839Y-110189343D01*
X79036435Y-110738805D01*
X78938363Y-110838228D01*
X78844216Y-110933815D01*
X78755715Y-111023810D01*
X78674580Y-111106457D01*
X78602531Y-111180001D01*
X78541288Y-111242684D01*
X78492573Y-111292752D01*
X78458104Y-111328447D01*
X78439621Y-111347995D01*
X78409256Y-111378944D01*
X78383928Y-111400530D01*
X78370305Y-111407723D01*
X78352905Y-111399297D01*
X78327540Y-111378245D01*
X78318942Y-111369671D01*
X78282486Y-111331620D01*
X78483198Y-111127658D01*
X78534404Y-111075699D01*
X78600431Y-111008820D01*
X78678382Y-110929950D01*
X78765362Y-110842014D01*
X78858474Y-110747941D01*
X78954820Y-110650658D01*
X79051508Y-110553094D01*
X79120866Y-110483144D01*
X79226297Y-110376549D01*
X79314871Y-110286307D01*
X79387719Y-110211192D01*
X79445977Y-110149986D01*
X79490775Y-110101466D01*
X79512979Y-110076129D01*
X79691276Y-110076129D01*
X79713599Y-110361555D01*
X79720331Y-110445219D01*
X79726842Y-110521727D01*
X79732766Y-110587081D01*
X79737732Y-110637281D01*
X79741371Y-110668329D01*
X79742542Y-110675273D01*
X79749161Y-110703565D01*
X80698636Y-110703565D01*
X80704974Y-110624606D01*
X80724110Y-110531315D01*
X80764155Y-110448791D01*
X80822582Y-110380038D01*
X80896871Y-110328063D01*
X80980252Y-110296863D01*
X81007302Y-110282228D01*
X81020844Y-110250819D01*
X81021128Y-110249434D01*
X81022753Y-110236174D01*
X81020744Y-110222595D01*
X81013142Y-110206181D01*
X80997983Y-110184411D01*
X80973312Y-110154767D01*
X80937165Y-110114732D01*
X80887580Y-110061784D01*
X80822599Y-109993409D01*
X80818401Y-109989005D01*
X80748507Y-109915611D01*
X80674200Y-109837437D01*
X80600587Y-109759864D01*
X80532771Y-109688275D01*
X80475860Y-109628051D01*
X80463168Y-109614587D01*
X80414513Y-109563820D01*
X80371291Y-109520375D01*
X80336605Y-109487241D01*
X80313556Y-109467405D01*
X80305818Y-109463046D01*
X80294278Y-109472170D01*
X80267290Y-109497200D01*
X80226979Y-109536053D01*
X80175471Y-109586643D01*
X80114891Y-109646888D01*
X80047364Y-109714705D01*
X79992174Y-109770565D01*
X79691276Y-110076129D01*
X79512979Y-110076129D01*
X79523249Y-110064411D01*
X79544529Y-110037599D01*
X79555749Y-110019808D01*
X79558246Y-110011570D01*
X79557300Y-109993590D01*
X79554427Y-109952892D01*
X79549813Y-109891819D01*
X79543642Y-109812713D01*
X79536102Y-109717914D01*
X79527379Y-109609767D01*
X79517657Y-109490612D01*
X79507124Y-109362791D01*
X79498635Y-109260635D01*
X79450604Y-108684673D01*
X79574195Y-108684673D01*
X79574727Y-108697104D01*
X79577231Y-108732110D01*
X79581504Y-108787215D01*
X79587347Y-108859943D01*
X79594558Y-108947814D01*
X79602934Y-109048350D01*
X79612277Y-109159077D01*
X79621242Y-109264205D01*
X79631398Y-109383483D01*
X79640858Y-109496080D01*
X79649404Y-109599305D01*
X79656821Y-109690473D01*
X79662892Y-109766895D01*
X79667399Y-109825883D01*
X79670127Y-109864749D01*
X79670884Y-109879844D01*
X79672065Y-109889238D01*
X79676744Y-109892966D01*
X79686725Y-109889471D01*
X79703810Y-109877199D01*
X79729804Y-109854594D01*
X79766510Y-109820100D01*
X79815733Y-109772162D01*
X79879274Y-109709224D01*
X79946695Y-109641968D01*
X80222399Y-109366476D01*
X80220467Y-109364406D01*
X80402710Y-109364406D01*
X80411016Y-109375780D01*
X80434267Y-109402563D01*
X80470135Y-109442292D01*
X80516287Y-109492507D01*
X80570394Y-109550746D01*
X80630126Y-109614547D01*
X80693152Y-109681449D01*
X80757141Y-109748990D01*
X80819764Y-109814710D01*
X80878690Y-109876146D01*
X80931588Y-109930837D01*
X80976128Y-109976322D01*
X81009980Y-110010138D01*
X81030812Y-110029826D01*
X81036494Y-110033837D01*
X81038366Y-110020891D01*
X81042254Y-109985134D01*
X81047943Y-109928804D01*
X81055219Y-109854140D01*
X81063869Y-109763380D01*
X81073678Y-109658762D01*
X81084434Y-109542526D01*
X81095921Y-109416908D01*
X81105093Y-109315618D01*
X81116825Y-109184279D01*
X81127665Y-109060552D01*
X81137430Y-108946681D01*
X81145937Y-108844912D01*
X81153005Y-108757487D01*
X81158451Y-108686653D01*
X81162092Y-108634653D01*
X81163747Y-108603732D01*
X81163558Y-108595703D01*
X81153666Y-108602854D01*
X81128476Y-108625841D01*
X81090189Y-108662439D01*
X81041012Y-108710422D01*
X80983139Y-108767566D01*
X80918778Y-108831647D01*
X80850129Y-108900438D01*
X80779395Y-108971716D01*
X80708778Y-109043255D01*
X80640480Y-109112830D01*
X80576704Y-109178217D01*
X80519650Y-109237191D01*
X80471522Y-109287527D01*
X80434522Y-109326999D01*
X80410852Y-109353383D01*
X80402710Y-109364406D01*
X80220467Y-109364406D01*
X80119591Y-109256295D01*
X80067232Y-109200377D01*
X80008465Y-109137948D01*
X79945615Y-109071443D01*
X79881005Y-109003298D01*
X79816957Y-108935948D01*
X79755797Y-108871828D01*
X79699847Y-108813372D01*
X79651429Y-108763018D01*
X79612869Y-108723198D01*
X79586491Y-108696350D01*
X79574616Y-108684908D01*
X79574195Y-108684673D01*
X79450604Y-108684673D01*
X79438599Y-108540726D01*
X78838062Y-107909158D01*
X78237526Y-107277589D01*
X78237966Y-107189314D01*
X78238408Y-107101040D01*
X78335417Y-107204666D01*
X78389709Y-107262463D01*
X78453808Y-107330368D01*
X78525984Y-107406572D01*
X78604508Y-107489269D01*
X78687651Y-107576653D01*
X78773681Y-107666915D01*
X78860870Y-107758250D01*
X78947487Y-107848848D01*
X79031803Y-107936907D01*
X79112088Y-108020615D01*
X79186613Y-108098167D01*
X79253646Y-108167757D01*
X79311459Y-108227576D01*
X79358322Y-108275818D01*
X79392504Y-108310676D01*
X79412276Y-108330344D01*
X79416610Y-108334116D01*
X79416908Y-108320992D01*
X79415269Y-108287389D01*
X79411977Y-108237880D01*
X79407318Y-108177037D01*
X79405318Y-108152733D01*
X79390423Y-107974951D01*
X79507045Y-107974951D01*
X79513066Y-108003243D01*
X79516137Y-108025618D01*
X79520452Y-108067717D01*
X79525512Y-108124178D01*
X79530820Y-108189635D01*
X79532656Y-108213863D01*
X79538073Y-108283421D01*
X79543541Y-108348018D01*
X79548511Y-108401548D01*
X79552439Y-108437910D01*
X79553325Y-108444509D01*
X79556666Y-108458056D01*
X79563899Y-108473914D01*
X79576560Y-108493861D01*
X79596189Y-108519673D01*
X79624322Y-108553129D01*
X79662498Y-108596007D01*
X79712254Y-108650082D01*
X79775129Y-108717136D01*
X79852659Y-108798943D01*
X79931748Y-108881950D01*
X80010436Y-108964094D01*
X80083888Y-109040169D01*
X80150276Y-109108325D01*
X80207773Y-109166712D01*
X80254549Y-109213480D01*
X80288776Y-109246782D01*
X80308627Y-109264767D01*
X80312860Y-109267443D01*
X80323997Y-109257741D01*
X80350029Y-109232441D01*
X80388430Y-109194082D01*
X80436672Y-109145200D01*
X80492230Y-109088334D01*
X80532408Y-109046906D01*
X80742169Y-108830000D01*
X80123663Y-108830000D01*
X80123663Y-108591089D01*
X80878119Y-108591089D01*
X80878119Y-108697542D01*
X81016435Y-108559654D01*
X81114554Y-108461840D01*
X81305644Y-108461840D01*
X81307471Y-108477270D01*
X81316723Y-108485867D01*
X81339050Y-108489612D01*
X81380105Y-108490489D01*
X81387377Y-108490495D01*
X81469109Y-108490496D01*
X81469109Y-108271172D01*
X81387377Y-108352179D01*
X81341270Y-108401428D01*
X81313694Y-108439160D01*
X81305644Y-108461840D01*
X81114554Y-108461840D01*
X81154752Y-108421766D01*
X81154752Y-108298952D01*
X81155137Y-108242450D01*
X81156900Y-108206505D01*
X81160950Y-108186530D01*
X81168199Y-108177937D01*
X81179130Y-108176139D01*
X81191288Y-108173498D01*
X81200273Y-108162912D01*
X81207174Y-108140382D01*
X81213076Y-108101909D01*
X81219065Y-108043498D01*
X81220987Y-108022104D01*
X81225149Y-107974951D01*
X79507045Y-107974951D01*
X79390423Y-107974951D01*
X79230891Y-107974951D01*
X79230891Y-107861781D01*
X79298686Y-107861782D01*
X79338338Y-107860696D01*
X79359884Y-107855454D01*
X79362520Y-107852334D01*
X79501384Y-107852334D01*
X79508692Y-107859462D01*
X79534007Y-107861662D01*
X79551092Y-107861782D01*
X79608119Y-107861782D01*
X79820779Y-107861782D01*
X81235302Y-107861782D01*
X81187458Y-107812786D01*
X81113150Y-107752324D01*
X81021184Y-107705691D01*
X80910002Y-107672249D01*
X80799529Y-107653753D01*
X80727227Y-107645122D01*
X80727227Y-107736040D01*
X80148812Y-107736040D01*
X80148813Y-107635446D01*
X80249406Y-107635446D01*
X80626633Y-107635446D01*
X80626633Y-107572576D01*
X80249406Y-107572575D01*
X80249406Y-107635446D01*
X80148813Y-107635446D01*
X80148813Y-107632893D01*
X80063935Y-107641496D01*
X80004632Y-107648756D01*
X79941449Y-107658379D01*
X79903614Y-107665252D01*
X79828168Y-107680406D01*
X79824474Y-107771094D01*
X79820779Y-107861782D01*
X79608119Y-107861782D01*
X79608118Y-107811485D01*
X79606456Y-107779976D01*
X79602303Y-107762463D01*
X79600629Y-107761188D01*
X79582013Y-107769254D01*
X79554817Y-107788820D01*
X79527552Y-107812944D01*
X79508733Y-107834682D01*
X79507057Y-107837508D01*
X79501384Y-107852334D01*
X79362520Y-107852334D01*
X79370338Y-107843081D01*
X79374558Y-107829604D01*
X79391781Y-107794627D01*
X79424862Y-107752579D01*
X79468107Y-107709356D01*
X79515826Y-107670853D01*
X79547170Y-107650801D01*
X79582877Y-107628851D01*
X79601181Y-107610411D01*
X79607612Y-107588669D01*
X79608106Y-107575718D01*
X79608106Y-107572575D01*
X79608118Y-107534852D01*
X79713953Y-107534852D01*
X79762645Y-107536029D01*
X79800595Y-107539165D01*
X79821692Y-107543671D01*
X79823977Y-107545495D01*
X79837359Y-107548295D01*
X79869925Y-107547148D01*
X79916084Y-107542393D01*
X79947624Y-107538003D01*
X80004812Y-107529378D01*
X80057114Y-107521591D01*
X80096418Y-107515846D01*
X80107945Y-107514215D01*
X80138063Y-107504888D01*
X80148812Y-107490272D01*
X80152079Y-107484320D01*
X80163770Y-107479778D01*
X80186712Y-107476470D01*
X80223735Y-107474215D01*
X80277668Y-107472835D01*
X80351340Y-107472150D01*
X80438020Y-107471980D01*
X80530529Y-107472077D01*
X80600906Y-107472530D01*
X80652164Y-107473590D01*
X80687320Y-107475503D01*
X80709388Y-107478519D01*
X80721385Y-107482885D01*
X80726324Y-107488849D01*
X80727227Y-107495784D01*
X80734921Y-107517795D01*
X80760121Y-107530321D01*
X80806009Y-107534788D01*
X80814264Y-107534852D01*
X80891973Y-107542868D01*
X80980233Y-107564936D01*
X81071085Y-107598084D01*
X81156570Y-107639339D01*
X81228726Y-107685731D01*
X81238072Y-107693082D01*
X81268533Y-107716998D01*
X81286572Y-107726576D01*
X81299169Y-107723480D01*
X81312100Y-107710704D01*
X81350293Y-107685679D01*
X81399998Y-107676071D01*
X81453524Y-107681067D01*
X81503178Y-107699850D01*
X81541267Y-107731607D01*
X81544025Y-107735297D01*
X81572526Y-107794575D01*
X81577828Y-107855934D01*
X81560518Y-107914427D01*
X81521180Y-107965104D01*
X81516370Y-107969289D01*
X81488440Y-107989167D01*
X81460102Y-107997921D01*
X81420263Y-107998553D01*
X81410311Y-107997992D01*
X81371332Y-107996562D01*
X81351254Y-107999838D01*
X81343985Y-108009728D01*
X81343240Y-108018961D01*
X81341716Y-108045744D01*
X81337935Y-108086025D01*
X81335218Y-108110124D01*
X81331278Y-108148401D01*
X81332916Y-108167995D01*
X81342421Y-108175158D01*
X81359351Y-108176139D01*
X81369392Y-108172901D01*
X81385590Y-108162420D01*
X81409145Y-108143548D01*
X81441257Y-108115135D01*
X81483128Y-108076035D01*
X81535957Y-108025097D01*
X81600945Y-107961173D01*
X81679291Y-107883114D01*
X81772197Y-107789772D01*
X81880863Y-107679998D01*
X81933230Y-107626952D01*
X82475049Y-107077767D01*
X82474430Y-107164848D01*
G36*
X82474430Y-107164848D02*
G01*
X82473811Y-107251931D01*
X82022086Y-107710891D01*
X81570361Y-108169852D01*
X81570032Y-108380470D01*
X81569703Y-108591089D01*
X81294610Y-108591089D01*
X81287522Y-108644530D01*
X81284838Y-108668888D01*
X81280313Y-108714759D01*
X81274191Y-108779405D01*
X81266712Y-108860091D01*
X81258119Y-108954081D01*
X81248654Y-109058637D01*
X81238558Y-109171025D01*
X81228074Y-109288507D01*
X81217444Y-109408348D01*
X81206909Y-109527811D01*
X81196713Y-109644159D01*
X81187095Y-109754657D01*
X81178300Y-109856569D01*
X81170568Y-109947158D01*
X81164142Y-110023687D01*
X81159262Y-110083421D01*
X81156175Y-110123624D01*
X81155117Y-110141559D01*
X81155118Y-110141644D01*
X81162827Y-110156035D01*
X81185981Y-110185748D01*
X81224895Y-110231131D01*
X81279884Y-110292529D01*
X81351264Y-110370288D01*
X81439349Y-110464754D01*
X81544454Y-110576272D01*
X81666895Y-110705188D01*
X81701310Y-110741287D01*
X82247137Y-111313416D01*
X82158881Y-111401436D01*
X82087485Y-111323758D01*
X82061366Y-111295686D01*
X82020566Y-111252274D01*
X81967777Y-111196366D01*
X81905691Y-111130808D01*
X81837000Y-111058441D01*
X81764396Y-110982111D01*
X81720960Y-110936524D01*
X81639416Y-110851119D01*
X81573504Y-110782710D01*
X81521544Y-110730053D01*
X81481855Y-110691905D01*
X81452757Y-110667020D01*
X81432568Y-110654156D01*
X81419610Y-110652069D01*
X81412200Y-110659513D01*
X81408658Y-110675246D01*
X81407303Y-110698023D01*
X81407121Y-110704239D01*
X81397703Y-110747061D01*
X81374497Y-110798819D01*
X81342136Y-110851328D01*
X81305252Y-110896403D01*
X81290493Y-110910327D01*
X81214768Y-110959047D01*
X81126308Y-110986306D01*
X81048100Y-110992773D01*
X80959468Y-110980576D01*
X80877612Y-110944813D01*
X80805164Y-110886722D01*
X80791797Y-110872262D01*
X80742918Y-110816733D01*
X79897326Y-110816733D01*
X79897326Y-110992773D01*
X79670990Y-110992773D01*
X79670989Y-110910531D01*
X79668150Y-110854386D01*
X79658607Y-110815416D01*
X79647009Y-110794219D01*
X79638723Y-110779052D01*
X79631628Y-110757062D01*
X79625252Y-110724987D01*
X79619128Y-110679569D01*
X79612784Y-110617548D01*
X79605750Y-110535662D01*
X79600934Y-110474746D01*
X79578839Y-110189343D01*
X79036435Y-110738805D01*
X78938363Y-110838228D01*
X78844216Y-110933815D01*
X78755715Y-111023810D01*
X78674580Y-111106457D01*
X78602531Y-111180001D01*
X78541288Y-111242684D01*
X78492573Y-111292752D01*
X78458104Y-111328447D01*
X78439621Y-111347995D01*
X78409256Y-111378944D01*
X78383928Y-111400530D01*
X78370305Y-111407723D01*
X78352905Y-111399297D01*
X78327540Y-111378245D01*
X78318942Y-111369671D01*
X78282486Y-111331620D01*
X78483198Y-111127658D01*
X78534404Y-111075699D01*
X78600431Y-111008820D01*
X78678382Y-110929950D01*
X78765362Y-110842014D01*
X78858474Y-110747941D01*
X78954820Y-110650658D01*
X79051508Y-110553094D01*
X79120866Y-110483144D01*
X79226297Y-110376549D01*
X79314871Y-110286307D01*
X79387719Y-110211192D01*
X79445977Y-110149986D01*
X79490775Y-110101466D01*
X79512979Y-110076129D01*
X79691276Y-110076129D01*
X79713599Y-110361555D01*
X79720331Y-110445219D01*
X79726842Y-110521727D01*
X79732766Y-110587081D01*
X79737732Y-110637281D01*
X79741371Y-110668329D01*
X79742542Y-110675273D01*
X79749161Y-110703565D01*
X80698636Y-110703565D01*
X80704974Y-110624606D01*
X80724110Y-110531315D01*
X80764155Y-110448791D01*
X80822582Y-110380038D01*
X80896871Y-110328063D01*
X80980252Y-110296863D01*
X81007302Y-110282228D01*
X81020844Y-110250819D01*
X81021128Y-110249434D01*
X81022753Y-110236174D01*
X81020744Y-110222595D01*
X81013142Y-110206181D01*
X80997983Y-110184411D01*
X80973312Y-110154767D01*
X80937165Y-110114732D01*
X80887580Y-110061784D01*
X80822599Y-109993409D01*
X80818401Y-109989005D01*
X80748507Y-109915611D01*
X80674200Y-109837437D01*
X80600587Y-109759864D01*
X80532771Y-109688275D01*
X80475860Y-109628051D01*
X80463168Y-109614587D01*
X80414513Y-109563820D01*
X80371291Y-109520375D01*
X80336605Y-109487241D01*
X80313556Y-109467405D01*
X80305818Y-109463046D01*
X80294278Y-109472170D01*
X80267290Y-109497200D01*
X80226979Y-109536053D01*
X80175471Y-109586643D01*
X80114891Y-109646888D01*
X80047364Y-109714705D01*
X79992174Y-109770565D01*
X79691276Y-110076129D01*
X79512979Y-110076129D01*
X79523249Y-110064411D01*
X79544529Y-110037599D01*
X79555749Y-110019808D01*
X79558246Y-110011570D01*
X79557300Y-109993590D01*
X79554427Y-109952892D01*
X79549813Y-109891819D01*
X79543642Y-109812713D01*
X79536102Y-109717914D01*
X79527379Y-109609767D01*
X79517657Y-109490612D01*
X79507124Y-109362791D01*
X79498635Y-109260635D01*
X79450604Y-108684673D01*
X79574195Y-108684673D01*
X79574727Y-108697104D01*
X79577231Y-108732110D01*
X79581504Y-108787215D01*
X79587347Y-108859943D01*
X79594558Y-108947814D01*
X79602934Y-109048350D01*
X79612277Y-109159077D01*
X79621242Y-109264205D01*
X79631398Y-109383483D01*
X79640858Y-109496080D01*
X79649404Y-109599305D01*
X79656821Y-109690473D01*
X79662892Y-109766895D01*
X79667399Y-109825883D01*
X79670127Y-109864749D01*
X79670884Y-109879844D01*
X79672065Y-109889238D01*
X79676744Y-109892966D01*
X79686725Y-109889471D01*
X79703810Y-109877199D01*
X79729804Y-109854594D01*
X79766510Y-109820100D01*
X79815733Y-109772162D01*
X79879274Y-109709224D01*
X79946695Y-109641968D01*
X80222399Y-109366476D01*
X80220467Y-109364406D01*
X80402710Y-109364406D01*
X80411016Y-109375780D01*
X80434267Y-109402563D01*
X80470135Y-109442292D01*
X80516287Y-109492507D01*
X80570394Y-109550746D01*
X80630126Y-109614547D01*
X80693152Y-109681449D01*
X80757141Y-109748990D01*
X80819764Y-109814710D01*
X80878690Y-109876146D01*
X80931588Y-109930837D01*
X80976128Y-109976322D01*
X81009980Y-110010138D01*
X81030812Y-110029826D01*
X81036494Y-110033837D01*
X81038366Y-110020891D01*
X81042254Y-109985134D01*
X81047943Y-109928804D01*
X81055219Y-109854140D01*
X81063869Y-109763380D01*
X81073678Y-109658762D01*
X81084434Y-109542526D01*
X81095921Y-109416908D01*
X81105093Y-109315618D01*
X81116825Y-109184279D01*
X81127665Y-109060552D01*
X81137430Y-108946681D01*
X81145937Y-108844912D01*
X81153005Y-108757487D01*
X81158451Y-108686653D01*
X81162092Y-108634653D01*
X81163747Y-108603732D01*
X81163558Y-108595703D01*
X81153666Y-108602854D01*
X81128476Y-108625841D01*
X81090189Y-108662439D01*
X81041012Y-108710422D01*
X80983139Y-108767566D01*
X80918778Y-108831647D01*
X80850129Y-108900438D01*
X80779395Y-108971716D01*
X80708778Y-109043255D01*
X80640480Y-109112830D01*
X80576704Y-109178217D01*
X80519650Y-109237191D01*
X80471522Y-109287527D01*
X80434522Y-109326999D01*
X80410852Y-109353383D01*
X80402710Y-109364406D01*
X80220467Y-109364406D01*
X80119591Y-109256295D01*
X80067232Y-109200377D01*
X80008465Y-109137948D01*
X79945615Y-109071443D01*
X79881005Y-109003298D01*
X79816957Y-108935948D01*
X79755797Y-108871828D01*
X79699847Y-108813372D01*
X79651429Y-108763018D01*
X79612869Y-108723198D01*
X79586491Y-108696350D01*
X79574616Y-108684908D01*
X79574195Y-108684673D01*
X79450604Y-108684673D01*
X79438599Y-108540726D01*
X78838062Y-107909158D01*
X78237526Y-107277589D01*
X78237966Y-107189314D01*
X78238408Y-107101040D01*
X78335417Y-107204666D01*
X78389709Y-107262463D01*
X78453808Y-107330368D01*
X78525984Y-107406572D01*
X78604508Y-107489269D01*
X78687651Y-107576653D01*
X78773681Y-107666915D01*
X78860870Y-107758250D01*
X78947487Y-107848848D01*
X79031803Y-107936907D01*
X79112088Y-108020615D01*
X79186613Y-108098167D01*
X79253646Y-108167757D01*
X79311459Y-108227576D01*
X79358322Y-108275818D01*
X79392504Y-108310676D01*
X79412276Y-108330344D01*
X79416610Y-108334116D01*
X79416908Y-108320992D01*
X79415269Y-108287389D01*
X79411977Y-108237880D01*
X79407318Y-108177037D01*
X79405318Y-108152733D01*
X79390423Y-107974951D01*
X79507045Y-107974951D01*
X79513066Y-108003243D01*
X79516137Y-108025618D01*
X79520452Y-108067717D01*
X79525512Y-108124178D01*
X79530820Y-108189635D01*
X79532656Y-108213863D01*
X79538073Y-108283421D01*
X79543541Y-108348018D01*
X79548511Y-108401548D01*
X79552439Y-108437910D01*
X79553325Y-108444509D01*
X79556666Y-108458056D01*
X79563899Y-108473914D01*
X79576560Y-108493861D01*
X79596189Y-108519673D01*
X79624322Y-108553129D01*
X79662498Y-108596007D01*
X79712254Y-108650082D01*
X79775129Y-108717136D01*
X79852659Y-108798943D01*
X79931748Y-108881950D01*
X80010436Y-108964094D01*
X80083888Y-109040169D01*
X80150276Y-109108325D01*
X80207773Y-109166712D01*
X80254549Y-109213480D01*
X80288776Y-109246782D01*
X80308627Y-109264767D01*
X80312860Y-109267443D01*
X80323997Y-109257741D01*
X80350029Y-109232441D01*
X80388430Y-109194082D01*
X80436672Y-109145200D01*
X80492230Y-109088334D01*
X80532408Y-109046906D01*
X80742169Y-108830000D01*
X80123663Y-108830000D01*
X80123663Y-108591089D01*
X80878119Y-108591089D01*
X80878119Y-108697542D01*
X81016435Y-108559654D01*
X81114554Y-108461840D01*
X81305644Y-108461840D01*
X81307471Y-108477270D01*
X81316723Y-108485867D01*
X81339050Y-108489612D01*
X81380105Y-108490489D01*
X81387377Y-108490495D01*
X81469109Y-108490496D01*
X81469109Y-108271172D01*
X81387377Y-108352179D01*
X81341270Y-108401428D01*
X81313694Y-108439160D01*
X81305644Y-108461840D01*
X81114554Y-108461840D01*
X81154752Y-108421766D01*
X81154752Y-108298952D01*
X81155137Y-108242450D01*
X81156900Y-108206505D01*
X81160950Y-108186530D01*
X81168199Y-108177937D01*
X81179130Y-108176139D01*
X81191288Y-108173498D01*
X81200273Y-108162912D01*
X81207174Y-108140382D01*
X81213076Y-108101909D01*
X81219065Y-108043498D01*
X81220987Y-108022104D01*
X81225149Y-107974951D01*
X79507045Y-107974951D01*
X79390423Y-107974951D01*
X79230891Y-107974951D01*
X79230891Y-107861781D01*
X79298686Y-107861782D01*
X79338338Y-107860696D01*
X79359884Y-107855454D01*
X79362520Y-107852334D01*
X79501384Y-107852334D01*
X79508692Y-107859462D01*
X79534007Y-107861662D01*
X79551092Y-107861782D01*
X79608119Y-107861782D01*
X79820779Y-107861782D01*
X81235302Y-107861782D01*
X81187458Y-107812786D01*
X81113150Y-107752324D01*
X81021184Y-107705691D01*
X80910002Y-107672249D01*
X80799529Y-107653753D01*
X80727227Y-107645122D01*
X80727227Y-107736040D01*
X80148812Y-107736040D01*
X80148813Y-107635446D01*
X80249406Y-107635446D01*
X80626633Y-107635446D01*
X80626633Y-107572576D01*
X80249406Y-107572575D01*
X80249406Y-107635446D01*
X80148813Y-107635446D01*
X80148813Y-107632893D01*
X80063935Y-107641496D01*
X80004632Y-107648756D01*
X79941449Y-107658379D01*
X79903614Y-107665252D01*
X79828168Y-107680406D01*
X79824474Y-107771094D01*
X79820779Y-107861782D01*
X79608119Y-107861782D01*
X79608118Y-107811485D01*
X79606456Y-107779976D01*
X79602303Y-107762463D01*
X79600629Y-107761188D01*
X79582013Y-107769254D01*
X79554817Y-107788820D01*
X79527552Y-107812944D01*
X79508733Y-107834682D01*
X79507057Y-107837508D01*
X79501384Y-107852334D01*
X79362520Y-107852334D01*
X79370338Y-107843081D01*
X79374558Y-107829604D01*
X79391781Y-107794627D01*
X79424862Y-107752579D01*
X79468107Y-107709356D01*
X79515826Y-107670853D01*
X79547170Y-107650801D01*
X79582877Y-107628851D01*
X79601181Y-107610411D01*
X79607612Y-107588669D01*
X79608106Y-107575718D01*
X79608106Y-107572575D01*
X79608118Y-107534852D01*
X79713953Y-107534852D01*
X79762645Y-107536029D01*
X79800595Y-107539165D01*
X79821692Y-107543671D01*
X79823977Y-107545495D01*
X79837359Y-107548295D01*
X79869925Y-107547148D01*
X79916084Y-107542393D01*
X79947624Y-107538003D01*
X80004812Y-107529378D01*
X80057114Y-107521591D01*
X80096418Y-107515846D01*
X80107945Y-107514215D01*
X80138063Y-107504888D01*
X80148812Y-107490272D01*
X80152079Y-107484320D01*
X80163770Y-107479778D01*
X80186712Y-107476470D01*
X80223735Y-107474215D01*
X80277668Y-107472835D01*
X80351340Y-107472150D01*
X80438020Y-107471980D01*
X80530529Y-107472077D01*
X80600906Y-107472530D01*
X80652164Y-107473590D01*
X80687320Y-107475503D01*
X80709388Y-107478519D01*
X80721385Y-107482885D01*
X80726324Y-107488849D01*
X80727227Y-107495784D01*
X80734921Y-107517795D01*
X80760121Y-107530321D01*
X80806009Y-107534788D01*
X80814264Y-107534852D01*
X80891973Y-107542868D01*
X80980233Y-107564936D01*
X81071085Y-107598084D01*
X81156570Y-107639339D01*
X81228726Y-107685731D01*
X81238072Y-107693082D01*
X81268533Y-107716998D01*
X81286572Y-107726576D01*
X81299169Y-107723480D01*
X81312100Y-107710704D01*
X81350293Y-107685679D01*
X81399998Y-107676071D01*
X81453524Y-107681067D01*
X81503178Y-107699850D01*
X81541267Y-107731607D01*
X81544025Y-107735297D01*
X81572526Y-107794575D01*
X81577828Y-107855934D01*
X81560518Y-107914427D01*
X81521180Y-107965104D01*
X81516370Y-107969289D01*
X81488440Y-107989167D01*
X81460102Y-107997921D01*
X81420263Y-107998553D01*
X81410311Y-107997992D01*
X81371332Y-107996562D01*
X81351254Y-107999838D01*
X81343985Y-108009728D01*
X81343240Y-108018961D01*
X81341716Y-108045744D01*
X81337935Y-108086025D01*
X81335218Y-108110124D01*
X81331278Y-108148401D01*
X81332916Y-108167995D01*
X81342421Y-108175158D01*
X81359351Y-108176139D01*
X81369392Y-108172901D01*
X81385590Y-108162420D01*
X81409145Y-108143548D01*
X81441257Y-108115135D01*
X81483128Y-108076035D01*
X81535957Y-108025097D01*
X81600945Y-107961173D01*
X81679291Y-107883114D01*
X81772197Y-107789772D01*
X81880863Y-107679998D01*
X81933230Y-107626952D01*
X82475049Y-107077767D01*
X82474430Y-107164848D01*
G37*
X82137695Y-100156968D02*
X82221516Y-100601592D01*
X82530801Y-100729090D01*
X82840087Y-100856588D01*
X83211127Y-100604283D01*
X83315038Y-100534033D01*
X83408968Y-100471309D01*
X83488533Y-100418975D01*
X83549351Y-100379894D01*
X83587038Y-100356930D01*
X83597302Y-100351979D01*
X83615791Y-100364713D01*
X83655301Y-100399919D01*
X83711403Y-100453099D01*
X83779668Y-100519755D01*
X83855667Y-100595391D01*
X83934973Y-100675509D01*
X84013156Y-100755611D01*
X84085788Y-100831201D01*
X84148440Y-100897782D01*
X84196684Y-100950855D01*
X84226091Y-100985924D01*
X84233122Y-100997660D01*
X84223004Y-101019297D01*
X84194640Y-101066699D01*
X84151010Y-101135230D01*
X84095099Y-101220252D01*
X84029887Y-101317130D01*
X83992100Y-101372387D01*
X83923224Y-101473285D01*
X83862021Y-101564336D01*
X83811459Y-101641007D01*
X83774509Y-101698765D01*
X83754139Y-101733080D01*
X83751078Y-101740291D01*
X83758017Y-101760785D01*
X83776932Y-101808550D01*
X83804968Y-101876869D01*
X83839272Y-101959026D01*
X83876990Y-102048307D01*
X83915268Y-102137995D01*
X83951251Y-102221375D01*
X83982087Y-102291731D01*
X84004920Y-102342347D01*
X84016898Y-102366508D01*
X84017605Y-102367459D01*
X84036412Y-102372073D01*
X84086499Y-102382365D01*
X84162674Y-102397324D01*
X84259746Y-102415938D01*
X84372524Y-102437196D01*
X84438323Y-102449455D01*
X84558831Y-102472399D01*
X84667678Y-102494232D01*
X84759357Y-102513759D01*
X84828362Y-102529785D01*
X84869185Y-102541116D01*
X84877392Y-102544711D01*
X84885429Y-102569043D01*
X84891914Y-102623996D01*
X84896851Y-102703145D01*
X84900245Y-102800063D01*
X84902099Y-102908324D01*
X84902419Y-103021502D01*
X84901208Y-103133172D01*
X84898471Y-103236905D01*
X84894212Y-103326278D01*
X84888436Y-103394863D01*
X84881148Y-103436234D01*
X84876776Y-103444847D01*
X84850645Y-103455170D01*
X84795274Y-103469929D01*
X84717988Y-103487389D01*
X84626111Y-103505817D01*
X84594039Y-103511778D01*
X84439405Y-103540103D01*
X84317256Y-103562913D01*
X84223554Y-103581117D01*
X84154265Y-103595620D01*
X84105352Y-103607329D01*
X84072778Y-103617152D01*
X84052509Y-103625993D01*
X84040507Y-103634761D01*
X84038828Y-103636494D01*
X84022065Y-103664408D01*
X83996495Y-103718732D01*
X83964669Y-103792814D01*
X83929141Y-103880002D01*
X83892464Y-103973645D01*
X83857192Y-104067089D01*
X83825877Y-104153684D01*
X83801074Y-104226777D01*
X83785335Y-104279715D01*
X83781213Y-104305848D01*
X83781557Y-104306763D01*
X83795522Y-104328123D01*
X83827203Y-104375121D01*
X83873272Y-104442864D01*
X83930399Y-104526460D01*
X83995254Y-104621019D01*
X84013724Y-104647891D01*
X84079580Y-104745312D01*
X84137531Y-104834200D01*
X84184419Y-104909449D01*
X84217088Y-104965957D01*
X84232381Y-104998618D01*
X84233122Y-105002630D01*
X84220273Y-105023721D01*
X84184769Y-105065501D01*
X84131174Y-105123482D01*
X84064052Y-105193172D01*
X83987968Y-105270082D01*
X83907485Y-105349720D01*
X83827168Y-105427598D01*
X83751580Y-105499223D01*
X83685286Y-105560107D01*
X83632850Y-105605758D01*
X83598836Y-105631687D01*
X83589426Y-105635920D01*
X83567524Y-105625949D01*
X83522681Y-105599057D01*
X83462202Y-105559773D01*
X83415670Y-105528154D01*
X83331356Y-105470135D01*
X83231507Y-105401821D01*
X83131354Y-105333616D01*
X83077508Y-105297112D01*
X82895252Y-105173837D01*
X82742262Y-105256557D01*
X82672563Y-105292796D01*
X82613295Y-105320963D01*
X82573192Y-105337028D01*
X82562984Y-105339263D01*
X82550710Y-105322759D01*
X82526494Y-105276119D01*
X82492144Y-105203646D01*
X82449469Y-105109643D01*
X82400275Y-104998411D01*
X82346371Y-104874252D01*
X82289565Y-104741469D01*
X82231663Y-104604364D01*
X82174474Y-104467239D01*
X82119805Y-104334395D01*
X82069465Y-104210135D01*
X82025261Y-104098762D01*
X81989000Y-104004576D01*
X81962490Y-103931881D01*
X81947539Y-103884978D01*
X81945135Y-103868870D01*
X81964192Y-103848323D01*
X82005917Y-103814970D01*
X82061587Y-103775739D01*
X82066259Y-103772636D01*
X82210145Y-103657460D01*
X82326164Y-103523090D01*
X82413311Y-103373821D01*
X82470580Y-103213950D01*
X82496967Y-103047774D01*
X82491466Y-102879589D01*
X82453071Y-102713692D01*
X82380776Y-102554379D01*
X82359507Y-102519524D01*
X82248877Y-102378774D01*
X82118183Y-102265751D01*
X81971945Y-102181040D01*
X81814689Y-102125231D01*
X81650938Y-102098911D01*
X81485214Y-102102667D01*
X81322043Y-102137087D01*
X81165946Y-102202760D01*
X81021448Y-102300272D01*
X80976750Y-102339850D01*
X80862993Y-102463740D01*
X80780099Y-102594161D01*
X80723237Y-102740352D01*
X80691568Y-102885125D01*
X80683750Y-103047897D01*
X80709819Y-103211477D01*
X80767126Y-103370335D01*
X80853025Y-103518943D01*
X80964867Y-103651772D01*
X81100004Y-103763293D01*
X81117764Y-103775048D01*
X81174031Y-103813545D01*
X81216804Y-103846900D01*
X81237253Y-103868197D01*
X81237550Y-103868870D01*
X81233160Y-103891908D01*
X81215757Y-103944194D01*
X81187149Y-104021427D01*
X81149146Y-104119305D01*
X81103555Y-104233528D01*
X81052184Y-104359795D01*
X80996843Y-104493804D01*
X80939339Y-104631255D01*
X80881482Y-104767845D01*
X80825079Y-104899274D01*
X80771939Y-105021242D01*
X80723871Y-105129446D01*
X80682682Y-105219586D01*
X80650182Y-105287360D01*
X80628178Y-105328467D01*
X80619317Y-105339263D01*
X80592241Y-105330856D01*
X80541578Y-105308309D01*
X80476064Y-105275650D01*
X80440040Y-105256557D01*
X80287049Y-105173837D01*
X80104793Y-105297112D01*
X80011756Y-105360265D01*
X79909896Y-105429764D01*
X79814443Y-105495202D01*
X79766631Y-105528154D01*
X79699386Y-105573310D01*
X79642445Y-105609094D01*
X79603235Y-105630975D01*
X79590500Y-105635600D01*
X79571964Y-105623122D01*
X79530940Y-105588289D01*
X79471406Y-105534715D01*
X79397339Y-105466020D01*
X79312716Y-105385818D01*
X79259196Y-105334323D01*
X79165562Y-105242323D01*
X79084640Y-105160036D01*
X79019704Y-105090982D01*
X78974023Y-105038681D01*
X78950870Y-105006653D01*
X78948649Y-105000153D01*
X78958957Y-104975431D01*
X78987442Y-104925442D01*
X79030944Y-104855249D01*
X79086304Y-104769912D01*
X79150361Y-104674493D01*
X79168578Y-104647891D01*
X79234954Y-104551204D01*
X79294503Y-104464154D01*
X79343897Y-104391632D01*
X79379806Y-104338530D01*
X79398900Y-104309740D01*
X79400745Y-104306763D01*
X79397986Y-104283819D01*
X79383343Y-104233373D01*
X79359368Y-104162078D01*
X79328615Y-104076584D01*
X79293637Y-103983544D01*
X79256988Y-103889611D01*
X79221220Y-103801436D01*
X79188887Y-103725671D01*
X79162543Y-103668968D01*
X79144739Y-103637980D01*
X79143474Y-103636494D01*
X79132587Y-103627638D01*
X79114199Y-103618880D01*
X79084275Y-103609314D01*
X79038778Y-103598033D01*
X78973672Y-103584130D01*
X78884920Y-103566700D01*
X78768488Y-103544835D01*
X78620339Y-103517628D01*
X78588263Y-103511778D01*
X78493195Y-103493411D01*
X78410316Y-103475442D01*
X78346951Y-103459606D01*
X78310423Y-103447637D01*
X78305525Y-103444847D01*
X78297454Y-103420109D01*
X78290894Y-103364827D01*
X78285848Y-103285426D01*
X78282322Y-103188333D01*
X78280320Y-103079975D01*
X78279845Y-102966777D01*
X78280904Y-102855165D01*
X78283499Y-102751566D01*
X78287635Y-102662405D01*
X78293318Y-102594109D01*
X78300550Y-102553103D01*
X78304910Y-102544711D01*
X78329183Y-102536245D01*
X78384455Y-102522472D01*
X78465219Y-102504587D01*
X78565969Y-102483785D01*
X78681198Y-102461260D01*
X78743979Y-102449455D01*
X78863094Y-102427188D01*
X78969316Y-102407016D01*
X79057454Y-102389952D01*
X79122315Y-102377006D01*
X79158707Y-102369192D01*
X79164697Y-102367459D01*
X79174820Y-102347927D01*
X79196219Y-102300880D01*
X79226042Y-102233040D01*
X79261436Y-102151128D01*
X79299549Y-102061865D01*
X79337528Y-101971972D01*
X79372521Y-101888172D01*
X79401675Y-101817184D01*
X79422138Y-101765731D01*
X79431058Y-101740534D01*
X79431224Y-101739433D01*
X79421112Y-101719556D01*
X79392764Y-101673814D01*
X79349158Y-101606754D01*
X79293275Y-101522921D01*
X79228094Y-101426863D01*
X79190202Y-101371687D01*
X79121156Y-101270518D01*
X79059831Y-101178667D01*
X79009218Y-101100781D01*
X78972310Y-101041506D01*
X78952099Y-101005488D01*
X78949180Y-100997414D01*
X78961728Y-100978621D01*
X78996418Y-100938494D01*
X79048818Y-100881530D01*
X79114497Y-100812222D01*
X79189025Y-100735068D01*
X79267968Y-100654562D01*
X79346898Y-100575200D01*
X79421381Y-100501477D01*
X79486987Y-100437889D01*
X79539285Y-100388931D01*
X79573842Y-100359098D01*
X79585403Y-100351979D01*
X79604227Y-100361990D01*
X79649250Y-100390115D01*
X79716094Y-100433491D01*
X79800382Y-100489255D01*
X79897737Y-100554543D01*
X79971174Y-100604283D01*
X80342214Y-100856588D01*
X80960786Y-100601592D01*
X81044606Y-100156968D01*
X81128427Y-99712344D01*
X82053875Y-99712344D01*
X82137695Y-100156968D01*
G36*
X82137695Y-100156968D02*
G01*
X82221516Y-100601592D01*
X82530801Y-100729090D01*
X82840087Y-100856588D01*
X83211127Y-100604283D01*
X83315038Y-100534033D01*
X83408968Y-100471309D01*
X83488533Y-100418975D01*
X83549351Y-100379894D01*
X83587038Y-100356930D01*
X83597302Y-100351979D01*
X83615791Y-100364713D01*
X83655301Y-100399919D01*
X83711403Y-100453099D01*
X83779668Y-100519755D01*
X83855667Y-100595391D01*
X83934973Y-100675509D01*
X84013156Y-100755611D01*
X84085788Y-100831201D01*
X84148440Y-100897782D01*
X84196684Y-100950855D01*
X84226091Y-100985924D01*
X84233122Y-100997660D01*
X84223004Y-101019297D01*
X84194640Y-101066699D01*
X84151010Y-101135230D01*
X84095099Y-101220252D01*
X84029887Y-101317130D01*
X83992100Y-101372387D01*
X83923224Y-101473285D01*
X83862021Y-101564336D01*
X83811459Y-101641007D01*
X83774509Y-101698765D01*
X83754139Y-101733080D01*
X83751078Y-101740291D01*
X83758017Y-101760785D01*
X83776932Y-101808550D01*
X83804968Y-101876869D01*
X83839272Y-101959026D01*
X83876990Y-102048307D01*
X83915268Y-102137995D01*
X83951251Y-102221375D01*
X83982087Y-102291731D01*
X84004920Y-102342347D01*
X84016898Y-102366508D01*
X84017605Y-102367459D01*
X84036412Y-102372073D01*
X84086499Y-102382365D01*
X84162674Y-102397324D01*
X84259746Y-102415938D01*
X84372524Y-102437196D01*
X84438323Y-102449455D01*
X84558831Y-102472399D01*
X84667678Y-102494232D01*
X84759357Y-102513759D01*
X84828362Y-102529785D01*
X84869185Y-102541116D01*
X84877392Y-102544711D01*
X84885429Y-102569043D01*
X84891914Y-102623996D01*
X84896851Y-102703145D01*
X84900245Y-102800063D01*
X84902099Y-102908324D01*
X84902419Y-103021502D01*
X84901208Y-103133172D01*
X84898471Y-103236905D01*
X84894212Y-103326278D01*
X84888436Y-103394863D01*
X84881148Y-103436234D01*
X84876776Y-103444847D01*
X84850645Y-103455170D01*
X84795274Y-103469929D01*
X84717988Y-103487389D01*
X84626111Y-103505817D01*
X84594039Y-103511778D01*
X84439405Y-103540103D01*
X84317256Y-103562913D01*
X84223554Y-103581117D01*
X84154265Y-103595620D01*
X84105352Y-103607329D01*
X84072778Y-103617152D01*
X84052509Y-103625993D01*
X84040507Y-103634761D01*
X84038828Y-103636494D01*
X84022065Y-103664408D01*
X83996495Y-103718732D01*
X83964669Y-103792814D01*
X83929141Y-103880002D01*
X83892464Y-103973645D01*
X83857192Y-104067089D01*
X83825877Y-104153684D01*
X83801074Y-104226777D01*
X83785335Y-104279715D01*
X83781213Y-104305848D01*
X83781557Y-104306763D01*
X83795522Y-104328123D01*
X83827203Y-104375121D01*
X83873272Y-104442864D01*
X83930399Y-104526460D01*
X83995254Y-104621019D01*
X84013724Y-104647891D01*
X84079580Y-104745312D01*
X84137531Y-104834200D01*
X84184419Y-104909449D01*
X84217088Y-104965957D01*
X84232381Y-104998618D01*
X84233122Y-105002630D01*
X84220273Y-105023721D01*
X84184769Y-105065501D01*
X84131174Y-105123482D01*
X84064052Y-105193172D01*
X83987968Y-105270082D01*
X83907485Y-105349720D01*
X83827168Y-105427598D01*
X83751580Y-105499223D01*
X83685286Y-105560107D01*
X83632850Y-105605758D01*
X83598836Y-105631687D01*
X83589426Y-105635920D01*
X83567524Y-105625949D01*
X83522681Y-105599057D01*
X83462202Y-105559773D01*
X83415670Y-105528154D01*
X83331356Y-105470135D01*
X83231507Y-105401821D01*
X83131354Y-105333616D01*
X83077508Y-105297112D01*
X82895252Y-105173837D01*
X82742262Y-105256557D01*
X82672563Y-105292796D01*
X82613295Y-105320963D01*
X82573192Y-105337028D01*
X82562984Y-105339263D01*
X82550710Y-105322759D01*
X82526494Y-105276119D01*
X82492144Y-105203646D01*
X82449469Y-105109643D01*
X82400275Y-104998411D01*
X82346371Y-104874252D01*
X82289565Y-104741469D01*
X82231663Y-104604364D01*
X82174474Y-104467239D01*
X82119805Y-104334395D01*
X82069465Y-104210135D01*
X82025261Y-104098762D01*
X81989000Y-104004576D01*
X81962490Y-103931881D01*
X81947539Y-103884978D01*
X81945135Y-103868870D01*
X81964192Y-103848323D01*
X82005917Y-103814970D01*
X82061587Y-103775739D01*
X82066259Y-103772636D01*
X82210145Y-103657460D01*
X82326164Y-103523090D01*
X82413311Y-103373821D01*
X82470580Y-103213950D01*
X82496967Y-103047774D01*
X82491466Y-102879589D01*
X82453071Y-102713692D01*
X82380776Y-102554379D01*
X82359507Y-102519524D01*
X82248877Y-102378774D01*
X82118183Y-102265751D01*
X81971945Y-102181040D01*
X81814689Y-102125231D01*
X81650938Y-102098911D01*
X81485214Y-102102667D01*
X81322043Y-102137087D01*
X81165946Y-102202760D01*
X81021448Y-102300272D01*
X80976750Y-102339850D01*
X80862993Y-102463740D01*
X80780099Y-102594161D01*
X80723237Y-102740352D01*
X80691568Y-102885125D01*
X80683750Y-103047897D01*
X80709819Y-103211477D01*
X80767126Y-103370335D01*
X80853025Y-103518943D01*
X80964867Y-103651772D01*
X81100004Y-103763293D01*
X81117764Y-103775048D01*
X81174031Y-103813545D01*
X81216804Y-103846900D01*
X81237253Y-103868197D01*
X81237550Y-103868870D01*
X81233160Y-103891908D01*
X81215757Y-103944194D01*
X81187149Y-104021427D01*
X81149146Y-104119305D01*
X81103555Y-104233528D01*
X81052184Y-104359795D01*
X80996843Y-104493804D01*
X80939339Y-104631255D01*
X80881482Y-104767845D01*
X80825079Y-104899274D01*
X80771939Y-105021242D01*
X80723871Y-105129446D01*
X80682682Y-105219586D01*
X80650182Y-105287360D01*
X80628178Y-105328467D01*
X80619317Y-105339263D01*
X80592241Y-105330856D01*
X80541578Y-105308309D01*
X80476064Y-105275650D01*
X80440040Y-105256557D01*
X80287049Y-105173837D01*
X80104793Y-105297112D01*
X80011756Y-105360265D01*
X79909896Y-105429764D01*
X79814443Y-105495202D01*
X79766631Y-105528154D01*
X79699386Y-105573310D01*
X79642445Y-105609094D01*
X79603235Y-105630975D01*
X79590500Y-105635600D01*
X79571964Y-105623122D01*
X79530940Y-105588289D01*
X79471406Y-105534715D01*
X79397339Y-105466020D01*
X79312716Y-105385818D01*
X79259196Y-105334323D01*
X79165562Y-105242323D01*
X79084640Y-105160036D01*
X79019704Y-105090982D01*
X78974023Y-105038681D01*
X78950870Y-105006653D01*
X78948649Y-105000153D01*
X78958957Y-104975431D01*
X78987442Y-104925442D01*
X79030944Y-104855249D01*
X79086304Y-104769912D01*
X79150361Y-104674493D01*
X79168578Y-104647891D01*
X79234954Y-104551204D01*
X79294503Y-104464154D01*
X79343897Y-104391632D01*
X79379806Y-104338530D01*
X79398900Y-104309740D01*
X79400745Y-104306763D01*
X79397986Y-104283819D01*
X79383343Y-104233373D01*
X79359368Y-104162078D01*
X79328615Y-104076584D01*
X79293637Y-103983544D01*
X79256988Y-103889611D01*
X79221220Y-103801436D01*
X79188887Y-103725671D01*
X79162543Y-103668968D01*
X79144739Y-103637980D01*
X79143474Y-103636494D01*
X79132587Y-103627638D01*
X79114199Y-103618880D01*
X79084275Y-103609314D01*
X79038778Y-103598033D01*
X78973672Y-103584130D01*
X78884920Y-103566700D01*
X78768488Y-103544835D01*
X78620339Y-103517628D01*
X78588263Y-103511778D01*
X78493195Y-103493411D01*
X78410316Y-103475442D01*
X78346951Y-103459606D01*
X78310423Y-103447637D01*
X78305525Y-103444847D01*
X78297454Y-103420109D01*
X78290894Y-103364827D01*
X78285848Y-103285426D01*
X78282322Y-103188333D01*
X78280320Y-103079975D01*
X78279845Y-102966777D01*
X78280904Y-102855165D01*
X78283499Y-102751566D01*
X78287635Y-102662405D01*
X78293318Y-102594109D01*
X78300550Y-102553103D01*
X78304910Y-102544711D01*
X78329183Y-102536245D01*
X78384455Y-102522472D01*
X78465219Y-102504587D01*
X78565969Y-102483785D01*
X78681198Y-102461260D01*
X78743979Y-102449455D01*
X78863094Y-102427188D01*
X78969316Y-102407016D01*
X79057454Y-102389952D01*
X79122315Y-102377006D01*
X79158707Y-102369192D01*
X79164697Y-102367459D01*
X79174820Y-102347927D01*
X79196219Y-102300880D01*
X79226042Y-102233040D01*
X79261436Y-102151128D01*
X79299549Y-102061865D01*
X79337528Y-101971972D01*
X79372521Y-101888172D01*
X79401675Y-101817184D01*
X79422138Y-101765731D01*
X79431058Y-101740534D01*
X79431224Y-101739433D01*
X79421112Y-101719556D01*
X79392764Y-101673814D01*
X79349158Y-101606754D01*
X79293275Y-101522921D01*
X79228094Y-101426863D01*
X79190202Y-101371687D01*
X79121156Y-101270518D01*
X79059831Y-101178667D01*
X79009218Y-101100781D01*
X78972310Y-101041506D01*
X78952099Y-101005488D01*
X78949180Y-100997414D01*
X78961728Y-100978621D01*
X78996418Y-100938494D01*
X79048818Y-100881530D01*
X79114497Y-100812222D01*
X79189025Y-100735068D01*
X79267968Y-100654562D01*
X79346898Y-100575200D01*
X79421381Y-100501477D01*
X79486987Y-100437889D01*
X79539285Y-100388931D01*
X79573842Y-100359098D01*
X79585403Y-100351979D01*
X79604227Y-100361990D01*
X79649250Y-100390115D01*
X79716094Y-100433491D01*
X79800382Y-100489255D01*
X79897737Y-100554543D01*
X79971174Y-100604283D01*
X80342214Y-100856588D01*
X80960786Y-100601592D01*
X81044606Y-100156968D01*
X81128427Y-99712344D01*
X82053875Y-99712344D01*
X82137695Y-100156968D01*
G37*
D17*
X126900000Y-87000000D02*
X113900000Y-87000000D01*
X126900000Y-100000000D02*
X113900000Y-100000000D01*
X126900000Y-113000000D02*
X113900000Y-113000000D01*
%LPC*%
D18*
X107600000Y-112250000D03*
X107600000Y-111750000D03*
X107600000Y-111250000D03*
X107600000Y-110750000D03*
X107600000Y-110250000D03*
X107600000Y-109750000D03*
X107600000Y-109250000D03*
X107600000Y-108750000D03*
X107600000Y-108250000D03*
X107600000Y-107750000D03*
X107600000Y-107250000D03*
X107600000Y-106750000D03*
X107600000Y-106250000D03*
X107600000Y-105750000D03*
X107600000Y-105250000D03*
X107600000Y-104750000D03*
X107600000Y-104250000D03*
X107600000Y-103750000D03*
X107600000Y-103250000D03*
X107600000Y-102750000D03*
X107600000Y-102250000D03*
X107600000Y-101750000D03*
X107600000Y-101250000D03*
X107600000Y-100750000D03*
X107600000Y-100250000D03*
X107600000Y-99750000D03*
X107600000Y-99250000D03*
X107600000Y-98750000D03*
X107600000Y-98250000D03*
X107600000Y-97750000D03*
X107600000Y-97250000D03*
X107600000Y-96750000D03*
X107600000Y-96250000D03*
X107600000Y-95750000D03*
X107600000Y-95250000D03*
X107600000Y-94750000D03*
X107600000Y-94250000D03*
X107600000Y-93750000D03*
X107600000Y-93250000D03*
X107600000Y-92750000D03*
X107600000Y-92250000D03*
X107600000Y-91750000D03*
X107600000Y-91250000D03*
X107600000Y-90750000D03*
X107600000Y-90250000D03*
X107600000Y-89750000D03*
X107600000Y-89250000D03*
X107600000Y-88750000D03*
X107600000Y-88250000D03*
X107600000Y-87750000D03*
D19*
X109750000Y-113850000D03*
X109750000Y-86150000D03*
D20*
X102340000Y-105900000D03*
X103360000Y-105900000D03*
D21*
X112000000Y-81000000D03*
X112000000Y-83000000D03*
D22*
X100250000Y-107510000D03*
X100250000Y-106490000D03*
D21*
X95300000Y-113000000D03*
X91300000Y-113000000D03*
D20*
X104390000Y-115200000D03*
X105410000Y-115200000D03*
D21*
X105500000Y-98500000D03*
X96300000Y-111000000D03*
D23*
X103175000Y-113750000D03*
X101525000Y-113750000D03*
D24*
X102200000Y-93599998D03*
X102200000Y-91700000D03*
D20*
X102340000Y-104900000D03*
X103360000Y-104900000D03*
D21*
X97900000Y-89500000D03*
D23*
X103175000Y-112250000D03*
X101525000Y-112250000D03*
D21*
X92300000Y-111000000D03*
D20*
X102340000Y-106900000D03*
X103360000Y-106900000D03*
D25*
X94500000Y-115950000D03*
X95500000Y-115950000D03*
X96500000Y-115950000D03*
X97500000Y-115950000D03*
X98500000Y-115950000D03*
X99500000Y-115950000D03*
X100500000Y-115950000D03*
X101500000Y-115950000D03*
D26*
X92300000Y-118550000D03*
X103700000Y-118550000D03*
D21*
X97900000Y-87500000D03*
X94300000Y-111000000D03*
D27*
X98150000Y-111937500D03*
X100050000Y-111937500D03*
X99100000Y-110062499D03*
D23*
X103175000Y-110750000D03*
X101525000Y-110750000D03*
D21*
X89300000Y-112950000D03*
X93300000Y-113000000D03*
X100000000Y-87500000D03*
D28*
X99000000Y-108125000D03*
X99000000Y-106475000D03*
D20*
X102340000Y-107900000D03*
X103360000Y-107900000D03*
D22*
X97750000Y-107510000D03*
X97750000Y-106490000D03*
D23*
X103175000Y-109250000D03*
X101525000Y-109250000D03*
D29*
X107050000Y-118500000D03*
X108350000Y-118500000D03*
X107700000Y-116500000D03*
D21*
X100000000Y-89500000D03*
%LPD*%
M02*
