M48
; DRILL file {KiCad 8.0.4} date 2025-03-14T20:27:31-0700
; FORMAT={-:-/ absolute / metric / decimal}
; #@! TF.CreationDate,2025-03-14T20:27:31-07:00
; #@! TF.GenerationSoftware,Kicad,Pcbnew,8.0.4
; #@! TF.FileFunction,Plated,1,2,PTH
FMAT,2
METRIC
; #@! TA.AperFunction,Plated,PTH,ViaDrill
T1C0.300
; #@! TA.AperFunction,Plated,PTH,ComponentDrill
T2C0.600
%
G90
G05
T1
X50.0Y-62.2
X50.0Y-66.2
X50.0Y-70.2
X50.0Y-74.2
X50.0Y-78.2
X53.8Y-80.2
X55.25Y-67.85
X55.4Y-59.9
X59.9Y-72.2
X60.0Y-58.3
X61.2Y-55.1
X62.0Y-67.4
X62.0Y-68.2
X62.15Y-61.95
X62.8Y-67.4
X62.8Y-68.2
X63.1Y-54.7
X63.15Y-80.2
X65.4Y-54.1
X65.875Y-70.3
X66.0Y-74.0
X66.95Y-78.65
X67.2Y-75.7
X67.775Y-70.1
X68.25Y-61.2
X68.8Y-75.7
X69.45Y-65.4
X70.6Y-78.85
X72.0Y-74.0
X72.5Y-53.2
X72.6Y-57.5
X72.9Y-63.3
X73.45Y-65.4
X74.0Y-74.0
X74.55Y-76.15
X75.1Y-54.7
X75.8Y-71.3
X76.675Y-67.15
X77.1Y-75.175
X77.2Y-65.9
X77.4Y-54.1
X79.35Y-72.15
X79.7Y-60.8
X80.4Y-71.55
X80.456Y-68.3
X80.981Y-69.525
X81.3Y-74.4
X83.1Y-65.9
X83.8Y-69.8
X83.9Y-54.7
X84.75Y-78.675
X85.4Y-62.8
X86.5Y-72.5
X87.2Y-53.0
X87.949Y-65.3
X89.0Y-61.8
X91.0Y-56.3
X91.0Y-58.9
X91.125Y-79.55
X91.2Y-53.0
X92.7Y-58.9
X94.9Y-69.2
X95.0Y-74.0
X95.2Y-53.0
X96.18Y-80.1
X96.7Y-55.5
X96.812Y-64.3
X96.812Y-65.1
X96.9Y-67.9
X97.0Y-72.2
X97.4Y-76.1
X97.6Y-65.1
X97.612Y-64.3
X98.2Y-58.9
X98.3Y-54.55
X98.6Y-68.75
X99.0Y-74.0
X99.2Y-53.0
X99.5Y-64.2
X99.7Y-76.0
X100.1Y-56.4
X100.4Y-64.2
X100.45Y-53.75
X101.7Y-58.0
X102.5Y-61.7
X102.5Y-73.55
X102.7Y-57.35
X102.9Y-66.3
X103.775Y-76.825
X103.775Y-78.95
X104.364Y-70.7
X104.85Y-61.3
X105.25Y-54.3
X105.356Y-67.95
X105.6Y-75.7
X105.812Y-65.4
X106.25Y-58.0
X106.327Y-77.002
X107.15Y-65.4
X107.162Y-61.7
X108.3Y-71.9
X108.4Y-61.3
X108.9Y-79.5
X109.012Y-67.2
X109.012Y-70.7
X110.13Y-76.13
X110.2Y-67.7
X111.0Y-74.0
X111.012Y-68.7
X111.55Y-65.1
X111.875Y-75.5
X111.95Y-72.95
X112.75Y-70.8
X112.75Y-71.7
X113.65Y-70.7
X114.05Y-67.65
X114.1Y-61.3
X114.4Y-72.65
X114.5Y-54.8
X114.85Y-58.25
X116.0Y-63.85
X116.2Y-70.95
X116.9Y-65.9
X118.45Y-73.15
X119.2Y-74.9
X119.45Y-73.15
X119.776Y-53.824
X119.85Y-67.65
X119.85Y-68.65
X119.9Y-71.7
X120.05Y-54.65
X120.3Y-62.65
X120.45Y-78.7
X120.85Y-67.65
X120.85Y-68.65
X121.0Y-92.4
X121.5Y-75.3
X121.5Y-77.4
X121.6Y-104.8
X121.8Y-88.15
X121.85Y-67.65
X121.85Y-68.65
X122.5Y-64.6
X122.5Y-97.8
X122.65Y-92.55
X123.35Y-58.0
X123.4Y-60.6
X123.5Y-64.6
X123.5Y-93.1
X124.2Y-102.75
X124.3Y-80.8
X124.4Y-68.3
X125.07Y-66.45
X125.4Y-100.85
X125.5Y-82.9
X125.7Y-60.5
X125.7Y-61.5
X125.7Y-62.5
X125.7Y-63.5
X125.7Y-64.5
X126.35Y-92.55
X126.8Y-82.9
X127.52Y-68.3
X127.75Y-76.0
X127.91Y-90.08
X128.075Y-92.5
X128.2Y-62.0
X128.85Y-61.0
X129.0Y-100.4
X129.05Y-91.5
X129.05Y-92.5
X129.4Y-97.6
X130.05Y-91.5
X130.05Y-92.5
X130.45Y-69.7
X130.675Y-66.95
X130.675Y-72.425
X131.05Y-91.5
X132.05Y-91.5
X132.4Y-103.0
X132.5Y-75.25
X132.5Y-78.5
X133.05Y-91.5
X133.25Y-66.4
X133.25Y-67.5
X133.25Y-71.9
X133.25Y-73.0
X134.05Y-91.5
X134.378Y-72.373
X134.4Y-98.8
X135.05Y-91.5
X135.3Y-75.25
X135.4Y-84.375
X135.536Y-72.312
X136.05Y-89.5
X136.05Y-90.5
X136.05Y-91.5
X136.05Y-92.5
X136.05Y-93.5
X136.5Y-78.5
X137.05Y-87.5
X137.05Y-88.5
X137.05Y-89.5
X137.05Y-90.5
X137.05Y-91.5
X137.05Y-92.5
X137.05Y-93.5
X137.05Y-94.5
X137.05Y-95.5
X137.1Y-66.4
T2
X67.1Y-51.95G85X65.9Y-51.95
G05
X79.1Y-51.95G85X77.9Y-51.95
G05
X109.1Y-51.95G85X107.9Y-51.95
G05
X121.1Y-51.95G85X119.9Y-51.95
G05
X132.425Y-65.36G85X131.825Y-65.36
G05
X132.425Y-74.0G85X131.825Y-74.0
G05
X136.225Y-65.36G85X135.625Y-65.36
G05
X136.225Y-74.0G85X135.625Y-74.0
G05
M30
