G04 #@! TF.GenerationSoftware,KiCad,Pcbnew,8.0.4*
G04 #@! TF.CreationDate,2025-03-14T20:27:20-07:00*
G04 #@! TF.ProjectId,mintypcb,6d696e74-7970-4636-922e-6b696361645f,2*
G04 #@! TF.SameCoordinates,Original*
G04 #@! TF.FileFunction,Legend,Bot*
G04 #@! TF.FilePolarity,Positive*
%FSLAX46Y46*%
G04 Gerber Fmt 4.6, Leading zero omitted, Abs format (unit mm)*
G04 Created by KiCad (PCBNEW 8.0.4) date 2025-03-14 20:27:20*
%MOMM*%
%LPD*%
G01*
G04 APERTURE LIST*
G04 Aperture macros list*
%AMRoundRect*
0 Rectangle with rounded corners*
0 $1 Rounding radius*
0 $2 $3 $4 $5 $6 $7 $8 $9 X,Y pos of 4 corners*
0 Add a 4 corners polygon primitive as box body*
4,1,4,$2,$3,$4,$5,$6,$7,$8,$9,$2,$3,0*
0 Add four circle primitives for the rounded corners*
1,1,$1+$1,$2,$3*
1,1,$1+$1,$4,$5*
1,1,$1+$1,$6,$7*
1,1,$1+$1,$8,$9*
0 Add four rect primitives between the rounded corners*
20,1,$1+$1,$2,$3,$4,$5,0*
20,1,$1+$1,$4,$5,$6,$7,0*
20,1,$1+$1,$6,$7,$8,$9,0*
20,1,$1+$1,$8,$9,$2,$3,0*%
G04 Aperture macros list end*
%ADD10C,0.199194*%
%ADD11C,0.000000*%
%ADD12C,0.150000*%
%ADD13C,0.200000*%
%ADD14C,0.400000*%
%ADD15C,0.120000*%
%ADD16C,0.127000*%
%ADD17C,0.100000*%
%ADD18RoundRect,0.175000X-0.425000X0.175000X-0.425000X-0.175000X0.425000X-0.175000X0.425000X0.175000X0*%
%ADD19RoundRect,0.190000X0.410000X-0.190000X0.410000X0.190000X-0.410000X0.190000X-0.410000X-0.190000X0*%
%ADD20RoundRect,0.200000X0.400000X-0.200000X0.400000X0.200000X-0.400000X0.200000X-0.400000X-0.200000X0*%
%ADD21RoundRect,0.175000X0.425000X-0.175000X0.425000X0.175000X-0.425000X0.175000X-0.425000X-0.175000X0*%
%ADD22RoundRect,0.190000X-0.410000X0.190000X-0.410000X-0.190000X0.410000X-0.190000X0.410000X0.190000X0*%
%ADD23RoundRect,0.200000X-0.400000X0.200000X-0.400000X-0.200000X0.400000X-0.200000X0.400000X0.200000X0*%
%ADD24O,1.700000X1.100000*%
%ADD25C,4.000000*%
%ADD26RoundRect,0.282493X-0.569507X-0.569507X0.569507X-0.569507X0.569507X0.569507X-0.569507X0.569507X0*%
%ADD27RoundRect,0.200000X0.200000X0.275000X-0.200000X0.275000X-0.200000X-0.275000X0.200000X-0.275000X0*%
%ADD28RoundRect,0.325000X-0.325000X0.325000X-0.325000X-0.325000X0.325000X-0.325000X0.325000X0.325000X0*%
%ADD29RoundRect,0.325000X0.325000X0.325000X-0.325000X0.325000X-0.325000X-0.325000X0.325000X-0.325000X0*%
%ADD30RoundRect,0.112500X-0.187500X-0.112500X0.187500X-0.112500X0.187500X0.112500X-0.187500X0.112500X0*%
%ADD31RoundRect,0.225000X0.225000X0.250000X-0.225000X0.250000X-0.225000X-0.250000X0.225000X-0.250000X0*%
%ADD32RoundRect,0.100000X0.712500X0.100000X-0.712500X0.100000X-0.712500X-0.100000X0.712500X-0.100000X0*%
%ADD33RoundRect,0.200000X-0.200000X-0.275000X0.200000X-0.275000X0.200000X0.275000X-0.200000X0.275000X0*%
%ADD34RoundRect,0.200000X0.275000X-0.200000X0.275000X0.200000X-0.275000X0.200000X-0.275000X-0.200000X0*%
%ADD35RoundRect,0.250000X0.475000X-0.250000X0.475000X0.250000X-0.475000X0.250000X-0.475000X-0.250000X0*%
%ADD36RoundRect,0.200000X-0.275000X0.200000X-0.275000X-0.200000X0.275000X-0.200000X0.275000X0.200000X0*%
%ADD37RoundRect,0.200000X0.550000X0.450000X-0.550000X0.450000X-0.550000X-0.450000X0.550000X-0.450000X0*%
%ADD38O,2.300000X1.100000*%
%ADD39RoundRect,0.260000X-0.515000X-0.390000X0.515000X-0.390000X0.515000X0.390000X-0.515000X0.390000X0*%
%ADD40RoundRect,0.200000X0.300000X0.750000X-0.300000X0.750000X-0.300000X-0.750000X0.300000X-0.750000X0*%
%ADD41RoundRect,0.250000X-0.475000X0.250000X-0.475000X-0.250000X0.475000X-0.250000X0.475000X0.250000X0*%
%ADD42RoundRect,0.225000X-0.250000X0.225000X-0.250000X-0.225000X0.250000X-0.225000X0.250000X0.225000X0*%
%ADD43RoundRect,0.250000X-1.500000X0.250000X-1.500000X-0.250000X1.500000X-0.250000X1.500000X0.250000X0*%
%ADD44RoundRect,0.250001X-1.449999X0.499999X-1.449999X-0.499999X1.449999X-0.499999X1.449999X0.499999X0*%
%ADD45RoundRect,0.250000X0.325000X0.650000X-0.325000X0.650000X-0.325000X-0.650000X0.325000X-0.650000X0*%
%ADD46RoundRect,0.235000X1.040000X-0.352500X1.040000X0.352500X-1.040000X0.352500X-1.040000X-0.352500X0*%
%ADD47C,2.000000*%
%ADD48RoundRect,0.250000X-0.325000X-0.650000X0.325000X-0.650000X0.325000X0.650000X-0.325000X0.650000X0*%
%ADD49RoundRect,0.112500X-0.112500X-0.237500X0.112500X-0.237500X0.112500X0.237500X-0.112500X0.237500X0*%
%ADD50RoundRect,0.100000X0.100000X-0.712500X0.100000X0.712500X-0.100000X0.712500X-0.100000X-0.712500X0*%
%ADD51RoundRect,0.112500X-0.112500X0.187500X-0.112500X-0.187500X0.112500X-0.187500X0.112500X0.187500X0*%
%ADD52RoundRect,0.218750X0.218750X0.256250X-0.218750X0.256250X-0.218750X-0.256250X0.218750X-0.256250X0*%
%ADD53RoundRect,0.062500X-0.062500X0.350000X-0.062500X-0.350000X0.062500X-0.350000X0.062500X0.350000X0*%
%ADD54R,2.350000X1.580000*%
%ADD55RoundRect,0.150000X-0.150000X0.587500X-0.150000X-0.587500X0.150000X-0.587500X0.150000X0.587500X0*%
%ADD56R,0.400000X1.000000*%
%ADD57R,2.000000X1.300000*%
%ADD58C,1.300000*%
%ADD59RoundRect,0.150000X0.587500X0.150000X-0.587500X0.150000X-0.587500X-0.150000X0.587500X-0.150000X0*%
%ADD60RoundRect,0.062500X0.062500X-0.350000X0.062500X0.350000X-0.062500X0.350000X-0.062500X-0.350000X0*%
%ADD61RoundRect,0.062500X0.350000X-0.062500X0.350000X0.062500X-0.350000X0.062500X-0.350000X-0.062500X0*%
%ADD62R,1.230000X1.230000*%
%ADD63RoundRect,0.225000X0.250000X-0.225000X0.250000X0.225000X-0.250000X0.225000X-0.250000X-0.225000X0*%
%ADD64RoundRect,0.250000X-0.300000X-0.300000X0.300000X-0.300000X0.300000X0.300000X-0.300000X0.300000X0*%
G04 APERTURE END LIST*
D10*
X92638217Y-55434019D02*
X92635763Y-55434564D01*
X93745875Y-55664187D02*
X93759369Y-55648936D01*
X93474710Y-55619018D02*
X93477125Y-55614697D01*
X93396443Y-55701786D02*
X93400027Y-55699712D01*
X92647504Y-55332152D02*
X92648901Y-55336520D01*
X93673965Y-55712269D02*
X93679580Y-55712470D01*
X93373763Y-55710073D02*
X93375690Y-55710007D01*
X92620976Y-55311057D02*
X92626662Y-55317923D01*
X93275244Y-55672605D02*
X93279216Y-55676940D01*
X93819143Y-55528556D02*
X93820527Y-55520324D01*
X93202745Y-55467725D02*
X93201579Y-55477071D01*
X92615408Y-55305869D02*
X92616212Y-55306519D01*
X93700706Y-55709102D02*
X93704198Y-55706518D01*
X93200374Y-55521809D02*
X93201159Y-55530036D01*
X93216282Y-55408712D02*
X93214997Y-55412727D01*
X92619770Y-55432916D02*
X92615797Y-55431673D01*
X92593835Y-55412716D02*
X92592883Y-55410964D01*
X93449762Y-55654946D02*
X93453285Y-55650512D01*
X94307069Y-55374991D02*
X94307159Y-55376341D01*
X92636591Y-55316403D02*
X92638380Y-55318058D01*
X93392932Y-55703676D02*
X93396443Y-55701786D01*
X92592235Y-55374358D02*
X92593556Y-55366199D01*
X92650344Y-55341683D02*
X92651831Y-55347636D01*
X92656581Y-55400166D02*
X92655887Y-55404906D01*
X93279216Y-55676940D02*
X93282361Y-55679395D01*
X93791996Y-55607305D02*
X93795583Y-55600756D01*
X92662760Y-55454664D02*
X92659772Y-55457711D01*
X93217751Y-55403952D02*
X93216282Y-55408712D01*
X93813970Y-55472752D02*
X93813541Y-55474342D01*
X93809982Y-55397458D02*
X93811206Y-55401490D01*
X93788268Y-55613307D02*
X93791996Y-55607305D01*
X92653362Y-55354375D02*
X92654936Y-55361896D01*
X92638380Y-55318058D02*
X92640143Y-55319852D01*
X92644848Y-55429945D02*
X92643658Y-55431073D01*
X92590924Y-55405814D02*
X92590566Y-55403771D01*
X92648901Y-55336520D02*
X92650344Y-55341683D01*
X93199949Y-55513281D02*
X93200374Y-55521809D01*
X93587907Y-55632022D02*
X93595202Y-55647973D01*
X92610352Y-55309789D02*
X92611316Y-55308654D01*
X93383079Y-55708079D02*
X93386225Y-55706839D01*
X93635373Y-55704847D02*
X93640020Y-55706427D01*
X93814696Y-55468893D02*
X93814355Y-55470941D01*
X93201159Y-55530036D02*
X93202322Y-55537915D01*
X93811206Y-55401490D02*
X93812278Y-55405570D01*
X92632935Y-55313514D02*
X92634775Y-55314888D01*
X93645143Y-55707864D02*
X93650631Y-55709139D01*
X92621354Y-55308243D02*
X92623348Y-55308765D01*
X92623348Y-55308765D02*
X92625316Y-55309430D01*
X92665524Y-55451654D02*
X92662760Y-55454664D01*
X92650008Y-55422863D02*
X92649082Y-55424463D01*
X93821446Y-55472481D02*
X93820027Y-55462840D01*
X92634775Y-55314888D02*
X92636591Y-55316403D01*
X93815757Y-55454564D02*
X93815628Y-55458026D01*
X94305403Y-55386370D02*
X94304968Y-55387061D01*
X93821611Y-55512302D02*
X93822381Y-55504561D01*
X93602198Y-55662346D02*
X93608807Y-55674910D01*
X94304020Y-55359497D02*
X94304562Y-55361535D01*
X92657284Y-55390032D02*
X92657047Y-55395201D01*
X92590566Y-55403771D02*
X92590331Y-55401418D01*
X92602253Y-55426016D02*
X92597181Y-55423469D01*
X92651831Y-55347636D02*
X92653362Y-55354375D01*
X93807063Y-55389455D02*
X93808602Y-55393453D01*
X93805362Y-55385442D02*
X93807063Y-55389455D01*
X93270744Y-55666981D02*
X93275244Y-55672605D01*
X92624572Y-55347713D02*
X92605759Y-55411002D01*
X93542811Y-55516224D02*
X93557505Y-55557101D01*
X93205886Y-55449002D02*
X93204185Y-55458353D01*
X92679223Y-55428156D02*
X92678354Y-55431094D01*
X93704198Y-55706518D02*
X93708569Y-55702759D01*
X93483454Y-55600609D02*
X93485716Y-55592798D01*
X92615797Y-55431673D02*
X92611556Y-55430112D01*
X92643213Y-55340815D02*
X92652576Y-55355195D01*
X93435130Y-55671712D02*
X93438839Y-55667707D01*
X92619335Y-55307865D02*
X92621354Y-55308243D01*
X92590331Y-55401418D02*
X92590211Y-55395879D01*
X93386225Y-55706839D02*
X93389518Y-55705366D01*
X93781619Y-55622261D02*
X93785427Y-55617290D01*
X93212402Y-55421534D02*
X93210009Y-55430547D01*
X92596151Y-55416263D02*
X92594926Y-55414483D01*
D11*
G36*
X55616642Y-73335611D02*
G01*
X55621205Y-73344113D01*
X55625159Y-73352815D01*
X55628506Y-73361689D01*
X55631243Y-73370702D01*
X55633373Y-73379825D01*
X55634894Y-73389029D01*
X55635806Y-73398282D01*
X55636110Y-73407555D01*
X55635806Y-73416818D01*
X55634894Y-73426039D01*
X55633373Y-73435190D01*
X55631243Y-73444240D01*
X55628506Y-73453159D01*
X55625159Y-73461917D01*
X55621205Y-73470483D01*
X55616642Y-73478828D01*
X55614146Y-73482971D01*
X55611527Y-73487008D01*
X55608789Y-73490936D01*
X55605936Y-73494755D01*
X55602969Y-73498462D01*
X55599893Y-73502056D01*
X55596710Y-73505535D01*
X55593425Y-73508898D01*
X55590040Y-73512143D01*
X55586559Y-73515268D01*
X55582984Y-73518272D01*
X55579320Y-73521153D01*
X55575569Y-73523910D01*
X55571735Y-73526540D01*
X55567821Y-73529043D01*
X55563830Y-73531416D01*
X55559766Y-73533658D01*
X55555632Y-73535767D01*
X55551431Y-73537742D01*
X55547166Y-73539580D01*
X55542841Y-73541281D01*
X55538459Y-73542843D01*
X55534023Y-73544264D01*
X55529537Y-73545542D01*
X55525003Y-73546676D01*
X55520426Y-73547664D01*
X55515807Y-73548504D01*
X55511152Y-73549196D01*
X55506462Y-73549736D01*
X55501742Y-73550124D01*
X55496994Y-73550359D01*
X55492222Y-73550437D01*
X50411585Y-73550437D01*
X50402065Y-73550115D01*
X50392655Y-73549159D01*
X50383382Y-73547587D01*
X50374271Y-73545416D01*
X50365348Y-73542663D01*
X50356641Y-73539344D01*
X50348175Y-73535478D01*
X50339977Y-73531080D01*
X50332072Y-73526169D01*
X50324487Y-73520760D01*
X50317249Y-73514872D01*
X50310382Y-73508521D01*
X50303915Y-73501723D01*
X50297872Y-73494498D01*
X50292280Y-73486860D01*
X50287166Y-73478828D01*
X50282603Y-73470326D01*
X50278648Y-73461623D01*
X50275302Y-73452750D01*
X50272564Y-73443737D01*
X50270435Y-73434614D01*
X50268914Y-73425410D01*
X50268001Y-73416157D01*
X50267697Y-73406884D01*
X50268001Y-73397621D01*
X50268914Y-73388399D01*
X50270435Y-73379248D01*
X50272564Y-73370198D01*
X50275302Y-73361279D01*
X50278648Y-73352522D01*
X50282603Y-73343955D01*
X50287166Y-73335611D01*
X50375276Y-73182986D01*
X50799570Y-73182986D01*
X55104246Y-73182986D01*
X52951903Y-69454688D01*
X50799570Y-73182986D01*
X50375276Y-73182986D01*
X52827484Y-68935257D01*
X52829979Y-68931114D01*
X52832598Y-68927077D01*
X52835336Y-68923149D01*
X52838190Y-68919330D01*
X52841156Y-68915623D01*
X52844233Y-68912029D01*
X52847415Y-68908550D01*
X52850700Y-68905187D01*
X52854085Y-68901942D01*
X52857567Y-68898817D01*
X52861141Y-68895813D01*
X52864805Y-68892932D01*
X52868556Y-68890175D01*
X52872390Y-68887545D01*
X52876304Y-68885042D01*
X52880295Y-68882669D01*
X52884359Y-68880427D01*
X52888493Y-68878318D01*
X52892694Y-68876344D01*
X52896959Y-68874505D01*
X52901284Y-68872804D01*
X52905666Y-68871242D01*
X52910102Y-68869821D01*
X52914589Y-68868543D01*
X52919122Y-68867409D01*
X52923700Y-68866421D01*
X52928318Y-68865581D01*
X52932973Y-68864890D01*
X52937663Y-68864349D01*
X52942383Y-68863961D01*
X52947131Y-68863727D01*
X52951903Y-68863648D01*
X52961424Y-68863971D01*
X52970834Y-68864926D01*
X52980107Y-68866498D01*
X52989218Y-68868669D01*
X52998141Y-68871423D01*
X53006848Y-68874741D01*
X53015314Y-68878607D01*
X53023512Y-68883005D01*
X53031417Y-68887916D01*
X53039002Y-68893325D01*
X53046240Y-68899213D01*
X53053107Y-68905564D01*
X53059574Y-68912362D01*
X53065617Y-68919587D01*
X53071209Y-68927225D01*
X53076324Y-68935257D01*
X55528532Y-73182986D01*
X55616642Y-73335611D01*
G37*
D10*
X92640143Y-55319852D02*
X92641881Y-55321785D01*
X92652576Y-55355195D02*
X92657201Y-55362758D01*
X93410960Y-55692560D02*
X93414582Y-55689920D01*
X93342871Y-55704048D02*
X93350263Y-55706059D01*
X93719421Y-55692334D02*
X93732208Y-55679065D01*
X93421646Y-55684358D02*
X93425037Y-55681470D01*
X93202322Y-55537915D02*
X93203875Y-55545399D01*
X93249378Y-55635147D02*
X93260543Y-55652575D01*
X93217737Y-55578948D02*
X93227210Y-55596911D01*
X93516304Y-55441931D02*
X93517974Y-55436939D01*
D12*
X129300000Y-98600000D02*
X129300000Y-99600000D01*
D10*
X92619135Y-55309111D02*
X92619785Y-55309760D01*
X93286645Y-55682053D02*
X93291909Y-55684861D01*
X92598837Y-55341500D02*
X92600888Y-55333843D01*
X92656591Y-55373521D02*
X92657058Y-55379170D01*
X93626582Y-55700383D02*
X93627961Y-55701326D01*
X92654967Y-55409399D02*
X92653825Y-55413623D01*
X92594926Y-55414483D02*
X92593835Y-55412716D01*
X93291909Y-55684861D02*
X93297994Y-55687762D01*
X92647071Y-55427393D02*
X92645986Y-55428718D01*
X93808602Y-55393453D02*
X93809982Y-55397458D01*
X94304562Y-55361535D02*
X94305052Y-55363491D01*
X92640433Y-55433195D02*
X92638217Y-55434019D01*
X94305879Y-55367158D02*
X94306217Y-55368874D01*
X93214997Y-55412727D02*
X93212402Y-55421534D01*
X92592883Y-55410964D02*
X92592077Y-55409228D01*
X93810899Y-55562212D02*
X93813337Y-55553827D01*
X92653825Y-55413623D02*
X92652461Y-55417556D01*
X93418153Y-55687181D02*
X93421646Y-55684358D01*
X92580238Y-55413768D02*
X92624884Y-55357745D01*
X93438839Y-55667707D02*
X93442524Y-55663564D01*
X94306677Y-55383071D02*
X94306429Y-55383979D01*
X93210356Y-55563651D02*
X93217737Y-55578948D01*
X93204185Y-55458353D02*
X93202745Y-55467725D01*
D11*
G36*
X52771587Y-71141630D02*
G01*
X52801637Y-71143035D01*
X52830905Y-71145381D01*
X52859383Y-71148672D01*
X52887064Y-71152911D01*
X52913941Y-71158101D01*
X52940007Y-71164246D01*
X52965257Y-71171349D01*
X52989682Y-71179413D01*
X53013275Y-71188443D01*
X53036031Y-71198442D01*
X53057942Y-71209412D01*
X53079001Y-71221358D01*
X53099202Y-71234282D01*
X53118537Y-71248189D01*
X53137000Y-71263082D01*
X53154914Y-71278799D01*
X53171729Y-71295183D01*
X53187445Y-71312240D01*
X53202062Y-71329976D01*
X53215581Y-71348400D01*
X53228000Y-71367518D01*
X53239320Y-71387336D01*
X53249541Y-71407861D01*
X53258663Y-71429102D01*
X53266686Y-71451063D01*
X53273610Y-71473752D01*
X53279435Y-71497177D01*
X53284161Y-71521343D01*
X53287787Y-71546258D01*
X53290315Y-71571928D01*
X53291744Y-71598361D01*
X52933018Y-71598361D01*
X52932386Y-71586656D01*
X52931370Y-71575277D01*
X52929968Y-71564221D01*
X52928182Y-71553484D01*
X52926012Y-71543063D01*
X52923457Y-71532955D01*
X52920517Y-71523156D01*
X52917192Y-71513662D01*
X52913483Y-71504471D01*
X52909389Y-71495578D01*
X52904910Y-71486981D01*
X52900047Y-71478676D01*
X52894799Y-71470660D01*
X52889167Y-71462928D01*
X52883149Y-71455478D01*
X52876747Y-71448306D01*
X52869603Y-71441905D01*
X52862236Y-71435892D01*
X52854641Y-71430270D01*
X52846817Y-71425043D01*
X52838759Y-71420215D01*
X52830464Y-71415788D01*
X52821929Y-71411767D01*
X52813150Y-71408155D01*
X52804123Y-71404954D01*
X52794846Y-71402169D01*
X52785315Y-71399804D01*
X52775526Y-71397860D01*
X52765476Y-71396343D01*
X52755162Y-71395255D01*
X52744580Y-71394599D01*
X52733726Y-71394380D01*
X52722846Y-71394599D01*
X52712189Y-71395255D01*
X52701760Y-71396343D01*
X52691560Y-71397860D01*
X52681593Y-71399804D01*
X52671864Y-71402169D01*
X52662375Y-71404954D01*
X52653130Y-71408155D01*
X52644132Y-71411767D01*
X52635385Y-71415788D01*
X52626892Y-71420215D01*
X52618657Y-71425043D01*
X52610683Y-71430270D01*
X52602973Y-71435892D01*
X52595531Y-71441905D01*
X52588360Y-71448306D01*
X52581546Y-71455424D01*
X52575172Y-71462717D01*
X52569237Y-71470196D01*
X52563742Y-71477870D01*
X52558686Y-71485751D01*
X52554070Y-71493848D01*
X52549894Y-71502171D01*
X52546157Y-71510731D01*
X52542860Y-71519539D01*
X52540002Y-71528605D01*
X52537584Y-71537938D01*
X52535606Y-71547549D01*
X52534067Y-71557449D01*
X52532968Y-71567648D01*
X52532309Y-71578156D01*
X52532089Y-71588983D01*
X52532446Y-71603709D01*
X52533513Y-71617993D01*
X52535288Y-71631830D01*
X52537768Y-71645217D01*
X52540947Y-71658151D01*
X52544824Y-71670628D01*
X52547023Y-71676694D01*
X52549395Y-71682644D01*
X52551940Y-71688479D01*
X52554656Y-71694197D01*
X52557545Y-71699799D01*
X52560604Y-71705283D01*
X52563835Y-71710650D01*
X52567236Y-71715899D01*
X52570807Y-71721029D01*
X52574547Y-71726040D01*
X52578457Y-71730932D01*
X52582535Y-71735704D01*
X52586782Y-71740356D01*
X52591196Y-71744888D01*
X52595778Y-71749298D01*
X52600527Y-71753587D01*
X52610525Y-71761798D01*
X52621185Y-71769518D01*
X52632725Y-71777184D01*
X52645363Y-71784355D01*
X52659101Y-71791032D01*
X52673938Y-71797214D01*
X52689874Y-71802901D01*
X52706910Y-71808094D01*
X52725044Y-71812793D01*
X52744277Y-71816996D01*
X52764609Y-71820706D01*
X52786040Y-71823920D01*
X52808570Y-71826640D01*
X52832200Y-71828866D01*
X52856928Y-71830597D01*
X52882755Y-71831833D01*
X52937707Y-71832822D01*
X52937707Y-72107142D01*
X52914261Y-72107142D01*
X52887966Y-72107363D01*
X52862712Y-72108026D01*
X52838495Y-72109136D01*
X52815311Y-72110696D01*
X52793158Y-72112709D01*
X52772032Y-72115179D01*
X52751930Y-72118109D01*
X52732847Y-72121503D01*
X52714781Y-72125364D01*
X52697728Y-72129695D01*
X52681685Y-72134501D01*
X52666648Y-72139784D01*
X52652614Y-72145547D01*
X52639580Y-72151795D01*
X52627541Y-72158531D01*
X52616495Y-72165758D01*
X52606687Y-72173066D01*
X52597487Y-72180924D01*
X52588898Y-72189332D01*
X52580923Y-72198289D01*
X52573567Y-72207796D01*
X52566833Y-72217852D01*
X52560723Y-72228458D01*
X52555242Y-72239613D01*
X52550394Y-72251318D01*
X52546180Y-72263572D01*
X52542605Y-72276376D01*
X52539673Y-72289729D01*
X52537386Y-72303632D01*
X52535748Y-72318084D01*
X52534763Y-72333086D01*
X52534434Y-72348637D01*
X52534654Y-72360809D01*
X52535318Y-72372706D01*
X52536428Y-72384329D01*
X52537988Y-72395676D01*
X52540001Y-72406749D01*
X52542471Y-72417547D01*
X52545401Y-72428070D01*
X52548795Y-72438319D01*
X52552656Y-72448292D01*
X52556987Y-72457991D01*
X52561792Y-72467416D01*
X52567075Y-72476565D01*
X52572839Y-72485440D01*
X52579087Y-72494040D01*
X52585823Y-72502365D01*
X52593049Y-72510416D01*
X52600660Y-72517669D01*
X52608541Y-72524479D01*
X52616691Y-72530842D01*
X52625104Y-72536756D01*
X52633779Y-72542216D01*
X52642712Y-72547220D01*
X52651899Y-72551763D01*
X52661336Y-72555843D01*
X52671021Y-72559455D01*
X52680949Y-72562597D01*
X52691118Y-72565265D01*
X52701524Y-72567456D01*
X52712164Y-72569166D01*
X52723033Y-72570391D01*
X52734130Y-72571129D01*
X52745449Y-72571376D01*
X52757594Y-72571156D01*
X52769408Y-72570497D01*
X52780893Y-72569397D01*
X52792048Y-72567859D01*
X52802874Y-72565881D01*
X52813370Y-72563463D01*
X52823536Y-72560605D01*
X52833372Y-72557308D01*
X52842879Y-72553571D01*
X52852056Y-72549395D01*
X52860903Y-72544779D01*
X52869421Y-72539723D01*
X52877608Y-72534228D01*
X52885466Y-72528293D01*
X52892995Y-72521919D01*
X52900194Y-72515105D01*
X52906595Y-72507879D01*
X52912613Y-72500268D01*
X52918245Y-72492272D01*
X52923493Y-72483892D01*
X52928356Y-72475127D01*
X52932835Y-72465978D01*
X52936929Y-72456444D01*
X52940638Y-72446525D01*
X52943963Y-72436221D01*
X52946903Y-72425533D01*
X52949458Y-72414461D01*
X52951629Y-72403003D01*
X52953415Y-72391161D01*
X52954816Y-72378934D01*
X52955832Y-72366323D01*
X52956464Y-72353327D01*
X53312845Y-72353327D01*
X53312845Y-72362705D01*
X53312296Y-72391280D01*
X53310647Y-72418976D01*
X53307900Y-72445792D01*
X53304053Y-72471730D01*
X53299107Y-72496788D01*
X53293063Y-72520966D01*
X53285919Y-72544266D01*
X53277676Y-72566686D01*
X53268334Y-72588227D01*
X53257894Y-72608889D01*
X53246354Y-72628672D01*
X53233715Y-72647575D01*
X53219977Y-72665600D01*
X53205140Y-72682745D01*
X53189204Y-72699010D01*
X53172169Y-72714397D01*
X53154118Y-72728877D01*
X53135136Y-72742422D01*
X53115227Y-72755034D01*
X53094394Y-72766711D01*
X53072640Y-72777454D01*
X53049970Y-72787263D01*
X53026385Y-72796138D01*
X53001891Y-72804078D01*
X52976490Y-72811085D01*
X52950186Y-72817157D01*
X52922982Y-72822295D01*
X52894882Y-72826499D01*
X52865888Y-72829768D01*
X52836005Y-72832104D01*
X52805236Y-72833505D01*
X52773585Y-72833972D01*
X52741823Y-72833450D01*
X52710724Y-72831879D01*
X52680292Y-72829258D01*
X52650529Y-72825583D01*
X52621439Y-72820850D01*
X52593027Y-72815055D01*
X52565294Y-72808196D01*
X52538244Y-72800268D01*
X52511881Y-72791269D01*
X52486209Y-72781196D01*
X52461231Y-72770043D01*
X52436949Y-72757809D01*
X52413369Y-72744489D01*
X52390492Y-72730081D01*
X52368323Y-72714581D01*
X52346865Y-72697985D01*
X52326010Y-72680565D01*
X52306526Y-72662596D01*
X52288408Y-72644077D01*
X52271654Y-72625009D01*
X52256260Y-72605391D01*
X52242223Y-72585224D01*
X52229539Y-72564507D01*
X52218204Y-72543240D01*
X52208216Y-72521424D01*
X52199571Y-72499059D01*
X52192265Y-72476144D01*
X52186296Y-72452680D01*
X52181658Y-72428666D01*
X52178350Y-72404102D01*
X52176368Y-72378989D01*
X52175708Y-72353327D01*
X52176038Y-72335467D01*
X52177027Y-72317938D01*
X52178676Y-72300738D01*
X52180984Y-72283868D01*
X52183951Y-72267327D01*
X52187578Y-72251116D01*
X52191864Y-72235235D01*
X52196810Y-72219684D01*
X52202415Y-72204462D01*
X52208679Y-72189570D01*
X52215603Y-72175008D01*
X52223187Y-72160775D01*
X52231429Y-72146872D01*
X52240332Y-72133299D01*
X52249893Y-72120056D01*
X52260114Y-72107142D01*
X52270967Y-72094613D01*
X52282420Y-72082519D01*
X52294471Y-72070858D01*
X52307116Y-72059627D01*
X52320352Y-72048822D01*
X52334176Y-72038439D01*
X52348583Y-72028475D01*
X52363570Y-72018926D01*
X52379135Y-72009790D01*
X52395273Y-72001062D01*
X52411981Y-71992740D01*
X52429256Y-71984819D01*
X52447094Y-71977297D01*
X52465492Y-71970170D01*
X52484447Y-71963435D01*
X52503954Y-71957087D01*
X52484474Y-71950768D01*
X52465602Y-71944118D01*
X52447342Y-71937139D01*
X52429696Y-71929831D01*
X52412668Y-71922193D01*
X52396262Y-71914224D01*
X52380481Y-71905927D01*
X52365329Y-71897299D01*
X52350808Y-71888342D01*
X52336923Y-71879055D01*
X52323677Y-71869439D01*
X52311073Y-71859492D01*
X52299115Y-71849216D01*
X52287805Y-71838611D01*
X52277149Y-71827675D01*
X52267148Y-71816410D01*
X52257779Y-71804402D01*
X52249014Y-71792112D01*
X52240854Y-71779534D01*
X52233298Y-71766661D01*
X52226346Y-71753485D01*
X52220000Y-71740000D01*
X52214257Y-71726199D01*
X52209119Y-71712075D01*
X52204586Y-71697622D01*
X52200657Y-71682831D01*
X52197332Y-71667698D01*
X52194612Y-71652214D01*
X52192496Y-71636373D01*
X52190985Y-71620168D01*
X52190078Y-71603592D01*
X52189776Y-71586638D01*
X52190354Y-71563146D01*
X52192089Y-71540149D01*
X52194984Y-71517646D01*
X52199045Y-71495638D01*
X52204272Y-71474124D01*
X52210671Y-71453105D01*
X52218245Y-71432581D01*
X52226997Y-71412551D01*
X52236930Y-71393015D01*
X52248048Y-71373974D01*
X52260354Y-71355428D01*
X52273852Y-71337376D01*
X52288545Y-71319819D01*
X52304437Y-71302757D01*
X52321531Y-71286189D01*
X52339831Y-71270115D01*
X52359119Y-71254371D01*
X52379177Y-71239667D01*
X52400003Y-71226001D01*
X52421599Y-71213368D01*
X52443965Y-71201766D01*
X52467100Y-71191191D01*
X52491004Y-71181639D01*
X52515677Y-71173107D01*
X52541120Y-71165592D01*
X52567332Y-71159090D01*
X52594313Y-71153598D01*
X52622064Y-71149112D01*
X52650584Y-71145628D01*
X52679873Y-71143145D01*
X52709932Y-71141657D01*
X52740760Y-71141162D01*
X52771587Y-71141630D01*
G37*
D10*
X92643593Y-55323856D02*
X92644215Y-55324734D01*
X93238012Y-55616118D02*
X93249378Y-55635147D01*
X93485716Y-55592798D02*
X93490521Y-55572280D01*
X92678354Y-55431094D02*
X92677239Y-55434019D01*
X92677239Y-55434019D02*
X92675880Y-55436938D01*
X93820527Y-55520324D02*
X93821611Y-55512302D01*
X92665869Y-55378118D02*
X92669724Y-55385708D01*
X93820027Y-55462840D02*
X93818253Y-55452893D01*
X93815746Y-55432268D02*
X93815866Y-55437286D01*
X93327377Y-55699201D02*
X93335189Y-55701743D01*
X92620399Y-55310408D02*
X92620692Y-55310733D01*
X94306217Y-55368874D02*
X94306505Y-55370514D01*
X92634692Y-55448319D02*
X92629379Y-55444927D01*
X93815866Y-55437286D02*
X93815898Y-55442151D01*
X92626928Y-55434472D02*
X92623479Y-55433848D01*
X93795583Y-55600756D02*
X93799015Y-55593728D01*
X92668061Y-55448675D02*
X92665524Y-55451654D01*
X92680319Y-55419210D02*
X92680296Y-55420720D01*
X93818253Y-55452893D02*
X93816202Y-55442802D01*
X92676008Y-55400196D02*
X92678250Y-55406887D01*
X92613125Y-55307601D02*
X92615220Y-55307544D01*
X93814993Y-55466593D02*
X93814696Y-55468893D01*
X92590211Y-55395879D02*
X92590518Y-55389393D01*
X93796846Y-55368812D02*
X93799239Y-55373098D01*
X92645986Y-55428718D02*
X92644848Y-55429945D01*
X94306931Y-55373570D02*
X94307069Y-55374991D01*
X93472104Y-55623424D02*
X93474710Y-55619018D01*
X94305792Y-55385627D02*
X94305403Y-55386370D01*
X92669724Y-55385708D02*
X92673135Y-55393102D01*
X93817474Y-55536929D02*
X93819143Y-55528556D01*
X92655887Y-55404906D02*
X92654967Y-55409399D01*
X92651092Y-55457873D02*
X92645594Y-55454807D01*
X92641881Y-55321785D02*
X92643593Y-55323856D01*
X92624219Y-55441458D02*
X92619255Y-55437926D01*
X93428301Y-55678531D02*
X93431413Y-55675559D01*
X93357207Y-55707723D02*
X93363544Y-55708983D01*
X93785427Y-55617290D02*
X93788268Y-55613307D01*
X93500644Y-55519980D02*
X93510267Y-55468522D01*
X92657201Y-55362758D02*
X92661663Y-55370433D01*
X93713688Y-55697979D02*
X93719421Y-55692334D01*
X92675880Y-55436938D02*
X92674280Y-55439857D01*
X94292000Y-55320743D02*
X94296708Y-55335611D01*
X93822436Y-55481652D02*
X93821446Y-55472481D01*
X93523393Y-55455870D02*
X93529398Y-55475550D01*
X92611556Y-55430112D02*
X92607043Y-55428229D01*
X93203875Y-55545399D02*
X93205833Y-55552444D01*
X93210009Y-55430547D02*
X93207832Y-55439718D01*
X93304742Y-55690702D02*
X93311995Y-55693626D01*
X94306429Y-55383979D02*
X94306134Y-55384830D01*
X93809131Y-55413291D02*
X93796846Y-55368812D01*
X93814355Y-55470941D02*
X93813970Y-55472752D01*
X93620507Y-55693680D02*
X93625421Y-55699420D01*
X92614535Y-55434346D02*
X92610102Y-55430733D01*
X93400027Y-55699712D02*
X93403657Y-55697472D01*
X93431413Y-55675559D02*
X93435130Y-55671712D01*
X92629176Y-55311188D02*
X92631068Y-55312280D01*
X92617290Y-55307632D02*
X92619335Y-55307865D01*
X92646153Y-55328582D02*
X92647504Y-55332152D01*
X92606002Y-55427103D02*
X92602280Y-55423472D01*
X92600888Y-55333843D02*
X92603010Y-55326799D01*
X92640112Y-55451617D02*
X92634692Y-55448319D01*
X94251955Y-55326618D02*
X94284012Y-55380225D01*
X93529398Y-55475550D02*
X93542811Y-55516224D01*
X93811682Y-55478375D02*
X93811370Y-55478782D01*
X93813984Y-55413963D02*
X93814625Y-55418317D01*
X93297994Y-55687762D02*
X93304742Y-55690702D01*
X93311995Y-55693626D02*
X93319592Y-55696477D01*
X93640020Y-55706427D02*
X93645143Y-55707864D01*
X93201579Y-55477071D02*
X93200701Y-55486346D01*
X94306743Y-55372079D02*
X94306931Y-55373570D01*
X93759369Y-55648936D02*
X93771635Y-55634549D01*
X92680296Y-55420720D02*
X92680208Y-55422221D01*
X93801453Y-55377285D02*
X93803493Y-55381392D01*
X92597181Y-55423469D02*
X92591825Y-55420583D01*
X92643658Y-55431073D02*
X92642416Y-55432098D01*
X94307134Y-55379990D02*
X94307030Y-55381078D01*
X92679766Y-55413074D02*
X92680002Y-55414624D01*
D11*
G36*
X53837648Y-72798803D02*
G01*
X53542227Y-72798803D01*
X53542227Y-72484625D01*
X53837648Y-72484625D01*
X53837648Y-72798803D01*
G37*
D10*
X93595202Y-55647973D02*
X93602198Y-55662346D01*
X93608807Y-55674910D02*
X93614939Y-55685432D01*
X93199872Y-55504497D02*
X93199949Y-55513281D01*
X93822921Y-55490192D02*
X93822436Y-55481652D01*
X92661663Y-55370433D02*
X92665869Y-55378118D01*
X92631068Y-55312280D02*
X92632935Y-55313514D01*
X93684882Y-55712403D02*
X93689759Y-55712051D01*
X94305491Y-55365364D02*
X94305879Y-55367158D01*
X92680173Y-55416163D02*
X92680278Y-55417692D01*
X93815459Y-55461174D02*
X93815247Y-55464025D01*
X92591422Y-55407511D02*
X92590924Y-55405814D01*
D11*
G36*
X114994906Y-64945688D02*
G01*
X114996339Y-64945795D01*
X114997766Y-64945971D01*
X114999183Y-64946214D01*
X115000588Y-64946522D01*
X115001981Y-64946894D01*
X115003358Y-64947328D01*
X115004717Y-64947822D01*
X115006057Y-64948375D01*
X115007375Y-64948984D01*
X115009937Y-64950366D01*
X115012385Y-64951952D01*
X115014704Y-64953731D01*
X115016875Y-64955686D01*
X115018882Y-64957805D01*
X115020707Y-64960072D01*
X115021547Y-64961258D01*
X115022334Y-64962475D01*
X115023068Y-64963723D01*
X115023746Y-64964999D01*
X115024365Y-64966302D01*
X115024925Y-64967629D01*
X115025422Y-64968980D01*
X115025854Y-64970353D01*
X115026220Y-64971745D01*
X115026517Y-64973155D01*
X115145880Y-65614604D01*
X115146548Y-65617452D01*
X115147465Y-65620309D01*
X115148615Y-65623157D01*
X115149983Y-65625978D01*
X115151552Y-65628752D01*
X115153308Y-65631462D01*
X115155232Y-65634088D01*
X115157311Y-65636612D01*
X115159528Y-65639016D01*
X115161866Y-65641280D01*
X115164311Y-65643386D01*
X115166846Y-65645316D01*
X115169456Y-65647050D01*
X115172123Y-65648571D01*
X115174833Y-65649859D01*
X115177570Y-65650896D01*
X115607529Y-65826886D01*
X115610207Y-65828062D01*
X115613045Y-65829044D01*
X115616019Y-65829834D01*
X115619105Y-65830434D01*
X115622276Y-65830846D01*
X115625508Y-65831070D01*
X115628776Y-65831109D01*
X115632056Y-65830965D01*
X115635321Y-65830640D01*
X115638549Y-65830134D01*
X115641712Y-65829450D01*
X115644787Y-65828589D01*
X115647749Y-65827554D01*
X115650573Y-65826345D01*
X115653233Y-65824965D01*
X115655705Y-65823416D01*
X116191560Y-65455666D01*
X116192771Y-65454879D01*
X116194017Y-65454154D01*
X116195297Y-65453490D01*
X116196606Y-65452887D01*
X116197944Y-65452344D01*
X116199305Y-65451861D01*
X116202092Y-65451075D01*
X116204945Y-65450527D01*
X116207843Y-65450215D01*
X116210762Y-65450136D01*
X116213682Y-65450290D01*
X116216580Y-65450673D01*
X116219434Y-65451285D01*
X116222223Y-65452122D01*
X116224925Y-65453183D01*
X116227517Y-65454466D01*
X116228765Y-65455190D01*
X116229977Y-65455969D01*
X116231151Y-65456802D01*
X116232285Y-65457690D01*
X116233374Y-65458632D01*
X116234417Y-65459627D01*
X116685767Y-65910939D01*
X116686759Y-65911985D01*
X116687697Y-65913078D01*
X116688583Y-65914214D01*
X116689414Y-65915391D01*
X116690191Y-65916606D01*
X116690914Y-65917857D01*
X116691582Y-65919140D01*
X116692195Y-65920453D01*
X116692753Y-65921793D01*
X116693255Y-65923157D01*
X116694092Y-65925948D01*
X116694705Y-65928804D01*
X116695090Y-65931702D01*
X116695245Y-65934622D01*
X116695169Y-65937540D01*
X116694859Y-65940435D01*
X116694616Y-65941867D01*
X116694313Y-65943285D01*
X116693951Y-65944686D01*
X116693529Y-65946068D01*
X116693048Y-65947427D01*
X116692505Y-65948762D01*
X116691903Y-65950069D01*
X116691239Y-65951345D01*
X116690514Y-65952588D01*
X116689728Y-65953795D01*
X116328354Y-66480446D01*
X116326813Y-66482935D01*
X116325445Y-66485605D01*
X116324252Y-66488432D01*
X116323235Y-66491392D01*
X116322397Y-66494459D01*
X116321737Y-66497610D01*
X116321259Y-66500821D01*
X116320964Y-66504067D01*
X116320853Y-66507324D01*
X116320928Y-66510568D01*
X116321191Y-66513774D01*
X116321643Y-66516919D01*
X116322285Y-66519978D01*
X116323120Y-66522926D01*
X116324149Y-66525740D01*
X116325373Y-66528395D01*
X116515511Y-66971898D01*
X116516018Y-66973262D01*
X116516590Y-66974621D01*
X116517917Y-66977320D01*
X116519476Y-66979977D01*
X116521246Y-66982577D01*
X116523210Y-66985104D01*
X116525348Y-66987542D01*
X116527642Y-66989875D01*
X116530073Y-66992086D01*
X116532622Y-66994160D01*
X116535272Y-66996080D01*
X116538002Y-66997830D01*
X116540795Y-66999395D01*
X116543632Y-67000758D01*
X116546494Y-67001903D01*
X116549362Y-67002814D01*
X116550792Y-67003176D01*
X116552218Y-67003475D01*
X117172352Y-67118802D01*
X117173766Y-67119105D01*
X117175160Y-67119477D01*
X117176535Y-67119915D01*
X117177888Y-67120417D01*
X117179218Y-67120981D01*
X117180522Y-67121604D01*
X117181799Y-67122286D01*
X117183048Y-67123022D01*
X117184265Y-67123813D01*
X117185451Y-67124654D01*
X117186603Y-67125546D01*
X117187719Y-67126484D01*
X117188797Y-67127467D01*
X117189836Y-67128493D01*
X117190835Y-67129561D01*
X117191790Y-67130667D01*
X117192702Y-67131809D01*
X117193567Y-67132987D01*
X117194384Y-67134196D01*
X117195151Y-67135437D01*
X117195867Y-67136705D01*
X117196530Y-67138000D01*
X117197138Y-67139318D01*
X117197690Y-67140659D01*
X117198183Y-67142020D01*
X117198616Y-67143398D01*
X117198987Y-67144792D01*
X117199295Y-67146200D01*
X117199537Y-67147619D01*
X117199712Y-67149048D01*
X117199819Y-67150484D01*
X117199854Y-67151925D01*
X117199817Y-67790206D01*
X117199781Y-67791647D01*
X117199674Y-67793084D01*
X117199498Y-67794514D01*
X117199255Y-67795935D01*
X117198947Y-67797345D01*
X117198575Y-67798742D01*
X117198141Y-67800123D01*
X117197647Y-67801487D01*
X117196485Y-67804154D01*
X117195104Y-67806724D01*
X117193517Y-67809180D01*
X117191739Y-67811506D01*
X117189783Y-67813684D01*
X117187664Y-67815696D01*
X117185397Y-67817526D01*
X117184211Y-67818367D01*
X117182994Y-67819156D01*
X117181746Y-67819890D01*
X117180470Y-67820568D01*
X117179167Y-67821187D01*
X117177840Y-67821746D01*
X117176489Y-67822241D01*
X117175116Y-67822672D01*
X117173724Y-67823035D01*
X117172315Y-67823328D01*
X116567384Y-67935902D01*
X116565963Y-67936194D01*
X116564538Y-67936552D01*
X116561686Y-67937457D01*
X116558846Y-67938602D01*
X116556037Y-67939969D01*
X116553277Y-67941543D01*
X116550585Y-67943305D01*
X116547980Y-67945241D01*
X116545479Y-67947333D01*
X116543102Y-67949564D01*
X116540866Y-67951919D01*
X116538791Y-67954380D01*
X116536895Y-67956932D01*
X116535196Y-67959556D01*
X116533713Y-67962238D01*
X116532464Y-67964959D01*
X116531934Y-67966330D01*
X116531469Y-67967705D01*
X116342614Y-68439464D01*
X116341445Y-68442148D01*
X116340470Y-68444990D01*
X116339687Y-68447965D01*
X116339094Y-68451050D01*
X116338690Y-68454220D01*
X116338473Y-68457449D01*
X116338440Y-68460715D01*
X116338591Y-68463991D01*
X116338924Y-68467253D01*
X116339437Y-68470477D01*
X116340128Y-68473638D01*
X116340996Y-68476712D01*
X116342038Y-68479674D01*
X116343254Y-68482498D01*
X116344641Y-68485162D01*
X116346198Y-68487640D01*
X116689803Y-68988373D01*
X116690586Y-68989580D01*
X116691308Y-68990824D01*
X116691969Y-68992101D01*
X116692570Y-68993408D01*
X116693110Y-68994743D01*
X116693591Y-68996104D01*
X116694373Y-68998889D01*
X116694918Y-69001742D01*
X116695228Y-69004640D01*
X116695305Y-69007562D01*
X116695151Y-69010485D01*
X116694768Y-69013387D01*
X116694158Y-69016246D01*
X116693323Y-69019040D01*
X116692265Y-69021747D01*
X116690986Y-69024346D01*
X116690264Y-69025597D01*
X116689488Y-69026813D01*
X116688657Y-69027991D01*
X116687772Y-69029127D01*
X116686834Y-69030220D01*
X116685842Y-69031266D01*
X116234454Y-69482579D01*
X116233412Y-69483568D01*
X116232322Y-69484503D01*
X116231189Y-69485384D01*
X116230015Y-69486212D01*
X116228802Y-69486986D01*
X116227554Y-69487706D01*
X116226273Y-69488370D01*
X116224962Y-69488981D01*
X116223624Y-69489536D01*
X116222261Y-69490036D01*
X116219472Y-69490868D01*
X116216617Y-69491477D01*
X116213719Y-69491860D01*
X116210800Y-69492014D01*
X116207880Y-69491938D01*
X116204983Y-69491631D01*
X116203550Y-69491389D01*
X116202130Y-69491089D01*
X116200727Y-69490729D01*
X116199343Y-69490311D01*
X116197981Y-69489833D01*
X116196644Y-69489295D01*
X116195335Y-69488697D01*
X116194055Y-69488039D01*
X116192809Y-69487320D01*
X116191598Y-69486540D01*
X115699731Y-69148933D01*
X115697258Y-69147400D01*
X115694608Y-69146055D01*
X115691807Y-69144898D01*
X115688877Y-69143931D01*
X115685844Y-69143154D01*
X115682731Y-69142567D01*
X115679563Y-69142172D01*
X115676365Y-69141968D01*
X115673159Y-69141956D01*
X115669971Y-69142138D01*
X115666826Y-69142512D01*
X115663746Y-69143081D01*
X115660757Y-69143845D01*
X115657882Y-69144804D01*
X115655146Y-69145959D01*
X115652574Y-69147311D01*
X115435651Y-69263128D01*
X115434357Y-69263748D01*
X115433052Y-69264293D01*
X115431738Y-69264764D01*
X115430418Y-69265162D01*
X115429093Y-69265487D01*
X115427766Y-69265741D01*
X115426439Y-69265924D01*
X115425115Y-69266037D01*
X115423795Y-69266081D01*
X115422483Y-69266057D01*
X115421180Y-69265966D01*
X115419888Y-69265808D01*
X115418610Y-69265585D01*
X115417349Y-69265296D01*
X115416106Y-69264944D01*
X115414883Y-69264529D01*
X115413684Y-69264051D01*
X115412510Y-69263513D01*
X115411363Y-69262913D01*
X115410246Y-69262254D01*
X115409161Y-69261536D01*
X115408111Y-69260760D01*
X115407097Y-69259927D01*
X115406123Y-69259038D01*
X115405189Y-69258094D01*
X115404299Y-69257094D01*
X115403455Y-69256041D01*
X115402659Y-69254935D01*
X115401913Y-69253778D01*
X115401220Y-69252568D01*
X115400582Y-69251309D01*
X115400000Y-69250000D01*
X114952725Y-68169273D01*
X114952204Y-68167928D01*
X114951752Y-68166564D01*
X114951368Y-68165181D01*
X114951050Y-68163783D01*
X114950799Y-68162372D01*
X114950612Y-68160951D01*
X114950431Y-68158090D01*
X114950501Y-68155218D01*
X114950814Y-68152357D01*
X114951365Y-68149528D01*
X114952145Y-68146751D01*
X114953149Y-68144046D01*
X114954369Y-68141434D01*
X114955798Y-68138936D01*
X114957431Y-68136572D01*
X114959259Y-68134362D01*
X114960245Y-68133322D01*
X114961277Y-68132328D01*
X114962355Y-68131384D01*
X114963477Y-68130490D01*
X114964644Y-68129651D01*
X114965853Y-68128869D01*
X115020141Y-68095633D01*
X115024059Y-68093144D01*
X115028237Y-68090304D01*
X115032598Y-68087173D01*
X115037066Y-68083815D01*
X115041563Y-68080290D01*
X115046014Y-68076661D01*
X115050343Y-68072990D01*
X115054471Y-68069338D01*
X115090402Y-68044739D01*
X115124695Y-68018032D01*
X115157255Y-67989307D01*
X115187989Y-67958660D01*
X115216803Y-67926182D01*
X115243604Y-67891967D01*
X115268297Y-67856108D01*
X115290789Y-67818698D01*
X115310987Y-67779830D01*
X115320195Y-67759878D01*
X115328795Y-67739596D01*
X115336775Y-67718997D01*
X115344121Y-67698091D01*
X115350824Y-67676891D01*
X115356871Y-67655407D01*
X115362251Y-67633652D01*
X115366951Y-67611637D01*
X115370960Y-67589374D01*
X115374267Y-67566875D01*
X115376859Y-67544150D01*
X115378725Y-67521213D01*
X115379853Y-67498073D01*
X115380232Y-67474744D01*
X115379314Y-67438418D01*
X115376587Y-67402570D01*
X115372098Y-67367243D01*
X115365890Y-67332481D01*
X115358007Y-67298329D01*
X115348494Y-67264832D01*
X115337396Y-67232034D01*
X115324756Y-67199978D01*
X115310619Y-67168710D01*
X115295030Y-67138274D01*
X115278032Y-67108713D01*
X115259670Y-67080073D01*
X115239989Y-67052398D01*
X115219033Y-67025732D01*
X115196845Y-67000119D01*
X115173472Y-66975605D01*
X115148956Y-66952232D01*
X115123343Y-66930046D01*
X115096676Y-66909091D01*
X115069001Y-66889411D01*
X115040361Y-66871050D01*
X115010801Y-66854053D01*
X114980364Y-66838465D01*
X114949097Y-66824329D01*
X114917042Y-66811691D01*
X114884245Y-66800593D01*
X114850749Y-66791081D01*
X114816599Y-66783199D01*
X114781840Y-66776992D01*
X114746515Y-66772503D01*
X114710669Y-66769777D01*
X114674347Y-66768858D01*
X114638025Y-66769777D01*
X114602180Y-66772503D01*
X114566856Y-66776992D01*
X114532097Y-66783199D01*
X114497948Y-66791081D01*
X114464453Y-66800593D01*
X114431657Y-66811691D01*
X114399604Y-66824329D01*
X114368337Y-66838465D01*
X114337903Y-66854053D01*
X114308344Y-66871050D01*
X114279706Y-66889411D01*
X114252032Y-66909091D01*
X114225367Y-66930046D01*
X114199755Y-66952232D01*
X114175242Y-66975605D01*
X114151870Y-67000119D01*
X114129684Y-67025732D01*
X114108730Y-67052398D01*
X114089050Y-67080073D01*
X114070690Y-67108713D01*
X114053694Y-67138274D01*
X114038106Y-67168710D01*
X114023971Y-67199978D01*
X114011332Y-67232034D01*
X114000235Y-67264832D01*
X113990723Y-67298329D01*
X113982841Y-67332481D01*
X113976633Y-67367243D01*
X113972145Y-67402570D01*
X113969419Y-67438418D01*
X113968500Y-67474744D01*
X113970007Y-67521213D01*
X113974464Y-67566875D01*
X113981778Y-67611637D01*
X113991856Y-67655407D01*
X114004604Y-67698091D01*
X114019927Y-67739596D01*
X114037734Y-67779830D01*
X114057929Y-67818698D01*
X114080420Y-67856108D01*
X114105112Y-67891967D01*
X114131913Y-67926182D01*
X114160728Y-67958660D01*
X114191464Y-67989307D01*
X114224027Y-68018032D01*
X114258324Y-68044739D01*
X114294261Y-68069338D01*
X114298367Y-68072990D01*
X114302680Y-68076661D01*
X114307122Y-68080290D01*
X114311615Y-68083815D01*
X114316079Y-68087173D01*
X114320437Y-68090304D01*
X114324609Y-68093144D01*
X114328516Y-68095633D01*
X114382804Y-68128869D01*
X114384006Y-68129651D01*
X114385167Y-68130490D01*
X114386284Y-68131384D01*
X114387357Y-68132328D01*
X114388385Y-68133322D01*
X114389367Y-68134362D01*
X114390302Y-68135447D01*
X114391189Y-68136572D01*
X114392028Y-68137736D01*
X114392818Y-68138936D01*
X114393557Y-68140169D01*
X114394245Y-68141434D01*
X114394882Y-68142727D01*
X114395465Y-68144046D01*
X114395995Y-68145388D01*
X114396470Y-68146751D01*
X114396889Y-68148132D01*
X114397252Y-68149528D01*
X114397558Y-68150938D01*
X114397806Y-68152357D01*
X114397995Y-68153785D01*
X114398124Y-68155218D01*
X114398192Y-68156654D01*
X114398199Y-68158090D01*
X114398143Y-68159523D01*
X114398024Y-68160951D01*
X114397841Y-68162372D01*
X114397593Y-68163783D01*
X114397279Y-68165181D01*
X114396898Y-68166564D01*
X114396449Y-68167928D01*
X114395932Y-68169273D01*
X113948694Y-69250038D01*
X113948113Y-69251347D01*
X113947475Y-69252606D01*
X113946783Y-69253814D01*
X113946037Y-69254972D01*
X113945242Y-69256077D01*
X113944399Y-69257129D01*
X113943510Y-69258127D01*
X113942577Y-69259071D01*
X113941604Y-69259959D01*
X113940591Y-69260791D01*
X113939542Y-69261565D01*
X113938458Y-69262282D01*
X113937343Y-69262940D01*
X113936197Y-69263538D01*
X113935024Y-69264076D01*
X113933826Y-69264553D01*
X113932604Y-69264967D01*
X113931361Y-69265319D01*
X113930100Y-69265606D01*
X113928823Y-69265829D01*
X113927531Y-69265987D01*
X113926228Y-69266079D01*
X113924915Y-69266103D01*
X113923595Y-69266059D01*
X113922270Y-69265947D01*
X113920942Y-69265765D01*
X113919614Y-69265513D01*
X113918287Y-69265189D01*
X113916965Y-69264794D01*
X113915648Y-69264325D01*
X113914340Y-69263783D01*
X113913043Y-69263167D01*
X113696121Y-69147348D01*
X113693542Y-69145996D01*
X113690802Y-69144840D01*
X113687924Y-69143879D01*
X113684933Y-69143114D01*
X113681852Y-69142542D01*
X113678707Y-69142165D01*
X113675520Y-69141982D01*
X113672316Y-69141991D01*
X113669119Y-69142194D01*
X113665954Y-69142588D01*
X113662843Y-69143175D01*
X113659812Y-69143953D01*
X113656885Y-69144922D01*
X113654085Y-69146082D01*
X113651436Y-69147431D01*
X113648964Y-69148971D01*
X113157059Y-69486578D01*
X113155852Y-69487357D01*
X113154608Y-69488076D01*
X113153331Y-69488734D01*
X113152024Y-69489332D01*
X113150689Y-69489870D01*
X113149328Y-69490348D01*
X113146543Y-69491126D01*
X113143692Y-69491668D01*
X113140795Y-69491976D01*
X113137876Y-69492052D01*
X113134956Y-69491897D01*
X113132058Y-69491515D01*
X113129204Y-69490906D01*
X113126416Y-69490073D01*
X113123716Y-69489018D01*
X113121126Y-69487743D01*
X113119879Y-69487024D01*
X113118669Y-69486250D01*
X113117497Y-69485422D01*
X113116366Y-69484540D01*
X113115280Y-69483605D01*
X113114240Y-69482617D01*
X112662853Y-69031305D01*
X112661857Y-69030258D01*
X112660916Y-69029166D01*
X112660028Y-69028029D01*
X112659195Y-69026851D01*
X112658416Y-69025635D01*
X112657692Y-69024384D01*
X112657022Y-69023100D01*
X112656408Y-69021785D01*
X112655850Y-69020444D01*
X112655347Y-69019078D01*
X112654510Y-69016284D01*
X112653899Y-69013424D01*
X112653515Y-69010522D01*
X112653362Y-69007600D01*
X112653440Y-69004678D01*
X112653752Y-69001780D01*
X112653997Y-69000346D01*
X112654301Y-68998927D01*
X112654664Y-68997524D01*
X112655087Y-68996141D01*
X112655569Y-68994781D01*
X112656112Y-68993446D01*
X112656716Y-68992138D01*
X112657380Y-68990861D01*
X112658105Y-68989618D01*
X112658891Y-68988410D01*
X113002534Y-68487677D01*
X113004078Y-68485200D01*
X113005455Y-68482536D01*
X113006662Y-68479711D01*
X113007699Y-68476749D01*
X113008562Y-68473676D01*
X113009250Y-68470515D01*
X113009761Y-68467291D01*
X113010094Y-68464028D01*
X113010245Y-68460752D01*
X113010214Y-68457487D01*
X113009998Y-68454257D01*
X113009596Y-68451088D01*
X113009005Y-68448003D01*
X113008223Y-68445027D01*
X113007249Y-68442185D01*
X113006081Y-68439502D01*
X112817226Y-67967743D01*
X112816758Y-67966368D01*
X112816225Y-67964997D01*
X112814974Y-67962276D01*
X112813492Y-67959594D01*
X112811795Y-67956970D01*
X112809904Y-67954418D01*
X112807834Y-67951957D01*
X112805605Y-67949602D01*
X112803235Y-67947371D01*
X112800741Y-67945279D01*
X112798142Y-67943343D01*
X112795456Y-67941580D01*
X112792700Y-67940007D01*
X112789894Y-67938640D01*
X112787054Y-67937495D01*
X112785628Y-67937011D01*
X112784200Y-67936590D01*
X112782773Y-67936232D01*
X112781349Y-67935940D01*
X112176418Y-67823366D01*
X112175011Y-67823073D01*
X112173622Y-67822710D01*
X112172252Y-67822279D01*
X112170903Y-67821784D01*
X112169577Y-67821225D01*
X112168276Y-67820606D01*
X112167001Y-67819928D01*
X112165754Y-67819194D01*
X112164537Y-67818405D01*
X112163352Y-67817564D01*
X112162201Y-67816673D01*
X112161084Y-67815734D01*
X112160005Y-67814750D01*
X112158965Y-67813722D01*
X112157965Y-67812653D01*
X112157008Y-67811544D01*
X112156094Y-67810399D01*
X112155227Y-67809218D01*
X112154408Y-67808005D01*
X112153638Y-67806762D01*
X112152920Y-67805490D01*
X112152255Y-67804191D01*
X112151644Y-67802869D01*
X112151090Y-67801525D01*
X112150595Y-67800161D01*
X112150160Y-67798780D01*
X112149787Y-67797383D01*
X112149478Y-67795973D01*
X112149234Y-67794551D01*
X112149058Y-67793121D01*
X112148951Y-67791685D01*
X112148915Y-67790243D01*
X112148840Y-67151963D01*
X112148873Y-67150518D01*
X112148976Y-67149079D01*
X112149149Y-67147647D01*
X112149389Y-67146225D01*
X112149695Y-67144815D01*
X112150064Y-67143418D01*
X112150496Y-67142038D01*
X112150988Y-67140675D01*
X112151538Y-67139332D01*
X112152145Y-67138012D01*
X112153523Y-67135446D01*
X112155106Y-67132993D01*
X112156881Y-67130671D01*
X112158833Y-67128497D01*
X112160948Y-67126486D01*
X112163211Y-67124656D01*
X112165610Y-67123023D01*
X112166855Y-67122286D01*
X112168129Y-67121605D01*
X112169429Y-67120981D01*
X112170754Y-67120417D01*
X112172102Y-67119915D01*
X112173471Y-67119477D01*
X112174860Y-67119105D01*
X112176267Y-67118802D01*
X112796439Y-67003475D01*
X112799282Y-67002814D01*
X112802140Y-67001903D01*
X112804994Y-67000758D01*
X112807825Y-66999395D01*
X112810614Y-66997830D01*
X112813342Y-66996080D01*
X112815991Y-66994160D01*
X112818542Y-66992086D01*
X112820975Y-66989875D01*
X112823273Y-66987542D01*
X112825415Y-66985104D01*
X112827384Y-66982577D01*
X112829161Y-66979977D01*
X112830726Y-66977320D01*
X112832060Y-66974621D01*
X112833146Y-66971898D01*
X113023246Y-66528395D01*
X113024477Y-66525740D01*
X113025512Y-66522926D01*
X113026351Y-66519978D01*
X113026997Y-66516919D01*
X113027451Y-66513774D01*
X113027715Y-66510568D01*
X113027790Y-66507324D01*
X113027678Y-66504067D01*
X113027381Y-66500821D01*
X113026899Y-66497610D01*
X113026234Y-66494459D01*
X113025389Y-66491392D01*
X113024364Y-66488432D01*
X113023161Y-66485605D01*
X113021782Y-66482935D01*
X113020228Y-66480446D01*
X112658891Y-65953795D01*
X112658112Y-65952588D01*
X112657392Y-65951345D01*
X112656733Y-65950069D01*
X112656134Y-65948762D01*
X112655595Y-65947427D01*
X112655115Y-65946068D01*
X112654332Y-65943285D01*
X112653786Y-65940435D01*
X112653473Y-65937540D01*
X112653393Y-65934622D01*
X112653544Y-65931702D01*
X112653923Y-65928804D01*
X112654530Y-65925948D01*
X112655362Y-65923157D01*
X112656419Y-65920453D01*
X112657698Y-65917857D01*
X112658420Y-65916606D01*
X112659198Y-65915391D01*
X112660030Y-65914214D01*
X112660917Y-65913078D01*
X112661858Y-65911985D01*
X112662853Y-65910939D01*
X113114165Y-65459627D01*
X113115211Y-65458632D01*
X113116303Y-65457690D01*
X113117439Y-65456802D01*
X113118615Y-65455969D01*
X113119829Y-65455190D01*
X113121079Y-65454466D01*
X113122360Y-65453797D01*
X113123672Y-65453183D01*
X113125011Y-65452625D01*
X113126374Y-65452122D01*
X113129162Y-65451285D01*
X113132014Y-65450673D01*
X113134909Y-65450290D01*
X113137825Y-65450136D01*
X113140740Y-65450215D01*
X113143632Y-65450527D01*
X113145062Y-65450771D01*
X113146479Y-65451075D01*
X113147879Y-65451438D01*
X113149259Y-65451861D01*
X113150618Y-65452344D01*
X113151952Y-65452887D01*
X113153258Y-65453490D01*
X113154534Y-65454154D01*
X113155777Y-65454879D01*
X113156984Y-65455666D01*
X113692876Y-65823416D01*
X113695355Y-65824965D01*
X113698021Y-65826345D01*
X113700849Y-65827554D01*
X113703815Y-65828589D01*
X113706893Y-65829450D01*
X113710059Y-65830134D01*
X113713288Y-65830640D01*
X113716554Y-65830965D01*
X113719833Y-65831109D01*
X113723100Y-65831070D01*
X113726330Y-65830846D01*
X113729498Y-65830434D01*
X113732579Y-65829834D01*
X113735548Y-65829044D01*
X113738381Y-65828062D01*
X113741052Y-65826886D01*
X114170974Y-65650896D01*
X114172341Y-65650410D01*
X114173704Y-65649859D01*
X114175061Y-65649245D01*
X114176410Y-65648571D01*
X114179074Y-65647050D01*
X114181681Y-65645316D01*
X114184216Y-65643386D01*
X114186661Y-65641280D01*
X114189000Y-65639016D01*
X114191218Y-65636612D01*
X114193299Y-65634088D01*
X114195226Y-65631462D01*
X114196984Y-65628752D01*
X114198555Y-65625978D01*
X114199925Y-65623157D01*
X114201077Y-65620309D01*
X114201995Y-65617452D01*
X114202362Y-65616026D01*
X114202663Y-65614604D01*
X114322065Y-64973155D01*
X114322362Y-64971745D01*
X114322727Y-64970353D01*
X114323160Y-64968980D01*
X114323657Y-64967629D01*
X114324216Y-64966302D01*
X114324836Y-64964999D01*
X114325514Y-64963723D01*
X114326248Y-64962475D01*
X114327036Y-64961258D01*
X114327875Y-64960072D01*
X114328765Y-64958921D01*
X114329702Y-64957805D01*
X114330684Y-64956726D01*
X114331710Y-64955686D01*
X114332777Y-64954687D01*
X114333883Y-64953731D01*
X114335025Y-64952818D01*
X114336203Y-64951952D01*
X114337413Y-64951134D01*
X114338654Y-64950366D01*
X114339923Y-64949648D01*
X114341219Y-64948984D01*
X114342538Y-64948375D01*
X114343880Y-64947822D01*
X114345241Y-64947328D01*
X114346621Y-64946894D01*
X114348016Y-64946522D01*
X114349424Y-64946214D01*
X114350844Y-64945971D01*
X114352273Y-64945795D01*
X114353709Y-64945688D01*
X114355150Y-64945653D01*
X114993469Y-64945653D01*
X114994906Y-64945688D01*
G37*
D10*
X92619785Y-55309760D02*
X92620399Y-55310408D01*
X92650880Y-55421176D02*
X92650008Y-55422863D01*
X93495556Y-55547214D02*
X93500644Y-55519980D01*
X93650631Y-55709139D02*
X93656370Y-55710235D01*
X93805354Y-55578513D02*
X93808233Y-55570464D01*
X92611316Y-55308654D02*
X92612242Y-55307917D01*
X93708569Y-55702759D02*
X93713688Y-55697979D01*
X92648103Y-55425974D02*
X92647071Y-55427393D01*
D12*
X128800000Y-99100000D02*
X129800000Y-99100000D01*
D10*
X93207690Y-55557448D02*
X93210356Y-55563651D01*
X93319592Y-55696477D02*
X93327377Y-55699201D01*
X93694097Y-55711395D02*
X93697784Y-55710418D01*
X94301398Y-55390218D02*
X94300646Y-55390594D01*
X92657058Y-55379170D02*
X92657288Y-55384681D01*
X92593556Y-55366199D02*
X92595127Y-55357873D01*
X92657047Y-55395201D02*
X92656581Y-55400166D01*
X92625316Y-55309430D02*
X92627259Y-55310238D01*
X93814625Y-55418317D02*
X93815130Y-55422805D01*
X93812548Y-55476915D02*
X93812270Y-55477443D01*
X93510267Y-55468522D02*
X93514448Y-55449057D01*
X93662247Y-55711133D02*
X93668149Y-55711817D01*
X92680278Y-55417692D02*
X92680319Y-55419210D01*
X94284012Y-55380225D02*
X94282905Y-55364318D01*
X93477125Y-55614697D02*
X93479332Y-55610481D01*
X93446170Y-55659304D02*
X93449762Y-55654946D01*
X92657288Y-55384681D02*
X92657284Y-55390032D01*
X92673135Y-55393102D02*
X92676008Y-55400196D01*
X92618451Y-55308463D02*
X92619135Y-55309111D01*
X93771635Y-55634549D02*
X93781619Y-55622261D01*
X93813337Y-55553827D02*
X93815534Y-55545376D01*
X93808233Y-55570464D02*
X93810899Y-55562212D01*
X92597505Y-55418053D02*
X92596151Y-55416263D01*
X93481316Y-55606391D02*
X93483454Y-55600609D01*
X92603010Y-55326799D02*
X92605158Y-55320563D01*
X93815898Y-55442151D02*
X93815891Y-55446642D01*
X94307191Y-55378839D02*
X94307134Y-55379990D01*
X92645594Y-55454807D02*
X92640112Y-55451617D01*
X93816202Y-55442802D02*
X93813947Y-55432729D01*
D11*
G36*
X53837648Y-71931296D02*
G01*
X53542227Y-71931296D01*
X53542227Y-71614774D01*
X53837648Y-71614774D01*
X53837648Y-71931296D01*
G37*
D10*
X93811982Y-55477929D02*
X93811682Y-55478375D01*
X92678250Y-55406887D02*
X92679766Y-55413074D01*
X93463283Y-55636949D02*
X93466374Y-55632410D01*
X92619255Y-55437926D02*
X92614535Y-55434346D01*
X92620692Y-55310733D02*
X92620976Y-55311057D01*
X92609356Y-55311296D02*
X92610352Y-55309789D01*
X93813541Y-55474342D02*
X93813067Y-55475724D01*
X93668149Y-55711817D02*
X93673965Y-55712269D01*
X93557505Y-55557101D02*
X93572773Y-55596320D01*
X94304487Y-55387703D02*
X94303960Y-55388296D01*
X93803493Y-55381392D02*
X93805362Y-55385442D01*
X92635763Y-55434564D02*
X92633066Y-55434825D01*
X93815534Y-55545376D02*
X93817474Y-55536929D01*
X92652461Y-55417556D02*
X92651698Y-55419407D01*
X92627259Y-55310238D02*
X92629176Y-55311188D01*
X93221256Y-55392326D02*
X93217751Y-55403952D01*
X93460061Y-55641493D02*
X93463283Y-55636949D01*
X93205833Y-55552444D02*
X93207690Y-55557448D01*
X93425037Y-55681470D02*
X93428301Y-55678531D01*
X93456723Y-55646021D02*
X93460061Y-55641493D01*
X93363544Y-55708983D02*
X93369115Y-55709785D01*
X92680056Y-55423714D02*
X92679841Y-55425201D01*
X93813067Y-55475724D02*
X93812548Y-55476915D01*
X93732208Y-55679065D02*
X93745875Y-55664187D01*
X92672442Y-55442782D02*
X92670368Y-55445719D01*
X92605158Y-55320563D02*
X92607288Y-55315330D01*
X93377327Y-55709792D02*
X93380105Y-55709069D01*
X93625421Y-55699420D02*
X93626582Y-55700383D01*
X93815130Y-55422805D02*
X93815502Y-55427449D01*
X92623479Y-55433848D02*
X92619770Y-55432916D01*
X92629379Y-55444927D02*
X92624219Y-55441458D01*
X92595127Y-55357873D02*
X92596902Y-55349575D01*
X94304968Y-55387061D02*
X94304487Y-55387703D01*
X94296708Y-55335611D02*
X94301338Y-55350482D01*
X92598981Y-55419853D02*
X92597505Y-55418053D01*
X92607043Y-55428229D02*
X92602253Y-55426016D01*
X93442524Y-55663564D02*
X93446170Y-55659304D01*
X94268278Y-55335956D02*
X94292000Y-55320743D01*
X93453285Y-55650512D02*
X93456723Y-55646021D01*
X94305052Y-55363491D02*
X94305491Y-55365364D01*
X93679580Y-55712470D02*
X93684882Y-55712403D01*
X92654936Y-55361896D02*
X92655884Y-55367756D01*
X92674280Y-55439857D02*
X92672442Y-55442782D01*
X94307159Y-55376341D02*
X94307199Y-55377623D01*
X93335189Y-55701743D02*
X93342871Y-55704048D01*
X92679841Y-55425201D02*
X92679563Y-55426681D01*
X94307199Y-55377623D02*
X94307191Y-55378839D01*
X93265812Y-55660245D02*
X93270744Y-55666981D01*
X92617735Y-55307815D02*
X92618451Y-55308463D01*
X92651698Y-55419407D02*
X92650880Y-55421176D01*
X93200701Y-55486346D02*
X93200128Y-55495503D01*
X92649082Y-55424463D02*
X92648103Y-55425974D01*
X92591825Y-55420583D02*
X92586179Y-55417351D01*
X93656370Y-55710235D02*
X93662247Y-55711133D01*
X92633066Y-55434825D02*
X92630122Y-55434796D01*
X93517974Y-55436939D02*
X93523393Y-55455870D01*
X92634325Y-55328117D02*
X92643213Y-55340815D01*
X93260543Y-55652575D02*
X93265812Y-55660245D01*
X93697784Y-55710418D02*
X93699348Y-55709803D01*
X93815502Y-55427449D02*
X93815746Y-55432268D01*
X93282361Y-55679395D02*
X93286645Y-55682053D01*
X94301338Y-55350482D02*
X94302783Y-55355166D01*
X93403657Y-55697472D02*
X93407310Y-55695083D01*
D12*
X129300000Y-103650000D02*
X129300000Y-102650000D01*
D10*
X92602280Y-55423472D02*
X92598981Y-55419853D01*
X94307030Y-55381078D02*
X94306877Y-55382104D01*
X93207832Y-55439718D02*
X93205886Y-55449002D01*
X93375690Y-55710007D02*
X93377327Y-55709792D01*
X92642416Y-55432098D02*
X92640433Y-55433195D01*
X93802276Y-55586291D02*
X93805354Y-55578513D01*
X94302770Y-55389344D02*
X94302107Y-55389802D01*
X93407310Y-55695083D02*
X93410960Y-55692560D01*
X92644849Y-55325816D02*
X92645495Y-55327098D01*
X93350263Y-55706059D02*
X93357207Y-55707723D01*
X92596902Y-55349575D02*
X92598837Y-55341500D01*
X92680002Y-55414624D02*
X92680173Y-55416163D01*
X92615220Y-55307544D02*
X92617290Y-55307632D01*
X92645495Y-55327098D02*
X92646153Y-55328582D01*
X93414582Y-55689920D02*
X93418153Y-55687181D01*
X92592077Y-55409228D02*
X92591422Y-55407511D01*
X93812278Y-55405570D02*
X93813203Y-55409721D01*
X93469320Y-55627894D02*
X93472104Y-55623424D01*
X92610102Y-55430733D02*
X92606002Y-55427103D01*
X93466374Y-55632410D02*
X93469320Y-55627894D01*
X93514448Y-55449057D02*
X93516304Y-55441931D01*
X94306877Y-55382104D02*
X94306677Y-55383071D01*
X92616988Y-55307167D02*
X92617735Y-55307815D01*
X93627961Y-55701326D02*
X93631316Y-55703140D01*
X93389518Y-55705366D02*
X93392932Y-55703676D01*
X94302107Y-55389802D02*
X94301398Y-55390218D01*
X93227210Y-55596911D02*
X93238012Y-55616118D01*
X93614939Y-55685432D02*
X93620507Y-55693680D01*
X94303960Y-55388296D02*
X94303388Y-55388842D01*
X92616212Y-55306519D02*
X92616988Y-55307167D01*
X92586179Y-55417351D02*
X92580238Y-55413768D01*
X92612242Y-55307917D02*
X92613125Y-55307601D01*
X93689759Y-55712051D02*
X93694097Y-55711395D01*
X93815628Y-55458026D02*
X93815459Y-55461174D01*
X92591207Y-55382154D02*
X92592235Y-55374358D01*
X92590518Y-55389393D02*
X92591207Y-55382154D01*
X93799015Y-55593728D02*
X93802276Y-55586291D01*
X94303388Y-55388842D02*
X94302770Y-55389344D01*
X93822823Y-55497168D02*
X93822921Y-55490192D01*
X92626662Y-55317923D02*
X92634325Y-55328117D01*
X94302783Y-55355166D02*
X94304020Y-55359497D01*
X93799239Y-55373098D02*
X93801453Y-55377285D01*
X92680208Y-55422221D02*
X92680056Y-55423714D01*
X92679563Y-55426681D02*
X92679223Y-55428156D01*
X93699348Y-55709803D02*
X93700706Y-55709102D01*
X92655884Y-55367756D02*
X92656591Y-55373521D01*
X92670368Y-55445719D02*
X92668061Y-55448675D01*
X92624884Y-55357745D02*
X92624572Y-55347713D01*
X93813203Y-55409721D02*
X93813984Y-55413963D01*
X92630122Y-55434796D02*
X92626928Y-55434472D01*
X92659772Y-55457711D02*
X92656562Y-55460800D01*
X93200128Y-55495503D02*
X93199872Y-55504497D01*
X94306505Y-55370514D02*
X94306743Y-55372079D01*
X93490521Y-55572280D02*
X93495556Y-55547214D01*
X93812270Y-55477443D02*
X93811982Y-55477929D01*
X93369115Y-55709785D02*
X93373763Y-55710073D01*
X93815844Y-55450775D02*
X93815757Y-55454564D01*
X93631316Y-55703140D02*
X93635373Y-55704847D01*
X93380105Y-55709069D02*
X93383079Y-55708079D01*
X92607288Y-55315330D02*
X92609356Y-55311296D01*
X93815247Y-55464025D02*
X93814993Y-55466593D01*
X93572773Y-55596320D02*
X93587907Y-55632022D01*
X92656562Y-55460800D02*
X92651092Y-55457873D01*
X94300646Y-55390594D02*
X94251955Y-55326618D01*
X93479332Y-55610481D02*
X93481316Y-55606391D01*
X93815891Y-55446642D02*
X93815844Y-55450775D01*
X94306134Y-55384830D02*
X94305792Y-55385627D01*
X93813947Y-55432729D02*
X93809131Y-55413291D01*
X93822381Y-55504561D02*
X93822823Y-55497168D01*
X92644215Y-55324734D02*
X92644849Y-55325816D01*
D12*
X132880180Y-102787030D02*
X132880180Y-102291792D01*
X132880180Y-102291792D02*
X132499228Y-102558458D01*
X132499228Y-102558458D02*
X132499228Y-102444173D01*
X132499228Y-102444173D02*
X132451609Y-102367982D01*
X132451609Y-102367982D02*
X132403990Y-102329887D01*
X132403990Y-102329887D02*
X132308752Y-102291792D01*
X132308752Y-102291792D02*
X132070657Y-102291792D01*
X132070657Y-102291792D02*
X131975419Y-102329887D01*
X131975419Y-102329887D02*
X131927800Y-102367982D01*
X131927800Y-102367982D02*
X131880180Y-102444173D01*
X131880180Y-102444173D02*
X131880180Y-102672744D01*
X131880180Y-102672744D02*
X131927800Y-102748935D01*
X131927800Y-102748935D02*
X131975419Y-102787030D01*
X131975419Y-101948934D02*
X131927800Y-101910839D01*
X131927800Y-101910839D02*
X131880180Y-101948934D01*
X131880180Y-101948934D02*
X131927800Y-101987030D01*
X131927800Y-101987030D02*
X131975419Y-101948934D01*
X131975419Y-101948934D02*
X131880180Y-101948934D01*
X132880180Y-101644173D02*
X132880180Y-101110839D01*
X132880180Y-101110839D02*
X131880180Y-101453697D01*
X132880180Y-100920363D02*
X131880180Y-100653696D01*
X131880180Y-100653696D02*
X132880180Y-100387030D01*
X131880180Y-99129887D02*
X131880180Y-99510839D01*
X131880180Y-99510839D02*
X132880180Y-99510839D01*
X131880180Y-98863220D02*
X132546847Y-98863220D01*
X132880180Y-98863220D02*
X132832561Y-98901316D01*
X132832561Y-98901316D02*
X132784942Y-98863220D01*
X132784942Y-98863220D02*
X132832561Y-98825125D01*
X132832561Y-98825125D02*
X132880180Y-98863220D01*
X132880180Y-98863220D02*
X132784942Y-98863220D01*
X131880180Y-98482268D02*
X132880180Y-98482268D01*
X132880180Y-98482268D02*
X132880180Y-98177506D01*
X132880180Y-98177506D02*
X132832561Y-98101316D01*
X132832561Y-98101316D02*
X132784942Y-98063221D01*
X132784942Y-98063221D02*
X132689704Y-98025125D01*
X132689704Y-98025125D02*
X132546847Y-98025125D01*
X132546847Y-98025125D02*
X132451609Y-98063221D01*
X132451609Y-98063221D02*
X132403990Y-98101316D01*
X132403990Y-98101316D02*
X132356371Y-98177506D01*
X132356371Y-98177506D02*
X132356371Y-98482268D01*
X131880180Y-97567983D02*
X131927800Y-97644173D01*
X131927800Y-97644173D02*
X131975419Y-97682268D01*
X131975419Y-97682268D02*
X132070657Y-97720364D01*
X132070657Y-97720364D02*
X132356371Y-97720364D01*
X132356371Y-97720364D02*
X132451609Y-97682268D01*
X132451609Y-97682268D02*
X132499228Y-97644173D01*
X132499228Y-97644173D02*
X132546847Y-97567983D01*
X132546847Y-97567983D02*
X132546847Y-97453697D01*
X132546847Y-97453697D02*
X132499228Y-97377506D01*
X132499228Y-97377506D02*
X132451609Y-97339411D01*
X132451609Y-97339411D02*
X132356371Y-97301316D01*
X132356371Y-97301316D02*
X132070657Y-97301316D01*
X132070657Y-97301316D02*
X131975419Y-97339411D01*
X131975419Y-97339411D02*
X131927800Y-97377506D01*
X131927800Y-97377506D02*
X131880180Y-97453697D01*
X131880180Y-97453697D02*
X131880180Y-97567983D01*
D13*
G36*
X74474995Y-63746070D02*
G01*
X74552890Y-63757423D01*
X74620739Y-63779056D01*
X74681638Y-63812526D01*
X74738686Y-63859386D01*
X74766733Y-63888323D01*
X74606022Y-64046983D01*
X74554711Y-63998794D01*
X74491673Y-63968312D01*
X74418589Y-63958838D01*
X74410090Y-63958763D01*
X74332541Y-63965929D01*
X74264253Y-63997188D01*
X74225913Y-64063122D01*
X74219971Y-64119475D01*
X74219971Y-64170424D01*
X74456936Y-64170424D01*
X74541311Y-64176472D01*
X74613774Y-64193804D01*
X74687911Y-64229481D01*
X74744152Y-64278508D01*
X74782896Y-64338503D01*
X74804543Y-64407089D01*
X74809818Y-64466544D01*
X74802931Y-64540234D01*
X74782635Y-64607935D01*
X74745023Y-64673191D01*
X74725701Y-64695644D01*
X74669473Y-64738536D01*
X74599918Y-64768085D01*
X74526755Y-64782596D01*
X74464800Y-64785916D01*
X74394618Y-64781541D01*
X74320972Y-64762365D01*
X74258929Y-64726716D01*
X74213816Y-64686753D01*
X74213816Y-64766425D01*
X73964884Y-64776000D01*
X73964884Y-64392685D01*
X74219971Y-64392685D01*
X74226328Y-64462801D01*
X74258953Y-64520228D01*
X74317996Y-64562217D01*
X74387299Y-64574851D01*
X74410090Y-64575281D01*
X74478868Y-64567005D01*
X74540128Y-64531044D01*
X74564844Y-64464619D01*
X74564989Y-64457995D01*
X74547395Y-64390820D01*
X74487408Y-64348152D01*
X74413851Y-64338316D01*
X74219971Y-64338316D01*
X74219971Y-64392685D01*
X73964884Y-64392685D01*
X73964884Y-64103745D01*
X73971765Y-64019636D01*
X73992362Y-63946597D01*
X74026608Y-63884675D01*
X74074433Y-63833912D01*
X74135771Y-63794353D01*
X74210552Y-63766042D01*
X74298709Y-63749023D01*
X74373564Y-63743696D01*
X74400174Y-63743341D01*
X74474995Y-63746070D01*
G37*
G36*
X73257752Y-64776000D02*
G01*
X73257752Y-64560577D01*
X73355889Y-64560577D01*
X73422293Y-64540017D01*
X73445745Y-64473563D01*
X73445819Y-64467912D01*
X73445819Y-63375413D01*
X73700906Y-63375413D01*
X73700906Y-64483641D01*
X73691381Y-64564713D01*
X73661921Y-64640158D01*
X73611202Y-64704136D01*
X73551739Y-64744475D01*
X73475826Y-64769412D01*
X73402735Y-64776000D01*
X73257752Y-64776000D01*
G37*
G36*
X72621744Y-64776000D02*
G01*
X72621744Y-64560577D01*
X72719881Y-64560577D01*
X72786285Y-64540017D01*
X72809736Y-64473563D01*
X72809811Y-64467912D01*
X72809811Y-63375413D01*
X73064898Y-63375413D01*
X73064898Y-64483641D01*
X73055373Y-64564713D01*
X73025913Y-64640158D01*
X72975193Y-64704136D01*
X72915731Y-64744475D01*
X72839817Y-64769412D01*
X72766726Y-64776000D01*
X72621744Y-64776000D01*
G37*
G36*
X72116337Y-63752367D02*
G01*
X72183540Y-63766955D01*
X72264662Y-63800972D01*
X72335060Y-63851051D01*
X72393613Y-63916548D01*
X72429080Y-63975404D01*
X72456779Y-64042303D01*
X72476238Y-64116974D01*
X72486983Y-64199145D01*
X72489071Y-64257960D01*
X72486416Y-64331060D01*
X72472985Y-64428196D01*
X72449187Y-64511146D01*
X72416116Y-64580842D01*
X72374866Y-64638217D01*
X72309033Y-64697166D01*
X72233196Y-64738082D01*
X72149948Y-64763179D01*
X72061882Y-64774667D01*
X72016852Y-64776000D01*
X71936286Y-64772005D01*
X71866038Y-64760075D01*
X71792539Y-64735394D01*
X71727552Y-64699533D01*
X71667614Y-64652627D01*
X71628750Y-64615288D01*
X71783307Y-64466886D01*
X71837189Y-64511630D01*
X71902283Y-64544746D01*
X71975415Y-64559062D01*
X72014800Y-64560577D01*
X72089244Y-64551230D01*
X72157705Y-64518635D01*
X72205666Y-64465893D01*
X72232396Y-64396375D01*
X72238087Y-64338316D01*
X71599343Y-64338316D01*
X71599343Y-64230605D01*
X71603015Y-64163927D01*
X71849985Y-64163927D01*
X72238087Y-64163927D01*
X72228536Y-64094080D01*
X72214835Y-64059977D01*
X72171396Y-64002774D01*
X72109941Y-63968974D01*
X72044207Y-63959447D01*
X71971960Y-63971124D01*
X71912307Y-64006842D01*
X71873579Y-64059977D01*
X71852854Y-64127971D01*
X71849985Y-64163927D01*
X71603015Y-64163927D01*
X71603550Y-64154211D01*
X71616048Y-64082405D01*
X71636652Y-64015826D01*
X71676416Y-63936289D01*
X71729827Y-63868695D01*
X71796448Y-63814559D01*
X71875843Y-63775396D01*
X71943509Y-63756761D01*
X72017931Y-63748038D01*
X72044207Y-63747444D01*
X72116337Y-63752367D01*
G37*
G36*
X70566343Y-63747444D02*
G01*
X70834766Y-63747444D01*
X71038562Y-64381401D01*
X71250223Y-63747444D01*
X71518987Y-63747444D01*
X71169867Y-64700431D01*
X71212951Y-64826265D01*
X71245463Y-64888493D01*
X71309520Y-64917478D01*
X71340495Y-64918930D01*
X71399308Y-64918930D01*
X71399308Y-65148030D01*
X71299462Y-65148030D01*
X71230294Y-65142964D01*
X71159484Y-65123265D01*
X71096851Y-65085247D01*
X71079936Y-65069726D01*
X71037921Y-65013562D01*
X71007407Y-64948904D01*
X71003342Y-64938421D01*
X70566343Y-63747444D01*
G37*
G36*
X69218073Y-64636830D02*
G01*
X69390753Y-64468595D01*
X69443803Y-64514594D01*
X69508995Y-64542454D01*
X69555226Y-64546900D01*
X69622886Y-64536311D01*
X69682339Y-64500800D01*
X69700551Y-64481931D01*
X69735641Y-64418741D01*
X69751999Y-64349062D01*
X69757103Y-64280240D01*
X69757313Y-64261038D01*
X69753925Y-64189188D01*
X69739826Y-64116836D01*
X69707612Y-64050995D01*
X69700551Y-64041854D01*
X69645623Y-63997111D01*
X69577417Y-63977868D01*
X69555226Y-63976886D01*
X69482927Y-63988871D01*
X69419928Y-64027394D01*
X69390753Y-64055190D01*
X69218073Y-63884904D01*
X69270637Y-63837300D01*
X69337164Y-63794876D01*
X69410441Y-63766143D01*
X69479534Y-63752071D01*
X69555226Y-63747444D01*
X69633466Y-63752879D01*
X69712727Y-63770664D01*
X69789480Y-63803019D01*
X69860194Y-63852163D01*
X69921339Y-63920317D01*
X69958795Y-63985244D01*
X69987392Y-64063048D01*
X70005643Y-64154667D01*
X70011327Y-64223884D01*
X70012058Y-64261038D01*
X70009170Y-64333596D01*
X69994699Y-64430045D01*
X69969385Y-64512444D01*
X69934716Y-64581711D01*
X69892183Y-64638765D01*
X69825812Y-64697423D01*
X69751637Y-64738176D01*
X69673189Y-64763199D01*
X69593997Y-64774668D01*
X69555226Y-64776000D01*
X69479534Y-64771244D01*
X69410441Y-64756850D01*
X69337164Y-64727622D01*
X69270637Y-64684718D01*
X69218073Y-64636830D01*
G37*
G36*
X68768700Y-63746070D02*
G01*
X68846595Y-63757423D01*
X68914444Y-63779056D01*
X68975344Y-63812526D01*
X69032392Y-63859386D01*
X69060439Y-63888323D01*
X68899727Y-64046983D01*
X68848416Y-63998794D01*
X68785379Y-63968312D01*
X68712294Y-63958838D01*
X68703796Y-63958763D01*
X68626246Y-63965929D01*
X68557958Y-63997188D01*
X68519618Y-64063122D01*
X68513677Y-64119475D01*
X68513677Y-64170424D01*
X68750641Y-64170424D01*
X68835017Y-64176472D01*
X68907480Y-64193804D01*
X68981616Y-64229481D01*
X69037857Y-64278508D01*
X69076601Y-64338503D01*
X69098248Y-64407089D01*
X69103523Y-64466544D01*
X69096636Y-64540234D01*
X69076340Y-64607935D01*
X69038728Y-64673191D01*
X69019406Y-64695644D01*
X68963179Y-64738536D01*
X68893624Y-64768085D01*
X68820461Y-64782596D01*
X68758506Y-64785916D01*
X68688324Y-64781541D01*
X68614677Y-64762365D01*
X68552635Y-64726716D01*
X68507522Y-64686753D01*
X68507522Y-64766425D01*
X68258590Y-64776000D01*
X68258590Y-64392685D01*
X68513677Y-64392685D01*
X68520034Y-64462801D01*
X68552658Y-64520228D01*
X68611702Y-64562217D01*
X68681004Y-64574851D01*
X68703796Y-64575281D01*
X68772574Y-64567005D01*
X68833834Y-64531044D01*
X68858550Y-64464619D01*
X68858694Y-64457995D01*
X68841100Y-64390820D01*
X68781113Y-64348152D01*
X68707557Y-64338316D01*
X68513677Y-64338316D01*
X68513677Y-64392685D01*
X68258590Y-64392685D01*
X68258590Y-64103745D01*
X68265471Y-64019636D01*
X68286068Y-63946597D01*
X68320313Y-63884675D01*
X68368139Y-63833912D01*
X68429476Y-63794353D01*
X68504258Y-63766042D01*
X68592415Y-63749023D01*
X68667269Y-63743696D01*
X68693879Y-63743341D01*
X68768700Y-63746070D01*
G37*
G36*
X67526154Y-64776000D02*
G01*
X67526154Y-64560577D01*
X67618136Y-64560577D01*
X67685071Y-64536898D01*
X67706357Y-64469621D01*
X67706357Y-63985434D01*
X67526154Y-63985434D01*
X67526154Y-63791212D01*
X67706357Y-63791212D01*
X67706357Y-63484834D01*
X67961102Y-63484834D01*
X67961102Y-63791212D01*
X68069155Y-63791212D01*
X68069155Y-63985434D01*
X67961102Y-63985434D01*
X67961102Y-64485009D01*
X67951592Y-64565446D01*
X67922243Y-64640492D01*
X67871823Y-64704251D01*
X67812824Y-64744505D01*
X67737625Y-64769414D01*
X67665324Y-64776000D01*
X67526154Y-64776000D01*
G37*
G36*
X66519464Y-63752367D02*
G01*
X66586667Y-63766955D01*
X66667788Y-63800972D01*
X66738186Y-63851051D01*
X66796739Y-63916548D01*
X66832206Y-63975404D01*
X66859906Y-64042303D01*
X66879364Y-64116974D01*
X66890109Y-64199145D01*
X66892197Y-64257960D01*
X66889543Y-64331060D01*
X66876111Y-64428196D01*
X66852313Y-64511146D01*
X66819242Y-64580842D01*
X66777992Y-64638217D01*
X66712159Y-64697166D01*
X66636323Y-64738082D01*
X66553075Y-64763179D01*
X66465008Y-64774667D01*
X66419978Y-64776000D01*
X66339412Y-64772005D01*
X66269164Y-64760075D01*
X66195666Y-64735394D01*
X66130678Y-64699533D01*
X66070740Y-64652627D01*
X66031876Y-64615288D01*
X66186433Y-64466886D01*
X66240315Y-64511630D01*
X66305410Y-64544746D01*
X66378542Y-64559062D01*
X66417927Y-64560577D01*
X66492370Y-64551230D01*
X66560831Y-64518635D01*
X66608792Y-64465893D01*
X66635523Y-64396375D01*
X66641214Y-64338316D01*
X66002470Y-64338316D01*
X66002470Y-64230605D01*
X66006141Y-64163927D01*
X66253112Y-64163927D01*
X66641214Y-64163927D01*
X66631663Y-64094080D01*
X66617962Y-64059977D01*
X66574523Y-64002774D01*
X66513068Y-63968974D01*
X66447334Y-63959447D01*
X66375086Y-63971124D01*
X66315433Y-64006842D01*
X66276706Y-64059977D01*
X66255980Y-64127971D01*
X66253112Y-64163927D01*
X66006141Y-64163927D01*
X66006676Y-64154211D01*
X66019174Y-64082405D01*
X66039778Y-64015826D01*
X66079542Y-63936289D01*
X66132953Y-63868695D01*
X66199574Y-63814559D01*
X66278969Y-63775396D01*
X66346636Y-63756761D01*
X66421057Y-63748038D01*
X66447334Y-63747444D01*
X66519464Y-63752367D01*
G37*
G36*
X64918862Y-64776000D02*
G01*
X64918862Y-64123578D01*
X64922366Y-64052436D01*
X64937112Y-63976496D01*
X64966849Y-63906094D01*
X65008064Y-63848883D01*
X65022812Y-63833271D01*
X65083351Y-63787261D01*
X65149754Y-63759121D01*
X65217566Y-63745734D01*
X65263879Y-63743341D01*
X65333977Y-63749944D01*
X65401510Y-63769756D01*
X65463914Y-63802774D01*
X65518625Y-63849000D01*
X65518625Y-63759412D01*
X65767557Y-63759412D01*
X65767557Y-64776000D01*
X65512812Y-64776000D01*
X65512812Y-64162217D01*
X65503951Y-64089187D01*
X65469365Y-64021177D01*
X65410108Y-63979086D01*
X65342184Y-63966628D01*
X65274655Y-63978911D01*
X65216219Y-64019777D01*
X65182278Y-64084969D01*
X65173607Y-64154353D01*
X65173607Y-64776000D01*
X64918862Y-64776000D01*
G37*
G36*
X64411327Y-63741882D02*
G01*
X64477503Y-63759455D01*
X64542202Y-63791822D01*
X64583761Y-63825406D01*
X64629034Y-63882671D01*
X64658876Y-63947555D01*
X64676465Y-64020679D01*
X64684980Y-64102666D01*
X64687437Y-64178208D01*
X64687710Y-64226844D01*
X64686828Y-64306533D01*
X64682954Y-64379719D01*
X64671767Y-64459320D01*
X64650447Y-64530375D01*
X64615814Y-64593328D01*
X64583761Y-64631017D01*
X64529239Y-64673098D01*
X64462861Y-64702703D01*
X64395601Y-64717512D01*
X64340983Y-64720947D01*
X64270106Y-64715508D01*
X64199421Y-64694813D01*
X64136475Y-64656133D01*
X64097864Y-64619049D01*
X64097864Y-64722999D01*
X64108485Y-64799171D01*
X64143342Y-64866400D01*
X64197250Y-64909748D01*
X64263239Y-64929886D01*
X64303712Y-64932608D01*
X64376777Y-64925556D01*
X64443674Y-64900344D01*
X64503405Y-64854988D01*
X64662407Y-65015016D01*
X64602287Y-65065129D01*
X64539928Y-65101882D01*
X64473447Y-65126841D01*
X64400967Y-65141576D01*
X64320607Y-65147656D01*
X64291744Y-65148030D01*
X64217301Y-65143426D01*
X64148477Y-65129987D01*
X64066095Y-65099292D01*
X63995246Y-65055211D01*
X63936811Y-64999070D01*
X63891672Y-64932197D01*
X63860710Y-64855917D01*
X63844806Y-64771556D01*
X63842777Y-64726760D01*
X63842777Y-64226844D01*
X64097864Y-64226844D01*
X64100470Y-64301169D01*
X64111352Y-64369639D01*
X64140643Y-64435462D01*
X64194760Y-64478597D01*
X64266440Y-64491505D01*
X64337804Y-64478597D01*
X64391350Y-64435462D01*
X64420036Y-64369639D01*
X64430520Y-64301169D01*
X64432965Y-64226844D01*
X64430520Y-64152676D01*
X64420036Y-64084590D01*
X64391350Y-64019319D01*
X64337804Y-63976643D01*
X64266440Y-63963892D01*
X64194760Y-63976643D01*
X64140643Y-64019319D01*
X64111352Y-64084590D01*
X64100470Y-64152676D01*
X64097864Y-64226844D01*
X63842777Y-64226844D01*
X63842777Y-63754967D01*
X64089999Y-63754967D01*
X64089999Y-63851052D01*
X64143417Y-63796838D01*
X64207902Y-63757985D01*
X64281871Y-63739098D01*
X64338932Y-63735818D01*
X64411327Y-63741882D01*
G37*
G36*
X63302512Y-64776000D02*
G01*
X63302512Y-63786767D01*
X63557257Y-63786767D01*
X63557257Y-64776000D01*
X63302512Y-64776000D01*
G37*
G36*
X63300460Y-63583313D02*
G01*
X63300460Y-63375413D01*
X63561018Y-63375413D01*
X63561018Y-63583313D01*
X63300460Y-63583313D01*
G37*
G36*
X62169664Y-64776000D02*
G01*
X62169664Y-64123578D01*
X62173168Y-64052436D01*
X62187915Y-63976496D01*
X62217652Y-63906094D01*
X62258866Y-63848883D01*
X62273614Y-63833271D01*
X62334154Y-63787261D01*
X62400556Y-63759121D01*
X62468368Y-63745734D01*
X62514682Y-63743341D01*
X62584779Y-63749944D01*
X62652313Y-63769756D01*
X62714717Y-63802774D01*
X62769427Y-63849000D01*
X62769427Y-63759412D01*
X63018359Y-63759412D01*
X63018359Y-64776000D01*
X62763614Y-64776000D01*
X62763614Y-64162217D01*
X62754754Y-64089187D01*
X62720168Y-64021177D01*
X62660911Y-63979086D01*
X62592986Y-63966628D01*
X62525457Y-63978911D01*
X62467021Y-64019777D01*
X62433081Y-64084969D01*
X62424410Y-64154353D01*
X62424410Y-64776000D01*
X62169664Y-64776000D01*
G37*
G36*
X61573644Y-63752367D02*
G01*
X61640847Y-63766955D01*
X61721968Y-63800972D01*
X61792366Y-63851051D01*
X61850920Y-63916548D01*
X61886386Y-63975404D01*
X61914086Y-64042303D01*
X61933544Y-64116974D01*
X61944289Y-64199145D01*
X61946378Y-64257960D01*
X61943723Y-64331060D01*
X61930291Y-64428196D01*
X61906493Y-64511146D01*
X61873422Y-64580842D01*
X61832172Y-64638217D01*
X61766339Y-64697166D01*
X61690503Y-64738082D01*
X61607255Y-64763179D01*
X61519188Y-64774667D01*
X61474158Y-64776000D01*
X61393592Y-64772005D01*
X61323344Y-64760075D01*
X61249846Y-64735394D01*
X61184858Y-64699533D01*
X61124920Y-64652627D01*
X61086057Y-64615288D01*
X61240613Y-64466886D01*
X61294495Y-64511630D01*
X61359590Y-64544746D01*
X61432722Y-64559062D01*
X61472107Y-64560577D01*
X61546550Y-64551230D01*
X61615011Y-64518635D01*
X61662972Y-64465893D01*
X61689703Y-64396375D01*
X61695394Y-64338316D01*
X61056650Y-64338316D01*
X61056650Y-64230605D01*
X61060321Y-64163927D01*
X61307292Y-64163927D01*
X61695394Y-64163927D01*
X61685843Y-64094080D01*
X61672142Y-64059977D01*
X61628703Y-64002774D01*
X61567248Y-63968974D01*
X61501514Y-63959447D01*
X61429266Y-63971124D01*
X61369614Y-64006842D01*
X61330886Y-64059977D01*
X61310161Y-64127971D01*
X61307292Y-64163927D01*
X61060321Y-64163927D01*
X61060856Y-64154211D01*
X61073354Y-64082405D01*
X61093958Y-64015826D01*
X61133722Y-63936289D01*
X61187133Y-63868695D01*
X61253754Y-63814559D01*
X61333149Y-63775396D01*
X61400816Y-63756761D01*
X61475237Y-63748038D01*
X61501514Y-63747444D01*
X61573644Y-63752367D01*
G37*
G36*
X60499952Y-63752367D02*
G01*
X60567155Y-63766955D01*
X60648277Y-63800972D01*
X60718675Y-63851051D01*
X60777228Y-63916548D01*
X60812695Y-63975404D01*
X60840394Y-64042303D01*
X60859853Y-64116974D01*
X60870598Y-64199145D01*
X60872686Y-64257960D01*
X60870031Y-64331060D01*
X60856600Y-64428196D01*
X60832802Y-64511146D01*
X60799731Y-64580842D01*
X60758481Y-64638217D01*
X60692648Y-64697166D01*
X60616811Y-64738082D01*
X60533563Y-64763179D01*
X60445497Y-64774667D01*
X60400467Y-64776000D01*
X60319901Y-64772005D01*
X60249653Y-64760075D01*
X60176154Y-64735394D01*
X60111167Y-64699533D01*
X60051229Y-64652627D01*
X60012365Y-64615288D01*
X60166922Y-64466886D01*
X60220803Y-64511630D01*
X60285898Y-64544746D01*
X60359030Y-64559062D01*
X60398415Y-64560577D01*
X60472859Y-64551230D01*
X60541320Y-64518635D01*
X60589281Y-64465893D01*
X60616011Y-64396375D01*
X60621702Y-64338316D01*
X59982958Y-64338316D01*
X59982958Y-64230605D01*
X59986630Y-64163927D01*
X60233600Y-64163927D01*
X60621702Y-64163927D01*
X60612151Y-64094080D01*
X60598450Y-64059977D01*
X60555011Y-64002774D01*
X60493556Y-63968974D01*
X60427822Y-63959447D01*
X60355575Y-63971124D01*
X60295922Y-64006842D01*
X60257194Y-64059977D01*
X60236469Y-64127971D01*
X60233600Y-64163927D01*
X59986630Y-64163927D01*
X59987165Y-64154211D01*
X59999663Y-64082405D01*
X60020267Y-64015826D01*
X60060030Y-63936289D01*
X60113441Y-63868695D01*
X60180063Y-63814559D01*
X60259458Y-63775396D01*
X60327124Y-63756761D01*
X60401546Y-63748038D01*
X60427822Y-63747444D01*
X60499952Y-63752367D01*
G37*
G36*
X59001248Y-63839084D02*
G01*
X59054591Y-63794407D01*
X59118108Y-63762063D01*
X59189029Y-63746140D01*
X59242316Y-63743341D01*
X59312285Y-63750204D01*
X59385132Y-63772488D01*
X59447008Y-63806304D01*
X59499113Y-63853103D01*
X59499113Y-63759412D01*
X59748045Y-63759412D01*
X59748045Y-64776000D01*
X59493300Y-64776000D01*
X59493300Y-64163927D01*
X59484830Y-64094548D01*
X59451666Y-64026451D01*
X59394544Y-63981165D01*
X59328485Y-63966628D01*
X59260153Y-63978822D01*
X59200672Y-64020667D01*
X59193419Y-64027835D01*
X59001248Y-63839084D01*
G37*
G36*
X58601521Y-64776000D02*
G01*
X58601521Y-63786767D01*
X58856266Y-63786767D01*
X58856266Y-64776000D01*
X58601521Y-64776000D01*
G37*
G36*
X58599469Y-63583313D02*
G01*
X58599469Y-63375413D01*
X58860027Y-63375413D01*
X58860027Y-63583313D01*
X58599469Y-63583313D01*
G37*
G36*
X57468673Y-64776000D02*
G01*
X57468673Y-64123578D01*
X57472178Y-64052436D01*
X57486924Y-63976496D01*
X57516661Y-63906094D01*
X57557875Y-63848883D01*
X57572623Y-63833271D01*
X57633163Y-63787261D01*
X57699565Y-63759121D01*
X57767377Y-63745734D01*
X57813691Y-63743341D01*
X57883789Y-63749944D01*
X57951322Y-63769756D01*
X58013726Y-63802774D01*
X58068436Y-63849000D01*
X58068436Y-63759412D01*
X58317368Y-63759412D01*
X58317368Y-64776000D01*
X58062623Y-64776000D01*
X58062623Y-64162217D01*
X58053763Y-64089187D01*
X58019177Y-64021177D01*
X57959920Y-63979086D01*
X57891995Y-63966628D01*
X57824466Y-63978911D01*
X57766030Y-64019777D01*
X57732090Y-64084969D01*
X57723419Y-64154353D01*
X57723419Y-64776000D01*
X57468673Y-64776000D01*
G37*
G36*
X56961138Y-63741882D02*
G01*
X57027314Y-63759455D01*
X57092014Y-63791822D01*
X57133572Y-63825406D01*
X57178845Y-63882671D01*
X57208687Y-63947555D01*
X57226277Y-64020679D01*
X57234792Y-64102666D01*
X57237248Y-64178208D01*
X57237522Y-64226844D01*
X57236639Y-64306533D01*
X57232766Y-64379719D01*
X57221579Y-64459320D01*
X57200258Y-64530375D01*
X57165626Y-64593328D01*
X57133572Y-64631017D01*
X57079051Y-64673098D01*
X57012672Y-64702703D01*
X56945412Y-64717512D01*
X56890795Y-64720947D01*
X56819917Y-64715508D01*
X56749232Y-64694813D01*
X56686287Y-64656133D01*
X56647676Y-64619049D01*
X56647676Y-64722999D01*
X56658297Y-64799171D01*
X56693154Y-64866400D01*
X56747061Y-64909748D01*
X56813050Y-64929886D01*
X56853523Y-64932608D01*
X56926589Y-64925556D01*
X56993486Y-64900344D01*
X57053216Y-64854988D01*
X57212218Y-65015016D01*
X57152099Y-65065129D01*
X57089739Y-65101882D01*
X57023259Y-65126841D01*
X56950779Y-65141576D01*
X56870418Y-65147656D01*
X56841555Y-65148030D01*
X56767112Y-65143426D01*
X56698288Y-65129987D01*
X56615907Y-65099292D01*
X56545058Y-65055211D01*
X56486623Y-64999070D01*
X56441483Y-64932197D01*
X56410521Y-64855917D01*
X56394618Y-64771556D01*
X56392588Y-64726760D01*
X56392588Y-64226844D01*
X56647676Y-64226844D01*
X56650281Y-64301169D01*
X56661163Y-64369639D01*
X56690455Y-64435462D01*
X56744572Y-64478597D01*
X56816252Y-64491505D01*
X56887616Y-64478597D01*
X56941162Y-64435462D01*
X56969848Y-64369639D01*
X56980331Y-64301169D01*
X56982777Y-64226844D01*
X56980331Y-64152676D01*
X56969848Y-64084590D01*
X56941162Y-64019319D01*
X56887616Y-63976643D01*
X56816252Y-63963892D01*
X56744572Y-63976643D01*
X56690455Y-64019319D01*
X56661163Y-64084590D01*
X56650281Y-64152676D01*
X56647676Y-64226844D01*
X56392588Y-64226844D01*
X56392588Y-63754967D01*
X56639811Y-63754967D01*
X56639811Y-63851052D01*
X56693228Y-63796838D01*
X56757714Y-63757985D01*
X56831682Y-63739098D01*
X56888743Y-63735818D01*
X56961138Y-63741882D01*
G37*
G36*
X69190963Y-66101111D02*
G01*
X69256797Y-66119704D01*
X69322274Y-66158343D01*
X69369552Y-66203052D01*
X69369552Y-66111412D01*
X69616433Y-66111412D01*
X69616433Y-67500030D01*
X69361687Y-67500030D01*
X69361687Y-67026101D01*
X69310418Y-67073471D01*
X69245178Y-67107925D01*
X69170525Y-67124984D01*
X69114807Y-67128000D01*
X69041893Y-67121898D01*
X68974910Y-67104064D01*
X68909398Y-67070854D01*
X68867584Y-67036018D01*
X68821518Y-66974118D01*
X68791176Y-66902034D01*
X68773313Y-66821701D01*
X68765617Y-66749850D01*
X68762453Y-66674732D01*
X68761941Y-66614982D01*
X68762036Y-66606541D01*
X69016670Y-66606541D01*
X69016670Y-66613038D01*
X69018532Y-66685197D01*
X69028204Y-66762223D01*
X69055436Y-66834317D01*
X69106654Y-66881795D01*
X69175065Y-66898534D01*
X69189008Y-66898900D01*
X69261701Y-66886232D01*
X69317021Y-66842741D01*
X69347352Y-66773811D01*
X69358850Y-66698843D01*
X69361626Y-66627938D01*
X69361687Y-66613038D01*
X69359803Y-66536715D01*
X69352423Y-66468663D01*
X69332665Y-66400608D01*
X69288925Y-66344140D01*
X69216135Y-66317358D01*
X69189008Y-66315892D01*
X69116345Y-66328679D01*
X69061118Y-66372673D01*
X69030897Y-66442600D01*
X69019476Y-66518897D01*
X69016730Y-66591297D01*
X69016670Y-66606541D01*
X68762036Y-66606541D01*
X68762814Y-66537645D01*
X68766733Y-66461581D01*
X68775561Y-66389361D01*
X68791176Y-66322082D01*
X68821518Y-66249410D01*
X68867584Y-66187323D01*
X68922904Y-66143952D01*
X68990979Y-66113757D01*
X69059652Y-66098789D01*
X69114807Y-66095341D01*
X69190963Y-66101111D01*
G37*
G36*
X68761941Y-66614982D02*
G01*
X68761925Y-66616457D01*
X68761925Y-66613038D01*
X68761941Y-66614982D01*
G37*
G36*
X68264744Y-67128000D02*
G01*
X68264744Y-66138767D01*
X68519489Y-66138767D01*
X68519489Y-67128000D01*
X68264744Y-67128000D01*
G37*
G36*
X68262692Y-65935313D02*
G01*
X68262692Y-65727413D01*
X68523250Y-65727413D01*
X68523250Y-65935313D01*
X68262692Y-65935313D01*
G37*
G36*
X67067954Y-67128000D02*
G01*
X67067954Y-66912577D01*
X67159936Y-66912577D01*
X67226870Y-66888898D01*
X67248156Y-66821621D01*
X67248156Y-66337434D01*
X67067954Y-66337434D01*
X67067954Y-66143212D01*
X67248156Y-66143212D01*
X67248156Y-65836834D01*
X67502902Y-65836834D01*
X67502902Y-66143212D01*
X67610955Y-66143212D01*
X67610955Y-66337434D01*
X67502902Y-66337434D01*
X67502902Y-66837009D01*
X67493392Y-66917446D01*
X67464043Y-66992492D01*
X67413623Y-67056251D01*
X67354623Y-67096505D01*
X67279424Y-67121414D01*
X67207123Y-67128000D01*
X67067954Y-67128000D01*
G37*
G36*
X66582399Y-67128000D02*
G01*
X66582399Y-66138767D01*
X66837144Y-66138767D01*
X66837144Y-67128000D01*
X66582399Y-67128000D01*
G37*
G36*
X66580347Y-65935313D02*
G01*
X66580347Y-65727413D01*
X66840906Y-65727413D01*
X66840906Y-65935313D01*
X66580347Y-65935313D01*
G37*
G36*
X65449552Y-67128000D02*
G01*
X65449552Y-66475578D01*
X65453056Y-66404436D01*
X65467802Y-66328496D01*
X65497539Y-66258094D01*
X65538754Y-66200883D01*
X65553502Y-66185271D01*
X65614042Y-66139261D01*
X65680444Y-66111121D01*
X65748256Y-66097734D01*
X65794569Y-66095341D01*
X65864667Y-66101944D01*
X65932200Y-66121756D01*
X65994604Y-66154774D01*
X66049315Y-66201000D01*
X66049315Y-66111412D01*
X66298247Y-66111412D01*
X66298247Y-67128000D01*
X66043502Y-67128000D01*
X66043502Y-66514217D01*
X66034641Y-66441187D01*
X66000056Y-66373177D01*
X65940798Y-66331086D01*
X65872874Y-66318628D01*
X65805345Y-66330911D01*
X65746909Y-66371777D01*
X65712968Y-66436969D01*
X65704297Y-66506353D01*
X65704297Y-67128000D01*
X65449552Y-67128000D01*
G37*
G36*
X63278575Y-67128000D02*
G01*
X63278575Y-66475578D01*
X63283043Y-66404436D01*
X63300389Y-66328496D01*
X63332910Y-66258094D01*
X63375553Y-66200883D01*
X63390389Y-66185271D01*
X63446077Y-66143190D01*
X63515103Y-66113585D01*
X63584926Y-66098776D01*
X63641031Y-66095341D01*
X63719942Y-66101066D01*
X63790532Y-66118755D01*
X63854692Y-66149183D01*
X63914311Y-66193122D01*
X63947068Y-66224594D01*
X63993349Y-66173409D01*
X64055417Y-66131005D01*
X64126783Y-66105215D01*
X64196450Y-66095823D01*
X64217542Y-66095341D01*
X64287640Y-66102185D01*
X64355173Y-66122397D01*
X64417577Y-66155495D01*
X64472287Y-66201000D01*
X64472287Y-66111412D01*
X64721220Y-66111412D01*
X64721220Y-67128000D01*
X64466474Y-67128000D01*
X64466474Y-66514217D01*
X64457614Y-66441187D01*
X64423028Y-66373177D01*
X64363771Y-66331086D01*
X64295846Y-66318628D01*
X64228317Y-66330911D01*
X64169882Y-66371777D01*
X64135941Y-66436969D01*
X64127270Y-66506353D01*
X64127270Y-67128000D01*
X63872525Y-67128000D01*
X63872525Y-66500540D01*
X63860384Y-66424408D01*
X63822620Y-66364766D01*
X63761592Y-66328154D01*
X63701897Y-66318628D01*
X63634368Y-66330911D01*
X63575932Y-66371777D01*
X63541991Y-66436969D01*
X63533320Y-66506353D01*
X63533320Y-67128000D01*
X63278575Y-67128000D01*
G37*
G36*
X62742349Y-66098070D02*
G01*
X62820244Y-66109423D01*
X62888093Y-66131056D01*
X62948993Y-66164526D01*
X63006041Y-66211386D01*
X63034088Y-66240323D01*
X62873376Y-66398983D01*
X62822065Y-66350794D01*
X62759028Y-66320312D01*
X62685943Y-66310838D01*
X62677444Y-66310763D01*
X62599895Y-66317929D01*
X62531607Y-66349188D01*
X62493267Y-66415122D01*
X62487326Y-66471475D01*
X62487326Y-66522424D01*
X62724290Y-66522424D01*
X62808666Y-66528472D01*
X62881128Y-66545804D01*
X62955265Y-66581481D01*
X63011506Y-66630508D01*
X63050250Y-66690503D01*
X63071897Y-66759089D01*
X63077172Y-66818544D01*
X63070285Y-66892234D01*
X63049989Y-66959935D01*
X63012377Y-67025191D01*
X62993055Y-67047644D01*
X62936828Y-67090536D01*
X62867273Y-67120085D01*
X62794110Y-67134596D01*
X62732155Y-67137916D01*
X62661973Y-67133541D01*
X62588326Y-67114365D01*
X62526284Y-67078716D01*
X62481171Y-67038753D01*
X62481171Y-67118425D01*
X62232239Y-67128000D01*
X62232239Y-66744685D01*
X62487326Y-66744685D01*
X62493683Y-66814801D01*
X62526307Y-66872228D01*
X62585351Y-66914217D01*
X62654653Y-66926851D01*
X62677444Y-66927281D01*
X62746222Y-66919005D01*
X62807483Y-66883044D01*
X62832199Y-66816619D01*
X62832343Y-66809995D01*
X62814749Y-66742820D01*
X62754762Y-66700152D01*
X62681206Y-66690316D01*
X62487326Y-66690316D01*
X62487326Y-66744685D01*
X62232239Y-66744685D01*
X62232239Y-66455745D01*
X62239119Y-66371636D01*
X62259717Y-66298597D01*
X62293962Y-66236675D01*
X62341788Y-66185912D01*
X62403125Y-66146353D01*
X62477906Y-66118042D01*
X62566064Y-66101023D01*
X62640918Y-66095696D01*
X62667528Y-66095341D01*
X62742349Y-66098070D01*
G37*
G36*
X61703599Y-67128000D02*
G01*
X61703599Y-66138767D01*
X61958345Y-66138767D01*
X61958345Y-67128000D01*
X61703599Y-67128000D01*
G37*
G36*
X61701548Y-65935313D02*
G01*
X61701548Y-65727413D01*
X61962106Y-65727413D01*
X61962106Y-65935313D01*
X61701548Y-65935313D01*
G37*
G36*
X60570752Y-67128000D02*
G01*
X60570752Y-66475578D01*
X60574256Y-66404436D01*
X60589003Y-66328496D01*
X60618739Y-66258094D01*
X60659954Y-66200883D01*
X60674702Y-66185271D01*
X60735242Y-66139261D01*
X60801644Y-66111121D01*
X60869456Y-66097734D01*
X60915770Y-66095341D01*
X60985867Y-66101944D01*
X61053400Y-66121756D01*
X61115805Y-66154774D01*
X61170515Y-66201000D01*
X61170515Y-66111412D01*
X61419447Y-66111412D01*
X61419447Y-67128000D01*
X61164702Y-67128000D01*
X61164702Y-66514217D01*
X61155841Y-66441187D01*
X61121256Y-66373177D01*
X61061998Y-66331086D01*
X60994074Y-66318628D01*
X60926545Y-66330911D01*
X60868109Y-66371777D01*
X60834169Y-66436969D01*
X60825497Y-66506353D01*
X60825497Y-67128000D01*
X60570752Y-67128000D01*
G37*
G36*
X59822929Y-67128000D02*
G01*
X59550403Y-67128000D01*
X59550403Y-66602780D01*
X59281980Y-66602780D01*
X59203529Y-66597697D01*
X59131641Y-66582960D01*
X59066568Y-66559340D01*
X58990840Y-66515355D01*
X58928272Y-66458768D01*
X58879462Y-66391400D01*
X58845006Y-66315075D01*
X58825502Y-66231617D01*
X58821045Y-66165438D01*
X59093571Y-66165438D01*
X59104507Y-66235063D01*
X59141927Y-66298281D01*
X59202888Y-66340429D01*
X59273046Y-66357051D01*
X59295658Y-66357951D01*
X59550403Y-66357951D01*
X59550403Y-65970533D01*
X59295658Y-65970533D01*
X59221435Y-65981508D01*
X59155084Y-66018508D01*
X59111481Y-66077630D01*
X59094485Y-66144260D01*
X59093571Y-66165438D01*
X58821045Y-66165438D01*
X58828944Y-66077699D01*
X58852242Y-65995729D01*
X58890342Y-65921357D01*
X58942648Y-65856410D01*
X59008561Y-65802715D01*
X59087486Y-65762099D01*
X59154859Y-65741319D01*
X59228963Y-65729695D01*
X59281980Y-65727413D01*
X59822929Y-65727413D01*
X59822929Y-67128000D01*
G37*
G36*
X57611604Y-66691000D02*
G01*
X57888233Y-66691000D01*
X57912850Y-66759465D01*
X57951544Y-66816290D01*
X58014433Y-66862628D01*
X58087048Y-66883085D01*
X58123488Y-66885222D01*
X58194947Y-66876049D01*
X58259769Y-66847039D01*
X58297877Y-66814099D01*
X58336315Y-66751572D01*
X58354906Y-66674894D01*
X58361769Y-66606497D01*
X58364927Y-66536986D01*
X58366214Y-66451976D01*
X58366265Y-66428048D01*
X58365792Y-66359455D01*
X58363593Y-66282374D01*
X58358061Y-66206075D01*
X58346851Y-66138324D01*
X58319366Y-66070127D01*
X58297877Y-66041656D01*
X58239836Y-65997027D01*
X58170182Y-65974307D01*
X58123488Y-65970533D01*
X58054028Y-65978904D01*
X57989159Y-66007881D01*
X57934657Y-66062175D01*
X57902605Y-66124404D01*
X57890285Y-66164755D01*
X57611604Y-66164755D01*
X57629870Y-66087360D01*
X57655532Y-66017354D01*
X57688157Y-65954785D01*
X57741745Y-65883013D01*
X57805924Y-65824666D01*
X57879674Y-65779860D01*
X57961971Y-65748711D01*
X58051795Y-65731336D01*
X58123488Y-65727413D01*
X58195748Y-65731250D01*
X58274824Y-65745716D01*
X58346373Y-65770494D01*
X58411249Y-65805110D01*
X58470302Y-65849092D01*
X58497912Y-65874448D01*
X58543922Y-65927267D01*
X58585737Y-65996934D01*
X58613008Y-66072638D01*
X58628843Y-66156506D01*
X58635365Y-66230909D01*
X58638148Y-66312990D01*
X58638782Y-66403839D01*
X58638791Y-66428048D01*
X58638634Y-66498759D01*
X58637125Y-66584996D01*
X58632671Y-66663036D01*
X58623682Y-66733963D01*
X58603646Y-66814277D01*
X58570930Y-66887296D01*
X58522429Y-66955142D01*
X58497912Y-66981307D01*
X58441450Y-67029763D01*
X58379592Y-67069045D01*
X58311486Y-67098707D01*
X58236280Y-67118302D01*
X58167570Y-67126620D01*
X58123488Y-67128000D01*
X58052269Y-67124085D01*
X57984523Y-67112373D01*
X57900396Y-67084704D01*
X57824356Y-67043361D01*
X57757499Y-66988452D01*
X57700918Y-66920085D01*
X57665884Y-66860044D01*
X57637708Y-66792538D01*
X57616850Y-66717615D01*
X57611604Y-66691000D01*
G37*
G36*
X57377375Y-67128000D02*
G01*
X56792999Y-67128000D01*
X56703177Y-67121437D01*
X56621249Y-67101911D01*
X56548473Y-67069666D01*
X56486108Y-67024947D01*
X56435411Y-66967999D01*
X56397642Y-66899065D01*
X56374057Y-66818391D01*
X56366435Y-66750327D01*
X56365916Y-66726220D01*
X56367203Y-66712200D01*
X56638442Y-66712200D01*
X56652528Y-66786697D01*
X56695304Y-66845331D01*
X56758039Y-66877342D01*
X56820696Y-66885222D01*
X57104848Y-66885222D01*
X57104848Y-66541572D01*
X56820696Y-66541572D01*
X56748905Y-66551949D01*
X56689110Y-66585969D01*
X56649561Y-66645869D01*
X56638442Y-66712200D01*
X56367203Y-66712200D01*
X56373306Y-66645730D01*
X56393475Y-66578538D01*
X56430329Y-66513875D01*
X56484220Y-66457990D01*
X56542010Y-66420217D01*
X56558086Y-66412319D01*
X56493940Y-66368442D01*
X56445204Y-66313285D01*
X56411200Y-66251879D01*
X56389923Y-66177846D01*
X56386369Y-66133638D01*
X56657933Y-66133638D01*
X56672965Y-66207498D01*
X56716843Y-66261676D01*
X56787743Y-66291744D01*
X56838135Y-66296401D01*
X57104848Y-66296401D01*
X57104848Y-65970533D01*
X56838135Y-65970533D01*
X56769746Y-65979603D01*
X56704693Y-66015540D01*
X56667067Y-66074604D01*
X56657933Y-66133638D01*
X56386369Y-66133638D01*
X56385407Y-66121670D01*
X56392756Y-66035517D01*
X56414456Y-65958367D01*
X56449979Y-65890987D01*
X56498803Y-65834141D01*
X56560401Y-65788596D01*
X56634248Y-65755116D01*
X56719821Y-65734466D01*
X56791379Y-65727860D01*
X56816593Y-65727413D01*
X57377375Y-65727413D01*
X57377375Y-67128000D01*
G37*
G36*
X71891018Y-68543084D02*
G01*
X71944360Y-68498407D01*
X72007877Y-68466063D01*
X72078798Y-68450140D01*
X72132085Y-68447341D01*
X72202054Y-68454204D01*
X72274902Y-68476488D01*
X72336777Y-68510304D01*
X72388882Y-68557103D01*
X72388882Y-68463412D01*
X72637815Y-68463412D01*
X72637815Y-69480000D01*
X72383069Y-69480000D01*
X72383069Y-68867927D01*
X72374599Y-68798548D01*
X72341435Y-68730451D01*
X72284313Y-68685165D01*
X72218254Y-68670628D01*
X72149922Y-68682822D01*
X72090441Y-68724667D01*
X72083188Y-68731835D01*
X71891018Y-68543084D01*
G37*
G36*
X71483064Y-68456367D02*
G01*
X71550267Y-68470955D01*
X71631388Y-68504972D01*
X71701787Y-68555051D01*
X71760340Y-68620548D01*
X71795806Y-68679404D01*
X71823506Y-68746303D01*
X71842965Y-68820974D01*
X71853709Y-68903145D01*
X71855798Y-68961960D01*
X71853143Y-69035060D01*
X71839712Y-69132196D01*
X71815914Y-69215146D01*
X71782843Y-69284842D01*
X71741593Y-69342217D01*
X71675760Y-69401166D01*
X71599923Y-69442082D01*
X71516675Y-69467179D01*
X71428609Y-69478667D01*
X71383579Y-69480000D01*
X71303012Y-69476005D01*
X71232764Y-69464075D01*
X71159266Y-69439394D01*
X71094279Y-69403533D01*
X71034340Y-69356627D01*
X70995477Y-69319288D01*
X71150034Y-69170886D01*
X71203915Y-69215630D01*
X71269010Y-69248746D01*
X71342142Y-69263062D01*
X71381527Y-69264577D01*
X71455971Y-69255230D01*
X71524432Y-69222635D01*
X71572392Y-69169893D01*
X71599123Y-69100375D01*
X71604814Y-69042316D01*
X70966070Y-69042316D01*
X70966070Y-68934605D01*
X70969742Y-68867927D01*
X71216712Y-68867927D01*
X71604814Y-68867927D01*
X71595263Y-68798080D01*
X71581562Y-68763977D01*
X71538123Y-68706774D01*
X71476668Y-68672974D01*
X71410934Y-68663447D01*
X71338687Y-68675124D01*
X71279034Y-68710842D01*
X71240306Y-68763977D01*
X71219581Y-68831971D01*
X71216712Y-68867927D01*
X70969742Y-68867927D01*
X70970277Y-68858211D01*
X70982774Y-68786405D01*
X71003378Y-68719826D01*
X71043142Y-68640289D01*
X71096553Y-68572695D01*
X71163175Y-68518559D01*
X71242570Y-68479396D01*
X71310236Y-68460761D01*
X71384657Y-68452038D01*
X71410934Y-68451444D01*
X71483064Y-68456367D01*
G37*
G36*
X69934779Y-68451444D02*
G01*
X70203544Y-68451444D01*
X70409392Y-69087452D01*
X70616949Y-68451444D01*
X70885714Y-68451444D01*
X70509238Y-69480000D01*
X70309203Y-69480000D01*
X69934779Y-68451444D01*
G37*
G36*
X69601046Y-69480000D02*
G01*
X69601046Y-69195505D01*
X69893062Y-69195505D01*
X69893062Y-69480000D01*
X69601046Y-69480000D01*
G37*
G36*
X68564414Y-68086333D02*
G01*
X68643245Y-68106817D01*
X68715368Y-68140452D01*
X68778808Y-68186825D01*
X68831589Y-68245525D01*
X68871736Y-68316137D01*
X68897272Y-68398250D01*
X68905649Y-68467134D01*
X68906224Y-68491451D01*
X68906224Y-69068304D01*
X68901142Y-69139219D01*
X68879567Y-69224109D01*
X68842887Y-69297584D01*
X68793080Y-69359239D01*
X68732119Y-69408669D01*
X68661982Y-69445470D01*
X68584642Y-69469237D01*
X68502077Y-69479565D01*
X68480850Y-69480000D01*
X68397375Y-69473095D01*
X68318776Y-69452650D01*
X68246981Y-69419069D01*
X68183918Y-69372759D01*
X68131514Y-69314122D01*
X68091696Y-69243564D01*
X68066392Y-69161490D01*
X68058097Y-69092620D01*
X68057528Y-69068304D01*
X68057528Y-68495212D01*
X68312274Y-68495212D01*
X68312274Y-69066252D01*
X68321516Y-69135050D01*
X68358350Y-69201789D01*
X68419365Y-69241182D01*
X68480850Y-69250900D01*
X68550499Y-69238253D01*
X68609836Y-69195666D01*
X68641984Y-69135050D01*
X68651478Y-69066252D01*
X68651478Y-68495212D01*
X68641984Y-68426205D01*
X68609836Y-68365024D01*
X68550499Y-68321769D01*
X68480850Y-68308855D01*
X68411522Y-68321769D01*
X68352987Y-68365024D01*
X68321516Y-68426205D01*
X68312274Y-68495212D01*
X68057528Y-68495212D01*
X68057528Y-68491451D01*
X68062559Y-68420527D01*
X68083934Y-68335604D01*
X68120304Y-68262077D01*
X68169742Y-68200361D01*
X68230322Y-68150867D01*
X68300114Y-68114009D01*
X68377193Y-68090198D01*
X68459630Y-68079849D01*
X68480850Y-68079413D01*
X68564414Y-68086333D01*
G37*
G36*
X66985547Y-69480000D02*
G01*
X66985547Y-69250900D01*
X67524786Y-69250900D01*
X67134632Y-68801249D01*
X67085194Y-68742340D01*
X67039525Y-68678593D01*
X67007383Y-68614173D01*
X66989391Y-68542747D01*
X66985547Y-68483928D01*
X66993610Y-68394880D01*
X67016973Y-68315416D01*
X67054393Y-68246243D01*
X67104627Y-68188065D01*
X67166434Y-68141588D01*
X67238572Y-68107517D01*
X67319797Y-68086557D01*
X67408868Y-68079413D01*
X67495868Y-68086491D01*
X67576312Y-68107308D01*
X67648646Y-68141245D01*
X67711314Y-68187680D01*
X67762763Y-68245992D01*
X67801437Y-68315560D01*
X67825781Y-68395763D01*
X67834242Y-68485980D01*
X67579496Y-68485980D01*
X67568046Y-68410435D01*
X67531747Y-68352376D01*
X67471160Y-68317633D01*
X67408868Y-68308855D01*
X67337088Y-68321421D01*
X67278969Y-68362668D01*
X67246619Y-68427873D01*
X67240292Y-68482219D01*
X67251485Y-68552513D01*
X67287174Y-68617158D01*
X67312783Y-68649427D01*
X67834242Y-69250900D01*
X67834242Y-69480000D01*
X66985547Y-69480000D01*
G37*
G36*
X65467333Y-69480000D02*
G01*
X65467333Y-69250900D01*
X66006572Y-69250900D01*
X65616419Y-68801249D01*
X65566980Y-68742340D01*
X65521312Y-68678593D01*
X65489170Y-68614173D01*
X65471177Y-68542747D01*
X65467333Y-68483928D01*
X65475397Y-68394880D01*
X65498760Y-68315416D01*
X65536179Y-68246243D01*
X65586414Y-68188065D01*
X65648221Y-68141588D01*
X65720358Y-68107517D01*
X65801583Y-68086557D01*
X65890655Y-68079413D01*
X65977654Y-68086491D01*
X66058099Y-68107308D01*
X66130432Y-68141245D01*
X66193101Y-68187680D01*
X66244549Y-68245992D01*
X66283223Y-68315560D01*
X66307568Y-68395763D01*
X66316028Y-68485980D01*
X66061283Y-68485980D01*
X66049833Y-68410435D01*
X66013533Y-68352376D01*
X65952947Y-68317633D01*
X65890655Y-68308855D01*
X65818874Y-68321421D01*
X65760756Y-68362668D01*
X65728405Y-68427873D01*
X65722078Y-68482219D01*
X65733272Y-68552513D01*
X65768960Y-68617158D01*
X65794570Y-68649427D01*
X66316028Y-69250900D01*
X66316028Y-69480000D01*
X65467333Y-69480000D01*
G37*
G36*
X64917966Y-68086333D02*
G01*
X64996797Y-68106817D01*
X65068920Y-68140452D01*
X65132360Y-68186825D01*
X65185141Y-68245525D01*
X65225288Y-68316137D01*
X65250824Y-68398250D01*
X65259201Y-68467134D01*
X65259776Y-68491451D01*
X65259776Y-69068304D01*
X65254694Y-69139219D01*
X65233119Y-69224109D01*
X65196439Y-69297584D01*
X65146632Y-69359239D01*
X65085671Y-69408669D01*
X65015534Y-69445470D01*
X64938194Y-69469237D01*
X64855629Y-69479565D01*
X64834402Y-69480000D01*
X64750927Y-69473095D01*
X64672328Y-69452650D01*
X64600533Y-69419069D01*
X64537470Y-69372759D01*
X64485066Y-69314122D01*
X64445248Y-69243564D01*
X64419944Y-69161490D01*
X64411649Y-69092620D01*
X64411080Y-69068304D01*
X64411080Y-68495212D01*
X64665826Y-68495212D01*
X64665826Y-69066252D01*
X64675068Y-69135050D01*
X64711902Y-69201789D01*
X64772917Y-69241182D01*
X64834402Y-69250900D01*
X64904051Y-69238253D01*
X64963388Y-69195666D01*
X64995536Y-69135050D01*
X65005030Y-69066252D01*
X65005030Y-68495212D01*
X64995536Y-68426205D01*
X64963388Y-68365024D01*
X64904051Y-68321769D01*
X64834402Y-68308855D01*
X64765074Y-68321769D01*
X64706539Y-68365024D01*
X64675068Y-68426205D01*
X64665826Y-68495212D01*
X64411080Y-68495212D01*
X64411080Y-68491451D01*
X64416111Y-68420527D01*
X64437486Y-68335604D01*
X64473856Y-68262077D01*
X64523294Y-68200361D01*
X64583874Y-68150867D01*
X64653666Y-68114009D01*
X64730745Y-68090198D01*
X64813182Y-68079849D01*
X64834402Y-68079413D01*
X64917966Y-68086333D01*
G37*
G36*
X63339099Y-69480000D02*
G01*
X63339099Y-69250900D01*
X63878338Y-69250900D01*
X63488184Y-68801249D01*
X63438746Y-68742340D01*
X63393077Y-68678593D01*
X63360935Y-68614173D01*
X63342943Y-68542747D01*
X63339099Y-68483928D01*
X63347162Y-68394880D01*
X63370525Y-68315416D01*
X63407945Y-68246243D01*
X63458179Y-68188065D01*
X63519986Y-68141588D01*
X63592124Y-68107517D01*
X63673349Y-68086557D01*
X63762420Y-68079413D01*
X63849420Y-68086491D01*
X63929864Y-68107308D01*
X64002198Y-68141245D01*
X64064866Y-68187680D01*
X64116315Y-68245992D01*
X64154989Y-68315560D01*
X64179333Y-68395763D01*
X64187794Y-68485980D01*
X63933048Y-68485980D01*
X63921598Y-68410435D01*
X63885299Y-68352376D01*
X63824712Y-68317633D01*
X63762420Y-68308855D01*
X63690640Y-68321421D01*
X63632521Y-68362668D01*
X63600171Y-68427873D01*
X63593844Y-68482219D01*
X63605037Y-68552513D01*
X63640726Y-68617158D01*
X63666335Y-68649427D01*
X64187794Y-69250900D01*
X64187794Y-69480000D01*
X63339099Y-69480000D01*
G37*
G36*
X62271220Y-69001967D02*
G01*
X62273395Y-68929232D01*
X62281985Y-68857327D01*
X62300087Y-68787008D01*
X62330798Y-68719033D01*
X62377214Y-68654160D01*
X62396712Y-68633356D01*
X62451979Y-68590269D01*
X62521629Y-68558922D01*
X62595171Y-68542797D01*
X62657270Y-68538981D01*
X62732315Y-68546621D01*
X62802835Y-68569076D01*
X62863266Y-68606460D01*
X62866879Y-68609762D01*
X62866879Y-68308855D01*
X62302337Y-68308855D01*
X62302337Y-68079413D01*
X63098373Y-68079413D01*
X63098373Y-68866901D01*
X62865170Y-68866901D01*
X62827128Y-68803050D01*
X62764143Y-68764624D01*
X62696593Y-68754745D01*
X62626091Y-68767303D01*
X62570140Y-68811341D01*
X62540608Y-68874475D01*
X62528220Y-68945890D01*
X62525965Y-69001967D01*
X62528874Y-69071669D01*
X62541678Y-69139059D01*
X62576578Y-69202196D01*
X62580676Y-69206448D01*
X62642749Y-69242759D01*
X62702406Y-69250900D01*
X62771671Y-69239541D01*
X62831939Y-69194951D01*
X62863690Y-69128164D01*
X62873034Y-69080956D01*
X63127780Y-69080956D01*
X63118788Y-69156182D01*
X63100211Y-69230127D01*
X63072086Y-69292668D01*
X63029306Y-69352202D01*
X63013914Y-69368527D01*
X62960096Y-69411478D01*
X62889832Y-69446960D01*
X62815340Y-69468830D01*
X62742150Y-69478690D01*
X62702406Y-69480000D01*
X62625531Y-69474885D01*
X62557820Y-69460579D01*
X62490028Y-69434346D01*
X62426775Y-69394806D01*
X62394660Y-69366475D01*
X62345430Y-69308213D01*
X62310824Y-69247026D01*
X62288515Y-69181357D01*
X62276178Y-69109652D01*
X62271487Y-69030355D01*
X62271220Y-69001967D01*
G37*
G36*
X61456035Y-69038897D02*
G01*
X61456035Y-68801591D01*
X62059559Y-68801591D01*
X62059559Y-69038897D01*
X61456035Y-69038897D01*
G37*
G36*
X60891280Y-68086333D02*
G01*
X60970112Y-68106817D01*
X61042235Y-68140452D01*
X61105675Y-68186825D01*
X61158456Y-68245525D01*
X61198602Y-68316137D01*
X61224139Y-68398250D01*
X61232515Y-68467134D01*
X61233090Y-68491451D01*
X61233090Y-69068304D01*
X61228009Y-69139219D01*
X61206433Y-69224109D01*
X61169754Y-69297584D01*
X61119947Y-69359239D01*
X61058986Y-69408669D01*
X60988849Y-69445470D01*
X60911509Y-69469237D01*
X60828943Y-69479565D01*
X60807717Y-69480000D01*
X60724241Y-69473095D01*
X60645643Y-69452650D01*
X60573848Y-69419069D01*
X60510785Y-69372759D01*
X60458380Y-69314122D01*
X60418562Y-69243564D01*
X60393258Y-69161490D01*
X60384964Y-69092620D01*
X60384395Y-69068304D01*
X60384395Y-68495212D01*
X60639140Y-68495212D01*
X60639140Y-69066252D01*
X60648383Y-69135050D01*
X60685217Y-69201789D01*
X60746232Y-69241182D01*
X60807717Y-69250900D01*
X60877366Y-69238253D01*
X60936702Y-69195666D01*
X60968851Y-69135050D01*
X60978345Y-69066252D01*
X60978345Y-68495212D01*
X60968851Y-68426205D01*
X60936702Y-68365024D01*
X60877366Y-68321769D01*
X60807717Y-68308855D01*
X60738389Y-68321769D01*
X60679853Y-68365024D01*
X60648383Y-68426205D01*
X60639140Y-68495212D01*
X60384395Y-68495212D01*
X60384395Y-68491451D01*
X60389426Y-68420527D01*
X60410800Y-68335604D01*
X60447171Y-68262077D01*
X60496609Y-68200361D01*
X60557188Y-68150867D01*
X60626981Y-68114009D01*
X60704059Y-68090198D01*
X60786496Y-68079849D01*
X60807717Y-68079413D01*
X60891280Y-68086333D01*
G37*
G36*
X59306600Y-69067278D02*
G01*
X59312254Y-68994433D01*
X59332614Y-68919747D01*
X59365510Y-68857911D01*
X59416523Y-68800549D01*
X59477501Y-68757446D01*
X59486803Y-68752351D01*
X59422887Y-68708508D01*
X59377465Y-68657232D01*
X59344839Y-68592327D01*
X59329224Y-68524709D01*
X59326091Y-68472986D01*
X59334243Y-68390396D01*
X59357838Y-68314983D01*
X59395586Y-68247929D01*
X59446197Y-68190416D01*
X59508381Y-68143625D01*
X59580847Y-68108740D01*
X59662305Y-68086942D01*
X59751464Y-68079413D01*
X59837136Y-68086294D01*
X59916680Y-68106501D01*
X59988555Y-68139388D01*
X60051217Y-68184303D01*
X60103125Y-68240599D01*
X60142734Y-68307626D01*
X60168503Y-68384735D01*
X60178889Y-68471277D01*
X59924144Y-68471277D01*
X59908078Y-68402910D01*
X59865699Y-68346779D01*
X59802553Y-68315112D01*
X59751464Y-68308855D01*
X59678472Y-68322647D01*
X59620527Y-68363688D01*
X59586347Y-68431476D01*
X59580836Y-68480509D01*
X59593802Y-68554017D01*
X59634249Y-68610596D01*
X59704507Y-68643218D01*
X59757277Y-68648401D01*
X59794549Y-68648401D01*
X59794549Y-68869979D01*
X59757277Y-68869979D01*
X59683124Y-68880437D01*
X59618814Y-68915953D01*
X59577777Y-68973256D01*
X59561553Y-69048852D01*
X59561346Y-69059413D01*
X59572096Y-69132473D01*
X59608137Y-69195319D01*
X59665308Y-69235092D01*
X59739216Y-69250702D01*
X59749413Y-69250900D01*
X59820862Y-69240203D01*
X59887016Y-69201676D01*
X59926112Y-69142674D01*
X59939873Y-69071039D01*
X60194618Y-69071039D01*
X60188099Y-69148048D01*
X60171495Y-69216328D01*
X60135342Y-69294227D01*
X60085279Y-69357655D01*
X60023601Y-69407207D01*
X59952604Y-69443483D01*
X59874585Y-69467077D01*
X59791840Y-69478589D01*
X59749413Y-69480000D01*
X59661762Y-69473569D01*
X59579388Y-69454269D01*
X59504268Y-69422081D01*
X59438375Y-69376990D01*
X59383687Y-69318980D01*
X59342178Y-69248036D01*
X59315824Y-69164140D01*
X59307192Y-69092710D01*
X59306600Y-69067278D01*
G37*
G36*
X58493467Y-69038897D02*
G01*
X58493467Y-68801591D01*
X59096991Y-68801591D01*
X59096991Y-69038897D01*
X58493467Y-69038897D01*
G37*
G36*
X57928712Y-68086333D02*
G01*
X58007544Y-68106817D01*
X58079667Y-68140452D01*
X58143107Y-68186825D01*
X58195888Y-68245525D01*
X58236034Y-68316137D01*
X58261571Y-68398250D01*
X58269947Y-68467134D01*
X58270522Y-68491451D01*
X58270522Y-69068304D01*
X58265441Y-69139219D01*
X58243865Y-69224109D01*
X58207186Y-69297584D01*
X58157378Y-69359239D01*
X58096418Y-69408669D01*
X58026280Y-69445470D01*
X57948941Y-69469237D01*
X57866375Y-69479565D01*
X57845149Y-69480000D01*
X57761673Y-69473095D01*
X57683075Y-69452650D01*
X57611280Y-69419069D01*
X57548217Y-69372759D01*
X57495812Y-69314122D01*
X57455994Y-69243564D01*
X57430690Y-69161490D01*
X57422396Y-69092620D01*
X57421827Y-69068304D01*
X57421827Y-68495212D01*
X57676572Y-68495212D01*
X57676572Y-69066252D01*
X57685815Y-69135050D01*
X57722649Y-69201789D01*
X57783663Y-69241182D01*
X57845149Y-69250900D01*
X57914798Y-69238253D01*
X57974134Y-69195666D01*
X58006283Y-69135050D01*
X58015777Y-69066252D01*
X58015777Y-68495212D01*
X58006283Y-68426205D01*
X57974134Y-68365024D01*
X57914798Y-68321769D01*
X57845149Y-68308855D01*
X57775821Y-68321769D01*
X57717285Y-68365024D01*
X57685815Y-68426205D01*
X57676572Y-68495212D01*
X57421827Y-68495212D01*
X57421827Y-68491451D01*
X57426858Y-68420527D01*
X57448232Y-68335604D01*
X57484603Y-68262077D01*
X57534041Y-68200361D01*
X57594620Y-68150867D01*
X57664413Y-68114009D01*
X57741491Y-68090198D01*
X57823928Y-68079849D01*
X57845149Y-68079413D01*
X57928712Y-68086333D01*
G37*
G36*
X56868893Y-68086867D02*
G01*
X56951435Y-68108847D01*
X57025435Y-68144779D01*
X57089376Y-68194091D01*
X57141745Y-68256210D01*
X57181027Y-68330563D01*
X57205706Y-68416576D01*
X57213723Y-68488394D01*
X57214270Y-68513677D01*
X57209660Y-68583346D01*
X57190201Y-68667375D01*
X57157376Y-68740715D01*
X57113199Y-68802751D01*
X57059687Y-68852871D01*
X56998854Y-68890462D01*
X56932718Y-68914911D01*
X56863292Y-68925605D01*
X56845658Y-68926057D01*
X56777376Y-68919209D01*
X56742050Y-68908276D01*
X57032016Y-69480000D01*
X56755728Y-69480000D01*
X56459608Y-68880921D01*
X56425706Y-68810160D01*
X56395540Y-68740824D01*
X56370830Y-68672101D01*
X56353291Y-68603180D01*
X56344643Y-68533249D01*
X56344085Y-68511625D01*
X56598778Y-68511625D01*
X56609258Y-68587945D01*
X56644196Y-68654390D01*
X56699201Y-68696953D01*
X56769658Y-68713838D01*
X56779322Y-68714054D01*
X56852919Y-68699687D01*
X56909815Y-68658873D01*
X56946515Y-68595043D01*
X56959313Y-68523007D01*
X56959524Y-68511625D01*
X56949048Y-68435264D01*
X56914141Y-68368706D01*
X56859228Y-68326022D01*
X56788954Y-68309072D01*
X56779322Y-68308855D01*
X56707258Y-68322458D01*
X56650069Y-68362027D01*
X56612370Y-68425702D01*
X56599000Y-68499732D01*
X56598778Y-68511625D01*
X56344085Y-68511625D01*
X56344032Y-68509574D01*
X56348885Y-68435359D01*
X56363018Y-68367661D01*
X56395196Y-68287833D01*
X56441229Y-68220300D01*
X56499606Y-68165467D01*
X56568816Y-68123740D01*
X56647348Y-68095523D01*
X56733692Y-68081220D01*
X56779322Y-68079413D01*
X56868893Y-68086867D01*
G37*
G36*
X69802448Y-71395000D02*
G01*
X70079078Y-71395000D01*
X70103695Y-71463465D01*
X70142388Y-71520290D01*
X70205277Y-71566628D01*
X70277893Y-71587085D01*
X70314332Y-71589222D01*
X70385791Y-71580049D01*
X70450613Y-71551039D01*
X70488722Y-71518099D01*
X70527159Y-71455572D01*
X70545750Y-71378894D01*
X70552614Y-71310497D01*
X70555771Y-71240986D01*
X70557058Y-71155976D01*
X70557110Y-71132048D01*
X70556637Y-71063455D01*
X70554438Y-70986374D01*
X70548905Y-70910075D01*
X70537696Y-70842324D01*
X70510211Y-70774127D01*
X70488722Y-70745656D01*
X70430681Y-70701027D01*
X70361026Y-70678307D01*
X70314332Y-70674533D01*
X70244873Y-70682904D01*
X70180003Y-70711881D01*
X70125501Y-70766175D01*
X70093450Y-70828404D01*
X70081129Y-70868755D01*
X69802448Y-70868755D01*
X69820715Y-70791360D01*
X69846376Y-70721354D01*
X69879001Y-70658785D01*
X69932589Y-70587013D01*
X69996769Y-70528666D01*
X70070518Y-70483860D01*
X70152816Y-70452711D01*
X70242640Y-70435336D01*
X70314332Y-70431413D01*
X70386592Y-70435250D01*
X70465668Y-70449716D01*
X70537218Y-70474494D01*
X70602093Y-70509110D01*
X70661147Y-70553092D01*
X70688757Y-70578448D01*
X70734767Y-70631267D01*
X70776581Y-70700934D01*
X70803852Y-70776638D01*
X70819688Y-70860506D01*
X70826210Y-70934909D01*
X70828993Y-71016990D01*
X70829627Y-71107839D01*
X70829636Y-71132048D01*
X70829479Y-71202759D01*
X70827969Y-71288996D01*
X70823516Y-71367036D01*
X70814527Y-71437963D01*
X70794490Y-71518277D01*
X70761775Y-71591296D01*
X70713273Y-71659142D01*
X70688757Y-71685307D01*
X70632295Y-71733763D01*
X70570437Y-71773045D01*
X70502331Y-71802707D01*
X70427124Y-71822302D01*
X70358414Y-71830620D01*
X70314332Y-71832000D01*
X70243114Y-71828085D01*
X70175368Y-71816373D01*
X70091240Y-71788704D01*
X70015201Y-71747361D01*
X69948344Y-71692452D01*
X69891763Y-71624085D01*
X69856729Y-71564044D01*
X69828552Y-71496538D01*
X69807695Y-71421615D01*
X69802448Y-71395000D01*
G37*
G36*
X68648743Y-71832000D02*
G01*
X68648743Y-71589222D01*
X69295693Y-71589222D01*
X69295693Y-71243521D01*
X68744828Y-71243521D01*
X68744828Y-71000401D01*
X69295693Y-71000401D01*
X69295693Y-70674533D01*
X68648743Y-70674533D01*
X68648743Y-70431413D01*
X69568219Y-70431413D01*
X69568219Y-71832000D01*
X68648743Y-71832000D01*
G37*
G36*
X68382371Y-71832000D02*
G01*
X68109845Y-71832000D01*
X68109845Y-71271560D01*
X67913914Y-71271560D01*
X67641387Y-71832000D01*
X67325777Y-71832000D01*
X67637284Y-71226766D01*
X67563620Y-71191439D01*
X67507688Y-71150286D01*
X67459262Y-71098410D01*
X67420728Y-71035740D01*
X67394474Y-70962205D01*
X67382886Y-70877735D01*
X67382539Y-70859522D01*
X67655065Y-70859522D01*
X67669170Y-70933958D01*
X67709177Y-70992366D01*
X67771624Y-71030514D01*
X67841951Y-71043947D01*
X67853048Y-71044170D01*
X68109845Y-71044170D01*
X68109845Y-70674533D01*
X67853048Y-70674533D01*
X67780835Y-70685098D01*
X67715827Y-70720528D01*
X67672825Y-70776756D01*
X67655293Y-70849485D01*
X67655065Y-70859522D01*
X67382539Y-70859522D01*
X67390337Y-70773976D01*
X67413319Y-70693959D01*
X67450862Y-70621284D01*
X67502346Y-70557760D01*
X67567150Y-70505200D01*
X67644652Y-70465415D01*
X67710738Y-70445049D01*
X67783356Y-70433652D01*
X67835267Y-70431413D01*
X68382371Y-70431413D01*
X68382371Y-71832000D01*
G37*
G36*
X66032560Y-71832000D02*
G01*
X66032560Y-70431413D01*
X66304744Y-70431413D01*
X66304744Y-71289341D01*
X66857661Y-70431413D01*
X67100780Y-70431413D01*
X67100780Y-71832000D01*
X66828254Y-71832000D01*
X66828254Y-70972362D01*
X66275337Y-71832000D01*
X66032560Y-71832000D01*
G37*
G36*
X65151722Y-71390897D02*
G01*
X65151722Y-71153591D01*
X65755246Y-71153591D01*
X65755246Y-71390897D01*
X65151722Y-71390897D01*
G37*
G36*
X64477975Y-70435250D02*
G01*
X64557343Y-70449716D01*
X64629173Y-70474494D01*
X64694116Y-70509110D01*
X64752819Y-70553092D01*
X64780034Y-70578448D01*
X64826044Y-70631267D01*
X64867858Y-70700934D01*
X64895129Y-70776638D01*
X64910965Y-70860506D01*
X64917487Y-70934909D01*
X64920270Y-71016990D01*
X64920904Y-71107839D01*
X64920913Y-71132048D01*
X64920756Y-71202759D01*
X64919246Y-71288996D01*
X64914793Y-71367036D01*
X64905804Y-71437963D01*
X64885767Y-71518277D01*
X64853052Y-71591296D01*
X64804550Y-71659142D01*
X64780034Y-71685307D01*
X64724207Y-71733763D01*
X64662465Y-71773045D01*
X64594160Y-71802707D01*
X64518642Y-71822302D01*
X64449732Y-71830620D01*
X64405609Y-71832000D01*
X64333356Y-71828186D01*
X64254343Y-71813791D01*
X64182980Y-71789106D01*
X64118483Y-71754579D01*
X64060067Y-71710654D01*
X64032895Y-71685307D01*
X63986796Y-71632489D01*
X63944675Y-71562828D01*
X63916964Y-71487146D01*
X63900653Y-71403321D01*
X63893785Y-71328973D01*
X63890741Y-71246970D01*
X63889979Y-71156227D01*
X63889964Y-71132048D01*
X64162490Y-71132048D01*
X64162963Y-71200461D01*
X64165162Y-71277082D01*
X64170694Y-71352574D01*
X64184298Y-71428292D01*
X64213311Y-71492034D01*
X64230878Y-71514337D01*
X64288942Y-71560325D01*
X64358736Y-71584987D01*
X64405609Y-71589222D01*
X64477152Y-71579021D01*
X64542652Y-71548003D01*
X64582050Y-71514337D01*
X64620012Y-71452683D01*
X64637862Y-71377364D01*
X64645186Y-71293866D01*
X64647626Y-71221110D01*
X64648387Y-71132048D01*
X64647964Y-71063498D01*
X64645967Y-70986588D01*
X64640831Y-70910634D01*
X64627890Y-70834246D01*
X64599529Y-70769987D01*
X64582050Y-70747708D01*
X64527606Y-70705170D01*
X64458663Y-70679763D01*
X64405609Y-70674533D01*
X64333905Y-70684266D01*
X64268994Y-70714372D01*
X64230878Y-70747708D01*
X64192440Y-70809617D01*
X64173850Y-70885646D01*
X64166986Y-70953722D01*
X64163829Y-71023088D01*
X64162542Y-71108094D01*
X64162490Y-71132048D01*
X63889964Y-71132048D01*
X63890171Y-71061250D01*
X63891882Y-70974922D01*
X63896644Y-70896816D01*
X63906002Y-70825843D01*
X63926512Y-70745496D01*
X63959625Y-70672462D01*
X64008355Y-70604613D01*
X64032895Y-70578448D01*
X64088564Y-70529960D01*
X64149922Y-70490602D01*
X64217754Y-70460845D01*
X64292844Y-70441164D01*
X64361529Y-70432801D01*
X64405609Y-70431413D01*
X64477975Y-70435250D01*
G37*
G36*
X62595721Y-71832000D02*
G01*
X62595721Y-70431413D01*
X62867905Y-70431413D01*
X62867905Y-71000401D01*
X63340466Y-71000401D01*
X63340466Y-70431413D01*
X63612992Y-70431413D01*
X63612992Y-71832000D01*
X63340466Y-71832000D01*
X63340466Y-71241811D01*
X62867905Y-71241811D01*
X62867905Y-71832000D01*
X62595721Y-71832000D01*
G37*
G36*
X61365421Y-71832000D02*
G01*
X61365421Y-71589222D01*
X61998694Y-71589222D01*
X61998694Y-70431413D01*
X62271220Y-70431413D01*
X62271220Y-71832000D01*
X61365421Y-71832000D01*
G37*
G36*
X60587507Y-71390897D02*
G01*
X60587507Y-71153591D01*
X61191031Y-71153591D01*
X61191031Y-71390897D01*
X60587507Y-71390897D01*
G37*
G36*
X58745477Y-70431413D02*
G01*
X59029629Y-70431413D01*
X59247445Y-71314644D01*
X59502190Y-70431413D01*
X59705986Y-70431413D01*
X59960731Y-71314644D01*
X60176496Y-70431413D01*
X60460648Y-70431413D01*
X60088275Y-71832000D01*
X59860885Y-71832000D01*
X59604088Y-70982279D01*
X59347291Y-71832000D01*
X59119901Y-71832000D01*
X58745477Y-70431413D01*
G37*
G36*
X57321297Y-70803444D02*
G01*
X57590061Y-70803444D01*
X57795909Y-71439452D01*
X58003467Y-70803444D01*
X58272232Y-70803444D01*
X57895756Y-71832000D01*
X57695721Y-71832000D01*
X57321297Y-70803444D01*
G37*
G36*
X56349845Y-71832000D02*
G01*
X56349845Y-71602900D01*
X56889084Y-71602900D01*
X56498931Y-71153249D01*
X56449493Y-71094340D01*
X56403824Y-71030593D01*
X56371682Y-70966173D01*
X56353689Y-70894747D01*
X56349845Y-70835928D01*
X56357909Y-70746880D01*
X56381272Y-70667416D01*
X56418691Y-70598243D01*
X56468926Y-70540065D01*
X56530733Y-70493588D01*
X56602870Y-70459517D01*
X56684095Y-70438557D01*
X56773167Y-70431413D01*
X56860167Y-70438491D01*
X56940611Y-70459308D01*
X57012944Y-70493245D01*
X57075613Y-70539680D01*
X57127061Y-70597992D01*
X57165735Y-70667560D01*
X57190080Y-70747763D01*
X57198540Y-70837980D01*
X56943795Y-70837980D01*
X56932345Y-70762435D01*
X56896045Y-70704376D01*
X56835459Y-70669633D01*
X56773167Y-70660855D01*
X56701386Y-70673421D01*
X56643268Y-70714668D01*
X56610917Y-70779873D01*
X56604590Y-70834219D01*
X56615784Y-70904513D01*
X56651473Y-70969158D01*
X56677082Y-71001427D01*
X57198540Y-71602900D01*
X57198540Y-71832000D01*
X56349845Y-71832000D01*
G37*
D14*
G36*
X54759401Y-67896100D02*
G01*
X51134313Y-67896100D01*
X51134313Y-63896325D01*
X51523202Y-63896325D01*
X51986530Y-66123209D01*
X52028024Y-66298830D01*
X52085701Y-66487389D01*
X52153360Y-66658358D01*
X52230999Y-66811738D01*
X52292567Y-66910526D01*
X52400118Y-67051790D01*
X52532991Y-67187721D01*
X52678441Y-67299309D01*
X52782396Y-67360177D01*
X52955503Y-67431253D01*
X53131175Y-67474904D01*
X53301717Y-67498021D01*
X53487968Y-67507067D01*
X53515857Y-67507211D01*
X53698832Y-67496542D01*
X53884574Y-67457126D01*
X54060285Y-67376517D01*
X54196995Y-67257973D01*
X54238205Y-67203739D01*
X54320645Y-67033357D01*
X54360435Y-66854382D01*
X54370512Y-66678770D01*
X54358411Y-66482662D01*
X54331384Y-66303582D01*
X53597923Y-66303582D01*
X53623363Y-66480634D01*
X53626907Y-66656809D01*
X53596213Y-66798540D01*
X53477262Y-66922270D01*
X53322661Y-66951558D01*
X53145810Y-66921881D01*
X52994848Y-66824802D01*
X52986705Y-66816492D01*
X52888880Y-66659499D01*
X52829419Y-66496264D01*
X52782242Y-66313700D01*
X52771283Y-66262549D01*
X52278889Y-63896325D01*
X51523202Y-63896325D01*
X51134313Y-63896325D01*
X51134313Y-63507436D01*
X54759401Y-63507436D01*
X54759401Y-67896100D01*
G37*
D12*
X60710839Y-73565057D02*
X60663220Y-73517438D01*
X60663220Y-73517438D02*
X60567982Y-73469819D01*
X60567982Y-73469819D02*
X60329887Y-73469819D01*
X60329887Y-73469819D02*
X60234649Y-73517438D01*
X60234649Y-73517438D02*
X60187030Y-73565057D01*
X60187030Y-73565057D02*
X60139411Y-73660295D01*
X60139411Y-73660295D02*
X60139411Y-73755533D01*
X60139411Y-73755533D02*
X60187030Y-73898390D01*
X60187030Y-73898390D02*
X60758458Y-74469819D01*
X60758458Y-74469819D02*
X60139411Y-74469819D01*
X113134649Y-73803152D02*
X113134649Y-74469819D01*
X113372744Y-73422200D02*
X113610839Y-74136485D01*
X113610839Y-74136485D02*
X112991792Y-74136485D01*
X112420363Y-73469819D02*
X112325125Y-73469819D01*
X112325125Y-73469819D02*
X112229887Y-73517438D01*
X112229887Y-73517438D02*
X112182268Y-73565057D01*
X112182268Y-73565057D02*
X112134649Y-73660295D01*
X112134649Y-73660295D02*
X112087030Y-73850771D01*
X112087030Y-73850771D02*
X112087030Y-74088866D01*
X112087030Y-74088866D02*
X112134649Y-74279342D01*
X112134649Y-74279342D02*
X112182268Y-74374580D01*
X112182268Y-74374580D02*
X112229887Y-74422200D01*
X112229887Y-74422200D02*
X112325125Y-74469819D01*
X112325125Y-74469819D02*
X112420363Y-74469819D01*
X112420363Y-74469819D02*
X112515601Y-74422200D01*
X112515601Y-74422200D02*
X112563220Y-74374580D01*
X112563220Y-74374580D02*
X112610839Y-74279342D01*
X112610839Y-74279342D02*
X112658458Y-74088866D01*
X112658458Y-74088866D02*
X112658458Y-73850771D01*
X112658458Y-73850771D02*
X112610839Y-73660295D01*
X112610839Y-73660295D02*
X112563220Y-73565057D01*
X112563220Y-73565057D02*
X112515601Y-73517438D01*
X112515601Y-73517438D02*
X112420363Y-73469819D01*
X130996847Y-103660839D02*
X130711133Y-103051316D01*
X130711133Y-103051316D02*
X130425419Y-103660839D01*
X130330180Y-102251316D02*
X130330180Y-102708459D01*
X130330180Y-102479887D02*
X131330180Y-102479887D01*
X131330180Y-102479887D02*
X131187323Y-102556078D01*
X131187323Y-102556078D02*
X131092085Y-102632268D01*
X131092085Y-102632268D02*
X131044466Y-102708459D01*
X131330180Y-101756077D02*
X131330180Y-101679887D01*
X131330180Y-101679887D02*
X131282561Y-101603696D01*
X131282561Y-101603696D02*
X131234942Y-101565601D01*
X131234942Y-101565601D02*
X131139704Y-101527506D01*
X131139704Y-101527506D02*
X130949228Y-101489411D01*
X130949228Y-101489411D02*
X130711133Y-101489411D01*
X130711133Y-101489411D02*
X130520657Y-101527506D01*
X130520657Y-101527506D02*
X130425419Y-101565601D01*
X130425419Y-101565601D02*
X130377800Y-101603696D01*
X130377800Y-101603696D02*
X130330180Y-101679887D01*
X130330180Y-101679887D02*
X130330180Y-101756077D01*
X130330180Y-101756077D02*
X130377800Y-101832268D01*
X130377800Y-101832268D02*
X130425419Y-101870363D01*
X130425419Y-101870363D02*
X130520657Y-101908458D01*
X130520657Y-101908458D02*
X130711133Y-101946554D01*
X130711133Y-101946554D02*
X130949228Y-101946554D01*
X130949228Y-101946554D02*
X131139704Y-101908458D01*
X131139704Y-101908458D02*
X131234942Y-101870363D01*
X131234942Y-101870363D02*
X131282561Y-101832268D01*
X131282561Y-101832268D02*
X131330180Y-101756077D01*
X131330180Y-100994172D02*
X131330180Y-100917982D01*
X131330180Y-100917982D02*
X131282561Y-100841791D01*
X131282561Y-100841791D02*
X131234942Y-100803696D01*
X131234942Y-100803696D02*
X131139704Y-100765601D01*
X131139704Y-100765601D02*
X130949228Y-100727506D01*
X130949228Y-100727506D02*
X130711133Y-100727506D01*
X130711133Y-100727506D02*
X130520657Y-100765601D01*
X130520657Y-100765601D02*
X130425419Y-100803696D01*
X130425419Y-100803696D02*
X130377800Y-100841791D01*
X130377800Y-100841791D02*
X130330180Y-100917982D01*
X130330180Y-100917982D02*
X130330180Y-100994172D01*
X130330180Y-100994172D02*
X130377800Y-101070363D01*
X130377800Y-101070363D02*
X130425419Y-101108458D01*
X130425419Y-101108458D02*
X130520657Y-101146553D01*
X130520657Y-101146553D02*
X130711133Y-101184649D01*
X130711133Y-101184649D02*
X130949228Y-101184649D01*
X130949228Y-101184649D02*
X131139704Y-101146553D01*
X131139704Y-101146553D02*
X131234942Y-101108458D01*
X131234942Y-101108458D02*
X131282561Y-101070363D01*
X131282561Y-101070363D02*
X131330180Y-100994172D01*
X131330180Y-100232267D02*
X131330180Y-100156077D01*
X131330180Y-100156077D02*
X131282561Y-100079886D01*
X131282561Y-100079886D02*
X131234942Y-100041791D01*
X131234942Y-100041791D02*
X131139704Y-100003696D01*
X131139704Y-100003696D02*
X130949228Y-99965601D01*
X130949228Y-99965601D02*
X130711133Y-99965601D01*
X130711133Y-99965601D02*
X130520657Y-100003696D01*
X130520657Y-100003696D02*
X130425419Y-100041791D01*
X130425419Y-100041791D02*
X130377800Y-100079886D01*
X130377800Y-100079886D02*
X130330180Y-100156077D01*
X130330180Y-100156077D02*
X130330180Y-100232267D01*
X130330180Y-100232267D02*
X130377800Y-100308458D01*
X130377800Y-100308458D02*
X130425419Y-100346553D01*
X130425419Y-100346553D02*
X130520657Y-100384648D01*
X130520657Y-100384648D02*
X130711133Y-100422744D01*
X130711133Y-100422744D02*
X130949228Y-100422744D01*
X130949228Y-100422744D02*
X131139704Y-100384648D01*
X131139704Y-100384648D02*
X131234942Y-100346553D01*
X131234942Y-100346553D02*
X131282561Y-100308458D01*
X131282561Y-100308458D02*
X131330180Y-100232267D01*
X130330180Y-99622743D02*
X130996847Y-99622743D01*
X130901609Y-99622743D02*
X130949228Y-99584648D01*
X130949228Y-99584648D02*
X130996847Y-99508458D01*
X130996847Y-99508458D02*
X130996847Y-99394172D01*
X130996847Y-99394172D02*
X130949228Y-99317981D01*
X130949228Y-99317981D02*
X130853990Y-99279886D01*
X130853990Y-99279886D02*
X130330180Y-99279886D01*
X130853990Y-99279886D02*
X130949228Y-99241791D01*
X130949228Y-99241791D02*
X130996847Y-99165600D01*
X130996847Y-99165600D02*
X130996847Y-99051315D01*
X130996847Y-99051315D02*
X130949228Y-98975124D01*
X130949228Y-98975124D02*
X130853990Y-98937029D01*
X130853990Y-98937029D02*
X130330180Y-98937029D01*
X130615895Y-98594172D02*
X130615895Y-98213219D01*
X130330180Y-98670362D02*
X131330180Y-98403695D01*
X131330180Y-98403695D02*
X130330180Y-98137029D01*
X130330180Y-97870362D02*
X131330180Y-97870362D01*
X130853990Y-97870362D02*
X130853990Y-97413219D01*
X130330180Y-97413219D02*
X131330180Y-97413219D01*
D15*
X133175000Y-65010000D02*
X134875000Y-65010000D01*
X133175000Y-74350000D02*
X134875000Y-74350000D01*
D16*
X53500000Y-78200000D02*
X53500000Y-102200000D01*
X56500000Y-105200000D02*
X115500000Y-105200000D01*
X90400000Y-105200000D02*
X98750000Y-105200000D01*
X103000000Y-105200000D02*
X111350000Y-105200000D01*
X115500000Y-75200000D02*
X56500000Y-75200000D01*
X118500000Y-102200000D02*
X118500000Y-78200000D01*
X53500000Y-78200000D02*
G75*
G02*
X56500000Y-75200000I3000001J-1D01*
G01*
X56500000Y-105200000D02*
G75*
G02*
X53500000Y-102200000I1J3000001D01*
G01*
X115500000Y-75200000D02*
G75*
G02*
X118500000Y-78200000I0J-3000000D01*
G01*
X118500000Y-102200000D02*
G75*
G02*
X115500000Y-105200000I-3000000J0D01*
G01*
D15*
X78362742Y-70127501D02*
X78837258Y-70127501D01*
X78362742Y-71172501D02*
X78837258Y-71172501D01*
X81190000Y-64300000D02*
X81190000Y-66000000D01*
X83850000Y-64300000D02*
X81190000Y-64300000D01*
X83850000Y-66000000D02*
X81190000Y-66000000D01*
X117284419Y-62290000D02*
X117565581Y-62290000D01*
X117284419Y-63310000D02*
X117565581Y-63310000D01*
X78831250Y-66515001D02*
X80331250Y-66515001D01*
X78831250Y-69735001D02*
X80331250Y-69735001D01*
X81831250Y-66515001D02*
X80331250Y-66515001D01*
X81831250Y-69735001D02*
X80331250Y-69735001D01*
X82543750Y-66690001D02*
X82303751Y-66360001D01*
X82783750Y-66360001D01*
X82543750Y-66690001D01*
G36*
X82543750Y-66690001D02*
G01*
X82303751Y-66360001D01*
X82783750Y-66360001D01*
X82543750Y-66690001D01*
G37*
X100887258Y-69827501D02*
X100412742Y-69827501D01*
X100887258Y-70872501D02*
X100412742Y-70872501D01*
X103490000Y-63162742D02*
X103490000Y-63637258D01*
X104535000Y-63162742D02*
X104535000Y-63637258D01*
X134877500Y-96075242D02*
X134877500Y-96549758D01*
X135922500Y-96075242D02*
X135922500Y-96549758D01*
X128787500Y-88912742D02*
X128787500Y-89387258D01*
X129832500Y-88912742D02*
X129832500Y-89387258D01*
X130455000Y-93851247D02*
X130455000Y-94373753D01*
X131925000Y-93851247D02*
X131925000Y-94373753D01*
X117627500Y-65287258D02*
X117627500Y-64812742D01*
X118672500Y-65287258D02*
X118672500Y-64812742D01*
D16*
X104950000Y-55150000D02*
X104950000Y-54220000D01*
X105270000Y-58350000D02*
X111730000Y-58350000D01*
X105300000Y-52750000D02*
X111700000Y-52750000D01*
X107080000Y-51350000D02*
X105600000Y-51350000D01*
X111400000Y-51350000D02*
X109920000Y-51350000D01*
X112050000Y-55150000D02*
X112050000Y-54220000D01*
D13*
X104500000Y-54950000D02*
G75*
G02*
X104300000Y-54950000I-100000J0D01*
G01*
X104300000Y-54950000D02*
G75*
G02*
X104500000Y-54950000I100000J0D01*
G01*
D15*
X130455000Y-89373752D02*
X130455000Y-88851246D01*
X131925000Y-89373752D02*
X131925000Y-88851246D01*
X106652500Y-63540581D02*
X106652500Y-63259419D01*
X107672500Y-63540581D02*
X107672500Y-63259419D01*
X100412742Y-71327500D02*
X100887258Y-71327500D01*
X100412742Y-72372500D02*
X100887258Y-72372500D01*
D16*
X62950000Y-55150000D02*
X62950000Y-54220000D01*
X63270000Y-58350000D02*
X69730000Y-58350000D01*
X63300000Y-52750000D02*
X69700000Y-52750000D01*
X65080000Y-51350000D02*
X63600000Y-51350000D01*
X69400000Y-51350000D02*
X67920000Y-51350000D01*
X70050000Y-55150000D02*
X70050000Y-54220000D01*
D13*
X62500000Y-54950000D02*
G75*
G02*
X62300000Y-54950000I-100000J0D01*
G01*
X62300000Y-54950000D02*
G75*
G02*
X62500000Y-54950000I100000J0D01*
G01*
D15*
X130737258Y-62977500D02*
X130262742Y-62977500D01*
X130737258Y-64022500D02*
X130262742Y-64022500D01*
D16*
X74950000Y-55150000D02*
X74950000Y-54220000D01*
X75270000Y-58350000D02*
X81730000Y-58350000D01*
X75300000Y-52750000D02*
X81700000Y-52750000D01*
X77080000Y-51350000D02*
X75600000Y-51350000D01*
X81400000Y-51350000D02*
X79920000Y-51350000D01*
X82050000Y-55150000D02*
X82050000Y-54220000D01*
D13*
X74500000Y-54950000D02*
G75*
G02*
X74300000Y-54950000I-100000J0D01*
G01*
X74300000Y-54950000D02*
G75*
G02*
X74500000Y-54950000I100000J0D01*
G01*
D15*
X120859419Y-73640000D02*
X121140581Y-73640000D01*
X120859419Y-74660000D02*
X121140581Y-74660000D01*
X73558750Y-67762743D02*
X73558750Y-68237259D01*
X74603750Y-67762743D02*
X74603750Y-68237259D01*
X119000000Y-99340000D02*
X121889999Y-99340000D01*
X120290000Y-97040000D02*
X124540000Y-97040000D01*
X120290000Y-98060000D02*
X120290000Y-97040000D01*
X120290000Y-104140000D02*
X120290000Y-105160000D01*
X120290000Y-105160000D02*
X124540000Y-105160000D01*
X121889999Y-99340000D02*
X121890000Y-98060000D01*
X121889999Y-102860000D02*
X121890000Y-104140000D01*
X121890000Y-98060000D02*
X120290000Y-98060000D01*
X121890000Y-104140000D02*
X120290000Y-104140000D01*
X128110000Y-103439999D02*
X128110000Y-98760001D01*
X119127501Y-62412743D02*
X119127501Y-62887259D01*
X120172501Y-62412743D02*
X120172501Y-62887259D01*
X98915000Y-66088747D02*
X98915000Y-66611253D01*
X100385000Y-66088747D02*
X100385000Y-66611253D01*
X100887259Y-68327500D02*
X100412743Y-68327500D01*
X100887259Y-69372500D02*
X100412743Y-69372500D01*
X133377500Y-86775242D02*
X133377500Y-87249758D01*
X134422500Y-86775242D02*
X134422500Y-87249758D01*
X124190000Y-79200000D02*
X124190000Y-80900000D01*
X126850000Y-79200000D02*
X124190000Y-79200000D01*
X126850000Y-80900000D02*
X124190000Y-80900000D01*
X90527500Y-72937258D02*
X90527500Y-72462742D01*
X91572500Y-72937258D02*
X91572500Y-72462742D01*
X120988748Y-75290000D02*
X122411252Y-75290000D01*
X120988748Y-77110000D02*
X122411252Y-77110000D01*
X134877500Y-86775242D02*
X134877500Y-87249758D01*
X135922500Y-86775242D02*
X135922500Y-87249758D01*
X85862742Y-66477500D02*
X86337258Y-66477500D01*
X85862742Y-67522500D02*
X86337258Y-67522500D01*
X125827500Y-86337258D02*
X125827500Y-85862742D01*
X126872500Y-86337258D02*
X126872500Y-85862742D01*
X121112742Y-72127500D02*
X121587258Y-72127500D01*
X121112742Y-73172500D02*
X121587258Y-73172500D01*
X123000001Y-72949999D02*
X122999479Y-70025518D01*
X123425001Y-73374999D02*
X125575000Y-73375000D01*
X125574480Y-69600522D02*
X123424479Y-69600522D01*
X125999480Y-70025522D02*
X126000001Y-72950001D01*
X122999479Y-70025518D02*
G75*
G02*
X123424479Y-69600529I425011J-22D01*
G01*
X123425001Y-73374999D02*
G75*
G02*
X123000001Y-72949999I-2J424998D01*
G01*
X125574480Y-69600522D02*
G75*
G02*
X125999478Y-70025522I0J-424998D01*
G01*
X126000001Y-72950001D02*
G75*
G02*
X125575000Y-73375000I-425000J1D01*
G01*
X123761253Y-59690000D02*
X122338749Y-59690000D01*
X123761253Y-61510000D02*
X122338749Y-61510000D01*
X125887258Y-76927500D02*
X125412742Y-76927500D01*
X125887258Y-77972500D02*
X125412742Y-77972500D01*
X133377500Y-96075242D02*
X133377500Y-96549758D01*
X134422500Y-96075242D02*
X134422500Y-96549758D01*
X84777500Y-64462742D02*
X84777500Y-64937258D01*
X85822500Y-64462742D02*
X85822500Y-64937258D01*
X124990000Y-83480000D02*
X124990001Y-82070000D01*
X125650001Y-83480000D02*
X124990000Y-83480000D01*
X127310000Y-83480000D02*
X126649999Y-83480000D01*
X127310000Y-83480000D02*
X127309999Y-82070000D01*
X125010000Y-81700000D02*
X124680001Y-81940000D01*
X124680000Y-81460000D01*
X125010000Y-81700000D01*
G36*
X125010000Y-81700000D02*
G01*
X124680001Y-81940000D01*
X124680000Y-81460000D01*
X125010000Y-81700000D01*
G37*
X119240000Y-66650000D02*
X119240000Y-68150000D01*
X119240000Y-69650000D02*
X119240000Y-68150000D01*
X122460000Y-66650000D02*
X122460000Y-68150000D01*
X122460000Y-69650000D02*
X122460000Y-68150000D01*
X122615000Y-70602500D02*
X122285000Y-70362500D01*
X122615000Y-70122501D01*
X122615000Y-70602500D01*
G36*
X122615000Y-70602500D02*
G01*
X122285000Y-70362500D01*
X122615000Y-70122501D01*
X122615000Y-70602500D01*
G37*
X86377500Y-64937258D02*
X86377500Y-64462742D01*
X87422500Y-64937258D02*
X87422500Y-64462742D01*
X130737258Y-61477500D02*
X130262742Y-61477500D01*
X130737258Y-62522500D02*
X130262742Y-62522500D01*
X127050000Y-93350000D02*
X127050000Y-90690000D01*
X128750000Y-90690000D02*
X127050000Y-90690000D01*
X128750000Y-93350000D02*
X128750000Y-90690000D01*
X122424721Y-95090000D02*
X122750279Y-95090000D01*
X122424721Y-96110000D02*
X122750279Y-96110000D01*
X117187743Y-60777500D02*
X117662259Y-60777500D01*
X117187743Y-61822500D02*
X117662259Y-61822500D01*
X102002500Y-63540581D02*
X102002500Y-63259419D01*
X103022500Y-63540581D02*
X103022500Y-63259419D01*
X132790000Y-93062500D02*
X132790000Y-90062500D01*
X136010000Y-93062500D02*
X136010000Y-90062500D01*
X133100000Y-89542500D02*
X132620000Y-89542500D01*
X133100000Y-89062500D01*
X133100000Y-89542500D01*
G36*
X133100000Y-89542500D02*
G01*
X132620000Y-89542500D01*
X133100000Y-89062500D01*
X133100000Y-89542500D01*
G37*
X123640000Y-89200000D02*
X123639999Y-89850000D01*
X123640000Y-90500000D02*
X123639999Y-89850000D01*
X126760000Y-89200000D02*
X126760001Y-89850000D01*
X126760000Y-90500000D02*
X126760001Y-89850000D01*
X123690000Y-88687500D02*
X123360001Y-88927500D01*
X123360000Y-88447500D01*
X123690000Y-88687500D01*
G36*
X123690000Y-88687500D02*
G01*
X123360001Y-88927500D01*
X123360000Y-88447500D01*
X123690000Y-88687500D01*
G37*
X86790000Y-53690000D02*
X86790000Y-53990000D01*
X86790000Y-55810000D02*
X86790000Y-57860000D01*
X86790000Y-57860000D02*
X87560000Y-57860000D01*
X87560000Y-57510000D02*
X89540000Y-57510000D01*
X87560000Y-57860000D02*
X87560000Y-57510000D01*
X87590000Y-52390000D02*
X87590000Y-53690000D01*
X87590000Y-53690000D02*
X86790000Y-53690000D01*
X88750000Y-57990000D02*
X88750000Y-58590000D01*
X88750000Y-58590000D02*
X89250001Y-58290000D01*
X89250001Y-58290000D02*
X88750000Y-57990000D01*
X97460000Y-57510000D02*
X99440000Y-57510000D01*
X99410000Y-52390000D02*
X87590000Y-52390000D01*
X99410000Y-53690000D02*
X99410000Y-52390000D01*
X99440000Y-57510000D02*
X99440000Y-57860000D01*
X99440000Y-57860000D02*
X100210000Y-57860000D01*
X100210000Y-53690000D02*
X99410000Y-53690000D01*
X100210000Y-53990000D02*
X100210000Y-53690000D01*
X100210000Y-57860000D02*
X100210000Y-55810000D01*
X82287258Y-70127500D02*
X81812742Y-70127500D01*
X82287258Y-71172500D02*
X81812742Y-71172500D01*
X75058750Y-67762743D02*
X75058750Y-68237259D01*
X76103750Y-67762743D02*
X76103750Y-68237259D01*
X123050000Y-84640000D02*
X123700000Y-84639999D01*
X123050000Y-87760000D02*
X123700000Y-87760001D01*
X124350000Y-84640000D02*
X123700000Y-84639999D01*
X124350000Y-87760000D02*
X123700000Y-87760001D01*
X124862500Y-84690000D02*
X124622500Y-84360001D01*
X125102500Y-84360000D01*
X124862500Y-84690000D01*
G36*
X124862500Y-84690000D02*
G01*
X124622500Y-84360001D01*
X125102500Y-84360000D01*
X124862500Y-84690000D01*
G37*
D16*
X116950000Y-55150000D02*
X116950000Y-54220000D01*
X117270000Y-58350000D02*
X123730000Y-58350000D01*
X117300000Y-52750000D02*
X123700000Y-52750000D01*
X119080000Y-51350000D02*
X117600000Y-51350000D01*
X123400000Y-51350000D02*
X121920000Y-51350000D01*
X124050000Y-55150000D02*
X124050000Y-54220000D01*
D13*
X116500000Y-54950000D02*
G75*
G02*
X116300000Y-54950000I-100000J0D01*
G01*
X116300000Y-54950000D02*
G75*
G02*
X116500000Y-54950000I100000J0D01*
G01*
D15*
X127377500Y-85862742D02*
X127377500Y-86337258D01*
X128422500Y-85862742D02*
X128422500Y-86337258D01*
X103740000Y-66339999D02*
X103740000Y-66814999D01*
X103740000Y-69559999D02*
X103740000Y-69084999D01*
X104215000Y-66339999D02*
X103740000Y-66339999D01*
X104215000Y-69559999D02*
X103740000Y-69559999D01*
X106485000Y-66339999D02*
X106960000Y-66339999D01*
X106720000Y-69559999D02*
X106485000Y-69559999D01*
X106960000Y-66339999D02*
X106960000Y-66814999D01*
X106960000Y-69259999D02*
X106960000Y-69084999D01*
X107290000Y-69799999D02*
X106960000Y-69559999D01*
X107290000Y-69319999D01*
X107290000Y-69799999D01*
G36*
X107290000Y-69799999D02*
G01*
X106960000Y-69559999D01*
X107290000Y-69319999D01*
X107290000Y-69799999D01*
G37*
X123402500Y-83237258D02*
X123402500Y-82762742D01*
X124447500Y-83237258D02*
X124447500Y-82762742D01*
X88627500Y-71637258D02*
X88627500Y-71162742D01*
X89672500Y-71637258D02*
X89672500Y-71162742D01*
X84490000Y-69440581D02*
X84490000Y-69159419D01*
X85510000Y-69440581D02*
X85510000Y-69159419D01*
X100940000Y-66409418D02*
X100940000Y-66690580D01*
X101960000Y-66409418D02*
X101960000Y-66690580D01*
X122027500Y-90062742D02*
X122027500Y-90537258D01*
X123072500Y-90062742D02*
X123072500Y-90537258D01*
X123761252Y-62040001D02*
X122338748Y-62040001D01*
X123761252Y-63860001D02*
X122338748Y-63860001D01*
X105140000Y-63162742D02*
X105140000Y-63637258D01*
X106185000Y-63162742D02*
X106185000Y-63637258D01*
X127290000Y-76450000D02*
X127290000Y-78450000D01*
X131150000Y-76450000D02*
X127290000Y-76450000D01*
X131150000Y-78450000D02*
X127290000Y-78450000D01*
X79262742Y-65077500D02*
X79737258Y-65077500D01*
X79262742Y-66122500D02*
X79737258Y-66122500D01*
%LPC*%
D17*
X123850000Y-109850000D02*
X130250000Y-109850000D01*
X130250000Y-116850000D01*
X123850000Y-116850000D01*
X123850000Y-109850000D01*
G36*
X123850000Y-109850000D02*
G01*
X130250000Y-109850000D01*
X130250000Y-116850000D01*
X123850000Y-116850000D01*
X123850000Y-109850000D01*
G37*
D18*
X131875001Y-69180000D03*
D19*
X131875000Y-71200000D03*
D20*
X131875000Y-72430000D03*
D21*
X131875001Y-70180000D03*
D22*
X131875000Y-68160000D03*
D23*
X131875000Y-66930000D03*
D24*
X132125000Y-65360000D03*
X135925000Y-65360000D03*
X132125000Y-74000000D03*
X135925000Y-74000000D03*
D25*
X52000000Y-60000000D03*
X85500000Y-60000000D03*
X135000000Y-81500000D03*
X57000000Y-78700000D03*
X57000000Y-101700000D03*
X115000000Y-78700000D03*
X115000000Y-101700000D03*
D26*
X61870000Y-79970000D03*
X61870000Y-77430000D03*
X64410000Y-79970000D03*
X64410000Y-77430000D03*
X66950000Y-79970000D03*
X66950000Y-77430000D03*
X69490000Y-79970000D03*
X69490000Y-77430000D03*
X72030000Y-79970000D03*
X72030000Y-77430000D03*
X74570000Y-79970000D03*
X74570000Y-77430000D03*
X77110000Y-79970000D03*
X77110000Y-77430000D03*
X79650000Y-79970000D03*
X79650000Y-77430000D03*
X82190000Y-79970000D03*
X82190000Y-77430000D03*
X84730000Y-79970000D03*
X84730000Y-77430000D03*
X87270000Y-79970000D03*
X87270000Y-77430000D03*
X89810000Y-79970000D03*
X89810000Y-77430000D03*
X92350000Y-79970000D03*
X92350000Y-77430000D03*
X94890000Y-79970000D03*
X94890000Y-77430000D03*
X97430000Y-79970000D03*
X97430000Y-77430000D03*
X99970000Y-79970000D03*
X99970000Y-77430000D03*
X102510000Y-79970000D03*
X102510000Y-77430000D03*
X105050000Y-79970000D03*
X105050000Y-77430000D03*
X107590000Y-79970000D03*
X107590000Y-77430000D03*
X110130000Y-79970000D03*
X110130000Y-77430000D03*
D25*
X135000000Y-60000000D03*
D27*
X79425000Y-70650001D03*
X77775000Y-70650001D03*
D28*
X109012500Y-67200000D03*
D29*
X68000000Y-74000000D03*
D30*
X81750000Y-65150000D03*
X83850000Y-65150000D03*
D31*
X118200000Y-62800000D03*
X116650000Y-62800000D03*
D32*
X82443750Y-67150001D03*
X82443750Y-67800001D03*
X82443750Y-68450001D03*
X82443750Y-69100001D03*
X78218750Y-69100001D03*
X78218750Y-68450001D03*
X78218750Y-67800001D03*
X78218750Y-67150001D03*
D33*
X99825000Y-70350001D03*
X101475000Y-70350001D03*
D34*
X104012500Y-64225000D03*
X104012500Y-62575000D03*
X135400000Y-97137500D03*
X135400000Y-95487500D03*
X129310000Y-89975000D03*
X129310000Y-88325000D03*
D35*
X131190000Y-95062499D03*
X131190000Y-93162501D03*
D36*
X118150000Y-64225000D03*
X118150000Y-65875000D03*
D37*
X112800000Y-57850000D03*
X112800000Y-53250000D03*
D38*
X108500000Y-51950000D03*
D37*
X104200000Y-57850000D03*
X104200000Y-53250000D03*
D39*
X112475000Y-51600000D03*
D40*
X106250000Y-55500000D03*
D39*
X104525000Y-51600000D03*
X112475000Y-56100000D03*
D40*
X110750000Y-55500000D03*
D39*
X104525000Y-56100000D03*
D41*
X131190000Y-88162500D03*
X131190000Y-90062498D03*
D29*
X89000000Y-64000000D03*
D42*
X107162500Y-62625000D03*
X107162500Y-64175000D03*
D29*
X111000000Y-74000000D03*
D27*
X101475000Y-71850000D03*
X99825000Y-71850000D03*
D37*
X70800000Y-57850000D03*
X70800000Y-53250000D03*
D38*
X66500000Y-51950000D03*
D37*
X62200000Y-57850000D03*
X62200000Y-53250000D03*
D39*
X70475000Y-51600000D03*
D40*
X64250000Y-55500000D03*
D39*
X62525000Y-51600000D03*
X70475000Y-56100000D03*
D40*
X68750000Y-55500000D03*
D39*
X62525000Y-56100000D03*
D33*
X129675000Y-63500000D03*
X131325000Y-63500000D03*
D29*
X78000000Y-74000000D03*
D28*
X109012500Y-70700000D03*
D37*
X82800000Y-57850000D03*
X82800000Y-53250000D03*
D38*
X78500000Y-51950000D03*
D37*
X74200000Y-57850000D03*
X74200000Y-53250000D03*
D39*
X82475000Y-51600000D03*
D40*
X76250000Y-55500000D03*
D39*
X74525000Y-51600000D03*
X82475000Y-56100000D03*
D40*
X80750000Y-55500000D03*
D39*
X74525000Y-56100000D03*
D29*
X70000000Y-74000000D03*
X59000000Y-74000000D03*
D31*
X121775000Y-74150000D03*
X120225000Y-74150000D03*
D29*
X62000000Y-74000000D03*
D34*
X74081250Y-68825001D03*
X74081250Y-67175001D03*
D43*
X120750000Y-100100000D03*
X120750000Y-102100000D03*
D44*
X126500000Y-97750000D03*
X126500000Y-104450000D03*
D29*
X64000000Y-74000000D03*
D34*
X119650001Y-63475001D03*
X119650001Y-61825001D03*
D35*
X99650000Y-67299999D03*
X99650000Y-65400001D03*
D28*
X111012500Y-68700000D03*
D33*
X99825001Y-68850000D03*
X101475001Y-68850000D03*
D29*
X76000000Y-74000000D03*
D34*
X133900000Y-87837500D03*
X133900000Y-86187500D03*
D30*
X124750000Y-80050000D03*
X126850000Y-80050000D03*
D29*
X80000000Y-74000000D03*
D36*
X91050000Y-71875000D03*
X91050000Y-73525000D03*
D45*
X123175001Y-76200000D03*
X120224999Y-76200000D03*
D29*
X109000000Y-74000000D03*
X93000000Y-74000000D03*
X91000000Y-66000000D03*
X72000000Y-74000000D03*
D34*
X135400000Y-87837500D03*
X135400000Y-86187500D03*
D27*
X86925000Y-67000000D03*
X85275000Y-67000000D03*
D36*
X126350000Y-85275000D03*
X126350000Y-86925000D03*
D27*
X122175000Y-72650000D03*
X120525000Y-72650000D03*
D46*
X124500000Y-72537500D03*
X124500000Y-70462500D03*
D29*
X95000000Y-72000000D03*
D47*
X57200000Y-58300000D03*
D48*
X121575000Y-60600000D03*
X124525002Y-60600000D03*
D33*
X124825000Y-77450000D03*
X126475000Y-77450000D03*
D29*
X99000000Y-74000000D03*
X91000000Y-64000000D03*
D34*
X133900000Y-97137500D03*
X133900000Y-95487500D03*
X85300000Y-65525000D03*
X85300000Y-63875000D03*
D49*
X125500000Y-81750000D03*
X126800000Y-81750000D03*
X126150000Y-83750000D03*
D29*
X93000000Y-70000000D03*
D50*
X121825000Y-70262500D03*
X121175000Y-70262500D03*
X120525000Y-70262500D03*
X119875000Y-70262500D03*
X119875000Y-66037500D03*
X120525000Y-66037500D03*
X121175000Y-66037500D03*
X121825000Y-66037500D03*
D36*
X86900000Y-63875000D03*
X86900000Y-65525000D03*
D33*
X129675000Y-62000000D03*
X131325000Y-62000000D03*
D51*
X127900000Y-91250000D03*
X127900000Y-93350000D03*
D29*
X105000000Y-74000000D03*
D52*
X123375000Y-95600000D03*
X121800000Y-95600000D03*
D29*
X66000000Y-74000000D03*
D27*
X118250001Y-61300000D03*
X116600001Y-61300000D03*
D42*
X102512500Y-62625000D03*
X102512500Y-64175000D03*
D29*
X97000000Y-74000000D03*
D53*
X133400000Y-90125000D03*
X133900001Y-90125000D03*
X134400000Y-90125000D03*
X134899999Y-90125000D03*
X135400000Y-90125000D03*
X135400000Y-93000000D03*
X134899999Y-93000000D03*
X134400000Y-93000000D03*
X133900001Y-93000000D03*
X133400000Y-93000000D03*
D54*
X134400000Y-91562500D03*
D55*
X124250000Y-88912500D03*
X126150000Y-88912500D03*
X125200000Y-90787501D03*
D29*
X93000000Y-68000000D03*
X93000000Y-72000000D03*
D56*
X90000000Y-57600000D03*
X91000000Y-57600000D03*
X92000000Y-57600000D03*
X93000000Y-57600000D03*
X94000000Y-57600000D03*
X95000000Y-57600000D03*
X96000000Y-57600000D03*
X97000000Y-57600000D03*
D57*
X87200000Y-54900000D03*
X99800000Y-54900000D03*
D58*
X54900000Y-58300000D03*
D33*
X81225000Y-70650000D03*
X82875000Y-70650000D03*
D29*
X107000000Y-74000000D03*
X93000000Y-66000000D03*
D34*
X75581250Y-68825001D03*
X75581250Y-67175001D03*
D59*
X124637500Y-85250000D03*
X124637500Y-87150000D03*
X122762499Y-86200000D03*
D37*
X124800000Y-57850000D03*
X124800000Y-53250000D03*
D38*
X120500000Y-51950000D03*
D37*
X116200000Y-57850000D03*
X116200000Y-53250000D03*
D39*
X124475000Y-51600000D03*
D40*
X118250000Y-55500000D03*
D39*
X116525000Y-51600000D03*
X124475000Y-56100000D03*
D40*
X122750000Y-55500000D03*
D39*
X116525000Y-56100000D03*
D58*
X134400000Y-101200000D03*
D34*
X127900000Y-86925000D03*
X127900000Y-85275000D03*
D60*
X106100000Y-69387499D03*
X105600000Y-69387499D03*
X105100000Y-69387499D03*
X104600000Y-69387499D03*
D61*
X103912500Y-68699999D03*
X103912500Y-68199999D03*
X103912500Y-67699999D03*
X103912500Y-67199999D03*
D60*
X104600000Y-66512499D03*
X105100000Y-66512499D03*
X105600000Y-66512499D03*
X106100000Y-66512499D03*
D61*
X106787500Y-67199999D03*
X106787500Y-67699999D03*
X106787500Y-68199999D03*
X106787500Y-68699999D03*
D62*
X105350000Y-67949999D03*
D36*
X123925000Y-82175000D03*
X123925000Y-83825000D03*
X89150000Y-70575000D03*
X89150000Y-72225000D03*
D29*
X89000000Y-74000000D03*
D42*
X85000000Y-68525000D03*
X85000000Y-70075000D03*
D29*
X74000000Y-74000000D03*
D63*
X101450000Y-67324999D03*
X101450000Y-65774999D03*
D34*
X122550000Y-91125000D03*
X122550000Y-89475000D03*
D29*
X95000000Y-74000000D03*
D48*
X121574999Y-62950001D03*
X124525001Y-62950001D03*
D34*
X105662500Y-64225000D03*
X105662500Y-62575000D03*
D47*
X136000000Y-99200000D03*
X131800000Y-58500000D03*
D64*
X128100000Y-77450000D03*
X130900000Y-77450000D03*
D27*
X80325000Y-65600000D03*
X78675000Y-65600000D03*
%LPD*%
M02*
