G04 #@! TF.GenerationSoftware,KiCad,Pcbnew,8.0.4*
G04 #@! TF.CreationDate,2025-03-14T20:27:19-07:00*
G04 #@! TF.ProjectId,mintypcb,6d696e74-7970-4636-922e-6b696361645f,2*
G04 #@! TF.SameCoordinates,Original*
G04 #@! TF.FileFunction,Paste,Bot*
G04 #@! TF.FilePolarity,Positive*
%FSLAX46Y46*%
G04 Gerber Fmt 4.6, Leading zero omitted, Abs format (unit mm)*
G04 Created by KiCad (PCBNEW 8.0.4) date 2025-03-14 20:27:19*
%MOMM*%
%LPD*%
G01*
G04 APERTURE LIST*
G04 Aperture macros list*
%AMRoundRect*
0 Rectangle with rounded corners*
0 $1 Rounding radius*
0 $2 $3 $4 $5 $6 $7 $8 $9 X,Y pos of 4 corners*
0 Add a 4 corners polygon primitive as box body*
4,1,4,$2,$3,$4,$5,$6,$7,$8,$9,$2,$3,0*
0 Add four circle primitives for the rounded corners*
1,1,$1+$1,$2,$3*
1,1,$1+$1,$4,$5*
1,1,$1+$1,$6,$7*
1,1,$1+$1,$8,$9*
0 Add four rect primitives between the rounded corners*
20,1,$1+$1,$2,$3,$4,$5,0*
20,1,$1+$1,$4,$5,$6,$7,0*
20,1,$1+$1,$6,$7,$8,$9,0*
20,1,$1+$1,$8,$9,$2,$3,0*%
G04 Aperture macros list end*
%ADD10RoundRect,0.175000X-0.425000X0.175000X-0.425000X-0.175000X0.425000X-0.175000X0.425000X0.175000X0*%
%ADD11RoundRect,0.190000X0.410000X-0.190000X0.410000X0.190000X-0.410000X0.190000X-0.410000X-0.190000X0*%
%ADD12RoundRect,0.200000X0.400000X-0.200000X0.400000X0.200000X-0.400000X0.200000X-0.400000X-0.200000X0*%
%ADD13RoundRect,0.175000X0.425000X-0.175000X0.425000X0.175000X-0.425000X0.175000X-0.425000X-0.175000X0*%
%ADD14RoundRect,0.190000X-0.410000X0.190000X-0.410000X-0.190000X0.410000X-0.190000X0.410000X0.190000X0*%
%ADD15RoundRect,0.200000X-0.400000X0.200000X-0.400000X-0.200000X0.400000X-0.200000X0.400000X0.200000X0*%
%ADD16O,1.700000X1.100000*%
%ADD17RoundRect,0.200000X0.200000X0.275000X-0.200000X0.275000X-0.200000X-0.275000X0.200000X-0.275000X0*%
%ADD18RoundRect,0.112500X-0.187500X-0.112500X0.187500X-0.112500X0.187500X0.112500X-0.187500X0.112500X0*%
%ADD19RoundRect,0.225000X0.225000X0.250000X-0.225000X0.250000X-0.225000X-0.250000X0.225000X-0.250000X0*%
%ADD20RoundRect,0.100000X0.712500X0.100000X-0.712500X0.100000X-0.712500X-0.100000X0.712500X-0.100000X0*%
%ADD21RoundRect,0.200000X-0.200000X-0.275000X0.200000X-0.275000X0.200000X0.275000X-0.200000X0.275000X0*%
%ADD22RoundRect,0.200000X0.275000X-0.200000X0.275000X0.200000X-0.275000X0.200000X-0.275000X-0.200000X0*%
%ADD23RoundRect,0.250000X0.475000X-0.250000X0.475000X0.250000X-0.475000X0.250000X-0.475000X-0.250000X0*%
%ADD24RoundRect,0.200000X-0.275000X0.200000X-0.275000X-0.200000X0.275000X-0.200000X0.275000X0.200000X0*%
%ADD25RoundRect,0.200000X0.550000X0.450000X-0.550000X0.450000X-0.550000X-0.450000X0.550000X-0.450000X0*%
%ADD26RoundRect,0.260000X-0.515000X-0.390000X0.515000X-0.390000X0.515000X0.390000X-0.515000X0.390000X0*%
%ADD27RoundRect,0.200000X0.300000X0.750000X-0.300000X0.750000X-0.300000X-0.750000X0.300000X-0.750000X0*%
%ADD28RoundRect,0.250000X-0.475000X0.250000X-0.475000X-0.250000X0.475000X-0.250000X0.475000X0.250000X0*%
%ADD29RoundRect,0.225000X-0.250000X0.225000X-0.250000X-0.225000X0.250000X-0.225000X0.250000X0.225000X0*%
%ADD30RoundRect,0.250000X-1.500000X0.250000X-1.500000X-0.250000X1.500000X-0.250000X1.500000X0.250000X0*%
%ADD31RoundRect,0.250001X-1.449999X0.499999X-1.449999X-0.499999X1.449999X-0.499999X1.449999X0.499999X0*%
%ADD32RoundRect,0.250000X0.325000X0.650000X-0.325000X0.650000X-0.325000X-0.650000X0.325000X-0.650000X0*%
%ADD33RoundRect,0.235000X1.040000X-0.352500X1.040000X0.352500X-1.040000X0.352500X-1.040000X-0.352500X0*%
%ADD34RoundRect,0.250000X-0.325000X-0.650000X0.325000X-0.650000X0.325000X0.650000X-0.325000X0.650000X0*%
%ADD35RoundRect,0.112500X-0.112500X-0.237500X0.112500X-0.237500X0.112500X0.237500X-0.112500X0.237500X0*%
%ADD36RoundRect,0.100000X0.100000X-0.712500X0.100000X0.712500X-0.100000X0.712500X-0.100000X-0.712500X0*%
%ADD37RoundRect,0.112500X-0.112500X0.187500X-0.112500X-0.187500X0.112500X-0.187500X0.112500X0.187500X0*%
%ADD38RoundRect,0.218750X0.218750X0.256250X-0.218750X0.256250X-0.218750X-0.256250X0.218750X-0.256250X0*%
%ADD39RoundRect,0.160000X-0.315000X0.160000X-0.315000X-0.160000X0.315000X-0.160000X0.315000X0.160000X0*%
%ADD40RoundRect,0.062500X-0.062500X0.350000X-0.062500X-0.350000X0.062500X-0.350000X0.062500X0.350000X0*%
%ADD41RoundRect,0.150000X-0.150000X0.587500X-0.150000X-0.587500X0.150000X-0.587500X0.150000X0.587500X0*%
%ADD42R,0.400000X1.000000*%
%ADD43R,2.000000X1.300000*%
%ADD44RoundRect,0.150000X0.587500X0.150000X-0.587500X0.150000X-0.587500X-0.150000X0.587500X-0.150000X0*%
%ADD45RoundRect,0.125000X0.125000X-0.125000X0.125000X0.125000X-0.125000X0.125000X-0.125000X-0.125000X0*%
%ADD46RoundRect,0.062500X0.062500X-0.350000X0.062500X0.350000X-0.062500X0.350000X-0.062500X-0.350000X0*%
%ADD47RoundRect,0.062500X0.350000X-0.062500X0.350000X0.062500X-0.350000X0.062500X-0.350000X-0.062500X0*%
%ADD48RoundRect,0.225000X0.250000X-0.225000X0.250000X0.225000X-0.250000X0.225000X-0.250000X-0.225000X0*%
%ADD49RoundRect,0.250000X-0.300000X-0.300000X0.300000X-0.300000X0.300000X0.300000X-0.300000X0.300000X0*%
G04 APERTURE END LIST*
D10*
X131875001Y-69180000D03*
D11*
X131875000Y-71200000D03*
D12*
X131875000Y-72430000D03*
D13*
X131875001Y-70180000D03*
D14*
X131875000Y-68160000D03*
D15*
X131875000Y-66930000D03*
D16*
X132125000Y-65360000D03*
X135925000Y-65360000D03*
X132125000Y-74000000D03*
X135925000Y-74000000D03*
D17*
X79425000Y-70650001D03*
X77775000Y-70650001D03*
D18*
X81750000Y-65150000D03*
X83850000Y-65150000D03*
D19*
X118200000Y-62800000D03*
X116650000Y-62800000D03*
D20*
X82443750Y-67150001D03*
X82443750Y-67800001D03*
X82443750Y-68450001D03*
X82443750Y-69100001D03*
X78218750Y-69100001D03*
X78218750Y-68450001D03*
X78218750Y-67800001D03*
X78218750Y-67150001D03*
D21*
X99825000Y-70350001D03*
X101475000Y-70350001D03*
D22*
X104012500Y-64225000D03*
X104012500Y-62575000D03*
X135400000Y-97137500D03*
X135400000Y-95487500D03*
X129310000Y-89975000D03*
X129310000Y-88325000D03*
D23*
X131190000Y-95062499D03*
X131190000Y-93162501D03*
D24*
X118150000Y-64225000D03*
X118150000Y-65875000D03*
D25*
X112800000Y-57850000D03*
X112800000Y-53250000D03*
X104200000Y-57850000D03*
X104200000Y-53250000D03*
D26*
X112475000Y-51600000D03*
D27*
X106250000Y-55500000D03*
D26*
X104525000Y-51600000D03*
X112475000Y-56100000D03*
D27*
X110750000Y-55500000D03*
D26*
X104525000Y-56100000D03*
D28*
X131190000Y-88162500D03*
X131190000Y-90062498D03*
D29*
X107162500Y-62625000D03*
X107162500Y-64175000D03*
D17*
X101475000Y-71850000D03*
X99825000Y-71850000D03*
D25*
X70800000Y-57850000D03*
X70800000Y-53250000D03*
X62200000Y-57850000D03*
X62200000Y-53250000D03*
D26*
X70475000Y-51600000D03*
D27*
X64250000Y-55500000D03*
D26*
X62525000Y-51600000D03*
X70475000Y-56100000D03*
D27*
X68750000Y-55500000D03*
D26*
X62525000Y-56100000D03*
D21*
X129675000Y-63500000D03*
X131325000Y-63500000D03*
D25*
X82800000Y-57850000D03*
X82800000Y-53250000D03*
X74200000Y-57850000D03*
X74200000Y-53250000D03*
D26*
X82475000Y-51600000D03*
D27*
X76250000Y-55500000D03*
D26*
X74525000Y-51600000D03*
X82475000Y-56100000D03*
D27*
X80750000Y-55500000D03*
D26*
X74525000Y-56100000D03*
D19*
X121775000Y-74150000D03*
X120225000Y-74150000D03*
D22*
X74081250Y-68825001D03*
X74081250Y-67175001D03*
D30*
X120750000Y-100100000D03*
X120750000Y-102100000D03*
D31*
X126500000Y-97750000D03*
X126500000Y-104450000D03*
D22*
X119650001Y-63475001D03*
X119650001Y-61825001D03*
D23*
X99650000Y-67299999D03*
X99650000Y-65400001D03*
D21*
X99825001Y-68850000D03*
X101475001Y-68850000D03*
D22*
X133900000Y-87837500D03*
X133900000Y-86187500D03*
D18*
X124750000Y-80050000D03*
X126850000Y-80050000D03*
D24*
X91050000Y-71875000D03*
X91050000Y-73525000D03*
D32*
X123175001Y-76200000D03*
X120224999Y-76200000D03*
D22*
X135400000Y-87837500D03*
X135400000Y-86187500D03*
D17*
X86925000Y-67000000D03*
X85275000Y-67000000D03*
D24*
X126350000Y-85275000D03*
X126350000Y-86925000D03*
D17*
X122175000Y-72650000D03*
X120525000Y-72650000D03*
D33*
X124500000Y-72537500D03*
X124500000Y-70462500D03*
D34*
X121575000Y-60600000D03*
X124525002Y-60600000D03*
D21*
X124825000Y-77450000D03*
X126475000Y-77450000D03*
D22*
X133900000Y-97137500D03*
X133900000Y-95487500D03*
X85300000Y-65525000D03*
X85300000Y-63875000D03*
D35*
X125500000Y-81750000D03*
X126800000Y-81750000D03*
X126150000Y-83750000D03*
D36*
X121825000Y-70262500D03*
X121175000Y-70262500D03*
X120525000Y-70262500D03*
X119875000Y-70262500D03*
X119875000Y-66037500D03*
X120525000Y-66037500D03*
X121175000Y-66037500D03*
X121825000Y-66037500D03*
D24*
X86900000Y-63875000D03*
X86900000Y-65525000D03*
D21*
X129675000Y-62000000D03*
X131325000Y-62000000D03*
D37*
X127900000Y-91250000D03*
X127900000Y-93350000D03*
D38*
X123375000Y-95600000D03*
X121800000Y-95600000D03*
D17*
X118250001Y-61300000D03*
X116600001Y-61300000D03*
D29*
X102512500Y-62625000D03*
X102512500Y-64175000D03*
D39*
X134990000Y-91167500D03*
X133810000Y-91167500D03*
X134990000Y-91957500D03*
X133810000Y-91957500D03*
D40*
X133400000Y-90125000D03*
X133900001Y-90125000D03*
X134400000Y-90125000D03*
X134899999Y-90125000D03*
X135400000Y-90125000D03*
X135400000Y-93000000D03*
X134899999Y-93000000D03*
X134400000Y-93000000D03*
X133900001Y-93000000D03*
X133400000Y-93000000D03*
D41*
X124250000Y-88912500D03*
X126150000Y-88912500D03*
X125200000Y-90787501D03*
D42*
X90000000Y-57600000D03*
X91000000Y-57600000D03*
X92000000Y-57600000D03*
X93000000Y-57600000D03*
X94000000Y-57600000D03*
X95000000Y-57600000D03*
X96000000Y-57600000D03*
X97000000Y-57600000D03*
D43*
X87200000Y-54900000D03*
X99800000Y-54900000D03*
D21*
X81225000Y-70650000D03*
X82875000Y-70650000D03*
D22*
X75581250Y-68825001D03*
X75581250Y-67175001D03*
D44*
X124637500Y-85250000D03*
X124637500Y-87150000D03*
X122762499Y-86200000D03*
D25*
X124800000Y-57850000D03*
X124800000Y-53250000D03*
X116200000Y-57850000D03*
X116200000Y-53250000D03*
D26*
X124475000Y-51600000D03*
D27*
X118250000Y-55500000D03*
D26*
X116525000Y-51600000D03*
X124475000Y-56100000D03*
D27*
X122750000Y-55500000D03*
D26*
X116525000Y-56100000D03*
D22*
X127900000Y-86925000D03*
X127900000Y-85275000D03*
D45*
X105040000Y-68259999D03*
X105660000Y-68259999D03*
X105040000Y-67639999D03*
X105660000Y-67639999D03*
D46*
X106100000Y-69387499D03*
X105600000Y-69387499D03*
X105100000Y-69387499D03*
X104600000Y-69387499D03*
D47*
X103912500Y-68699999D03*
X103912500Y-68199999D03*
X103912500Y-67699999D03*
X103912500Y-67199999D03*
D46*
X104600000Y-66512499D03*
X105100000Y-66512499D03*
X105600000Y-66512499D03*
X106100000Y-66512499D03*
D47*
X106787500Y-67199999D03*
X106787500Y-67699999D03*
X106787500Y-68199999D03*
X106787500Y-68699999D03*
D24*
X123925000Y-82175000D03*
X123925000Y-83825000D03*
X89150000Y-70575000D03*
X89150000Y-72225000D03*
D29*
X85000000Y-68525000D03*
X85000000Y-70075000D03*
D48*
X101450000Y-67324999D03*
X101450000Y-65774999D03*
D22*
X122550000Y-91125000D03*
X122550000Y-89475000D03*
D34*
X121574999Y-62950001D03*
X124525001Y-62950001D03*
D22*
X105662500Y-64225000D03*
X105662500Y-62575000D03*
D49*
X128100000Y-77450000D03*
X130900000Y-77450000D03*
D17*
X80325000Y-65600000D03*
X78675000Y-65600000D03*
M02*
