G04 #@! TF.GenerationSoftware,KiCad,Pcbnew,8.0.4*
G04 #@! TF.CreationDate,2025-03-14T20:27:19-07:00*
G04 #@! TF.ProjectId,mintypcb,6d696e74-7970-4636-922e-6b696361645f,2*
G04 #@! TF.SameCoordinates,Original*
G04 #@! TF.FileFunction,Paste,Top*
G04 #@! TF.FilePolarity,Positive*
%FSLAX46Y46*%
G04 Gerber Fmt 4.6, Leading zero omitted, Abs format (unit mm)*
G04 Created by KiCad (PCBNEW 8.0.4) date 2025-03-14 20:27:19*
%MOMM*%
%LPD*%
G01*
G04 APERTURE LIST*
G04 Aperture macros list*
%AMRoundRect*
0 Rectangle with rounded corners*
0 $1 Rounding radius*
0 $2 $3 $4 $5 $6 $7 $8 $9 X,Y pos of 4 corners*
0 Add a 4 corners polygon primitive as box body*
4,1,4,$2,$3,$4,$5,$6,$7,$8,$9,$2,$3,0*
0 Add four circle primitives for the rounded corners*
1,1,$1+$1,$2,$3*
1,1,$1+$1,$4,$5*
1,1,$1+$1,$6,$7*
1,1,$1+$1,$8,$9*
0 Add four rect primitives between the rounded corners*
20,1,$1+$1,$2,$3,$4,$5,0*
20,1,$1+$1,$4,$5,$6,$7,0*
20,1,$1+$1,$6,$7,$8,$9,0*
20,1,$1+$1,$8,$9,$2,$3,0*%
G04 Aperture macros list end*
%ADD10RoundRect,0.218750X0.218750X0.256250X-0.218750X0.256250X-0.218750X-0.256250X0.218750X-0.256250X0*%
%ADD11RoundRect,0.200000X-0.300000X-0.200000X0.300000X-0.200000X0.300000X0.200000X-0.300000X0.200000X0*%
%ADD12RoundRect,0.250000X-0.550000X0.250000X-0.550000X-0.250000X0.550000X-0.250000X0.550000X0.250000X0*%
%ADD13RoundRect,0.250000X0.550000X-0.250000X0.550000X0.250000X-0.550000X0.250000X-0.550000X-0.250000X0*%
%ADD14RoundRect,0.250000X0.250000X0.550000X-0.250000X0.550000X-0.250000X-0.550000X0.250000X-0.550000X0*%
%ADD15RoundRect,0.250000X0.565685X0.212132X0.212132X0.565685X-0.565685X-0.212132X-0.212132X-0.565685X0*%
%ADD16RoundRect,0.200000X-0.200000X0.300000X-0.200000X-0.300000X0.200000X-0.300000X0.200000X0.300000X0*%
%ADD17RoundRect,0.250000X-0.250000X-0.550000X0.250000X-0.550000X0.250000X0.550000X-0.250000X0.550000X0*%
%ADD18RoundRect,0.200000X0.200000X-0.300000X0.200000X0.300000X-0.200000X0.300000X-0.200000X-0.300000X0*%
G04 APERTURE END LIST*
D10*
X135912499Y-69500000D03*
X134337497Y-69500000D03*
D11*
X86500000Y-75150000D03*
X92500000Y-75150000D03*
X86500000Y-78850000D03*
X92500000Y-78850000D03*
D12*
X128850000Y-63700000D03*
X128850000Y-69700000D03*
X124350000Y-63700000D03*
X124350000Y-69700000D03*
X64250000Y-64300000D03*
X64250000Y-70300000D03*
X59750000Y-64300000D03*
X59750000Y-70300000D03*
D13*
X73750000Y-70300000D03*
X73750000Y-64300000D03*
X78250000Y-70300000D03*
X78250000Y-64300000D03*
D14*
X122000000Y-61350000D03*
X116000000Y-61350000D03*
X122000000Y-56850000D03*
X116000000Y-56850000D03*
D12*
X113650000Y-63700000D03*
X113650000Y-69700000D03*
X109150000Y-63700000D03*
X109150000Y-69700000D03*
D15*
X119530330Y-78012311D03*
X115287689Y-73769670D03*
X122712311Y-74830330D03*
X118469670Y-70587689D03*
D16*
X126350000Y-94000000D03*
X126350000Y-100000000D03*
X122650000Y-94000000D03*
X122650000Y-100000000D03*
D12*
X71250000Y-57300000D03*
X71250000Y-63300000D03*
X66750000Y-57300000D03*
X66750000Y-63300000D03*
D10*
X135912499Y-71300000D03*
X134337497Y-71300000D03*
D17*
X66000000Y-72050000D03*
X72000000Y-72050000D03*
X66000000Y-76550000D03*
X72000000Y-76550000D03*
D10*
X135900000Y-67700000D03*
X134324998Y-67700000D03*
D18*
X122650000Y-91000000D03*
X122650000Y-85000000D03*
X126350000Y-91000000D03*
X126350000Y-85000000D03*
D11*
X94500000Y-75150000D03*
X100500000Y-75150000D03*
X94500000Y-78850000D03*
X100500000Y-78850000D03*
M02*
