G04 #@! TF.GenerationSoftware,KiCad,Pcbnew,8.0.4*
G04 #@! TF.CreationDate,2025-03-14T20:27:20-07:00*
G04 #@! TF.ProjectId,mintypcb,6d696e74-7970-4636-922e-6b696361645f,2*
G04 #@! TF.SameCoordinates,Original*
G04 #@! TF.FileFunction,Profile,NP*
%FSLAX46Y46*%
G04 Gerber Fmt 4.6, Leading zero omitted, Abs format (unit mm)*
G04 Created by KiCad (PCBNEW 8.0.4) date 2025-03-14 20:27:20*
%MOMM*%
%LPD*%
G01*
G04 APERTURE LIST*
G04 #@! TA.AperFunction,Profile*
%ADD10C,0.150000*%
G04 #@! TD*
G04 APERTURE END LIST*
D10*
X60000000Y-56000000D02*
G75*
G02*
X59000000Y-57000000I-1000000J0D01*
G01*
X128000000Y-57000000D02*
X135000000Y-57000001D01*
X85500000Y-50500000D02*
G75*
G02*
X86000000Y-51000000I0J-500000D01*
G01*
X60000000Y-56000000D02*
X60000000Y-51500000D01*
X101000000Y-51000000D02*
G75*
G02*
X101500000Y-50500000I500000J0D01*
G01*
X128000000Y-57000000D02*
G75*
G02*
X127000000Y-56000000I0J1000000D01*
G01*
X138000000Y-98000000D02*
X138000000Y-60000000D01*
X50000000Y-81500000D02*
X118999998Y-81500000D01*
X87000000Y-52000000D02*
G75*
G02*
X86000000Y-51000000I0J1000000D01*
G01*
X112000000Y-100000002D02*
G75*
G02*
X113000001Y-99000000I1000000J2D01*
G01*
X50000000Y-81500000D02*
G75*
G02*
X49000000Y-80500000I0J1000000D01*
G01*
X60000000Y-51500000D02*
G75*
G02*
X61000000Y-50500000I1000000J0D01*
G01*
X49000000Y-60000000D02*
G75*
G02*
X52000000Y-57000000I3000000J0D01*
G01*
X127000000Y-56000000D02*
X127000000Y-51500000D01*
X87000000Y-52000000D02*
X100000000Y-52000000D01*
X119999999Y-97999998D02*
X120000000Y-82500001D01*
X49000000Y-60000000D02*
X48999999Y-80500000D01*
X101000000Y-51000000D02*
G75*
G02*
X100000000Y-52000000I-1000000J0D01*
G01*
X85500000Y-50500000D02*
X61000000Y-50500000D01*
X120000000Y-98000000D02*
G75*
G02*
X118999999Y-99000000I-1000000J0D01*
G01*
X101500000Y-50500000D02*
X126000000Y-50500000D01*
X118999998Y-81500000D02*
G75*
G02*
X120000000Y-82500001I2J-1000000D01*
G01*
X125999999Y-106000000D02*
X113000000Y-106000000D01*
X138000000Y-98000000D02*
G75*
G02*
X125999999Y-106000000I-12000000J5000000D01*
G01*
X113000000Y-106000000D02*
G75*
G02*
X112000000Y-105000000I0J1000000D01*
G01*
X111999999Y-100000001D02*
X112000000Y-104999998D01*
X119000000Y-99000000D02*
X113000001Y-99000000D01*
X126000000Y-50500000D02*
G75*
G02*
X127000000Y-51500000I0J-1000000D01*
G01*
X59000000Y-56999999D02*
X52000000Y-57000000D01*
X135000000Y-57000000D02*
G75*
G02*
X138000000Y-60000000I0J-3000000D01*
G01*
M02*
