M48
; DRILL file {KiCad 8.0.4} date 2025-03-17T12:40:50-0700
; FORMAT={-:-/ absolute / metric / decimal}
; #@! TF.CreationDate,2025-03-17T12:40:50-07:00
; #@! TF.GenerationSoftware,Kicad,Pcbnew,8.0.4
; #@! TF.FileFunction,Plated,1,2,PTH
FMAT,2
METRIC
; #@! TA.AperFunction,Plated,PTH,ViaDrill
T1C0.300
%
G90
G05
T1
X88.6Y-102.4
X90.0Y-111.6
X90.0Y-118.0
X93.8Y-91.4
X96.5Y-94.4
X97.5Y-115.9
X98.1Y-110.1
X99.0Y-85.2
X99.5Y-115.8
X99.5Y-118.4
X100.5Y-115.8
X100.5Y-118.4
X101.6Y-108.0
X103.55Y-115.2
X104.2Y-91.6
X104.7Y-117.3
X105.6Y-91.6
X106.3Y-87.6
X106.3Y-88.4
X107.05Y-119.65
X108.35Y-119.65
X109.25Y-87.75
X109.25Y-88.55
X109.7Y-92.2
X109.7Y-96.3
X110.4Y-83.0
X112.4Y-103.2
X112.4Y-110.6
M30
